<svg width="73" height="73" viewBox="0 0 73 73" fill="none" xmlns="http://www.w3.org/2000/svg">
<rect width="72.6355" height="72.6355" rx="6" fill="#333333"/>
<path d="M56.6494 25.8854C56.4231 25.659 56.1402 25.4893 55.8007 25.4893H49.8031L49.9163 24.9801C50.765 24.9801 51.5005 24.0748 51.5005 22.9432C51.5005 21.8115 50.765 20.9062 49.9163 20.9062H21.6258C20.7771 20.9062 20.0416 21.8115 20.0416 22.9432C20.0416 24.0748 20.7205 24.9801 21.6258 24.9801L21.739 25.4893H16.1375C15.798 25.4893 15.5151 25.6025 15.2888 25.8854C15.0624 26.1117 15.0059 26.4512 15.0059 26.7341C15.0624 27.2999 16.7033 40.5398 25.8128 42.0109L25.8694 42.2938C26.0957 43.086 26.8313 44.1044 27.5668 44.5005L33.2249 47.5559C33.2249 47.9519 33.2815 48.4046 33.2815 48.8572C33.2815 51.0639 32.942 53.1008 32.3196 54.7982H31.5841C30.2827 54.7982 29.2642 55.7601 29.2077 56.9483C28.5853 57.1746 28.1326 57.7404 28.1326 58.4194C28.1326 59.2681 28.8116 60.0037 29.7169 60.0037H41.712C42.5608 60.0037 43.2963 59.3247 43.2963 58.4194C43.2963 57.7404 42.8437 57.1746 42.2213 56.9483C42.1647 55.7601 41.1462 54.7982 39.8449 54.7982H39.0527C38.6001 53.2705 38.3172 51.4599 38.3172 49.5362C38.3172 48.8572 38.3738 48.1782 38.4304 47.4993L43.8621 44.5571C44.5977 44.161 45.3332 43.1991 45.5595 42.3504L45.6161 42.1241C55.1217 41.0491 56.8191 27.4131 56.8757 26.7907C56.9889 26.3946 56.8757 26.1117 56.6494 25.8854ZM17.4388 27.696H22.3048L25.247 39.5214C19.9284 37.9371 18.0046 30.6382 17.4388 27.696ZM40.9765 36.6923C40.9765 38.5595 39.5054 40.2003 37.5816 40.7096V42.2372H34.5828V40.653C32.6591 40.2003 31.5275 39.5214 31.3012 39.295L30.9617 39.0687L32.8854 36.8055L33.3381 37.0318C33.3381 37.0318 34.1868 37.7108 36.2237 37.8239C37.129 37.8239 37.9211 37.3147 38.0343 36.466C38.1474 35.7304 37.0158 35.1081 35.8842 34.8817C33.7341 34.3725 31.2446 32.958 31.2446 30.4684C31.2446 28.5447 32.6025 26.7341 34.5263 26.1683V24.584H37.6948V26.1683C39.1659 26.5078 39.8449 27.0736 40.0712 27.2999L40.4107 27.5262L39.3922 28.6578L38.4869 29.6763L38.0909 29.45C37.7514 29.3368 36.9592 28.9973 35.6013 28.9973C34.9789 28.9973 34.2434 29.5065 34.2434 30.3553C34.2434 30.8645 35.2618 31.4869 36.5066 31.7132L36.8461 31.8264C39.6186 32.6185 41.0897 34.2593 40.9765 36.6923ZM46.2951 39.6911L49.2939 27.696H54.5559C53.9335 30.7513 51.9532 38.3332 46.2951 39.6911Z" fill="white"/>
<path d="M54.1582 14.8516C54.1582 18.4727 50.4238 18.5859 50.4238 18.5859C50.4238 18.5859 54.1582 18.6991 54.1582 22.3202C54.1582 18.6991 57.8925 18.5859 57.8925 18.5859C57.8925 18.5859 54.1582 18.4727 54.1582 14.8516Z" fill="#DBFD67"/>
<path d="M47.4832 49.7578C47.4832 52.6434 44.541 52.7 44.541 52.7C44.541 52.7 47.4832 52.8132 47.4832 55.6422C47.4832 52.7566 50.4254 52.7 50.4254 52.7C50.4254 52.7 47.4832 52.6434 47.4832 49.7578Z" fill="#DBFD67"/>
<path d="M17.4372 42.2344C17.4372 44.2713 15.3438 44.3279 15.3438 44.3279C15.3438 44.3279 17.4372 44.3845 17.4372 46.4214C17.4372 44.3845 19.5307 44.3279 19.5307 44.3279C19.5307 44.3279 17.4372 44.2713 17.4372 42.2344Z" fill="#DBFD67"/>
<path d="M30.0574 12.5859C30.0574 15.4716 27.1152 15.5281 27.1152 15.5281C27.1152 15.5281 30.0574 15.6413 30.0574 18.4704C30.0574 15.5847 32.9996 15.5281 32.9996 15.5281C32.9996 15.5281 30.0574 15.4716 30.0574 12.5859Z" fill="#DBFD67"/>
<path d="M17.4372 18.1328C17.4372 20.1697 15.3438 20.2263 15.3438 20.2263C15.3438 20.2263 17.4372 20.2829 17.4372 22.3198C17.4372 20.2829 19.5307 20.2263 19.5307 20.2263C19.5307 20.2263 17.4372 20.1697 17.4372 18.1328Z" fill="#DBFD67"/>
<path d="M54.8396 42.2344C54.8396 44.2713 52.7461 44.3279 52.7461 44.3279C52.7461 44.3279 54.8396 44.3845 54.8396 46.4214C54.8396 44.3845 56.9331 44.3279 56.9331 44.3279C56.9331 44.3279 54.8396 44.2713 54.8396 42.2344Z" fill="#DBFD67"/>
<path d="M23.4363 50.3828C23.4363 53.2684 20.4941 53.325 20.4941 53.325C20.4941 53.325 23.4363 53.4382 23.4363 56.2672C23.4363 53.3816 26.3786 53.325 26.3786 53.325C26.3786 53.325 23.4363 53.2684 23.4363 50.3828Z" fill="#DBFD67"/>
</svg>
