<svg width="73" height="74" viewBox="0 0 73 74" fill="none" xmlns="http://www.w3.org/2000/svg">
<rect y="0.632812" width="72.6355" height="72.6355" rx="6" fill="#333333"/>
<path d="M15.7564 15.6956C15.2654 15.7136 14.9381 16.2099 15.115 16.6684L16.6047 20.5662L15.5845 24.2949C15.4876 24.6493 15.6748 25.0196 16.0178 25.1516L24.8291 28.5309C25.5075 28.7955 26.1015 27.9957 25.6522 27.4226L22.3149 23.1013L23.5923 20.1595C23.7456 19.808 23.5946 19.3981 23.2499 19.2301L16.0974 15.7697C15.9925 15.7177 15.8763 15.6923 15.7592 15.6956L15.7564 15.6956ZM36.5332 15.6956C36.1163 15.7037 35.8176 16.0119 35.8176 16.4084V17.8395C35.8176 18.3164 36.1755 18.5559 36.5332 18.5564C36.8908 18.5559 37.2487 18.3163 37.2487 17.8395V16.4084C37.2487 16.0119 36.9501 15.7034 36.5332 15.6956ZM56.9689 15.7697L49.8165 19.2301C49.4718 19.3981 49.3208 19.808 49.4741 20.1595L50.7514 23.1014L47.4142 27.4226C46.9648 27.9957 47.5589 28.7955 48.2373 28.5309L57.0486 25.1516C57.3915 25.0196 57.5788 24.6493 57.4818 24.2949L56.4616 20.5662L57.9514 16.6684C58.1286 16.2088 57.7994 15.7118 57.3071 15.6956C57.19 15.6923 57.0739 15.7177 56.9689 15.7697ZM32.1506 18.0519L33.1652 19.061C33.8712 19.7175 34.8326 18.7283 34.1798 18.0519L33.1652 17.0373C33.0305 16.8988 32.8567 16.829 32.6635 16.8291C32.0166 16.8237 31.7041 17.609 32.1506 18.0519ZM39.9012 17.0373L38.8866 18.052C38.2338 18.7283 39.1952 19.7176 39.9012 19.061L40.9158 18.052C41.3623 17.609 41.0496 16.8241 40.4029 16.8291C40.2098 16.8291 40.0359 16.8989 39.9012 17.0373ZM26.7255 21.2049L26.9364 21.4172L26.7255 21.6281C25.9939 22.3031 27.0668 23.3716 27.7387 22.6371L27.9483 22.4275L28.1565 22.6371C28.8289 23.3412 29.8713 22.3045 29.1711 21.6281L28.9588 21.4172L29.1711 21.2049C29.6357 20.7482 29.2982 19.9587 28.647 19.9792C28.4618 19.9846 28.2857 20.0628 28.1565 20.1958L27.9483 20.4054L27.7387 20.1958C27.6048 20.0566 27.421 19.9776 27.1908 19.9778C26.5479 20.0394 26.2885 20.7807 26.7255 21.2049ZM45.3235 20.1958L45.1139 20.4054L44.9057 20.1958C44.7764 20.0627 44.6005 19.9851 44.4151 19.9791C43.764 19.9575 43.4264 20.7482 43.8911 21.2048L44.1036 21.4171L43.8911 21.6281C43.19 22.3044 44.2332 23.342 44.9057 22.6371L45.1139 22.4275L45.3235 22.6371C45.9954 23.3715 47.0683 22.303 46.3367 21.6281L46.1257 21.4171L46.3367 21.2048C46.7737 20.7807 46.5144 20.0393 45.8713 19.9778C45.6412 19.9775 45.4574 20.0568 45.3235 20.1958ZM35.2684 22.9965L34.2566 24.0097C33.8171 24.4493 33.5467 24.9942 33.4545 25.568C32.9108 25.631 32.394 25.8724 31.9801 26.2864C31.4855 26.781 31.2378 27.4308 31.2464 28.0837C30.5927 28.0755 29.9442 28.3208 29.4492 28.816C28.9549 29.3103 28.7072 29.9576 28.7155 30.6105C28.0627 30.6024 27.4154 30.8498 26.9211 31.3442C26.4257 31.8396 26.1808 32.4662 26.1832 33.1387C25.5227 33.1372 24.8764 33.3904 24.3903 33.8765C23.6474 34.6194 23.4656 35.7239 23.8578 36.6381C23.5211 37.3776 23.4139 38.1749 23.2289 38.9316C23.0756 39.559 22.8844 40.1463 22.5595 40.6561C22.4308 40.5539 22.2682 40.4936 22.1039 40.4955C21.9111 40.5009 21.7253 40.582 21.5938 40.7232L15.7818 46.4645L27.9463 58.629L33.27 52.3174C33.5156 52.0451 33.5234 51.6374 33.2646 51.3503C34.123 50.6 35.3783 49.67 36.8142 48.5999C37.5343 48.9125 38.3255 49.0272 39.0586 49.2064C39.6854 49.3595 40.2723 49.5502 40.7818 49.8745C40.5548 50.1467 40.5746 50.5588 40.8223 50.8164L47.2664 57.1979L57.9997 45.0334L51.9521 39.682C51.8114 39.5487 51.6229 39.4781 51.4294 39.4862C51.2623 39.4917 51.0996 39.563 50.9752 39.675C50.4191 39.0307 49.8217 38.2035 49.1529 37.26C49.6214 36.2893 49.4465 35.1541 48.6763 34.3838C48.2922 33.9997 47.8224 33.7628 47.3207 33.6808C47.5108 32.8646 47.2864 31.9791 46.6541 31.3469C46.2711 30.9638 45.7987 30.7265 45.2971 30.6453C45.4875 29.8272 45.263 28.9425 44.6305 28.31C44.1444 27.8238 43.4924 27.5721 42.8361 27.5735C42.8307 26.9212 42.5954 26.2733 42.101 25.779C41.6149 25.2928 40.9825 25.0453 40.3402 25.0453C40.2801 25.0453 40.2128 25.0438 40.153 25.048C40.1638 24.2986 39.8853 23.5643 39.3173 22.9964C38.7611 22.4401 38.0278 22.1564 37.2936 22.1565C36.5594 22.1566 35.8246 22.4403 35.2684 22.9965ZM38.3056 24.0097C38.852 24.5562 38.874 25.454 38.3137 26.0237C37.9732 26.3638 37.6334 26.7046 37.2935 27.0453C36.7242 27.6146 35.8201 27.5968 35.2685 27.0453C34.711 26.4877 34.6992 25.591 35.2685 25.0216L36.2817 24.0097C36.5664 23.7251 36.9354 23.5863 37.2825 23.5863C37.6464 23.5863 38.0209 23.725 38.3056 24.0097ZM41.0866 26.7937C41.504 27.2111 41.5158 27.8808 41.0866 28.3101L38.8101 30.5867C38.1049 31.263 39.1494 32.3061 39.8247 31.5999L42.1012 29.3233C42.5304 28.8941 43.2051 28.9108 43.6175 29.3233C44.03 29.7357 44.0467 30.4104 43.6175 30.8396C42.7655 31.6874 42.1484 32.3113 41.341 33.1163C40.637 33.7888 41.6737 34.8312 42.35 34.1309L44.15 32.3351C44.5692 31.9396 45.2245 31.9408 45.6397 32.3567C46.055 32.7719 46.0689 33.448 45.6397 33.8772C44.7996 34.7172 44.1588 35.3604 43.3632 36.1539C42.6629 36.8302 43.7053 37.8669 44.3778 37.1629C44.9675 36.5731 45.5573 35.9834 46.147 35.3936C46.5762 34.9644 47.2509 34.9811 47.6633 35.3936C48.0841 35.8144 48.0925 36.4807 47.6633 36.9099L42.8559 41.7162C38.9841 45.5881 34.6347 48.1971 32.2502 50.3363L23.5912 41.6771C24.0321 41.1455 24.446 40.076 24.6184 39.2704C24.7355 38.7915 24.8242 38.3369 24.9231 37.9498L25.4052 38.4305C26.3789 39.4014 27.9714 39.4028 28.9437 38.4305C29.3284 38.0458 29.5622 37.5797 29.6424 37.0763C30.4609 37.2683 31.349 37.0398 31.9819 36.4068C32.4761 35.9126 32.722 35.2647 32.7128 34.6109C33.3665 34.6191 34.0171 34.3716 34.5114 33.8772C35.0053 33.3833 35.2553 32.7319 35.2465 32.0786C35.9006 32.0867 36.5462 31.8422 37.0408 31.3477C37.7844 30.604 37.9657 29.5065 37.5719 28.5903C37.7709 28.491 37.933 28.3823 38.1085 28.2339C38.2722 28.1159 39.0803 27.2849 39.5703 26.7944C39.7851 26.5799 40.0575 26.473 40.3292 26.4726C40.6009 26.4723 40.872 26.5791 41.0866 26.7937ZM34.257 28.0585C34.76 28.5615 35.4099 28.8419 36.0919 28.8915C36.4372 29.2824 36.4382 29.9204 36.0262 30.3323C35.6168 30.7418 34.9405 30.7616 34.5113 30.3323C34.0085 29.8328 33.4492 29.274 32.9838 28.8104C32.5611 28.381 32.5847 27.7002 32.9893 27.2954C33.1423 27.1424 33.3632 27.0258 33.5833 26.995C33.7208 27.382 33.9489 27.7504 34.257 28.0585ZM31.9791 29.8278C32.4854 30.3338 32.9916 30.8399 33.4982 31.3484C33.9238 31.7791 33.9054 32.4589 33.4996 32.8647C33.0842 33.2801 32.4083 33.2911 31.9791 32.862L30.4628 31.3442C30.0336 30.915 30.0476 30.2431 30.4628 29.8279C30.6776 29.6131 30.9513 29.512 31.2231 29.512C31.4948 29.512 31.7645 29.6131 31.9791 29.8278ZM29.4496 32.3574L30.9673 33.8738C31.3965 34.303 31.3826 34.9818 30.97 35.3943C30.5575 35.8068 29.8759 35.8235 29.4467 35.3943C28.9421 34.8857 28.4389 34.3829 27.9304 33.8765C27.5012 33.4473 27.5194 32.7713 27.9332 32.3574C28.1476 32.1427 28.4174 32.043 28.6893 32.0429C28.9611 32.0429 29.235 32.1427 29.4496 32.3574ZM26.1599 34.5725C26.4315 34.5725 26.7069 34.671 26.9215 34.8856L27.9291 35.9002C28.3583 36.3295 28.3541 36.9916 27.9291 37.4166C27.5139 37.8318 26.8434 37.8458 26.4142 37.4166L25.4052 36.4076C24.976 35.9783 24.976 35.3148 25.4052 34.8856C25.6197 34.6709 25.8882 34.5725 26.1599 34.5725ZM48.2055 38.3949C48.8096 39.2454 49.3357 39.9825 49.9636 40.6827L41.805 48.8417C41.0302 48.2759 40.168 48.0058 39.397 47.8173C38.9721 47.7134 38.5693 47.6334 38.2148 47.5461C40.0514 46.1465 42.0616 44.5391 43.8705 42.7301L48.2055 38.3949Z" fill="white"/>
</svg>
