<svg width="73" height="73" viewBox="0 0 73 73" fill="none" xmlns="http://www.w3.org/2000/svg">
<rect y="0.265625" width="72.6355" height="72.6355" rx="6" fill="#333333"/>
<path d="M59.8993 25.1422C58.7312 23.9741 56.9401 23.9741 55.772 25.1422C54.9932 25.921 54.7596 27.0112 54.9932 27.9457L41.7546 31.5279L37.3158 23.8963C38.2503 23.429 38.8733 22.4166 38.8733 21.3264C38.8733 19.691 37.5494 18.3672 35.9141 18.3672C34.2787 18.3672 32.9548 19.691 32.9548 21.3264C32.9548 22.3388 33.5 23.2733 34.3566 23.8184L29.9178 31.4501L16.8349 27.9457C17.0685 26.9333 16.8349 25.921 16.0562 25.1422C14.888 23.9741 13.0969 23.9741 11.9288 25.1422C10.7607 26.3104 10.7607 28.1015 11.9288 29.2696C12.7076 30.0483 13.7978 30.2819 14.7323 30.0483L19.9499 48.816H21.5073H50.3987H51.6447H51.9562H52.034L57.018 30.0483C58.0303 30.2819 59.0427 30.0483 59.8214 29.2696C60.9896 28.1015 60.9896 26.3104 59.8993 25.1422Z" fill="white"/>
<path d="M52.0353 50.375H19.9512V54.2687H52.0353V50.375Z" fill="#DBFD67"/>
</svg>
