<svg width="428" height="102" viewBox="0 0 428 102" fill="none" xmlns="http://www.w3.org/2000/svg">
<mask id="mask0_889_5312" style="mask-type:alpha" maskUnits="userSpaceOnUse" x="0" y="0" width="428" height="102">
<rect width="428" height="102" rx="8" fill="url(#paint0_radial_889_5312)"/>
</mask>
<g mask="url(#mask0_889_5312)">
<path d="M116.955 85.34L126.834 102.688C128.552 105.706 132.388 106.764 135.41 105.054C138.435 103.343 139.503 99.5052 137.796 96.4777L122.712 69.7193C121.666 67.8639 119.923 66.5022 117.87 65.9359L115.207 65.2014C113.166 64.6382 110.984 64.9075 109.141 65.9503L89.4797 77.0731C85.6418 79.2443 80.7707 77.9006 78.5887 74.0688L67.4107 54.4388C66.3627 52.5984 64.6277 51.2487 62.5862 50.6855L59.9039 49.9456C57.8623 49.3824 55.6807 49.6518 53.8374 50.6946L34.1761 61.8174C30.3382 63.9886 25.4671 62.6449 23.2851 58.8131L12.1071 39.1831C11.0591 37.3427 9.32415 35.993 7.28257 35.4298L4.60033 34.6899C2.55874 34.1267 0.377149 34.396 -1.46617 35.4388L-28.3595 50.653C-31.3871 52.3658 -32.448 56.2118 -30.7268 59.2345C-29.0123 62.2453 -25.1849 63.3011 -22.1693 61.5952L-4.78134 51.7584C-0.943421 49.5872 3.92771 50.931 6.10969 54.7628L17.4605 74.6962C18.5085 76.5366 20.2434 77.8863 22.285 78.4495L24.4905 79.0579C26.5321 79.621 28.7137 79.3517 30.557 78.3089L50.5222 67.0142C54.3602 64.843 59.2313 66.1867 61.4133 70.0185L72.7641 89.9519C73.8121 91.7923 75.547 93.142 77.5886 93.7052L80.0325 94.3794C82.0741 94.9425 84.2557 94.6732 86.099 93.6304L106.064 82.3356C109.902 80.1645 114.773 81.5082 116.955 85.34Z" fill="#E7327C"/>
<path d="M107.455 119.777L117.334 137.126C119.052 140.143 122.888 141.201 125.91 139.492C128.935 137.78 130.003 133.943 128.296 130.915L113.212 104.157C112.166 102.301 110.423 100.94 108.37 100.373L105.707 99.6389C103.666 99.0757 101.484 99.345 99.641 100.388L79.9797 111.511C76.1418 113.682 71.2707 112.338 69.0887 108.506L57.9107 88.8763C56.8627 87.0359 55.1277 85.6862 53.0862 85.123L50.4039 84.3831C48.3623 83.8199 46.1807 84.0893 44.3374 85.1321L24.6761 96.2549C20.8382 98.4261 15.9671 97.0824 13.7851 93.2506L2.60709 73.6206C1.55912 71.7802 -0.175855 70.4305 -2.21743 69.8673L-4.89967 69.1274C-6.94126 68.5642 -9.12285 68.8335 -10.9662 69.8763L-37.8595 85.0905C-40.8871 86.8033 -41.948 90.6493 -40.2268 93.672C-38.5123 96.6828 -34.6849 97.7386 -31.6693 96.0327L-14.2813 86.1959C-10.4434 84.0247 -5.57229 85.3685 -3.39031 89.2003L7.9605 109.134C9.00847 110.974 10.7434 112.324 12.785 112.887L14.9905 113.495C17.0321 114.059 19.2137 113.789 21.057 112.746L41.0222 101.452C44.8602 99.2805 49.7313 100.624 51.9133 104.456L63.2641 124.389C64.3121 126.23 66.047 127.58 68.0886 128.143L70.5325 128.817C72.5741 129.38 74.7557 129.111 76.599 128.068L96.5642 116.773C100.402 114.602 105.273 115.946 107.455 119.777Z" fill="#E7327C"/>
</g>
<defs>
<radialGradient id="paint0_radial_889_5312" cx="0" cy="0" r="1" gradientUnits="userSpaceOnUse" gradientTransform="translate(214 51) rotate(90) scale(51 214)">
<stop stop-color="#1F3045"/>
<stop offset="0.244792" stop-color="#192A3E"/>
<stop offset="1" stop-color="#011223"/>
</radialGradient>
</defs>
</svg>
