<svg width="143" height="19" viewBox="0 0 143 19" fill="none" xmlns="http://www.w3.org/2000/svg">
<path d="M99.7327 0.00344122L95.9619 17.6831L98.9921 18.3294L102.763 0.649732L99.7327 0.00344122Z" fill="white"/>
<path d="M91.7246 9.98659L88.9414 11.3464L92.3887 18.4018L95.1718 17.042L91.7246 9.98659Z" fill="white"/>
<path d="M94.1661 4.08559L92.6722 10.2971L95.9577 10.9038L97.8783 2.91841L96.2359 1.14453L88.1753 1.14585L84.1436 17.6996L87.4276 18.3129L90.8926 4.08559H94.1661Z" fill="white"/>
<path d="M118.481 1.9953L116.046 0L105.86 11.7688L108.293 0.674369L105.18 0.0278086L101.312 17.6664L104.425 18.313L118.481 1.9953Z" fill="white"/>
<path d="M123.379 0L109.323 16.3177L111.759 18.313L121.944 6.54417L119.511 17.6386L122.624 18.2851L126.492 0.646561L123.379 0Z" fill="white"/>
<path d="M130.727 0.624758L128.188 0L125.348 15.358L126.617 17.1684H132.215V14.1731H128.222L130.727 0.624758Z" fill="white"/>
<path d="M141.226 7.72275H135.619L140.387 1.84293L137.839 0L131.07 8.34726L132.36 10.7841H137.969L133.319 16.4714L135.868 18.313L142.516 10.1065L141.226 7.72275Z" fill="white"/>
<path d="M30.1486 0.229736H26.4892L22.625 18.4149H25.0109H26.2844H29.8758L30.5349 15.369H26.9314L30.1486 0.229736Z" fill="white"/>
<path d="M39.8527 0.229736H36.1933L32.3291 18.4149H34.715H35.9885H39.5799L40.239 15.369H36.6355L39.8527 0.229736Z" fill="white"/>
<path d="M52.4008 3.27565L53.0589 0.229736H49.5587H48.2629H45.8993L42.0352 18.4149H44.3987H45.6945H49.1947L49.8547 15.369H46.3424L47.3078 10.8225H50.6041L51.2409 7.82218H47.9455L48.9117 3.27565H52.4008Z" fill="white"/>
<path d="M74.0179 3.27565L74.677 0.229736H71.1759H69.8801H67.5165L63.6523 18.4149H66.0159H67.3117H70.8119L71.4719 15.369H67.9596L68.925 10.8225H72.2213L72.858 7.82218H69.5626L70.5289 3.27565H74.0179Z" fill="white"/>
<path d="M9.62313 0.594053C8.92589 0.200281 8.04619 0.00292969 6.98589 0.00292969C6.04661 0.00292969 5.25441 0.184456 4.61115 0.548439C3.96697 0.912422 3.42891 1.47655 2.99697 2.24175C2.56503 3.00695 2.21222 4.01884 1.94039 5.27649L0.190298 13.5727C-0.0675616 14.74 -0.0629076 15.7026 0.201469 16.4594C0.466776 17.2172 0.948053 17.7701 1.6453 18.1192C2.34161 18.4674 3.22132 18.6424 4.28161 18.6424C5.23672 18.6424 6.03543 18.472 6.67962 18.1313C7.3238 17.7906 7.85349 17.2414 8.27053 16.4836C8.68665 15.7259 9.03201 14.6879 9.30477 13.3698L9.80466 11.0285H6.0764L5.32702 14.5287C5.26558 14.8322 5.19762 15.0705 5.12222 15.2446C5.04589 15.4196 4.94721 15.5406 4.82712 15.6076C4.70611 15.6765 4.56182 15.71 4.39518 15.71C4.18294 15.71 4.01631 15.6682 3.89529 15.5853C3.77427 15.5025 3.69794 15.3619 3.66815 15.1645C3.63743 14.9681 3.65326 14.7177 3.71376 14.4142L5.91907 4.14079C5.99448 3.82242 6.0736 3.57573 6.15738 3.40165C6.24117 3.22758 6.34263 3.10656 6.46458 3.03767C6.5856 2.96972 6.73734 2.93527 6.91979 2.93527C7.11621 2.93527 7.2754 2.98089 7.39735 3.07118C7.51836 3.16241 7.59004 3.30205 7.61332 3.49195C7.63566 3.68186 7.60959 3.94344 7.53419 4.27577L6.80715 7.61771H10.5345L11.012 5.36772C11.2699 4.15476 11.2764 3.15497 11.0344 2.36742C10.7923 1.57988 10.3222 0.988756 9.625 0.594053" fill="white"/>
<path d="M19.1697 4.18509L16.9421 14.5274C16.8658 14.8458 16.7829 15.0915 16.6917 15.2656C16.6005 15.4406 16.499 15.5579 16.3845 15.6175C16.2709 15.678 16.1229 15.7087 15.9414 15.7087C15.7291 15.7087 15.5662 15.6706 15.4526 15.5952C15.3391 15.5188 15.2711 15.3904 15.2479 15.2088C15.2255 15.0273 15.2441 14.7927 15.3046 14.5041L17.5323 4.13855C17.5928 3.836 17.6645 3.59676 17.7483 3.42175C17.8311 3.24767 17.9335 3.12293 18.0555 3.0466C18.1765 2.9712 18.3357 2.93303 18.533 2.93303C18.7304 2.93303 18.8849 2.97492 18.9994 3.05777C19.113 3.14155 19.1846 3.27746 19.2154 3.46644C19.2451 3.65634 19.2303 3.89465 19.1697 4.1823M22.6476 2.46665C22.4205 1.65583 21.9615 1.04237 21.2727 0.625322C20.5829 0.209209 19.6929 -0.000244141 18.6019 -0.000244141C17.6319 -0.000244141 16.8248 0.181282 16.1806 0.545265C15.5364 0.909248 15.0067 1.46965 14.5897 2.22741C14.1727 2.98516 13.8282 4.00077 13.5555 5.27332L11.8277 13.4336C11.5708 14.6307 11.5624 15.6119 11.8054 16.3771C12.0474 17.1423 12.5101 17.7111 13.1924 18.0816C13.8738 18.453 14.7684 18.6383 15.8743 18.6383C16.8592 18.6383 17.6738 18.4558 18.318 18.0928C18.9622 17.7288 19.4918 17.1693 19.9089 16.4106C20.325 15.6529 20.6629 14.6382 20.9198 13.3647L22.602 5.4325C22.8598 4.26608 22.8747 3.27653 22.6476 2.46572" fill="white"/>
<path d="M63.6185 2.49192C63.383 1.6811 62.925 1.06391 62.2435 0.639423C61.5612 0.214931 60.6899 0.00268555 59.6296 0.00268555C58.6893 0.00268555 57.8944 0.184212 57.2427 0.548194C56.5911 0.912177 56.0456 1.4763 55.6062 2.24151C55.1668 3.00671 54.8103 4.0186 54.5384 5.27625L52.8107 13.4598C52.5687 14.5816 52.5603 15.5283 52.7884 16.3009C53.0155 17.0736 53.4325 17.6573 54.0386 18.051C54.6446 18.4448 55.38 18.6421 56.2439 18.6421C56.8192 18.6421 57.3498 18.5397 57.8348 18.3349C58.3198 18.1302 58.7666 17.8313 59.1762 17.4366L59.4033 18.4141H60.8351L62.8579 8.95797H58.425L57.8338 11.7535H58.5153L57.9474 14.5043C57.8869 14.8078 57.8143 15.0423 57.7315 15.209C57.6477 15.3765 57.5415 15.5013 57.4131 15.5841C57.2837 15.6679 57.1208 15.7089 56.9244 15.7089C56.7279 15.7089 56.5715 15.6633 56.4589 15.572C56.3453 15.4808 56.2764 15.3486 56.2541 15.1745C56.2308 15.0005 56.2504 14.7696 56.3109 14.481L58.5153 4.13869C58.5758 3.83521 58.6475 3.5969 58.7312 3.42189C58.8141 3.24781 58.9165 3.12307 59.0384 3.04674C59.1595 2.97133 59.3186 2.93317 59.516 2.93317C59.7133 2.93317 59.8716 2.97878 59.9935 3.06908C60.1146 3.16031 60.1862 3.29622 60.2095 3.47775C60.2319 3.65927 60.2132 3.89479 60.1527 4.18244L59.3801 7.63795H63.1074L63.585 5.43264C63.8428 4.28111 63.854 3.29994 63.6194 2.48913" fill="white"/>
</svg>
