<svg width="371" height="351" viewBox="0 0 371 351" fill="none" xmlns="http://www.w3.org/2000/svg">
<path fill-rule="evenodd" clip-rule="evenodd" d="M560.044 36.2122L548.935 53.836L500.874 23.7287L470.632 71.7045L455.85 75.0777L407.789 44.9704L377.547 92.9462L363.165 96.2282L315.105 66.1209L284.862 114.097L284.258 113.718L282.35 116.745L234.289 86.6379L204.047 134.614L189.265 137.987L141.205 107.88L110.962 155.855L96.5802 159.137L48.5196 129.03L18.2774 177.006L0.622539 165.946L36.4194 109.158L51.6006 105.694L99.1707 135.494L129.104 88.0079L144.286 84.5436L191.856 114.344L221.789 66.8574L236.97 63.3931L276.455 88.3666L303.004 46.2492L318.186 42.7849L365.756 72.585L395.689 25.0987L410.87 21.6344L458.441 51.4344L488.374 3.94819L503.555 0.483891L560.044 36.2122ZM295.514 174.441L297.422 171.413L298.026 171.792L328.269 123.816L376.329 153.924L390.711 150.642L420.954 102.666L469.014 132.773L483.796 129.4L514.038 81.4242L562.099 111.531L573.208 93.9077L516.719 58.1793L501.538 61.6436L471.605 109.13L424.034 79.3298L408.853 82.7941L378.92 130.28L331.35 100.48L316.168 103.945L289.619 146.062L250.134 121.088L234.953 124.553L205.02 172.039L157.45 142.239L142.268 145.703L112.335 193.19L64.7646 163.389L49.5834 166.854L13.7865 223.641L31.4415 234.701L61.6837 186.726L109.744 216.833L124.126 213.551L154.369 165.575L202.429 195.682L217.211 192.309L247.453 144.333L295.514 174.441ZM329.449 162.134L302.899 204.251L263.415 179.278L248.234 182.742L218.3 230.228L170.73 200.428L155.549 203.893L125.615 251.379L78.0449 221.579L62.8638 225.043L27.0669 281.831L44.7218 292.891L74.964 244.915L123.025 275.022L137.407 271.74L167.649 223.764L215.709 253.872L230.491 250.498L260.733 202.523L308.794 232.63L310.702 229.603L311.307 229.981L341.549 182.006L389.609 212.113L403.992 208.831L434.234 160.855L482.294 190.962L497.076 187.589L527.318 139.613L575.379 169.721L586.488 152.097L530 116.369L514.819 119.833L484.885 167.319L437.315 137.519L422.134 140.983L392.2 188.47L344.63 158.67L329.449 162.134ZM323.871 287.318L321.963 290.345L273.902 260.238L243.66 308.214L228.879 311.587L180.818 281.479L150.576 329.455L136.194 332.737L88.133 302.63L57.8908 350.606L40.2359 339.546L76.0328 282.758L91.2139 279.294L138.784 309.094L168.718 261.608L183.899 258.143L231.469 287.943L261.403 240.457L276.584 236.993L316.068 261.966L342.618 219.849L357.799 216.385L405.369 246.185L435.303 198.699L450.484 195.234L498.054 225.034L527.988 177.548L543.169 174.084L599.657 209.812L588.548 227.436L540.487 197.329L510.245 245.304L495.463 248.677L447.403 218.57L417.161 266.546L402.778 269.828L354.718 239.721L324.476 287.697L323.871 287.318Z" fill="#E7327C"/>
</svg>
