<svg width="485" height="351" viewBox="0 0 485 351" fill="none" xmlns="http://www.w3.org/2000/svg">
<path fill-rule="evenodd" clip-rule="evenodd" d="M444.419 36.0139L433.31 53.6376L385.249 23.5304L355.007 71.5062L340.226 74.8793L292.165 44.772L261.923 92.7478L247.541 96.0298L199.48 65.9225L169.238 113.898L168.632 113.519L166.724 116.545L118.664 86.4376L88.4213 134.413L73.6397 137.787L25.5791 107.679L-4.66313 155.655L-19.0453 158.937L-67.1058 128.83L-97.3481 176.806L-115.003 165.746L-79.2061 108.958L-64.0249 105.494L-16.4548 135.294L13.4789 87.8076L28.66 84.3433L76.2302 114.143L106.164 66.6571L121.345 63.1928L160.831 88.1673L187.38 46.0508L202.561 42.5865L250.131 72.3866L280.065 24.9003L295.246 21.436L342.816 51.2361L372.75 3.74983L387.931 0.285526L444.419 36.0139ZM179.888 174.24L181.796 171.214L182.402 171.594L212.644 123.618L260.705 153.725L275.087 150.443L305.329 102.467L353.39 132.575L368.171 129.201L398.414 81.2257L446.474 111.333L457.583 93.7092L401.095 57.9808L385.914 61.4451L355.98 108.931L308.41 79.1313L293.229 82.5956L263.295 130.082L215.725 100.282L200.544 103.746L173.995 145.863L134.509 120.888L119.328 124.353L89.3942 171.839L41.8241 142.039L26.6429 145.503L-3.2907 192.989L-50.8609 163.189L-66.042 166.654L-101.839 223.441L-84.184 234.501L-53.9418 186.525L-5.88122 216.633L8.50093 213.351L38.7431 165.375L86.8037 195.482L101.585 192.109L131.828 144.133L179.888 174.24ZM213.824 161.936L187.275 204.052L147.789 179.078L132.608 182.542L102.674 230.028L55.1041 200.228L39.923 203.692L9.98934 251.179L-37.5808 221.379L-52.762 224.843L-88.5589 281.631L-70.904 292.69L-40.6618 244.715L7.39882 274.822L21.781 271.54L52.0232 223.564L100.084 253.671L114.865 250.298L145.108 202.322L193.168 232.43L195.076 229.403L195.682 229.783L225.924 181.807L273.985 211.915L288.367 208.633L318.609 160.657L366.67 190.764L381.452 187.391L411.694 139.415L459.754 169.522L470.864 151.899L414.375 116.17L399.194 119.635L369.26 167.121L321.69 137.321L306.509 140.785L276.576 188.271L229.005 158.471L213.824 161.936ZM208.245 287.118L206.338 290.144L158.277 260.037L128.035 308.013L113.253 311.386L65.1926 281.279L34.9504 329.255L20.5683 332.537L-27.4923 302.429L-57.7345 350.405L-75.3894 339.345L-39.5925 282.558L-24.4114 279.093L23.1588 308.893L53.0924 261.407L68.2735 257.943L115.844 287.743L145.777 240.257L160.958 236.792L200.445 261.767L226.993 219.651L242.174 216.186L289.745 245.986L319.678 198.5L334.859 195.036L382.429 224.836L412.363 177.35L427.544 173.885L484.033 209.614L472.923 227.237L424.863 197.13L394.621 245.106L379.839 248.479L331.778 218.372L301.536 266.348L287.154 269.63L239.093 239.522L208.851 287.498L208.245 287.118Z" fill="#DBFD67"/>
</svg>
