<svg width="1281" height="611" viewBox="0 0 1281 611" fill="none" xmlns="http://www.w3.org/2000/svg">
<rect width="1280" height="611" rx="20" fill="#333333"/>
<mask id="mask0_3134_1780" style="mask-type:alpha" maskUnits="userSpaceOnUse" x="1" y="0" width="1280" height="611">
<rect x="1" width="1280" height="611" rx="20" fill="black"/>
</mask>
<g mask="url(#mask0_3134_1780)">
<g opacity="0.6">
<mask id="path-3-outside-1_3134_1780" maskUnits="userSpaceOnUse" x="-87" y="250" width="1454" height="454" fill="black">
<rect fill="white" x="-87" y="250" width="1454" height="454"/>
<path fill-rule="evenodd" clip-rule="evenodd" d="M-38.0868 252L8.82642 298.913L-38.0868 345.826L-85 298.913L-38.0868 252ZM8.82642 417.507L-38.0868 370.594L-85 417.507L-38.0868 464.42L8.82642 417.507ZM132.217 417.507L85.3038 370.594L38.3906 417.507L85.3038 464.42L132.217 417.507ZM208.694 370.594L255.608 417.507L208.694 464.42L161.781 417.507L208.694 370.594ZM379.002 417.507L332.089 370.594L285.176 417.507L332.089 464.42L379.002 417.507ZM132.219 298.913L85.3058 252L38.3926 298.913L85.3058 345.826L132.219 298.913ZM208.696 252L255.61 298.913L208.696 345.826L161.783 298.913L208.696 252ZM379.002 298.913L332.089 252L285.176 298.913L332.089 345.826L379.002 298.913ZM-38.0868 489.383L8.82642 536.296L-38.0868 583.209L-85 536.296L-38.0868 489.383ZM132.219 536.296L85.3058 489.383L38.3926 536.296L85.3058 583.209L132.219 536.296ZM208.696 489.383L255.61 536.296L208.696 583.209L161.783 536.296L208.696 489.383ZM379.002 536.296L332.089 489.383L285.176 536.296L332.089 583.209L379.002 536.296ZM-38.0868 608.078L8.82642 654.991L-38.0868 701.905L-85 654.991L-38.0868 608.078ZM132.217 654.991L85.3038 608.078L38.3906 654.991L85.3038 701.905L132.217 654.991ZM208.694 608.078L255.608 654.991L208.694 701.905L161.781 654.991L208.694 608.078ZM379.002 654.991L332.089 608.078L285.176 654.991L332.089 701.905L379.002 654.991ZM454.913 370.594L501.826 417.507L454.913 464.42L408 417.507L454.913 370.594ZM625.217 417.507L578.304 370.594L531.391 417.507L578.304 464.42L625.217 417.507ZM701.694 370.594L748.608 417.507L701.694 464.42L654.781 417.507L701.694 370.594ZM872.002 417.507L825.089 370.594L778.176 417.507L825.089 464.42L872.002 417.507ZM454.913 252L501.826 298.913L454.913 345.826L408 298.913L454.913 252ZM625.219 298.913L578.306 252L531.393 298.913L578.306 345.826L625.219 298.913ZM701.696 252L748.61 298.913L701.696 345.826L654.783 298.913L701.696 252ZM872.002 298.913L825.089 252L778.176 298.913L825.089 345.826L872.002 298.913ZM454.913 489.383L501.826 536.296L454.913 583.209L408 536.296L454.913 489.383ZM625.219 536.296L578.306 489.383L531.393 536.296L578.306 583.209L625.219 536.296ZM701.696 489.383L748.61 536.296L701.696 583.209L654.783 536.296L701.696 489.383ZM872.002 536.296L825.089 489.383L778.176 536.296L825.089 583.209L872.002 536.296ZM454.913 608.078L501.826 654.991L454.913 701.905L408 654.991L454.913 608.078ZM625.217 654.991L578.304 608.078L531.391 654.991L578.304 701.905L625.217 654.991ZM701.694 608.078L748.608 654.991L701.694 701.905L654.781 654.991L701.694 608.078ZM872.002 654.991L825.089 608.078L778.176 654.991L825.089 701.905L872.002 654.991ZM947.913 370.594L994.826 417.507L947.913 464.42L901 417.507L947.913 370.594ZM1118.22 417.507L1071.3 370.594L1024.39 417.507L1071.3 464.42L1118.22 417.507ZM1194.69 370.594L1241.61 417.507L1194.69 464.42L1147.78 417.507L1194.69 370.594ZM1365 417.507L1318.09 370.594L1271.18 417.507L1318.09 464.42L1365 417.507ZM947.913 252L994.826 298.913L947.913 345.826L901 298.913L947.913 252ZM1118.22 298.913L1071.31 252L1024.39 298.913L1071.31 345.826L1118.22 298.913ZM1194.7 252L1241.61 298.913L1194.7 345.826L1147.78 298.913L1194.7 252ZM1365 298.913L1318.09 252L1271.18 298.913L1318.09 345.826L1365 298.913ZM947.913 489.383L994.826 536.296L947.913 583.209L901 536.296L947.913 489.383ZM1118.22 536.296L1071.31 489.383L1024.39 536.296L1071.31 583.209L1118.22 536.296ZM1194.7 489.383L1241.61 536.296L1194.7 583.209L1147.78 536.296L1194.7 489.383ZM1365 536.296L1318.09 489.383L1271.18 536.296L1318.09 583.209L1365 536.296ZM947.913 608.078L994.826 654.991L947.913 701.905L901 654.991L947.913 608.078ZM1118.22 654.991L1071.3 608.078L1024.39 654.991L1071.3 701.905L1118.22 654.991ZM1194.69 608.078L1241.61 654.991L1194.69 701.905L1147.78 654.991L1194.69 608.078ZM1365 654.991L1318.09 608.078L1271.18 654.991L1318.09 701.905L1365 654.991Z"/>
</mask>
<path d="M8.82642 298.913L9.53352 299.62L10.2406 298.913L9.53352 298.206L8.82642 298.913ZM-38.0868 252L-37.3797 251.293L-38.0868 250.586L-38.7939 251.293L-38.0868 252ZM-38.0868 345.826L-38.7939 346.534L-38.0868 347.241L-37.3797 346.534L-38.0868 345.826ZM-85 298.913L-85.7071 298.206L-86.4142 298.913L-85.7071 299.62L-85 298.913ZM-38.0868 370.594L-37.3797 369.887L-38.0868 369.18L-38.7939 369.887L-38.0868 370.594ZM8.82642 417.507L9.53352 418.214L10.2406 417.507L9.53352 416.8L8.82642 417.507ZM-85 417.507L-85.7071 416.8L-86.4142 417.507L-85.7071 418.214L-85 417.507ZM-38.0868 464.42L-38.7939 465.127L-38.0868 465.834L-37.3797 465.127L-38.0868 464.42ZM85.3038 370.594L86.0109 369.887L85.3038 369.18L84.5967 369.887L85.3038 370.594ZM132.217 417.507L132.924 418.214L133.631 417.507L132.924 416.8L132.217 417.507ZM38.3906 417.507L37.6835 416.8L36.9764 417.507L37.6835 418.214L38.3906 417.507ZM85.3038 464.42L84.5967 465.127L85.3038 465.834L86.0109 465.127L85.3038 464.42ZM255.608 417.507L256.315 418.214L257.022 417.507L256.315 416.8L255.608 417.507ZM208.694 370.594L209.402 369.887L208.694 369.18L207.987 369.887L208.694 370.594ZM208.694 464.42L207.987 465.127L208.694 465.834L209.402 465.127L208.694 464.42ZM161.781 417.507L161.074 416.8L160.367 417.507L161.074 418.214L161.781 417.507ZM332.089 370.594L332.796 369.887L332.089 369.18L331.382 369.887L332.089 370.594ZM379.002 417.507L379.709 418.214L380.416 417.507L379.709 416.8L379.002 417.507ZM285.176 417.507L284.469 416.8L283.762 417.507L284.469 418.214L285.176 417.507ZM332.089 464.42L331.382 465.127L332.089 465.834L332.796 465.127L332.089 464.42ZM85.3058 252L86.0129 251.293L85.3058 250.586L84.5987 251.293L85.3058 252ZM132.219 298.913L132.926 299.62L133.633 298.913L132.926 298.206L132.219 298.913ZM38.3926 298.913L37.6855 298.206L36.9784 298.913L37.6855 299.62L38.3926 298.913ZM85.3058 345.826L84.5987 346.534L85.3058 347.241L86.0129 346.534L85.3058 345.826ZM255.61 298.913L256.317 299.62L257.024 298.913L256.317 298.206L255.61 298.913ZM208.696 252L209.404 251.293L208.696 250.586L207.989 251.293L208.696 252ZM208.696 345.826L207.989 346.534L208.696 347.241L209.404 346.534L208.696 345.826ZM161.783 298.913L161.076 298.206L160.369 298.913L161.076 299.62L161.783 298.913ZM332.089 252L332.796 251.293L332.089 250.586L331.382 251.293L332.089 252ZM379.002 298.913L379.709 299.62L380.416 298.913L379.709 298.206L379.002 298.913ZM285.176 298.913L284.469 298.206L283.762 298.913L284.469 299.62L285.176 298.913ZM332.089 345.826L331.382 346.534L332.089 347.241L332.796 346.534L332.089 345.826ZM8.82642 536.296L9.53352 537.003L10.2406 536.296L9.53352 535.589L8.82642 536.296ZM-38.0868 489.383L-37.3797 488.676L-38.0868 487.969L-38.7939 488.676L-38.0868 489.383ZM-38.0868 583.209L-38.7939 583.916L-38.0868 584.623L-37.3797 583.916L-38.0868 583.209ZM-85 536.296L-85.7071 535.589L-86.4142 536.296L-85.7071 537.003L-85 536.296ZM85.3058 489.383L86.0129 488.676L85.3058 487.969L84.5987 488.676L85.3058 489.383ZM132.219 536.296L132.926 537.003L133.633 536.296L132.926 535.589L132.219 536.296ZM38.3926 536.296L37.6855 535.589L36.9784 536.296L37.6855 537.003L38.3926 536.296ZM85.3058 583.209L84.5987 583.916L85.3058 584.623L86.0129 583.916L85.3058 583.209ZM255.61 536.296L256.317 537.003L257.024 536.296L256.317 535.589L255.61 536.296ZM208.696 489.383L209.404 488.676L208.696 487.969L207.989 488.676L208.696 489.383ZM208.696 583.209L207.989 583.916L208.696 584.623L209.404 583.916L208.696 583.209ZM161.783 536.296L161.076 535.589L160.369 536.296L161.076 537.003L161.783 536.296ZM332.089 489.383L332.796 488.676L332.089 487.969L331.382 488.676L332.089 489.383ZM379.002 536.296L379.709 537.003L380.416 536.296L379.709 535.589L379.002 536.296ZM285.176 536.296L284.469 535.589L283.762 536.296L284.469 537.003L285.176 536.296ZM332.089 583.209L331.382 583.916L332.089 584.623L332.796 583.916L332.089 583.209ZM8.82642 654.991L9.53352 655.698L10.2406 654.991L9.53352 654.284L8.82642 654.991ZM-38.0868 608.078L-37.3797 607.371L-38.0868 606.664L-38.7939 607.371L-38.0868 608.078ZM-38.0868 701.905L-38.7939 702.612L-38.0868 703.319L-37.3797 702.612L-38.0868 701.905ZM-85 654.991L-85.7071 654.284L-86.4142 654.991L-85.7071 655.698L-85 654.991ZM85.3038 608.078L86.0109 607.371L85.3038 606.664L84.5967 607.371L85.3038 608.078ZM132.217 654.991L132.924 655.698L133.631 654.991L132.924 654.284L132.217 654.991ZM38.3906 654.991L37.6835 654.284L36.9764 654.991L37.6835 655.698L38.3906 654.991ZM85.3038 701.905L84.5967 702.612L85.3038 703.319L86.0109 702.612L85.3038 701.905ZM255.608 654.991L256.315 655.698L257.022 654.991L256.315 654.284L255.608 654.991ZM208.694 608.078L209.402 607.371L208.694 606.664L207.987 607.371L208.694 608.078ZM208.694 701.905L207.987 702.612L208.694 703.319L209.402 702.612L208.694 701.905ZM161.781 654.991L161.074 654.284L160.367 654.991L161.074 655.698L161.781 654.991ZM332.089 608.078L332.796 607.371L332.089 606.664L331.382 607.371L332.089 608.078ZM379.002 654.991L379.709 655.698L380.416 654.991L379.709 654.284L379.002 654.991ZM285.176 654.991L284.469 654.284L283.762 654.991L284.469 655.698L285.176 654.991ZM332.089 701.905L331.382 702.612L332.089 703.319L332.796 702.612L332.089 701.905ZM501.826 417.507L502.534 418.214L503.241 417.507L502.534 416.8L501.826 417.507ZM454.913 370.594L455.62 369.887L454.913 369.18L454.206 369.887L454.913 370.594ZM454.913 464.42L454.206 465.127L454.913 465.834L455.62 465.127L454.913 464.42ZM408 417.507L407.293 416.8L406.586 417.507L407.293 418.214L408 417.507ZM578.304 370.594L579.011 369.887L578.304 369.18L577.597 369.887L578.304 370.594ZM625.217 417.507L625.924 418.214L626.631 417.507L625.924 416.8L625.217 417.507ZM531.391 417.507L530.684 416.8L529.976 417.507L530.684 418.214L531.391 417.507ZM578.304 464.42L577.597 465.127L578.304 465.834L579.011 465.127L578.304 464.42ZM748.608 417.507L749.315 418.214L750.022 417.507L749.315 416.8L748.608 417.507ZM701.694 370.594L702.402 369.887L701.694 369.18L700.987 369.887L701.694 370.594ZM701.694 464.42L700.987 465.127L701.694 465.834L702.402 465.127L701.694 464.42ZM654.781 417.507L654.074 416.8L653.367 417.507L654.074 418.214L654.781 417.507ZM825.089 370.594L825.796 369.887L825.089 369.18L824.382 369.887L825.089 370.594ZM872.002 417.507L872.709 418.214L873.416 417.507L872.709 416.8L872.002 417.507ZM778.176 417.507L777.469 416.8L776.762 417.507L777.469 418.214L778.176 417.507ZM825.089 464.42L824.382 465.127L825.089 465.834L825.796 465.127L825.089 464.42ZM501.826 298.913L502.534 299.62L503.241 298.913L502.534 298.206L501.826 298.913ZM454.913 252L455.62 251.293L454.913 250.586L454.206 251.293L454.913 252ZM454.913 345.826L454.206 346.534L454.913 347.241L455.62 346.534L454.913 345.826ZM408 298.913L407.293 298.206L406.586 298.913L407.293 299.62L408 298.913ZM578.306 252L579.013 251.293L578.306 250.586L577.599 251.293L578.306 252ZM625.219 298.913L625.926 299.62L626.633 298.913L625.926 298.206L625.219 298.913ZM531.393 298.913L530.685 298.206L529.978 298.913L530.685 299.62L531.393 298.913ZM578.306 345.826L577.599 346.534L578.306 347.241L579.013 346.534L578.306 345.826ZM748.61 298.913L749.317 299.62L750.024 298.913L749.317 298.206L748.61 298.913ZM701.696 252L702.404 251.293L701.696 250.586L700.989 251.293L701.696 252ZM701.696 345.826L700.989 346.534L701.696 347.241L702.404 346.534L701.696 345.826ZM654.783 298.913L654.076 298.206L653.369 298.913L654.076 299.62L654.783 298.913ZM825.089 252L825.796 251.293L825.089 250.586L824.382 251.293L825.089 252ZM872.002 298.913L872.709 299.62L873.416 298.913L872.709 298.206L872.002 298.913ZM778.176 298.913L777.469 298.206L776.762 298.913L777.469 299.62L778.176 298.913ZM825.089 345.826L824.382 346.534L825.089 347.241L825.796 346.534L825.089 345.826ZM501.826 536.296L502.534 537.003L503.241 536.296L502.534 535.589L501.826 536.296ZM454.913 489.383L455.62 488.676L454.913 487.969L454.206 488.676L454.913 489.383ZM454.913 583.209L454.206 583.916L454.913 584.623L455.62 583.916L454.913 583.209ZM408 536.296L407.293 535.589L406.586 536.296L407.293 537.003L408 536.296ZM578.306 489.383L579.013 488.676L578.306 487.969L577.599 488.676L578.306 489.383ZM625.219 536.296L625.926 537.003L626.633 536.296L625.926 535.589L625.219 536.296ZM531.393 536.296L530.685 535.589L529.978 536.296L530.685 537.003L531.393 536.296ZM578.306 583.209L577.599 583.916L578.306 584.623L579.013 583.916L578.306 583.209ZM748.61 536.296L749.317 537.003L750.024 536.296L749.317 535.589L748.61 536.296ZM701.696 489.383L702.404 488.676L701.696 487.969L700.989 488.676L701.696 489.383ZM701.696 583.209L700.989 583.916L701.696 584.623L702.404 583.916L701.696 583.209ZM654.783 536.296L654.076 535.589L653.369 536.296L654.076 537.003L654.783 536.296ZM825.089 489.383L825.796 488.676L825.089 487.969L824.382 488.676L825.089 489.383ZM872.002 536.296L872.709 537.003L873.416 536.296L872.709 535.589L872.002 536.296ZM778.176 536.296L777.469 535.589L776.762 536.296L777.469 537.003L778.176 536.296ZM825.089 583.209L824.382 583.916L825.089 584.623L825.796 583.916L825.089 583.209ZM501.826 654.991L502.534 655.698L503.241 654.991L502.534 654.284L501.826 654.991ZM454.913 608.078L455.62 607.371L454.913 606.664L454.206 607.371L454.913 608.078ZM454.913 701.905L454.206 702.612L454.913 703.319L455.62 702.612L454.913 701.905ZM408 654.991L407.293 654.284L406.586 654.991L407.293 655.698L408 654.991ZM578.304 608.078L579.011 607.371L578.304 606.664L577.597 607.371L578.304 608.078ZM625.217 654.991L625.924 655.698L626.631 654.991L625.924 654.284L625.217 654.991ZM531.391 654.991L530.684 654.284L529.976 654.991L530.684 655.698L531.391 654.991ZM578.304 701.905L577.597 702.612L578.304 703.319L579.011 702.612L578.304 701.905ZM748.608 654.991L749.315 655.698L750.022 654.991L749.315 654.284L748.608 654.991ZM701.694 608.078L702.402 607.371L701.694 606.664L700.987 607.371L701.694 608.078ZM701.694 701.905L700.987 702.612L701.694 703.319L702.402 702.612L701.694 701.905ZM654.781 654.991L654.074 654.284L653.367 654.991L654.074 655.698L654.781 654.991ZM825.089 608.078L825.796 607.371L825.089 606.664L824.382 607.371L825.089 608.078ZM872.002 654.991L872.709 655.698L873.416 654.991L872.709 654.284L872.002 654.991ZM778.176 654.991L777.469 654.284L776.762 654.991L777.469 655.698L778.176 654.991ZM825.089 701.905L824.382 702.612L825.089 703.319L825.796 702.612L825.089 701.905ZM994.826 417.507L995.534 418.214L996.241 417.507L995.534 416.8L994.826 417.507ZM947.913 370.594L948.62 369.887L947.913 369.18L947.206 369.887L947.913 370.594ZM947.913 464.42L947.206 465.127L947.913 465.834L948.62 465.127L947.913 464.42ZM901 417.507L900.293 416.8L899.586 417.507L900.293 418.214L901 417.507ZM1071.3 370.594L1072.01 369.887L1071.3 369.18L1070.6 369.887L1071.3 370.594ZM1118.22 417.507L1118.92 418.214L1119.63 417.507L1118.92 416.8L1118.22 417.507ZM1024.39 417.507L1023.68 416.8L1022.98 417.507L1023.68 418.214L1024.39 417.507ZM1071.3 464.42L1070.6 465.127L1071.3 465.834L1072.01 465.127L1071.3 464.42ZM1241.61 417.507L1242.31 418.214L1243.02 417.507L1242.31 416.8L1241.61 417.507ZM1194.69 370.594L1195.4 369.887L1194.69 369.18L1193.99 369.887L1194.69 370.594ZM1194.69 464.42L1193.99 465.127L1194.69 465.834L1195.4 465.127L1194.69 464.42ZM1147.78 417.507L1147.07 416.8L1146.37 417.507L1147.07 418.214L1147.78 417.507ZM1318.09 370.594L1318.8 369.887L1318.09 369.18L1317.38 369.887L1318.09 370.594ZM1365 417.507L1365.71 418.214L1366.42 417.507L1365.71 416.8L1365 417.507ZM1271.18 417.507L1270.47 416.8L1269.76 417.507L1270.47 418.214L1271.18 417.507ZM1318.09 464.42L1317.38 465.127L1318.09 465.834L1318.8 465.127L1318.09 464.42ZM994.826 298.913L995.534 299.62L996.241 298.913L995.534 298.206L994.826 298.913ZM947.913 252L948.62 251.293L947.913 250.586L947.206 251.293L947.913 252ZM947.913 345.826L947.206 346.534L947.913 347.241L948.62 346.534L947.913 345.826ZM901 298.913L900.293 298.206L899.586 298.913L900.293 299.62L901 298.913ZM1071.31 252L1072.01 251.293L1071.31 250.586L1070.6 251.293L1071.31 252ZM1118.22 298.913L1118.93 299.62L1119.63 298.913L1118.93 298.206L1118.22 298.913ZM1024.39 298.913L1023.69 298.206L1022.98 298.913L1023.69 299.62L1024.39 298.913ZM1071.31 345.826L1070.6 346.534L1071.31 347.241L1072.01 346.534L1071.31 345.826ZM1241.61 298.913L1242.32 299.62L1243.02 298.913L1242.32 298.206L1241.61 298.913ZM1194.7 252L1195.4 251.293L1194.7 250.586L1193.99 251.293L1194.7 252ZM1194.7 345.826L1193.99 346.534L1194.7 347.241L1195.4 346.534L1194.7 345.826ZM1147.78 298.913L1147.08 298.206L1146.37 298.913L1147.08 299.62L1147.78 298.913ZM1318.09 252L1318.8 251.293L1318.09 250.586L1317.38 251.293L1318.09 252ZM1365 298.913L1365.71 299.62L1366.42 298.913L1365.71 298.206L1365 298.913ZM1271.18 298.913L1270.47 298.206L1269.76 298.913L1270.47 299.62L1271.18 298.913ZM1318.09 345.826L1317.38 346.534L1318.09 347.241L1318.8 346.534L1318.09 345.826ZM994.826 536.296L995.534 537.003L996.241 536.296L995.534 535.589L994.826 536.296ZM947.913 489.383L948.62 488.676L947.913 487.969L947.206 488.676L947.913 489.383ZM947.913 583.209L947.206 583.916L947.913 584.623L948.62 583.916L947.913 583.209ZM901 536.296L900.293 535.589L899.586 536.296L900.293 537.003L901 536.296ZM1071.31 489.383L1072.01 488.676L1071.31 487.969L1070.6 488.676L1071.31 489.383ZM1118.22 536.296L1118.93 537.003L1119.63 536.296L1118.93 535.589L1118.22 536.296ZM1024.39 536.296L1023.69 535.589L1022.98 536.296L1023.69 537.003L1024.39 536.296ZM1071.31 583.209L1070.6 583.916L1071.31 584.623L1072.01 583.916L1071.31 583.209ZM1241.61 536.296L1242.32 537.003L1243.02 536.296L1242.32 535.589L1241.61 536.296ZM1194.7 489.383L1195.4 488.676L1194.7 487.969L1193.99 488.676L1194.7 489.383ZM1194.7 583.209L1193.99 583.916L1194.7 584.623L1195.4 583.916L1194.7 583.209ZM1147.78 536.296L1147.08 535.589L1146.37 536.296L1147.08 537.003L1147.78 536.296ZM1318.09 489.383L1318.8 488.676L1318.09 487.969L1317.38 488.676L1318.09 489.383ZM1365 536.296L1365.71 537.003L1366.42 536.296L1365.71 535.589L1365 536.296ZM1271.18 536.296L1270.47 535.589L1269.76 536.296L1270.47 537.003L1271.18 536.296ZM1318.09 583.209L1317.38 583.916L1318.09 584.623L1318.8 583.916L1318.09 583.209ZM994.826 654.991L995.534 655.698L996.241 654.991L995.534 654.284L994.826 654.991ZM947.913 608.078L948.62 607.371L947.913 606.664L947.206 607.371L947.913 608.078ZM947.913 701.905L947.206 702.612L947.913 703.319L948.62 702.612L947.913 701.905ZM901 654.991L900.293 654.284L899.586 654.991L900.293 655.698L901 654.991ZM1071.3 608.078L1072.01 607.371L1071.3 606.664L1070.6 607.371L1071.3 608.078ZM1118.22 654.991L1118.92 655.698L1119.63 654.991L1118.92 654.284L1118.22 654.991ZM1024.39 654.991L1023.68 654.284L1022.98 654.991L1023.68 655.698L1024.39 654.991ZM1071.3 701.905L1070.6 702.612L1071.3 703.319L1072.01 702.612L1071.3 701.905ZM1241.61 654.991L1242.31 655.698L1243.02 654.991L1242.31 654.284L1241.61 654.991ZM1194.69 608.078L1195.4 607.371L1194.69 606.664L1193.99 607.371L1194.69 608.078ZM1194.69 701.905L1193.99 702.612L1194.69 703.319L1195.4 702.612L1194.69 701.905ZM1147.78 654.991L1147.07 654.284L1146.37 654.991L1147.07 655.698L1147.78 654.991ZM1318.09 608.078L1318.8 607.371L1318.09 606.664L1317.38 607.371L1318.09 608.078ZM1365 654.991L1365.71 655.698L1366.42 654.991L1365.71 654.284L1365 654.991ZM1271.18 654.991L1270.47 654.284L1269.76 654.991L1270.47 655.698L1271.18 654.991ZM1318.09 701.905L1317.38 702.612L1318.09 703.319L1318.8 702.612L1318.09 701.905ZM9.53352 298.206L-37.3797 251.293L-38.7939 252.707L8.11931 299.62L9.53352 298.206ZM-37.3797 346.534L9.53352 299.62L8.11931 298.206L-38.7939 345.119L-37.3797 346.534ZM-85.7071 299.62L-38.7939 346.534L-37.3797 345.119L-84.2929 298.206L-85.7071 299.62ZM-38.7939 251.293L-85.7071 298.206L-84.2929 299.62L-37.3797 252.707L-38.7939 251.293ZM-38.7939 371.301L8.11931 418.214L9.53352 416.8L-37.3797 369.887L-38.7939 371.301ZM-84.2929 418.214L-37.3797 371.301L-38.7939 369.887L-85.7071 416.8L-84.2929 418.214ZM-37.3797 463.713L-84.2929 416.8L-85.7071 418.214L-38.7939 465.127L-37.3797 463.713ZM8.11931 416.8L-38.7939 463.713L-37.3797 465.127L9.53352 418.214L8.11931 416.8ZM84.5967 371.301L131.51 418.214L132.924 416.8L86.0109 369.887L84.5967 371.301ZM39.0977 418.214L86.0109 371.301L84.5967 369.887L37.6835 416.8L39.0977 418.214ZM86.0109 463.713L39.0977 416.8L37.6835 418.214L84.5967 465.127L86.0109 463.713ZM131.51 416.8L84.5967 463.713L86.0109 465.127L132.924 418.214L131.51 416.8ZM256.315 416.8L209.402 369.887L207.987 371.301L254.901 418.214L256.315 416.8ZM209.402 465.127L256.315 418.214L254.901 416.8L207.987 463.713L209.402 465.127ZM161.074 418.214L207.987 465.127L209.402 463.713L162.488 416.8L161.074 418.214ZM207.987 369.887L161.074 416.8L162.488 418.214L209.402 371.301L207.987 369.887ZM331.382 371.301L378.295 418.214L379.709 416.8L332.796 369.887L331.382 371.301ZM285.883 418.214L332.796 371.301L331.382 369.887L284.469 416.8L285.883 418.214ZM332.796 463.713L285.883 416.8L284.469 418.214L331.382 465.127L332.796 463.713ZM378.295 416.8L331.382 463.713L332.796 465.127L379.709 418.214L378.295 416.8ZM84.5987 252.707L131.512 299.62L132.926 298.206L86.0129 251.293L84.5987 252.707ZM39.0997 299.62L86.0129 252.707L84.5987 251.293L37.6855 298.206L39.0997 299.62ZM86.0129 345.119L39.0997 298.206L37.6855 299.62L84.5987 346.534L86.0129 345.119ZM131.512 298.206L84.5987 345.119L86.0129 346.534L132.926 299.62L131.512 298.206ZM256.317 298.206L209.404 251.293L207.989 252.707L254.903 299.62L256.317 298.206ZM209.404 346.534L256.317 299.62L254.903 298.206L207.989 345.119L209.404 346.534ZM161.076 299.62L207.989 346.534L209.404 345.119L162.49 298.206L161.076 299.62ZM207.989 251.293L161.076 298.206L162.49 299.62L209.404 252.707L207.989 251.293ZM331.382 252.707L378.295 299.62L379.709 298.206L332.796 251.293L331.382 252.707ZM285.883 299.62L332.796 252.707L331.382 251.293L284.469 298.206L285.883 299.62ZM332.796 345.119L285.883 298.206L284.469 299.62L331.382 346.534L332.796 345.119ZM378.295 298.206L331.382 345.119L332.796 346.534L379.709 299.62L378.295 298.206ZM9.53352 535.589L-37.3797 488.676L-38.7939 490.09L8.11931 537.003L9.53352 535.589ZM-37.3797 583.916L9.53352 537.003L8.11931 535.589L-38.7939 582.502L-37.3797 583.916ZM-85.7071 537.003L-38.7939 583.916L-37.3797 582.502L-84.2929 535.589L-85.7071 537.003ZM-38.7939 488.676L-85.7071 535.589L-84.2929 537.003L-37.3797 490.09L-38.7939 488.676ZM84.5987 490.09L131.512 537.003L132.926 535.589L86.0129 488.676L84.5987 490.09ZM39.0997 537.003L86.0129 490.09L84.5987 488.676L37.6855 535.589L39.0997 537.003ZM86.0129 582.502L39.0997 535.589L37.6855 537.003L84.5987 583.916L86.0129 582.502ZM131.512 535.589L84.5987 582.502L86.0129 583.916L132.926 537.003L131.512 535.589ZM256.317 535.589L209.404 488.676L207.989 490.09L254.903 537.003L256.317 535.589ZM209.404 583.916L256.317 537.003L254.903 535.589L207.989 582.502L209.404 583.916ZM161.076 537.003L207.989 583.916L209.404 582.502L162.49 535.589L161.076 537.003ZM207.989 488.676L161.076 535.589L162.49 537.003L209.404 490.09L207.989 488.676ZM331.382 490.09L378.295 537.003L379.709 535.589L332.796 488.676L331.382 490.09ZM285.883 537.003L332.796 490.09L331.382 488.676L284.469 535.589L285.883 537.003ZM332.796 582.502L285.883 535.589L284.469 537.003L331.382 583.916L332.796 582.502ZM378.295 535.589L331.382 582.502L332.796 583.916L379.709 537.003L378.295 535.589ZM9.53352 654.284L-37.3797 607.371L-38.7939 608.785L8.11931 655.698L9.53352 654.284ZM-37.3797 702.612L9.53352 655.698L8.11931 654.284L-38.7939 701.197L-37.3797 702.612ZM-85.7071 655.698L-38.7939 702.612L-37.3797 701.197L-84.2929 654.284L-85.7071 655.698ZM-38.7939 607.371L-85.7071 654.284L-84.2929 655.698L-37.3797 608.785L-38.7939 607.371ZM84.5967 608.785L131.51 655.698L132.924 654.284L86.0109 607.371L84.5967 608.785ZM39.0977 655.698L86.0109 608.785L84.5967 607.371L37.6835 654.284L39.0977 655.698ZM86.0109 701.197L39.0977 654.284L37.6835 655.698L84.5967 702.612L86.0109 701.197ZM131.51 654.284L84.5967 701.197L86.0109 702.612L132.924 655.698L131.51 654.284ZM256.315 654.284L209.402 607.371L207.987 608.785L254.901 655.698L256.315 654.284ZM209.402 702.612L256.315 655.698L254.901 654.284L207.987 701.197L209.402 702.612ZM161.074 655.698L207.987 702.612L209.402 701.197L162.488 654.284L161.074 655.698ZM207.987 607.371L161.074 654.284L162.488 655.698L209.402 608.785L207.987 607.371ZM331.382 608.785L378.295 655.698L379.709 654.284L332.796 607.371L331.382 608.785ZM285.883 655.698L332.796 608.785L331.382 607.371L284.469 654.284L285.883 655.698ZM332.796 701.197L285.883 654.284L284.469 655.698L331.382 702.612L332.796 701.197ZM378.295 654.284L331.382 701.197L332.796 702.612L379.709 655.698L378.295 654.284ZM502.534 416.8L455.62 369.887L454.206 371.301L501.119 418.214L502.534 416.8ZM455.62 465.127L502.534 418.214L501.119 416.8L454.206 463.713L455.62 465.127ZM407.293 418.214L454.206 465.127L455.62 463.713L408.707 416.8L407.293 418.214ZM454.206 369.887L407.293 416.8L408.707 418.214L455.62 371.301L454.206 369.887ZM577.597 371.301L624.51 418.214L625.924 416.8L579.011 369.887L577.597 371.301ZM532.098 418.214L579.011 371.301L577.597 369.887L530.684 416.8L532.098 418.214ZM579.011 463.713L532.098 416.8L530.684 418.214L577.597 465.127L579.011 463.713ZM624.51 416.8L577.597 463.713L579.011 465.127L625.924 418.214L624.51 416.8ZM749.315 416.8L702.402 369.887L700.987 371.301L747.901 418.214L749.315 416.8ZM702.402 465.127L749.315 418.214L747.901 416.8L700.987 463.713L702.402 465.127ZM654.074 418.214L700.987 465.127L702.402 463.713L655.488 416.8L654.074 418.214ZM700.987 369.887L654.074 416.8L655.488 418.214L702.402 371.301L700.987 369.887ZM824.382 371.301L871.295 418.214L872.709 416.8L825.796 369.887L824.382 371.301ZM778.883 418.214L825.796 371.301L824.382 369.887L777.469 416.8L778.883 418.214ZM825.796 463.713L778.883 416.8L777.469 418.214L824.382 465.127L825.796 463.713ZM871.295 416.8L824.382 463.713L825.796 465.127L872.709 418.214L871.295 416.8ZM502.534 298.206L455.62 251.293L454.206 252.707L501.119 299.62L502.534 298.206ZM455.62 346.534L502.534 299.62L501.119 298.206L454.206 345.119L455.62 346.534ZM407.293 299.62L454.206 346.534L455.62 345.119L408.707 298.206L407.293 299.62ZM454.206 251.293L407.293 298.206L408.707 299.62L455.62 252.707L454.206 251.293ZM577.599 252.707L624.512 299.62L625.926 298.206L579.013 251.293L577.599 252.707ZM532.1 299.62L579.013 252.707L577.599 251.293L530.685 298.206L532.1 299.62ZM579.013 345.119L532.1 298.206L530.685 299.62L577.599 346.534L579.013 345.119ZM624.512 298.206L577.599 345.119L579.013 346.534L625.926 299.62L624.512 298.206ZM749.317 298.206L702.404 251.293L700.989 252.707L747.903 299.62L749.317 298.206ZM702.404 346.534L749.317 299.62L747.903 298.206L700.989 345.119L702.404 346.534ZM654.076 299.62L700.989 346.534L702.404 345.119L655.49 298.206L654.076 299.62ZM700.989 251.293L654.076 298.206L655.49 299.62L702.404 252.707L700.989 251.293ZM824.382 252.707L871.295 299.62L872.709 298.206L825.796 251.293L824.382 252.707ZM778.883 299.62L825.796 252.707L824.382 251.293L777.469 298.206L778.883 299.62ZM825.796 345.119L778.883 298.206L777.469 299.62L824.382 346.534L825.796 345.119ZM871.295 298.206L824.382 345.119L825.796 346.534L872.709 299.62L871.295 298.206ZM502.534 535.589L455.62 488.676L454.206 490.09L501.119 537.003L502.534 535.589ZM455.62 583.916L502.534 537.003L501.119 535.589L454.206 582.502L455.62 583.916ZM407.293 537.003L454.206 583.916L455.62 582.502L408.707 535.589L407.293 537.003ZM454.206 488.676L407.293 535.589L408.707 537.003L455.62 490.09L454.206 488.676ZM577.599 490.09L624.512 537.003L625.926 535.589L579.013 488.676L577.599 490.09ZM532.1 537.003L579.013 490.09L577.599 488.676L530.685 535.589L532.1 537.003ZM579.013 582.502L532.1 535.589L530.685 537.003L577.599 583.916L579.013 582.502ZM624.512 535.589L577.599 582.502L579.013 583.916L625.926 537.003L624.512 535.589ZM749.317 535.589L702.404 488.676L700.989 490.09L747.903 537.003L749.317 535.589ZM702.404 583.916L749.317 537.003L747.903 535.589L700.989 582.502L702.404 583.916ZM654.076 537.003L700.989 583.916L702.404 582.502L655.49 535.589L654.076 537.003ZM700.989 488.676L654.076 535.589L655.49 537.003L702.404 490.09L700.989 488.676ZM824.382 490.09L871.295 537.003L872.709 535.589L825.796 488.676L824.382 490.09ZM778.883 537.003L825.796 490.09L824.382 488.676L777.469 535.589L778.883 537.003ZM825.796 582.502L778.883 535.589L777.469 537.003L824.382 583.916L825.796 582.502ZM871.295 535.589L824.382 582.502L825.796 583.916L872.709 537.003L871.295 535.589ZM502.534 654.284L455.62 607.371L454.206 608.785L501.119 655.698L502.534 654.284ZM455.62 702.612L502.534 655.698L501.119 654.284L454.206 701.197L455.62 702.612ZM407.293 655.698L454.206 702.612L455.62 701.197L408.707 654.284L407.293 655.698ZM454.206 607.371L407.293 654.284L408.707 655.698L455.62 608.785L454.206 607.371ZM577.597 608.785L624.51 655.698L625.924 654.284L579.011 607.371L577.597 608.785ZM532.098 655.698L579.011 608.785L577.597 607.371L530.684 654.284L532.098 655.698ZM579.011 701.197L532.098 654.284L530.684 655.698L577.597 702.612L579.011 701.197ZM624.51 654.284L577.597 701.197L579.011 702.612L625.924 655.698L624.51 654.284ZM749.315 654.284L702.402 607.371L700.987 608.785L747.901 655.698L749.315 654.284ZM702.402 702.612L749.315 655.698L747.901 654.284L700.987 701.197L702.402 702.612ZM654.074 655.698L700.987 702.612L702.402 701.197L655.488 654.284L654.074 655.698ZM700.987 607.371L654.074 654.284L655.488 655.698L702.402 608.785L700.987 607.371ZM824.382 608.785L871.295 655.698L872.709 654.284L825.796 607.371L824.382 608.785ZM778.883 655.698L825.796 608.785L824.382 607.371L777.469 654.284L778.883 655.698ZM825.796 701.197L778.883 654.284L777.469 655.698L824.382 702.612L825.796 701.197ZM871.295 654.284L824.382 701.197L825.796 702.612L872.709 655.698L871.295 654.284ZM995.534 416.8L948.62 369.887L947.206 371.301L994.119 418.214L995.534 416.8ZM948.62 465.127L995.534 418.214L994.119 416.8L947.206 463.713L948.62 465.127ZM900.293 418.214L947.206 465.127L948.62 463.713L901.707 416.8L900.293 418.214ZM947.206 369.887L900.293 416.8L901.707 418.214L948.62 371.301L947.206 369.887ZM1070.6 371.301L1117.51 418.214L1118.92 416.8L1072.01 369.887L1070.6 371.301ZM1025.1 418.214L1072.01 371.301L1070.6 369.887L1023.68 416.8L1025.1 418.214ZM1072.01 463.713L1025.1 416.8L1023.68 418.214L1070.6 465.127L1072.01 463.713ZM1117.51 416.8L1070.6 463.713L1072.01 465.127L1118.92 418.214L1117.51 416.8ZM1242.31 416.8L1195.4 369.887L1193.99 371.301L1240.9 418.214L1242.31 416.8ZM1195.4 465.127L1242.31 418.214L1240.9 416.8L1193.99 463.713L1195.4 465.127ZM1147.07 418.214L1193.99 465.127L1195.4 463.713L1148.49 416.8L1147.07 418.214ZM1193.99 369.887L1147.07 416.8L1148.49 418.214L1195.4 371.301L1193.99 369.887ZM1317.38 371.301L1364.3 418.214L1365.71 416.8L1318.8 369.887L1317.38 371.301ZM1271.88 418.214L1318.8 371.301L1317.38 369.887L1270.47 416.8L1271.88 418.214ZM1318.8 463.713L1271.88 416.8L1270.47 418.214L1317.38 465.127L1318.8 463.713ZM1364.3 416.8L1317.38 463.713L1318.8 465.127L1365.71 418.214L1364.3 416.8ZM995.534 298.206L948.62 251.293L947.206 252.707L994.119 299.62L995.534 298.206ZM948.62 346.534L995.534 299.62L994.119 298.206L947.206 345.119L948.62 346.534ZM900.293 299.62L947.206 346.534L948.62 345.119L901.707 298.206L900.293 299.62ZM947.206 251.293L900.293 298.206L901.707 299.62L948.62 252.707L947.206 251.293ZM1070.6 252.707L1117.51 299.62L1118.93 298.206L1072.01 251.293L1070.6 252.707ZM1025.1 299.62L1072.01 252.707L1070.6 251.293L1023.69 298.206L1025.1 299.62ZM1072.01 345.119L1025.1 298.206L1023.69 299.62L1070.6 346.534L1072.01 345.119ZM1117.51 298.206L1070.6 345.119L1072.01 346.534L1118.93 299.62L1117.51 298.206ZM1242.32 298.206L1195.4 251.293L1193.99 252.707L1240.9 299.62L1242.32 298.206ZM1195.4 346.534L1242.32 299.62L1240.9 298.206L1193.99 345.119L1195.4 346.534ZM1147.08 299.62L1193.99 346.534L1195.4 345.119L1148.49 298.206L1147.08 299.62ZM1193.99 251.293L1147.08 298.206L1148.49 299.62L1195.4 252.707L1193.99 251.293ZM1317.38 252.707L1364.3 299.62L1365.71 298.206L1318.8 251.293L1317.38 252.707ZM1271.88 299.62L1318.8 252.707L1317.38 251.293L1270.47 298.206L1271.88 299.62ZM1318.8 345.119L1271.88 298.206L1270.47 299.62L1317.38 346.534L1318.8 345.119ZM1364.3 298.206L1317.38 345.119L1318.8 346.534L1365.71 299.62L1364.3 298.206ZM995.534 535.589L948.62 488.676L947.206 490.09L994.119 537.003L995.534 535.589ZM948.62 583.916L995.534 537.003L994.119 535.589L947.206 582.502L948.62 583.916ZM900.293 537.003L947.206 583.916L948.62 582.502L901.707 535.589L900.293 537.003ZM947.206 488.676L900.293 535.589L901.707 537.003L948.62 490.09L947.206 488.676ZM1070.6 490.09L1117.51 537.003L1118.93 535.589L1072.01 488.676L1070.6 490.09ZM1025.1 537.003L1072.01 490.09L1070.6 488.676L1023.69 535.589L1025.1 537.003ZM1072.01 582.502L1025.1 535.589L1023.69 537.003L1070.6 583.916L1072.01 582.502ZM1117.51 535.589L1070.6 582.502L1072.01 583.916L1118.93 537.003L1117.51 535.589ZM1242.32 535.589L1195.4 488.676L1193.99 490.09L1240.9 537.003L1242.32 535.589ZM1195.4 583.916L1242.32 537.003L1240.9 535.589L1193.99 582.502L1195.4 583.916ZM1147.08 537.003L1193.99 583.916L1195.4 582.502L1148.49 535.589L1147.08 537.003ZM1193.99 488.676L1147.08 535.589L1148.49 537.003L1195.4 490.09L1193.99 488.676ZM1317.38 490.09L1364.3 537.003L1365.71 535.589L1318.8 488.676L1317.38 490.09ZM1271.88 537.003L1318.8 490.09L1317.38 488.676L1270.47 535.589L1271.88 537.003ZM1318.8 582.502L1271.88 535.589L1270.47 537.003L1317.38 583.916L1318.8 582.502ZM1364.3 535.589L1317.38 582.502L1318.8 583.916L1365.71 537.003L1364.3 535.589ZM995.534 654.284L948.62 607.371L947.206 608.785L994.119 655.698L995.534 654.284ZM948.62 702.612L995.534 655.698L994.119 654.284L947.206 701.197L948.62 702.612ZM900.293 655.698L947.206 702.612L948.62 701.197L901.707 654.284L900.293 655.698ZM947.206 607.371L900.293 654.284L901.707 655.698L948.62 608.785L947.206 607.371ZM1070.6 608.785L1117.51 655.698L1118.92 654.284L1072.01 607.371L1070.6 608.785ZM1025.1 655.698L1072.01 608.785L1070.6 607.371L1023.68 654.284L1025.1 655.698ZM1072.01 701.197L1025.1 654.284L1023.68 655.698L1070.6 702.612L1072.01 701.197ZM1117.51 654.284L1070.6 701.197L1072.01 702.612L1118.92 655.698L1117.51 654.284ZM1242.31 654.284L1195.4 607.371L1193.99 608.785L1240.9 655.698L1242.31 654.284ZM1195.4 702.612L1242.31 655.698L1240.9 654.284L1193.99 701.197L1195.4 702.612ZM1147.07 655.698L1193.99 702.612L1195.4 701.197L1148.49 654.284L1147.07 655.698ZM1193.99 607.371L1147.07 654.284L1148.49 655.698L1195.4 608.785L1193.99 607.371ZM1317.38 608.785L1364.3 655.698L1365.71 654.284L1318.8 607.371L1317.38 608.785ZM1271.88 655.698L1318.8 608.785L1317.38 607.371L1270.47 654.284L1271.88 655.698ZM1318.8 701.197L1271.88 654.284L1270.47 655.698L1317.38 702.612L1318.8 701.197ZM1364.3 654.284L1317.38 701.197L1318.8 702.612L1365.71 655.698L1364.3 654.284Z" fill="url(#paint0_linear_3134_1780)" mask="url(#path-3-outside-1_3134_1780)"/>
</g>
</g>
<defs>
<linearGradient id="paint0_linear_3134_1780" x1="640.001" y1="947.5" x2="640" y2="252" gradientUnits="userSpaceOnUse">
<stop stop-color="white"/>
<stop offset="1" stop-color="#B9B9B9" stop-opacity="0"/>
</linearGradient>
</defs>
</svg>
