<svg width="75" height="75" viewBox="0 0 75 75" fill="none" xmlns="http://www.w3.org/2000/svg">
<rect width="74.2863" height="74.2863" rx="6" fill="#333333"/>
<path fill-rule="evenodd" clip-rule="evenodd" d="M37.6095 57.5078C47.6805 57.5078 56 58.8214 56 60.5729C56 62.1054 47.6805 63.4191 37.6095 63.4191C27.3195 63.4191 19 62.1054 19 60.5729C19 58.8214 27.3195 57.5078 37.6095 57.5078Z" fill="#D1FF45"/>
<path fill-rule="evenodd" clip-rule="evenodd" d="M37.6098 10C29.0713 10 22.0654 17.0059 22.0654 25.5444C22.0654 34.0828 28.8524 36.2722 37.6098 56.6331C46.1483 36.2722 52.9353 34.0828 52.9353 25.5444C52.9353 17.0059 45.9293 10 37.6098 10ZM37.6098 20.071C40.8938 20.071 43.5211 22.6982 43.5211 25.9822C43.5211 29.2663 40.8938 31.8935 37.6098 31.8935C34.3258 31.8935 31.4796 29.2663 31.4796 25.9822C31.4796 22.6982 34.3258 20.071 37.6098 20.071Z" fill="white"/>
</svg>
