<svg width="106" height="41" viewBox="0 0 106 41" fill="none" xmlns="http://www.w3.org/2000/svg">
<path d="M84.1581 35.9246H79.4502V25.0254H84.1581C84.8357 25.037 85.3998 25.1124 85.8476 25.2631C86.6153 25.5154 87.2347 25.9764 87.7087 26.6462C88.0896 27.1884 88.3484 27.7741 88.488 28.4062C88.6276 29.0383 88.6945 29.6385 88.6945 30.2097C88.6945 31.6594 88.4008 32.8859 87.8192 33.892C87.0311 35.2461 85.8069 35.9246 84.1581 35.9246ZM85.8534 27.806C85.5016 27.2145 84.8066 26.9188 83.7714 26.9188H81.666V34.0312H83.7714C84.8502 34.0312 85.6004 33.5006 86.025 32.4423C86.2576 31.8595 86.3739 31.1694 86.3739 30.3633C86.3739 29.2557 86.1995 28.4004 85.8534 27.806Z" fill="black"/>
<path d="M92.841 35.9246H90.7124V25.0254H94.0362L96.0223 33.5963L97.9938 25.0254H101.28V35.9246H99.1512V28.5541C99.1512 28.3424 99.1541 28.0438 99.157 27.6639C99.1628 27.2812 99.1628 26.9883 99.1628 26.7796L97.0953 35.9246H94.8794L92.8236 26.7796C92.8236 26.9854 92.8265 27.2812 92.8294 27.6639C92.8352 28.0467 92.8352 28.3424 92.8352 28.5541V35.9246H92.841Z" fill="black"/>
<path d="M103.557 25.0254H105.825V35.9246H103.557V25.0254Z" fill="black"/>
<path fill-rule="evenodd" clip-rule="evenodd" d="M83.562 20.7168C84.4198 18.2088 85.2776 15.7007 86.1355 13.1927C85.3416 12.4185 84.5477 11.6443 83.7539 10.8702C82.3174 15.0512 80.8838 19.2294 79.4473 23.4104C84.9374 23.3872 90.9015 23.0045 96.2027 21.4736C99.5293 20.5139 103.67 18.8438 105.191 16.1269C107.564 11.8879 102.772 8.19104 99.4944 6.32957C97.3484 5.10889 94.9377 4.14046 92.498 3.16044C91.3872 2.78061 90.2676 2.41527 89.1335 2.07313C86.2692 1.20619 83.3148 0.475515 80.1888 0C83.0763 0.611791 85.8098 1.42365 88.4676 2.33409C90.9161 3.17204 95.0424 4.71746 98.2615 6.83119C100.876 8.54768 104.548 11.8937 102.146 15.1875C101.1 16.6227 99.1048 17.8956 95.6414 18.9249C91.835 20.0499 87.508 20.5023 83.562 20.7168ZM95.4408 11.5979L95.9904 10.1018L99.5788 8.87532L99.0612 10.4034L95.4408 11.5979ZM92.9662 18.9249L95.2111 12.4388L98.8169 11.2007L96.4935 17.9623L92.9662 18.9249ZM88.3717 19.6614L91.0993 11.7081L94.7196 10.5657L91.7797 19.1917L88.3717 19.6614ZM84.3355 20.0064L86.7141 13.2593L90.3345 12.0561L87.6825 19.8035L84.3355 20.0064Z" fill="black"/>
<path d="M61.2056 3.14844V40.0473Z" fill="black"/>
<path d="M61.2056 3.14844V40.0473" stroke="#070304" stroke-opacity="0.5" stroke-width="1.0121" stroke-miterlimit="10"/>
<path d="M20.9048 8.17655C27.0463 8.17655 33.15 8.17655 39.2857 8.17655C39.1549 8.40271 39.0385 8.60567 38.9193 8.80573C36.7268 12.5432 34.5371 16.2806 32.3445 20.018C30.9371 22.4188 29.5268 24.8196 28.1193 27.2233C27.8227 27.7307 27.5261 28.241 27.2353 28.7513C27.1801 28.847 27.119 28.8818 27.0085 28.8818C25.8919 28.8789 24.7752 28.876 23.6557 28.8818C23.5306 28.8818 23.4783 28.8296 23.423 28.731C21.1927 24.8747 18.9594 21.0213 16.7232 17.1678C16.6883 17.107 16.6505 17.049 16.5982 16.9591C15.4931 18.8466 14.3998 20.7139 13.2889 22.6102C13.3936 22.6102 13.4634 22.6102 13.5303 22.6102C14.8592 22.6102 16.1881 22.6131 17.5171 22.6073C17.6508 22.6073 17.7235 22.6508 17.7875 22.7639C18.9478 24.7326 20.1109 26.6985 21.2712 28.6672C21.3061 28.7252 21.3381 28.789 21.3788 28.8644C15.0192 28.8644 8.68281 28.8644 2.31738 28.8644C2.38136 28.7513 2.43079 28.6585 2.48604 28.5657C5.23693 23.8744 7.99073 19.1801 10.7416 14.4887C11.9397 12.4446 13.1348 10.4005 14.3242 8.35342C14.4085 8.20554 14.5016 8.15625 14.6702 8.15625C15.9788 8.16495 17.2902 8.16205 18.5988 8.15625C18.7471 8.15625 18.8256 8.19974 18.9012 8.33022C21.0095 11.9836 23.1206 15.634 25.2347 19.2845C25.2696 19.3425 25.3045 19.4005 25.3568 19.4816C26.4618 17.5912 27.5494 15.7268 28.6602 13.8276C28.5497 13.8276 28.4828 13.8276 28.413 13.8276C27.0899 13.8276 25.7668 13.8247 24.4437 13.8305C24.2925 13.8305 24.2169 13.7812 24.1442 13.6566C23.2515 12.1314 22.3529 10.6121 21.4544 9.08988C21.2799 8.79704 21.1025 8.50129 20.9048 8.17655Z" fill="black"/>
<path d="M9.63992 33.7673C9.45381 34.1239 9.2677 34.4806 9.0816 34.8343C8.92166 35.1416 8.77045 35.4519 8.59888 35.7505C8.55527 35.8259 8.45349 35.9071 8.37788 35.91C8.30228 35.91 8.19468 35.8288 8.15397 35.7534C7.82829 35.1532 7.51423 34.5443 7.19727 33.9384C7.16819 33.8833 7.1362 33.8282 7.07804 33.7209C7.03733 33.9789 7.00535 34.1848 6.97336 34.3936C6.9152 34.7995 6.85414 35.2025 6.80761 35.6085C6.78435 35.7969 6.71165 35.881 6.511 35.8636C6.31908 35.8491 6.12716 35.8578 5.93233 35.8607C5.77239 35.8636 5.71423 35.794 5.7404 35.6346C5.95268 34.4081 6.15914 33.1787 6.36851 31.9493C6.4005 31.755 6.42086 31.555 6.47029 31.3636C6.49065 31.2853 6.55171 31.1838 6.61859 31.1548C6.732 31.1085 6.81633 31.1809 6.87449 31.294C7.32813 32.1465 7.78758 32.996 8.24703 33.8456C8.28192 33.9123 8.32263 33.9789 8.37207 34.0688C8.41859 33.9905 8.4564 33.9268 8.49129 33.863C8.94493 33.0192 9.40147 32.1755 9.8551 31.3288C9.91617 31.2128 9.98305 31.1201 10.1343 31.1491C10.2797 31.1751 10.2709 31.2969 10.2884 31.4013C10.5239 32.8134 10.7595 34.2254 10.9979 35.6346C11.0241 35.7969 10.9688 35.8636 10.8089 35.8607C10.5966 35.8578 10.3843 35.8578 10.175 35.8607C10.0412 35.8636 9.98305 35.8056 9.9627 35.6722C9.87546 35.0402 9.77659 34.411 9.68354 33.7789C9.669 33.776 9.65446 33.7702 9.63992 33.7673Z" fill="black"/>
<path d="M30.7134 33.9907C31.0042 34.5271 31.2863 35.0519 31.5684 35.5738C31.6847 35.7884 31.6411 35.858 31.391 35.8609C31.1671 35.8638 30.9403 35.8551 30.7164 35.8638C30.5797 35.8696 30.507 35.8145 30.4488 35.6956C30.2278 35.2404 29.9952 34.791 29.7684 34.3415C29.6026 34.011 29.5765 33.9994 29.1664 34.0777C29.1664 34.1415 29.1664 34.2111 29.1664 34.2777C29.1664 34.7185 29.1664 35.1621 29.1664 35.6028C29.1664 35.8435 29.149 35.8609 28.8989 35.8609C28.7186 35.8609 28.5383 35.8522 28.3609 35.8638C28.1748 35.8754 28.1138 35.7971 28.1138 35.6144C28.1196 34.2314 28.1167 32.8483 28.1167 31.4652C28.1167 31.4536 28.1167 31.4391 28.1167 31.4276C28.1021 31.271 28.1748 31.2101 28.3319 31.213C28.9687 31.2188 29.6026 31.2101 30.2395 31.2159C30.9199 31.2217 31.4782 31.6624 31.644 32.3148C31.801 32.9324 31.516 33.5471 30.917 33.8805C30.8588 33.9153 30.7978 33.9472 30.7134 33.9907ZM29.1752 33.1817C29.5387 33.1817 29.8905 33.1991 30.2395 33.1759C30.4692 33.1585 30.6407 32.9266 30.6524 32.6917C30.6611 32.4772 30.5157 32.222 30.3005 32.2046C29.9312 32.1727 29.5561 32.1959 29.1752 32.1959C29.1752 32.5265 29.1752 32.8454 29.1752 33.1817Z" fill="black"/>
<path d="M39.6523 32.2074C39.6523 32.4741 39.6523 32.7293 39.6523 33.0134C39.7221 33.0134 39.789 33.0134 39.8559 33.0134C40.2601 33.0134 40.6643 33.0163 41.0685 33.0105C41.2226 33.0076 41.2953 33.0627 41.2924 33.2222C41.2866 33.4077 41.2895 33.5933 41.2924 33.7789C41.2953 33.9354 41.2255 33.9934 41.0685 33.9905C40.6003 33.9847 40.135 33.9876 39.6552 33.9876C39.6552 34.2834 39.6552 34.5617 39.6552 34.8633C39.7221 34.8662 39.789 34.872 39.8559 34.872C40.356 34.872 40.8562 34.872 41.3593 34.872C41.5861 34.872 41.6094 34.8952 41.6094 35.1271C41.6094 35.3069 41.6065 35.4867 41.6094 35.6635C41.6123 35.7882 41.5628 35.8578 41.432 35.8578C40.5451 35.8578 39.6611 35.8578 38.7741 35.8578C38.6084 35.8578 38.5968 35.7505 38.5968 35.6229C38.5997 34.9126 38.5968 34.2022 38.5968 33.4918C38.5968 32.8133 38.6026 32.1349 38.5938 31.4564C38.5909 31.2737 38.652 31.207 38.8381 31.207C39.6843 31.2128 40.5334 31.2128 41.3796 31.207C41.5425 31.207 41.6181 31.2592 41.6094 31.4274C41.6006 31.6072 41.6006 31.7869 41.6094 31.9638C41.6181 32.132 41.5512 32.1929 41.3854 32.19C40.8649 32.1842 40.3444 32.1871 39.8268 32.1871C39.7716 32.1987 39.7163 32.2045 39.6523 32.2074Z" fill="black"/>
<path d="M24.0979 32.2622C24.0979 32.5406 24.0979 32.7928 24.0979 33.0712C24.4265 33.0712 24.7464 33.0712 25.0663 33.0712C25.2204 33.0712 25.3745 33.0741 25.5286 33.0712C25.674 33.0683 25.738 33.1379 25.7351 33.2828C25.7293 33.4742 25.7293 33.6656 25.7351 33.8598C25.738 34.0077 25.6682 34.0628 25.5228 34.0628C25.0546 34.0599 24.5865 34.0628 24.1037 34.0628C24.1037 34.3556 24.1037 34.6398 24.1037 34.9442C24.2346 34.9442 24.3625 34.9442 24.4905 34.9442C24.9412 34.9442 25.389 34.9471 25.8398 34.9413C25.9939 34.9384 26.0666 34.9906 26.0579 35.153C26.0491 35.3502 26.055 35.5502 26.055 35.7474C26.055 35.8692 26.0026 35.9214 25.8805 35.9214C24.9936 35.9214 24.1096 35.9185 23.2226 35.9214C23.0394 35.9214 23.0424 35.8025 23.0424 35.672C23.0424 34.2948 23.0424 32.9204 23.0424 31.5431C23.0424 31.5229 23.0424 31.5055 23.0424 31.4852C23.0365 31.3402 23.1005 31.2793 23.2488 31.2793C24.1154 31.2822 24.9819 31.2822 25.8485 31.2793C25.9968 31.2793 26.0608 31.3315 26.055 31.4823C26.0491 31.6736 26.0491 31.865 26.055 32.0593C26.0608 32.2071 25.9997 32.2651 25.8514 32.2622C25.3454 32.2564 24.8365 32.2593 24.3306 32.2593C24.2579 32.2622 24.1881 32.2622 24.0979 32.2622Z" fill="black"/>
<path d="M3.95181 35.7823C3.55052 35.8896 3.34697 35.6866 3.2481 35.3271C3.19576 35.1386 3.08526 35.0777 2.88461 35.0864C2.42225 35.1038 1.95989 35.0951 1.50044 35.0893C1.38122 35.0864 1.31724 35.1241 1.26781 35.2343C0.991556 35.849 1.1166 35.7765 0.409973 35.7794C-0.0756488 35.7823 -0.0756487 35.7794 0.130813 35.3358C0.764739 33.9759 1.39866 32.6132 2.03841 31.2562C2.07621 31.1779 2.16926 31.088 2.24487 31.0793C2.30012 31.0735 2.39899 31.1779 2.43388 31.2533C3.09689 32.6567 3.75117 34.0658 4.40836 35.4721C4.52758 35.7301 4.49269 35.7823 4.2019 35.7823C4.12047 35.7823 4.03614 35.7823 3.95181 35.7823ZM2.23324 33.0945C2.05876 33.4801 1.90755 33.8164 1.75052 34.1673C2.09366 34.1673 2.39899 34.1673 2.72758 34.1673C2.56474 33.8135 2.41062 33.4801 2.23324 33.0945Z" fill="black"/>
<path d="M13.478 34.1761C13.478 34.669 13.478 35.133 13.478 35.5998C13.478 35.8404 13.4576 35.8607 13.2134 35.8607C13.0215 35.8607 12.8295 35.8578 12.6347 35.8607C12.5039 35.8636 12.4312 35.8143 12.4312 35.6694C12.4341 34.2486 12.4341 32.8279 12.4312 31.4071C12.4312 31.2679 12.4893 31.21 12.626 31.21C13.1639 31.2129 13.7048 31.1984 14.2428 31.2158C15.0337 31.2419 15.6706 31.9261 15.6531 32.7032C15.6357 33.5092 14.9901 34.1587 14.1933 34.1703C13.9665 34.179 13.7368 34.1761 13.478 34.1761ZM13.4896 33.1961C13.7281 33.1961 13.9607 33.2164 14.1875 33.1903C14.4551 33.1613 14.6383 32.9207 14.6266 32.6684C14.615 32.4306 14.4318 32.2306 14.1672 32.2074C13.9462 32.19 13.7223 32.2045 13.4896 32.2045C13.4896 32.5408 13.4896 32.8627 13.4896 33.1961Z" fill="black"/>
<path d="M35.0258 35.9245C34.4849 35.9158 34.0197 35.7998 33.6155 35.4895C33.4817 35.3881 33.441 35.2866 33.5457 35.1358C33.6329 35.0111 33.7027 34.872 33.7754 34.7357C33.8539 34.5878 33.9499 34.5878 34.0924 34.6574C34.3424 34.7792 34.5983 34.9067 34.8659 34.9734C35.1392 35.043 35.3369 34.927 35.4126 34.7328C35.4853 34.5443 35.4096 34.3268 35.1886 34.1732C35.0374 34.0688 34.86 34.0021 34.7001 33.9122C34.4675 33.7817 34.2174 33.6687 34.008 33.5063C33.5573 33.1584 33.3625 32.6944 33.5195 32.1319C33.6736 31.5723 34.0865 31.2824 34.639 31.1809C35.2817 31.0649 35.8575 31.2505 36.3838 31.61C36.503 31.6912 36.5205 31.7869 36.4449 31.9029C36.346 32.0537 36.2471 32.2015 36.1453 32.3494C36.0581 32.4741 35.9651 32.4973 35.8197 32.4132C35.5987 32.2885 35.3631 32.187 35.1276 32.0884C35.0549 32.0595 34.9502 32.0421 34.8833 32.074C34.7641 32.129 34.6071 32.2073 34.5722 32.3088C34.5373 32.4132 34.5896 32.6017 34.6739 32.6799C34.831 32.822 35.0345 32.9148 35.2264 33.0163C35.4678 33.1468 35.7295 33.2482 35.9563 33.399C36.4972 33.7643 36.7037 34.2979 36.5612 34.8546C36.4187 35.4084 35.904 35.8317 35.2904 35.9013C35.1886 35.9187 35.084 35.9187 35.0258 35.9245Z" fill="black"/>
<path d="M19.1745 33.7327C19.4421 33.1412 19.6921 32.5961 19.9393 32.051C20.0411 31.8249 20.1487 31.5987 20.2446 31.3696C20.2941 31.2479 20.3726 31.2102 20.4976 31.216C20.7274 31.2218 20.96 31.216 21.1897 31.2189C21.4194 31.2218 21.4543 31.2797 21.3584 31.4856C20.7681 32.7469 20.1778 34.0082 19.5875 35.2723C19.5119 35.4347 19.445 35.6029 19.3548 35.7566C19.3141 35.8261 19.2269 35.9073 19.1542 35.9131C19.096 35.9189 19.0059 35.8261 18.9739 35.7595C18.369 34.475 17.7729 33.1876 17.1739 31.9031C17.1041 31.7524 17.0314 31.6045 16.9645 31.4508C16.8976 31.2971 16.9354 31.2276 17.0983 31.2218C17.36 31.216 17.6246 31.2073 17.8863 31.2276C17.9619 31.2334 18.0637 31.3232 18.0986 31.3986C18.4301 32.1061 18.7471 32.8165 19.0698 33.5269C19.0989 33.579 19.128 33.637 19.1745 33.7327Z" fill="black"/>
</svg>
