<svg width="69" height="47" viewBox="0 0 69 47" fill="none" xmlns="http://www.w3.org/2000/svg">
<g clip-path="url(#clip0_3051_1502)">
<path d="M34.6012 0.478763C44.7225 0.478763 54.7816 0.478763 64.8934 0.478763C64.6777 0.851479 64.486 1.18597 64.2895 1.51568C60.6761 7.67505 57.0675 13.8344 53.4541 19.9938C51.1347 23.9503 48.8104 27.9069 46.4909 31.8682C46.0021 32.7044 45.5133 33.5454 45.034 34.3864C44.943 34.5441 44.8423 34.6014 44.6602 34.6014C42.82 34.5966 40.9797 34.5919 39.1347 34.6014C38.9286 34.6014 38.8424 34.5154 38.7513 34.3529C35.0756 27.9976 31.3951 21.6471 27.7098 15.2966C27.6523 15.1963 27.59 15.1007 27.5038 14.9526C25.6827 18.0633 23.8808 21.1406 22.0501 24.2657C22.2227 24.2657 22.3377 24.2657 22.4479 24.2657C24.638 24.2657 26.8281 24.2705 29.0181 24.2609C29.2386 24.2609 29.3584 24.3326 29.4638 24.519C31.376 27.7635 33.2929 31.0033 35.205 34.2478C35.2625 34.3434 35.3152 34.4485 35.3823 34.5727C24.9016 34.5727 14.4591 34.5727 3.96875 34.5727C4.07418 34.3864 4.15565 34.2335 4.2467 34.0806C8.78023 26.3491 13.3185 18.6128 17.8521 10.8814C19.8265 7.51259 21.7961 4.14381 23.7562 0.770246C23.8952 0.526547 24.0485 0.445312 24.3265 0.445312C26.483 0.459649 28.6443 0.45487 30.8009 0.445312C31.0453 0.445312 31.1747 0.516989 31.2993 0.732017C34.7737 6.75282 38.2529 12.7688 41.7369 18.7849C41.7944 18.8804 41.8519 18.976 41.9382 19.1098C43.7593 15.9943 45.5516 12.9217 47.3823 9.79189C47.2002 9.79189 47.0899 9.79189 46.9749 9.79189C44.7944 9.79189 42.6139 9.78711 40.4334 9.79667C40.1842 9.79667 40.0596 9.71543 39.9398 9.50996C38.4686 6.99652 36.9878 4.49263 35.5069 1.98396C35.2194 1.50134 34.9271 1.01394 34.6012 0.478763Z" fill="white"/>
<path d="M16.0224 42.6491C15.7156 43.2368 15.4089 43.8246 15.1022 44.4076C14.8387 44.9141 14.5895 45.4254 14.3067 45.9175C14.2348 46.0418 14.0671 46.1756 13.9425 46.1804C13.8179 46.1804 13.6406 46.0466 13.5735 45.9223C13.0367 44.9332 12.5192 43.9297 11.9968 42.931C11.9489 42.8402 11.8962 42.7495 11.8003 42.5726C11.7332 42.9979 11.6805 43.3372 11.6278 43.6812C11.532 44.3502 11.4313 45.0144 11.3546 45.6834C11.3163 45.994 11.1965 46.1326 10.8658 46.1039C10.5495 46.08 10.2332 46.0943 9.91216 46.0991C9.64859 46.1039 9.55274 45.9892 9.59587 45.7264C9.94571 43.7051 10.286 41.6791 10.631 39.653C10.6837 39.3329 10.7173 39.0032 10.7987 38.6878C10.8323 38.5588 10.9329 38.3915 11.0431 38.3438C11.23 38.2673 11.369 38.3868 11.4649 38.5731C12.2125 39.978 12.9697 41.378 13.7268 42.7781C13.7843 42.888 13.8514 42.9979 13.9329 43.1461C14.0096 43.017 14.0719 42.9119 14.1294 42.8068C14.877 41.4163 15.6294 40.0258 16.377 38.6305C16.4776 38.4393 16.5878 38.2864 16.837 38.3342C17.0767 38.3772 17.0623 38.5779 17.091 38.7499C17.4792 41.077 17.8674 43.4041 18.2604 45.7264C18.3035 45.994 18.2124 46.1039 17.9489 46.0991C17.599 46.0943 17.2492 46.0943 16.9041 46.0991C16.6837 46.1039 16.5879 46.0083 16.5543 45.7885C16.4105 44.7468 16.2476 43.7099 16.0942 42.6682C16.0703 42.6634 16.0463 42.6539 16.0224 42.6491Z" fill="white"/>
<path d="M50.7492 43.0154C51.2284 43.8994 51.6933 44.7643 52.1581 45.6244C52.3498 45.978 52.2779 46.0927 51.8658 46.0975C51.4968 46.1022 51.123 46.0879 50.754 46.1022C50.5287 46.1118 50.4089 46.021 50.3131 45.8251C49.9489 45.0749 49.5655 44.3342 49.1917 43.5936C48.9185 43.0488 48.8754 43.0297 48.1997 43.1587C48.1997 43.2639 48.1997 43.3785 48.1997 43.4884C48.1997 44.2148 48.1997 44.9459 48.1997 45.6722C48.1997 46.0688 48.1709 46.0975 47.7588 46.0975C47.4616 46.0975 47.1645 46.0831 46.8722 46.1022C46.5655 46.1214 46.4648 45.9923 46.4648 45.6913C46.4744 43.412 46.4696 41.1327 46.4696 38.8534C46.4696 38.8343 46.4696 38.8104 46.4696 38.7913C46.4457 38.5332 46.5655 38.4329 46.8243 38.4377C47.8738 38.4472 48.9185 38.4329 49.968 38.4424C51.0894 38.452 52.0095 39.1783 52.2827 40.2535C52.5415 41.2713 52.0718 42.2843 51.0846 42.8338C50.9888 42.8911 50.8881 42.9437 50.7492 43.0154ZM48.214 41.6822C48.8131 41.6822 49.3929 41.7109 49.968 41.6727C50.3466 41.644 50.6294 41.2617 50.6485 40.8747C50.6629 40.521 50.4233 40.1006 50.0687 40.0719C49.46 40.0193 48.8418 40.0575 48.214 40.0575C48.214 40.6023 48.214 41.1279 48.214 41.6822Z" fill="white"/>
<path d="M65.4907 40.0861C65.4907 40.5257 65.4907 40.9462 65.4907 41.4144C65.6057 41.4144 65.7159 41.4144 65.8261 41.4144C66.4922 41.4144 67.1584 41.4192 67.8245 41.4097C68.0785 41.4049 68.1983 41.4957 68.1935 41.7585C68.1839 42.0643 68.1887 42.3701 68.1935 42.676C68.1983 42.934 68.0833 43.0296 67.8245 43.0248C67.053 43.0152 66.2862 43.02 65.4954 43.02C65.4954 43.5074 65.4954 43.9661 65.4954 44.4631C65.6057 44.4679 65.7159 44.4774 65.8261 44.4774C66.6504 44.4774 67.4747 44.4774 68.3037 44.4774C68.6775 44.4774 68.7159 44.5156 68.7159 44.8979C68.7159 45.1942 68.7111 45.4904 68.7159 45.7819C68.7207 45.9874 68.6392 46.1021 68.4236 46.1021C66.9619 46.1021 65.505 46.1021 64.0434 46.1021C63.7702 46.1021 63.7511 45.9253 63.7511 45.715C63.7558 44.5443 63.7511 43.3736 63.7511 42.2029C63.7511 41.0847 63.7606 39.9666 63.7463 38.8484C63.7415 38.5474 63.8421 38.4375 64.1488 38.4375C65.5434 38.4471 66.9427 38.4471 68.3373 38.4375C68.6057 38.4375 68.7303 38.5235 68.7159 38.8007C68.7015 39.0969 68.7015 39.3932 68.7159 39.6847C68.7303 39.9618 68.62 40.0622 68.3469 40.0574C67.489 40.0478 66.6312 40.0526 65.7782 40.0526C65.6871 40.0717 65.5961 40.0813 65.4907 40.0861Z" fill="white"/>
<path d="M39.8652 40.1746C39.8652 40.6333 39.8652 41.049 39.8652 41.5077C40.4067 41.5077 40.9339 41.5077 41.461 41.5077C41.715 41.5077 41.969 41.5125 42.223 41.5077C42.4626 41.503 42.5681 41.6176 42.5633 41.8566C42.5537 42.1719 42.5537 42.4873 42.5633 42.8075C42.5681 43.0512 42.4531 43.142 42.2134 43.142C41.4419 43.1372 40.6703 43.142 39.8748 43.142C39.8748 43.6246 39.8748 44.0929 39.8748 44.5946C40.0904 44.5946 40.3013 44.5946 40.5122 44.5946C41.255 44.5946 41.993 44.5994 42.7358 44.5898C42.9898 44.585 43.1096 44.6711 43.0952 44.9386C43.0808 45.2636 43.0904 45.5933 43.0904 45.9182C43.0904 46.1189 43.0042 46.2049 42.8029 46.2049C41.3412 46.2049 39.8844 46.2001 38.4227 46.2049C38.1208 46.2049 38.1256 46.009 38.1256 45.794C38.1256 43.5242 38.1256 41.2593 38.1256 38.9895C38.1256 38.9561 38.1256 38.9274 38.1256 38.894C38.116 38.655 38.2214 38.5547 38.4659 38.5547C39.894 38.5595 41.3221 38.5595 42.7502 38.5547C42.9946 38.5547 43.1 38.6407 43.0904 38.8892C43.0808 39.2046 43.0808 39.5199 43.0904 39.8401C43.1 40.0838 42.9994 40.1793 42.755 40.1746C41.9211 40.165 41.0825 40.1698 40.2486 40.1698C40.1288 40.1746 40.0138 40.1746 39.8652 40.1746Z" fill="white"/>
<path d="M6.6533 45.9697C5.99196 46.1465 5.6565 45.812 5.49356 45.2195C5.4073 44.9089 5.22519 44.8086 4.89452 44.8229C4.13255 44.8516 3.37057 44.8372 2.61339 44.8277C2.4169 44.8229 2.31147 44.885 2.23 45.0666C1.77473 46.0796 1.9808 45.9602 0.81627 45.9649C0.0159542 45.9697 0.0159543 45.9649 0.356208 45.2338C1.40093 42.9928 2.44565 40.7469 3.49996 38.5106C3.56226 38.3816 3.71562 38.2335 3.84022 38.2191C3.93127 38.2096 4.09421 38.3816 4.15172 38.5058C5.24436 40.8186 6.32263 43.1409 7.40569 45.4584C7.60218 45.8837 7.54467 45.9697 7.06544 45.9697C6.93125 45.9697 6.79228 45.9697 6.6533 45.9697ZM3.82105 41.5401C3.53351 42.1757 3.28431 42.73 3.02552 43.3081C3.59102 43.3081 4.09421 43.3081 4.63574 43.3081C4.36737 42.7252 4.11338 42.1757 3.82105 41.5401Z" fill="white"/>
<path d="M22.3502 43.3306C22.3502 44.143 22.3502 44.9075 22.3502 45.6768C22.3502 46.0735 22.3167 46.1069 21.9141 46.1069C21.5978 46.1069 21.2815 46.1021 20.9605 46.1069C20.7448 46.1117 20.625 46.0304 20.625 45.7915C20.6298 43.4501 20.6298 41.1087 20.625 38.7673C20.625 38.5379 20.7208 38.4423 20.9461 38.4423C21.8327 38.4471 22.724 38.4232 23.6106 38.4519C24.9141 38.4949 25.9636 39.6226 25.9349 40.9032C25.9061 42.2316 24.8422 43.302 23.5291 43.3211C23.1553 43.3354 22.7767 43.3306 22.3502 43.3306ZM22.3694 41.7155C22.7624 41.7155 23.1458 41.749 23.5196 41.706C23.9604 41.6582 24.2624 41.2616 24.2432 40.8459C24.224 40.454 23.9221 40.1243 23.486 40.0861C23.1218 40.0574 22.7528 40.0813 22.3694 40.0813C22.3694 40.6356 22.3694 41.166 22.3694 41.7155Z" fill="white"/>
<path d="M57.8756 46.2101C56.9842 46.1958 56.2174 46.0047 55.5513 45.4934C55.3309 45.3261 55.2638 45.1589 55.4363 44.9104C55.58 44.705 55.6951 44.4756 55.8149 44.251C55.9443 44.0073 56.1024 44.0073 56.3372 44.122C56.7494 44.3227 57.1711 44.5329 57.612 44.6428C58.0625 44.7575 58.3883 44.5664 58.5129 44.2462C58.6328 43.9356 58.5081 43.5772 58.1439 43.324C57.8947 43.152 57.6024 43.0421 57.3388 42.8939C56.9554 42.6789 56.5433 42.4925 56.1983 42.225C55.4555 41.6515 55.1344 40.887 55.3931 39.96C55.6471 39.0378 56.3276 38.5599 57.2382 38.3927C58.2973 38.2015 59.2462 38.5074 60.1136 39.0999C60.3101 39.2337 60.3388 39.3914 60.2142 39.5825C60.0513 39.831 59.8883 40.0747 59.7206 40.3184C59.5768 40.5238 59.4235 40.5621 59.1839 40.4235C58.8197 40.218 58.4315 40.0508 58.0433 39.8883C57.9235 39.8405 57.751 39.8119 57.6407 39.8644C57.4443 39.9552 57.1855 40.0842 57.128 40.2515C57.0705 40.4235 57.1567 40.7341 57.2957 40.8631C57.5545 41.0972 57.8899 41.2502 58.2062 41.4174C58.604 41.6324 59.0353 41.7997 59.4091 42.0482C60.3005 42.6502 60.6407 43.5295 60.4059 44.4469C60.1711 45.3596 59.3228 46.0572 58.3117 46.1719C58.1439 46.2006 57.9714 46.2006 57.8756 46.2101Z" fill="white"/>
<path d="M31.7486 42.587C32.1895 41.6122 32.6016 40.7139 33.009 39.8155C33.1767 39.4428 33.354 39.0701 33.5122 38.6926C33.5936 38.4919 33.723 38.4298 33.9291 38.4393C34.3077 38.4489 34.6911 38.4393 35.0697 38.4441C35.4483 38.4489 35.5058 38.5445 35.3476 38.8837C34.3748 40.9623 33.402 43.041 32.4291 45.1243C32.3045 45.3919 32.1943 45.6691 32.0457 45.9223C31.9786 46.037 31.8349 46.1708 31.7151 46.1804C31.6192 46.1899 31.4707 46.037 31.4179 45.9271C30.4211 43.8103 29.4387 41.6887 28.4515 39.5718C28.3365 39.3233 28.2167 39.0797 28.1065 38.8264C27.9962 38.5731 28.0585 38.4585 28.3269 38.4489C28.7582 38.4393 29.1943 38.425 29.6256 38.4585C29.7502 38.468 29.918 38.6161 29.9755 38.7404C30.5218 39.9063 31.0441 41.077 31.5761 42.2477C31.624 42.3337 31.6719 42.4293 31.7486 42.587Z" fill="white"/>
</g>
<defs>
<clipPath id="clip0_3051_1502">
<rect width="69" height="47" fill="white"/>
</clipPath>
</defs>
</svg>
