<svg width="75" height="75" viewBox="0 0 75 75" fill="none" xmlns="http://www.w3.org/2000/svg">
<rect width="74.2863" height="74.2863" rx="6" fill="#333333"/>
<path d="M47.2917 20H45.75H27.25H25.7083H18V21.5417C18 29.0881 22.2951 36.223 25.7083 38.0437V38.5C25.7083 43.9267 29.7367 48.4175 34.9583 49.1683V53.9167H28.7917V57H44.2083V53.9167H38.0417V49.1683C43.2633 48.4175 47.2917 43.9267 47.2917 38.5V38.0437C50.7049 36.223 55 29.0866 55 21.5417V20H47.2917ZM25.7083 34.1155C23.9524 32.1468 21.5674 28.123 21.1481 23.0833H25.7083V34.1155ZM47.2917 34.1155V23.0833H51.8519C51.4326 28.123 49.0476 32.1468 47.2917 34.1155Z" fill="white"/>
</svg>
