<svg width="155" height="84" viewBox="0 0 155 84" fill="none" xmlns="http://www.w3.org/2000/svg">
<path d="M92.96 28.044L92.4184 28.0013L92.3723 28.5872H92.96V28.044ZM96.7463 19.3132L97.1141 19.713L97.1169 19.7104L96.7463 19.3132ZM109.486 16.7742L109.325 17.2932L109.337 17.2965L109.486 16.7742ZM112.782 18.4669L113.125 18.0453L113.125 18.0453L112.782 18.4669ZM115.01 21.4068L114.514 21.6298L114.519 21.6399L115.01 21.4068ZM114.876 29.6921L115.352 29.9539L115.355 29.949L114.876 29.6921ZM112.337 32.9439L112.704 33.3449L112.71 33.3391L112.337 32.9439ZM108.773 35.572L108.494 35.1062L108.489 35.109L108.773 35.572ZM104.853 37.9329L105.122 38.4053L105.13 38.4006L104.853 37.9329ZM101.112 40.1601L100.824 39.6995L101.112 40.1601ZM98.1271 42.5655L97.7296 42.1954L96.8792 43.1088H98.1271V42.5655ZM113.495 42.5655L114.025 42.6871L114.177 42.0223H113.495V42.5655ZM112.248 48V48.5432H112.68L112.777 48.1215L112.248 48ZM89.1737 48L88.6315 47.9666L88.596 48.5432H89.1737V48ZM90.4655 42.9665L90.9473 43.2174H90.9473L90.4655 42.9665ZM93.3163 39.2247L93.6848 39.6239L93.6902 39.6188L93.3163 39.2247ZM97.2363 36.2847L97.5129 36.7522L97.2363 36.2847ZM101.691 33.7902L101.945 34.2703L101.954 34.2657L101.962 34.2608L101.691 33.7902ZM104.185 32.4094L103.936 31.9266L103.93 31.93L104.185 32.4094ZM106.724 30.8058L107.055 31.2363L107.058 31.2346L106.724 30.8058ZM108.729 28.7122L109.175 29.0214L108.729 28.7122ZM108.105 22.6541L107.781 23.0903L107.789 23.0962L107.797 23.1017L108.105 22.6541ZM102.359 22.1641L102.593 22.6542L102.602 22.65L102.359 22.1641ZM100.577 23.545L100.163 23.1931L100.158 23.1993L100.153 23.2056L100.577 23.545ZM99.4189 25.594L98.9119 25.399L98.9086 25.4076L98.9056 25.4163L99.4189 25.594ZM98.9735 28.044V28.5872H99.4983L99.5164 28.0627L98.9735 28.044ZM93.5015 28.0866C93.7905 24.4162 95.0113 21.6475 97.1141 19.713L96.3785 18.9134C94.0267 21.077 92.7233 24.1289 92.4184 28.0013L93.5015 28.0866ZM97.1169 19.7104C99.2259 17.742 101.995 16.7383 105.477 16.7383V15.6519C101.772 15.6519 98.7211 16.7269 96.3756 18.9161L97.1169 19.7104ZM105.477 16.7383C106.853 16.7383 108.135 16.9246 109.325 17.2931L109.647 16.2552C108.343 15.8517 106.952 15.6519 105.477 15.6519V16.7383ZM109.337 17.2965C110.518 17.6339 111.55 18.1654 112.44 18.8885L113.125 18.0453C112.114 17.2242 110.949 16.6272 109.635 16.2519L109.337 17.2965ZM112.44 18.8885C113.32 19.6038 114.012 20.5141 114.514 21.6297L115.505 21.1839C114.938 19.9239 114.145 18.8742 113.125 18.0453L112.44 18.8885ZM114.519 21.6399C115.042 22.7407 115.313 24.0537 115.313 25.594H116.399C116.399 23.9271 116.106 22.4486 115.5 21.1737L114.519 21.6399ZM115.313 25.594C115.313 27.0277 115.004 28.3041 114.397 29.4353L115.355 29.949C116.054 28.645 116.399 27.1894 116.399 25.594H115.313ZM114.4 29.4303C113.775 30.566 112.965 31.6054 111.964 32.5486L112.71 33.3391C113.788 32.3224 114.67 31.194 115.352 29.9539L114.4 29.4303ZM111.97 32.543C110.96 33.4663 109.802 34.3211 108.494 35.1062L109.053 36.0378C110.417 35.2193 111.635 34.322 112.703 33.3448L111.97 32.543ZM108.489 35.109C107.185 35.9093 105.881 36.6947 104.577 37.4652L105.13 38.4006C106.439 37.6269 107.748 36.8384 109.057 36.035L108.489 35.109ZM104.585 37.4606C103.272 38.2065 102.018 38.9528 100.824 39.6995L101.4 40.6208C102.581 39.8827 103.821 39.1441 105.122 38.4052L104.585 37.4606ZM100.824 39.6995C99.6029 40.4625 98.5693 41.2935 97.7296 42.1954L98.5247 42.9357C99.2886 42.1152 100.245 41.3426 101.4 40.6208L100.824 39.6995ZM98.1271 43.1088H113.495V42.0223H98.1271V43.1088ZM112.966 42.444L111.718 47.8785L112.777 48.1215L114.025 42.6871L112.966 42.444ZM112.248 47.4568H89.1737V48.5432H112.248V47.4568ZM89.7159 48.0334C89.8309 46.1639 90.2464 44.563 90.9473 43.2174L89.9837 42.7155C89.1997 44.2207 88.754 45.9756 88.6315 47.9666L89.7159 48.0334ZM90.9473 43.2174C91.6613 41.8464 92.5736 40.6496 93.6848 39.6239L92.9479 38.8255C91.7427 39.938 90.7544 41.2356 89.9837 42.7155L90.9473 43.2174ZM93.6902 39.6188C94.8171 38.5497 96.0908 37.5939 97.5129 36.7522L96.9596 35.8173C95.4715 36.698 94.1318 37.7022 92.9424 38.8306L93.6902 39.6188ZM97.5129 36.7522C98.9606 35.8955 100.438 35.0682 101.945 34.2703L101.437 33.3101C99.9145 34.1159 98.4222 34.9516 96.9596 35.8173L97.5129 36.7522ZM101.962 34.2608C102.728 33.8187 103.555 33.3613 104.441 32.8887L103.93 31.93C103.034 32.4077 102.197 32.8709 101.419 33.3197L101.962 34.2608ZM104.434 32.8921C105.382 32.403 106.256 31.8513 107.055 31.2363L106.393 30.3752C105.648 30.9481 104.83 31.4655 103.936 31.9266L104.434 32.8921ZM107.058 31.2346C107.9 30.5798 108.607 29.8424 109.175 29.0214L108.282 28.4029C107.781 29.1261 107.153 29.7845 106.391 30.377L107.058 31.2346ZM109.175 29.0214C109.78 28.1488 110.074 27.1325 110.074 25.9949H108.987C108.987 26.9361 108.747 27.7313 108.282 28.4029L109.175 29.0214ZM110.074 25.9949C110.074 24.3134 109.561 22.9957 108.413 22.2064L107.797 23.1017C108.55 23.6191 108.987 24.5286 108.987 25.9949H110.074ZM108.429 22.2178C107.4 21.4543 106.153 21.0863 104.72 21.0863V22.1728C105.96 22.1728 106.969 22.4878 107.781 23.0903L108.429 22.2178ZM104.72 21.0863C103.781 21.0863 102.91 21.2811 102.116 21.6782L102.602 22.65C103.233 22.3343 103.936 22.1728 104.72 22.1728V21.0863ZM102.125 21.674C101.371 22.0346 100.716 22.5428 100.163 23.1931L100.991 23.8968C101.448 23.3593 101.981 22.9469 102.593 22.6541L102.125 21.674ZM100.153 23.2056C99.64 23.8468 99.2272 24.5794 98.9119 25.399L99.926 25.789C100.205 25.0645 100.564 24.431 101.001 23.8843L100.153 23.2056ZM98.9056 25.4163C98.6197 26.2424 98.4621 27.1129 98.4306 28.0253L99.5164 28.0627C99.5443 27.2527 99.6837 26.4899 99.9323 25.7717L98.9056 25.4163ZM98.9735 27.5008H92.96V28.5872H98.9735V27.5008ZM138.514 22.0305V22.5737H138.954L139.045 22.144L138.514 22.0305ZM125.24 22.0305V21.4872H124.839L124.721 21.8702L125.24 22.0305ZM123.191 28.6676L122.672 28.5074L122.575 28.8202L122.807 29.0517L123.191 28.6676ZM123.28 28.7567L122.896 29.1408L123.247 29.4916L123.628 29.174L123.28 28.7567ZM124.349 27.9549L124.064 27.4922L124.056 27.4974L124.048 27.5029L124.349 27.9549ZM125.641 27.3313L125.832 27.8399V27.8399L125.641 27.3313ZM127.244 26.9304L127.168 26.3926L127.164 26.3931L127.244 26.9304ZM132.679 27.4649L132.465 27.9644L132.477 27.9693L132.679 27.4649ZM135.441 29.2912L135.057 29.6754V29.6754L135.441 29.2912ZM137.356 32.2312L136.853 32.4374L136.855 32.442L137.356 32.2312ZM137.089 41.3183L136.588 41.1066L137.089 41.3183ZM130.229 47.7327L130.412 48.2441L130.418 48.2421L130.229 47.7327ZM117.222 46.2628L116.883 46.6869L117.222 46.2628ZM114.148 38.9129V38.3697H113.585L113.605 38.9321L114.148 38.9129ZM120.206 38.9129L120.749 38.9024L120.739 38.3697H120.206V38.9129ZM121.721 42.3428L121.393 42.7758L121.4 42.7814L121.408 42.7866L121.721 42.3428ZM127.913 42.9219L127.701 42.4216L127.694 42.4247L127.913 42.9219ZM129.917 41.5856L130.301 41.9698L130.311 41.9597L129.917 41.5856ZM131.253 39.492L131.757 39.6969V39.6969L131.253 39.492ZM130.363 32.8994L129.985 33.2898L129.991 33.2961L130.363 32.8994ZM123.592 32.1866L123.342 31.7044L123.592 32.1866ZM121.454 34.1911V34.7344H121.742L121.903 34.4958L121.454 34.1911ZM115.752 34.1911L115.233 34.029L115.013 34.7344H115.752V34.1911ZM121.186 16.8187V16.2755H120.787L120.668 16.6565L121.186 16.8187ZM139.628 16.8187L140.159 16.9322L140.299 16.2755H139.628V16.8187ZM138.514 21.4872H125.24V22.5737H138.514V21.4872ZM124.721 21.8702L122.672 28.5074L123.71 28.8279L125.759 22.1907L124.721 21.8702ZM122.807 29.0517L122.896 29.1408L123.664 28.3726L123.575 28.2835L122.807 29.0517ZM123.628 29.174C123.97 28.8884 124.311 28.6329 124.65 28.4069L124.048 27.5029C123.674 27.752 123.302 28.031 122.932 28.3394L123.628 29.174ZM124.634 28.4175C124.987 28.2003 125.385 28.0072 125.832 27.8399L125.45 26.8226C124.946 27.0116 124.483 27.2343 124.064 27.4922L124.634 28.4175ZM125.832 27.8399C126.265 27.6773 126.762 27.552 127.325 27.4676L127.164 26.3931C126.539 26.4869 125.967 26.6289 125.45 26.8226L125.832 27.8399ZM127.321 27.4681C127.914 27.3835 128.6 27.34 129.383 27.34V26.2535C128.562 26.2535 127.822 26.299 127.168 26.3926L127.321 27.4681ZM129.383 27.34C130.469 27.34 131.495 27.5484 132.465 27.9642L132.893 26.9656C131.784 26.4905 130.612 26.2535 129.383 26.2535V27.34ZM132.477 27.9693C133.447 28.3573 134.306 28.9249 135.057 29.6754L135.825 28.9071C134.972 28.054 133.989 27.404 132.881 26.9605L132.477 27.9693ZM135.057 29.6754C135.802 30.4212 136.403 31.3388 136.853 32.4374L137.859 32.025C137.359 30.8072 136.682 29.7649 135.825 28.9071L135.057 29.6754ZM136.855 32.442C137.298 33.4924 137.526 34.7104 137.526 36.1066H138.612C138.612 34.5924 138.365 33.2269 137.857 32.0204L136.855 32.442ZM137.526 36.1066C137.526 37.975 137.21 39.6388 136.588 41.1066L137.589 41.53C138.275 39.9094 138.612 38.0986 138.612 36.1066H137.526ZM136.588 41.1066C135.963 42.5843 135.101 43.8257 134.003 44.8391L134.74 45.6374C135.959 44.5126 136.908 43.1407 137.589 41.53L136.588 41.1066ZM134.003 44.8391C132.901 45.856 131.583 46.6519 130.04 47.2233L130.418 48.2421C132.082 47.6257 133.525 46.7586 134.74 45.6374L134.003 44.8391ZM130.046 47.2214C128.537 47.7622 126.877 48.0359 125.062 48.0359V49.1223C126.988 49.1223 128.773 48.8318 130.412 48.2441L130.046 47.2214ZM125.062 48.0359C121.848 48.0359 119.367 47.2834 117.561 45.8386L116.883 46.6869C118.937 48.3305 121.683 49.1223 125.062 49.1223V48.0359ZM117.561 45.8386C115.795 44.4253 114.806 42.1508 114.691 38.8937L113.605 38.9321C113.728 42.3864 114.789 45.0118 116.883 46.6869L117.561 45.8386ZM114.148 39.4561H120.206V38.3697H114.148V39.4561ZM119.663 38.9233C119.695 40.5871 120.247 41.9077 121.393 42.7758L122.049 41.9098C121.235 41.2931 120.777 40.3271 120.749 38.9024L119.663 38.9233ZM121.408 42.7866C122.528 43.5774 123.906 43.9551 125.507 43.9551V42.8687C124.079 42.8687 122.933 42.5337 122.034 41.899L121.408 42.7866ZM125.507 43.9551C126.439 43.9551 127.316 43.778 128.131 43.4191L127.694 42.4247C127.025 42.7192 126.298 42.8687 125.507 42.8687V43.9551ZM128.124 43.4222C128.957 43.0697 129.685 42.5859 130.301 41.9697L129.533 41.2014C129.021 41.7137 128.412 42.1208 127.701 42.4216L128.124 43.4222ZM130.311 41.9597C130.924 41.3139 131.406 40.5578 131.757 39.6969L130.75 39.287C130.448 40.0297 130.038 40.6693 129.523 41.2114L130.311 41.9597ZM131.757 39.6969C132.112 38.824 132.287 37.8775 132.287 36.8638H131.2C131.2 37.7507 131.048 38.5564 130.75 39.287L131.757 39.6969ZM132.287 36.8638C132.287 34.9952 131.803 33.5031 130.734 32.5026L129.991 33.2961C130.763 34.018 131.2 35.1689 131.2 36.8638H132.287ZM130.74 32.509C129.689 31.4918 128.23 31.0198 126.443 31.0198V32.1062C128.041 32.1062 129.195 32.5252 129.985 33.2897L130.74 32.509ZM126.443 31.0198C125.275 31.0198 124.236 31.2408 123.342 31.7044L123.842 32.6689C124.551 32.301 125.412 32.1062 126.443 32.1062V31.0198ZM123.342 31.7044C122.443 32.1703 121.667 32.9081 121.004 33.8865L121.903 34.4958C122.488 33.633 123.137 33.0344 123.842 32.6689L123.342 31.7044ZM121.454 33.6479H115.752V34.7344H121.454V33.6479ZM116.27 34.3533L121.705 16.9809L120.668 16.6565L115.233 34.029L116.27 34.3533ZM121.186 17.3619H139.628V16.2755H121.186V17.3619ZM139.097 16.7052L137.983 21.9169L139.045 22.144L140.159 16.9322L139.097 16.7052Z" fill="#B4B4B4"/>
<path d="M92.224 63.8254C92.224 64.2894 92.284 64.7494 92.404 65.2054C92.532 65.6534 92.724 66.0574 92.98 66.4174C93.244 66.7694 93.58 67.0534 93.988 67.2694C94.396 67.4854 94.884 67.5934 95.452 67.5934C96.02 67.5934 96.504 67.4854 96.904 67.2694C97.312 67.0534 97.644 66.7694 97.9 66.4174C98.164 66.0574 98.356 65.6534 98.476 65.2054C98.604 64.7494 98.668 64.2894 98.668 63.8254C98.668 63.3534 98.604 62.8934 98.476 62.4454C98.356 61.9974 98.164 61.5974 97.9 61.2454C97.644 60.8854 97.312 60.5974 96.904 60.3814C96.504 60.1654 96.02 60.0574 95.452 60.0574C94.884 60.0574 94.396 60.1654 93.988 60.3814C93.58 60.5974 93.244 60.8854 92.98 61.2454C92.724 61.5974 92.532 61.9974 92.404 62.4454C92.284 62.8934 92.224 63.3534 92.224 63.8254ZM91.408 63.8254C91.408 63.2334 91.492 62.6694 91.66 62.1334C91.828 61.5974 92.08 61.1254 92.416 60.7174C92.752 60.3014 93.172 59.9734 93.676 59.7334C94.188 59.4854 94.78 59.3614 95.452 59.3614C96.124 59.3614 96.712 59.4854 97.216 59.7334C97.72 59.9734 98.14 60.3014 98.476 60.7174C98.812 61.1254 99.064 61.5974 99.232 62.1334C99.4 62.6694 99.484 63.2334 99.484 63.8254C99.484 64.4174 99.4 64.9814 99.232 65.5174C99.064 66.0534 98.812 66.5254 98.476 66.9334C98.14 67.3414 97.72 67.6694 97.216 67.9174C96.712 68.1574 96.124 68.2774 95.452 68.2774C94.78 68.2774 94.188 68.1574 93.676 67.9174C93.172 67.6694 92.752 67.3414 92.416 66.9334C92.08 66.5254 91.828 66.0534 91.66 65.5174C91.492 64.9814 91.408 64.4174 91.408 63.8254ZM108.223 62.1334C108.151 61.8054 108.031 61.5134 107.863 61.2574C107.703 60.9934 107.503 60.7734 107.263 60.5974C107.031 60.4214 106.771 60.2894 106.483 60.2014C106.203 60.1054 105.907 60.0574 105.595 60.0574C105.027 60.0574 104.539 60.1654 104.131 60.3814C103.723 60.5974 103.387 60.8854 103.123 61.2454C102.867 61.5974 102.675 61.9974 102.547 62.4454C102.427 62.8934 102.367 63.3534 102.367 63.8254C102.367 64.2894 102.427 64.7494 102.547 65.2054C102.675 65.6534 102.867 66.0574 103.123 66.4174C103.387 66.7694 103.723 67.0534 104.131 67.2694C104.539 67.4854 105.027 67.5934 105.595 67.5934C105.995 67.5934 106.355 67.5214 106.675 67.3774C106.995 67.2334 107.271 67.0374 107.503 66.7894C107.735 66.5414 107.923 66.2534 108.067 65.9254C108.211 65.5894 108.303 65.2294 108.343 64.8454H109.159C109.103 65.3734 108.979 65.8494 108.787 66.2734C108.595 66.6974 108.347 67.0574 108.043 67.3534C107.739 67.6494 107.379 67.8774 106.963 68.0374C106.555 68.1974 106.099 68.2774 105.595 68.2774C104.923 68.2774 104.331 68.1574 103.819 67.9174C103.315 67.6694 102.895 67.3414 102.559 66.9334C102.223 66.5254 101.971 66.0534 101.803 65.5174C101.635 64.9814 101.551 64.4174 101.551 63.8254C101.551 63.2334 101.635 62.6694 101.803 62.1334C101.971 61.5974 102.223 61.1254 102.559 60.7174C102.895 60.3014 103.315 59.9734 103.819 59.7334C104.331 59.4854 104.923 59.3614 105.595 59.3614C106.003 59.3614 106.399 59.4214 106.783 59.5414C107.175 59.6614 107.527 59.8414 107.839 60.0814C108.159 60.3134 108.423 60.6014 108.631 60.9454C108.847 61.2894 108.983 61.6854 109.039 62.1334H108.223ZM110.696 59.5414H117.476V60.2374H114.488V68.1094H113.672V60.2374H110.696V59.5414ZM119.836 63.8254C119.836 64.2894 119.896 64.7494 120.016 65.2054C120.144 65.6534 120.336 66.0574 120.592 66.4174C120.856 66.7694 121.192 67.0534 121.6 67.2694C122.008 67.4854 122.496 67.5934 123.064 67.5934C123.632 67.5934 124.116 67.4854 124.516 67.2694C124.924 67.0534 125.256 66.7694 125.512 66.4174C125.776 66.0574 125.968 65.6534 126.088 65.2054C126.216 64.7494 126.28 64.2894 126.28 63.8254C126.28 63.3534 126.216 62.8934 126.088 62.4454C125.968 61.9974 125.776 61.5974 125.512 61.2454C125.256 60.8854 124.924 60.5974 124.516 60.3814C124.116 60.1654 123.632 60.0574 123.064 60.0574C122.496 60.0574 122.008 60.1654 121.6 60.3814C121.192 60.5974 120.856 60.8854 120.592 61.2454C120.336 61.5974 120.144 61.9974 120.016 62.4454C119.896 62.8934 119.836 63.3534 119.836 63.8254ZM119.02 63.8254C119.02 63.2334 119.104 62.6694 119.272 62.1334C119.44 61.5974 119.692 61.1254 120.028 60.7174C120.364 60.3014 120.784 59.9734 121.288 59.7334C121.8 59.4854 122.392 59.3614 123.064 59.3614C123.736 59.3614 124.324 59.4854 124.828 59.7334C125.332 59.9734 125.752 60.3014 126.088 60.7174C126.424 61.1254 126.676 61.5974 126.844 62.1334C127.012 62.6694 127.096 63.2334 127.096 63.8254C127.096 64.4174 127.012 64.9814 126.844 65.5174C126.676 66.0534 126.424 66.5254 126.088 66.9334C125.752 67.3414 125.332 67.6694 124.828 67.9174C124.324 68.1574 123.736 68.2774 123.064 68.2774C122.392 68.2774 121.8 68.1574 121.288 67.9174C120.784 67.6694 120.364 67.3414 120.028 66.9334C119.692 66.5254 119.44 66.0534 119.272 65.5174C119.104 64.9814 119.02 64.4174 119.02 63.8254ZM130.386 63.2974H133.194C133.522 63.2974 133.806 63.2614 134.046 63.1894C134.286 63.1094 134.486 63.0054 134.646 62.8774C134.806 62.7414 134.926 62.5854 135.006 62.4094C135.086 62.2334 135.126 62.0454 135.126 61.8454C135.126 60.7734 134.482 60.2374 133.194 60.2374H130.386V63.2974ZM129.57 59.5414H133.194C133.554 59.5414 133.898 59.5774 134.226 59.6494C134.562 59.7134 134.854 59.8294 135.102 59.9974C135.358 60.1574 135.562 60.3734 135.714 60.6454C135.866 60.9094 135.942 61.2414 135.942 61.6414C135.942 61.8654 135.906 62.0854 135.834 62.3014C135.762 62.5094 135.658 62.7014 135.522 62.8774C135.394 63.0454 135.238 63.1894 135.054 63.3094C134.878 63.4294 134.678 63.5134 134.454 63.5614V63.5854C135.006 63.6574 135.446 63.8854 135.774 64.2694C136.102 64.6454 136.266 65.1134 136.266 65.6734C136.266 65.8094 136.254 65.9654 136.23 66.1414C136.206 66.3094 136.158 66.4854 136.086 66.6694C136.014 66.8454 135.91 67.0214 135.774 67.1974C135.638 67.3734 135.454 67.5294 135.222 67.6654C134.998 67.7934 134.718 67.9014 134.382 67.9894C134.054 68.0694 133.658 68.1094 133.194 68.1094H129.57V59.5414ZM130.386 67.4134H133.194C133.498 67.4134 133.786 67.3894 134.058 67.3414C134.33 67.2854 134.57 67.1894 134.778 67.0534C134.986 66.9174 135.15 66.7374 135.27 66.5134C135.39 66.2814 135.45 65.9934 135.45 65.6494C135.45 65.0974 135.254 64.6854 134.862 64.4134C134.478 64.1334 133.922 63.9934 133.194 63.9934H130.386V67.4134ZM138.774 59.5414H144.69V60.2374H139.59V63.3334H144.366V64.0294H139.59V67.4134H144.75V68.1094H138.774V59.5414ZM147.903 63.6094H150.951C151.199 63.6094 151.435 63.5734 151.659 63.5014C151.883 63.4214 152.079 63.3094 152.247 63.1654C152.415 63.0214 152.547 62.8494 152.643 62.6494C152.747 62.4414 152.799 62.2054 152.799 61.9414C152.799 61.4134 152.647 60.9974 152.343 60.6934C152.039 60.3894 151.575 60.2374 150.951 60.2374H147.903V63.6094ZM147.087 59.5414H151.011C151.363 59.5414 151.695 59.5854 152.007 59.6734C152.327 59.7614 152.603 59.8974 152.835 60.0814C153.075 60.2574 153.263 60.4894 153.399 60.7774C153.543 61.0574 153.615 61.3894 153.615 61.7734C153.615 62.3174 153.475 62.7894 153.195 63.1894C152.915 63.5894 152.499 63.8454 151.947 63.9574V63.9814C152.227 64.0214 152.459 64.0974 152.643 64.2094C152.827 64.3134 152.975 64.4494 153.087 64.6174C153.207 64.7854 153.291 64.9814 153.339 65.2054C153.395 65.4214 153.431 65.6574 153.447 65.9134C153.455 66.0574 153.463 66.2334 153.471 66.4414C153.479 66.6494 153.495 66.8614 153.519 67.0774C153.543 67.2854 153.579 67.4854 153.627 67.6774C153.683 67.8614 153.755 68.0054 153.843 68.1094H152.943C152.895 68.0294 152.855 67.9334 152.823 67.8214C152.799 67.7014 152.779 67.5814 152.763 67.4614C152.755 67.3334 152.747 67.2094 152.739 67.0894C152.731 66.9694 152.723 66.8654 152.715 66.7774C152.699 66.4734 152.671 66.1734 152.631 65.8774C152.599 65.5734 152.523 65.3054 152.403 65.0734C152.291 64.8334 152.123 64.6414 151.899 64.4974C151.683 64.3534 151.383 64.2894 150.999 64.3054H147.903V68.1094H147.087V59.5414Z" fill="white"/>
<path d="M92.404 65.2054L92.2583 65.2437L92.2592 65.2467L92.404 65.2054ZM92.98 66.4174L92.8572 66.5047L92.8595 66.5077L92.98 66.4174ZM93.988 67.2694L93.9175 67.4025L93.988 67.2694ZM96.904 67.2694L96.8335 67.1363L96.8324 67.1369L96.904 67.2694ZM97.9 66.4174L97.7786 66.3283L97.7782 66.3288L97.9 66.4174ZM98.476 65.2054L98.331 65.1647L98.3305 65.1664L98.476 65.2054ZM98.476 62.4454L98.3305 62.4843L98.3312 62.4867L98.476 62.4454ZM97.9 61.2454L97.7772 61.3327L97.7795 61.3357L97.9 61.2454ZM96.904 60.3814L96.8324 60.5139L96.8335 60.5145L96.904 60.3814ZM93.988 60.3814L93.9175 60.2483L93.988 60.3814ZM92.98 61.2454L92.8586 61.1563L92.8582 61.1568L92.98 61.2454ZM92.404 62.4454L92.2592 62.404L92.2585 62.4064L92.404 62.4454ZM91.66 62.1334L91.5163 62.0883L91.66 62.1334ZM92.416 60.7174L92.5323 60.8131L92.5332 60.812L92.416 60.7174ZM93.676 59.7334L93.7407 59.8693L93.7416 59.8689L93.676 59.7334ZM97.216 59.7334L97.1495 59.8685L97.1513 59.8693L97.216 59.7334ZM98.476 60.7174L98.3588 60.812L98.3598 60.8131L98.476 60.7174ZM99.232 62.1334L99.3757 62.0883L99.232 62.1334ZM99.232 65.5174L99.3757 65.5624L99.232 65.5174ZM98.476 66.9334L98.3598 66.8376L98.476 66.9334ZM97.216 67.9174L97.2808 68.0534L97.2825 68.0525L97.216 67.9174ZM93.676 67.9174L93.6095 68.0525L93.6121 68.0537L93.676 67.9174ZM92.416 66.9334L92.5322 66.8376L92.416 66.9334ZM91.66 65.5174L91.5163 65.5624L91.66 65.5174ZM92.0734 63.8254C92.0734 64.3025 92.1351 64.7754 92.2584 65.2437L92.5496 65.167C92.4329 64.7234 92.3746 64.2762 92.3746 63.8254H92.0734ZM92.2592 65.2467C92.3916 65.7103 92.5908 66.13 92.8573 66.5046L93.1027 66.3301C92.8572 65.9848 92.6724 65.5965 92.5488 65.164L92.2592 65.2467ZM92.8595 66.5077C93.1375 66.8784 93.4909 67.1766 93.9175 67.4025L94.0585 67.1363C93.6691 66.9301 93.3505 66.6604 93.1005 66.327L92.8595 66.5077ZM93.9175 67.4025C94.3517 67.6323 94.865 67.744 95.452 67.744V67.4428C94.903 67.4428 94.4403 67.3384 94.0585 67.1363L93.9175 67.4025ZM95.452 67.744C96.0389 67.744 96.5487 67.6324 96.9756 67.4019L96.8324 67.1369C96.4593 67.3384 96.0011 67.4428 95.452 67.4428V67.744ZM96.9745 67.4025C97.4015 67.1764 97.7515 66.8776 98.0218 66.506L97.7782 66.3288C97.5365 66.6611 97.2225 66.9303 96.8335 67.1363L96.9745 67.4025ZM98.0214 66.5064C98.2969 66.1308 98.4968 65.7097 98.6215 65.2443L98.3305 65.1664C98.2152 65.5971 98.0311 65.984 97.7786 66.3283L98.0214 66.5064ZM98.621 65.2461C98.7526 64.7771 98.8186 64.3034 98.8186 63.8254H98.5174C98.5174 64.2753 98.4554 64.7216 98.331 65.1647L98.621 65.2461ZM98.8186 63.8254C98.8186 63.3396 98.7527 62.8656 98.6208 62.404L98.3312 62.4867C98.4553 62.9211 98.5174 63.3672 98.5174 63.8254H98.8186ZM98.6215 62.4064C98.4968 61.9409 98.2966 61.5232 98.0205 61.155L97.7795 61.3357C98.0314 61.6715 98.2152 62.0539 98.3305 62.4843L98.6215 62.4064ZM98.0227 61.1581C97.7525 60.7781 97.4023 60.4748 96.9745 60.2483L96.8335 60.5145C97.2217 60.72 97.5355 60.9927 97.7773 61.3326L98.0227 61.1581ZM96.9756 60.2489C96.5487 60.0184 96.0389 59.9068 95.452 59.9068V60.208C96.0011 60.208 96.4593 60.3124 96.8324 60.5139L96.9756 60.2489ZM95.452 59.9068C94.865 59.9068 94.3517 60.0184 93.9175 60.2483L94.0585 60.5145C94.4403 60.3123 94.903 60.208 95.452 60.208V59.9068ZM93.9175 60.2483C93.4901 60.4745 93.1365 60.7773 92.8586 61.1563L93.1014 61.3344C93.3515 60.9934 93.6699 60.7202 94.0585 60.5145L93.9175 60.2483ZM92.8582 61.1568C92.5911 61.524 92.3917 61.9402 92.2592 62.404L92.5488 62.4867C92.6723 62.0545 92.8569 61.6707 93.1018 61.334L92.8582 61.1568ZM92.2585 62.4064C92.1351 62.8673 92.0734 63.3405 92.0734 63.8254H92.3746C92.3746 63.3663 92.4329 62.9194 92.5495 62.4843L92.2585 62.4064ZM91.5586 63.8254C91.5586 63.2478 91.6405 62.6991 91.8037 62.1784L91.5163 62.0883C91.3435 62.6397 91.2574 63.2189 91.2574 63.8254H91.5586ZM91.8037 62.1784C91.9663 61.6597 92.2093 61.2052 92.5322 60.8131L92.2998 60.6216C91.9507 61.0455 91.6897 61.535 91.5163 62.0883L91.8037 62.1784ZM92.5332 60.812C92.8544 60.4143 93.2562 60.1001 93.7407 59.8693L93.6113 59.5974C93.0878 59.8467 92.6496 60.1884 92.2988 60.6227L92.5332 60.812ZM93.7416 59.8689C94.2298 59.6325 94.7987 59.512 95.452 59.512V59.2108C94.7614 59.2108 94.1462 59.3383 93.6104 59.5978L93.7416 59.8689ZM95.452 59.512C96.1054 59.512 96.6699 59.6325 97.1495 59.8685L97.2825 59.5983C96.7541 59.3383 96.1426 59.2108 95.452 59.2108V59.512ZM97.1513 59.8693C97.6358 60.1001 98.0376 60.4143 98.3588 60.812L98.5932 60.6227C98.2424 60.1884 97.8042 59.8467 97.2807 59.5974L97.1513 59.8693ZM98.3598 60.8131C98.6827 61.2052 98.9257 61.6597 99.0883 62.1784L99.3757 62.0883C99.2023 61.535 98.9413 61.0455 98.5922 60.6216L98.3598 60.8131ZM99.0883 62.1784C99.2515 62.6991 99.3334 63.2478 99.3334 63.8254H99.6346C99.6346 63.2189 99.5485 62.6397 99.3757 62.0883L99.0883 62.1784ZM99.3334 63.8254C99.3334 64.4029 99.2515 64.9517 99.0883 65.4723L99.3757 65.5624C99.5485 65.0111 99.6346 64.4318 99.6346 63.8254H99.3334ZM99.0883 65.4723C98.9257 65.991 98.6827 66.4455 98.3598 66.8376L98.5922 67.0291C98.9413 66.6052 99.2023 66.1157 99.3757 65.5624L99.0883 65.4723ZM98.3598 66.8376C98.0382 67.2281 97.6355 67.5431 97.1495 67.7823L97.2825 68.0525C97.8045 67.7957 98.2418 67.4546 98.5922 67.0291L98.3598 66.8376ZM97.1513 67.7814C96.6712 68.01 96.1061 68.1268 95.452 68.1268V68.428C96.1419 68.428 96.7528 68.3047 97.2807 68.0533L97.1513 67.7814ZM95.452 68.1268C94.798 68.1268 94.2285 68.01 93.7399 67.781L93.6121 68.0537C94.1475 68.3047 94.762 68.428 95.452 68.428V68.1268ZM93.7425 67.7823C93.2565 67.5431 92.8538 67.2281 92.5322 66.8376L92.2998 67.0291C92.6502 67.4546 93.0875 67.7957 93.6095 68.0525L93.7425 67.7823ZM92.5322 66.8376C92.2093 66.4455 91.9663 65.991 91.8037 65.4723L91.5163 65.5624C91.6897 66.1157 91.9507 66.6052 92.2998 67.0291L92.5322 66.8376ZM91.8037 65.4723C91.6405 64.9517 91.5586 64.4029 91.5586 63.8254H91.2574C91.2574 64.4318 91.3435 65.0111 91.5163 65.5624L91.8037 65.4723ZM108.223 62.1334L108.075 62.1657L108.101 62.284H108.223V62.1334ZM107.863 61.2574L107.734 61.3355L107.737 61.34L107.863 61.2574ZM107.263 60.5974L107.172 60.7174L107.173 60.7188L107.263 60.5974ZM106.483 60.2014L106.434 60.3439L106.439 60.3454L106.483 60.2014ZM104.131 60.3814L104.06 60.2483L104.131 60.3814ZM103.123 61.2454L103.001 61.1563L103.001 61.1568L103.123 61.2454ZM102.547 62.4454L102.402 62.404L102.401 62.4064L102.547 62.4454ZM102.547 65.2054L102.401 65.2437L102.402 65.2467L102.547 65.2054ZM103.123 66.4174L103 66.5047L103.002 66.5077L103.123 66.4174ZM104.131 67.2694L104.201 67.1363L104.131 67.2694ZM106.675 67.3774L106.736 67.5147L106.675 67.3774ZM107.503 66.7894L107.613 66.8923L107.503 66.7894ZM108.067 65.9254L108.204 65.9859L108.205 65.9847L108.067 65.9254ZM108.343 64.8454V64.6948H108.207L108.193 64.8298L108.343 64.8454ZM109.159 64.8454L109.308 64.8613L109.326 64.6948H109.159V64.8454ZM108.787 66.2734L108.649 66.2113L108.787 66.2734ZM108.043 67.3534L108.148 67.4613L108.043 67.3534ZM106.963 68.0374L106.908 67.8968L106.908 67.8972L106.963 68.0374ZM103.819 67.9174L103.752 68.0525L103.755 68.0537L103.819 67.9174ZM102.559 66.9334L102.675 66.8376L102.559 66.9334ZM101.803 65.5174L101.659 65.5624L101.803 65.5174ZM101.803 62.1334L101.659 62.0883L101.803 62.1334ZM102.559 60.7174L102.675 60.8131L102.676 60.812L102.559 60.7174ZM103.819 59.7334L103.883 59.8693L103.884 59.8689L103.819 59.7334ZM106.783 59.5414L106.738 59.6851L106.738 59.6854L106.783 59.5414ZM107.839 60.0814L107.747 60.2008L107.75 60.2033L107.839 60.0814ZM108.631 60.9454L108.502 61.0233L108.503 61.0255L108.631 60.9454ZM109.039 62.1334V62.284H109.209L109.188 62.1147L109.039 62.1334ZM108.37 62.1011C108.294 61.7569 108.167 61.4475 107.988 61.1747L107.737 61.34C107.894 61.5792 108.007 61.8539 108.075 62.1657L108.37 62.1011ZM107.991 61.1793C107.821 60.899 107.608 60.6641 107.352 60.4759L107.173 60.7188C107.397 60.8827 107.584 61.0877 107.734 61.3354L107.991 61.1793ZM107.354 60.4774C107.107 60.2903 106.831 60.1504 106.527 60.0574L106.439 60.3454C106.71 60.4284 106.954 60.5524 107.172 60.7174L107.354 60.4774ZM106.531 60.0589C106.235 59.9572 105.922 59.9068 105.595 59.9068V60.208C105.891 60.208 106.17 60.2535 106.434 60.3438L106.531 60.0589ZM105.595 59.9068C105.008 59.9068 104.494 60.0184 104.06 60.2483L104.201 60.5145C104.583 60.3123 105.046 60.208 105.595 60.208V59.9068ZM104.06 60.2483C103.633 60.4745 103.279 60.7773 103.001 61.1563L103.244 61.3344C103.494 60.9934 103.812 60.7202 104.201 60.5145L104.06 60.2483ZM103.001 61.1568C102.734 61.524 102.534 61.9402 102.402 62.404L102.691 62.4867C102.815 62.0545 102.999 61.6707 103.244 61.334L103.001 61.1568ZM102.401 62.4064C102.278 62.8673 102.216 63.3405 102.216 63.8254H102.517C102.517 63.3663 102.575 62.9194 102.692 62.4843L102.401 62.4064ZM102.216 63.8254C102.216 64.3025 102.278 64.7754 102.401 65.2437L102.692 65.167C102.575 64.7234 102.517 64.2762 102.517 63.8254H102.216ZM102.402 65.2467C102.534 65.7103 102.733 66.13 103 66.5046L103.245 66.3301C103 65.9848 102.815 65.5965 102.691 65.164L102.402 65.2467ZM103.002 66.5077C103.28 66.8784 103.633 67.1766 104.06 67.4025L104.201 67.1363C103.812 66.9301 103.493 66.6604 103.243 66.327L103.002 66.5077ZM104.06 67.4025C104.494 67.6323 105.008 67.744 105.595 67.744V67.4428C105.046 67.4428 104.583 67.3384 104.201 67.1363L104.06 67.4025ZM105.595 67.744C106.013 67.744 106.394 67.6686 106.736 67.5147L106.613 67.24C106.315 67.3742 105.976 67.4428 105.595 67.4428V67.744ZM106.736 67.5147C107.074 67.3628 107.366 67.1553 107.613 66.8923L107.393 66.6865C107.175 66.9194 106.915 67.1039 106.613 67.24L106.736 67.5147ZM107.613 66.8923C107.857 66.6312 108.054 66.3286 108.204 65.9859L107.929 65.8648C107.791 66.1781 107.612 66.4516 107.393 66.6865L107.613 66.8923ZM108.205 65.9847C108.355 65.634 108.451 65.2592 108.492 64.861L108.193 64.8298C108.154 65.1996 108.066 65.5447 107.928 65.8661L108.205 65.9847ZM108.343 64.996H109.159V64.6948H108.343V64.996ZM109.009 64.8295C108.954 65.3437 108.834 65.8038 108.649 66.2113L108.924 66.3355C109.123 65.895 109.251 65.403 109.308 64.8613L109.009 64.8295ZM108.649 66.2113C108.464 66.6198 108.227 66.9638 107.937 67.2455L108.148 67.4613C108.466 67.1509 108.725 66.775 108.924 66.3355L108.649 66.2113ZM107.937 67.2455C107.649 67.5265 107.306 67.7438 106.908 67.8968L107.017 68.1779C107.451 68.011 107.828 67.7722 108.148 67.4613L107.937 67.2455ZM106.908 67.8972C106.519 68.0494 106.083 68.1268 105.595 68.1268V68.428C106.115 68.428 106.59 68.3454 107.018 68.1776L106.908 67.8972ZM105.595 68.1268C104.941 68.1268 104.371 68.01 103.882 67.781L103.755 68.0537C104.29 68.3047 104.905 68.428 105.595 68.428V68.1268ZM103.885 67.7823C103.399 67.5431 102.996 67.2281 102.675 66.8376L102.442 67.0291C102.793 67.4546 103.23 67.7957 103.752 68.0525L103.885 67.7823ZM102.675 66.8376C102.352 66.4455 102.109 65.991 101.946 65.4723L101.659 65.5624C101.832 66.1157 102.093 66.6052 102.442 67.0291L102.675 66.8376ZM101.946 65.4723C101.783 64.9517 101.701 64.4029 101.701 63.8254H101.4C101.4 64.4318 101.486 65.0111 101.659 65.5624L101.946 65.4723ZM101.701 63.8254C101.701 63.2478 101.783 62.6991 101.946 62.1784L101.659 62.0883C101.486 62.6397 101.4 63.2189 101.4 63.8254H101.701ZM101.946 62.1784C102.109 61.6597 102.352 61.2052 102.675 60.8131L102.442 60.6216C102.093 61.0455 101.832 61.535 101.659 62.0883L101.946 62.1784ZM102.676 60.812C102.997 60.4143 103.399 60.1001 103.883 59.8693L103.754 59.5974C103.23 59.8467 102.792 60.1884 102.441 60.6227L102.676 60.812ZM103.884 59.8689C104.372 59.6325 104.941 59.512 105.595 59.512V59.2108C104.904 59.2108 104.289 59.3383 103.753 59.5978L103.884 59.8689ZM105.595 59.512C105.988 59.512 106.368 59.5697 106.738 59.6851L106.827 59.3976C106.429 59.273 106.018 59.2108 105.595 59.2108V59.512ZM106.738 59.6854C107.114 59.8003 107.45 59.9722 107.747 60.2007L107.93 59.962C107.603 59.7105 107.235 59.5224 106.827 59.3974L106.738 59.6854ZM107.75 60.2033C108.054 60.4233 108.304 60.6962 108.502 61.0233L108.759 60.8675C108.541 60.5065 108.264 60.2035 107.927 59.9595L107.75 60.2033ZM108.503 61.0255C108.706 61.3488 108.836 61.7234 108.889 62.1521L109.188 62.1147C109.13 61.6473 108.987 61.2299 108.758 60.8653L108.503 61.0255ZM109.039 61.9828H108.223V62.284H109.039V61.9828ZM110.696 59.5414V59.3908H110.545V59.5414H110.696ZM117.476 59.5414H117.626V59.3908H117.476V59.5414ZM117.476 60.2374V60.388H117.626V60.2374H117.476ZM114.488 60.2374V60.0868H114.337V60.2374H114.488ZM114.488 68.1094V68.26H114.638V68.1094H114.488ZM113.672 68.1094H113.521V68.26H113.672V68.1094ZM113.672 60.2374H113.822V60.0868H113.672V60.2374ZM110.696 60.2374H110.545V60.388H110.696V60.2374ZM110.696 59.692H117.476V59.3908H110.696V59.692ZM117.325 59.5414V60.2374H117.626V59.5414H117.325ZM117.476 60.0868H114.488V60.388H117.476V60.0868ZM114.337 60.2374V68.1094H114.638V60.2374H114.337ZM114.488 67.9588H113.672V68.26H114.488V67.9588ZM113.822 68.1094V60.2374H113.521V68.1094H113.822ZM113.672 60.0868H110.696V60.388H113.672V60.0868ZM110.846 60.2374V59.5414H110.545V60.2374H110.846ZM120.016 65.2054L119.87 65.2437L119.871 65.2467L120.016 65.2054ZM120.592 66.4174L120.469 66.5047L120.471 66.5077L120.592 66.4174ZM121.6 67.2694L121.529 67.4025L121.6 67.2694ZM124.516 67.2694L124.445 67.1363L124.444 67.1369L124.516 67.2694ZM125.512 66.4174L125.39 66.3283L125.39 66.3288L125.512 66.4174ZM126.088 65.2054L125.943 65.1647L125.942 65.1664L126.088 65.2054ZM126.088 62.4454L125.942 62.4843L125.943 62.4867L126.088 62.4454ZM125.512 61.2454L125.389 61.3327L125.391 61.3357L125.512 61.2454ZM124.516 60.3814L124.444 60.5139L124.445 60.5145L124.516 60.3814ZM121.6 60.3814L121.529 60.2483H121.529L121.6 60.3814ZM120.592 61.2454L120.47 61.1563L120.47 61.1568L120.592 61.2454ZM120.016 62.4454L119.871 62.404L119.87 62.4064L120.016 62.4454ZM119.272 62.1334L119.128 62.0883L119.272 62.1334ZM120.028 60.7174L120.144 60.8131L120.145 60.812L120.028 60.7174ZM121.288 59.7334L121.352 59.8693L121.353 59.8689L121.288 59.7334ZM124.828 59.7334L124.761 59.8685L124.763 59.8693L124.828 59.7334ZM126.088 60.7174L125.971 60.812L125.971 60.8131L126.088 60.7174ZM126.844 62.1334L126.987 62.0883L126.844 62.1334ZM126.844 65.5174L126.987 65.5624L126.844 65.5174ZM126.088 66.9334L125.971 66.8376L126.088 66.9334ZM124.828 67.9174L124.892 68.0534L124.894 68.0525L124.828 67.9174ZM121.288 67.9174L121.221 68.0525L121.224 68.0537L121.288 67.9174ZM120.028 66.9334L120.144 66.8376L120.028 66.9334ZM119.272 65.5174L119.128 65.5624L119.272 65.5174ZM119.685 63.8254C119.685 64.3025 119.747 64.7754 119.87 65.2437L120.161 65.167C120.045 64.7234 119.986 64.2762 119.986 63.8254H119.685ZM119.871 65.2467C120.003 65.7103 120.203 66.13 120.469 66.5046L120.714 66.3301C120.469 65.9848 120.284 65.5965 120.161 65.164L119.871 65.2467ZM120.471 66.5077C120.749 66.8784 121.103 67.1766 121.529 67.4025L121.67 67.1363C121.281 66.9301 120.962 66.6604 120.712 66.327L120.471 66.5077ZM121.529 67.4025C121.963 67.6323 122.477 67.744 123.064 67.744V67.4428C122.515 67.4428 122.052 67.3384 121.67 67.1363L121.529 67.4025ZM123.064 67.744C123.651 67.744 124.16 67.6324 124.587 67.4019L124.444 67.1369C124.071 67.3384 123.613 67.4428 123.064 67.4428V67.744ZM124.586 67.4025C125.013 67.1764 125.363 66.8776 125.634 66.506L125.39 66.3288C125.148 66.6611 124.834 66.9303 124.445 67.1363L124.586 67.4025ZM125.633 66.5064C125.909 66.1308 126.109 65.7097 126.233 65.2443L125.942 65.1664C125.827 65.5971 125.643 65.984 125.39 66.3283L125.633 66.5064ZM126.233 65.2461C126.364 64.7771 126.43 64.3034 126.43 63.8254H126.129C126.129 64.2753 126.067 64.7216 125.943 65.1647L126.233 65.2461ZM126.43 63.8254C126.43 63.3396 126.364 62.8656 126.233 62.404L125.943 62.4867C126.067 62.9211 126.129 63.3672 126.129 63.8254H126.43ZM126.233 62.4064C126.108 61.9409 125.908 61.5232 125.632 61.155L125.391 61.3357C125.643 61.6715 125.827 62.0539 125.942 62.4843L126.233 62.4064ZM125.634 61.1581C125.364 60.7781 125.014 60.4748 124.586 60.2483L124.445 60.5145C124.833 60.72 125.147 60.9927 125.389 61.3326L125.634 61.1581ZM124.587 60.2489C124.16 60.0184 123.651 59.9068 123.064 59.9068V60.208C123.613 60.208 124.071 60.3124 124.444 60.5139L124.587 60.2489ZM123.064 59.9068C122.477 59.9068 121.963 60.0184 121.529 60.2483L121.67 60.5145C122.052 60.3123 122.515 60.208 123.064 60.208V59.9068ZM121.529 60.2483C121.102 60.4745 120.748 60.7773 120.47 61.1563L120.713 61.3344C120.963 60.9934 121.282 60.7202 121.67 60.5145L121.529 60.2483ZM120.47 61.1568C120.203 61.524 120.003 61.9402 119.871 62.404L120.161 62.4867C120.284 62.0545 120.469 61.6707 120.714 61.334L120.47 61.1568ZM119.87 62.4064C119.747 62.8673 119.685 63.3405 119.685 63.8254H119.986C119.986 63.3663 120.045 62.9194 120.161 62.4843L119.87 62.4064ZM119.17 63.8254C119.17 63.2478 119.252 62.6991 119.415 62.1784L119.128 62.0883C118.955 62.6397 118.869 63.2189 118.869 63.8254H119.17ZM119.415 62.1784C119.578 61.6597 119.821 61.2052 120.144 60.8131L119.911 60.6216C119.562 61.0455 119.301 61.535 119.128 62.0883L119.415 62.1784ZM120.145 60.812C120.466 60.4143 120.868 60.1001 121.352 59.8693L121.223 59.5974C120.7 59.8467 120.261 60.1884 119.911 60.6227L120.145 60.812ZM121.353 59.8689C121.842 59.6325 122.41 59.512 123.064 59.512V59.2108C122.373 59.2108 121.758 59.3383 121.222 59.5978L121.353 59.8689ZM123.064 59.512C123.717 59.512 124.282 59.6325 124.761 59.8685L124.894 59.5983C124.366 59.3383 123.754 59.2108 123.064 59.2108V59.512ZM124.763 59.8693C125.248 60.1001 125.649 60.4143 125.971 60.812L126.205 60.6227C125.854 60.1884 125.416 59.8467 124.892 59.5974L124.763 59.8693ZM125.971 60.8131C126.294 61.2052 126.537 61.6597 126.7 62.1784L126.987 62.0883C126.814 61.535 126.553 61.0455 126.204 60.6216L125.971 60.8131ZM126.7 62.1784C126.863 62.6991 126.945 63.2478 126.945 63.8254H127.246C127.246 63.2189 127.16 62.6397 126.987 62.0883L126.7 62.1784ZM126.945 63.8254C126.945 64.4029 126.863 64.9517 126.7 65.4723L126.987 65.5624C127.16 65.0111 127.246 64.4318 127.246 63.8254H126.945ZM126.7 65.4723C126.537 65.991 126.294 66.4455 125.971 66.8376L126.204 67.0291C126.553 66.6052 126.814 66.1157 126.987 65.5624L126.7 65.4723ZM125.971 66.8376C125.65 67.2281 125.247 67.5431 124.761 67.7823L124.894 68.0525C125.416 67.7957 125.854 67.4546 126.204 67.0291L125.971 66.8376ZM124.763 67.7814C124.283 68.01 123.718 68.1268 123.064 68.1268V68.428C123.754 68.428 124.365 68.3047 124.892 68.0533L124.763 67.7814ZM123.064 68.1268C122.41 68.1268 121.84 68.01 121.352 67.781L121.224 68.0537C121.759 68.3047 122.374 68.428 123.064 68.428V68.1268ZM121.354 67.7823C120.868 67.5431 120.466 67.2281 120.144 66.8376L119.911 67.0291C120.262 67.4546 120.699 67.7957 121.221 68.0525L121.354 67.7823ZM120.144 66.8376C119.821 66.4455 119.578 65.991 119.415 65.4723L119.128 65.5624C119.301 66.1157 119.562 66.6052 119.911 67.0291L120.144 66.8376ZM119.415 65.4723C119.252 64.9517 119.17 64.4029 119.17 63.8254H118.869C118.869 64.4318 118.955 65.0111 119.128 65.5624L119.415 65.4723ZM130.386 63.2974H130.236V63.448H130.386V63.2974ZM134.046 63.1894L134.09 63.3337L134.094 63.3322L134.046 63.1894ZM134.646 62.8774L134.74 62.995L134.744 62.9921L134.646 62.8774ZM135.006 62.4094L134.869 62.3471L135.006 62.4094ZM130.386 60.2374V60.0868H130.236V60.2374H130.386ZM129.57 59.5414V59.3908H129.42V59.5414H129.57ZM134.226 59.6494L134.194 59.7965L134.198 59.7973L134.226 59.6494ZM135.102 59.9974L135.018 60.1221L135.022 60.1251L135.102 59.9974ZM135.714 60.6454L135.583 60.7188L135.584 60.7205L135.714 60.6454ZM135.834 62.3014L135.977 62.3506L135.977 62.349L135.834 62.3014ZM135.522 62.8774L135.403 62.7853L135.402 62.7861L135.522 62.8774ZM135.054 63.3094L134.972 63.1832L134.969 63.1849L135.054 63.3094ZM134.454 63.5614L134.423 63.4141L134.304 63.4396V63.5614H134.454ZM134.454 63.5854H134.304V63.7176L134.435 63.7347L134.454 63.5854ZM135.774 64.2694L135.66 64.3672L135.661 64.3684L135.774 64.2694ZM136.23 66.1414L136.379 66.1627L136.379 66.1617L136.23 66.1414ZM136.086 66.6694L136.226 66.7264L136.226 66.7243L136.086 66.6694ZM135.774 67.1974L135.893 67.2895V67.2895L135.774 67.1974ZM135.222 67.6654L135.297 67.7961L135.298 67.7953L135.222 67.6654ZM134.382 67.9894L134.418 68.1357L134.42 68.1351L134.382 67.9894ZM129.57 68.1094H129.42V68.26H129.57V68.1094ZM130.386 67.4134H130.236V67.564H130.386V67.4134ZM134.058 67.3414L134.084 67.4897L134.089 67.4889L134.058 67.3414ZM134.778 67.0534L134.861 67.1794L134.778 67.0534ZM135.27 66.5134L135.403 66.5845L135.404 66.5826L135.27 66.5134ZM134.862 64.4134L134.773 64.5351L134.776 64.5371L134.862 64.4134ZM130.386 63.9934V63.8428H130.236V63.9934H130.386ZM130.386 63.448H133.194V63.1468H130.386V63.448ZM133.194 63.448C133.533 63.448 133.832 63.4109 134.09 63.3336L134.003 63.0451C133.781 63.1119 133.512 63.1468 133.194 63.1468V63.448ZM134.094 63.3322C134.347 63.2479 134.564 63.1363 134.74 62.995L134.552 62.7598C134.409 62.8744 134.226 62.9709 133.999 63.0465L134.094 63.3322ZM134.744 62.9921C134.919 62.843 135.053 62.6696 135.143 62.4717L134.869 62.3471C134.799 62.5012 134.693 62.6397 134.549 62.7626L134.744 62.9921ZM135.143 62.4717C135.233 62.2754 135.277 62.0661 135.277 61.8454H134.976C134.976 62.0246 134.94 62.1913 134.869 62.3471L135.143 62.4717ZM135.277 61.8454C135.277 61.2782 135.105 60.8279 134.74 60.5236C134.379 60.2238 133.855 60.0868 133.194 60.0868V60.388C133.821 60.388 134.263 60.519 134.547 60.7551C134.825 60.9869 134.976 61.3406 134.976 61.8454H135.277ZM133.194 60.0868H130.386V60.388H133.194V60.0868ZM130.236 60.2374V63.2974H130.537V60.2374H130.236ZM129.57 59.692H133.194V59.3908H129.57V59.692ZM133.194 59.692C133.544 59.692 133.877 59.727 134.194 59.7965L134.259 59.5023C133.919 59.4278 133.564 59.3908 133.194 59.3908V59.692ZM134.198 59.7973C134.517 59.858 134.789 59.9671 135.018 60.1221L135.187 59.8727C134.919 59.6917 134.608 59.5687 134.254 59.5014L134.198 59.7973ZM135.022 60.1251C135.256 60.2712 135.443 60.4682 135.583 60.7188L135.846 60.5719C135.682 60.2785 135.46 60.0436 135.182 59.8697L135.022 60.1251ZM135.584 60.7205C135.719 60.9556 135.792 61.2597 135.792 61.6414H136.093C136.093 61.223 136.013 60.8632 135.845 60.5702L135.584 60.7205ZM135.792 61.6414C135.792 61.8489 135.758 62.0529 135.691 62.2538L135.977 62.349C136.054 62.1179 136.093 61.8818 136.093 61.6414H135.792ZM135.692 62.2521C135.625 62.4445 135.529 62.6221 135.403 62.7853L135.641 62.9695C135.787 62.7807 135.899 62.5742 135.977 62.3506L135.692 62.2521ZM135.402 62.7861C135.285 62.9399 135.142 63.0722 134.972 63.1832L135.137 63.4355C135.334 63.3065 135.503 63.1509 135.642 62.9686L135.402 62.7861ZM134.969 63.1849C134.811 63.2932 134.629 63.3699 134.423 63.4141L134.486 63.7086C134.727 63.6569 134.946 63.5656 135.139 63.4338L134.969 63.1849ZM134.304 63.5614V63.5854H134.605V63.5614H134.304ZM134.435 63.7347C134.954 63.8024 135.359 64.0145 135.66 64.3672L135.889 64.1716C135.534 63.7562 135.059 63.5123 134.474 63.436L134.435 63.7347ZM135.661 64.3684C135.962 64.7136 136.116 65.145 136.116 65.6734H136.417C136.417 65.0817 136.243 64.5772 135.888 64.1704L135.661 64.3684ZM136.116 65.6734C136.116 65.8009 136.104 65.9499 136.081 66.121L136.379 66.1617C136.404 65.9809 136.417 65.8179 136.417 65.6734H136.116ZM136.081 66.1201C136.059 66.2749 136.014 66.4396 135.946 66.6145L136.226 66.7243C136.302 66.5312 136.353 66.3439 136.379 66.1627L136.081 66.1201ZM135.947 66.6124C135.881 66.7739 135.784 66.9383 135.655 67.1053L135.893 67.2895C136.036 67.1045 136.148 66.9168 136.226 66.7264L135.947 66.6124ZM135.655 67.1053C135.533 67.2632 135.365 67.4072 135.146 67.5355L135.298 67.7953C135.544 67.6515 135.743 67.4835 135.893 67.2895L135.655 67.1053ZM135.148 67.5346C134.938 67.6542 134.671 67.758 134.344 67.8437L134.42 68.1351C134.765 68.0448 135.058 67.9325 135.297 67.7961L135.148 67.5346ZM134.347 67.8431C134.034 67.9194 133.65 67.9588 133.194 67.9588V68.26C133.666 68.26 134.075 68.2194 134.418 68.1357L134.347 67.8431ZM133.194 67.9588H129.57V68.26H133.194V67.9588ZM129.721 68.1094V59.5414H129.42V68.1094H129.721ZM130.386 67.564H133.194V67.2628H130.386V67.564ZM133.194 67.564C133.506 67.564 133.803 67.5393 134.084 67.4897L134.032 67.1931C133.77 67.2394 133.49 67.2628 133.194 67.2628V67.564ZM134.089 67.4889C134.377 67.4295 134.635 67.3269 134.861 67.1794L134.696 66.9273C134.505 67.0518 134.284 67.1412 134.028 67.1939L134.089 67.4889ZM134.861 67.1794C135.09 67.0293 135.271 66.8302 135.403 66.5845L135.138 66.4423C135.029 66.6445 134.882 66.8055 134.696 66.9273L134.861 67.1794ZM135.404 66.5826C135.538 66.3235 135.601 66.0101 135.601 65.6494H135.3C135.3 65.9766 135.242 66.2393 135.136 66.4442L135.404 66.5826ZM135.601 65.6494C135.601 65.0569 135.387 64.5945 134.948 64.2896L134.776 64.5371C135.121 64.7762 135.3 65.1378 135.3 65.6494H135.601ZM134.951 64.2917C134.531 63.9853 133.938 63.8428 133.194 63.8428V64.144C133.906 64.144 134.426 64.2815 134.774 64.5351L134.951 64.2917ZM133.194 63.8428H130.386V64.144H133.194V63.8428ZM130.236 63.9934V67.4134H130.537V63.9934H130.236ZM138.774 59.5414V59.3908H138.624V59.5414H138.774ZM144.69 59.5414H144.841V59.3908H144.69V59.5414ZM144.69 60.2374V60.388H144.841V60.2374H144.69ZM139.59 60.2374V60.0868H139.44V60.2374H139.59ZM139.59 63.3334H139.44V63.484H139.59V63.3334ZM144.366 63.3334H144.517V63.1828H144.366V63.3334ZM144.366 64.0294V64.18H144.517V64.0294H144.366ZM139.59 64.0294V63.8788H139.44V64.0294H139.59ZM139.59 67.4134H139.44V67.564H139.59V67.4134ZM144.75 67.4134H144.901V67.2628H144.75V67.4134ZM144.75 68.1094V68.26H144.901V68.1094H144.75ZM138.774 68.1094H138.624V68.26H138.774V68.1094ZM138.774 59.692H144.69V59.3908H138.774V59.692ZM144.54 59.5414V60.2374H144.841V59.5414H144.54ZM144.69 60.0868H139.59V60.388H144.69V60.0868ZM139.44 60.2374V63.3334H139.741V60.2374H139.44ZM139.59 63.484H144.366V63.1828H139.59V63.484ZM144.216 63.3334V64.0294H144.517V63.3334H144.216ZM144.366 63.8788H139.59V64.18H144.366V63.8788ZM139.44 64.0294V67.4134H139.741V64.0294H139.44ZM139.59 67.564H144.75V67.2628H139.59V67.564ZM144.6 67.4134V68.1094H144.901V67.4134H144.6ZM144.75 67.9588H138.774V68.26H144.75V67.9588ZM138.925 68.1094V59.5414H138.624V68.1094H138.925ZM147.903 63.6094H147.753V63.76H147.903V63.6094ZM151.659 63.5014L151.706 63.6448L151.71 63.6432L151.659 63.5014ZM152.247 63.1654L152.149 63.051L152.247 63.1654ZM152.643 62.6494L152.509 62.582L152.508 62.5842L152.643 62.6494ZM152.343 60.6934L152.45 60.5869L152.343 60.6934ZM147.903 60.2374V60.0868H147.753V60.2374H147.903ZM147.087 59.5414V59.3908H146.937V59.5414H147.087ZM152.007 59.6734L151.967 59.8183L151.968 59.8186L152.007 59.6734ZM152.835 60.0814L152.742 60.1994L152.746 60.2028L152.835 60.0814ZM153.399 60.7774L153.263 60.8417L153.266 60.8462L153.399 60.7774ZM153.195 63.1894L153.072 63.103L153.195 63.1894ZM151.947 63.9574L151.917 63.8098L151.797 63.8343V63.9574H151.947ZM151.947 63.9814H151.797V64.112L151.926 64.1305L151.947 63.9814ZM152.643 64.2094L152.565 64.3381L152.569 64.3405L152.643 64.2094ZM153.087 64.6174L152.962 64.701L152.965 64.7049L153.087 64.6174ZM153.339 65.2054L153.192 65.237L153.194 65.2432L153.339 65.2054ZM153.447 65.9134L153.598 65.905L153.598 65.904L153.447 65.9134ZM153.471 66.4414L153.622 66.4356L153.471 66.4414ZM153.519 67.0774L153.37 67.094L153.37 67.0946L153.519 67.0774ZM153.627 67.6774L153.481 67.7139L153.483 67.7212L153.627 67.6774ZM153.843 68.1094V68.26H154.168L153.958 68.0121L153.843 68.1094ZM152.943 68.1094L152.814 68.1869L152.858 68.26H152.943V68.1094ZM152.823 67.8214L152.675 67.851L152.679 67.8627L152.823 67.8214ZM152.763 67.4614L152.613 67.4708L152.614 67.4813L152.763 67.4614ZM152.715 66.7774L152.565 66.7853L152.565 66.791L152.715 66.7774ZM152.631 65.8774L152.482 65.8931L152.482 65.8975L152.631 65.8774ZM152.403 65.0734L152.267 65.1371L152.27 65.1426L152.403 65.0734ZM151.899 64.4974L151.816 64.6227L151.818 64.6241L151.899 64.4974ZM150.999 64.3054V64.4561L151.006 64.4558L150.999 64.3054ZM147.903 64.3054V64.1548H147.753V64.3054H147.903ZM147.903 68.1094V68.26H148.054V68.1094H147.903ZM147.087 68.1094H146.937V68.26H147.087V68.1094ZM147.903 63.76H150.951V63.4588H147.903V63.76ZM150.951 63.76C151.214 63.76 151.466 63.7218 151.706 63.6447L151.613 63.358C151.405 63.425 151.185 63.4588 150.951 63.4588V63.76ZM151.71 63.6432C151.95 63.5575 152.162 63.4366 152.345 63.2797L152.149 63.051C151.996 63.1822 151.817 63.2853 151.609 63.3596L151.71 63.6432ZM152.345 63.2797C152.529 63.1221 152.674 62.9333 152.779 62.7145L152.508 62.5842C152.421 62.7654 152.302 62.9207 152.149 63.051L152.345 63.2797ZM152.778 62.7167C152.894 62.4851 152.95 62.2256 152.95 61.9414H152.649C152.649 62.1852 152.601 62.3976 152.509 62.582L152.778 62.7167ZM152.95 61.9414C152.95 61.3831 152.788 60.9253 152.45 60.5869L152.237 60.7999C152.507 61.0694 152.649 61.4436 152.649 61.9414H152.95ZM152.45 60.5869C152.107 60.244 151.597 60.0868 150.951 60.0868V60.388C151.554 60.388 151.972 60.5347 152.237 60.7999L152.45 60.5869ZM150.951 60.0868H147.903V60.388H150.951V60.0868ZM147.753 60.2374V63.6094H148.054V60.2374H147.753ZM147.087 59.692H151.011V59.3908H147.087V59.692ZM151.011 59.692C151.351 59.692 151.669 59.7344 151.967 59.8183L152.048 59.5284C151.722 59.4364 151.376 59.3908 151.011 59.3908V59.692ZM151.968 59.8186C152.27 59.9019 152.528 60.0294 152.742 60.1994L152.929 59.9634C152.679 59.7654 152.385 59.6209 152.047 59.5282L151.968 59.8186ZM152.746 60.2028C152.965 60.363 153.137 60.5747 153.263 60.8417L153.536 60.7131C153.39 60.404 153.186 60.1518 152.924 59.9599L152.746 60.2028ZM153.266 60.8462C153.396 61.1008 153.465 61.4081 153.465 61.7734H153.766C153.766 61.3706 153.69 61.014 153.533 60.7085L153.266 60.8462ZM153.465 61.7734C153.465 62.2902 153.332 62.7312 153.072 63.103L153.319 63.2757C153.619 62.8476 153.766 62.3446 153.766 61.7734H153.465ZM153.072 63.103C152.818 63.4665 152.438 63.7042 151.917 63.8098L151.977 64.105C152.561 63.9866 153.013 63.7122 153.319 63.2757L153.072 63.103ZM151.797 63.9574V63.9814H152.098V63.9574H151.797ZM151.926 64.1305C152.192 64.1684 152.403 64.2394 152.565 64.338L152.722 64.0807C152.516 63.9554 152.263 63.8743 151.969 63.8323L151.926 64.1305ZM152.569 64.3405C152.734 64.4334 152.864 64.5535 152.962 64.7009L153.213 64.5338C153.087 64.3453 152.921 64.1933 152.718 64.0783L152.569 64.3405ZM152.965 64.7049C153.072 64.8544 153.148 65.0309 153.192 65.2369L153.487 65.1738C153.435 64.9319 153.343 64.7164 153.21 64.5298L152.965 64.7049ZM153.194 65.2432C153.247 65.4486 153.282 65.675 153.297 65.9228L153.598 65.904C153.581 65.6398 153.544 65.3941 153.485 65.1676L153.194 65.2432ZM153.297 65.9217C153.305 66.0646 153.313 66.2397 153.321 66.4472L153.622 66.4356C153.614 66.2271 153.606 66.0502 153.598 65.905L153.297 65.9217ZM153.321 66.4472C153.329 66.6589 153.345 66.8746 153.37 67.094L153.669 67.0607C153.645 66.8482 153.63 66.6398 153.622 66.4356L153.321 66.4472ZM153.37 67.0946C153.395 67.3088 153.432 67.5152 153.481 67.7139L153.774 67.6409C153.727 67.4555 153.692 67.262 153.669 67.0601L153.37 67.0946ZM153.483 67.7212C153.543 67.9173 153.623 68.082 153.728 68.2067L153.958 68.0121C153.888 67.9288 153.824 67.8054 153.772 67.6335L153.483 67.7212ZM153.843 67.9588H152.943V68.26H153.843V67.9588ZM153.073 68.0319C153.033 67.9656 152.997 67.8823 152.968 67.78L152.679 67.8627C152.713 67.9844 152.758 68.0932 152.814 68.1869L153.073 68.0319ZM152.971 67.7918C152.948 67.675 152.928 67.5582 152.913 67.4415L152.614 67.4813C152.631 67.6045 152.651 67.7278 152.676 67.8509L152.971 67.7918ZM152.914 67.452C152.906 67.3238 152.898 67.1996 152.89 67.0794L152.589 67.0994C152.597 67.2192 152.605 67.343 152.613 67.4708L152.914 67.452ZM152.89 67.0794C152.882 66.9585 152.874 66.8533 152.865 66.7637L152.565 66.791C152.573 66.8775 152.581 66.9802 152.589 67.0994L152.89 67.0794ZM152.866 66.7695C152.85 66.4614 152.821 66.1574 152.781 65.8572L152.482 65.8975C152.522 66.1894 152.549 66.4853 152.565 66.7853L152.866 66.7695ZM152.781 65.8616C152.748 65.5421 152.667 65.2554 152.537 65.0042L152.27 65.1426C152.38 65.3553 152.451 65.6047 152.482 65.8931L152.781 65.8616ZM152.54 65.0097C152.416 64.7438 152.229 64.53 151.981 64.3707L151.818 64.6241C152.018 64.7528 152.167 64.923 152.267 65.1371L152.54 65.0097ZM151.983 64.3721C151.73 64.2037 151.394 64.1382 150.993 64.1549L151.006 64.4558C151.372 64.4406 151.636 64.503 151.816 64.6227L151.983 64.3721ZM150.999 64.1548H147.903V64.456H150.999V64.1548ZM147.753 64.3054V68.1094H148.054V64.3054H147.753ZM147.903 67.9588H147.087V68.26H147.903V67.9588ZM147.238 68.1094V59.5414H146.937V68.1094H147.238Z" fill="#B4B4B4"/>
<rect width="84" height="84" rx="4" fill="#242424"/>
<path d="M70.4711 48.2119H67.7241V34.2391H67.8289C67.948 34.2391 68.0622 34.1912 68.1464 34.1059C68.2307 34.0206 68.278 33.9049 68.278 33.7843C68.278 33.6682 68.2336 33.5567 68.154 33.4732C68.0744 33.3897 67.9658 33.3409 67.8513 33.3369C67.8932 33.086 67.8932 32.8297 67.8513 32.5788C67.8151 32.3292 67.7303 32.0895 67.6018 31.8734C67.4733 31.6573 67.3037 31.4693 67.1028 31.3203L65.5758 30.13V29.5462C65.5758 29.4255 65.5285 29.3098 65.4443 29.2245C65.3601 29.1392 65.2458 29.0913 65.1267 29.0913C65.0076 29.0913 64.8934 29.1392 64.8092 29.2245C64.7249 29.3098 64.6776 29.4255 64.6776 29.5462V30.1375L63.2255 31.2975C63.0231 31.445 62.8524 31.6326 62.7237 31.849C62.5951 32.0653 62.5111 32.3059 62.477 32.556C62.4302 32.8065 62.4302 33.0637 62.477 33.3142H62.3722C62.2531 33.3142 62.1389 33.3621 62.0546 33.4474C61.9704 33.5327 61.9231 33.6485 61.9231 33.7691C61.9231 33.8897 61.9704 34.0054 62.0546 34.0908C62.1389 34.1761 62.2531 34.224 62.3722 34.224H62.6117V36.5743H56.182V34.224H56.2943C56.4134 34.224 56.5276 34.1761 56.6118 34.0908C56.696 34.0054 56.7434 33.8897 56.7434 33.7691C56.7415 33.6523 56.6954 33.5408 56.6146 33.4575C56.5338 33.3743 56.4244 33.3257 56.3092 33.3218C56.3511 33.0708 56.3511 32.8146 56.3092 32.5636C56.2337 32.0604 55.9646 31.6079 55.5607 31.3051L54.0337 30.13V29.5462C54.0337 29.4255 53.9864 29.3098 53.9022 29.2245C53.818 29.1392 53.7037 29.0913 53.5846 29.0913C53.4655 29.0913 53.3513 29.1392 53.2671 29.2245C53.1828 29.3098 53.1355 29.4255 53.1355 29.5462V30.1375L51.6834 31.2975C51.481 31.445 51.3103 31.6326 51.1816 31.849C51.053 32.0653 50.969 32.3059 50.9349 32.556C50.8881 32.8065 50.8881 33.0637 50.9349 33.3142H50.8226C50.7035 33.3142 50.5893 33.3621 50.505 33.4474C50.4208 33.5327 50.3735 33.6485 50.3735 33.7691C50.3735 33.8897 50.4208 34.0054 50.505 34.0908C50.5893 34.1761 50.7035 34.224 50.8226 34.224H51.0621V34.9291H50.9049L48.9438 33.5492C48.9438 33.5492 48.9438 33.5492 48.9438 33.4962V32.3817C48.9484 32.0182 48.824 31.6652 48.5932 31.3869C48.3624 31.1086 48.0406 30.9235 47.6863 30.8654C47.6975 30.8155 47.6975 30.7636 47.6863 30.7137V28.5075C47.801 28.5015 47.9087 28.4497 47.9857 28.3635C48.3432 27.9543 48.6077 27.4707 48.7603 26.9466C48.9129 26.4226 48.95 25.871 48.869 25.3308C48.7964 24.8516 48.6338 24.3909 48.3899 23.9737C48.3899 23.9737 48.3899 23.9283 48.3899 23.9055V22.3892C48.3909 22.3292 48.38 22.2696 48.3578 22.2139C48.3356 22.1583 48.3025 22.1077 48.2606 22.0653C48.2187 22.0228 48.1688 21.9893 48.1139 21.9669C48.0589 21.9444 48.0001 21.9333 47.9408 21.9343C47.8217 21.9343 47.7075 21.9822 47.6232 22.0675C47.539 22.1529 47.4917 22.2686 47.4917 22.3892V22.973C47.3813 22.8835 47.2664 22.8 47.1474 22.7228L43.824 20.5317V18.6363C43.822 18.2576 43.6721 17.8951 43.407 17.628C43.1419 17.3609 42.7832 17.211 42.4093 17.211H42.2596C42.0732 17.209 41.8882 17.2444 41.7153 17.315C41.5424 17.3856 41.3851 17.4902 41.2522 17.6226C41.1193 17.7551 41.0136 17.9128 40.9412 18.0868C40.8687 18.2608 40.8309 18.4475 40.8299 18.6363V20.5317L37.3867 22.6849C37.267 22.7683 37.1472 22.8517 37.0349 22.9427V22.3513C37.0349 22.2307 36.9876 22.115 36.9034 22.0296C36.8192 21.9443 36.7049 21.8964 36.5858 21.8964C36.4667 21.8964 36.3525 21.9443 36.2683 22.0296C36.184 22.115 36.1367 22.2307 36.1367 22.3513V23.8676C36.1332 23.8902 36.1332 23.9132 36.1367 23.9358C35.8904 24.3519 35.7276 24.813 35.6577 25.2929C35.5766 25.8331 35.6137 26.3847 35.7664 26.9087C35.919 27.4328 36.1834 27.9164 36.5409 28.3256C36.618 28.4118 36.7256 28.4636 36.8403 28.4696V30.691C36.8291 30.7409 36.8291 30.7927 36.8403 30.8426C36.4875 30.9024 36.1674 31.0882 35.9381 31.3663C35.7088 31.6445 35.5854 31.9966 35.5903 32.3589V33.4886C35.5903 33.4886 35.5903 33.4886 35.5903 33.5416L33.6292 34.9215H33.472V34.2164H33.5843C33.7034 34.2164 33.8176 34.1685 33.9018 34.0832C33.9861 33.9979 34.0334 33.8822 34.0334 33.7615C34.0315 33.6448 33.9854 33.5332 33.9046 33.4499C33.8238 33.3667 33.7145 33.3181 33.5992 33.3142C33.645 33.0636 33.645 32.8066 33.5992 32.556C33.5238 32.0528 33.2546 31.6003 32.8507 31.2975L31.3836 30.13V29.5462C31.3836 29.4255 31.3363 29.3098 31.2521 29.2245C31.1679 29.1392 31.0536 29.0913 30.9345 29.0913C30.8154 29.0913 30.7012 29.1392 30.617 29.2245C30.5327 29.3098 30.4854 29.4255 30.4854 29.5462V30.1375L29.0333 31.2975C28.8321 31.4463 28.6623 31.6342 28.5337 31.8503C28.4052 32.0664 28.3206 32.3064 28.2848 32.556C28.238 32.8065 28.238 33.0637 28.2848 33.3142H28.1725C28.0534 33.3142 27.9392 33.3621 27.8549 33.4474C27.7707 33.5327 27.7234 33.6485 27.7234 33.7691C27.7234 33.8897 27.7707 34.0054 27.8549 34.0908C27.9392 34.1761 28.0534 34.224 28.1725 34.224H28.412V36.5743H21.9898V34.224H22.1619C22.281 34.224 22.3953 34.1761 22.4795 34.0908C22.5637 34.0054 22.611 33.8897 22.611 33.7691C22.611 33.6485 22.5637 33.5327 22.4795 33.4474C22.3953 33.3621 22.281 33.3142 22.1619 33.3142H22.117C22.1638 33.0637 22.1638 32.8065 22.117 32.556C22.0812 32.3064 21.9966 32.0664 21.8681 31.8503C21.7395 31.6342 21.5697 31.4463 21.3685 31.2975L19.8715 30.13V29.5462C19.8715 29.4255 19.8242 29.3098 19.7399 29.2245C19.6557 29.1392 19.5415 29.0913 19.4224 29.0913C19.3032 29.0913 19.189 29.1392 19.1048 29.2245C19.0206 29.3098 18.9732 29.4255 18.9732 29.5462V30.1375L17.5136 31.2975C17.1097 31.6003 16.8406 32.0528 16.7651 32.556C16.7219 32.8069 16.7219 33.0634 16.7651 33.3142H16.7202C16.6011 33.3142 16.4869 33.3621 16.4026 33.4474C16.3184 33.5327 16.2711 33.6485 16.2711 33.7691C16.2711 33.8897 16.3184 34.0054 16.4026 34.0908C16.4869 34.1761 16.6011 34.224 16.7202 34.224H16.8924V48.2119H14.1827C14.1194 48.2036 14.0551 48.209 13.994 48.2279C13.9329 48.2467 13.8765 48.2786 13.8285 48.3213C13.7805 48.364 13.7421 48.4165 13.7157 48.4755C13.6894 48.5344 13.6758 48.5983 13.6758 48.663C13.6758 48.7277 13.6894 48.7917 13.7157 48.8506C13.7421 48.9095 13.7805 48.9621 13.8285 49.0048C13.8765 49.0475 13.9329 49.0793 13.994 49.0982C14.0551 49.117 14.1194 49.1225 14.1827 49.1141H70.4711C70.5345 49.1225 70.5988 49.117 70.6599 49.0982C70.721 49.0793 70.7774 49.0475 70.8254 49.0048C70.8734 48.9621 70.9118 48.9095 70.9382 48.8506C70.9645 48.7917 70.9781 48.7277 70.9781 48.663C70.9781 48.5983 70.9645 48.5344 70.9382 48.4755C70.9118 48.4165 70.8734 48.364 70.8254 48.3213C70.7774 48.2786 70.721 48.2467 70.6599 48.2279C70.5988 48.209 70.5345 48.2036 70.4711 48.2119ZM25.665 46.5061V45.3688C25.665 45.2482 25.6177 45.1325 25.5334 45.0472C25.4492 44.9619 25.335 44.914 25.2159 44.914C25.0968 44.914 24.9825 44.9619 24.8983 45.0472C24.8141 45.1325 24.7668 45.2482 24.7668 45.3688V46.5061H21.9898V43.4735H28.4719V46.5061H25.665ZM19.9089 46.5061V45.3688C19.9089 45.2482 19.8616 45.1325 19.7774 45.0472C19.6931 44.9619 19.5789 44.914 19.4598 44.914C19.3407 44.914 19.2264 44.9619 19.1422 45.0472C19.058 45.1325 19.0107 45.2482 19.0107 45.3688V46.5061H17.828V43.4735H21.0915V46.5061H19.9089ZM33.8313 35.8919H40.9347C40.9233 35.9952 40.9233 36.0995 40.9347 36.2028V36.6273H32.8582V35.8919H33.8313ZM51.7957 35.8919V36.6501H43.7641V36.2255C43.7607 36.1205 43.7457 36.0162 43.7192 35.9147H51.8032L51.7957 35.8919ZM65.1866 44.9898C65.0675 44.9898 64.9533 45.0377 64.869 45.123C64.7848 45.2083 64.7375 45.324 64.7375 45.4447V46.5061H63.5623V43.4735H66.8259V46.5061H65.6432V45.3688C65.6432 45.2482 65.5959 45.1325 65.5117 45.0472C65.4274 44.9619 65.3132 44.914 65.1941 44.914L65.1866 44.9898ZM59.8871 46.5061V45.3688C59.8871 45.2482 59.8398 45.1325 59.7556 45.0472C59.6714 44.9619 59.5571 44.914 59.438 44.914C59.3189 44.914 59.2047 44.9619 59.1204 45.0472C59.0362 45.1325 58.9889 45.2482 58.9889 45.3688V46.5061H56.182V43.4735H62.6641V46.5061H59.8871ZM53.5547 46.5061H52.0576V43.4735H55.3212V46.5061H53.5547ZM38.2475 37.4992V38.7805H35.1861V37.4992H38.2475ZM39.9018 37.4992V39.2278V41.5023V44.8381H39.1532V37.4992H39.9018ZM41.3464 37.4992H43.8614V38.7805H40.8299V37.4992H41.3464ZM45.5156 37.4992V44.8381H44.7671V37.4992H45.5156ZM49.4753 37.4992V38.7805H46.4138V37.4992H49.4753ZM51.122 37.4992V44.8381H50.3735V37.4992H51.122ZM33.5319 45.7479H51.122V46.5061H33.5319V45.7479ZM38.2475 41.055H35.1861V39.6827H38.2475V41.055ZM35.1861 41.9572H38.2475V44.8381H35.1861V41.9572ZM43.8614 41.0474H40.8299V39.6827H43.8913L43.8614 41.0474ZM40.8299 41.9572H43.8913V44.8381H40.8299V41.9572ZM49.5052 41.0474H46.4138V39.6827H49.4753L49.5052 41.0474ZM46.4138 41.9572H49.4753V44.8381H46.4138V41.9572ZM34.2879 44.8381H33.5394V37.4992H34.2879V44.8381ZM63.5623 34.2619H66.8259V38.8108H63.5623V34.2619ZM66.8259 39.6827V42.6167H63.5623V39.6827H66.8259ZM62.6641 42.6167H56.182V39.6827H62.6641V42.6167ZM55.2837 42.6167H52.0576V39.6827H55.3212L55.2837 42.6167ZM42.8659 36.1649V36.5894H41.7955V36.1649C41.8651 35.8001 42.0488 35.4678 42.3195 35.2172C42.5971 35.4656 42.7887 35.7978 42.8659 36.1649ZM32.6337 42.6243H29.3701V39.6827H32.6337V42.6243ZM28.4719 42.6243H21.9898V39.6827H28.4719V42.6243ZM17.828 39.6827H21.0915V42.6167H17.828V39.6827ZM17.828 34.2543H21.0915V38.8032H17.828V34.2543ZM29.3701 43.5341H32.6337V46.5667H29.3701V43.5341ZM54.0712 47.431H66.7959V48.1892H54.0712V47.431ZM63.3902 32.6925C63.4232 32.4289 63.5577 32.1891 63.7644 32.0253L65.1417 30.9336L66.6387 32.0329C66.8422 32.1951 66.974 32.4322 67.0055 32.6925C67.0358 32.9084 67.0073 33.1286 66.9232 33.3294H63.4725C63.3883 33.1286 63.3599 32.9084 63.3902 32.6925ZM62.6417 37.4992V38.7805H56.182V37.4992H62.6417ZM51.8481 32.6925C51.8838 32.428 52.0209 32.1883 52.2298 32.0253L53.5996 30.9336L55.0966 32.0329C55.2979 32.1959 55.4271 32.4331 55.4559 32.6925C55.4886 32.9077 55.4627 33.1279 55.3811 33.3294H51.9379C51.8512 33.1293 51.8201 32.9091 51.8481 32.6925ZM52.0576 34.2619H55.3212V38.8108H52.0576V37.4992H52.2897C52.4088 37.4992 52.523 37.4513 52.6073 37.366C52.6915 37.2807 52.7388 37.165 52.7388 37.0443V35.3991C52.7388 35.2785 52.6915 35.1628 52.6073 35.0775C52.523 34.9922 52.4088 34.9442 52.2897 34.9442H52.0576V34.2619ZM44.9917 29.3566C44.8725 29.3566 44.7583 29.4046 44.6741 29.4899C44.5899 29.5752 44.5425 29.6909 44.5425 29.8115V30.8578H42.7761V29.8267C42.7761 29.706 42.7287 29.5903 42.6445 29.505C42.5603 29.4197 42.4461 29.3718 42.3269 29.3718C42.2078 29.3718 42.0936 29.4197 42.0094 29.505C41.9252 29.5903 41.8778 29.706 41.8778 29.8267V30.8729H40.1488V29.8267C40.1488 29.706 40.1014 29.5903 40.0172 29.505C39.933 29.4197 39.8188 29.3718 39.6997 29.3718C39.5805 29.3718 39.4663 29.4197 39.3821 29.505C39.2979 29.5903 39.2505 29.706 39.2505 29.8267V30.8729H37.7535C37.7571 30.8301 37.7571 30.7869 37.7535 30.7441V28.5151H46.8929V30.7289C46.8893 30.7718 46.8893 30.8149 46.8929 30.8578H45.3959V29.8267C45.3979 29.7663 45.388 29.7062 45.3668 29.6497C45.3455 29.5933 45.3135 29.5416 45.2723 29.4979C45.2312 29.4541 45.1819 29.4191 45.1273 29.3949C45.0727 29.3706 45.0139 29.3576 44.9542 29.3566H44.9917ZM43.315 21.2899L46.818 23.4582C47.1653 23.6764 47.4615 23.9684 47.6864 24.314C47.9113 24.6596 48.0594 25.0505 48.1205 25.4597C48.1761 25.8367 48.1557 26.2212 48.0605 26.59C47.9652 26.9587 47.7972 27.3041 47.5666 27.6053H43.824V26.6576C43.8205 26.4522 43.7799 26.2492 43.7042 26.0587C43.4903 25.5243 43.091 25.0876 42.5814 24.8305C42.4565 24.7798 42.3171 24.7798 42.1922 24.8305C41.6726 25.0771 41.2581 25.505 41.0245 26.0359C40.9395 26.2428 40.8938 26.464 40.8898 26.6879V27.6356H37.0873C36.858 27.3339 36.6913 26.9882 36.5974 26.6195C36.5035 26.2507 36.4843 25.8665 36.5409 25.4901C36.602 25.0808 36.7501 24.6899 36.975 24.3443C37.1998 23.9987 37.4961 23.7067 37.8433 23.4885L41.309 21.3202L43.315 21.2899ZM41.818 26.6576C41.8165 26.5541 41.8343 26.4512 41.8703 26.3543C41.9694 26.118 42.1363 25.9173 42.3494 25.7782C42.5585 25.9218 42.7243 26.1212 42.8284 26.3543C42.8616 26.452 42.8793 26.5544 42.8808 26.6576V27.6053H41.7955L41.818 26.6576ZM42.4243 18.1208C42.4914 18.1198 42.558 18.1324 42.6202 18.158C42.6824 18.1835 42.7389 18.2214 42.7864 18.2695C42.8339 18.3176 42.8713 18.3748 42.8966 18.4379C42.9218 18.5009 42.9343 18.5684 42.9332 18.6363V20.3801H41.7431V18.6363C41.7421 18.5684 41.7546 18.5009 41.7798 18.4379C41.805 18.3748 41.8425 18.3176 41.8899 18.2695C41.9374 18.2214 41.9939 18.1835 42.0561 18.158C42.1183 18.1324 42.185 18.1198 42.2521 18.1208H42.4243ZM36.5409 32.3817C36.5409 32.2188 36.6048 32.0626 36.7185 31.9474C36.8322 31.8323 36.9864 31.7676 37.1472 31.7676H47.5067C47.6682 31.7676 47.8232 31.832 47.9381 31.947C48.0529 32.0619 48.1185 32.2181 48.1205 32.3817V33.0564H36.5409V32.3817ZM36.6532 33.9662H48.0007L49.3854 34.9442H43.2701C43.0704 34.6885 42.8473 34.4524 42.6039 34.2391C42.5236 34.1726 42.4232 34.1363 42.3195 34.1363C42.2158 34.1363 42.1153 34.1726 42.035 34.2391C41.7928 34.4513 41.5721 34.6875 41.3763 34.9442H35.2684L36.6532 33.9662ZM32.4091 34.9442C32.29 34.9442 32.1758 34.9922 32.0915 35.0775C32.0073 35.1628 31.96 35.2785 31.96 35.3991V37.0443C31.96 37.165 32.0073 37.2807 32.0915 37.366C32.1758 37.4513 32.29 37.4992 32.4091 37.4992H32.6337V38.7805H29.3701V34.2316H32.6337V34.9139L32.4091 34.9442ZM29.2055 32.6698C29.2202 32.5388 29.261 32.4121 29.3253 32.2975C29.3896 32.1828 29.4762 32.0825 29.5797 32.0026L30.9495 30.9109L32.4465 32.0102C32.6478 32.1732 32.777 32.4104 32.8058 32.6698C32.8421 32.8849 32.8161 33.1061 32.731 33.3066H29.2878C29.2044 33.1137 29.1758 32.901 29.2055 32.6925V32.6698ZM28.4569 37.4765V38.7577H21.9898V37.4992L28.4569 37.4765ZM17.6633 32.6925C17.6781 32.5615 17.7189 32.4349 17.7832 32.3202C17.8475 32.2055 17.934 32.1052 18.0376 32.0253L19.4074 30.9336L20.9044 32.0329C21.1057 32.1959 21.2349 32.4331 21.2637 32.6925C21.3 32.9077 21.274 33.1289 21.1889 33.3294H17.7457C17.658 33.1296 17.6294 32.9084 17.6633 32.6925ZM17.8355 47.431H30.4854V48.1892H17.8355V47.431ZM31.3836 48.1892V47.4765H53.2029V48.1892H31.3836Z" fill="white"/>
<path d="M16.1184 66.0938H12.9384L15.1944 57.6937H17.9064C19.1064 57.6937 20.0424 58.1857 19.6464 59.6737L19.5504 60.0097C19.2864 60.8977 18.8184 61.4257 18.0744 61.6537L18.0624 61.6777C18.7704 61.9177 19.0104 62.4937 18.7824 63.3577L18.6384 63.9097C18.2304 65.4217 17.4624 66.0938 16.1184 66.0938ZM16.7424 59.1937L16.2384 61.1017H16.8744C17.1864 61.1017 17.4384 60.8977 17.5704 60.4057L17.7264 59.8537C17.8584 59.3857 17.7024 59.1937 17.3784 59.1937H16.7424ZM15.8664 62.4577L15.3024 64.5938H15.9624C16.3224 64.5938 16.5624 64.3897 16.7064 63.8857L16.8984 63.1657C17.0544 62.6497 16.8744 62.4457 16.5384 62.4577H15.8664ZM23.9248 66.0938H19.2688L21.5248 57.6937H26.0968L25.6888 59.2297H23.0608L22.6168 60.9577H24.8488L24.4528 62.3977H22.2208L21.6448 64.5577H24.3328L23.9248 66.0938ZM26.9671 66.0938H25.1071L27.3631 57.6937H29.4031L29.8471 62.7457H29.8951L30.0631 61.8697L31.1191 57.6937H32.9791L30.7351 66.0938H28.7431L28.2631 61.0417H28.2271L28.0351 61.9297L26.9671 66.0938ZM36.6427 57.6097C38.3827 57.6097 39.1627 58.6177 38.8147 59.9857L38.5867 60.8617L36.6307 60.8737L36.8707 59.9617C37.0027 59.4217 36.8227 59.1697 36.4387 59.1697C36.0067 59.1697 35.6827 59.4697 35.5147 60.0938L34.5547 63.6937C34.3867 64.3177 34.5547 64.6177 34.9867 64.6177C35.3587 64.6177 35.6707 64.3897 35.8387 63.8377C35.8747 63.7177 35.9467 63.4537 36.0187 63.1417H35.4067L35.8147 61.6297H38.3827L38.1427 62.5177L37.1827 66.0938H36.5347L36.6187 65.3497H36.5947C36.1147 65.9257 35.5147 66.1778 34.7107 66.1778C33.1387 66.1778 32.1667 65.3137 32.6227 63.5857L33.5347 60.1777C33.9907 58.4617 35.0227 57.6097 36.6427 57.6097ZM38.1009 66.0938L41.8809 57.6937H44.5929L43.9209 66.0938H42.0129L42.1689 64.7857H40.6449L40.1049 66.0938H38.1009ZM42.7089 59.7937L41.2809 63.2497H42.3489L42.7689 59.7937H42.7089ZM49.7183 64.5577L49.2983 66.0938H44.9423L47.1983 57.6937H49.1543L47.3183 64.5577H49.7183ZM52.9772 66.1778C51.3572 66.1778 50.3972 65.3018 50.8652 63.5257L52.4372 57.6937H54.3812L52.7612 63.7897C52.6052 64.3537 52.7492 64.6177 53.1332 64.6177C53.5172 64.6177 53.8052 64.3537 53.9612 63.7897L55.5932 57.6937H57.5372L55.9772 63.5257C55.5092 65.3018 54.5972 66.1778 52.9772 66.1778ZM58.7694 57.6937H61.6134C62.8854 57.6937 63.7614 58.4137 63.3174 59.9977L63.2214 60.4057C63.0054 61.1617 62.5494 61.6777 62.0214 61.9057L62.0094 61.9537C62.3694 62.1817 62.5494 62.5658 62.3814 63.1777L61.7574 65.5417C61.6854 65.7697 61.7574 65.9137 61.9374 65.9257L61.9014 66.0938H60.0414C59.8254 65.9977 59.7534 65.7217 59.8614 65.3137L60.4134 63.2617C60.5214 62.8417 60.4974 62.5177 60.0654 62.5177H59.4294L58.4694 66.0938H56.5134L58.7694 57.6937ZM60.3294 59.1697L59.8134 61.0417H60.5214C60.8694 61.0417 61.1334 60.8857 61.2654 60.3937L61.4094 59.8297C61.5414 59.3377 61.3854 59.1697 61.0374 59.1697H60.3294ZM65.5795 66.1778C63.9595 66.1778 62.9995 65.3018 63.4675 63.5257L65.0395 57.6937H66.9835L65.3635 63.7897C65.2075 64.3537 65.3515 64.6177 65.7355 64.6177C66.1195 64.6177 66.4075 64.3537 66.5635 63.7897L68.1955 57.6937H70.1395L68.5795 63.5257C68.1115 65.3018 67.1995 66.1778 65.5795 66.1778Z" fill="#EA337D"/>
</svg>
