<svg width="273" height="130" viewBox="0 0 273 130" fill="none" xmlns="http://www.w3.org/2000/svg">
<path d="M160.744 42.8918L159.458 42.7905L159.349 44.1818H160.744V42.8918ZM169.735 22.1589L170.609 23.1083L170.616 23.102L169.735 22.1589ZM199.989 16.1295L199.607 17.3618L199.621 17.366L199.634 17.3698L199.989 16.1295ZM207.816 20.1491L208.63 19.1479V19.1479L207.816 20.1491ZM213.105 27.1306L211.929 27.66L211.934 27.6721L211.94 27.6841L213.105 27.1306ZM212.788 46.8057L213.918 47.4274L213.925 47.4156L212.788 46.8057ZM206.758 54.5276L207.629 55.4797L207.636 55.473L207.643 55.4662L206.758 54.5276ZM198.296 60.7686L197.632 59.6624L197.621 59.6691L198.296 60.7686ZM188.987 66.375L189.625 67.4966L189.634 67.4911L189.644 67.4856L188.987 66.375ZM180.102 71.664L179.418 70.57H179.418L180.102 71.664ZM173.015 77.3761L172.071 76.4971L170.051 78.6661H173.015V77.3761ZM209.509 77.3761L210.766 77.6646L211.128 76.0861H209.509V77.3761ZM206.547 90.2812V91.5713H207.574L207.804 90.5698L206.547 90.2812ZM151.753 90.2812L150.465 90.202L150.381 91.5713H151.753V90.2812ZM154.82 78.3281L155.965 78.924H155.965L154.82 78.3281ZM161.59 69.4426L162.465 70.3905L162.472 70.3845L162.478 70.3784L161.59 69.4426ZM170.899 62.4611L171.556 63.5713L170.899 62.4611ZM181.477 56.5374L182.081 57.6775L182.101 57.6665L182.122 57.6548L181.477 56.5374ZM187.401 53.2582L186.809 52.1119L186.801 52.1159L186.794 52.12L187.401 53.2582ZM193.43 49.4502L194.217 50.4727L194.222 50.4684L193.43 49.4502ZM198.19 44.4785L199.251 45.2128L198.19 44.4785ZM196.709 30.0924L195.941 31.1284L195.959 31.1423L195.979 31.1554L196.709 30.0924ZM183.064 28.9288L183.62 30.0926L183.631 30.0877L183.641 30.0827L183.064 28.9288ZM178.833 32.208L177.85 31.3726L177.837 31.3872L177.825 31.4022L178.833 32.208ZM176.082 37.0739L174.878 36.6108L174.87 36.6313L174.863 36.6519L176.082 37.0739ZM175.024 42.8918V44.1818H176.271L176.314 42.9363L175.024 42.8918ZM162.03 42.9931C162.716 34.2769 165.616 27.7022 170.609 23.1083L168.862 21.2096C163.277 26.3475 160.182 33.5946 159.458 42.7905L162.03 42.9931ZM170.616 23.102C175.624 18.4278 182.2 16.0443 190.468 16.0443V13.4643C181.671 13.4643 174.425 16.0173 168.855 21.2159L170.616 23.102ZM190.468 16.0443C193.736 16.0443 196.78 16.4866 199.607 17.3618L200.37 14.8971C197.274 13.9388 193.971 13.4643 190.468 13.4643V16.0443ZM199.634 17.3698C202.438 18.1711 204.889 19.4331 207.003 21.1503L208.63 19.1479C206.23 17.198 203.462 15.7803 200.343 14.8891L199.634 17.3698ZM207.003 21.1503C209.093 22.8489 210.737 25.0106 211.929 27.66L214.282 26.6012C212.935 23.609 211.052 21.1163 208.63 19.1479L207.003 21.1503ZM211.94 27.6841C213.182 30.2982 213.825 33.4161 213.825 37.0739H216.405C216.405 33.1156 215.709 29.6046 214.27 26.5771L211.94 27.6841ZM213.825 37.0739C213.825 40.4785 213.093 43.5096 211.651 46.1957L213.925 47.4156C215.586 44.3191 216.405 40.8624 216.405 37.0739H213.825ZM211.658 46.184C210.174 48.8808 208.249 51.3491 205.874 53.589L207.643 55.4662C210.204 53.0518 212.299 50.3721 213.918 47.4273L211.658 46.184ZM205.888 53.5756C203.49 55.7683 200.74 57.7981 197.632 59.6625L198.96 61.8748C202.199 59.9311 205.091 57.8002 207.629 55.4797L205.888 53.5756ZM197.621 59.6691C194.525 61.5695 191.428 63.4345 188.331 65.2644L189.644 67.4856C192.753 65.6484 195.862 63.7759 198.971 61.8681L197.621 59.6691ZM188.35 65.2534C185.233 67.0246 182.255 68.7968 179.418 70.57L180.786 72.7579C183.59 71.0051 186.536 69.2513 189.625 67.4966L188.35 65.2534ZM179.418 70.57C176.519 72.382 174.065 74.3553 172.071 76.4971L173.959 78.2551C175.773 76.3067 178.043 74.472 180.786 72.7579L179.418 70.57ZM173.015 78.6661H209.509V76.0861H173.015V78.6661ZM208.251 77.0875L205.29 89.9927L207.804 90.5698L210.766 77.6646L208.251 77.0875ZM206.547 88.9912H151.753V91.5713H206.547V88.9912ZM153.04 90.3605C153.314 85.9211 154.3 82.1195 155.965 78.924L153.676 77.7322C151.815 81.3066 150.756 85.4738 150.465 90.202L153.04 90.3605ZM155.965 78.924C157.66 75.6684 159.827 72.8263 162.465 70.3905L160.715 68.4947C157.854 71.1363 155.507 74.2179 153.676 77.7322L155.965 78.924ZM162.478 70.3784C165.154 67.8396 168.179 65.57 171.556 63.5713L170.242 61.351C166.708 63.4424 163.527 65.8271 160.703 68.5067L162.478 70.3784ZM171.556 63.5713C174.994 61.5367 178.502 59.5721 182.081 57.6775L180.873 55.3973C177.259 57.3108 173.715 59.2953 170.242 61.351L171.556 63.5713ZM182.122 57.6548C183.941 56.605 185.903 55.5189 188.008 54.3965L186.794 52.12C184.667 53.2542 182.68 54.3542 180.832 55.4201L182.122 57.6548ZM187.992 54.4046C190.243 53.2431 192.318 51.9329 194.217 50.4727L192.644 48.4277C190.875 49.7882 188.931 51.0168 186.809 52.1119L187.992 54.4046ZM194.222 50.4684C196.221 48.9136 197.901 47.1625 199.251 45.2128L197.13 43.7442C195.941 45.4616 194.447 47.0249 192.638 48.4319L194.222 50.4684ZM199.251 45.2128C200.685 43.1407 201.384 40.7273 201.384 38.0259H198.804C198.804 40.261 198.234 42.1493 197.13 43.7442L199.251 45.2128ZM201.384 38.0259C201.384 34.0329 200.166 30.9037 197.44 29.0294L195.979 31.1554C197.766 32.384 198.804 34.5439 198.804 38.0259H201.384ZM197.478 29.0564C195.034 27.2433 192.073 26.3695 188.67 26.3695V28.9495C191.614 28.9495 194.012 29.6977 195.941 31.1284L197.478 29.0564ZM188.67 26.3695C186.441 26.3695 184.373 26.8321 182.487 27.775L183.641 30.0827C185.14 29.3331 186.809 28.9495 188.67 28.9495V26.3695ZM182.507 27.7651C180.717 28.6214 179.162 29.8282 177.85 31.3726L179.815 33.0435C180.9 31.7671 182.167 30.7877 183.62 30.0926L182.507 27.7651ZM177.825 31.4022C176.607 32.9247 175.627 34.6644 174.878 36.6108L177.286 37.537C177.948 35.8164 178.801 34.3121 179.84 33.0139L177.825 31.4022ZM174.863 36.6519C174.184 38.6136 173.81 40.6807 173.735 42.8474L176.314 42.9363C176.38 41.0128 176.711 39.2013 177.301 37.4959L174.863 36.6519ZM175.024 41.6018H160.744V44.1818H175.024V41.6018ZM268.922 28.6115V29.9015H269.965L270.183 28.8811L268.922 28.6115ZM237.399 28.6115V27.3215H236.447L236.167 28.231L237.399 28.6115ZM232.533 44.3727L231.301 43.9922L231.071 44.7351L231.621 45.2849L232.533 44.3727ZM232.745 44.5843L231.833 45.4965L232.666 46.3295L233.571 45.5753L232.745 44.5843ZM235.284 42.6802L234.607 41.5816L234.587 41.5939L234.568 41.6069L235.284 42.6802ZM238.351 41.1993L238.804 42.4072L238.351 41.1993ZM242.159 40.2473L241.977 38.9702L241.968 38.9716L242.159 40.2473ZM255.064 41.5167L254.556 42.7024L254.571 42.7086L254.585 42.7144L255.064 41.5167ZM261.623 45.8536L260.711 46.7658L261.623 45.8536ZM266.171 52.8351L264.978 53.3248L264.982 53.3357L266.171 52.8351ZM265.537 74.4143L264.349 73.9116L265.537 74.4143ZM259.084 83.7229L258.209 82.775L259.084 83.7229ZM249.246 89.6466L249.682 90.861L249.695 90.8563L249.246 89.6466ZM218.359 86.1558L217.553 87.1631L218.359 86.1558ZM211.06 68.7021V67.4121H209.723L209.771 68.7478L211.06 68.7021ZM225.446 68.7021L226.736 68.6773L226.711 67.4121H225.446V68.7021ZM229.043 76.8472L228.264 77.8754L228.281 77.8885L228.299 77.9011L229.043 76.8472ZM243.746 78.2223L243.243 77.0343L243.235 77.0379L243.226 77.0416L243.746 78.2223ZM248.506 75.0489L249.418 75.9611L249.43 75.9494L249.441 75.9374L248.506 75.0489ZM251.679 70.0773L252.874 70.564L251.679 70.0773ZM249.564 54.4218L248.667 55.3488L248.675 55.3564L248.683 55.3639L249.564 54.4218ZM228.408 57.4894V58.7794H229.092L229.476 58.2129L228.408 57.4894ZM214.868 57.4894L213.637 57.1043L213.113 58.7794H214.868V57.4894ZM227.773 16.2352V14.9452H226.825L226.542 15.8501L227.773 16.2352ZM271.566 16.2352L272.828 16.5048L273.161 14.9452H271.566V16.2352ZM268.922 27.3215H237.399V29.9015H268.922V27.3215ZM236.167 28.231L231.301 43.9922L233.766 44.7533L238.632 28.992L236.167 28.231ZM231.621 45.2849L231.833 45.4965L233.657 43.6721L233.445 43.4606L231.621 45.2849ZM233.571 45.5753C234.384 44.8971 235.194 44.2903 235.999 43.7536L234.568 41.6069C233.681 42.1985 232.798 42.8611 231.919 43.5933L233.571 45.5753ZM235.96 43.7789C236.798 43.263 237.744 42.8046 238.804 42.4072L237.898 39.9915C236.701 40.4403 235.603 40.9691 234.607 41.5816L235.96 43.7789ZM238.804 42.4072C239.834 42.0209 241.014 41.7236 242.351 41.523L241.968 38.9716C240.484 39.1942 239.125 39.5315 237.898 39.9915L238.804 42.4072ZM242.342 41.5243C243.748 41.3234 245.378 41.22 247.237 41.22V38.64C245.287 38.64 243.532 38.7481 241.977 38.9703L242.342 41.5243ZM247.237 41.22C249.817 41.22 252.253 41.7151 254.556 42.7024L255.573 40.331C252.94 39.2027 250.157 38.64 247.237 38.64V41.22ZM254.585 42.7144C256.889 43.6359 258.928 44.9837 260.711 46.7658L262.535 44.9415C260.509 42.9156 258.176 41.372 255.543 40.3189L254.585 42.7144ZM260.711 46.7658C262.482 48.537 263.908 50.7161 264.978 53.3248L267.365 52.3455C266.178 49.4536 264.572 46.9783 262.535 44.9415L260.711 46.7658ZM264.982 53.3357C266.033 55.8301 266.574 58.7226 266.574 62.038H269.154C269.154 58.4424 268.567 55.1997 267.36 52.3345L264.982 53.3357ZM266.574 62.038C266.574 66.475 265.823 70.4258 264.349 73.9116L266.725 74.9169C268.353 71.0686 269.154 66.7686 269.154 62.038H266.574ZM264.349 73.9116C262.864 77.4206 260.816 80.3686 258.209 82.775L259.959 84.6708C262.853 81.9998 265.106 78.7419 266.725 74.9169L264.349 73.9116ZM258.209 82.775C255.593 85.19 252.462 87.08 248.798 88.4369L249.695 90.8563C253.647 89.3923 257.075 87.3332 259.959 84.6708L258.209 82.775ZM248.811 88.4322C245.229 89.7165 241.288 90.3664 236.976 90.3664V92.9464C241.55 92.9464 245.789 92.2564 249.682 90.8609L248.811 88.4322ZM236.976 90.3664C229.343 90.3664 223.453 88.5796 219.165 85.1485L217.553 87.1631C222.432 91.0661 228.953 92.9464 236.976 92.9464V90.3664ZM219.165 85.1485C214.969 81.7923 212.623 76.3912 212.349 68.6565L209.771 68.7478C210.061 76.9506 212.581 83.1853 217.553 87.1631L219.165 85.1485ZM211.06 69.9921H225.446V67.4121H211.06V69.9921ZM224.156 68.7269C224.232 72.6779 225.542 75.8139 228.264 77.8754L229.821 75.8189C227.888 74.3544 226.801 72.0604 226.736 68.6773L224.156 68.7269ZM228.299 77.9011C230.959 79.7789 234.232 80.6759 238.034 80.6759V78.0959C234.643 78.0959 231.921 77.3004 229.786 75.7933L228.299 77.9011ZM238.034 80.6759C240.247 80.6759 242.329 80.2552 244.265 79.4031L243.226 77.0416C241.637 77.7409 239.911 78.0959 238.034 78.0959V80.6759ZM244.249 79.4104C246.227 78.5733 247.955 77.4243 249.418 75.9611L247.594 74.1368C246.377 75.3533 244.932 76.32 243.243 77.0343L244.249 79.4104ZM249.441 75.9374C250.898 74.4039 252.041 72.6084 252.874 70.564L250.485 69.5906C249.766 71.3542 248.794 72.8732 247.571 74.1604L249.441 75.9374ZM252.874 70.564C253.719 68.4909 254.133 66.2434 254.133 63.8363H251.553C251.553 65.9424 251.192 67.8555 250.485 69.5906L252.874 70.564ZM254.133 63.8363C254.133 59.3989 252.985 55.8556 250.445 53.4798L248.683 55.3639C250.515 57.0782 251.553 59.8112 251.553 63.8363H254.133ZM250.461 53.4948C247.965 51.0792 244.499 49.9584 240.255 49.9584V52.5384C244.051 52.5384 246.791 53.5332 248.667 55.3488L250.461 53.4948ZM240.255 49.9584C237.483 49.9584 235.015 50.4833 232.891 51.5841L234.079 53.8745C235.764 53.0009 237.808 52.5384 240.255 52.5384V49.9584ZM232.891 51.5841C230.757 52.6907 228.914 54.4426 227.34 56.766L229.476 58.2129C230.864 56.1641 232.405 54.7426 234.079 53.8745L232.891 51.5841ZM228.408 56.1995H214.868V58.7794H228.408V56.1995ZM216.099 57.8746L229.004 16.6204L226.542 15.8501L213.637 57.1043L216.099 57.8746ZM227.773 17.5252H271.566V14.9452H227.773V17.5252ZM270.305 15.9657L267.66 28.342L270.183 28.8811L272.828 16.5048L270.305 15.9657Z" fill="white"/>
<path d="M168.554 108.032C171.004 108.032 172.819 108.819 173.996 110.394C174.916 111.622 175.376 113.194 175.376 115.108C175.376 117.181 174.85 118.903 173.798 120.277C172.563 121.889 170.803 122.695 168.516 122.695C166.381 122.695 164.702 121.99 163.481 120.579C162.391 119.218 161.846 117.499 161.846 115.42C161.846 113.543 162.312 111.937 163.244 110.602C164.441 108.888 166.211 108.032 168.554 108.032ZM168.743 121.014C170.4 121.014 171.597 120.421 172.334 119.237C173.077 118.047 173.448 116.68 173.448 115.137C173.448 113.505 173.02 112.192 172.163 111.197C171.313 110.202 170.148 109.704 168.668 109.704C167.231 109.704 166.06 110.198 165.153 111.187C164.246 112.17 163.792 113.622 163.792 115.543C163.792 117.08 164.18 118.377 164.954 119.436C165.736 120.488 166.998 121.014 168.743 121.014ZM185.408 108.032C187.165 108.032 188.529 108.495 189.499 109.421C190.469 110.346 191.008 111.398 191.115 112.576H189.282C189.074 111.682 188.658 110.973 188.035 110.45C187.417 109.928 186.548 109.666 185.427 109.666C184.06 109.666 182.955 110.148 182.111 111.112C181.273 112.069 180.854 113.54 180.854 115.524C180.854 117.149 181.232 118.469 181.988 119.483C182.75 120.491 183.884 120.995 185.389 120.995C186.775 120.995 187.83 120.462 188.554 119.398C188.938 118.837 189.225 118.1 189.414 117.187H191.247C191.083 118.648 190.542 119.873 189.622 120.862C188.52 122.053 187.033 122.648 185.162 122.648C183.55 122.648 182.196 122.16 181.1 121.184C179.657 119.892 178.936 117.899 178.936 115.203C178.936 113.156 179.478 111.477 180.561 110.167C181.733 108.743 183.348 108.032 185.408 108.032ZM205.578 108.41V110.063H200.901V122.289H198.993V110.063H194.316V108.41H205.578ZM214.892 108.032C217.342 108.032 219.156 108.819 220.334 110.394C221.254 111.622 221.714 113.194 221.714 115.108C221.714 117.181 221.188 118.903 220.136 120.277C218.901 121.889 217.141 122.695 214.854 122.695C212.719 122.695 211.04 121.99 209.818 120.579C208.729 119.218 208.184 117.499 208.184 115.42C208.184 113.543 208.65 111.937 209.582 110.602C210.779 108.888 212.549 108.032 214.892 108.032ZM215.081 121.014C216.738 121.014 217.935 120.421 218.671 119.237C219.415 118.047 219.786 116.68 219.786 115.137C219.786 113.505 219.358 112.192 218.501 111.197C217.651 110.202 216.486 109.704 215.006 109.704C213.569 109.704 212.398 110.198 211.491 111.187C210.584 112.17 210.13 113.622 210.13 115.543C210.13 117.08 210.518 118.377 211.292 119.436C212.073 120.488 213.336 121.014 215.081 121.014ZM231.113 114.277C231.907 114.277 232.524 114.167 232.965 113.946C233.658 113.6 234.004 112.976 234.004 112.076C234.004 111.168 233.636 110.557 232.899 110.243C232.483 110.066 231.866 109.978 231.047 109.978H227.693V114.277H231.113ZM231.746 120.683C232.899 120.683 233.721 120.349 234.212 119.681C234.521 119.259 234.675 118.749 234.675 118.151C234.675 117.143 234.225 116.456 233.324 116.091C232.845 115.896 232.212 115.798 231.425 115.798H227.693V120.683H231.746ZM225.85 108.41H231.812C233.437 108.41 234.593 108.895 235.28 109.865C235.683 110.438 235.884 111.099 235.884 111.849C235.884 112.724 235.635 113.442 235.138 114.003C234.88 114.299 234.508 114.57 234.023 114.816C234.735 115.086 235.267 115.392 235.62 115.732C236.243 116.337 236.555 117.171 236.555 118.236C236.555 119.13 236.275 119.94 235.714 120.664C234.876 121.747 233.544 122.289 231.718 122.289H225.85V108.41ZM240.918 108.41H251.037V110.11H242.751V114.324H250.414V115.93H242.751V120.636H251.179V122.289H240.918V108.41ZM262.033 114.768C262.915 114.768 263.611 114.592 264.121 114.239C264.638 113.886 264.896 113.25 264.896 112.331C264.896 111.342 264.537 110.668 263.819 110.309C263.435 110.12 262.921 110.025 262.279 110.025H257.687V114.768H262.033ZM255.807 108.41H262.232C263.29 108.41 264.162 108.564 264.849 108.873C266.153 109.465 266.805 110.557 266.805 112.151C266.805 112.983 266.631 113.663 266.285 114.192C265.945 114.721 265.466 115.146 264.849 115.467C265.391 115.688 265.797 115.978 266.068 116.337C266.345 116.696 266.499 117.278 266.531 118.085L266.597 119.946C266.616 120.475 266.66 120.869 266.729 121.127C266.842 121.568 267.044 121.851 267.334 121.977V122.289H265.028C264.965 122.169 264.915 122.015 264.877 121.826C264.839 121.637 264.808 121.272 264.783 120.73L264.669 118.415C264.625 117.508 264.288 116.9 263.658 116.592C263.299 116.422 262.736 116.337 261.967 116.337H257.687V122.289H255.807V108.41Z" fill="white"/>
<path d="M173.996 110.394L173.71 110.608L173.71 110.608L173.996 110.394ZM173.798 120.277L173.514 120.059L173.514 120.059L173.798 120.277ZM163.481 120.579L163.201 120.803L163.21 120.813L163.481 120.579ZM163.244 110.602L162.951 110.397L162.951 110.397L163.244 110.602ZM172.334 119.237L172.03 119.048L172.03 119.048L172.334 119.237ZM172.163 111.197L171.892 111.429L171.892 111.43L172.163 111.197ZM165.153 111.187L165.416 111.43L165.416 111.429L165.153 111.187ZM164.954 119.436L164.666 119.647L164.667 119.649L164.954 119.436ZM168.554 108.389C170.923 108.389 172.616 109.146 173.71 110.608L174.283 110.18C173.021 108.492 171.086 107.674 168.554 107.674V108.389ZM173.71 110.608C174.573 111.761 175.018 113.251 175.018 115.108H175.733C175.733 113.136 175.259 111.483 174.283 110.179L173.71 110.608ZM175.018 115.108C175.018 117.118 174.509 118.76 173.514 120.059L174.082 120.494C175.191 119.047 175.733 117.243 175.733 115.108H175.018ZM173.514 120.059C172.356 121.571 170.708 122.338 168.516 122.338V123.053C170.898 123.053 172.771 122.207 174.082 120.494L173.514 120.059ZM168.516 122.338C166.468 122.338 164.895 121.666 163.751 120.345L163.21 120.813C164.51 122.314 166.294 123.053 168.516 123.053V122.338ZM163.76 120.355C162.73 119.07 162.204 117.434 162.204 115.42H161.488C161.488 117.564 162.052 119.367 163.201 120.802L163.76 120.355ZM162.204 115.42C162.204 113.605 162.653 112.073 163.538 110.806L162.951 110.397C161.971 111.801 161.488 113.481 161.488 115.42H162.204ZM163.537 110.806C164.658 109.202 166.311 108.389 168.554 108.389V107.674C166.111 107.674 164.224 108.575 162.951 110.397L163.537 110.806ZM168.743 121.371C170.496 121.371 171.822 120.736 172.637 119.426L172.03 119.048C171.371 120.107 170.303 120.656 168.743 120.656V121.371ZM172.637 119.427C173.419 118.174 173.806 116.74 173.806 115.137H173.091C173.091 116.62 172.734 117.92 172.03 119.048L172.637 119.427ZM173.806 115.137C173.806 113.441 173.36 112.038 172.434 110.964L171.892 111.43C172.681 112.346 173.091 113.569 173.091 115.137H173.806ZM172.435 110.965C171.508 109.879 170.237 109.346 168.668 109.346V110.062C170.059 110.062 171.119 110.524 171.892 111.429L172.435 110.965ZM168.668 109.346C167.139 109.346 165.869 109.877 164.889 110.946L165.416 111.429C166.251 110.52 167.324 110.062 168.668 110.062V109.346ZM164.89 110.945C163.9 112.017 163.435 113.571 163.435 115.543H164.15C164.15 113.673 164.592 112.323 165.416 111.43L164.89 110.945ZM163.435 115.543C163.435 117.142 163.839 118.517 164.666 119.647L165.243 119.224C164.52 118.238 164.15 117.017 164.15 115.543H163.435ZM164.667 119.649C165.537 120.82 166.926 121.371 168.743 121.371V120.656C167.071 120.656 165.934 120.155 165.242 119.223L164.667 119.649ZM191.115 112.576V112.934H191.506L191.471 112.544L191.115 112.576ZM189.282 112.576L188.933 112.657L188.998 112.934H189.282V112.576ZM188.035 110.45L187.803 110.723L187.805 110.724L188.035 110.45ZM182.111 111.112L181.842 110.876L181.841 110.876L182.111 111.112ZM181.988 119.483L181.701 119.697L181.703 119.699L181.988 119.483ZM188.554 119.398L188.259 119.196L188.259 119.197L188.554 119.398ZM189.414 117.187V116.829H189.123L189.064 117.115L189.414 117.187ZM191.247 117.187L191.602 117.227L191.647 116.829H191.247V117.187ZM189.622 120.862L189.36 120.619L189.36 120.619L189.622 120.862ZM181.1 121.184L180.861 121.45L180.862 121.451L181.1 121.184ZM180.561 110.167L180.837 110.395L180.837 110.394L180.561 110.167ZM185.408 108.389C187.103 108.389 188.367 108.835 189.252 109.679L189.746 109.162C188.691 108.155 187.228 107.674 185.408 107.674V108.389ZM189.252 109.679C190.169 110.554 190.66 111.528 190.759 112.609L191.471 112.544C191.355 111.268 190.77 110.139 189.746 109.162L189.252 109.679ZM191.115 112.219H189.282V112.934H191.115V112.219ZM189.63 112.495C189.407 111.536 188.955 110.755 188.264 110.176L187.805 110.724C188.362 111.191 188.741 111.828 188.933 112.657L189.63 112.495ZM188.266 110.178C187.563 109.582 186.6 109.309 185.427 109.309V110.024C186.496 110.024 187.272 110.273 187.803 110.723L188.266 110.178ZM185.427 109.309C183.965 109.309 182.758 109.829 181.842 110.876L182.38 111.347C183.151 110.467 184.155 110.024 185.427 110.024V109.309ZM181.841 110.876C180.922 111.927 180.496 113.5 180.496 115.524H181.212C181.212 113.58 181.623 112.212 182.38 111.347L181.841 110.876ZM180.496 115.524C180.496 117.204 180.887 118.605 181.701 119.697L182.274 119.269C181.576 118.332 181.212 117.094 181.212 115.524H180.496ZM181.703 119.699C182.546 120.813 183.796 121.352 185.389 121.352V120.637C183.972 120.637 182.954 120.168 182.273 119.267L181.703 119.699ZM185.389 121.352C186.883 121.352 188.053 120.77 188.85 119.599L188.259 119.197C187.607 120.155 186.667 120.637 185.389 120.637V121.352ZM188.849 119.6C189.268 118.989 189.569 118.203 189.764 117.259L189.064 117.115C188.881 117.998 188.609 118.686 188.259 119.196L188.849 119.6ZM189.414 117.545H191.247V116.829H189.414V117.545ZM190.892 117.147C190.736 118.54 190.223 119.691 189.36 120.619L189.884 121.106C190.86 120.056 191.431 118.757 191.602 117.227L190.892 117.147ZM189.36 120.619C188.335 121.725 186.95 122.29 185.162 122.29V123.006C187.116 123.006 188.704 122.38 189.884 121.105L189.36 120.619ZM185.162 122.29C183.628 122.29 182.361 121.829 181.337 120.917L180.862 121.451C182.03 122.491 183.471 123.006 185.162 123.006V122.29ZM181.338 120.917C179.998 119.717 179.294 117.838 179.294 115.203H178.578C178.578 117.959 179.317 120.068 180.861 121.45L181.338 120.917ZM179.294 115.203C179.294 113.221 179.817 111.629 180.837 110.395L180.285 109.939C179.139 111.326 178.578 113.09 178.578 115.203H179.294ZM180.837 110.394C181.932 109.064 183.441 108.389 185.408 108.389V107.674C183.256 107.674 181.533 108.423 180.285 109.94L180.837 110.394ZM205.578 108.41H205.936V108.052H205.578V108.41ZM205.578 110.063V110.421H205.936V110.063H205.578ZM200.901 110.063V109.705H200.544V110.063H200.901ZM200.901 122.289V122.647H201.259V122.289H200.901ZM198.993 122.289H198.635V122.647H198.993V122.289ZM198.993 110.063H199.35V109.705H198.993V110.063ZM194.316 110.063H193.958V110.421H194.316V110.063ZM194.316 108.41V108.052H193.958V108.41H194.316ZM205.22 108.41V110.063H205.936V108.41H205.22ZM205.578 109.705H200.901V110.421H205.578V109.705ZM200.544 110.063V122.289H201.259V110.063H200.544ZM200.901 121.931H198.993V122.647H200.901V121.931ZM199.35 122.289V110.063H198.635V122.289H199.35ZM198.993 109.705H194.316V110.421H198.993V109.705ZM194.673 110.063V108.41H193.958V110.063H194.673ZM194.316 108.767H205.578V108.052H194.316V108.767ZM220.334 110.394L220.048 110.608L220.048 110.608L220.334 110.394ZM220.136 120.277L219.852 120.059L219.852 120.059L220.136 120.277ZM209.818 120.579L209.539 120.803L209.548 120.813L209.818 120.579ZM209.582 110.602L209.289 110.397L209.289 110.397L209.582 110.602ZM218.671 119.237L218.368 119.048L218.368 119.048L218.671 119.237ZM218.501 111.197L218.23 111.429L218.23 111.43L218.501 111.197ZM211.491 111.187L211.754 111.43L211.754 111.429L211.491 111.187ZM211.292 119.436L211.004 119.647L211.005 119.649L211.292 119.436ZM214.892 108.389C217.261 108.389 218.954 109.146 220.048 110.608L220.621 110.18C219.359 108.492 217.424 107.674 214.892 107.674V108.389ZM220.048 110.608C220.911 111.761 221.356 113.251 221.356 115.108H222.071C222.071 113.136 221.597 111.483 220.621 110.179L220.048 110.608ZM221.356 115.108C221.356 117.118 220.847 118.76 219.852 120.059L220.42 120.494C221.528 119.047 222.071 117.243 222.071 115.108H221.356ZM219.852 120.059C218.694 121.571 217.046 122.338 214.854 122.338V123.053C217.236 123.053 219.109 122.207 220.42 120.494L219.852 120.059ZM214.854 122.338C212.806 122.338 211.233 121.666 210.089 120.345L209.548 120.813C210.848 122.314 212.632 123.053 214.854 123.053V122.338ZM210.098 120.355C209.068 119.07 208.542 117.434 208.542 115.42H207.826C207.826 117.564 208.39 119.367 209.539 120.802L210.098 120.355ZM208.542 115.42C208.542 113.605 208.991 112.073 209.876 110.806L209.289 110.397C208.309 111.801 207.826 113.481 207.826 115.42H208.542ZM209.875 110.806C210.996 109.202 212.649 108.389 214.892 108.389V107.674C212.449 107.674 210.562 108.575 209.289 110.397L209.875 110.806ZM215.081 121.371C216.834 121.371 218.16 120.736 218.975 119.426L218.368 119.048C217.709 120.107 216.641 120.656 215.081 120.656V121.371ZM218.975 119.427C219.757 118.174 220.144 116.74 220.144 115.137H219.429C219.429 116.62 219.072 117.92 218.368 119.048L218.975 119.427ZM220.144 115.137C220.144 113.441 219.698 112.038 218.772 110.964L218.23 111.43C219.019 112.346 219.429 113.569 219.429 115.137H220.144ZM218.773 110.965C217.846 109.879 216.575 109.346 215.006 109.346V110.062C216.396 110.062 217.456 110.524 218.23 111.429L218.773 110.965ZM215.006 109.346C213.477 109.346 212.207 109.877 211.227 110.946L211.754 111.429C212.589 110.52 213.662 110.062 215.006 110.062V109.346ZM211.228 110.945C210.238 112.017 209.773 113.571 209.773 115.543H210.488C210.488 113.673 210.93 112.323 211.754 111.43L211.228 110.945ZM209.773 115.543C209.773 117.142 210.177 118.517 211.004 119.647L211.581 119.224C210.858 118.238 210.488 117.017 210.488 115.543H209.773ZM211.005 119.649C211.875 120.82 213.264 121.371 215.081 121.371V120.656C213.409 120.656 212.272 120.155 211.58 119.223L211.005 119.649ZM232.965 113.946L232.805 113.626L232.965 113.946ZM232.899 110.243L233.039 109.914L233.038 109.913L232.899 110.243ZM227.693 109.978V109.62H227.335V109.978H227.693ZM227.693 114.277H227.335V114.635H227.693V114.277ZM234.212 119.681L234.5 119.893L234.501 119.892L234.212 119.681ZM233.324 116.091L233.189 116.422L233.189 116.422L233.324 116.091ZM227.693 115.798V115.441H227.335V115.798H227.693ZM227.693 120.683H227.335V121.04H227.693V120.683ZM225.85 108.41V108.052H225.493V108.41H225.85ZM235.28 109.865L235.572 109.659L235.572 109.658L235.28 109.865ZM235.138 114.003L234.87 113.766L234.868 113.768L235.138 114.003ZM234.023 114.816L233.861 114.496L233.14 114.862L233.896 115.15L234.023 114.816ZM235.62 115.732L235.869 115.475L235.868 115.475L235.62 115.732ZM235.714 120.664L235.431 120.445L235.431 120.445L235.714 120.664ZM225.85 122.289H225.493V122.647H225.85V122.289ZM231.113 114.635C231.932 114.635 232.613 114.522 233.125 114.266L232.805 113.626C232.435 113.811 231.881 113.919 231.113 113.919V114.635ZM233.125 114.266C233.53 114.064 233.846 113.773 234.057 113.392C234.266 113.015 234.362 112.571 234.362 112.076H233.646C233.646 112.481 233.569 112.799 233.432 113.045C233.296 113.288 233.093 113.483 232.805 113.626L233.125 114.266ZM234.362 112.076C234.362 111.574 234.26 111.127 234.034 110.752C233.806 110.375 233.468 110.097 233.039 109.914L232.758 110.571C233.066 110.703 233.281 110.888 233.421 111.122C233.564 111.358 233.646 111.67 233.646 112.076H234.362ZM233.038 109.913C232.556 109.709 231.881 109.62 231.047 109.62V110.336C231.85 110.336 232.41 110.424 232.759 110.572L233.038 109.913ZM231.047 109.62H227.693V110.336H231.047V109.62ZM227.335 109.978V114.277H228.05V109.978H227.335ZM227.693 114.635H231.113V113.919H227.693V114.635ZM231.746 121.04C232.965 121.04 233.917 120.685 234.5 119.893L233.924 119.469C233.524 120.013 232.833 120.325 231.746 120.325V121.04ZM234.501 119.892C234.86 119.401 235.033 118.814 235.033 118.151H234.317C234.317 118.685 234.181 119.118 233.923 119.47L234.501 119.892ZM235.033 118.151C235.033 117.593 234.907 117.097 234.636 116.684C234.364 116.269 233.963 115.964 233.458 115.76L233.189 116.422C233.585 116.583 233.86 116.804 234.038 117.076C234.217 117.349 234.317 117.701 234.317 118.151H235.033ZM233.459 115.76C232.921 115.54 232.237 115.441 231.425 115.441V116.156C232.188 116.156 232.769 116.251 233.189 116.422L233.459 115.76ZM231.425 115.441H227.693V116.156H231.425V115.441ZM227.335 115.798V120.683H228.05V115.798H227.335ZM227.693 121.04H231.746V120.325H227.693V121.04ZM225.85 108.767H231.812V108.052H225.85V108.767ZM231.812 108.767C233.367 108.767 234.391 109.228 234.988 110.071L235.572 109.658C234.795 108.561 233.507 108.052 231.812 108.052V108.767ZM234.987 110.07C235.345 110.579 235.527 111.167 235.527 111.849H236.242C236.242 111.031 236.021 110.297 235.572 109.659L234.987 110.07ZM235.527 111.849C235.527 112.652 235.3 113.281 234.87 113.766L235.405 114.24C235.971 113.604 236.242 112.796 236.242 111.849H235.527ZM234.868 113.768C234.65 114.019 234.32 114.264 233.861 114.496L234.185 115.135C234.696 114.876 235.11 114.579 235.407 114.238L234.868 113.768ZM233.896 115.15C234.585 115.412 235.067 115.696 235.372 115.989L235.868 115.475C235.467 115.088 234.885 114.761 234.15 114.481L233.896 115.15ZM235.371 115.989C235.91 116.511 236.198 117.245 236.198 118.236H236.913C236.913 117.098 236.577 116.162 235.869 115.475L235.371 115.989ZM236.198 118.236C236.198 119.049 235.945 119.782 235.431 120.445L235.997 120.883C236.605 120.097 236.913 119.211 236.913 118.236H236.198ZM235.431 120.445C234.682 121.414 233.473 121.931 231.718 121.931V122.647C233.615 122.647 235.071 122.081 235.997 120.883L235.431 120.445ZM231.718 121.931H225.85V122.647H231.718V121.931ZM226.208 122.289V108.41H225.493V122.289H226.208ZM240.918 108.41V108.052H240.561V108.41H240.918ZM251.037 108.41H251.395V108.052H251.037V108.41ZM251.037 110.11V110.468H251.395V110.11H251.037ZM242.751 110.11V109.753H242.394V110.11H242.751ZM242.751 114.324H242.394V114.682H242.751V114.324ZM250.414 114.324H250.771V113.967H250.414V114.324ZM250.414 115.93V116.288H250.771V115.93H250.414ZM242.751 115.93V115.573H242.394V115.93H242.751ZM242.751 120.636H242.394V120.993H242.751V120.636ZM251.179 120.636H251.537V120.278H251.179V120.636ZM251.179 122.289V122.647H251.537V122.289H251.179ZM240.918 122.289H240.561V122.647H240.918V122.289ZM240.918 108.767H251.037V108.052H240.918V108.767ZM250.68 108.41V110.11H251.395V108.41H250.68ZM251.037 109.753H242.751V110.468H251.037V109.753ZM242.394 110.11V114.324H243.109V110.11H242.394ZM242.751 114.682H250.414V113.967H242.751V114.682ZM250.056 114.324V115.93H250.771V114.324H250.056ZM250.414 115.573H242.751V116.288H250.414V115.573ZM242.394 115.93V120.636H243.109V115.93H242.394ZM242.751 120.993H251.179V120.278H242.751V120.993ZM250.821 120.636V122.289H251.537V120.636H250.821ZM251.179 121.931H240.918V122.647H251.179V121.931ZM241.276 122.289V108.41H240.561V122.289H241.276ZM264.121 114.239L263.92 113.944L263.918 113.945L264.121 114.239ZM263.819 110.309L263.979 109.989L263.977 109.988L263.819 110.309ZM257.687 110.025V109.668H257.329V110.025H257.687ZM257.687 114.768H257.329V115.126H257.687V114.768ZM255.807 108.41V108.052H255.449V108.41H255.807ZM264.849 108.873L264.997 108.547L264.995 108.546L264.849 108.873ZM266.285 114.192L265.986 113.996L265.984 113.999L266.285 114.192ZM264.849 115.467L264.684 115.15L263.998 115.507L264.714 115.799L264.849 115.467ZM266.068 116.337L265.782 116.552L265.785 116.555L266.068 116.337ZM266.531 118.085L266.888 118.072L266.888 118.071L266.531 118.085ZM266.597 119.946L266.239 119.959V119.959L266.597 119.946ZM266.729 121.127L267.075 121.038L267.074 121.034L266.729 121.127ZM267.334 121.977H267.691V121.743L267.476 121.649L267.334 121.977ZM267.334 122.289V122.647H267.691V122.289H267.334ZM265.028 122.289L264.712 122.456L264.812 122.647H265.028V122.289ZM264.783 120.73L265.14 120.713L265.14 120.713L264.783 120.73ZM264.669 118.415L264.312 118.433L264.312 118.433L264.669 118.415ZM263.658 116.592L263.816 116.271L263.811 116.269L263.658 116.592ZM257.687 116.337V115.979H257.329V116.337H257.687ZM257.687 122.289V122.647H258.045V122.289H257.687ZM255.807 122.289H255.449V122.647H255.807V122.289ZM262.033 115.126C262.958 115.126 263.734 114.941 264.325 114.533L263.918 113.945C263.488 114.242 262.872 114.411 262.033 114.411V115.126ZM264.323 114.534C264.977 114.088 265.254 113.309 265.254 112.331H264.538C264.538 113.191 264.298 113.685 263.92 113.944L264.323 114.534ZM265.254 112.331C265.254 111.244 264.849 110.424 263.979 109.989L263.659 110.629C264.225 110.912 264.538 111.439 264.538 112.331H265.254ZM263.977 109.988C263.525 109.766 262.951 109.668 262.279 109.668V110.383C262.892 110.383 263.344 110.474 263.661 110.63L263.977 109.988ZM262.279 109.668H257.687V110.383H262.279V109.668ZM257.329 110.025V114.768H258.045V110.025H257.329ZM257.687 115.126H262.033V114.411H257.687V115.126ZM255.807 108.767H262.232V108.052H255.807V108.767ZM262.232 108.767C263.258 108.767 264.076 108.917 264.702 109.199L264.995 108.546C264.248 108.21 263.321 108.052 262.232 108.052V108.767ZM264.701 109.198C265.295 109.468 265.724 109.843 266.009 110.319C266.294 110.798 266.447 111.403 266.447 112.151H267.162C267.162 111.306 266.989 110.567 266.623 109.953C266.255 109.336 265.706 108.869 264.997 108.547L264.701 109.198ZM266.447 112.151C266.447 112.934 266.284 113.541 265.986 113.996L266.584 114.388C266.979 113.785 267.162 113.031 267.162 112.151H266.447ZM265.984 113.999C265.681 114.47 265.252 114.855 264.684 115.15L265.014 115.785C265.68 115.438 266.208 114.972 266.586 114.385L265.984 113.999ZM264.714 115.799C265.214 116.002 265.56 116.258 265.782 116.552L266.353 116.121C266.033 115.697 265.568 115.374 264.984 115.136L264.714 115.799ZM265.785 116.555C265.993 116.825 266.143 117.316 266.173 118.099L266.888 118.071C266.856 117.241 266.697 116.566 266.351 116.118L265.785 116.555ZM266.173 118.097L266.239 119.959L266.954 119.933L266.888 118.072L266.173 118.097ZM266.239 119.959C266.258 120.494 266.303 120.921 266.384 121.22L267.074 121.034C267.016 120.817 266.973 120.456 266.954 119.933L266.239 119.959ZM266.383 121.216C266.511 121.714 266.761 122.118 267.191 122.305L267.476 121.649C267.327 121.584 267.174 121.421 267.075 121.038L266.383 121.216ZM266.976 121.977V122.289H267.691V121.977H266.976ZM267.334 121.931H265.028V122.647H267.334V121.931ZM265.345 122.123C265.303 122.043 265.262 121.924 265.228 121.756L264.526 121.896C264.568 122.106 264.628 122.296 264.712 122.456L265.345 122.123ZM265.228 121.756C265.196 121.597 265.165 121.258 265.14 120.713L264.425 120.747C264.45 121.285 264.483 121.677 264.526 121.896L265.228 121.756ZM265.14 120.713L265.026 118.398L264.312 118.433L264.425 120.748L265.14 120.713ZM265.026 118.398C264.978 117.405 264.598 116.654 263.816 116.271L263.501 116.913C263.979 117.147 264.272 117.611 264.312 118.433L265.026 118.398ZM263.811 116.269C263.378 116.063 262.748 115.979 261.967 115.979V116.694C262.723 116.694 263.221 116.78 263.505 116.915L263.811 116.269ZM261.967 115.979H257.687V116.694H261.967V115.979ZM257.329 116.337V122.289H258.045V116.337H257.329ZM257.687 121.931H255.807V122.647H257.687V121.931ZM256.164 122.289V108.41H255.449V122.289H256.164Z" fill="white"/>
<rect y="0.828125" width="129" height="129" rx="6" fill="#B4B4B4" fill-opacity="0.2"/>
<path d="M108.221 76.4368H104.003V54.9786H104.164C104.347 54.9786 104.522 54.905 104.651 54.774C104.781 54.643 104.853 54.4653 104.853 54.28C104.853 54.1018 104.785 53.9305 104.663 53.8023C104.541 53.6741 104.374 53.5991 104.198 53.5931C104.262 53.2077 104.262 52.8141 104.198 52.4288C104.143 52.0455 104.012 51.6773 103.815 51.3455C103.618 51.0137 103.357 50.7249 103.049 50.496L100.704 48.668V47.7715C100.704 47.5863 100.631 47.4086 100.502 47.2776C100.372 47.1465 100.197 47.0729 100.014 47.0729C99.831 47.0729 99.6556 47.1465 99.5263 47.2776C99.3969 47.4086 99.3243 47.5863 99.3243 47.7715V48.6797L97.0942 50.4611C96.7834 50.6876 96.5212 50.9757 96.3236 51.308C96.1261 51.6402 95.9971 52.0096 95.9447 52.3938C95.8729 52.7785 95.8729 53.1734 95.9447 53.5581H95.7838C95.6009 53.5581 95.4254 53.6317 95.2961 53.7627C95.1667 53.8938 95.0941 54.0714 95.0941 54.2567C95.0941 54.442 95.1667 54.6197 95.2961 54.7507C95.4254 54.8817 95.6009 54.9553 95.7838 54.9553H96.1516V58.5647H86.2774V54.9553H86.4498C86.6327 54.9553 86.8081 54.8817 86.9375 54.7507C87.0668 54.6197 87.1395 54.442 87.1395 54.2567C87.1366 54.0774 87.0658 53.9061 86.9417 53.7782C86.8176 53.6504 86.6497 53.5757 86.4728 53.5698C86.5371 53.1844 86.5371 52.7908 86.4728 52.4055C86.3568 51.6327 85.9436 50.9378 85.3233 50.4727L82.9783 48.668V47.7715C82.9783 47.5863 82.9056 47.4086 82.7763 47.2776C82.6469 47.1465 82.4715 47.0729 82.2886 47.0729C82.1057 47.0729 81.9302 47.1465 81.8009 47.2776C81.6715 47.4086 81.5989 47.5863 81.5989 47.7715V48.6797L79.3688 50.4611C79.058 50.6876 78.7959 50.9757 78.5983 51.308C78.4007 51.6402 78.2717 52.0096 78.2193 52.3938C78.1475 52.7785 78.1475 53.1734 78.2193 53.5581H78.0469C77.864 53.5581 77.6885 53.6317 77.5592 53.7627C77.4299 53.8938 77.3572 54.0714 77.3572 54.2567C77.3572 54.442 77.4299 54.6197 77.5592 54.7507C77.6885 54.8817 77.864 54.9553 78.0469 54.9553H78.4147V56.0381H78.1733L75.1616 53.9191C75.1616 53.9191 75.1616 53.9191 75.1616 53.8376V52.126C75.1687 51.5679 74.9776 51.0257 74.6232 50.5983C74.2687 50.1709 73.7745 49.8867 73.2305 49.7974C73.2477 49.7208 73.2477 49.6412 73.2305 49.5646V46.1764C73.4066 46.1672 73.5719 46.0876 73.6903 45.9552C74.2393 45.3269 74.6454 44.5841 74.8798 43.7794C75.1141 42.9746 75.1711 42.1275 75.0467 41.298C74.9353 40.562 74.6856 39.8545 74.311 39.2139C74.311 39.2139 74.311 39.144 74.311 39.1091V36.7805C74.3126 36.6883 74.2958 36.5967 74.2617 36.5113C74.2276 36.4258 74.1768 36.3482 74.1125 36.283C74.0481 36.2178 73.9714 36.1664 73.8871 36.1318C73.8027 36.0973 73.7123 36.0803 73.6213 36.0819C73.4384 36.0819 73.263 36.1555 73.1336 36.2865C73.0043 36.4175 72.9316 36.5952 72.9316 36.7805V37.677C72.7621 37.5396 72.5856 37.4114 72.4028 37.2928L67.299 33.9279V31.0171C67.296 30.4355 67.0657 29.8788 66.6586 29.4686C66.2515 29.0585 65.7007 28.8282 65.1264 28.8282H64.8965C64.6103 28.8252 64.3262 28.8794 64.0607 28.9879C63.7952 29.0964 63.5535 29.257 63.3495 29.4604C63.1455 29.6638 62.9831 29.906 62.8718 30.1732C62.7606 30.4404 62.7025 30.7272 62.701 31.0171V33.9279L57.4133 37.2345C57.2293 37.3626 57.0454 37.4907 56.873 37.6304V36.7223C56.873 36.537 56.8003 36.3593 56.671 36.2283C56.5416 36.0973 56.3662 36.0237 56.1833 36.0237C56.0004 36.0237 55.8249 36.0973 55.6956 36.2283C55.5662 36.3593 55.4936 36.537 55.4936 36.7223V39.0509C55.4882 39.0856 55.4882 39.1209 55.4936 39.1557C55.1153 39.7945 54.8653 40.5028 54.7579 41.2398C54.6335 42.0693 54.6904 42.9164 54.9248 43.7211C55.1592 44.5259 55.5653 45.2687 56.1143 45.897C56.2327 46.0294 56.398 46.109 56.5741 46.1182V49.5296C56.5569 49.6063 56.5569 49.6859 56.5741 49.7625C56.0322 49.8543 55.5407 50.1396 55.1885 50.5667C54.8364 50.9939 54.6469 51.5347 54.6544 52.0911V53.8259C54.6544 53.8259 54.6544 53.8259 54.6544 53.9074L51.6427 56.0265H51.4013V54.9437H51.5738C51.7567 54.9437 51.9321 54.8701 52.0615 54.7391C52.1908 54.608 52.2635 54.4304 52.2635 54.2451C52.2606 54.0658 52.1898 53.8945 52.0657 53.7666C51.9416 53.6387 51.7737 53.5641 51.5968 53.5581C51.667 53.1733 51.667 52.7787 51.5968 52.3938C51.4808 51.621 51.0675 50.9261 50.4473 50.4611L48.1942 48.668V47.7715C48.1942 47.5863 48.1216 47.4086 47.9922 47.2776C47.8629 47.1465 47.6874 47.0729 47.5045 47.0729C47.3216 47.0729 47.1462 47.1465 47.0168 47.2776C46.8875 47.4086 46.8148 47.5863 46.8148 47.7715V48.6797L44.5848 50.4611C44.2758 50.6895 44.015 50.9782 43.8176 51.31C43.6202 51.6419 43.4902 52.0104 43.4353 52.3938C43.3634 52.7785 43.3634 53.1734 43.4353 53.5581H43.2628C43.0799 53.5581 42.9045 53.6317 42.7751 53.7627C42.6458 53.8938 42.5731 54.0714 42.5731 54.2567C42.5731 54.442 42.6458 54.6197 42.7751 54.7507C42.9045 54.8817 43.0799 54.9553 43.2628 54.9553H43.6307V58.5647H33.7679V54.9553H34.0323C34.2152 54.9553 34.3906 54.8817 34.52 54.7507C34.6493 54.6197 34.722 54.442 34.722 54.2567C34.722 54.0714 34.6493 53.8938 34.52 53.7627C34.3906 53.6317 34.2152 53.5581 34.0323 53.5581H33.9633C34.0352 53.1734 34.0352 52.7785 33.9633 52.3938C33.9084 52.0104 33.7784 51.6419 33.581 51.31C33.3836 50.9782 33.1228 50.6895 32.8138 50.4611L30.5148 48.668V47.7715C30.5148 47.5863 30.4421 47.4086 30.3128 47.2776C30.1835 47.1465 30.008 47.0729 29.8251 47.0729C29.6422 47.0729 29.4668 47.1465 29.3374 47.2776C29.2081 47.4086 29.1354 47.5863 29.1354 47.7715V48.6797L26.8939 50.4611C26.2736 50.9261 25.8603 51.621 25.7444 52.3938C25.678 52.779 25.678 53.1729 25.7444 53.5581H25.6754C25.4925 53.5581 25.317 53.6317 25.1877 53.7627C25.0583 53.8938 24.9857 54.0714 24.9857 54.2567C24.9857 54.442 25.0583 54.6197 25.1877 54.7507C25.317 54.8817 25.4925 54.9553 25.6754 54.9553H25.9398V76.4368H21.7786C21.6813 76.424 21.5825 76.4323 21.4886 76.4613C21.3948 76.4903 21.3082 76.5391 21.2345 76.6047C21.1608 76.6703 21.1018 76.751 21.0614 76.8415C21.0209 76.932 21 77.0302 21 77.1295C21 77.2289 21.0209 77.3271 21.0614 77.4176C21.1018 77.5081 21.1608 77.5888 21.2345 77.6544C21.3082 77.7199 21.3948 77.7688 21.4886 77.7978C21.5825 77.8267 21.6813 77.8351 21.7786 77.8223H108.221C108.319 77.8351 108.418 77.8267 108.511 77.7978C108.605 77.7688 108.692 77.7199 108.765 77.6544C108.839 77.5888 108.898 77.5081 108.939 77.4176C108.979 77.3271 109 77.2289 109 77.1295C109 77.0302 108.979 76.932 108.939 76.8415C108.898 76.751 108.839 76.6703 108.765 76.6047C108.692 76.5391 108.605 76.4903 108.511 76.4613C108.418 76.4323 108.319 76.424 108.221 76.4368ZM39.412 73.8171V72.0706C39.412 71.8853 39.3393 71.7077 39.21 71.5767C39.0806 71.4456 38.9052 71.372 38.7223 71.372C38.5394 71.372 38.3639 71.4456 38.2346 71.5767C38.1052 71.7077 38.0326 71.8853 38.0326 72.0706V73.8171H33.7679V69.1599H43.7226V73.8171H39.412ZM30.5723 73.8171V72.0706C30.5723 71.8853 30.4996 71.7077 30.3703 71.5767C30.2409 71.4456 30.0655 71.372 29.8826 71.372C29.6997 71.372 29.5242 71.4456 29.3949 71.5767C29.2655 71.7077 29.1929 71.8853 29.1929 72.0706V73.8171H27.3767V69.1599H32.3885V73.8171H30.5723ZM51.9531 57.5168H62.8619C62.8444 57.6754 62.8444 57.8355 62.8619 57.9941V58.6462H50.4587V57.5168H51.9531ZM79.5413 57.5168V58.6811H67.2071V58.0291C67.2019 57.8678 67.1787 57.7077 67.1381 57.5517H79.5528L79.5413 57.5168ZM100.106 71.4885C99.923 71.4885 99.7476 71.5621 99.6182 71.6931C99.4889 71.8241 99.4162 72.0018 99.4162 72.1871V73.8171H97.6115V69.1599H102.623V73.8171H100.807V72.0706C100.807 71.8853 100.734 71.7077 100.605 71.5767C100.476 71.4456 100.3 71.372 100.117 71.372L100.106 71.4885ZM91.9674 73.8171V72.0706C91.9674 71.8853 91.8948 71.7077 91.7654 71.5767C91.6361 71.4456 91.4606 71.372 91.2777 71.372C91.0948 71.372 90.9194 71.4456 90.79 71.5767C90.6607 71.7077 90.588 71.8853 90.588 72.0706V73.8171H86.2774V69.1599H96.2321V73.8171H91.9674ZM82.2426 73.8171H79.9436V69.1599H84.9554V73.8171H82.2426ZM58.7352 59.9851V61.9528H54.0337V59.9851H58.7352ZM61.2756 59.9851V62.6397V66.1327V71.2556H60.1261V59.9851H61.2756ZM63.4941 59.9851H67.3565V61.9528H62.701V59.9851H63.4941ZM69.8969 59.9851V71.2556H68.7474V59.9851H69.8969ZM75.9778 59.9851V61.9528H71.2763V59.9851H75.9778ZM78.5067 59.9851V71.2556H77.3572V59.9851H78.5067ZM51.4933 72.6528H78.5067V73.8171H51.4933V72.6528ZM58.7352 65.4457H54.0337V63.3383H58.7352V65.4457ZM54.0337 66.8312H58.7352V71.2556H54.0337V66.8312ZM67.3565 65.4341H62.701V63.3383H67.4025L67.3565 65.4341ZM62.701 66.8312H67.4025V71.2556H62.701V66.8312ZM76.0238 65.4341H71.2763V63.3383H75.9778L76.0238 65.4341ZM71.2763 66.8312H75.9778V71.2556H71.2763V66.8312ZM52.6543 71.2556H51.5048V59.9851H52.6543V71.2556ZM97.6115 55.0135H102.623V61.9994H97.6115V55.0135ZM102.623 63.3383V67.8442H97.6115V63.3383H102.623ZM96.2321 67.8442H86.2774V63.3383H96.2321V67.8442ZM84.898 67.8442H79.9436V63.3383H84.9554L84.898 67.8442ZM65.8276 57.9359V58.5879H64.1839V57.9359C64.2907 57.3758 64.5729 56.8655 64.9885 56.4805C65.4149 56.8621 65.7091 57.3723 65.8276 57.9359ZM50.1139 67.8558H45.102V63.3383H50.1139V67.8558ZM43.7226 67.8558H33.7679V63.3383H43.7226V67.8558ZM27.3767 63.3383H32.3885V67.8442H27.3767V63.3383ZM27.3767 55.0019H32.3885V61.9877H27.3767V55.0019ZM45.102 69.253H50.1139V73.9102H45.102V69.253ZM83.0358 75.2375H102.577V76.4018H83.0358V75.2375ZM97.3471 52.6034C97.3979 52.1985 97.6045 51.8303 97.9219 51.5788L100.037 49.9022L102.336 51.5905C102.648 51.8395 102.851 52.2037 102.899 52.6034C102.946 52.935 102.902 53.2732 102.773 53.5814H97.4736C97.3443 53.2732 97.3006 52.935 97.3471 52.6034ZM96.1976 59.9851V61.9528H86.2774V59.9851H96.1976ZM79.6217 52.6034C79.6766 52.1971 79.8872 51.829 80.208 51.5788L82.3116 49.9022L84.6106 51.5905C84.9197 51.8408 85.1181 52.2051 85.1623 52.6034C85.2125 52.9339 85.1728 53.2721 85.0474 53.5814H79.7597C79.6265 53.2743 79.5788 52.9361 79.6217 52.6034ZM79.9436 55.0135H84.9554V61.9994H79.9436V59.9851H80.2999C80.4829 59.9851 80.6583 59.9115 80.7876 59.7805C80.917 59.6495 80.9896 59.4718 80.9896 59.2865V56.76C80.9896 56.5747 80.917 56.397 80.7876 56.266C80.6583 56.135 80.4829 56.0614 80.2999 56.0614H79.9436V55.0135ZM69.0922 47.4805C68.9093 47.4805 68.7339 47.5541 68.6045 47.6851C68.4752 47.8161 68.4025 47.9938 68.4025 48.179V49.7858H65.6897V48.2023C65.6897 48.017 65.617 47.8394 65.4877 47.7084C65.3583 47.5773 65.1829 47.5037 65 47.5037C64.8171 47.5037 64.6417 47.5773 64.5123 47.7084C64.383 47.8394 64.3103 48.017 64.3103 48.2023V49.8091H61.6549V48.2023C61.6549 48.017 61.5823 47.8394 61.4529 47.7084C61.3236 47.5773 61.1482 47.5037 60.9652 47.5037C60.7823 47.5037 60.6069 47.5773 60.4775 47.7084C60.3482 47.8394 60.2755 48.017 60.2755 48.2023V49.8091H57.9765C57.9821 49.7432 57.9821 49.677 57.9765 49.6111V46.1881H72.012V49.5878C72.0064 49.6537 72.0064 49.7199 72.012 49.7858H69.713V48.2023C69.716 48.1096 69.7008 48.0172 69.6683 47.9305C69.6357 47.8438 69.5864 47.7646 69.5233 47.6974C69.4602 47.6302 69.3844 47.5764 69.3006 47.5391C69.2167 47.5019 69.1263 47.4819 69.0348 47.4805H69.0922ZM66.5173 35.0922L71.897 38.4221C72.4303 38.7573 72.8853 39.2057 73.2306 39.7364C73.576 40.2671 73.8034 40.8674 73.8972 41.4959C73.9826 42.0749 73.9512 42.6653 73.805 43.2316C73.6588 43.798 73.4008 44.3284 73.0465 44.7909H67.299V43.3355C67.2936 43.0201 67.2313 42.7084 67.1151 42.4157C66.7865 41.5951 66.1733 40.9244 65.3908 40.5295C65.199 40.4518 64.9849 40.4518 64.7931 40.5295C63.9951 40.9083 63.3586 41.5655 62.9999 42.3808C62.8694 42.6984 62.7992 43.0381 62.7929 43.3821V44.8375H56.9535C56.6012 44.3741 56.3452 43.8432 56.201 43.2769C56.0568 42.7106 56.0273 42.1206 56.1143 41.5425C56.2081 40.914 56.4355 40.3137 56.7809 39.783C57.1262 39.2522 57.5812 38.8038 58.1145 38.4687L63.4367 35.1388L66.5173 35.0922ZM64.2183 43.3355C64.2161 43.1765 64.2434 43.0186 64.2988 42.8698C64.451 42.5068 64.7073 42.1986 65.0345 41.9849C65.3556 42.2055 65.6102 42.5118 65.7702 42.8698C65.8211 43.0198 65.8483 43.1769 65.8506 43.3355V44.7909H64.1839L64.2183 43.3355ZM65.1494 30.2254C65.2525 30.2238 65.3549 30.2433 65.4504 30.2825C65.5459 30.3217 65.6327 30.38 65.7056 30.4538C65.7785 30.5276 65.836 30.6155 65.8748 30.7123C65.9135 30.8091 65.9327 30.9127 65.9311 31.0171V33.6951H64.1034V31.0171C64.1018 30.9127 64.121 30.8091 64.1597 30.7123C64.1985 30.6155 64.256 30.5276 64.3289 30.4538C64.4018 30.38 64.4886 30.3217 64.5841 30.2825C64.6796 30.2433 64.782 30.2238 64.8851 30.2254H65.1494ZM56.1143 52.126C56.1143 51.8759 56.2124 51.636 56.387 51.4592C56.5616 51.2823 56.7985 51.183 57.0454 51.183H72.9546C73.2026 51.1829 73.4406 51.2819 73.6171 51.4585C73.7935 51.635 73.8942 51.8748 73.8972 52.126V53.1623H56.1143V52.126ZM56.2867 54.5594H73.7133L75.8398 56.0614H66.4484C66.1417 55.6687 65.7992 55.3062 65.4253 54.9786C65.3021 54.8764 65.1478 54.8206 64.9885 54.8206C64.8293 54.8206 64.6749 54.8764 64.5517 54.9786C64.1797 55.3044 63.8408 55.6672 63.5401 56.0614H54.1602L56.2867 54.5594ZM49.769 56.0614C49.5861 56.0614 49.4107 56.135 49.2813 56.266C49.152 56.397 49.0793 56.5747 49.0793 56.76V59.2865C49.0793 59.4718 49.152 59.6495 49.2813 59.7805C49.4107 59.9115 49.5861 59.9851 49.769 59.9851H50.1139V61.9528H45.102V54.9669H50.1139V56.0148L49.769 56.0614ZM44.8492 52.5685C44.8718 52.3673 44.9344 52.1728 45.0332 51.9967C45.132 51.8206 45.2649 51.6666 45.4239 51.5439L47.5275 49.8673L49.8265 51.5555C50.1356 51.8059 50.334 52.1701 50.3783 52.5685C50.4341 52.8989 50.3941 53.2386 50.2633 53.5465H44.9756C44.8475 53.2502 44.8037 52.9236 44.8492 52.6034V52.5685ZM43.6996 59.9502V61.9179H33.7679V59.9851L43.6996 59.9502ZM27.1238 52.6034C27.1464 52.4022 27.209 52.2077 27.3078 52.0316C27.4066 51.8556 27.5395 51.7015 27.6985 51.5788L29.8021 49.9022L32.1011 51.5905C32.4102 51.8408 32.6086 52.2051 32.6529 52.6034C32.7087 52.9338 32.6687 53.2735 32.5379 53.5814H27.2502C27.1155 53.2747 27.0716 52.9349 27.1238 52.6034ZM27.3882 75.2375H46.8148V76.4018H27.3882V75.2375ZM48.1942 76.4018V75.3074H81.7023V76.4018H48.1942Z" fill="white"/>
<path d="M20.7687 105.547L23.8287 91.1469H26.3847C28.7967 91.1469 29.5707 92.4609 29.0487 94.8009L28.9227 95.3229C28.6167 96.6909 28.0047 97.4469 26.7447 97.8249C27.7707 98.2929 28.4007 99.3189 27.9867 101.245L27.8247 101.965C27.2307 104.701 26.2767 105.547 24.1167 105.547H20.7687ZM22.3167 104.467H23.4867C25.6287 104.467 26.0247 104.089 26.4747 102.091L26.6907 101.119C27.0867 99.3189 26.5827 98.3829 24.7647 98.3829H23.6127L22.3167 104.467ZM23.8287 97.3029H24.9987C26.2047 97.3029 27.1947 97.1589 27.5727 95.4489L27.7347 94.7469C28.1847 92.7309 27.6447 92.2269 26.0787 92.2269H24.9087L23.8287 97.3029ZM30.8255 105.547L33.8855 91.1469H38.9975L38.7815 92.2269H34.9655L33.7775 97.8069H37.4315L37.2155 98.8869H33.5615L32.3735 104.467H36.1715L35.9375 105.547H30.8255ZM39.687 105.547L42.747 91.1469H43.989L45.501 102.307L47.877 91.1469H49.083L46.023 105.547H44.781L43.287 94.3869L40.911 105.547H39.687ZM53.3337 105.727C51.0297 105.727 50.3457 104.125 50.8137 101.875L52.3797 94.4949C52.8657 92.2269 53.8197 90.9669 55.9617 90.9669C58.3737 90.9669 59.1477 92.5509 58.6437 94.8189L58.3197 96.3489H56.9877L57.3657 94.6209C57.7977 92.7309 57.2757 92.0289 55.9437 92.0289C54.9897 92.0289 54.1797 92.3709 53.7477 94.3329L52.1097 102.019C51.6777 104.017 52.2357 104.647 53.5137 104.647C54.9177 104.647 55.3857 103.873 55.7817 102.019L56.3757 99.3369H54.5397L54.7737 98.2929H57.9237L56.3757 105.547H55.5477L55.6557 104.611C55.0797 105.313 54.3597 105.727 53.3337 105.727ZM59.7335 105.547L65.0615 91.1469H66.9335L66.1595 105.547H64.8455L65.0615 102.379H62.1995L61.0655 105.547H59.7335ZM62.5955 101.299H65.1335L65.7455 92.5329V92.4969L65.7275 92.5509L62.5955 101.299ZM69.682 105.547L72.706 91.1469H74.02L71.23 104.467H75.046L74.812 105.547H69.682ZM80.926 105.727C78.514 105.727 77.776 104.125 78.244 101.857L80.53 91.1469H81.844L79.522 102.055C79.108 104.035 79.666 104.665 80.926 104.665C81.862 104.665 82.726 104.341 83.14 102.361L85.534 91.1469H86.866L84.508 102.163C84.04 104.449 83.068 105.727 80.926 105.727ZM92.9903 105.547C92.8643 105.313 92.9363 104.809 93.0623 104.251L93.6023 101.677C94.1423 99.1749 92.5943 98.9949 91.7843 98.9949H90.6143L89.2283 105.547H87.9143L90.9743 91.1469H93.5303C95.8703 91.1469 96.9143 92.4249 96.3743 94.9449L96.2483 95.5389C95.9063 97.1769 95.2583 98.0769 93.5843 98.4909C94.7723 98.9229 95.2583 100.147 94.8983 101.821L94.3763 104.287C94.2503 104.881 94.1783 105.331 94.2863 105.547H92.9903ZM90.8303 97.9689H91.9283C94.0343 97.9689 94.5743 97.1409 94.8623 95.7549L95.0243 94.9989C95.5283 92.6229 94.9163 92.1729 93.2063 92.1729H92.0723L90.8303 97.9689ZM101.391 105.727C98.9791 105.727 98.2411 104.125 98.7091 101.857L100.995 91.1469H102.309L99.9871 102.055C99.5731 104.035 100.131 104.665 101.391 104.665C102.327 104.665 103.191 104.341 103.605 102.361L105.999 91.1469H107.331L104.973 102.163C104.505 104.449 103.533 105.727 101.391 105.727Z" fill="#EA337D"/>
<path d="M20.7687 105.547L19.9862 105.381L19.7808 106.347H20.7687V105.547ZM23.8287 91.1469V90.3469H23.1808L23.0462 90.9806L23.8287 91.1469ZM29.0487 94.8009L29.8265 94.9886L29.8295 94.9751L29.0487 94.8009ZM28.9227 95.3229L28.1449 95.1351L28.142 95.1482L28.9227 95.3229ZM26.7447 97.8249L26.5148 97.0586L24.4772 97.6699L26.4127 98.5527L26.7447 97.8249ZM27.9867 101.245L28.7672 101.42L28.7688 101.413L27.9867 101.245ZM27.8247 101.965L27.0442 101.789L27.0429 101.795L27.8247 101.965ZM22.3167 104.467L21.5343 104.3L21.3283 105.267H22.3167V104.467ZM26.4747 102.091L27.2552 102.267L27.2557 102.264L26.4747 102.091ZM26.6907 101.119L27.4717 101.292L27.472 101.291L26.6907 101.119ZM23.6127 98.3829V97.5829H22.9652L22.8303 98.2162L23.6127 98.3829ZM23.8287 97.3029L23.0462 97.1364L22.8406 98.1029H23.8287V97.3029ZM27.5727 95.4489L26.7932 95.269L26.7916 95.2762L27.5727 95.4489ZM27.7347 94.7469L28.5142 94.9268L28.5155 94.9212L27.7347 94.7469ZM24.9087 92.2269V91.4269H24.261L24.1262 92.0604L24.9087 92.2269ZM21.5512 105.713L24.6112 91.3132L23.0462 90.9806L19.9862 105.381L21.5512 105.713ZM23.8287 91.9469H26.3847V90.3469H23.8287V91.9469ZM26.3847 91.9469C27.4682 91.9469 27.9439 92.2406 28.1591 92.5516C28.3975 92.8961 28.5122 93.5317 28.2679 94.6267L29.8295 94.9751C30.1072 93.7301 30.0959 92.5387 29.4748 91.6411C28.8306 90.7102 27.7132 90.3469 26.3847 90.3469V91.9469ZM28.271 94.6132L28.145 95.1352L29.7004 95.5106L29.8264 94.9886L28.271 94.6132ZM28.142 95.1482C28.0059 95.7565 27.8185 96.1507 27.5838 96.4248C27.3561 96.6907 27.0328 96.9032 26.5148 97.0586L26.9746 98.5911C27.7166 98.3685 28.3293 98.0141 28.7991 97.4655C29.2619 96.9251 29.5335 96.2573 29.7034 95.4975L28.142 95.1482ZM26.4127 98.5527C26.7721 98.7167 27.0239 98.9554 27.1684 99.2986C27.3194 99.6572 27.3893 100.217 27.2046 101.077L28.7688 101.413C28.9981 100.347 28.96 99.4306 28.643 98.6777C28.3195 97.9093 27.7433 97.4011 27.0767 97.097L26.4127 98.5527ZM27.2062 101.069L27.0442 101.789L28.6052 102.14L28.7672 101.42L27.2062 101.069ZM27.0429 101.795C26.7545 103.123 26.4094 103.82 26.007 104.202C25.6363 104.554 25.1001 104.747 24.1167 104.747V106.347C25.2934 106.347 26.3141 106.117 27.1089 105.362C27.872 104.637 28.3009 103.542 28.6065 102.135L27.0429 101.795ZM24.1167 104.747H20.7687V106.347H24.1167V104.747ZM22.3167 105.267H23.4867V103.667H22.3167V105.267ZM23.4867 105.267C24.5353 105.267 25.4506 105.194 26.1202 104.649C26.7867 104.106 27.0374 103.233 27.2552 102.267L25.6943 101.915C25.462 102.946 25.2897 103.262 25.1102 103.408C24.9338 103.551 24.5801 103.667 23.4867 103.667V105.267ZM27.2557 102.264L27.4717 101.292L25.9098 100.945L25.6938 101.917L27.2557 102.264ZM27.472 101.291C27.6808 100.342 27.7165 99.3769 27.2251 98.6344C26.7017 97.8435 25.7798 97.5829 24.7647 97.5829V99.1829C25.5676 99.1829 25.8067 99.3902 25.8908 99.5174C26.0069 99.6928 26.0966 100.096 25.9094 100.947L27.472 101.291ZM24.7647 97.5829H23.6127V99.1829H24.7647V97.5829ZM22.8303 98.2162L21.5343 104.3L23.0991 104.634L24.3951 98.5495L22.8303 98.2162ZM23.8287 98.1029H24.9987V96.5029H23.8287V98.1029ZM24.9987 98.1029C25.5973 98.1029 26.3409 98.0774 26.9874 97.7149C27.6915 97.3202 28.1327 96.6222 28.3538 95.6215L26.7916 95.2762C26.6348 95.9856 26.3919 96.2145 26.205 96.3193C25.9605 96.4564 25.6061 96.5029 24.9987 96.5029V98.1029ZM28.3522 95.6288L28.5142 94.9268L26.9552 94.567L26.7932 95.269L28.3522 95.6288ZM28.5155 94.9212C28.6351 94.3852 28.7008 93.9011 28.6855 93.4741C28.6701 93.0433 28.5703 92.6192 28.31 92.2608C27.7808 91.532 26.8635 91.4269 26.0787 91.4269V93.0269C26.8599 93.0269 26.9956 93.1737 27.0154 93.201C27.0296 93.2205 27.0783 93.3005 27.0865 93.5312C27.0949 93.7657 27.0593 94.1006 26.9539 94.5726L28.5155 94.9212ZM26.0787 91.4269H24.9087V93.0269H26.0787V91.4269ZM24.1262 92.0604L23.0462 97.1364L24.6112 97.4694L25.6912 92.3934L24.1262 92.0604ZM30.8255 105.547L30.043 105.381L29.8376 106.347H30.8255V105.547ZM33.8855 91.1469V90.3469H33.2376L33.103 90.9806L33.8855 91.1469ZM38.9975 91.1469L39.782 91.3038L39.9733 90.3469H38.9975V91.1469ZM38.7815 92.2269V93.0269H39.4373L39.566 92.3838L38.7815 92.2269ZM34.9655 92.2269V91.4269H34.3179L34.183 92.0603L34.9655 92.2269ZM33.7775 97.8069L32.995 97.6403L32.7892 98.6069H33.7775V97.8069ZM37.4315 97.8069L38.216 97.9638L38.4073 97.0069H37.4315V97.8069ZM37.2155 98.8869V99.6869H37.8713L38 99.0438L37.2155 98.8869ZM33.5615 98.8869V98.0869H32.9139L32.779 98.7203L33.5615 98.8869ZM32.3735 104.467L31.591 104.3L31.3852 105.267H32.3735V104.467ZM36.1715 104.467L36.9534 104.636L37.1634 103.667H36.1715V104.467ZM35.9375 105.547V106.347H36.5827L36.7194 105.716L35.9375 105.547ZM31.608 105.713L34.668 91.3132L33.103 90.9806L30.043 105.381L31.608 105.713ZM33.8855 91.9469H38.9975V90.3469H33.8855V91.9469ZM38.213 90.99L37.997 92.07L39.566 92.3838L39.782 91.3038L38.213 90.99ZM38.7815 91.4269H34.9655V93.0269H38.7815V91.4269ZM34.183 92.0603L32.995 97.6403L34.56 97.9735L35.748 92.3935L34.183 92.0603ZM33.7775 98.6069H37.4315V97.0069H33.7775V98.6069ZM36.647 97.65L36.431 98.73L38 99.0438L38.216 97.9638L36.647 97.65ZM37.2155 98.0869H33.5615V99.6869H37.2155V98.0869ZM32.779 98.7203L31.591 104.3L33.156 104.633L34.344 99.0535L32.779 98.7203ZM32.3735 105.267H36.1715V103.667H32.3735V105.267ZM35.3896 104.297L35.1556 105.377L36.7194 105.716L36.9534 104.636L35.3896 104.297ZM35.9375 104.747H30.8255V106.347H35.9375V104.747ZM39.687 105.547L38.9045 105.381L38.6991 106.347H39.687V105.547ZM42.747 91.1469V90.3469H42.0991L41.9645 90.9806L42.747 91.1469ZM43.989 91.1469L44.7817 91.0395L44.6879 90.3469H43.989V91.1469ZM45.501 102.307L44.7082 102.414L46.2834 102.473L45.501 102.307ZM47.877 91.1469V90.3469H47.2294L47.0945 90.9803L47.877 91.1469ZM49.083 91.1469L49.8655 91.3132L50.0708 90.3469H49.083V91.1469ZM46.023 105.547V106.347H46.6708L46.8055 105.713L46.023 105.547ZM44.781 105.547L43.9881 105.653L44.0809 106.347H44.781V105.547ZM43.287 94.3869L44.0799 94.2807L42.5045 94.2203L43.287 94.3869ZM40.911 105.547V106.347H41.5586L41.6934 105.713L40.911 105.547ZM40.4695 105.713L43.5295 91.3132L41.9645 90.9806L38.9045 105.381L40.4695 105.713ZM42.747 91.9469H43.989V90.3469H42.747V91.9469ZM43.1962 91.2543L44.7082 102.414L46.2937 102.199L44.7817 91.0395L43.1962 91.2543ZM46.2834 102.473L48.6594 91.3135L47.0945 90.9803L44.7185 102.14L46.2834 102.473ZM47.877 91.9469H49.083V90.3469H47.877V91.9469ZM48.3005 90.9806L45.2405 105.381L46.8055 105.713L49.8655 91.3132L48.3005 90.9806ZM46.023 104.747H44.781V106.347H46.023V104.747ZM45.5739 105.441L44.0799 94.2807L42.4941 94.493L43.9881 105.653L45.5739 105.441ZM42.5045 94.2203L40.1285 105.38L41.6934 105.713L44.0694 94.5535L42.5045 94.2203ZM40.911 104.747H39.687V106.347H40.911V104.747ZM50.8137 101.875L50.0311 101.709L50.0304 101.712L50.8137 101.875ZM52.3797 94.4949L51.5974 94.3273L51.5971 94.3288L52.3797 94.4949ZM58.6437 94.8189L57.8627 94.6453L57.861 94.6531L58.6437 94.8189ZM58.3197 96.3489V97.1489H58.968L59.1023 96.5146L58.3197 96.3489ZM56.9877 96.3489L56.2061 96.1779L55.9937 97.1489H56.9877V96.3489ZM57.3657 94.6209L56.5857 94.4426L56.5841 94.4499L57.3657 94.6209ZM53.7477 94.3329L52.9664 94.1608L52.9652 94.1661L53.7477 94.3329ZM52.1097 102.019L52.8916 102.188L52.8921 102.186L52.1097 102.019ZM55.7817 102.019L55.0006 101.846L54.9993 101.852L55.7817 102.019ZM56.3757 99.3369L57.1567 99.5099L57.3722 98.5369H56.3757V99.3369ZM54.5397 99.3369L53.759 99.1619L53.5405 100.137H54.5397V99.3369ZM54.7737 98.2929V97.4929H54.1331L53.993 98.1179L54.7737 98.2929ZM57.9237 98.2929L58.706 98.4598L58.9124 97.4929H57.9237V98.2929ZM56.3757 105.547V106.347H57.0229L57.158 105.714L56.3757 105.547ZM55.5477 105.547L54.7529 105.455L54.65 106.347H55.5477V105.547ZM55.6557 104.611L56.4504 104.703L56.7621 102.001L55.0372 104.103L55.6557 104.611ZM53.3337 104.927C52.3784 104.927 51.9416 104.61 51.7239 104.239C51.4698 103.807 51.3801 103.08 51.5969 102.038L50.0304 101.712C49.7792 102.92 49.7975 104.119 50.3444 105.05C50.9277 106.043 51.9849 106.527 53.3337 106.527V104.927ZM51.5962 102.041L53.1622 94.6609L51.5971 94.3288L50.0311 101.709L51.5962 102.041ZM53.1619 94.6625C53.393 93.5838 53.7123 92.8719 54.1304 92.4306C54.5172 92.0223 55.064 91.7669 55.9617 91.7669V90.1669C54.7173 90.1669 53.7161 90.5415 52.9689 91.3302C52.253 92.0859 51.8523 93.1379 51.5974 94.3273L53.1619 94.6625ZM55.9617 91.7669C56.9913 91.7669 57.4814 92.0946 57.721 92.4716C57.9898 92.8943 58.0936 93.6063 57.8627 94.6453L59.4246 94.9924C59.6977 93.7634 59.6665 92.5495 59.0713 91.6132C58.4469 90.6311 57.344 90.1669 55.9617 90.1669V91.7669ZM57.861 94.6531L57.537 96.1831L59.1023 96.5146L59.4263 94.9846L57.861 94.6531ZM58.3197 95.5489H56.9877V97.1489H58.3197V95.5489ZM57.7692 96.5198L58.1472 94.7918L56.5841 94.4499L56.2061 96.1779L57.7692 96.5198ZM58.1455 94.7991C58.3695 93.8193 58.4142 92.9027 58.0051 92.2095C57.5489 91.4365 56.7227 91.2289 55.9437 91.2289V92.8289C56.4966 92.8289 56.5974 92.9723 56.6272 93.0227C56.7041 93.153 56.7938 93.5325 56.5858 94.4426L58.1455 94.7991ZM55.9437 91.2289C55.3719 91.2289 54.7038 91.3319 54.1213 91.8446C53.5618 92.3372 53.1986 93.1059 52.9664 94.1608L54.5289 94.5049C54.7287 93.5978 54.9865 93.2146 55.1785 93.0456C55.3475 92.8969 55.5614 92.8289 55.9437 92.8289V91.2289ZM52.9652 94.1661L51.3272 101.852L52.8921 102.186L54.5301 94.4996L52.9652 94.1661ZM51.3277 101.85C51.1055 102.878 51.0703 103.806 51.4851 104.495C51.9491 105.265 52.7761 105.447 53.5137 105.447V103.847C52.9732 103.847 52.8822 103.713 52.8557 103.669C52.78 103.544 52.6818 103.158 52.8916 102.188L51.3277 101.85ZM53.5137 105.447C54.386 105.447 55.1152 105.193 55.6491 104.529C56.1213 103.942 56.3657 103.114 56.564 102.186L54.9993 101.852C54.8016 102.777 54.614 103.263 54.4023 103.527C54.2521 103.713 54.0453 103.847 53.5137 103.847V105.447ZM56.5627 102.192L57.1567 99.5099L55.5946 99.1639L55.0006 101.846L56.5627 102.192ZM56.3757 98.5369H54.5397V100.137H56.3757V98.5369ZM55.3203 99.5118L55.5543 98.4678L53.993 98.1179L53.759 99.1619L55.3203 99.5118ZM54.7737 99.0929H57.9237V97.4929H54.7737V99.0929ZM57.1413 98.1259L55.5933 105.38L57.158 105.714L58.706 98.4598L57.1413 98.1259ZM56.3757 104.747H55.5477V106.347H56.3757V104.747ZM56.3424 105.639L56.4504 104.703L54.8609 104.519L54.7529 105.455L56.3424 105.639ZM55.0372 104.103C54.5946 104.643 54.0923 104.927 53.3337 104.927V106.527C54.627 106.527 55.5647 105.983 56.2741 105.118L55.0372 104.103ZM59.7335 105.547L58.9832 105.269L58.5845 106.347H59.7335V105.547ZM65.0615 91.1469V90.3469H64.5045L64.3112 90.8693L65.0615 91.1469ZM66.9335 91.1469L67.7323 91.1898L67.7777 90.3469H66.9335V91.1469ZM66.1595 105.547V106.347H66.9177L66.9583 105.59L66.1595 105.547ZM64.8455 105.547L64.0474 105.492L63.9891 106.347H64.8455V105.547ZM65.0615 102.379L65.8596 102.433L65.9179 101.579H65.0615V102.379ZM62.1995 102.379V101.579H61.6362L61.4463 102.109L62.1995 102.379ZM61.0655 105.547V106.347H61.6288L61.8187 105.816L61.0655 105.547ZM62.5955 101.299L61.8423 101.029L61.4594 102.099H62.5955V101.299ZM65.1335 101.299V102.099H65.8796L65.9316 101.355L65.1335 101.299ZM65.7455 92.5329L66.5436 92.5886L66.5455 92.5608V92.5329H65.7455ZM65.7455 92.4969H66.5455L64.9866 92.2439L65.7455 92.4969ZM65.7275 92.5509L66.4807 92.8205L66.4837 92.8122L66.4864 92.8039L65.7275 92.5509ZM60.4838 105.824L65.8118 91.4245L64.3112 90.8693L58.9832 105.269L60.4838 105.824ZM65.0615 91.9469H66.9335V90.3469H65.0615V91.9469ZM66.1347 91.1039L65.3607 105.504L66.9583 105.59L67.7323 91.1898L66.1347 91.1039ZM66.1595 104.747H64.8455V106.347H66.1595V104.747ZM65.6436 105.601L65.8596 102.433L64.2634 102.324L64.0474 105.492L65.6436 105.601ZM65.0615 101.579H62.1995V103.179H65.0615V101.579ZM61.4463 102.109L60.3123 105.277L61.8187 105.816L62.9527 102.648L61.4463 102.109ZM61.0655 104.747H59.7335V106.347H61.0655V104.747ZM62.5955 102.099H65.1335V100.499H62.5955V102.099ZM65.9316 101.355L66.5436 92.5886L64.9474 92.4772L64.3354 101.243L65.9316 101.355ZM66.5455 92.5329V92.4969H64.9455V92.5329H66.5455ZM64.9866 92.2439L64.9686 92.2979L66.4864 92.8039L66.5044 92.7499L64.9866 92.2439ZM64.9743 92.2812L61.8423 101.029L63.3487 101.569L66.4807 92.8205L64.9743 92.2812ZM69.682 105.547L68.8991 105.382L68.6966 106.347H69.682V105.547ZM72.706 91.1469V90.3469H72.0566L71.9231 90.9825L72.706 91.1469ZM74.02 91.1469L74.803 91.3109L75.0049 90.3469H74.02V91.1469ZM71.23 104.467L70.447 104.303L70.2451 105.267H71.23V104.467ZM75.046 104.467L75.8279 104.636L76.0379 103.667H75.046V104.467ZM74.812 105.547V106.347H75.4572L75.5939 105.716L74.812 105.547ZM70.4649 105.711L73.4889 91.3113L71.9231 90.9825L68.8991 105.382L70.4649 105.711ZM72.706 91.9469H74.02V90.3469H72.706V91.9469ZM73.237 90.9829L70.447 104.303L72.013 104.631L74.803 91.3109L73.237 90.9829ZM71.23 105.267H75.046V103.667H71.23V105.267ZM74.2642 104.297L74.0302 105.377L75.5939 105.716L75.8279 104.636L74.2642 104.297ZM74.812 104.747H69.682V106.347H74.812V104.747ZM78.244 101.857L77.4616 101.69L77.4605 101.695L78.244 101.857ZM80.53 91.1469V90.3469H79.8827L79.7476 90.9799L80.53 91.1469ZM81.844 91.1469L82.6264 91.3134L82.8322 90.3469H81.844V91.1469ZM79.522 102.055L78.7395 101.888L78.7389 101.891L79.522 102.055ZM83.14 102.361L82.3576 102.194L82.3569 102.197L83.14 102.361ZM85.534 91.1469V90.3469H84.8867L84.7516 90.9799L85.534 91.1469ZM86.866 91.1469L87.6482 91.3143L87.8553 90.3469H86.866V91.1469ZM84.508 102.163L83.7257 101.995L83.7242 102.002L84.508 102.163ZM80.926 104.927C79.9015 104.927 79.4209 104.598 79.1834 104.218C78.9136 103.787 78.8117 103.064 79.0275 102.019L77.4605 101.695C77.2082 102.918 77.2413 104.13 77.8266 105.066C78.4441 106.054 79.5384 106.527 80.926 106.527V104.927ZM79.0263 102.024L81.3123 91.3139L79.7476 90.9799L77.4616 101.69L79.0263 102.024ZM80.53 91.9469H81.844V90.3469H80.53V91.9469ZM81.0615 90.9803L78.7395 101.888L80.3044 102.221L82.6264 91.3134L81.0615 90.9803ZM78.7389 101.891C78.5254 102.912 78.4981 103.833 78.9119 104.517C79.3746 105.281 80.1926 105.465 80.926 105.465V103.865C80.3994 103.865 80.3083 103.734 80.2805 103.688C80.2038 103.561 80.1045 103.177 80.305 102.219L78.7389 101.891ZM80.926 105.465C81.483 105.465 82.1567 105.369 82.7482 104.864C83.3234 104.373 83.6984 103.599 83.923 102.525L82.3569 102.197C82.1675 103.103 81.9036 103.481 81.7093 103.647C81.5313 103.799 81.3049 103.865 80.926 103.865V105.465ZM83.9223 102.528L86.3163 91.3139L84.7516 90.9799L82.3576 102.194L83.9223 102.528ZM85.534 91.9469H86.866V90.3469H85.534V91.9469ZM86.0837 90.9794L83.7257 101.995L85.2902 102.33L87.6482 91.3143L86.0837 90.9794ZM83.7242 102.002C83.5022 103.087 83.1824 103.807 82.762 104.254C82.372 104.669 81.821 104.927 80.926 104.927V106.527C82.173 106.527 83.1789 106.146 83.9275 105.35C84.6455 104.587 85.0457 103.525 85.2917 102.323L83.7242 102.002ZM92.9903 105.547L92.2859 105.926L92.5125 106.347H92.9903V105.547ZM93.0623 104.251L93.8428 104.427L93.8453 104.415L93.0623 104.251ZM93.6023 101.677L92.8203 101.508L92.8194 101.513L93.6023 101.677ZM90.6143 98.9949V98.1949H89.9659L89.8316 98.8293L90.6143 98.9949ZM89.2283 105.547V106.347H89.8768L90.011 105.712L89.2283 105.547ZM87.9143 105.547L87.1318 105.381L86.9265 106.347H87.9143V105.547ZM90.9743 91.1469V90.3469H90.3265L90.1918 90.9806L90.9743 91.1469ZM96.3743 94.9449L95.5921 94.7773L95.5917 94.7789L96.3743 94.9449ZM96.2483 95.5389L95.4657 95.3729L95.4652 95.3754L96.2483 95.5389ZM93.5843 98.4909L93.3923 97.7143L90.8421 98.345L93.3109 99.2427L93.5843 98.4909ZM94.8983 101.821L94.1162 101.653L94.1157 101.655L94.8983 101.821ZM94.3763 104.287L95.1589 104.453L95.159 104.453L94.3763 104.287ZM94.2863 105.547V106.347H95.5807L95.0019 105.189L94.2863 105.547ZM90.8303 97.9689L90.0481 97.8013L89.8407 98.7689H90.8303V97.9689ZM94.8623 95.7549L94.0801 95.5872L94.0791 95.5921L94.8623 95.7549ZM95.0243 94.9989L95.8066 95.1665L95.8069 95.1649L95.0243 94.9989ZM92.0723 92.1729V91.3729H91.4256L91.2901 92.0053L92.0723 92.1729ZM93.6947 105.168C93.7313 105.235 93.7298 105.274 93.7266 105.244C93.7241 105.218 93.7226 105.167 93.7293 105.084C93.7427 104.916 93.7823 104.695 93.8427 104.427L92.282 104.075C92.2164 104.365 92.1569 104.674 92.1344 104.957C92.1152 105.197 92.1041 105.588 92.2859 105.926L93.6947 105.168ZM93.8453 104.415L94.3853 101.841L92.8194 101.513L92.2794 104.087L93.8453 104.415ZM94.3843 101.846C94.6856 100.45 94.4563 99.4161 93.7178 98.7882C93.0586 98.2277 92.2018 98.1949 91.7843 98.1949V99.7949C92.1768 99.7949 92.4991 99.8521 92.6814 100.007C92.7843 100.095 93.0591 100.402 92.8203 101.508L94.3843 101.846ZM91.7843 98.1949H90.6143V99.7949H91.7843V98.1949ZM89.8316 98.8293L88.4456 105.381L90.011 105.712L91.397 99.1604L89.8316 98.8293ZM89.2283 104.747H87.9143V106.347H89.2283V104.747ZM88.6969 105.713L91.7569 91.3132L90.1918 90.9806L87.1318 105.381L88.6969 105.713ZM90.9743 91.9469H93.5303V90.3469H90.9743V91.9469ZM93.5303 91.9469C94.5752 91.9469 95.1247 92.2315 95.3972 92.5873C95.678 92.9539 95.8398 93.6212 95.5921 94.7773L97.1566 95.1125C97.4489 93.7485 97.3586 92.5168 96.6674 91.6144C95.968 90.7012 94.8254 90.3469 93.5303 90.3469V91.9469ZM95.5917 94.7789L95.4657 95.3729L97.0309 95.7049L97.1569 95.1109L95.5917 94.7789ZM95.4652 95.3754C95.3067 96.1343 95.097 96.6176 94.8092 96.9523C94.5326 97.274 94.1175 97.5349 93.3923 97.7143L93.7764 99.2675C94.7252 99.0328 95.471 98.6368 96.0224 97.9954C96.5627 97.3671 96.8479 96.5814 97.0314 95.7024L95.4652 95.3754ZM93.3109 99.2427C93.689 99.3802 93.9367 99.627 94.0778 99.9842C94.2279 100.364 94.2742 100.918 94.1162 101.653L95.6804 101.989C95.8825 101.05 95.8658 100.155 95.5658 99.3961C95.257 98.6147 94.6677 98.0336 93.8577 97.739L93.3109 99.2427ZM94.1157 101.655L93.5937 104.121L95.159 104.453L95.681 101.987L94.1157 101.655ZM93.5937 104.121C93.5305 104.419 93.4721 104.719 93.4471 104.983C93.4258 105.208 93.4071 105.577 93.5708 105.905L95.0019 105.189C95.0374 105.26 95.0365 105.303 95.0346 105.279C95.0331 105.26 95.0324 105.214 95.04 105.134C95.0555 104.97 95.0962 104.749 95.1589 104.453L93.5937 104.121ZM94.2863 104.747H92.9903V106.347H94.2863V104.747ZM90.8303 98.7689H91.9283V97.1689H90.8303V98.7689ZM91.9283 98.7689C93.0687 98.7689 93.96 98.5475 94.6041 97.9835C95.2418 97.4251 95.4928 96.653 95.6456 95.9176L94.0791 95.5921C93.9438 96.2428 93.7809 96.5776 93.55 96.7798C93.3257 96.9762 92.894 97.1689 91.9283 97.1689V98.7689ZM95.6446 95.9225L95.8066 95.1665L94.2421 94.8313L94.0801 95.5873L95.6446 95.9225ZM95.8069 95.1649C95.9389 94.5425 96.0094 93.9966 95.9929 93.5269C95.9763 93.0544 95.8695 92.5976 95.5881 92.2183C95.2999 91.8297 94.9016 91.6202 94.4937 91.5087C94.1002 91.401 93.6566 91.3729 93.2063 91.3729V92.9729C93.611 92.9729 93.8852 93.001 94.0716 93.052C94.2437 93.099 94.2875 93.1505 94.303 93.1715C94.3254 93.2016 94.384 93.3028 94.3939 93.583C94.4038 93.8659 94.3617 94.2673 94.2417 94.8329L95.8069 95.1649ZM93.2063 91.3729H92.0723V92.9729H93.2063V91.3729ZM91.2901 92.0053L90.0481 97.8013L91.6126 98.1365L92.8546 92.3405L91.2901 92.0053ZM98.7091 101.857L97.9267 101.69L97.9256 101.695L98.7091 101.857ZM100.995 91.1469V90.3469H100.348L100.213 90.9799L100.995 91.1469ZM102.309 91.1469L103.092 91.3134L103.297 90.3469H102.309V91.1469ZM99.9871 102.055L99.2047 101.888L99.2041 101.891L99.9871 102.055ZM103.605 102.361L102.823 102.194L102.822 102.197L103.605 102.361ZM105.999 91.1469V90.3469H105.352L105.217 90.9799L105.999 91.1469ZM107.331 91.1469L108.113 91.3143L108.32 90.3469H107.331V91.1469ZM104.973 102.163L104.191 101.995L104.189 102.002L104.973 102.163ZM101.391 104.927C100.367 104.927 99.886 104.598 99.6485 104.218C99.3788 103.787 99.2769 103.064 99.4926 102.019L97.9256 101.695C97.6733 102.918 97.7065 104.13 98.2917 105.066C98.9092 106.054 100.004 106.527 101.391 106.527V104.927ZM99.4915 102.024L101.778 91.3139L100.213 90.9799L97.9268 101.69L99.4915 102.024ZM100.995 91.9469H102.309V90.3469H100.995V91.9469ZM101.527 90.9803L99.2047 101.888L100.77 102.221L103.092 91.3134L101.527 90.9803ZM99.2041 101.891C98.9905 102.912 98.9633 103.833 99.3771 104.517C99.8398 105.281 100.658 105.465 101.391 105.465V103.865C100.865 103.865 100.773 103.734 100.746 103.688C100.669 103.561 100.57 103.177 100.77 102.219L99.2041 101.891ZM101.391 105.465C101.948 105.465 102.622 105.369 103.213 104.864C103.789 104.373 104.164 103.599 104.388 102.525L102.822 102.197C102.633 103.103 102.369 103.481 102.174 103.647C101.996 103.799 101.77 103.865 101.391 103.865V105.465ZM104.387 102.528L106.781 91.3139L105.217 90.9799L102.823 102.194L104.387 102.528ZM105.999 91.9469H107.331V90.3469H105.999V91.9469ZM106.549 90.9794L104.191 101.995L105.755 102.33L108.113 91.3143L106.549 90.9794ZM104.189 102.002C103.967 103.087 103.648 103.807 103.227 104.254C102.837 104.669 102.286 104.927 101.391 104.927V106.527C102.638 106.527 103.644 106.146 104.393 105.35C105.111 104.587 105.511 103.525 105.757 102.323L104.189 102.002Z" fill="#EA337D"/>
</svg>
