<svg width="136" height="40" viewBox="0 0 136 40" fill="none" xmlns="http://www.w3.org/2000/svg">
<g clip-path="url(#clip0_2573_5197)">
<path d="M0.617188 38.9781V23.4375H74.627V38.9781H0.617188ZM11.5644 32.666C11.6603 32.6706 11.7547 32.6737 11.8506 32.6783C12.1678 33.6422 12.4339 34.6261 12.8268 35.5559C12.963 35.8777 13.3915 36.2119 13.7319 36.266C13.9423 36.3001 14.3507 35.8669 14.473 35.5637C14.8783 34.5565 15.1939 33.5138 15.5435 32.4849C15.6302 32.4973 15.7168 32.5112 15.8035 32.5236V36.2227H18.582V26.0351C17.8797 26.0351 17.25 26.1171 16.6482 26.0181C15.5064 25.8293 15.0732 26.3662 14.821 27.3857C14.5457 28.5012 14.1032 29.5764 13.6592 30.8852C13.178 29.4279 12.7959 28.1624 12.3271 26.9278C12.1956 26.5812 11.829 26.1187 11.5242 26.08C10.616 25.967 9.68624 26.0397 8.77037 26.0397V36.2165H11.566V32.666H11.5644ZM33.0242 36.2598C35.1591 36.2598 37.1719 36.3264 39.1754 36.2134C39.6875 36.184 40.5446 35.6317 40.5925 35.2419C40.738 34.0351 40.5786 32.7913 40.5121 31.5629C40.4997 31.337 40.2785 31.108 40.3032 30.8992C40.4239 29.9121 40.6266 28.9344 40.7426 27.9473C40.8726 26.835 40.1903 26.1759 39.2156 26.1217C37.1765 26.0104 35.1282 26.0877 33.0257 26.0877V36.2598H33.0242ZM29.6902 31.2117C29.6902 30.1844 29.6979 29.1571 29.6886 28.1283C29.6747 26.753 29.1456 26.1171 27.8043 26.0506C26.4629 25.9841 25.1108 25.9701 23.7725 26.0599C22.7514 26.1279 21.9501 26.6586 21.9315 27.8065C21.8959 30.0405 21.9067 32.2745 21.9315 34.507C21.9423 35.4832 22.459 36.1717 23.4538 36.2227C25.0148 36.3032 26.5867 36.3186 28.1462 36.2289C29.1703 36.1701 29.7319 35.5219 29.6994 34.4265C29.6685 33.356 29.6933 32.2823 29.6917 31.2101L29.6902 31.2117ZM62.8861 30.0792V28.1701H66.5528V26.1465H59.9343V36.1825H66.5466V34.0986H62.8954V32.1833C63.8716 32.1307 64.7829 32.0827 65.6802 32.0347V30.0792H62.8861ZM50.347 26.0831V36.2103H57.049V34.114H53.2741V26.0831H50.347ZM44.0843 26.1202V36.2428H46.9078V26.1202H44.0843Z" fill="white"/>
<path d="M35.94 18.9828H31.9594V4.7124H27.8472V18.9596H23.8774V4.68146H21.1406V1.09375H38.7418V4.60256H35.94V18.9828Z" fill="white"/>
<path d="M113.602 19.0323V1.02413C116.208 1.02413 118.752 0.952962 121.288 1.05507C122.509 1.10458 123.205 2.20456 123.227 3.84912C123.268 7.06398 123.256 10.2788 123.253 13.4953C123.253 14.5659 123.267 15.6411 123.179 16.7071C123.053 18.2217 122.15 19.0184 120.621 19.0292C118.304 19.0447 115.985 19.0339 113.602 19.0339V19.0323ZM117.553 4.338V15.6953C118.742 15.8438 119.337 15.3946 119.339 14.3477C119.342 11.4918 119.275 8.63273 119.376 5.77989C119.424 4.4169 118.971 3.97289 117.552 4.33645L117.553 4.338Z" fill="white"/>
<path d="M8.8683 9.92713C9.95436 10.4176 10.3736 11.5949 10.321 13.0492C10.2823 14.1198 10.338 15.1919 10.3024 16.2625C10.2421 18.133 9.31077 19.0334 7.4589 19.0396C5.22644 19.0473 2.99244 19.0411 0.664062 19.0411V1.06539C3.2539 1.06539 5.88086 0.940071 8.48772 1.12263C9.63721 1.20308 10.2251 2.32317 10.2869 3.48658C10.3519 4.68868 10.4788 5.92945 10.2514 7.08976C10.0673 8.03349 9.39895 8.88285 8.8683 9.92713ZM4.54418 11.5578V16.015C5.80042 16.1532 6.42647 15.6329 6.42235 14.454C6.4208 14.01 6.42235 13.5659 6.42389 13.1219C6.42596 11.9998 5.79938 11.4789 4.54418 11.5594V11.5578ZM4.51942 8.88594C5.30999 8.49143 6.26919 8.28257 6.32179 7.93757C6.51053 6.68443 6.39605 5.38487 6.39605 4.01878H4.51942V8.88594Z" fill="white"/>
<path d="M112.081 1.1257V19.038C111.272 19.038 110.517 18.9776 109.776 19.0535C108.934 19.1401 108.6 18.7626 108.377 18.0138C107.71 15.7628 106.983 13.5303 105.999 11.3072V18.9529H102.484V1.01121C103.34 1.01121 104.138 1.05763 104.927 0.998837C105.699 0.941595 106.007 1.25256 106.224 1.98433C106.9 4.27403 107.67 6.53588 108.702 8.77917V1.1257H112.081Z" fill="white"/>
<path d="M73.5122 18.9908H69.6367V1.06302C72.2064 1.06302 74.8303 0.97638 77.4402 1.13264C77.9879 1.16512 78.8852 2.06089 78.9285 2.6132C79.0987 4.81162 79.0167 7.03015 78.9688 9.2394C78.9626 9.53799 78.6748 9.94488 78.4025 10.0996C77.5253 10.6008 77.6878 11.1903 77.9663 11.9855C78.7475 14.2195 80.1399 16.3174 79.6263 19.0356C78.7305 19.0356 77.7976 19.1022 76.8848 18.9985C76.5677 18.9629 76.15 18.5576 76.0308 18.2312C75.4244 16.5603 74.9046 14.8569 74.343 13.1691C74.213 12.7761 74.0366 12.3986 73.8819 12.0134C73.7582 12.0319 73.6359 12.0505 73.5122 12.0691V18.9908ZM73.4348 8.7366C74.6942 8.84386 75.3238 8.34054 75.3238 7.22663C75.3238 6.69134 75.3238 6.15605 75.3192 5.62075C75.3084 4.04272 75.1738 3.9468 73.4348 4.32274V8.7366Z" fill="white"/>
<path d="M80.5692 10.0424C80.5692 7.98787 80.5522 5.93179 80.5738 3.87725C80.5955 1.9078 81.4959 1.01667 83.4375 1.0043C84.7819 0.995015 86.1263 1.00275 87.4708 1.00894C89.188 1.01667 90.223 1.86139 90.2493 3.56783C90.3159 7.85482 90.319 12.145 90.2493 16.432C90.2199 18.2096 89.1942 19.028 87.3702 19.0342C85.9809 19.0388 84.5916 19.0481 83.2023 19.0326C81.5872 19.014 80.6125 18.0935 80.5831 16.4753C80.5429 14.3325 80.5738 12.1867 80.5738 10.0424H80.5692ZM86.2439 15.7172C86.2857 15.4356 86.3677 15.1324 86.3692 14.8307C86.377 11.6592 86.363 8.48913 86.377 5.31759C86.3801 4.60748 86.2888 4.09848 85.3837 4.11086C84.4957 4.12324 84.3874 4.60902 84.392 5.33152C84.4153 8.32359 84.4044 11.3157 84.4075 14.3078C84.4075 15.974 84.4539 16.0096 86.2439 15.7156V15.7172Z" fill="white"/>
<path d="M68.2293 6.92194H64.1697C64.1697 6.35416 64.1326 5.79411 64.179 5.24025C64.2393 4.52085 64.0227 4.16657 63.2275 4.17275C62.4029 4.18049 62.29 4.61986 62.2946 5.29285C62.3147 8.28802 62.3055 11.2817 62.307 14.2769C62.307 15.3619 62.9238 15.8456 64.1573 15.728C64.1573 14.6977 64.5874 13.0856 64.0769 12.6957C62.4803 11.4782 63.6066 10.0331 63.1053 8.66087H68.1272C68.1272 11.3003 68.22 13.9272 68.0947 16.5434C68.0096 18.3194 67.0566 19.028 65.265 19.0357C63.8293 19.0419 62.3952 19.0574 60.9595 19.0357C59.5454 19.0141 58.5213 18.1477 58.5043 16.746C58.4517 12.278 58.4517 7.80842 58.5043 3.33887C58.5213 1.86759 59.5362 1.02287 61.0508 1.0074C62.5747 0.991933 64.1001 1.00431 65.6255 1.01204C66.9282 1.01823 67.7961 1.66801 67.9802 2.93353C68.1643 4.19905 68.1473 5.49242 68.2262 6.91884L68.2293 6.92194Z" fill="white"/>
<path d="M101.057 1.08594C101.057 6.3476 101.087 11.4855 101.04 16.6219C101.026 18.1473 99.9819 19.0245 98.4163 19.0384C97.0254 19.0508 95.6346 19.0555 94.2438 19.0384C92.7616 19.0183 91.6864 18.169 91.6679 16.6992C91.5998 11.5227 91.6415 6.34605 91.6415 1.09058H95.5743V15.6689C96.8212 16.0789 97.2405 15.7416 97.2235 14.5364C97.1678 10.5572 97.2018 6.57657 97.2018 2.5959C97.2018 2.1163 97.2018 1.63825 97.2018 1.08748H101.059L101.057 1.08594Z" fill="white"/>
<path d="M134.214 7.18675H130.346C130.346 6.49675 130.323 5.88101 130.352 5.26526C130.386 4.56134 130.17 4.19158 129.374 4.17766C128.528 4.16373 128.462 4.61084 128.446 5.27919C128.397 7.41263 128.373 7.42191 130.32 8.19855C134.554 9.88953 134.226 9.38672 134.231 13.9615C134.231 14.8557 134.262 15.753 134.2 16.6442C134.101 18.0814 133.095 19.0159 131.664 19.0344C130.228 19.0545 128.793 19.0437 127.355 19.0375C125.544 19.0298 124.65 18.2052 124.486 16.3951C124.465 16.1723 124.475 15.948 124.475 15.7252C124.475 14.7443 124.475 13.7635 124.475 12.679H128.485V16.1336C129.286 15.7654 130.272 15.4869 130.256 15.2889C130.174 14.2632 130.979 12.9605 129.647 12.2489C128.547 11.6594 127.38 11.186 126.223 10.7095C125.047 10.2237 124.476 9.3728 124.478 8.11965C124.478 6.68859 124.453 5.25598 124.484 3.82647C124.523 2.06433 125.635 0.829749 127.453 0.990647C128.833 1.11287 130.233 0.999929 131.624 1.01849C133.078 1.03706 134.107 1.93747 134.197 3.37317C134.274 4.61084 134.212 5.8578 134.212 7.18675H134.214Z" fill="white"/>
<path d="M19.1513 1.01997C19.7887 7.0985 21.3389 12.8986 21.4224 18.9678H17.7141C17.615 17.8338 17.5207 16.7416 17.4201 15.5998H15.4367C15.3161 16.675 15.1938 17.7642 15.0608 18.9477H11.207C11.4793 16.6255 11.7005 14.3436 12.0208 12.0755C12.488 8.76781 13.0542 5.4756 13.5122 2.16636C13.6235 1.36342 13.8154 0.96118 14.7204 1.00295C16.1453 1.06948 17.5764 1.01997 19.1498 1.01997H19.1513ZM16.6156 6.13156C16.4795 6.13002 16.3449 6.12847 16.2087 6.12692C16.0417 7.99426 15.873 9.86161 15.6951 11.8497C16.2675 11.7986 16.6357 11.7646 17.0968 11.7228C16.9297 9.78425 16.7719 7.95868 16.6156 6.13311V6.13156Z" fill="white"/>
<path d="M56.9472 18.9781H48.8203V1.08594H56.828V4.67055H52.688V7.98442H56.5604V11.7315H52.6834V15.2883H56.9456V18.9781H56.9472Z" fill="white"/>
<path d="M90.3789 24.9709C91.2469 24.9709 92.0544 24.8935 92.8326 25.008C93.1637 25.056 93.5598 25.449 93.7129 25.7831C94.5097 27.5236 95.2384 29.295 96.2239 31.051V25.0359H99.0164V37.1976C96.7607 37.7066 96.589 37.6292 95.6901 35.6056C94.9181 33.8667 94.1539 32.1231 93.1838 30.4043V37.2997H90.3805V24.9724L90.3789 24.9709Z" fill="white"/>
<path d="M39.7422 1.07812H43.5403V15.3269H47.6432V18.944H39.7422V1.07812Z" fill="white"/>
<path d="M103.75 24.9716C105.924 24.9716 107.934 24.922 109.942 24.9855C111.771 25.0443 112.365 25.7389 112.368 27.58C112.371 30.1218 112.341 32.6652 112.385 35.2071C112.406 36.4649 111.811 37.2354 110.629 37.2864C108.365 37.3854 106.094 37.3158 103.752 37.3158V24.9716H103.75ZM109.468 35.3711V26.9921H106.529V35.3711H109.468Z" fill="white"/>
<path d="M134.036 37.2942H131.214C130.95 36.779 130.764 35.8833 130.397 35.8028C129.417 35.5878 128.358 35.71 127.333 35.7301C127.201 35.7332 126.978 35.9096 126.957 36.0349C126.556 38.2921 124.908 37.0823 123.586 37.4319C124.74 33.3321 125.81 29.4891 126.929 25.6585C127.012 25.3739 127.427 25.0196 127.715 24.9933C128.64 24.9082 129.577 24.9623 130.565 24.9623C131.728 29.0946 132.867 33.1372 134.038 37.2942H134.036ZM127.495 33.7606H130.184C129.768 32.161 129.379 30.6603 128.99 29.1611C128.884 29.1611 128.781 29.1611 128.676 29.1627C128.289 30.6696 127.902 32.1764 127.495 33.7606Z" fill="white"/>
<path d="M117.012 25.0234H119.753V37.3027H117.012V25.0234Z" fill="white"/>
<path d="M85.6431 37.3138H83.0625V25.0469H85.6431V37.3138Z" fill="white"/>
<path d="M36.0156 29.9335V28.2812H37.674V29.9335H36.0156Z" fill="white"/>
<path d="M36.0273 32.1641H37.6796V34.0361H36.0273V32.1641Z" fill="white"/>
<path d="M24.9688 28.2344H26.6489V34.0979H24.9688V28.2344Z" fill="white"/>
</g>
<defs>
<clipPath id="clip0_2573_5197">
<rect width="135" height="39" fill="white" transform="translate(0.0585938 0.976562)"/>
</clipPath>
</defs>
</svg>
