<svg width="71" height="40" viewBox="0 0 71 40" fill="none" xmlns="http://www.w3.org/2000/svg">
<path d="M18.2321 18.4839L13.8223 39.1597L17.3659 39.9155L21.7758 19.2397L18.2321 18.4839Z" fill="black"/>
<path d="M8.86616 30.1587L5.61133 31.749L9.64278 40.0001L12.8976 38.4098L8.86616 30.1587Z" fill="black"/>
<path d="M10.8148 22.3884L9.20281 30.041L12.7481 30.7884L14.8205 20.9504L13.0482 18.765L4.35049 18.7666L0 39.1608L3.54367 39.9164L7.28254 22.3884H10.8148Z" fill="black"/>
<path d="M39.9629 20.7969L37.1911 18.4626L25.5979 32.2307L28.3673 19.2516L24.8236 18.4952L20.4219 39.1301L23.9647 39.8865L39.9629 20.7969Z" fill="black"/>
<path d="M45.1232 18.4951L29.125 37.5847L31.8968 39.919L43.49 26.151L40.7206 39.1301L44.2643 39.8865L48.666 19.2515L45.1232 18.4951Z" fill="black"/>
<path d="M55.1253 19.1643L51.5817 18.4087L47.6191 36.9827L49.3906 39.1721H57.201V35.5496H51.6297L55.1253 19.1643Z" fill="black"/>
<path d="M66.8081 27.2368H60.478L65.8614 20.2072L62.9846 18.0039L55.3418 27.9834L56.7985 30.8968H63.131L57.881 37.6962L60.7586 39.8979L68.2648 30.0867L66.8081 27.2368Z" fill="black"/>
<path d="M31.8253 0.200684H28.6281L25.252 16.089H27.3365H28.4491H31.587L32.1628 13.4278H29.0144L31.8253 0.200684Z" fill="black"/>
<path d="M40.3038 0.200684H37.1066L33.7305 16.089H35.815H36.9277H40.0655L40.6413 13.4278H37.4929L40.3038 0.200684Z" fill="black"/>
<path d="M51.2674 2.86202L51.8424 0.200806H48.7843H47.6521H45.5871L42.2109 16.0892H44.276H45.4081H48.4662L49.0429 13.428H45.9742L46.8176 9.45567H49.6976L50.2539 6.83431H47.3748L48.219 2.86202H51.2674Z" fill="black"/>
<path d="M70.1541 2.86189L70.7299 0.200684H67.671H66.5388H64.4738L61.0977 16.089H63.1627H64.2948H67.353L67.9296 13.4278H64.8609L65.7043 9.45554H68.5843L69.1407 6.83419H66.2615L67.1057 2.86189H70.1541Z" fill="black"/>
<path d="M13.8921 0.518905C13.2829 0.174867 12.5143 0.00244141 11.5879 0.00244141C10.7673 0.00244141 10.0751 0.16104 9.51313 0.479052C8.95031 0.797063 8.48021 1.28994 8.10282 1.9585C7.72544 2.62705 7.41719 3.51114 7.1797 4.60995L5.65064 11.8583C5.42535 12.8782 5.42941 13.7192 5.6604 14.3805C5.8922 15.0425 6.31269 15.5256 6.92187 15.8306C7.53024 16.1348 8.29883 16.2877 9.22522 16.2877C10.0597 16.2877 10.7575 16.1389 11.3203 15.8412C11.8832 15.5435 12.346 15.0637 12.7103 14.4016C13.0739 13.7396 13.3756 12.8327 13.6139 11.681L14.0507 9.6355H10.7933L10.1386 12.6936C10.0849 12.9588 10.0255 13.167 9.95965 13.3191C9.89296 13.472 9.80675 13.5777 9.70183 13.6363C9.59609 13.6964 9.47003 13.7257 9.32444 13.7257C9.139 13.7257 8.99342 13.6891 8.88768 13.6167C8.78195 13.5444 8.71526 13.4215 8.68923 13.2491C8.66239 13.0775 8.67622 12.8587 8.72909 12.5936L10.6559 3.61768C10.7217 3.33953 10.7909 3.12399 10.8641 2.9719C10.9373 2.81981 11.0259 2.71408 11.1325 2.65389C11.2382 2.59452 11.3708 2.56442 11.5302 2.56442C11.7018 2.56442 11.8409 2.60428 11.9474 2.68317C12.0532 2.76288 12.1158 2.88488 12.1361 3.0508C12.1556 3.21671 12.1329 3.44526 12.067 3.73562L11.4318 6.65547H14.6883L15.1056 4.68965C15.3309 3.62988 15.3366 2.75637 15.1251 2.06829C14.9136 1.38022 14.5029 0.863756 13.8937 0.518905" fill="black"/>
<path d="M22.2329 3.65672L20.2867 12.6928C20.22 12.971 20.1476 13.1857 20.0679 13.3378C19.9882 13.4907 19.8995 13.5932 19.7995 13.6452C19.7002 13.6981 19.5709 13.7249 19.4123 13.7249C19.2269 13.7249 19.0846 13.6916 18.9853 13.6257C18.8861 13.559 18.8267 13.4468 18.8064 13.2882C18.7869 13.1296 18.8031 12.9246 18.856 12.6725L20.8023 3.61606C20.8552 3.35172 20.9178 3.1427 20.991 2.98979C21.0634 2.8377 21.1528 2.72872 21.2594 2.66202C21.3651 2.59614 21.5042 2.5628 21.6766 2.5628C21.8491 2.5628 21.9841 2.5994 22.0841 2.67178C22.1833 2.74498 22.246 2.86373 22.2728 3.02883C22.2988 3.19475 22.2858 3.40296 22.2329 3.65428M25.2715 2.15532C25.0731 1.44691 24.6721 0.910927 24.0703 0.546556C23.4676 0.182999 22.69 0 21.7368 0C20.8893 0 20.1842 0.158599 19.6214 0.47661C19.0585 0.794622 18.5957 1.28424 18.2314 1.94629C17.867 2.60834 17.5661 3.49568 17.3278 4.6075L15.8182 11.7371C15.5938 12.7831 15.5864 13.6403 15.7987 14.3089C16.0102 14.9774 16.4144 15.4744 17.0106 15.7981C17.6059 16.1226 18.3875 16.2845 19.3538 16.2845C20.2143 16.2845 20.9259 16.125 21.4888 15.8078C22.0516 15.4898 22.5144 15.001 22.8787 14.3382C23.2423 13.6761 23.5375 12.7896 23.762 11.6769L25.2317 4.74658C25.457 3.72748 25.47 2.86291 25.2715 2.15451" fill="black"/>
<path d="M61.0676 2.17728C60.8619 1.46887 60.4617 0.929635 59.8663 0.558758C59.2702 0.18788 58.5089 0.00244141 57.5825 0.00244141C56.7611 0.00244141 56.0665 0.16104 55.4971 0.479052C54.9278 0.797063 54.4512 1.28994 54.0673 1.9585C53.6834 2.62705 53.3719 3.51114 53.1344 4.60995L51.6249 11.7599C51.4134 12.74 51.4061 13.5671 51.6054 14.2422C51.8038 14.9173 52.1682 15.4272 52.6977 15.7712C53.2271 16.1153 53.8697 16.2877 54.6244 16.2877C55.1271 16.2877 55.5907 16.1982 56.0144 16.0193C56.4382 15.8404 56.8286 15.5793 57.1864 15.2345L57.3849 16.0884H58.6358L60.4031 7.82666H56.5301L56.0136 10.2691H56.609L56.1128 12.6725C56.06 12.9376 55.9965 13.1426 55.9241 13.2882C55.8509 13.4346 55.7582 13.5435 55.646 13.6159C55.5329 13.6891 55.3906 13.7249 55.219 13.7249C55.0474 13.7249 54.9107 13.6851 54.8123 13.6054C54.7131 13.5256 54.6529 13.4102 54.6334 13.2581C54.6131 13.106 54.6301 12.9043 54.683 12.6521L56.609 3.61606C56.6618 3.35091 56.7245 3.1427 56.7977 2.9898C56.87 2.8377 56.9595 2.72872 57.0661 2.66202C57.1718 2.59614 57.3109 2.5628 57.4833 2.5628C57.6557 2.5628 57.794 2.60265 57.9005 2.68154C58.0063 2.76125 58.0689 2.88 58.0892 3.0386C58.1087 3.19719 58.0925 3.40297 58.0396 3.65428L57.3645 6.67336H60.6211L61.0383 4.74658C61.2636 3.7405 61.2734 2.88325 61.0684 2.17484" fill="black"/>
</svg>
