<svg width="73" height="73" viewBox="0 0 73 73" fill="none" xmlns="http://www.w3.org/2000/svg">
<rect width="72.6355" height="72.6355" rx="6" fill="#333333"/>
<path d="M55.2357 41.7358L50.875 26.1622V23.6875C50.875 23.5176 50.8075 23.3547 50.6874 23.2345C50.5672 23.1144 50.4043 23.0469 50.2344 23.0469C50.0645 23.0469 49.9015 23.1144 49.7814 23.2345C49.6612 23.3547 49.5938 23.5176 49.5938 23.6875V26.168L46.5373 37.7812H45.75V26.8906C45.75 26.5508 45.615 26.2249 45.3747 25.9846C45.1345 25.7444 44.8086 25.6094 44.4688 25.6094V23.6875C44.4688 23.3477 44.3338 23.0218 44.0935 22.7815C43.8532 22.5412 43.5273 22.4062 43.1875 22.4062H42.5469V17.2812C42.5469 16.9414 42.4119 16.6156 42.1716 16.3753C41.9313 16.135 41.6054 16 41.2656 16H29.7344C29.3946 16 29.0687 16.135 28.8284 16.3753C28.5881 16.6156 28.4531 16.9414 28.4531 17.2812V22.4062H27.8125C27.4727 22.4062 27.1468 22.5412 26.9065 22.7815C26.6662 23.0218 26.5312 23.3477 26.5312 23.6875V25.6094C26.1914 25.6094 25.8656 25.7444 25.6253 25.9846C25.385 26.2249 25.25 26.5508 25.25 26.8906V45.4688H23.9688V30.0938H16.2812C15.9414 30.0938 15.6156 30.2287 15.3753 30.469C15.135 30.7093 15 31.0352 15 31.375V56.3594C15 56.5293 15.0675 56.6922 15.1876 56.8124C15.3078 56.9325 15.4707 57 15.6406 57H36.1406V28.8125C36.1406 28.6426 36.2081 28.4796 36.3283 28.3595C36.4484 28.2394 36.6113 28.1719 36.7812 28.1719C36.9512 28.1719 37.1141 28.2394 37.2342 28.3595C37.3544 28.4796 37.4219 28.6426 37.4219 28.8125V57H38.7031V28.8125C38.7031 28.6426 38.7706 28.4796 38.8908 28.3595C39.0109 28.2394 39.1738 28.1719 39.3438 28.1719C39.5137 28.1719 39.6766 28.2394 39.7967 28.3595C39.9169 28.4796 39.9844 28.6426 39.9844 28.8125V57H41.2656V28.8125C41.2656 28.6426 41.3331 28.4796 41.4533 28.3595C41.5734 28.2394 41.7363 28.1719 41.9062 28.1719C42.0762 28.1719 42.2391 28.2394 42.3592 28.3595C42.4794 28.4796 42.5469 28.6426 42.5469 28.8125V57H55.3594C55.5293 57 55.6922 56.9325 55.8124 56.8124C55.9325 56.6922 56 56.5293 56 56.3594V42.9062C55.9996 42.6581 55.9272 42.4154 55.7915 42.2076C55.6559 41.9999 55.4628 41.836 55.2357 41.7358ZM38.7031 19.2031C38.7031 19.0332 38.7706 18.8703 38.8908 18.7501C39.0109 18.63 39.1738 18.5625 39.3438 18.5625C39.5137 18.5625 39.6766 18.63 39.7967 18.7501C39.9169 18.8703 39.9844 19.0332 39.9844 19.2031V20.4844C39.9844 20.6543 39.9169 20.8172 39.7967 20.9374C39.6766 21.0575 39.5137 21.125 39.3438 21.125C39.1738 21.125 39.0109 21.0575 38.8908 20.9374C38.7706 20.8172 38.7031 20.6543 38.7031 20.4844V19.2031ZM36.1406 19.2031C36.1406 19.0332 36.2081 18.8703 36.3283 18.7501C36.4484 18.63 36.6113 18.5625 36.7812 18.5625C36.9512 18.5625 37.1141 18.63 37.2342 18.7501C37.3544 18.8703 37.4219 19.0332 37.4219 19.2031V20.4844C37.4219 20.6543 37.3544 20.8172 37.2342 20.9374C37.1141 21.0575 36.9512 21.125 36.7812 21.125C36.6113 21.125 36.4484 21.0575 36.3283 20.9374C36.2081 20.8172 36.1406 20.6543 36.1406 20.4844V19.2031ZM33.5781 19.2031C33.5781 19.0332 33.6456 18.8703 33.7658 18.7501C33.8859 18.63 34.0488 18.5625 34.2188 18.5625C34.3887 18.5625 34.5516 18.63 34.6717 18.7501C34.7919 18.8703 34.8594 19.0332 34.8594 19.2031V20.4844C34.8594 20.6543 34.7919 20.8172 34.6717 20.9374C34.5516 21.0575 34.3887 21.125 34.2188 21.125C34.0488 21.125 33.8859 21.0575 33.7658 20.9374C33.6456 20.8172 33.5781 20.6543 33.5781 20.4844V19.2031ZM31.0156 19.2031C31.0156 19.0332 31.0831 18.8703 31.2033 18.7501C31.3234 18.63 31.4863 18.5625 31.6562 18.5625C31.8262 18.5625 31.9891 18.63 32.1092 18.7501C32.2294 18.8703 32.2969 19.0332 32.2969 19.2031V20.4844C32.2969 20.6543 32.2294 20.8172 32.1092 20.9374C31.9891 21.0575 31.8262 21.125 31.6562 21.125C31.4863 21.125 31.3234 21.0575 31.2033 20.9374C31.0831 20.8172 31.0156 20.6543 31.0156 20.4844V19.2031ZM47.0312 39.0625H49.5938V41.625H45.75V39.0625H47.0312ZM27.8125 23.6875H43.1875V25.6094H27.8125V23.6875ZM32.2969 45.4688H31.0156V28.8125C31.0156 28.6426 31.0831 28.4796 31.2033 28.3595C31.3234 28.2394 31.4863 28.1719 31.6562 28.1719C31.8262 28.1719 31.9891 28.2394 32.1092 28.3595C32.2294 28.4796 32.2969 28.6426 32.2969 28.8125V45.4688ZM28.4531 28.8125C28.4531 28.6426 28.5206 28.4796 28.6408 28.3595C28.7609 28.2394 28.9238 28.1719 29.0938 28.1719C29.2637 28.1719 29.4266 28.2394 29.5467 28.3595C29.6669 28.4796 29.7344 28.6426 29.7344 28.8125V45.4688H28.4531V28.8125ZM20.125 33.2969C20.125 33.127 20.1925 32.964 20.3126 32.8439C20.4328 32.7237 20.5957 32.6562 20.7656 32.6562C20.9355 32.6562 21.0985 32.7237 21.2186 32.8439C21.3388 32.964 21.4062 33.127 21.4062 33.2969V34.5781C21.4062 34.748 21.3388 34.911 21.2186 35.0311C21.0985 35.1513 20.9355 35.2188 20.7656 35.2188C20.5957 35.2188 20.4328 35.1513 20.3126 35.0311C20.1925 34.911 20.125 34.748 20.125 34.5781V33.2969ZM20.125 37.7812C20.125 37.6113 20.1925 37.4484 20.3126 37.3283C20.4328 37.2081 20.5957 37.1406 20.7656 37.1406C20.9355 37.1406 21.0985 37.2081 21.2186 37.3283C21.3388 37.4484 21.4062 37.6113 21.4062 37.7812V39.0625C21.4062 39.2324 21.3388 39.3953 21.2186 39.5155C21.0985 39.6356 20.9355 39.7031 20.7656 39.7031C20.5957 39.7031 20.4328 39.6356 20.3126 39.5155C20.1925 39.3953 20.125 39.2324 20.125 39.0625V37.7812ZM20.125 42.2656C20.125 42.0957 20.1925 41.9328 20.3126 41.8126C20.4328 41.6925 20.5957 41.625 20.7656 41.625C20.9355 41.625 21.0985 41.6925 21.2186 41.8126C21.3388 41.9328 21.4062 42.0957 21.4062 42.2656V43.5469C21.4062 43.7168 21.3388 43.8797 21.2186 43.9999C21.0985 44.12 20.9355 44.1875 20.7656 44.1875C20.5957 44.1875 20.4328 44.12 20.3126 43.9999C20.1925 43.8797 20.125 43.7168 20.125 43.5469V42.2656ZM18.8438 43.5469C18.8438 43.7168 18.7763 43.8797 18.6561 43.9999C18.536 44.12 18.373 44.1875 18.2031 44.1875C18.0332 44.1875 17.8703 44.12 17.7501 43.9999C17.63 43.8797 17.5625 43.7168 17.5625 43.5469V42.2656C17.5625 42.0957 17.63 41.9328 17.7501 41.8126C17.8703 41.6925 18.0332 41.625 18.2031 41.625C18.373 41.625 18.536 41.6925 18.6561 41.8126C18.7763 41.9328 18.8438 42.0957 18.8438 42.2656V43.5469ZM18.8438 39.0625C18.8438 39.2324 18.7763 39.3953 18.6561 39.5155C18.536 39.6356 18.373 39.7031 18.2031 39.7031C18.0332 39.7031 17.8703 39.6356 17.7501 39.5155C17.63 39.3953 17.5625 39.2324 17.5625 39.0625V37.7812C17.5625 37.6113 17.63 37.4484 17.7501 37.3283C17.8703 37.2081 18.0332 37.1406 18.2031 37.1406C18.373 37.1406 18.536 37.2081 18.6561 37.3283C18.7763 37.4484 18.8438 37.6113 18.8438 37.7812V39.0625ZM18.8438 34.5781C18.8438 34.748 18.7763 34.911 18.6561 35.0311C18.536 35.1513 18.373 35.2188 18.2031 35.2188C18.0332 35.2188 17.8703 35.1513 17.7501 35.0311C17.63 34.911 17.5625 34.748 17.5625 34.5781V33.2969C17.5625 33.127 17.63 32.964 17.7501 32.8439C17.8703 32.7237 18.0332 32.6562 18.2031 32.6562C18.373 32.6562 18.536 32.7237 18.6561 32.8439C18.7763 32.964 18.8438 33.127 18.8438 33.2969V34.5781ZM20.7656 46.75H33.5781V55.7188H20.7656V46.75ZM34.8594 46.75C34.8594 46.4102 34.7244 46.0843 34.4841 45.844C34.2438 45.6037 33.9179 45.4688 33.5781 45.4688V28.8125C33.5781 28.6426 33.6456 28.4796 33.7658 28.3595C33.8859 28.2394 34.0488 28.1719 34.2188 28.1719C34.3887 28.1719 34.5516 28.2394 34.6717 28.3595C34.7919 28.4796 34.8594 28.6426 34.8594 28.8125V46.75ZM54.7188 55.7188H45.75V42.9062H54.7188V55.7188Z" fill="white"/>
<path d="M47.0312 45.4688C47.0312 45.6387 47.0987 45.8016 47.2189 45.9217C47.339 46.0419 47.502 46.1094 47.6719 46.1094H52.7969C52.9668 46.1094 53.1297 46.0419 53.2499 45.9217C53.37 45.8016 53.4375 45.6387 53.4375 45.4688C53.4375 45.2988 53.37 45.1359 53.2499 45.0158C53.1297 44.8956 52.9668 44.8281 52.7969 44.8281H47.6719C47.502 44.8281 47.339 44.8956 47.2189 45.0158C47.0987 45.1359 47.0312 45.2988 47.0312 45.4688Z" fill="#DBFD67"/>
<path d="M52.7969 47.3906H47.6719C47.502 47.3906 47.339 47.4581 47.2189 47.5783C47.0987 47.6984 47.0312 47.8613 47.0312 48.0312C47.0312 48.2012 47.0987 48.3641 47.2189 48.4842C47.339 48.6044 47.502 48.6719 47.6719 48.6719H52.7969C52.9668 48.6719 53.1297 48.6044 53.2499 48.4842C53.37 48.3641 53.4375 48.2012 53.4375 48.0312C53.4375 47.8613 53.37 47.6984 53.2499 47.5783C53.1297 47.4581 52.9668 47.3906 52.7969 47.3906Z" fill="#DBFD67"/>
<path d="M52.7969 49.9531H47.6719C47.502 49.9531 47.339 50.0206 47.2189 50.1408C47.0987 50.2609 47.0312 50.4238 47.0312 50.5938C47.0312 50.7637 47.0987 50.9266 47.2189 51.0467C47.339 51.1669 47.502 51.2344 47.6719 51.2344H52.7969C52.9668 51.2344 53.1297 51.1669 53.2499 51.0467C53.37 50.9266 53.4375 50.7637 53.4375 50.5938C53.4375 50.4238 53.37 50.2609 53.2499 50.1408C53.1297 50.0206 52.9668 49.9531 52.7969 49.9531Z" fill="#DBFD67"/>
<path d="M52.7969 52.5156H47.6719C47.502 52.5156 47.339 52.5831 47.2189 52.7033C47.0987 52.8234 47.0312 52.9863 47.0312 53.1562C47.0312 53.3262 47.0987 53.4891 47.2189 53.6092C47.339 53.7294 47.502 53.7969 47.6719 53.7969H52.7969C52.9668 53.7969 53.1297 53.7294 53.2499 53.6092C53.37 53.4891 53.4375 53.3262 53.4375 53.1562C53.4375 52.9863 53.37 52.8234 53.2499 52.7033C53.1297 52.5831 52.9668 52.5156 52.7969 52.5156Z" fill="#DBFD67"/>
<path d="M23.3281 51.875C23.1582 51.875 22.9953 51.9425 22.8751 52.0626C22.755 52.1828 22.6875 52.3457 22.6875 52.5156V53.7969C22.6875 53.9668 22.755 54.1297 22.8751 54.2499C22.9953 54.37 23.1582 54.4375 23.3281 54.4375C23.498 54.4375 23.661 54.37 23.7811 54.2499C23.9013 54.1297 23.9688 53.9668 23.9688 53.7969V52.5156C23.9688 52.3457 23.9013 52.1828 23.7811 52.0626C23.661 51.9425 23.498 51.875 23.3281 51.875Z" fill="#DBFD67"/>
<path d="M23.3281 48.0312C23.1582 48.0312 22.9953 48.0987 22.8751 48.2189C22.755 48.339 22.6875 48.502 22.6875 48.6719V49.9531C22.6875 50.123 22.755 50.286 22.8751 50.4061C22.9953 50.5263 23.1582 50.5938 23.3281 50.5938C23.498 50.5938 23.661 50.5263 23.7811 50.4061C23.9013 50.286 23.9688 50.123 23.9688 49.9531V48.6719C23.9688 48.502 23.9013 48.339 23.7811 48.2189C23.661 48.0987 23.498 48.0312 23.3281 48.0312Z" fill="#DBFD67"/>
<path d="M25.8906 51.875C25.7207 51.875 25.5578 51.9425 25.4376 52.0626C25.3175 52.1828 25.25 52.3457 25.25 52.5156V53.7969C25.25 53.9668 25.3175 54.1297 25.4376 54.2499C25.5578 54.37 25.7207 54.4375 25.8906 54.4375C26.0605 54.4375 26.2235 54.37 26.3436 54.2499C26.4638 54.1297 26.5312 53.9668 26.5312 53.7969V52.5156C26.5312 52.3457 26.4638 52.1828 26.3436 52.0626C26.2235 51.9425 26.0605 51.875 25.8906 51.875Z" fill="#DBFD67"/>
<path d="M25.8906 48.0312C25.7207 48.0312 25.5578 48.0987 25.4376 48.2189C25.3175 48.339 25.25 48.502 25.25 48.6719V49.9531C25.25 50.123 25.3175 50.286 25.4376 50.4061C25.5578 50.5263 25.7207 50.5938 25.8906 50.5938C26.0605 50.5938 26.2235 50.5263 26.3436 50.4061C26.4638 50.286 26.5312 50.123 26.5312 49.9531V48.6719C26.5312 48.502 26.4638 48.339 26.3436 48.2189C26.2235 48.0987 26.0605 48.0312 25.8906 48.0312Z" fill="#DBFD67"/>
<path d="M28.4531 51.875C28.2832 51.875 28.1203 51.9425 28.0001 52.0626C27.88 52.1828 27.8125 52.3457 27.8125 52.5156V53.7969C27.8125 53.9668 27.88 54.1297 28.0001 54.2499C28.1203 54.37 28.2832 54.4375 28.4531 54.4375C28.623 54.4375 28.786 54.37 28.9061 54.2499C29.0263 54.1297 29.0938 53.9668 29.0938 53.7969V52.5156C29.0938 52.3457 29.0263 52.1828 28.9061 52.0626C28.786 51.9425 28.623 51.875 28.4531 51.875Z" fill="#DBFD67"/>
<path d="M28.4531 48.0312C28.2832 48.0312 28.1203 48.0987 28.0001 48.2189C27.88 48.339 27.8125 48.502 27.8125 48.6719V49.9531C27.8125 50.123 27.88 50.286 28.0001 50.4061C28.1203 50.5263 28.2832 50.5938 28.4531 50.5938C28.623 50.5938 28.786 50.5263 28.9061 50.4061C29.0263 50.286 29.0938 50.123 29.0938 49.9531V48.6719C29.0938 48.502 29.0263 48.339 28.9061 48.2189C28.786 48.0987 28.623 48.0312 28.4531 48.0312Z" fill="#DBFD67"/>
<path d="M31.0156 51.875C30.8457 51.875 30.6828 51.9425 30.5626 52.0626C30.4425 52.1828 30.375 52.3457 30.375 52.5156V53.7969C30.375 53.9668 30.4425 54.1297 30.5626 54.2499C30.6828 54.37 30.8457 54.4375 31.0156 54.4375C31.1855 54.4375 31.3485 54.37 31.4686 54.2499C31.5888 54.1297 31.6562 53.9668 31.6562 53.7969V52.5156C31.6562 52.3457 31.5888 52.1828 31.4686 52.0626C31.3485 51.9425 31.1855 51.875 31.0156 51.875Z" fill="#DBFD67"/>
<path d="M31.0156 48.0312C30.8457 48.0312 30.6828 48.0987 30.5626 48.2189C30.4425 48.339 30.375 48.502 30.375 48.6719V49.9531C30.375 50.123 30.4425 50.286 30.5626 50.4061C30.6828 50.5263 30.8457 50.5938 31.0156 50.5938C31.1855 50.5938 31.3485 50.5263 31.4686 50.4061C31.5888 50.286 31.6562 50.123 31.6562 49.9531V48.6719C31.6562 48.502 31.5888 48.339 31.4686 48.2189C31.3485 48.0987 31.1855 48.0312 31.0156 48.0312Z" fill="#DBFD67"/>
</svg>
