<svg width="56" height="55" viewBox="0 0 56 55" fill="none" xmlns="http://www.w3.org/2000/svg">
<rect x="0.71875" width="54.9294" height="54.9294" rx="11.9412" fill="white"/>
<path d="M54.0477 41.5346H50.7995V30.6875C50.7995 30.6875 50.7995 30.6418 50.7995 30.6266L52.3281 28.9139C52.3859 28.8482 52.4232 28.7671 52.4354 28.6805C52.4476 28.594 52.4342 28.5058 52.3969 28.4267C52.3598 28.3484 52.3016 28.282 52.2286 28.2349C52.1557 28.1878 52.071 28.162 51.9841 28.1603H50.8071V26.067H51.3039C51.4255 26.067 51.5422 26.0189 51.6282 25.9332C51.7142 25.8476 51.7625 25.7314 51.7625 25.6103C51.7625 25.4892 51.7142 25.373 51.6282 25.2873C51.5422 25.2017 51.4255 25.1536 51.3039 25.1536H50.8071V23.418C50.8071 23.2969 50.7588 23.1807 50.6728 23.0951C50.5868 23.0094 50.4702 22.9613 50.3486 22.9613H39.6103V16.8717C39.6103 15.5776 38.3645 14.0857 37.967 13.6442V12.4567C37.967 12.3356 37.9187 12.2194 37.8327 12.1338C37.7467 12.0481 37.6301 12 37.5085 12C37.3868 12 37.2702 12.0481 37.1842 12.1338C37.0982 12.2194 37.0499 12.3356 37.0499 12.4567V13.6214C36.6219 14.1161 35.4143 15.6157 35.4143 16.8108V18.9193C35.2115 18.821 34.9901 18.7665 34.7647 18.7595C34.5624 18.7637 34.3631 18.809 34.1791 18.8928C33.995 18.9766 33.8302 19.097 33.6946 19.2466C33.5583 19.0941 33.3911 18.9718 33.2041 18.8879C33.0171 18.8039 32.8145 18.7602 32.6094 18.7595C32.4069 18.7628 32.2073 18.8077 32.0232 18.8916C31.839 18.9754 31.6743 19.0963 31.5393 19.2466C31.3928 19.1078 31.2201 18.9993 31.0312 18.9275C30.8423 18.8556 30.6409 18.8218 30.4388 18.828C30.2365 18.8322 30.0372 18.8776 29.8532 18.9613C29.6691 19.0451 29.5043 19.1655 29.3688 19.3151C29.2324 19.1626 29.0652 19.0403 28.8782 18.9564C28.6912 18.8724 28.4886 18.8287 28.2835 18.828C28.0812 18.8322 27.8819 18.8776 27.6979 18.9613C27.5138 19.0451 27.349 19.1655 27.2135 19.3151C27.0727 19.1639 26.9026 19.0428 26.7134 18.9591C26.5242 18.8753 26.3199 18.8307 26.1129 18.828C25.9106 18.8322 25.7113 18.8776 25.5273 18.9613C25.3433 19.0451 25.1784 19.1655 25.0429 19.3151C24.9065 19.1626 24.7393 19.0403 24.5523 18.9564C24.3653 18.8724 24.1627 18.8287 23.9576 18.828C23.7551 18.8313 23.5555 18.8762 23.3714 18.9601C23.1873 19.0439 23.0225 19.1648 22.8876 19.3151C22.7485 19.1618 22.5788 19.0392 22.3892 18.9553C22.1996 18.8713 21.9944 18.828 21.787 18.828C21.5771 18.8351 21.3712 18.887 21.1832 18.9802V16.8793C21.1832 15.5853 19.9374 14.0933 19.54 13.6518V12.4567C19.54 12.3356 19.4916 12.2194 19.4056 12.1338C19.3196 12.0481 19.203 12 19.0814 12C18.9598 12 18.8431 12.0481 18.7571 12.1338C18.6711 12.2194 18.6228 12.3356 18.6228 12.4567V13.6214C18.1872 14.1161 16.9796 15.6157 16.9796 16.8108V22.9004H5.98143C5.85981 22.9004 5.74317 22.9485 5.65717 23.0342C5.57117 23.1198 5.52286 23.236 5.52286 23.3571V25.047H5.13307C5.01145 25.047 4.89481 25.0951 4.80881 25.1808C4.72281 25.2664 4.67449 25.3826 4.67449 25.5037C4.67449 25.6248 4.72281 25.741 4.80881 25.8267C4.89481 25.9123 5.01145 25.9604 5.13307 25.9604H5.52286V28.0385H4.45285C4.3622 28.0334 4.27207 28.0553 4.1939 28.1013C4.11572 28.1473 4.05302 28.2154 4.01373 28.2969C3.97444 28.3784 3.96033 28.4697 3.9732 28.5592C3.98606 28.6487 4.02532 28.7324 4.08599 28.7997L5.48464 30.6875V41.5346H2.2364C2.17174 41.5263 2.10602 41.5317 2.04364 41.5506C1.98127 41.5696 1.92366 41.6015 1.87467 41.6444C1.82568 41.6873 1.78643 41.7401 1.75954 41.7992C1.73266 41.8584 1.71875 41.9226 1.71875 41.9875C1.71875 42.0525 1.73266 42.1167 1.75954 42.1759C1.78643 42.235 1.82568 42.2878 1.87467 42.3307C1.92366 42.3735 1.98127 42.4055 2.04364 42.4244C2.10602 42.4433 2.17174 42.4488 2.2364 42.4405H54.0477C54.1124 42.4488 54.1781 42.4433 54.2405 42.4244C54.3029 42.4055 54.3605 42.3735 54.4095 42.3307C54.4585 42.2878 54.4977 42.235 54.5246 42.1759C54.5515 42.1167 54.5654 42.0525 54.5654 41.9875C54.5654 41.9226 54.5515 41.8584 54.5246 41.7992C54.4977 41.7401 54.4585 41.6873 54.4095 41.6444C54.3605 41.6015 54.3029 41.5696 54.2405 41.5506C54.1781 41.5317 54.1124 41.5263 54.0477 41.5346ZM13.6855 41.3443H9.48189V37.5383H13.6855V41.3443ZM9.53539 36.6173C9.66065 36.0581 9.90582 35.5326 10.2541 35.0767C10.6024 34.6208 11.0455 34.2453 11.5531 33.9759C12.0674 34.2514 12.5176 34.6317 12.8745 35.0921C13.2314 35.5524 13.4869 36.0825 13.6243 36.6477H9.53539V36.6173ZM16.9643 41.5042H14.6026V37.1044C14.6062 37.0766 14.6062 37.0485 14.6026 37.0207C14.4956 34.3717 11.8741 33.1233 11.7595 33.0701C11.6993 33.0436 11.6342 33.03 11.5684 33.03C11.5026 33.03 11.4375 33.0436 11.3773 33.0701C11.2627 33.1233 8.69467 34.3489 8.58767 37.0283C8.58339 37.0535 8.58339 37.0792 8.58767 37.1044V41.5346H6.40179V31.2356H16.9643V41.5042ZM16.9643 30.2917H6.32536L5.38528 29.0281H16.9643V30.2917ZM16.9643 28.1146H6.40179V26.067H16.9643V28.1146ZM16.9643 25.1231H6.40179V23.9204H16.9643V25.1231ZM19.0814 14.4663C19.5728 15.0391 19.949 15.7007 20.1896 16.415H17.9502C18.2081 15.706 18.5912 15.0486 19.0814 14.4739V14.4663ZM20.2508 41.527H17.8815V38.6649H20.2508V41.527ZM20.2508 37.721H17.8815V31.2356H20.2508V37.721ZM20.2508 30.2917H17.8815V29.0585H20.2508V30.2917ZM20.2508 28.1146H17.8815V23.8747H20.2508V28.1146ZM20.2508 20.3884V22.9309H17.8815V20.3123H20.2508V20.3884ZM20.2508 19.3684H19.4865V18.8051C19.4865 18.684 19.4381 18.5678 19.3521 18.4822C19.2661 18.3965 19.1495 18.3484 19.0279 18.3484C18.9063 18.3484 18.7896 18.3965 18.7036 18.4822C18.6176 18.5678 18.5693 18.684 18.5693 18.8051V19.3684H17.805V17.336H20.1743L20.2508 19.3684ZM32.0208 20.3884C32.0303 20.2443 32.0778 20.1051 32.1584 19.985C32.2069 19.903 32.2762 19.8351 32.3594 19.7884C32.4426 19.7416 32.5367 19.7175 32.6323 19.7186C32.7285 19.7203 32.823 19.7447 32.908 19.7897C32.993 19.8346 33.0661 19.899 33.1214 19.9774C33.2072 20.099 33.2598 20.2406 33.2743 20.3884V20.8147H32.0208V20.3884ZM29.8503 20.3884C29.8597 20.2443 29.9072 20.1051 29.9878 19.985C30.0363 19.903 30.1056 19.8351 30.1888 19.7884C30.272 19.7416 30.3661 19.7175 30.4617 19.7186C30.5598 19.7085 30.6587 19.7277 30.7458 19.7738C30.833 19.8199 30.9043 19.8908 30.9508 19.9774C31.0366 20.099 31.0892 20.2406 31.1037 20.3884V20.8147H29.8503V20.3884ZM27.6797 20.3884C27.6891 20.2443 27.7366 20.1051 27.8172 19.985C27.8657 19.903 27.935 19.8351 28.0182 19.7884C28.1014 19.7416 28.1956 19.7175 28.2911 19.7186C28.3879 19.717 28.4836 19.74 28.5691 19.7852C28.6547 19.8305 28.7273 19.8966 28.7803 19.9774C28.866 20.099 28.9187 20.2406 28.9331 20.3884V20.8147H27.6797V20.3884ZM25.5091 20.3884C25.5185 20.2443 25.566 20.1051 25.6467 19.985C25.6969 19.9029 25.7677 19.8352 25.8521 19.7885C25.9365 19.7418 26.0316 19.7177 26.1282 19.7186C26.2304 19.7217 26.3299 19.7523 26.416 19.8073C26.5022 19.8623 26.5717 19.9395 26.6173 20.0307C26.703 20.1522 26.7557 20.2939 26.7702 20.4417V20.868H25.5091V20.3884ZM23.3385 20.3884C23.348 20.2443 23.3954 20.1051 23.4761 19.985C23.5245 19.903 23.5938 19.8351 23.677 19.7884C23.7602 19.7416 23.8544 19.7175 23.9499 19.7186C24.0465 19.7184 24.1417 19.742 24.227 19.7871C24.3123 19.8322 24.3851 19.8976 24.4391 19.9774C24.5248 20.099 24.5775 20.2406 24.5919 20.3884V20.8147H23.3385V20.3884ZM21.1679 20.3884C21.1774 20.2443 21.2248 20.1051 21.3055 19.985C21.3574 19.9049 21.4287 19.839 21.5128 19.7934C21.597 19.7478 21.6912 19.7239 21.787 19.7239C21.8828 19.7239 21.977 19.7478 22.0611 19.7934C22.1452 19.839 22.2165 19.9049 22.2685 19.985C22.3542 20.1066 22.4069 20.2482 22.4213 20.3961V20.8223H21.1679V20.3884ZM23.7206 41.5042H21.1679V40.4309H23.7206V41.5042ZM32.1278 41.5042H24.6378V35.4146C24.6378 33.0472 27.695 31.8978 28.3752 31.6694C29.0554 31.9054 32.1202 33.1081 32.1202 35.4146L32.1278 41.5042ZM35.4525 41.5042H33.0374V40.4309H35.4449L35.4525 41.5042ZM35.4525 39.487H33.0374V35.4146C33.0374 32.1642 28.6962 30.8093 28.5127 30.756C28.4282 30.7292 28.3374 30.7292 28.2529 30.756C28.0695 30.8017 23.7206 32.0805 23.7206 35.4146V39.525H21.1679V29.0585H35.4449L35.4525 39.487ZM35.4525 28.1146H21.1679V26.067H22.0316V27.0718C22.0316 27.1929 22.0799 27.3091 22.1659 27.3947C22.2519 27.4804 22.3685 27.5285 22.4901 27.5285C22.6118 27.5285 22.7284 27.4804 22.8144 27.3947C22.9004 27.3091 22.9487 27.1929 22.9487 27.0718V26.067H24.7601V27.0718C24.759 27.1321 24.7702 27.1919 24.7929 27.2478C24.8156 27.3037 24.8493 27.3544 24.8921 27.397C24.9349 27.4397 24.9858 27.4733 25.0419 27.4958C25.098 27.5184 25.1581 27.5295 25.2186 27.5285C25.3403 27.5285 25.4569 27.4804 25.5429 27.3947C25.6289 27.3091 25.6772 27.1929 25.6772 27.0718V26.067H27.481V27.0718C27.481 27.1929 27.5293 27.3091 27.6153 27.3947C27.7013 27.4804 27.8179 27.5285 27.9395 27.5285C28.0611 27.5285 28.1778 27.4804 28.2638 27.3947C28.3498 27.3091 28.3981 27.1929 28.3981 27.0718V26.067H30.2018V27.0718C30.2018 27.1929 30.2501 27.3091 30.3361 27.3947C30.4221 27.4804 30.5388 27.5285 30.6604 27.5285C30.782 27.5285 30.8987 27.4804 30.9847 27.3947C31.0707 27.3091 31.119 27.1929 31.119 27.0718V26.067H32.9227V27.0718C32.9227 27.1929 32.971 27.3091 33.057 27.3947C33.143 27.4804 33.2597 27.5285 33.3813 27.5285C33.4418 27.5295 33.5019 27.5184 33.558 27.4958C33.6141 27.4733 33.6651 27.4397 33.7079 27.397C33.7506 27.3544 33.7844 27.3037 33.8071 27.2478C33.8297 27.1919 33.8409 27.1321 33.8399 27.0718V26.067H35.4143L35.4525 28.1146ZM35.4525 25.1231H21.1679V23.8747H35.4449L35.4525 25.1231ZM35.4525 22.9309H21.1679V21.7586H35.4449L35.4525 22.9309ZM35.4525 20.8147H34.1914V20.3884C34.2009 20.2443 34.2483 20.1051 34.329 19.985C34.3774 19.903 34.4468 19.8351 34.53 19.7884C34.6132 19.7416 34.7073 19.7175 34.8029 19.7186C34.9007 19.7105 34.9989 19.7305 35.0856 19.7764C35.1723 19.8223 35.244 19.8921 35.292 19.9774C35.3778 20.099 35.4304 20.2406 35.4449 20.3884L35.4525 20.8147ZM37.562 14.4435C38.0534 15.0163 38.4296 15.6778 38.6702 16.3921H36.4232C36.6835 15.6912 37.0665 15.0417 37.5543 14.4739L37.562 14.4435ZM38.7313 41.5042H36.362V38.6649H38.7237L38.7313 41.5042ZM38.7313 37.6982H36.362V31.2356H38.7237L38.7313 37.6982ZM38.7313 30.2688H36.362V29.0585H38.7237L38.7313 30.2688ZM38.7313 28.0918H36.362V23.8747H38.7237L38.7313 28.0918ZM38.7313 22.908H36.362V20.3123H38.7237L38.7313 22.908ZM38.7313 19.3456H37.967V18.7823C37.967 18.6612 37.9187 18.545 37.8327 18.4594C37.7467 18.3737 37.6301 18.3256 37.5085 18.3256C37.3868 18.3256 37.2702 18.3737 37.1842 18.4594C37.0982 18.545 37.0499 18.6612 37.0499 18.7823V19.3456H36.3314V17.336H38.6931L38.7313 19.3456ZM39.6103 23.8747H49.89V25.1536H39.6103V23.8747ZM39.6103 26.067H49.89V28.1451H39.6103V26.067ZM46.764 41.3443H42.5604V37.5383H46.764V41.3443ZM42.6139 36.6173C42.7392 36.0581 42.9844 35.5326 43.3326 35.0767C43.6809 34.6208 44.124 34.2453 44.6317 33.9759C45.1427 34.2481 45.5909 34.6237 45.9476 35.0786C46.3043 35.5334 46.5615 36.0575 46.7029 36.6173H42.6139ZM49.8823 41.5042H47.6888V37.1044C47.6932 37.0665 47.6932 37.0282 47.6888 36.9902C47.5589 34.3641 44.9603 33.1233 44.8533 33.0701C44.7917 33.0439 44.7254 33.0304 44.6584 33.0304C44.5914 33.0304 44.5251 33.0439 44.4635 33.0701C44.3489 33.1233 41.7579 34.3565 41.6738 37.0664C41.6731 37.079 41.6731 37.0918 41.6738 37.1044V41.5346H39.6103V31.2356H49.8518L49.8823 41.5042ZM49.8288 30.2917H39.6103V29.0585H50.9294L49.8288 30.2917Z" fill="black"/>
</svg>
