<svg width="55" height="55" viewBox="0 0 55 55" fill="none" xmlns="http://www.w3.org/2000/svg">
<rect width="54.9294" height="54.9294" rx="11.9412" fill="white"/>
<path fill-rule="evenodd" clip-rule="evenodd" d="M16.3778 28.5672L16.3337 28.5545C16.3122 28.919 16.2957 29.2645 16.2841 29.5809C17.6405 27.1233 19.4159 24.797 21.1336 22.9576C21.2528 22.6574 21.3796 22.3229 21.5156 21.9637C22.1083 20.4005 22.8593 18.4199 23.9199 16.7321C20.6402 19.79 17.0831 26.1695 16.3778 28.5672ZM22.2237 21.8471C23.0134 19.7706 24.086 17.0781 25.7364 15.3818L26.9857 14.0977L28.2349 15.3818C29.9028 17.0961 31.1939 19.8481 32.05 21.8944C31.4866 21.3435 30.9408 20.8577 30.4311 20.4509L30.1844 20.2539L29.9899 20.5015C29.4849 21.1446 29.2844 21.4749 28.9639 22.0318C28.4551 20.2605 27.888 18.7419 27.2855 17.8489L27.0306 17.4707L26.7706 17.8456C26.1881 18.6852 25.6534 20.0398 25.1776 21.6113C24.9327 21.2651 24.6871 21.0001 24.3833 20.6722L24.3828 20.6717L24.019 20.2773L23.7908 20.4594C23.2964 20.8539 22.7686 21.3206 22.2237 21.8471ZM31.1533 32.8186C30.8169 30.4535 30.1147 26.3198 29.1959 22.8708C29.2772 22.7304 29.3493 22.6045 29.4154 22.4893L29.4171 22.4865C29.7386 21.9263 29.9095 21.6285 30.2873 21.1288C32.8426 23.2482 36.2132 27.2468 38.0992 31.4123L38.0989 31.4244L38.1047 31.4246C38.8603 33.0961 39.3764 34.7942 39.5045 36.4082H38.9925C38.0594 34.364 36.5065 31.7586 34.2893 30.5426L34.1261 30.4531L33.9695 30.5534C32.7192 31.3533 31.8374 32.0768 31.1533 32.8186ZM30.6141 33.4575C30.1759 30.173 28.7625 21.7663 27.0236 18.6097C25.3387 21.6006 23.9452 29.4838 23.4076 33.5276C24.0543 34.383 24.52 35.2988 25.046 36.4082H28.9222C29.4625 35.2684 29.9393 34.333 30.6141 33.4575ZM29.6092 36.4082H38.3093C37.4308 34.5455 36.0474 32.2923 34.1488 31.1705C31.4708 32.9131 30.6503 34.2357 29.6092 36.4082ZM24.9481 22.4013C23.8677 26.272 23.1268 31.0843 22.8705 32.8794C22.1787 32.1163 21.2832 31.3751 19.9987 30.5534L19.8421 30.4531L19.6788 30.5426C17.4617 31.7586 15.9088 34.364 14.9756 36.4082H14.6004C15.0539 30.8193 20.3254 24.117 23.9555 21.1196C24.3567 21.5526 24.6304 21.8527 24.9481 22.4013ZM40.128 36.4082H40.2647L40.5597 36.07C41.8211 34.6225 43.22 33.0173 44.7867 31.7821C43.1763 32.1039 41.336 32.6749 39.528 33.4194C39.8442 34.4297 40.0544 35.4335 40.128 36.4082ZM39.3335 32.835C40.9286 32.1811 42.55 31.6591 44.0249 31.3191C41.9515 27.1114 39.7612 24.2597 37.502 22.8239C37.8615 24.0847 38.1907 25.9933 38.4163 27.7347L38.4289 27.777L38.422 27.779C38.6098 29.2374 38.7242 30.5732 38.7222 31.3051C38.9489 31.8137 39.154 32.3246 39.3335 32.835ZM38.0236 29.8693C37.9721 29.2703 37.8968 28.577 37.8034 27.8526C37.0263 25.3813 33.3547 19.5692 30.0639 16.6893C31.4925 18.8132 32.5363 21.4187 33.1643 22.9861L33.1643 22.9861L33.1652 22.9883L33.1264 23.0046C34.8767 24.9034 36.681 27.3196 38.0236 29.8693ZM25.3665 14.8988L26.9548 14.066L26.8906 14L26.9857 14.0498L27.0807 14L27.0165 14.066L28.6048 14.8988C31.6792 16.5105 35.5719 21.8849 37.4494 25.502C37.216 24.1637 36.9416 22.9512 36.6635 22.2718L36.3516 21.5098L37.0929 21.8837C39.7438 23.2215 42.2855 26.35 44.6491 31.1843C45.0942 31.095 45.5227 31.024 45.9294 30.9729L46.5086 30.6055L46.3387 31.3381C45.9918 32.8338 45.8362 34.932 45.8027 36.4082H47.396V39.2783H7V36.4082H8.17468C8.14123 34.932 7.98561 32.8338 7.63868 31.3381L7.46875 30.6055L8.04804 30.973C8.45337 31.0239 8.88039 31.0946 9.32393 31.1835C11.8808 25.9403 14.2844 22.8846 16.8794 21.5751L17.6207 21.2012L17.3088 21.9629C16.9362 22.8733 16.6588 24.7548 16.4839 26.5994C18.184 22.8676 22.1411 16.5896 25.3665 14.8988ZM41.0848 36.4082H45.1809C45.2094 35.0887 45.328 33.3834 45.581 31.9528C43.9188 33.1656 42.4233 34.8722 41.0848 36.4082ZM19.8193 31.1705C22.4974 32.9131 23.3179 34.2357 24.359 36.4082H15.6589C16.5374 34.5455 17.9207 32.2923 19.8193 31.1705ZM13.9769 36.4082C14.0504 35.4528 14.2598 34.4664 14.5751 33.4716C12.7269 32.7016 10.8385 32.1114 9.19079 31.7822C10.7574 33.0173 12.1564 34.6225 13.4177 36.07L13.7127 36.4082H13.9769ZM14.7717 32.8878C13.1339 32.2086 11.4635 31.6672 9.94809 31.3181C12.1584 26.8159 14.3045 23.9222 16.4825 22.5126C15.8693 24.8688 15.6184 29.3888 15.6453 30.8144C15.3127 31.5025 15.0182 32.1961 14.7717 32.8878ZM12.8926 36.4082C11.5541 34.8722 10.0586 33.1656 8.39641 31.9528C8.64937 33.3834 8.76796 35.0887 8.79646 36.4082H12.8926ZM46.7745 38.6652H7.62148V37.0214H46.7745V38.6652Z" fill="black"/>
</svg>
