<svg width="56" height="55" viewBox="0 0 56 55" fill="none" xmlns="http://www.w3.org/2000/svg">
<rect x="0.929688" width="54.9294" height="54.9294" rx="11.9412" fill="white"/>
<path d="M48.3292 45.1808H42.0933V33.6727L43.2374 32.1234C43.2421 32.1007 43.2421 32.0773 43.2374 32.0545C43.2374 32.0545 43.2374 32.0545 43.2374 32.0029C43.2642 31.9462 43.279 31.8847 43.2811 31.8222V27.6476C43.2811 27.5106 43.2259 27.3792 43.1276 27.2824C43.0294 27.1855 42.8961 27.1311 42.7571 27.1311H41.5518V24.0927L42.5213 22.5864C42.5724 22.5034 42.5996 22.4081 42.5999 22.311V20.7358C42.5999 20.5989 42.5447 20.4675 42.4464 20.3707C42.3481 20.2738 42.2148 20.2194 42.0758 20.2194H41.4732V14.9259C41.6122 14.9259 41.7455 14.8714 41.8438 14.7746C41.942 14.6777 41.9972 14.5464 41.9972 14.4094V12.4383C41.9972 12.3014 41.942 12.17 41.8438 12.0731C41.7455 11.9763 41.6122 11.9219 41.4732 11.9219V9.75282C41.472 9.26477 41.3095 8.7904 41.0103 8.40146L40.3204 7.49768V6.51644C40.3204 6.37947 40.2652 6.24811 40.1669 6.15126C40.0686 6.05441 39.9353 6 39.7963 6C39.6574 6 39.5241 6.05441 39.4258 6.15126C39.3275 6.24811 39.2723 6.37947 39.2723 6.51644V7.5149L38.6173 8.42728C38.3481 8.80535 38.2046 9.2565 38.2068 9.71839V11.9391C38.0825 11.9537 37.9678 12.0125 37.8842 12.1043C37.8007 12.1962 37.7539 12.3149 37.7527 12.4383V14.4094C37.7539 14.5328 37.8007 14.6515 37.8842 14.7434C37.9678 14.8353 38.0825 14.894 38.2068 14.9086V20.2194H37.5954C37.4565 20.2194 37.3232 20.2738 37.2249 20.3707C37.1266 20.4675 37.0714 20.5989 37.0714 20.7358V21.7257H19.3245V20.7358C19.3245 20.5989 19.2693 20.4675 19.171 20.3707C19.0727 20.2738 18.9394 20.2194 18.8005 20.2194H18.1978V14.9259C18.3368 14.9259 18.4701 14.8714 18.5684 14.7746C18.6666 14.6777 18.7218 14.5464 18.7218 14.4094V12.4383C18.7218 12.3014 18.6666 12.17 18.5684 12.0731C18.4701 11.9763 18.3368 11.9219 18.1978 11.9219V9.75282C18.2041 9.26771 18.0509 8.79363 17.7611 8.40146L17.0712 7.49768V6.51644C17.0712 6.37947 17.016 6.24811 16.9177 6.15126C16.8194 6.05441 16.6861 6 16.5472 6C16.4082 6 16.2749 6.05441 16.1766 6.15126C16.0783 6.24811 16.0231 6.37947 16.0231 6.51644V7.5149L15.3681 8.42728C15.0963 8.80459 14.9498 9.25566 14.9489 9.71839V11.9391C14.8246 11.9537 14.7099 12.0125 14.6263 12.1043C14.5427 12.1962 14.496 12.3149 14.4947 12.4383V14.4094C14.496 14.5328 14.5427 14.6515 14.6263 14.7434C14.7099 14.8353 14.8246 14.894 14.9489 14.9086V20.2194H14.3462C14.2073 20.2194 14.074 20.2738 13.9757 20.3707C13.8774 20.4675 13.8222 20.5989 13.8222 20.7358V22.3196C13.8225 22.4167 13.8497 22.512 13.9008 22.595L14.8703 24.0927V27.1311H13.665C13.5962 27.1311 13.5281 27.1445 13.4645 27.1704C13.4009 27.1964 13.3431 27.2344 13.2945 27.2824C13.2458 27.3303 13.2072 27.3873 13.1809 27.4499C13.1545 27.5126 13.141 27.5798 13.141 27.6476V31.8222C13.1433 31.9149 13.1737 32.0048 13.2283 32.0804L14.2676 33.6641V45.1808H8.15403C8.08014 45.1713 8.00504 45.1775 7.93376 45.1989C7.86248 45.2203 7.79666 45.2565 7.74067 45.305C7.68469 45.3534 7.63984 45.4131 7.60912 45.48C7.57839 45.5469 7.5625 45.6195 7.5625 45.6929C7.5625 45.7664 7.57839 45.839 7.60912 45.9059C7.63984 45.9728 7.68469 46.0325 7.74067 46.0809C7.79666 46.1294 7.86248 46.1656 7.93376 46.187C8.00504 46.2084 8.08014 46.2146 8.15403 46.2051H48.3292C48.4031 46.2146 48.4782 46.2084 48.5495 46.187C48.6208 46.1656 48.6866 46.1294 48.7426 46.0809C48.7985 46.0325 48.8434 45.9728 48.8741 45.9059C48.9048 45.839 48.9207 45.7664 48.9207 45.6929C48.9207 45.6195 48.9048 45.5469 48.8741 45.48C48.8434 45.4131 48.7985 45.3534 48.7426 45.305C48.6866 45.2565 48.6208 45.2203 48.5495 45.1989C48.4782 45.1775 48.4031 45.1713 48.3292 45.1808ZM22.687 45.1808H18.8179V44.2168H22.6782L22.687 45.1808ZM22.687 43.1839H18.8179V33.6727L19.8048 32.3386H22.6782V43.1839H22.687ZM18.0232 32.9841H15.141L14.6956 32.3386H18.5384L18.0232 32.9841ZM15.3506 34.017H17.7611V43.1839H15.3506V34.017ZM18.2677 24.3079H38.1282V27.1139H36.0496V26.0294C36.0592 25.9566 36.0529 25.8825 36.0312 25.8123C36.0095 25.7421 35.9728 25.6772 35.9236 25.622C35.8744 25.5668 35.8139 25.5226 35.746 25.4923C35.6781 25.4621 35.6044 25.4464 35.5299 25.4464C35.4554 25.4464 35.3817 25.4621 35.3139 25.4923C35.246 25.5226 35.1854 25.5668 35.1362 25.622C35.087 25.6772 35.0504 25.7421 35.0287 25.8123C35.0069 25.8825 35.0007 25.9566 35.0103 26.0294V27.1139H33.1412V26.0294C33.1412 25.8924 33.086 25.7611 32.9878 25.6642C32.8895 25.5674 32.7562 25.5129 32.6172 25.5129C32.4782 25.5129 32.3449 25.5674 32.2467 25.6642C32.1484 25.7611 32.0932 25.8924 32.0932 26.0294V27.1139H30.2242V26.0294C30.2242 25.8924 30.169 25.7611 30.0707 25.6642C29.9724 25.5674 29.8391 25.5129 29.7001 25.5129C29.5612 25.5129 29.4279 25.5674 29.3296 25.6642C29.2313 25.7611 29.1761 25.8924 29.1761 26.0294V27.1139H27.3071V26.0294C27.3071 25.8924 27.2519 25.7611 27.1536 25.6642C27.0554 25.5674 26.9221 25.5129 26.7831 25.5129C26.6441 25.5129 26.5108 25.5674 26.4125 25.6642C26.3143 25.7611 26.2591 25.8924 26.2591 26.0294V27.1139H24.39V26.0294C24.39 25.8924 24.3348 25.7611 24.2366 25.6642C24.1383 25.5674 24.005 25.5129 23.866 25.5129C23.727 25.5129 23.5937 25.5674 23.4955 25.6642C23.3972 25.7611 23.342 25.8924 23.342 26.0294V27.1139H21.473V26.0294C21.4826 25.9566 21.4763 25.8825 21.4546 25.8123C21.4329 25.7421 21.3962 25.6772 21.347 25.622C21.2978 25.5668 21.2373 25.5226 21.1694 25.4923C21.1015 25.4621 21.0278 25.4464 20.9533 25.4464C20.8788 25.4464 20.8051 25.4621 20.7373 25.4923C20.6694 25.5226 20.6088 25.5668 20.5596 25.622C20.5105 25.6772 20.4738 25.7421 20.4521 25.8123C20.4303 25.8825 20.4241 25.9566 20.4337 26.0294V27.1139H18.2677V24.3079ZM19.1411 22.7758H37.3072L37.6391 23.275H18.7917L19.1411 22.7758ZM41.0453 43.1839H38.626V34.017H41.0453V43.1839ZM41.3422 32.9841H38.3815L37.9361 32.3386H41.7876L41.3422 32.9841ZM36.4601 28.164V29.6101H20.0581V28.164H36.4601ZM20.0581 30.6429H36.4251V31.3057H20.0581V30.6429ZM23.7175 32.3644H32.7657V37.0899C31.5127 36.0011 30.0164 35.2196 28.3988 34.8089C28.3182 34.7917 28.2349 34.7917 28.1543 34.8089C26.5359 35.1944 25.0371 35.9625 23.7874 37.0468L23.7175 32.3644ZM33.805 32.3644H36.6697L37.543 33.69V43.1839H33.805V32.3386V32.3644ZM33.805 44.2426H37.578V45.2066H33.805V44.2426ZM38.626 44.2426H41.0453V45.2152H38.626V44.2426ZM42.2942 28.1898V31.3315H37.4732V28.164H42.2942V28.1898ZM39.1762 27.1569V24.3079H40.4688V27.1139L39.1762 27.1569ZM40.4252 20.271H39.2549V14.9259H40.4688L40.4252 20.271ZM40.9667 13.0064V13.893H38.8007V12.9548L40.9667 13.0064ZM39.4732 9.07284L39.8138 8.59943L40.1806 9.07284C40.34 9.28436 40.4258 9.54099 40.4252 9.80446V11.9735H39.2549V9.71839C39.2561 9.46982 39.3321 9.22719 39.4732 9.02119V9.07284ZM38.1195 21.2523H41.5518V22.1647L40.8269 23.2922H38.8531L38.1195 22.1647V21.2523ZM17.1585 20.2194H16.0144V14.9259H17.1498L17.1585 20.2194ZM17.6913 12.9548V13.893H15.5166V12.9548H17.6913ZM16.2065 9.02119L16.5472 8.54779L16.9052 9.02119C17.0672 9.23193 17.156 9.48847 17.1585 9.75282V11.9219H16.0144V9.71839C16.0014 9.47294 16.0655 9.22951 16.1978 9.02119H16.2065ZM14.8441 22.1647V21.2523H18.2764V22.1647L17.5515 23.2922H15.569L14.8441 22.1647ZM15.8921 24.3079H17.2284V27.1139H15.8921V24.3079ZM15.3681 28.1468H19.0101V31.2885H14.189V28.164L15.3681 28.1468ZM15.3681 44.1996H17.7611V45.1636H15.3506L15.3681 44.1996ZM23.735 39.3364C23.735 37.0899 27.5342 35.9881 28.2591 35.7988C29.6303 36.1603 32.7832 37.3997 32.7832 39.3364V45.1636H23.7175L23.735 39.3364Z" fill="black"/>
</svg>
