<svg width="56" height="55" viewBox="0 0 56 55" fill="none" xmlns="http://www.w3.org/2000/svg">
<rect x="0.859375" width="54.9294" height="54.9294" rx="11.9412" fill="white"/>
<path d="M52.5861 40.3474H50.1628V28.0214H50.2553C50.3603 28.0214 50.4611 27.9791 50.5354 27.9038C50.6097 27.8286 50.6514 27.7265 50.6514 27.6201C50.6515 27.5177 50.6123 27.4193 50.542 27.3457C50.4718 27.272 50.3761 27.2289 50.2751 27.2255C50.312 27.0041 50.312 26.778 50.2751 26.5567C50.2431 26.3365 50.1683 26.125 50.055 25.9344C49.9416 25.7438 49.792 25.578 49.6148 25.4465L48.2678 24.3964V23.8815C48.2678 23.775 48.226 23.673 48.1517 23.5977C48.0774 23.5225 47.9766 23.4802 47.8716 23.4802C47.7665 23.4802 47.6657 23.5225 47.5914 23.5977C47.5171 23.673 47.4754 23.775 47.4754 23.8815V24.4031L46.1944 25.4264C46.0159 25.5565 45.8653 25.722 45.7518 25.9129C45.6383 26.1037 45.5642 26.3159 45.5341 26.5366C45.4928 26.7576 45.4928 26.9844 45.5341 27.2054H45.4417C45.3366 27.2054 45.2358 27.2477 45.1615 27.3229C45.0872 27.3982 45.0455 27.5003 45.0455 27.6067C45.0455 27.7131 45.0872 27.8152 45.1615 27.8904C45.2358 27.9657 45.3366 28.008 45.4417 28.008H45.653V30.0813H39.981V28.008H40.08C40.1851 28.008 40.2859 27.9657 40.3602 27.8904C40.4345 27.8152 40.4762 27.7131 40.4762 27.6067C40.4746 27.5037 40.4339 27.4053 40.3626 27.3318C40.2913 27.2584 40.1949 27.2155 40.0932 27.2121C40.1302 26.9907 40.1302 26.7647 40.0932 26.5433C40.0267 26.0994 39.7893 25.7002 39.4329 25.4331L38.0859 24.3964V23.8815C38.0859 23.775 38.0442 23.673 37.9699 23.5977C37.8956 23.5225 37.7948 23.4802 37.6898 23.4802C37.5847 23.4802 37.4839 23.5225 37.4096 23.5977C37.3353 23.673 37.2936 23.775 37.2936 23.8815V24.4031L36.0126 25.4264C35.8341 25.5565 35.6835 25.722 35.57 25.9129C35.4565 26.1037 35.3824 26.3159 35.3523 26.5366C35.311 26.7576 35.311 26.9844 35.3523 27.2054H35.2533C35.1482 27.2054 35.0474 27.2477 34.9731 27.3229C34.8988 27.3982 34.8571 27.5003 34.8571 27.6067C34.8571 27.7131 34.8988 27.8152 34.9731 27.8904C35.0474 27.9657 35.1482 28.008 35.2533 28.008H35.4645V28.63H35.3259L33.5959 27.4127C33.5959 27.4127 33.5959 27.4127 33.5959 27.3659V26.3828C33.6 26.0622 33.4902 25.7508 33.2866 25.5052C33.083 25.2597 32.7991 25.0965 32.4866 25.0452C32.4965 25.0012 32.4965 24.9554 32.4866 24.9114V22.9652C32.5878 22.9599 32.6827 22.9142 32.7507 22.8381C33.0661 22.4772 33.2993 22.0506 33.434 21.5883C33.5686 21.126 33.6014 20.6394 33.5299 20.1629C33.4659 19.7402 33.3224 19.3338 33.1073 18.9658C33.1073 18.9658 33.1073 18.9257 33.1073 18.9056V17.568C33.1082 17.515 33.0985 17.4625 33.0789 17.4134C33.0593 17.3643 33.0302 17.3197 32.9932 17.2822C32.9563 17.2448 32.9122 17.2153 32.8638 17.1954C32.8153 17.1756 32.7634 17.1658 32.7111 17.1667C32.606 17.1667 32.5053 17.209 32.431 17.2842C32.3567 17.3595 32.3149 17.4616 32.3149 17.568V18.083C32.2176 18.0041 32.1162 17.9304 32.0112 17.8623L29.0795 15.9294V14.2574C29.0777 13.9233 28.9455 13.6035 28.7116 13.3679C28.4778 13.1323 28.1613 13.0001 27.8315 13.0001H27.6994C27.535 12.9983 27.3718 13.0295 27.2193 13.0918C27.0668 13.1541 26.928 13.2463 26.8108 13.3632C26.6936 13.48 26.6003 13.6192 26.5364 13.7726C26.4725 13.9261 26.4391 14.0909 26.4383 14.2574V15.9294L23.4009 17.8288C23.2952 17.9024 23.1896 17.976 23.0905 18.0562V17.5345C23.0905 17.4281 23.0488 17.3261 22.9745 17.2508C22.9002 17.1755 22.7994 17.1333 22.6944 17.1333C22.5893 17.1333 22.4885 17.1755 22.4142 17.2508C22.3399 17.3261 22.2982 17.4281 22.2982 17.5345V18.8721C22.2951 18.8921 22.2951 18.9124 22.2982 18.9323C22.0809 19.2993 21.9373 19.7062 21.8756 20.1295C21.8041 20.606 21.8368 21.0926 21.9715 21.5549C22.1061 22.0171 22.3394 22.4438 22.6547 22.8047C22.7227 22.8808 22.8177 22.9265 22.9189 22.9318V24.8914C22.909 24.9354 22.909 24.9811 22.9189 25.0251C22.6076 25.0778 22.3252 25.2417 22.123 25.4871C21.9207 25.7325 21.8118 26.0431 21.8162 26.3627V27.3592C21.8162 27.3592 21.8162 27.3592 21.8162 27.4061L20.0862 28.6233H19.9475V28.0013H20.0466C20.1516 28.0013 20.2524 27.959 20.3267 27.8838C20.401 27.8085 20.4427 27.7064 20.4427 27.6C20.4411 27.497 20.4004 27.3986 20.3291 27.3252C20.2578 27.2517 20.1614 27.2088 20.0598 27.2054C20.1001 26.9844 20.1001 26.7577 20.0598 26.5366C19.9932 26.0927 19.7558 25.6935 19.3995 25.4264L18.1053 24.3964V23.8815C18.1053 23.775 18.0635 23.673 17.9892 23.5977C17.9149 23.5225 17.8142 23.4802 17.7091 23.4802C17.604 23.4802 17.5033 23.5225 17.429 23.5977C17.3547 23.673 17.3129 23.775 17.3129 23.8815V24.4031L16.0319 25.4264C15.8545 25.5576 15.7046 25.7234 15.5913 25.9141C15.4779 26.1047 15.4032 26.3164 15.3716 26.5366C15.3304 26.7576 15.3304 26.9844 15.3716 27.2054H15.2726C15.1675 27.2054 15.0667 27.2477 14.9924 27.3229C14.9182 27.3982 14.8764 27.5003 14.8764 27.6067C14.8764 27.7131 14.9182 27.8152 14.9924 27.8904C15.0667 27.9657 15.1675 28.008 15.2726 28.008H15.4839V30.0813H9.81852V28.008H9.97039C10.0755 28.008 10.1762 27.9657 10.2505 27.8904C10.3248 27.8152 10.3666 27.7131 10.3666 27.6067C10.3666 27.5003 10.3248 27.3982 10.2505 27.3229C10.1762 27.2477 10.0755 27.2054 9.97039 27.2054H9.93077C9.97204 26.9844 9.97204 26.7576 9.93077 26.5366C9.8992 26.3164 9.82453 26.1047 9.71115 25.9141C9.59776 25.7234 9.44794 25.5576 9.27047 25.4264L7.94987 24.3964V23.8815C7.94987 23.775 7.90813 23.673 7.83383 23.5977C7.75953 23.5225 7.65876 23.4802 7.55369 23.4802C7.44862 23.4802 7.34785 23.5225 7.27355 23.5977C7.19925 23.673 7.15751 23.775 7.15751 23.8815V24.4031L5.86993 25.4264C5.51362 25.6935 5.27622 26.0927 5.20963 26.5366C5.17153 26.7579 5.17153 26.9841 5.20963 27.2054H5.17001C5.06494 27.2054 4.96417 27.2477 4.88987 27.3229C4.81557 27.3982 4.77383 27.5003 4.77383 27.6067C4.77383 27.7131 4.81557 27.8152 4.88987 27.8904C4.96417 27.9657 5.06494 28.008 5.17001 28.008H5.32188V40.3474H2.93159C2.87573 40.34 2.81895 40.3448 2.76506 40.3614C2.71117 40.3781 2.66141 40.4062 2.61908 40.4438C2.57676 40.4815 2.54285 40.5279 2.51962 40.5798C2.49639 40.6318 2.48438 40.6882 2.48438 40.7453C2.48438 40.8024 2.49639 40.8588 2.51962 40.9108C2.54285 40.9627 2.57676 41.0091 2.61908 41.0468C2.66141 41.0844 2.71117 41.1125 2.76506 41.1291C2.81895 41.1458 2.87573 41.1506 2.93159 41.1432H52.5861C52.642 41.1506 52.6988 41.1458 52.7526 41.1291C52.8065 41.1125 52.8563 41.0844 52.8986 41.0468C52.9409 41.0091 52.9749 40.9627 52.9981 40.9108C53.0213 40.8588 53.0333 40.8024 53.0333 40.7453C53.0333 40.6882 53.0213 40.6318 52.9981 40.5798C52.9749 40.5279 52.9409 40.4815 52.8986 40.4438C52.8563 40.4062 52.8065 40.3781 52.7526 40.3614C52.6988 40.3448 52.642 40.34 52.5861 40.3474ZM13.0606 38.8426V37.8394C13.0606 37.7329 13.0188 37.6309 12.9445 37.5556C12.8703 37.4804 12.7695 37.4381 12.6644 37.4381C12.5593 37.4381 12.4586 37.4804 12.3843 37.5556C12.31 37.6309 12.2682 37.7329 12.2682 37.8394V38.8426H9.81852V36.1674H15.5367V38.8426H13.0606ZM7.98288 38.8426V37.8394C7.98288 37.7329 7.94114 37.6309 7.86685 37.5556C7.79255 37.4804 7.69178 37.4381 7.58671 37.4381C7.48163 37.4381 7.38086 37.4804 7.30656 37.5556C7.23227 37.6309 7.19053 37.7329 7.19053 37.8394V38.8426H6.14725V36.1674H9.02616V38.8426H7.98288ZM20.2645 29.4793H26.5307C26.5206 29.5705 26.5206 29.6624 26.5307 29.7535V30.1281H19.4061V29.4793H20.2645ZM36.1116 29.4793V30.1481H29.0266V29.7736C29.0237 29.681 29.0104 29.589 28.987 29.4994H36.1182L36.1116 29.4793ZM47.9244 37.505C47.8193 37.505 47.7186 37.5472 47.6443 37.6225C47.57 37.6977 47.5282 37.7998 47.5282 37.9062V38.8426H46.4915V36.1674H49.3705V38.8426H48.3272V37.8394C48.3272 37.7329 48.2854 37.6309 48.2111 37.5556C48.1368 37.4804 48.0361 37.4381 47.931 37.4381L47.9244 37.505ZM43.2495 38.8426V37.8394C43.2495 37.7329 43.2077 37.6309 43.1334 37.5556C43.0591 37.4804 42.9584 37.4381 42.8533 37.4381C42.7482 37.4381 42.6475 37.4804 42.5732 37.5556C42.4989 37.6309 42.4571 37.7329 42.4571 37.8394V38.8426H39.981V36.1674H45.6992V38.8426H43.2495ZM37.6633 38.8426H36.3427V36.1674H39.2217V38.8426H37.6633ZM24.1602 30.8972V32.0275H21.4596V30.8972H24.1602ZM25.6195 30.8972V32.4221V34.4285V37.3712H24.9592V30.8972H25.6195ZM26.8939 30.8972H29.1125V32.0275H26.4383V30.8972H26.8939ZM30.5717 30.8972V37.3712H29.9114V30.8972H30.5717ZM34.0647 30.8972V32.0275H31.3641V30.8972H34.0647ZM35.5174 30.8972V37.3712H34.8571V30.8972H35.5174ZM20.0003 38.1738H35.5174V38.8426H20.0003V38.1738ZM24.1602 34.0339H21.4596V32.8233H24.1602V34.0339ZM21.4596 34.8297H24.1602V37.3712H21.4596V34.8297ZM29.1125 34.0272H26.4383V32.8233H29.1389L29.1125 34.0272ZM26.4383 34.8297H29.1389V37.3712H26.4383V34.8297ZM34.0911 34.0272H31.3641V32.8233H34.0647L34.0911 34.0272ZM31.3641 34.8297H34.0647V37.3712H31.3641V34.8297ZM20.6672 37.3712H20.0069V30.8972H20.6672V37.3712ZM46.4915 28.0414H49.3705V32.0542H46.4915V28.0414ZM49.3705 32.8233V35.4116H46.4915V32.8233H49.3705ZM45.6992 35.4116H39.981V32.8233H45.6992V35.4116ZM39.1886 35.4116H36.3427V32.8233H39.2217L39.1886 35.4116ZM28.2343 29.7201V30.0946H27.29V29.7201C27.3514 29.3984 27.5135 29.1052 27.7523 28.8841C27.9972 29.1033 28.1662 29.3963 28.2343 29.7201ZM19.208 35.4183H16.3291V32.8233H19.208V35.4183ZM15.5367 35.4183H9.81852V32.8233H15.5367V35.4183ZM6.14725 32.8233H9.02616V35.4116H6.14725V32.8233ZM6.14725 28.0347H9.02616V32.0475H6.14725V28.0347ZM16.3291 36.2209H19.208V38.8961H16.3291V36.2209ZM38.119 39.6585H49.344V40.3273H38.119V39.6585ZM46.3397 26.657C46.3688 26.4244 46.4875 26.2129 46.6698 26.0685L47.8848 25.1054L49.2054 26.0751C49.3848 26.2182 49.5011 26.4274 49.5289 26.657C49.5557 26.8475 49.5305 27.0417 49.4563 27.2188H46.4123C46.3381 27.0417 46.3129 26.8475 46.3397 26.657ZM45.6794 30.8972V32.0275H39.981V30.8972H45.6794ZM36.1579 26.657C36.1894 26.4236 36.3104 26.2122 36.4946 26.0685L37.703 25.1054L39.0236 26.0751C39.2011 26.2189 39.3151 26.4282 39.3405 26.657C39.3693 26.8469 39.3465 27.0411 39.2745 27.2188H36.2371C36.1606 27.0423 36.1332 26.8481 36.1579 26.657ZM36.3427 28.0414H39.2217V32.0542H36.3427V30.8972H36.5474C36.6525 30.8972 36.7533 30.8549 36.8276 30.7797C36.9019 30.7044 36.9436 30.6023 36.9436 30.4959V29.0446C36.9436 28.9382 36.9019 28.8361 36.8276 28.7609C36.7533 28.6856 36.6525 28.6433 36.5474 28.6433H36.3427V28.0414ZM30.1095 23.7143C30.0044 23.7143 29.9037 23.7565 29.8294 23.8318C29.7551 23.9071 29.7133 24.0091 29.7133 24.1156V25.0385H28.155V24.1289C28.155 24.0225 28.1133 23.9204 28.039 23.8452C27.9647 23.7699 27.8639 23.7276 27.7589 23.7276C27.6538 23.7276 27.553 23.7699 27.4787 23.8452C27.4044 23.9204 27.3627 24.0225 27.3627 24.1289V25.0519H25.8374V24.1289C25.8374 24.0225 25.7956 23.9204 25.7213 23.8452C25.647 23.7699 25.5463 23.7276 25.4412 23.7276C25.3361 23.7276 25.2354 23.7699 25.1611 23.8452C25.0868 23.9204 25.045 24.0225 25.045 24.1289V25.0519H23.7244C23.7276 25.014 23.7276 24.976 23.7244 24.9382V22.9719H31.7867V24.9248C31.7835 24.9626 31.7835 25.0007 31.7867 25.0385H30.4661V24.1289C30.4678 24.0757 30.4591 24.0226 30.4404 23.9728C30.4217 23.923 30.3934 23.8775 30.3571 23.8389C30.3209 23.8003 30.2774 23.7694 30.2292 23.748C30.181 23.7266 30.1291 23.7151 30.0765 23.7143H30.1095ZM28.6304 16.5982L31.7206 18.511C32.0269 18.7035 32.2883 18.9611 32.4867 19.2659C32.6851 19.5708 32.8157 19.9156 32.8696 20.2766C32.9186 20.6092 32.9006 20.9484 32.8166 21.2737C32.7327 21.599 32.5844 21.9037 32.3809 22.1693H29.0795V21.3333C29.0764 21.1522 29.0406 20.9731 28.9738 20.805C28.7851 20.3336 28.4328 19.9483 27.9834 19.7215C27.8731 19.6769 27.7502 19.6769 27.64 19.7215C27.1816 19.9391 26.816 20.3166 26.6099 20.7849C26.535 20.9674 26.4946 21.1625 26.4911 21.3601V22.1961H23.1368C22.9344 21.9299 22.7874 21.625 22.7045 21.2997C22.6217 20.9744 22.6048 20.6355 22.6547 20.3034C22.7086 19.9424 22.8393 19.5975 23.0376 19.2927C23.236 18.9878 23.4974 18.7302 23.8037 18.5377L26.8608 16.625L28.6304 16.5982ZM27.3098 21.3333C27.3086 21.242 27.3243 21.1513 27.3561 21.0658C27.4435 20.8573 27.5907 20.6802 27.7787 20.5575C27.9631 20.6842 28.1094 20.8602 28.2013 21.0658C28.2305 21.152 28.2461 21.2423 28.2475 21.3333V22.1693H27.29L27.3098 21.3333ZM27.8447 13.8026C27.9039 13.8017 27.9627 13.8129 28.0176 13.8354C28.0724 13.8579 28.1223 13.8914 28.1642 13.9338C28.206 13.9762 28.2391 14.0267 28.2613 14.0823C28.2836 14.1379 28.2946 14.1974 28.2937 14.2574V15.7957H27.2438V14.2574C27.2429 14.1974 27.2539 14.1379 27.2762 14.0823C27.2984 14.0267 27.3315 13.9762 27.3733 13.9338C27.4152 13.8914 27.4651 13.8579 27.5199 13.8354C27.5748 13.8129 27.6336 13.8017 27.6928 13.8026H27.8447ZM22.6547 26.3828C22.6547 26.2391 22.7111 26.1013 22.8114 25.9997C22.9117 25.8981 23.0477 25.8411 23.1896 25.8411H32.3281C32.4706 25.841 32.6073 25.8979 32.7087 25.9993C32.81 26.1007 32.8678 26.2385 32.8696 26.3828V26.978H22.6547V26.3828ZM22.7538 27.7806H32.7639L33.9855 28.6433H28.5908C28.4147 28.4178 28.2179 28.2095 28.0032 28.0214C27.9324 27.9627 27.8437 27.9306 27.7523 27.9306C27.6608 27.9306 27.5721 27.9627 27.5013 28.0214C27.2876 28.2085 27.093 28.4169 26.9203 28.6433H21.5322L22.7538 27.7806ZM19.0099 28.6433C18.9048 28.6433 18.804 28.6856 18.7297 28.7609C18.6554 28.8361 18.6137 28.9382 18.6137 29.0446V30.4959C18.6137 30.6023 18.6554 30.7044 18.7297 30.7797C18.804 30.8549 18.9048 30.8972 19.0099 30.8972H19.208V32.0275H16.3291V28.0147H19.208V28.6166L19.0099 28.6433ZM16.1838 26.6369C16.1968 26.5214 16.2328 26.4096 16.2895 26.3085C16.3462 26.2074 16.4226 26.1189 16.514 26.0484L17.7223 25.0853L19.0429 26.0551C19.2204 26.1989 19.3344 26.4081 19.3598 26.6369C19.3919 26.8267 19.3689 27.0219 19.2938 27.1987H16.2564C16.1828 27.0285 16.1577 26.8409 16.1838 26.657V26.6369ZM15.5235 30.8771V32.0074H9.81852V30.8972L15.5235 30.8771ZM6.00199 26.657C6.015 26.5414 6.05096 26.4297 6.10769 26.3286C6.16443 26.2274 6.24077 26.1389 6.33214 26.0685L7.54048 25.1054L8.86108 26.0751C9.03863 26.2189 9.15261 26.4282 9.17803 26.657C9.21006 26.8468 9.18713 27.0419 9.112 27.2188H6.07462C5.99725 27.0426 5.97202 26.8474 6.00199 26.657ZM6.15386 39.6585H17.3129V40.3273H6.15386V39.6585ZM18.1053 40.3273V39.6986H37.353V40.3273H18.1053Z" fill="black"/>
</svg>
