<svg width="56" height="55" viewBox="0 0 56 55" fill="none" xmlns="http://www.w3.org/2000/svg">
<rect x="0.789062" width="54.9294" height="54.9294" rx="11.9412" fill="white"/>
<path d="M27.6558 44.1176C21.0487 44.1176 14.4414 44.1149 7.83406 44.1251C7.50948 44.1258 7.4212 44.049 7.42188 43.7184C7.43206 36.9412 7.43071 30.1642 7.42458 23.387C7.42458 23.1406 7.4755 23.051 7.73898 23.0618C8.26993 23.0836 8.80365 23.0469 9.33325 23.0761C9.66188 23.0937 9.72845 22.9709 9.72096 22.6721C9.70194 21.9483 9.73525 21.2231 9.70605 20.5006C9.69243 20.1666 9.8174 20.1224 10.1066 20.1231C13.0141 20.1326 15.9223 20.1211 18.8297 20.1381C19.1862 20.1401 19.2541 20.0369 19.2507 19.7035C19.2324 18.188 19.2358 16.6711 19.2494 15.1556C19.2514 14.8832 19.1713 14.7964 18.9058 14.8194C18.6586 14.8412 18.4081 14.8194 18.1596 14.8242C18.0163 14.8276 17.9613 14.7739 17.962 14.6259C17.9667 13.4832 17.9681 12.3404 17.9633 11.1977C17.962 10.9492 18.1338 11.0055 18.2689 11.0055C19.7172 11.0028 21.1655 11.0035 22.6137 11.0035C27.3883 11.0035 32.1623 11.0028 36.9375 11.0041C37.4369 11.0041 37.3737 10.9519 37.3761 11.4347C37.3798 12.4531 37.3688 13.4716 37.3835 14.4895C37.3878 14.7522 37.3215 14.8398 37.0492 14.831C36.494 14.812 36.494 14.8276 36.494 15.3776C36.494 16.8374 36.5019 18.2966 36.4866 19.7558C36.4835 20.0478 36.548 20.1374 36.8559 20.136C40.0686 20.1238 43.282 20.1326 46.4959 20.1224C46.7854 20.1217 46.8848 20.1808 46.8744 20.4918C46.8486 21.2605 46.8713 22.0304 46.8615 22.7997C46.8591 23.0007 46.9124 23.0713 47.1265 23.074C47.8983 23.0842 47.8977 23.0924 47.8977 23.8773C47.8977 30.4846 47.8958 37.092 47.9062 43.6993C47.9075 44.0422 47.8234 44.1278 47.4793 44.1271C40.871 44.1142 34.2634 44.1176 27.6558 44.1176ZM46.8652 35.3687C46.8652 32.9141 46.8609 30.4589 46.8713 28.0043C46.8726 27.7224 46.8241 27.6159 46.5069 27.6166C42.22 27.6281 37.9319 27.6267 33.645 27.6186C33.369 27.6179 33.2837 27.6831 33.2837 27.971C33.2923 32.8917 33.2917 37.8131 33.2843 42.7338C33.2837 42.983 33.3426 43.0611 33.6015 43.0591C34.7094 43.0502 35.8185 43.0686 36.9265 43.0692C40.1165 43.0713 43.3071 43.0651 46.4971 43.076C46.7971 43.0773 46.8732 42.9979 46.872 42.6991C46.8591 40.2555 46.8646 37.8124 46.8652 35.3687ZM22.0352 35.3408C22.0352 32.8747 22.0322 30.4079 22.0407 27.9418C22.0414 27.6899 21.9776 27.6179 21.7211 27.6186C17.4106 27.6267 13.0997 27.6261 8.78942 27.6199C8.55176 27.6193 8.45397 27.6593 8.45465 27.9302C8.46281 32.874 8.46213 37.8185 8.45667 42.7623C8.45667 42.9905 8.50961 43.0746 8.75543 43.074C13.0658 43.0618 17.376 43.0556 21.6862 43.0591C21.9653 43.0591 22.045 42.9918 22.0432 42.706C22.0315 40.2514 22.0358 37.7961 22.0352 35.3408ZM24.7909 37.2441C24.7909 39.0767 24.794 40.9093 24.7866 42.742C24.786 42.9585 24.8136 43.0604 25.0725 43.0584C26.8147 43.0468 28.5563 43.0475 30.2986 43.0576C30.5403 43.0591 30.598 42.987 30.5973 42.7528C30.5906 39.167 30.5918 35.5806 30.5937 31.9947C30.5937 31.5812 30.5096 31.1854 30.3397 30.8106C29.7759 29.5673 28.4349 28.8666 27.1374 29.1321C25.7632 29.4132 24.805 30.5634 24.7946 31.9846C24.7811 33.737 24.7915 35.4909 24.7909 37.2441ZM23.0665 34.2354C23.0665 35.2424 23.0665 36.2494 23.0665 37.2563C23.0665 39.0889 23.0689 40.9216 23.0634 42.7548C23.0628 42.9667 23.0891 43.0713 23.3486 43.0862C23.6928 43.1059 23.7511 42.981 23.7499 42.6652C23.7388 39.1358 23.7351 35.6057 23.7462 32.0762C23.7529 30.0059 25.2252 28.2989 27.1484 28.0891C29.6336 27.8175 31.6132 29.5768 31.6218 32.0769C31.6304 34.4188 31.6243 36.7606 31.6243 39.1025C31.6243 40.3241 31.6237 41.5462 31.628 42.7677C31.6292 42.8689 31.5685 42.9986 31.7139 43.0651C32.0077 43.201 32.2604 43.0414 32.2604 42.7168C32.2604 37.0717 32.2574 31.4257 32.266 25.7805C32.2666 25.492 32.1807 25.4254 31.9046 25.4268C29.0766 25.437 26.2479 25.4377 23.4198 25.4275C23.1364 25.4261 23.0622 25.5028 23.0628 25.7853C23.0714 28.6011 23.0677 31.4183 23.0665 34.2354ZM27.6515 13.7799V13.7772C27.8435 13.7772 28.0355 13.7772 28.2275 13.7772C30.8059 13.7772 33.3843 13.7711 35.9615 13.7853C36.2823 13.7874 36.3719 13.6896 36.3486 13.3868C36.324 13.0717 36.3216 12.7519 36.3492 12.4382C36.3762 12.1265 36.2762 12.0424 35.9603 12.0437C33.0659 12.0559 30.171 12.0505 27.2767 12.0505C24.6302 12.0505 21.9849 12.0539 19.339 12.0457C19.0844 12.0451 18.9716 12.0933 18.9913 12.3771C19.0172 12.7485 19.0063 13.1233 18.9954 13.4961C18.9893 13.7025 19.03 13.788 19.2732 13.7874C22.0659 13.7758 24.8584 13.7799 27.6515 13.7799ZM27.8705 21.2462C30.29 21.2462 32.7101 21.2421 35.129 21.2523C35.3922 21.2536 35.4842 21.1912 35.467 20.9182C35.4431 20.5237 35.4388 20.1259 35.4683 19.732C35.4903 19.4217 35.3781 19.3599 35.0879 19.3606C32.0807 19.3708 29.0729 19.3667 26.0651 19.3667C24.2449 19.3667 22.4242 19.3728 20.604 19.3613C20.3324 19.3599 20.2516 19.4401 20.2659 19.7062C20.2869 20.1007 20.2896 20.4986 20.2651 20.8924C20.2482 21.1687 20.3235 21.2536 20.6121 21.2523C23.0315 21.2401 25.4504 21.2455 27.8705 21.2462ZM27.719 18.3312C28.849 18.3312 29.979 18.3251 31.109 18.336C31.3415 18.338 31.42 18.2783 31.4163 18.0358C31.4034 17.0527 31.4053 16.0695 31.4151 15.087C31.4169 14.8792 31.3537 14.8181 31.1452 14.8188C28.8858 14.8248 26.6258 14.8248 24.3664 14.8167C24.1345 14.8161 24.0554 14.8752 24.0584 15.1182C24.0719 16.0899 24.0719 17.0615 24.0584 18.0331C24.0554 18.2721 24.1259 18.3387 24.3627 18.336C25.4817 18.3244 26.6006 18.3312 27.719 18.3312ZM27.9061 22.2789C25.4528 22.2789 22.9996 22.2864 20.5456 22.2714C20.1443 22.2694 20.2706 22.5234 20.2522 22.7209C20.2332 22.926 20.2332 23.0849 20.5361 23.0754C21.2701 23.053 22.0064 23.0815 22.7401 23.0612C23.0168 23.0537 23.0922 23.144 23.0695 23.4033C23.0493 23.639 23.0775 23.8787 23.0615 24.115C23.0462 24.337 23.1235 24.4076 23.3486 24.4042C24.1511 24.3919 24.9535 24.3994 25.7565 24.3994C27.8134 24.3994 29.8716 24.394 31.9292 24.4062C32.2101 24.4083 32.2813 24.3146 32.2611 24.0579C32.2427 23.8223 32.2721 23.5826 32.2537 23.3463C32.2359 23.1209 32.3181 23.0612 32.5383 23.0639C33.3972 23.0754 34.2567 23.053 35.1155 23.0761C35.4229 23.0842 35.5038 22.9919 35.486 22.6972C35.4707 22.444 35.5038 22.2647 35.129 22.2674C32.723 22.2871 30.3145 22.2776 27.9061 22.2789ZM41.1747 21.1606V21.162C39.7269 21.162 38.2785 21.1681 36.8301 21.1559C36.5743 21.1538 36.4952 21.2231 36.5075 21.4784C36.5271 21.896 36.5253 22.3163 36.505 22.7339C36.4927 22.9851 36.5664 23.0666 36.8259 23.0618C37.6516 23.0455 38.4779 23.0557 39.3036 23.0557C41.363 23.0557 43.4224 23.051 45.4812 23.0618C45.7511 23.0632 45.834 22.9864 45.8205 22.7196C45.7996 22.3136 45.7996 21.9048 45.8199 21.4981C45.8327 21.2367 45.7603 21.1518 45.4855 21.1545C44.0494 21.1681 42.6114 21.1606 41.1747 21.1606ZM15.0029 21.1606C13.6809 21.1606 12.3589 21.1647 11.0369 21.1559C10.8223 21.1545 10.7381 21.2027 10.7469 21.4343C10.7646 21.8858 10.7619 22.338 10.7483 22.7895C10.7422 22.9939 10.8026 23.0605 11.0131 23.0598C13.6571 23.053 16.3012 23.0523 18.9452 23.0598C19.1781 23.0605 19.2324 22.9763 19.2256 22.7631C19.2114 22.334 19.2046 21.9034 19.2249 21.4757C19.2371 21.2176 19.153 21.1525 18.9004 21.1552C17.6015 21.1674 16.3018 21.1606 15.0029 21.1606ZM32.4414 16.5611C32.4414 17.069 32.4482 17.5775 32.4384 18.0854C32.4341 18.2783 32.4985 18.338 32.6911 18.336C33.5377 18.3272 34.3843 18.3292 35.2308 18.336C35.4069 18.3374 35.4658 18.279 35.4646 18.1017C35.4584 17.086 35.4584 16.0695 35.4646 15.0537C35.4658 14.8752 35.4032 14.8188 35.2296 14.8201C34.383 14.8256 33.5365 14.8269 32.6893 14.8181C32.496 14.8161 32.4347 14.8819 32.439 15.072C32.4482 15.567 32.4414 16.064 32.4414 16.5611ZM23.0346 16.5936C23.0346 16.1068 23.0254 15.62 23.0388 15.1338C23.0456 14.9104 22.9984 14.8106 22.7462 14.8161C22.0107 14.831 21.2755 14.8269 20.5395 14.8167C20.3365 14.814 20.2645 14.8717 20.2665 15.0843C20.2767 16.0797 20.2767 17.0758 20.2665 18.0719C20.2645 18.2885 20.3432 18.338 20.5422 18.3353C21.2775 18.3265 22.0137 18.3244 22.7487 18.3374C22.9695 18.3414 23.0468 18.281 23.0395 18.0535C23.0241 17.5673 23.0346 17.0805 23.0346 16.5936ZM14.3158 25.3188C14.3158 25.6583 14.3226 25.9978 14.313 26.3373C14.3076 26.522 14.3619 26.6001 14.5616 26.596C15.1272 26.5845 15.6928 26.5845 16.2584 26.5947C16.4594 26.598 16.5069 26.5172 16.5048 26.3339C16.4974 25.6665 16.4974 24.999 16.5048 24.3315C16.5069 24.1571 16.4512 24.0946 16.272 24.0973C15.6948 24.1068 15.1177 24.1075 14.5412 24.098C14.3572 24.0946 14.3083 24.1645 14.313 24.335C14.3226 24.6622 14.3158 24.9909 14.3158 25.3188ZM42.3483 25.3521C42.3483 25.68 42.3562 26.0087 42.3458 26.336C42.3397 26.524 42.401 26.5974 42.5967 26.594C43.1623 26.5845 43.7279 26.5845 44.2936 26.5953C44.4948 26.5994 44.5426 26.5159 44.5408 26.3339C44.534 25.6665 44.534 24.999 44.5402 24.3315C44.5414 24.1584 44.4862 24.0939 44.3064 24.0973C43.7298 24.1068 43.1531 24.1061 42.5759 24.0973C42.3949 24.0946 42.3403 24.1604 42.3446 24.3343C42.3556 24.6731 42.3489 25.0126 42.3483 25.3521ZM11.0967 25.3222C11.0967 25.6719 11.1014 26.0216 11.0946 26.3706C11.0912 26.5274 11.1448 26.5947 11.3078 26.5933C11.8938 26.5878 12.4804 26.5878 13.0664 26.5933C13.2239 26.5947 13.2878 26.5396 13.2864 26.3774C13.281 25.6895 13.281 25.0017 13.2871 24.3139C13.2884 24.1537 13.2341 24.0966 13.0725 24.098C12.4865 24.1048 11.8999 24.1075 11.3139 24.0973C11.1231 24.0939 11.0898 24.1788 11.0946 24.341C11.1027 24.6676 11.0967 24.9949 11.0967 25.3222ZM17.539 25.3277C17.539 25.6665 17.5437 26.006 17.5369 26.3448C17.5336 26.505 17.5614 26.5987 17.7549 26.5953C18.3422 26.5858 18.9302 26.5892 19.5182 26.5933C19.6615 26.594 19.7186 26.5431 19.7179 26.3957C19.7131 25.695 19.7131 24.9942 19.7179 24.2935C19.7193 24.1448 19.6629 24.098 19.5189 24.0993C18.9309 24.1048 18.3436 24.1082 17.7556 24.098C17.5621 24.0946 17.5336 24.1849 17.5369 24.3445C17.5437 24.6718 17.539 24.9997 17.539 25.3277ZM38.1147 25.3555C38.1147 25.0282 38.1049 24.701 38.1178 24.3743C38.1258 24.1794 38.0816 24.0905 37.8608 24.0966C37.297 24.1109 36.732 24.1088 36.1688 24.0973C35.9719 24.0932 35.9173 24.1645 35.9198 24.3519C35.9277 25.0173 35.929 25.6834 35.9198 26.3488C35.9167 26.5478 35.9946 26.5987 36.1793 26.596C36.7436 26.5872 37.308 26.5858 37.8718 26.596C38.07 26.5994 38.1239 26.524 38.1172 26.338C38.1062 26.01 38.1141 25.6827 38.1147 25.3555ZM41.314 25.3731C41.314 25.0228 41.3097 24.6724 41.3164 24.3228C41.3189 24.1754 41.2949 24.0946 41.1164 24.098C40.5293 24.1075 39.9416 24.1055 39.3545 24.098C39.192 24.096 39.1386 24.155 39.1398 24.3146C39.146 24.9922 39.1484 25.6699 39.1386 26.3475C39.1362 26.5464 39.2135 26.5974 39.3981 26.5947C39.9514 26.5865 40.5054 26.5818 41.0581 26.5967C41.2759 26.6021 41.3262 26.5199 41.3176 26.3217C41.3048 26.006 41.314 25.6895 41.314 25.3731ZM10.0673 25.3602C10.0673 25.0323 10.0584 24.7036 10.0706 24.3764C10.0774 24.1842 10.0401 24.0851 9.8147 24.096C9.44189 24.1129 9.06848 24.1055 8.695 24.096C8.52391 24.0912 8.45397 24.1414 8.45667 24.3241C8.4655 25.0024 8.46483 25.6814 8.45734 26.3604C8.45532 26.539 8.5198 26.5994 8.69433 26.5953C9.06707 26.5865 9.44122 26.5851 9.81402 26.596C10.0021 26.6015 10.0781 26.5417 10.0706 26.3455C10.0584 26.0168 10.0679 25.6882 10.0673 25.3602ZM34.8898 25.3528C34.8898 25.0139 34.8842 24.6744 34.8922 24.3356C34.8965 24.1713 34.8572 24.0878 34.6689 24.0939C34.2849 24.1061 33.9002 24.1055 33.5162 24.0946C33.3371 24.0891 33.2837 24.1529 33.2855 24.3281C33.2935 24.9949 33.2966 25.6617 33.2843 26.3278C33.2806 26.541 33.3598 26.6008 33.5604 26.594C33.9217 26.5818 34.2837 26.5818 34.645 26.594C34.8437 26.6008 34.8983 26.5207 34.8928 26.3353C34.8818 26.0087 34.8898 25.6807 34.8898 25.3528ZM22.0364 25.3188C22.0364 24.9915 22.0303 24.6636 22.0395 24.3363C22.0444 24.1706 22.0052 24.0864 21.8168 24.0953C21.5346 24.1082 21.2518 24.1075 20.9699 24.0946C20.7873 24.0864 20.7398 24.1564 20.7418 24.3295C20.7499 25.0071 20.7499 25.6855 20.7418 26.3631C20.7398 26.5451 20.8097 26.5994 20.9808 26.594C21.2518 26.5845 21.5233 26.5811 21.7941 26.5947C21.9947 26.6048 22.0463 26.5193 22.0401 26.3353C22.0291 25.9971 22.0364 25.6583 22.0364 25.3188ZM45.5781 25.3528C45.5781 25.4431 45.5781 25.5334 45.5781 25.6237C45.5812 26.6544 45.58 26.651 46.6253 26.5953C46.7904 26.5865 46.8701 26.5505 46.8683 26.3658C46.8603 25.678 46.8609 24.9902 46.8683 24.3023C46.8701 24.1285 46.7897 24.096 46.6407 24.0993C46.3591 24.1061 46.0769 24.1115 45.7953 24.0973C45.6045 24.0878 45.5714 24.1747 45.5757 24.3383C45.5837 24.6758 45.5775 25.0139 45.5781 25.3528Z" fill="black"/>
<path d="M36.1606 31.2589C36.1606 30.5697 36.1668 29.8805 36.1563 29.192C36.1539 28.9924 36.203 28.9183 36.4183 28.915C37.2029 28.9028 37.2035 28.8946 37.2041 29.6829C37.2047 30.88 37.1992 32.0777 37.209 33.2748C37.2109 33.5036 37.1551 33.5878 36.9097 33.5878C36.1594 33.5885 36.1594 33.5987 36.1606 32.8511C36.1612 32.3201 36.1606 31.7892 36.1606 31.2589Z" fill="black"/>
<path d="M40.5933 31.2855C40.5933 31.9516 40.5847 32.617 40.5976 33.2824C40.6025 33.5085 40.5528 33.5968 40.3038 33.5948C39.559 33.59 39.5584 33.6016 39.5584 32.856C39.5584 31.6487 39.5639 30.4408 39.5547 29.2335C39.5529 29.0061 39.6044 28.9205 39.8523 28.9219C40.5952 28.9259 40.5952 28.9151 40.5952 29.6599C40.5952 30.2018 40.5952 30.743 40.5952 31.2848C40.5939 31.2855 40.5933 31.2855 40.5933 31.2855Z" fill="black"/>
<path d="M44.3716 31.2577C44.3716 31.9462 44.3666 32.6354 44.3746 33.3239C44.3771 33.5045 44.3384 33.5785 44.1354 33.5853C43.3391 33.6097 43.3409 33.6179 43.3416 32.8302C43.3428 31.6332 43.3483 30.4368 43.336 29.2403C43.3336 28.9986 43.3771 28.9063 43.6464 28.9124C44.3703 28.928 44.3709 28.9144 44.3716 29.6328C44.3716 29.9037 44.3716 30.1747 44.3716 30.4456C44.3716 30.7159 44.3716 30.9868 44.3716 31.2577Z" fill="black"/>
<path d="M18.5127 31.2359C18.5127 30.5576 18.5209 29.8793 18.508 29.201C18.5039 28.9789 18.5718 28.9144 18.7952 28.9131C19.5611 28.9076 19.5604 28.8988 19.5604 29.6688C19.5597 30.8672 19.553 32.0657 19.5665 33.2641C19.5692 33.5201 19.4966 33.59 19.2426 33.586C18.5134 33.5744 18.5127 33.586 18.5127 32.8642C18.5127 32.5926 18.5127 32.3217 18.5127 32.05C18.5127 31.7785 18.5127 31.5076 18.5127 31.2359Z" fill="black"/>
<path d="M15.7662 31.2742C15.7662 31.9403 15.7594 32.6057 15.7709 33.2718C15.775 33.4931 15.7302 33.5896 15.4783 33.5888C14.7308 33.5882 14.7314 33.5998 14.7321 32.8521C14.7328 31.6557 14.7375 30.4594 14.7266 29.2637C14.7246 29.0185 14.7585 28.9038 15.0506 28.9126C15.7655 28.9337 15.7655 28.9174 15.7662 29.6486C15.7662 29.9196 15.7662 30.1905 15.7662 30.4614C15.7662 30.7323 15.7655 31.0033 15.7662 31.2742Z" fill="black"/>
<path d="M12.3841 31.2575C12.3841 31.9351 12.3773 32.6128 12.3881 33.2904C12.3915 33.4989 12.3528 33.5871 12.1152 33.5871C11.3499 33.5871 11.3499 33.598 11.3493 32.8348C11.3486 31.6377 11.3547 30.4407 11.3438 29.2436C11.3418 29.0039 11.3866 28.9081 11.6555 28.9122C12.3841 28.9224 12.3841 28.9081 12.3834 29.6313C12.3834 30.1732 12.3841 30.715 12.3841 31.2575Z" fill="black"/>
</svg>
