<svg width="132" height="44" viewBox="0 0 132 44" fill="none" xmlns="http://www.w3.org/2000/svg">
<path fill-rule="evenodd" clip-rule="evenodd" d="M42.0076 0H42.1072C43.1688 0.0255197 44.0467 0.293477 44.6106 0.801319C45.3405 1.45718 45.3482 2.7791 45.3124 4.28731H42.5895V2.94498C42.5895 2.48052 42.6252 1.84508 42.4287 1.6843C42.3011 1.57712 41.977 1.55415 41.8086 1.66389C41.5534 1.82721 41.6095 2.68467 41.6095 3.18741V6.61216C41.6095 7.10214 41.5381 7.93663 41.8086 8.11527C41.954 8.20969 42.2756 8.18162 42.3904 8.09486C42.5997 7.93919 42.5895 7.439 42.5895 7.05365C42.5895 6.60195 42.5895 6.24723 42.5895 5.81084C43.498 5.81084 44.4065 5.81084 45.3124 5.81084C45.2716 6.81632 45.3864 7.62785 45.0521 8.35516C44.8403 8.81706 44.2814 9.256 43.771 9.47802C42.2832 10.1211 39.79 9.73833 39.1852 8.47765C38.9121 7.90601 38.9325 7.25015 38.8636 6.45394V3.26908C38.8559 2.1947 38.9835 1.4929 39.4633 0.946782C40.0043 0.334308 40.9001 0.0561434 42.0076 0.00510394V0Z" fill="#231F20"/>
<path fill-rule="evenodd" clip-rule="evenodd" d="M46.8127 0.164062H50.7377C51.2379 3.31064 51.784 6.40874 52.2791 9.55787H49.7347L49.5357 7.83529H49.3698L48.1729 7.83274C48.1066 8.40693 48.0377 8.98368 47.9713 9.55787H45.3887C45.8557 6.45212 46.3125 3.33872 46.7719 0.22531C46.7719 0.192134 46.7872 0.17427 46.8127 0.164062ZM48.7752 6.23265H49.3162C49.1988 4.95411 48.9972 3.58626 48.8543 2.26689C48.6859 3.58371 48.5226 4.90818 48.3643 6.23265H48.7752Z" fill="#231F20"/>
<path fill-rule="evenodd" clip-rule="evenodd" d="M52.7615 0.182239H55.4666C55.5126 2.5224 55.4743 5.25811 55.487 7.65186C55.9949 7.6978 56.5895 7.65952 57.1305 7.67228C57.1305 8.30006 57.1305 8.92785 57.1305 9.55563H52.7437V0.240935C52.7437 0.212863 52.7411 0.184791 52.7641 0.179688L52.7615 0.182239Z" fill="#231F20"/>
<path fill-rule="evenodd" clip-rule="evenodd" d="M57.7893 0.182239H60.4944V7.65186C61.0073 7.6978 61.6096 7.65952 62.1557 7.67228C62.1557 8.30006 62.1557 8.92785 62.1557 9.55563H57.7689V0.240935C57.7689 0.212863 57.7663 0.184791 57.7893 0.179688V0.182239Z" fill="#231F20"/>
<path fill-rule="evenodd" clip-rule="evenodd" d="M68.2444 1.86586V7.95487C68.4741 7.95742 68.8467 7.92169 68.9666 7.75326C69.135 7.51338 69.0865 6.84986 69.0865 6.39051C69.0865 5.35441 69.0865 4.38721 69.0865 3.38684C69.0865 2.93003 69.1503 2.20017 68.987 1.9858C68.8594 1.81993 68.5328 1.79951 68.2648 1.80461C68.2418 1.80717 68.2418 1.83524 68.2444 1.86586ZM65.5393 0.184111C66.3764 0.212182 67.3104 0.145831 68.2036 0.184111C69.7424 0.24791 71.0388 0.24791 71.5875 1.28656C71.8146 1.71529 71.8274 2.49365 71.8274 3.24903V7.05402C71.8274 8.09267 71.7406 8.86082 71.0873 9.23596C70.4442 9.60599 69.4132 9.57537 68.4639 9.57537C67.4533 9.57537 66.407 9.59068 65.4985 9.55495V0.242806C65.4985 0.209631 65.5138 0.191767 65.5393 0.181559V0.184111Z" fill="#231F20"/>
<path fill-rule="evenodd" clip-rule="evenodd" d="M72.5288 0.182628H75.2134C75.2798 2.44623 75.1241 4.9931 75.2134 7.37409C75.2288 7.75943 75.2364 8.09374 75.4942 8.15499C76.1551 8.31066 75.9739 7.1291 75.9739 6.55235C75.9739 4.44442 75.9739 2.28801 75.9739 0.203044C76.8416 0.157109 77.796 0.195388 78.6969 0.182628C78.6969 2.12978 78.6969 4.1586 78.6969 6.19252C78.6969 6.90963 78.7454 7.73136 78.5361 8.25452C78.1916 9.11964 77.2984 9.63258 76.173 9.73721C74.6035 9.88268 72.8375 9.34166 72.567 7.9151C72.4573 7.34346 72.5262 6.68505 72.5083 6.03175C72.4497 4.17136 72.493 2.07364 72.5083 0.243876C72.4854 0.215804 72.4854 0.195388 72.5288 0.182628Z" fill="#231F20"/>
<path fill-rule="evenodd" clip-rule="evenodd" d="M79.2997 0.182239H85.2483V2.0656H83.6457C83.5997 4.52825 83.638 7.08022 83.6253 9.57605C82.7168 9.56329 81.7572 9.60157 80.8819 9.55563V2.06304H79.2793V0.240935C79.2793 0.212863 79.2767 0.184791 79.2997 0.179688V0.182239Z" fill="#231F20"/>
<path fill-rule="evenodd" clip-rule="evenodd" d="M85.7483 0.179688H88.2314L89.0072 2.59896L89.6529 0.179688H92.1359L90.1454 6.14365L90.153 6.16917V9.63474H87.6291V6.23041C86.9988 4.23477 86.371 2.23913 85.7458 0.240935C85.733 0.225623 85.7152 0.187343 85.7458 0.179688H85.7483Z" fill="#231F20"/>
<path fill-rule="evenodd" clip-rule="evenodd" d="M62.155 2.96378C62.1193 3.43335 62.1346 4.16066 62.1346 4.66595C62.1346 4.83693 62.0657 5.08192 62.2342 5.14572C62.4026 5.13041 62.3541 4.88287 62.3541 4.68381V3.42314C62.3541 3.19601 62.4026 2.87702 62.2137 2.90254C62.1857 2.91274 62.1653 2.93316 62.1525 2.96378H62.155ZM62.0759 2.36407C62.4689 2.30537 62.9028 2.45339 63.0584 2.80556C63.1758 3.06586 63.1376 3.78041 63.1376 4.18873C63.1376 4.72975 63.1529 5.19676 62.9385 5.4494C62.5583 5.89855 61.6574 5.75054 61.4354 5.26821C61.3027 4.97729 61.3563 4.37758 61.3563 3.98712C61.3563 3.38486 61.3103 3.01993 61.4558 2.74431C61.5655 2.5376 61.7901 2.4049 62.0759 2.36407Z" fill="#231F20"/>
<path fill-rule="evenodd" clip-rule="evenodd" d="M64.6184 2.40625V3.06721H64.1387C64.0927 3.22799 64.131 3.47553 64.1182 3.66692H64.5597V4.28705H64.1387C64.0927 4.70047 64.131 5.20066 64.1182 5.64981H63.3782V2.40625H64.621H64.6184Z" fill="#231F20"/>
<path fill-rule="evenodd" clip-rule="evenodd" d="M91.1175 8.5625C91.2068 8.5625 91.2961 8.58547 91.3804 8.6314C91.4646 8.67734 91.5335 8.74369 91.5794 8.83046C91.6279 8.91722 91.6509 9.00654 91.6509 9.09841C91.6509 9.19028 91.6279 9.2796 91.5794 9.36382C91.5335 9.44803 91.4671 9.51439 91.3829 9.56287C91.2987 9.60881 91.2094 9.63433 91.1175 9.63433C91.0256 9.63433 90.9363 9.61136 90.8521 9.56287C90.7679 9.51694 90.7015 9.45059 90.6531 9.36382C90.6046 9.2796 90.5816 9.19028 90.5816 9.09841C90.5816 9.00654 90.6046 8.91467 90.6531 8.83046C90.7015 8.74369 90.7679 8.67989 90.8547 8.6314C90.9389 8.58547 91.0282 8.5625 91.1175 8.5625ZM91.1175 8.65182C91.0435 8.65182 90.9695 8.67223 90.898 8.71051C90.8266 8.74879 90.7704 8.80494 90.7322 8.87639C90.6913 8.94785 90.6709 9.02185 90.6709 9.10097C90.6709 9.18008 90.6913 9.25153 90.7296 9.32299C90.7679 9.39444 90.824 9.44803 90.8955 9.48887C90.9669 9.52714 91.041 9.54756 91.1175 9.54756C91.1941 9.54756 91.2681 9.52714 91.3395 9.48887C91.411 9.45059 91.4646 9.39444 91.5054 9.32299C91.5437 9.25153 91.5641 9.17752 91.5641 9.10097C91.5641 9.02441 91.5437 8.94785 91.5054 8.87639C91.4646 8.80494 91.411 8.74879 91.3395 8.71051C91.2681 8.67223 91.1941 8.65182 91.1201 8.65182H91.1175ZM90.8827 9.39444H90.9746V9.14945H91.0282C91.0614 9.14945 91.0869 9.15711 91.1022 9.16987C91.1277 9.18773 91.1583 9.23367 91.1992 9.30257L91.2502 9.39444H91.3625L91.2936 9.28216C91.2604 9.22856 91.2324 9.19028 91.2094 9.16732C91.1966 9.15456 91.1813 9.14435 91.1609 9.13669C91.2094 9.13414 91.2502 9.11628 91.2808 9.0831C91.3115 9.05248 91.3268 9.0142 91.3268 8.97337C91.3268 8.94274 91.3166 8.91467 91.2987 8.88915C91.2808 8.86363 91.2579 8.84322 91.2273 8.83301C91.1966 8.8228 91.1481 8.8177 91.0792 8.8177H90.8827V9.39189V9.39444ZM90.9746 9.07034H91.0869C91.1405 9.07034 91.1762 9.06269 91.1966 9.04737C91.217 9.03206 91.2273 9.00909 91.2273 8.98357C91.2273 8.96571 91.2221 8.9504 91.2119 8.93764C91.2017 8.92488 91.189 8.91467 91.1737 8.90702C91.1558 8.89936 91.1252 8.89681 91.0792 8.89681H90.9746V9.07034Z" fill="#231F20"/>
<path fill-rule="evenodd" clip-rule="evenodd" d="M1.60637 29.1788L1.62424 29.5208L3.46421 43.059L8.27213 43.0794H8.8259L11.9112 43.0692L13.2153 24.9298C13.2561 24.2561 13.1132 24.1565 13.667 24.1106L15.04 43.0743H23.4997C23.9872 40.6959 24.1709 37.853 24.5333 35.4286C24.9237 32.8128 26.9449 18.213 26.9653 16.2684C26.9806 14.8087 26.9602 13.3336 26.9602 11.8714L20.8176 11.828C20.6568 14.9184 20.3736 18.0624 20.1516 21.1529L19.5621 29.3268C19.5212 29.9648 19.6871 30.2098 19.1793 30.3553L17.7297 11.8305H9.20104L8.78507 17.8583C8.77231 18.139 8.8157 18.6647 8.63706 18.7974C8.78762 19.6753 8.1037 27.4665 7.96079 29.7071C7.92251 30.3042 8.02969 30.1511 7.70304 30.3476C7.40701 30.1741 7.51674 30.6947 7.42232 29.3677C7.3968 28.9925 7.36107 28.6123 7.333 28.2346C7.16712 26.0093 6.302 12.5961 6.11571 11.8892L0.0139436 11.8203C0.0139436 16.5823 -0.126415 16.0413 0.483506 20.7879C0.843334 23.5824 1.26441 26.3768 1.60637 29.1763V29.1788Z" fill="#231F20"/>
<path fill-rule="evenodd" clip-rule="evenodd" d="M111.63 43.1196L112.002 43.1272L112.926 43.1221H114.159L114.562 43.117L115.33 43.1298C115.511 43.0175 115.419 43.1068 115.465 42.8771V37.9799L115.458 37.5869L115.465 11.9345L109.45 11.9141L109.409 25.5237C108.805 25.4855 109.019 25.6003 108.567 24.1763L106.893 18.8937C106.5 17.6968 106.151 16.5893 105.77 15.3771C105.474 14.4278 105.005 12.6541 104.632 11.9141H98.6732L98.6248 43.1272L104.673 43.1221L104.678 29.5354C105.326 29.5048 105.326 30.2194 105.502 30.7833C106.311 33.3966 108.968 41.3179 109.399 43.1196H111.637H111.63Z" fill="#231F20"/>
<path fill-rule="evenodd" clip-rule="evenodd" d="M50.7472 17.472H51.7706C53.0108 17.472 53.1946 17.3317 53.7483 17.814L53.7611 22.7367C53.7611 23.5534 53.9678 25.0258 53.3528 25.2785H50.7727L50.7498 18.4647L50.7447 17.472H50.7472ZM43.8288 42.9994H50.6809L50.6656 31.2756C50.7217 30.8443 50.6732 31.0817 50.811 30.9235L51.4873 30.9413L54.3455 39.664L54.5012 40.1846L55.4199 42.9815L61.4247 42.9917V42.8769V38.5539L57.8009 28.7364C60.4217 27.1083 60.6769 26.261 60.6769 22.4917C60.6769 20.0495 61.0495 15.9485 60.0083 14.009C58.7094 11.5846 56.3182 11.827 52.9879 11.827C49.9331 11.827 46.8759 11.8219 43.8212 11.8219L43.8263 42.9994H43.8288Z" fill="#231F20"/>
<path fill-rule="evenodd" clip-rule="evenodd" d="M87.7611 17.4921C88.8507 17.4844 90.262 17.2318 90.4304 18.0995V34.7C90.4304 35.9301 90.6856 37.4715 89.7337 37.4715C87.8529 37.4715 87.3808 37.6935 87.3808 36.4099C87.3859 30.6475 87.2889 23.6347 87.4191 17.8494L87.7585 17.4921H87.7611ZM83.7876 11.9747C79.8193 13.095 80.4879 17.3517 80.4803 20.6616C80.4726 24.6887 80.4752 28.7182 80.4803 32.7478C80.4828 36.4456 79.7325 40.8095 82.6137 42.5499C84.0428 43.4125 85.819 43.1216 88.0239 43.1216C89.1927 43.1216 93.2401 43.2772 94.0848 43.0756C94.7356 42.9199 95.5369 42.3279 95.9095 41.9808C97.7699 40.2429 97.3207 37.0504 97.3207 34.3351C97.3207 31.6122 97.4688 18.3215 97.2825 16.262C97.1115 14.3787 96.3918 13.192 95.1235 12.4622C94.1486 11.9007 94.0185 11.9109 92.7833 11.9135C91.2062 11.916 84.3644 11.8114 83.7851 11.9747H83.7876Z" fill="#231F20"/>
<path fill-rule="evenodd" clip-rule="evenodd" d="M33.0751 30.0961C33.0879 28.6057 33.3533 26.7045 33.4885 25.1733C33.56 24.3592 33.6289 23.5477 33.708 22.7336C33.7488 22.3176 33.7795 21.9451 33.8075 21.5163C33.8509 20.8783 33.7003 20.7609 34.1929 20.6359L35.1677 30.4202C34.9585 30.6958 33.3507 30.5605 32.9934 30.4967L33.0751 30.0961ZM27.6037 23.5298C27.5884 23.7544 27.6496 24.0887 27.4378 24.0887C27.5552 24.9053 26.6977 29.6061 26.5191 30.8004C26.2792 32.4107 25.5034 36.1825 25.5723 37.558C25.4804 39.3061 25.534 41.2227 25.5366 43.009L31.5159 43.0167C32.0262 42.9605 31.7226 43.0371 31.9956 42.838L32.4601 37.0502L35.7445 37.0017L36.26 43.0805H42.6909C43.2881 39.2245 41.7033 30.8897 41.1164 27.0592L39.3836 15.6162C39.2815 14.9526 39.1896 14.3376 39.0927 13.6971C39.0442 13.3653 38.9931 13.0693 38.9472 12.7273C38.8221 11.7678 38.9064 11.9107 38.5823 11.829C37.1302 11.829 30.1965 11.658 29.362 11.9158L27.5986 23.5324L27.6037 23.5298Z" fill="#231F20"/>
<path fill-rule="evenodd" clip-rule="evenodd" d="M71.0784 19.1794L70.8385 19.6642L65.7372 30.4821C64.9231 32.2506 64.0631 34.1671 63.1852 35.8616C62.4196 37.3418 62.4068 37.2116 62.4068 39.0924C62.4068 40.4296 62.4043 41.7669 62.4068 43.1041L79.2524 43.1194V36.6119H70.2516L75.6107 25.2097C76.5039 23.2702 77.4048 21.3996 78.3184 19.4907C79.0406 17.9825 79.2524 18.1178 79.2524 16.1425C79.2524 14.9559 79.3672 13.001 79.2116 11.9062H62.4426L62.4119 18.4061L71.4204 18.4189L71.0784 19.1743V19.1794Z" fill="#231F20"/>
<path fill-rule="evenodd" clip-rule="evenodd" d="M116.953 43.1243L118.137 43.1294L118.875 43.1218L130.997 43.1269V36.6193H123.833L123.785 30.9974L123.836 30.5967L129.289 30.5916C129.621 30.4359 129.417 30.6962 129.527 30.3185L130.241 24.1045L123.787 24.0968V18.4212L130.963 18.4238L131.004 18.166V17.7986L130.992 12.0234H116.953V43.1269V43.1243Z" fill="#231F20"/>
<path fill-rule="evenodd" clip-rule="evenodd" d="M116.833 35.9537V36.1349L116.831 42.7624C116.874 43.1835 116.833 42.9563 116.953 43.1197V12.0188H130.991C130.769 11.7125 128.937 11.8835 128.557 11.8835C127.71 11.8835 126.855 11.8886 126.013 11.8759L124.438 11.8861H116.876L116.838 35.9563L116.833 35.9537Z" fill="#231F20"/>
</svg>
