<svg width="17" height="18" viewBox="0 0 17 18" fill="none" xmlns="http://www.w3.org/2000/svg">
<path d="M1.41724 4.69958H15.5839C15.7482 4.69958 15.8913 4.58696 15.928 4.42688C15.9664 4.26608 15.8885 4.10246 15.7419 4.02808L8.62967 0.457375C8.52979 0.407084 8.4115 0.407792 8.31092 0.457375L1.25645 4.02879C1.11053 4.10317 1.03403 4.26821 1.07228 4.42758C1.11053 4.58696 1.25362 4.69958 1.41724 4.69958Z" fill="white"/>
<path d="M2.125 5.4082H4.25V11.7832H2.125V5.4082Z" fill="white"/>
<path d="M7.08203 5.4082H9.91536V11.7832H7.08203V5.4082Z" fill="white"/>
<path d="M12.75 5.4082H14.875V11.7832H12.75V5.4082Z" fill="white"/>
<path d="M1.41797 12.8454V13.9079H15.5846V12.8454C15.5846 12.6499 15.4253 12.4912 15.2305 12.4912H1.77214C1.57664 12.4912 1.41797 12.6499 1.41797 12.8454Z" fill="white"/>
<path d="M16.6458 14.6162H0.354167C0.158667 14.6162 0 14.7749 0 14.9704V17.0954C0 17.2902 0.158667 17.4495 0.354167 17.4495H16.6458C16.8406 17.4495 17 17.2902 17 17.0954V14.9704C17 14.7749 16.8406 14.6162 16.6458 14.6162Z" fill="white"/>
</svg>
