<svg width="85" height="49" viewBox="0 0 85 49" fill="none" xmlns="http://www.w3.org/2000/svg">
<path d="M21.909 23.1368L16.6094 47.9531L20.868 48.8603L26.1676 24.0439L21.909 23.1368Z" fill="white"/>
<path d="M10.6537 37.1493L6.74219 39.0581L11.587 48.9616L15.4986 47.0528L10.6537 37.1493Z" fill="white"/>
<path d="M12.9969 27.8231L11.0596 37.0083L15.3202 37.9054L17.8107 26.0972L15.6809 23.4741L5.22826 23.4761L0 47.9545L4.25865 48.8614L8.75188 27.8231H12.9969Z" fill="white"/>
<path d="M48.0266 25.9126L44.6956 23.1108L30.7633 39.6361L34.0915 24.0578L29.8328 23.1499L24.543 47.9172L28.8006 48.8251L48.0266 25.9126Z" fill="white"/>
<path d="M54.226 23.1499L35 46.0625L38.3311 48.8642L52.2633 32.3389L48.9352 47.9173L53.1938 48.8251L58.4837 24.0578L54.226 23.1499Z" fill="white"/>
<path d="M66.2472 23.9533L61.9886 23.0464L57.2266 45.34L59.3554 47.968H68.7416V43.6199H62.0463L66.2472 23.9533Z" fill="white"/>
<path d="M80.2876 33.6425H72.6803L79.1499 25.2051L75.6927 22.5605L66.5078 34.5386L68.2584 38.0354H75.8686L69.5593 46.1965L73.0175 48.8391L82.0382 37.0631L80.2876 33.6425Z" fill="white"/>
<path d="M38.2472 1.19189H34.405L30.3477 20.2621H32.8528H34.1899H37.9608L38.6529 17.0679H34.8692L38.2472 1.19189Z" fill="white"/>
<path d="M48.4347 1.19189H44.5925L40.5352 20.2621H43.0403H44.3774H48.1483L48.8404 17.0679H45.0567L48.4347 1.19189Z" fill="white"/>
<path d="M61.6102 4.38604L62.3013 1.19189H58.6261H57.2656H54.7839L50.7266 20.2621H53.2083H54.5688H58.244L58.937 17.0679H55.2491L56.2627 12.3002H59.7238L60.3923 9.15384H56.9322L57.9468 4.38604H61.6102Z" fill="white"/>
<path d="M84.3094 4.38604L85.0015 1.19189H81.3253H79.9648H77.4831L73.4258 20.2621H75.9075H77.268H80.9432L81.6362 17.0679H77.9483L78.9619 12.3002H82.423L83.0916 9.15384H79.6315L80.646 4.38604H84.3094Z" fill="white"/>
<path d="M16.6939 1.57399C15.9618 1.16106 15.0382 0.954102 13.9249 0.954102C12.9386 0.954102 12.1069 1.14446 11.4315 1.52616C10.7551 1.90786 10.1901 2.49944 9.7366 3.30188C9.28307 4.10432 8.91262 5.16546 8.62722 6.48431L6.78965 15.1843C6.51891 16.4084 6.52379 17.4178 6.80138 18.2115C7.07995 19.0061 7.58528 19.586 8.31737 19.9521C9.04849 20.3172 9.97216 20.5007 11.0854 20.5007C12.0883 20.5007 12.9269 20.3221 13.6033 19.9648C14.2797 19.6075 14.8358 19.0315 15.2737 18.2369C15.7106 17.4422 16.0733 16.3538 16.3596 14.9715L16.8845 12.5163H12.9699L12.1831 16.1868C12.1186 16.5051 12.0472 16.755 11.9681 16.9375C11.8879 17.1211 11.7843 17.248 11.6582 17.3183C11.5312 17.3905 11.3797 17.4256 11.2047 17.4256C10.9818 17.4256 10.8069 17.3817 10.6798 17.2948C10.5527 17.2079 10.4726 17.0605 10.4413 16.8536C10.4091 16.6476 10.4257 16.385 10.4892 16.0668L12.8047 5.29334C12.8839 4.95948 12.967 4.70078 13.055 4.51823C13.1429 4.33568 13.2495 4.20878 13.3775 4.13654C13.5046 4.06527 13.6639 4.02915 13.8555 4.02915C14.0617 4.02915 14.2289 4.07699 14.3569 4.17168C14.484 4.26735 14.5592 4.41378 14.5837 4.61293C14.6071 4.81207 14.5797 5.08639 14.5006 5.43489L13.7372 8.93948H17.6508L18.1522 6.57998C18.423 5.30798 18.4298 4.25954 18.1757 3.43367C17.9216 2.6078 17.428 1.9879 16.6959 1.57399" fill="white"/>
<path d="M26.7185 5.3402L24.3795 16.1859C24.2994 16.5197 24.2124 16.7774 24.1166 16.96C24.0208 17.1435 23.9143 17.2665 23.794 17.329C23.6748 17.3925 23.5194 17.4247 23.3288 17.4247C23.1059 17.4247 22.9349 17.3846 22.8156 17.3056C22.6964 17.2255 22.625 17.0908 22.6006 16.9004C22.5771 16.7101 22.5967 16.4641 22.6602 16.1615L24.9992 5.29139C25.0627 4.97412 25.138 4.72324 25.226 4.53971C25.313 4.35716 25.4205 4.22635 25.5485 4.1463C25.6756 4.06722 25.8427 4.0272 26.0499 4.0272C26.2571 4.0272 26.4194 4.07113 26.5396 4.15801C26.6589 4.24587 26.7341 4.3884 26.7664 4.58657C26.7977 4.78571 26.782 5.03562 26.7185 5.33727M30.3702 3.53812C30.1317 2.68784 29.6498 2.04452 28.9265 1.60718C28.2022 1.17082 27.2678 0.951172 26.1223 0.951172C25.1038 0.951172 24.2564 1.14153 23.58 1.52323C22.9036 1.90493 22.3474 2.4926 21.9096 3.28724C21.4717 4.08187 21.11 5.14691 20.8236 6.48138L19.0095 15.0388C18.7398 16.2942 18.731 17.3231 18.9861 18.1256C19.2402 18.928 19.726 19.5245 20.4424 19.913C21.1579 20.3025 22.0972 20.4968 23.2584 20.4968C24.2925 20.4968 25.1478 20.3055 25.8241 19.9247C26.5005 19.543 27.0567 18.9563 27.4946 18.1607C27.9315 17.3661 28.2863 16.302 28.5561 14.9666L30.3223 6.64832C30.593 5.42513 30.6087 4.38742 30.3702 3.53714" fill="white"/>
<path d="M73.3887 3.56448C73.1414 2.7142 72.6605 2.06698 71.945 1.62183C71.2286 1.17668 70.3137 0.954102 69.2004 0.954102C68.2132 0.954102 67.3785 1.14446 66.6943 1.52616C66.0101 1.90786 65.4373 2.49944 64.976 3.30188C64.5146 4.10432 64.1403 5.16546 63.8549 6.48431L62.0408 15.0662C61.7866 16.2425 61.7778 17.2353 62.0173 18.0455C62.2558 18.8558 62.6937 19.4679 63.33 19.8808C63.9663 20.2937 64.7385 20.5007 65.6455 20.5007C66.2496 20.5007 66.8067 20.3933 67.316 20.1785C67.8252 19.9638 68.2944 19.6504 68.7244 19.2365L68.9629 20.2615H70.4662L72.5901 10.3452H67.9356L67.315 13.2768H68.0305L67.4342 16.1615C67.3707 16.4797 67.2945 16.7257 67.2075 16.9004C67.1195 17.0762 67.0081 17.207 66.8732 17.2939C66.7373 17.3817 66.5663 17.4247 66.36 17.4247C66.1538 17.4247 65.9896 17.3768 65.8713 17.2812C65.7521 17.1855 65.6797 17.0469 65.6563 16.8643C65.6318 16.6818 65.6524 16.4397 65.7159 16.137L68.0305 5.29139C68.094 4.97315 68.1692 4.72324 68.2572 4.53971C68.3442 4.35716 68.4517 4.22635 68.5798 4.1463C68.7068 4.06723 68.874 4.0272 69.0812 4.0272C69.2884 4.0272 69.4546 4.07504 69.5826 4.16973C69.7097 4.2654 69.7849 4.40792 69.8094 4.59828C69.8328 4.78864 69.8133 5.03562 69.7497 5.33727L68.9385 8.96095H72.8521L73.3535 6.64832C73.6243 5.44075 73.636 4.41183 73.3897 3.56155" fill="white"/>
</svg>
