<svg width="117" height="51" viewBox="0 0 117 51" fill="none" xmlns="http://www.w3.org/2000/svg">
<path fill-rule="evenodd" clip-rule="evenodd" d="M113.151 23.5838H101.435C99.318 23.5838 97.5855 25.3118 97.5855 27.4337V37.5242C97.5855 39.6417 99.3135 41.3742 101.435 41.3742H113.151C115.268 41.3742 117.001 39.6461 117.001 37.5242V27.4337C117.001 25.3163 115.273 23.5838 113.151 23.5838ZM70.1076 10.3149H68.6661V10.0642C69.06 10.0731 69.3107 9.98805 69.1361 9.63887C68.872 9.1151 70.0225 9.14196 70.1926 9.25835C70.4926 9.4598 70.2956 10.0373 70.1076 10.3149ZM68.1378 10.664H69.8838C69.6913 10.955 69.1451 11.9488 68.7959 11.9488C68.6527 11.7519 68.1871 11.1117 68.1378 10.664ZM101.498 27.4337H113.088V37.5242H101.498V27.4337ZM77.709 27.4337H93.8385C93.8385 25.3163 92.1105 23.5838 89.9886 23.5838H77.606C75.4886 23.5838 73.7561 25.3118 73.7561 27.4337V37.5242C73.7561 39.6417 75.4841 41.3742 77.606 41.3742H89.9886C92.106 41.3742 93.8385 39.6461 93.8385 37.5242V30.8674H80.7442C80.7442 32.5058 82.0783 33.8399 83.7167 33.8399H90.1632V37.5242H77.7045V27.4337H77.709ZM27.3372 27.4337H42.7371C42.7371 25.3163 41.0091 23.5838 38.8871 23.5838H26.9702C24.8527 23.5838 23.1202 25.3118 23.1202 27.4337V30.554C23.1202 32.6715 24.8482 34.4039 26.9702 34.4039H38.9185V37.5242H23.1202C23.1202 39.6417 24.8482 41.3742 26.9702 41.3742H39.2855C41.403 41.3742 43.1355 39.6461 43.1355 37.5242V34.4039C43.1355 32.2865 41.4075 30.554 39.2855 30.554H27.3372V27.4337ZM5.16418 27.4337H19.7C19.7 25.3163 17.972 23.5838 15.85 23.5838H4.13902C2.02154 23.5838 0.289062 25.3118 0.289062 27.4337V37.5242C0.289062 39.6417 2.01707 41.3742 4.13902 41.3742H15.8545C17.972 41.3742 19.7045 39.6461 19.7045 37.5242H5.16418V27.4337ZM73.8098 8.56446C73.7337 8.60475 73.6442 8.64057 73.5233 8.66295C72.9727 9.4419 73.3039 9.34789 72.337 9.99701C72.337 11.2997 72.3773 11.4385 72.6817 12.5935C72.6906 12.6203 72.6817 12.6472 72.6682 12.6741C72.6548 12.6965 72.6324 12.7144 72.6056 12.7188C72.3728 12.7681 72.0326 12.8576 71.8401 12.8934C71.8445 12.9337 71.9386 13.6724 71.8356 14.223C71.67 15.087 69.6196 16.9717 69.1272 17.0702C68.4467 17.2045 67.6902 16.6046 66.5038 16.0853C66.177 15.9421 65.0803 15.2213 64.5072 15.0288C64.0327 14.8721 63.5537 16.0271 64.1446 16.3405C64.4222 16.4837 64.8609 16.6807 64.9997 17.0388C65.4115 18.1043 64.937 22.2139 64.0864 23.0421C63.6835 23.0421 63.3478 22.6705 63.0478 22.7645C62.5151 23.0555 62.8509 24.685 63.0478 24.9715C66.3293 28.347 65.9398 30.845 67.332 32.7118C67.9677 32.7118 67.5514 33.3833 68.0304 34.1756C68.1602 34.583 67.9946 35.2724 67.923 35.5321V36.5483C67.8871 36.6557 67.8513 36.7587 67.8155 36.8661V37.757C67.717 38.1912 67.6096 38.7732 67.5201 39.1761C67.3276 40.0311 68.0752 40.6937 67.6275 41.5085C67.6275 42.0098 67.6275 41.9069 67.332 42.3143C67.332 43.0887 67.1485 44.7272 67.332 45.3047C67.4574 45.7076 68.9168 47.4087 69.2839 47.5744C70.1658 47.9683 71.464 47.8833 71.0432 49.271C68.4646 50.0634 66.8172 48.8234 65.4384 48.8055L65.3757 49.0427C64.4938 49.0427 63.791 48.8279 63.5985 48.7652C63.5985 48.5279 63.885 46.7014 63.979 46.4104C64.0775 46.2537 64.176 46.0971 64.2744 45.9449C64.3819 45.636 64.167 43.3573 64.1491 42.744C63.5985 42.3411 63.491 41.11 63.491 40.434C63.3343 39.9103 63.3343 39.288 63.2985 38.612C63.2851 38.2942 63.0926 37.8241 63.2135 37.4257C63.2941 37.1526 63.6029 37.0318 63.6791 36.8124V36.0469C63.8223 35.2456 63.7775 34.874 63.2985 34.395C62.0898 34.4084 61.9242 34.4666 61.2616 33.4415C61.0557 33.1236 59.368 30.46 59.2068 30.3883C57.8011 29.775 58.0832 30.0123 57.4699 28.9245C57.443 28.9245 57.0714 29.0498 56.7402 29.5423C56.2388 30.2943 55.3479 32.7341 55.0927 33.5892C54.9495 34.0682 55.0927 34.592 54.8823 34.9904C54.7301 35.2769 54.2287 35.3664 54.1168 35.5634C53.6244 36.4498 53.9915 36.3826 53.0559 37.0049C52.8857 37.2243 52.8813 37.5466 52.7604 37.8107C52.6888 37.9092 52.6171 38.0077 52.55 38.1062C52.3933 38.4464 52.7156 39.0597 52.6574 39.2746C52.4963 39.8297 52.2814 40.3893 52.062 40.9086C51.6323 41.9293 51.6905 43.2812 51.2562 43.908C51.0369 44.2213 50.5131 43.9169 50.1102 44.1766C50.0878 44.3959 49.4521 45.8508 49.3268 46.2537V48.5637C49.4476 48.9532 49.7744 49.3248 49.6759 49.8172C49.573 50.341 47.7465 50.332 46.7527 50.1932C46.0901 50.0992 45.8887 49.6068 45.9021 49.0427C45.9155 48.3757 47.263 44.0378 47.1824 43.7513C46.1573 42.6008 47.4555 41.41 47.8405 40.3356C48.0285 39.8118 47.9121 39.0821 48.1181 38.5986C48.4807 37.9405 48.8388 37.2825 49.2014 36.6244C49.8595 36.0021 49.564 35.9708 49.9222 35.4157C50.2311 34.9322 50.6071 34.6054 50.3877 33.8667C49.949 32.3805 50.8981 30.272 50.9608 28.7141C50.7951 28.5395 50.2221 28.5932 50.1505 28.1187C50.0072 27.1517 50.5176 25.4416 50.8309 25.2804C50.9697 25.2088 51.1309 25.2715 51.2562 25.1954C51.2562 24.4702 50.5355 20.4367 51.0816 20.2352C51.4174 20.1099 52.1963 20.0427 52.3441 19.9756C52.3351 19.8054 52.2187 19.4384 52.0755 19.416C51.8337 19.3846 51.3413 19.2906 50.9473 19.2011C49.7431 18.9235 50.8578 14.1693 50.8712 14.1514C51.2025 13.7127 52.7425 14.3036 52.926 13.556C53.4408 12.8979 52.5276 10.373 54.2869 7.26622C54.8779 6.2142 56.0149 5.1577 57.34 5.60537C57.7832 5.75758 57.5146 6.39327 58.2936 5.71281C58.3115 5.31438 58.1279 4.98311 58.016 4.65183C56.7178 0.78397 61.1139 -1.31112 64.1849 0.900364C64.5296 1.03914 64.7311 1.11077 64.9907 1.30327C65.1608 2.1807 66.0293 3.73859 65.1608 4.75927C64.8072 4.83538 64.3729 5.03235 64.0999 5.22485C64.0954 5.57851 64.1401 5.90531 64.2073 6.11571C64.2655 6.30373 64.3774 6.37984 64.0909 6.49623C64.0551 6.50966 64.0685 6.63053 64.0909 6.6753C64.8072 6.81855 65.5727 6.541 66.0517 6.3485H66.6247V5.62775H66.8978V5.06369H67.1709V6.03961H67.8871V6.3485H78.4879V6.89913H78.958V4.88462H79.352V6.52309H80.2562V7.45872H83.0631V7.18117H83.5287V7.30204H84.8538V8.08098H83.5287V8.20185H83.0631V7.9243H80.2562V8.20185H79.0207V8.01383H78.4924V8.57789H73.8098V8.56446Z" fill="#231F20"/>
</svg>
