<svg width="12" height="14" viewBox="0 0 12 14" fill="none" xmlns="http://www.w3.org/2000/svg">
<path d="M11.4545 13.3636C11.4545 13.7151 11.1696 14 10.8182 14C10.4667 14 10.1818 13.7151 10.1818 13.3636C10.1818 10.9035 8.18745 8.90909 5.72727 8.90909C3.2671 8.90909 1.27273 10.9035 1.27273 13.3636C1.27273 13.7151 0.987818 14 0.636364 14C0.28491 14 0 13.7151 0 13.3636C0 10.2006 2.56419 7.63636 5.72727 7.63636C8.89036 7.63636 11.4545 10.2006 11.4545 13.3636ZM5.72727 7C3.79428 7 2.22727 5.433 2.22727 3.5C2.22727 1.567 3.79428 0 5.72727 0C7.66027 0 9.22727 1.567 9.22727 3.5C9.22727 5.433 7.66027 7 5.72727 7ZM5.72727 5.72727C6.95736 5.72727 7.95455 4.73009 7.95455 3.5C7.95455 2.26991 6.95736 1.27273 5.72727 1.27273C4.49718 1.27273 3.5 2.26991 3.5 3.5C3.5 4.73009 4.49718 5.72727 5.72727 5.72727Z" fill="#B4B4B4"/>
</svg>
