<svg width="272" height="130" viewBox="0 0 272 130" fill="none" xmlns="http://www.w3.org/2000/svg">
<path d="M160.654 41.8918L159.368 41.7905L159.259 43.1818H160.654V41.8918ZM169.646 21.1589L170.519 22.1083L170.526 22.102L169.646 21.1589ZM199.899 15.1295L199.517 16.3618L199.531 16.366L199.544 16.3698L199.899 15.1295ZM207.726 19.1491L208.54 18.1479V18.1479L207.726 19.1491ZM213.015 26.1306L211.839 26.66L211.844 26.6721L211.85 26.6841L213.015 26.1306ZM212.698 45.8057L213.828 46.4274L213.835 46.4156L212.698 45.8057ZM206.669 53.5276L207.539 54.4797L207.546 54.473L207.554 54.4662L206.669 53.5276ZM198.206 59.7686L197.542 58.6624L197.532 58.6691L198.206 59.7686ZM188.898 65.375L189.535 66.4966L189.544 66.4911L189.554 66.4856L188.898 65.375ZM180.012 70.664L179.328 69.57H179.328L180.012 70.664ZM172.925 76.3761L171.981 75.4971L169.961 77.6661H172.925V76.3761ZM209.419 76.3761L210.676 76.6646L211.039 75.0861H209.419V76.3761ZM206.457 89.2812V90.5713H207.485L207.714 89.5698L206.457 89.2812ZM151.663 89.2812L150.375 89.202L150.291 90.5713H151.663V89.2812ZM154.731 77.3281L155.875 77.924H155.875L154.731 77.3281ZM161.501 68.4426L162.376 69.3905L162.382 69.3845L162.388 69.3784L161.501 68.4426ZM170.809 61.4611L171.466 62.5713L170.809 61.4611ZM181.387 55.5374L181.991 56.6775L182.012 56.6665L182.032 56.6548L181.387 55.5374ZM187.311 52.2582L186.719 51.1119L186.711 51.1159L186.704 51.12L187.311 52.2582ZM193.34 48.4502L194.127 49.4727L194.132 49.4684L193.34 48.4502ZM198.1 43.4785L199.161 44.2128L198.1 43.4785ZM196.62 29.0924L195.851 30.1284L195.87 30.1423L195.889 30.1554L196.62 29.0924ZM182.974 27.9288L183.53 29.0926L183.541 29.0877L183.551 29.0827L182.974 27.9288ZM178.743 31.208L177.76 30.3726L177.747 30.3872L177.735 30.4022L178.743 31.208ZM175.992 36.0739L174.788 35.6108L174.781 35.6313L174.773 35.6519L175.992 36.0739ZM174.935 41.8918V43.1818H176.181L176.224 41.9363L174.935 41.8918ZM161.94 41.9931C162.627 33.2769 165.526 26.7022 170.519 22.1083L168.772 20.2096C163.188 25.3475 160.092 32.5946 159.368 41.7905L161.94 41.9931ZM170.526 22.102C175.534 17.4278 182.11 15.0443 190.379 15.0443V12.4643C181.581 12.4643 174.335 15.0173 168.765 20.2159L170.526 22.102ZM190.379 15.0443C193.646 15.0443 196.69 15.4866 199.517 16.3618L200.28 13.8971C197.184 12.9388 193.881 12.4643 190.379 12.4643V15.0443ZM199.544 16.3698C202.349 17.1711 204.8 18.4331 206.913 20.1503L208.54 18.1479C206.14 16.198 203.372 14.7803 200.253 13.8891L199.544 16.3698ZM206.913 20.1503C209.004 21.8489 210.647 24.0106 211.839 26.66L214.192 25.6012C212.845 22.609 210.963 20.1163 208.54 18.1479L206.913 20.1503ZM211.85 26.6841C213.092 29.2982 213.735 32.4161 213.735 36.0739H216.315C216.315 32.1156 215.619 28.6046 214.181 25.5771L211.85 26.6841ZM213.735 36.0739C213.735 39.4785 213.003 42.5096 211.561 45.1957L213.835 46.4156C215.496 43.3191 216.315 39.8624 216.315 36.0739H213.735ZM211.568 45.184C210.085 47.8808 208.159 50.3491 205.784 52.589L207.554 54.4662C210.114 52.0518 212.209 49.3721 213.828 46.4273L211.568 45.184ZM205.798 52.5756C203.4 54.7683 200.65 56.7981 197.543 58.6625L198.87 60.8748C202.109 58.9311 205.001 56.8002 207.539 54.4797L205.798 52.5756ZM197.532 58.6691C194.435 60.5695 191.338 62.4345 188.241 64.2644L189.554 66.4856C192.663 64.6484 195.772 62.7759 198.881 60.8681L197.532 58.6691ZM188.26 64.2534C185.143 66.0246 182.165 67.7968 179.328 69.57L180.696 71.7579C183.5 70.0051 186.447 68.2513 189.535 66.4966L188.26 64.2534ZM179.328 69.57C176.429 71.382 173.975 73.3553 171.981 75.4971L173.869 77.2551C175.683 75.3067 177.953 73.472 180.696 71.7579L179.328 69.57ZM172.925 77.6661H209.419V75.0861H172.925V77.6661ZM208.162 76.0875L205.2 88.9927L207.714 89.5698L210.676 76.6646L208.162 76.0875ZM206.457 87.9912H151.663V90.5713H206.457V87.9912ZM152.951 89.3605C153.224 84.9211 154.21 81.1195 155.875 77.924L153.587 76.7322C151.725 80.3066 150.666 84.4738 150.375 89.202L152.951 89.3605ZM155.875 77.924C157.57 74.6684 159.737 71.8263 162.376 69.3905L160.626 67.4947C157.764 70.1363 155.417 73.2179 153.587 76.7322L155.875 77.924ZM162.388 69.3784C165.065 66.8396 168.089 64.57 171.466 62.5713L170.152 60.351C166.618 62.4424 163.437 64.8271 160.613 67.5067L162.388 69.3784ZM171.466 62.5713C174.904 60.5367 178.412 58.5721 181.991 56.6775L180.784 54.3973C177.169 56.3108 173.625 58.2953 170.152 60.351L171.466 62.5713ZM182.032 56.6548C183.851 55.605 185.813 54.5189 187.918 53.3965L186.704 51.12C184.577 52.2542 182.59 53.3542 180.743 54.4201L182.032 56.6548ZM187.903 53.4046C190.153 52.2431 192.228 50.9329 194.127 49.4727L192.554 47.4277C190.785 48.7882 188.841 50.0168 186.719 51.1119L187.903 53.4046ZM194.132 49.4684C196.131 47.9136 197.811 46.1625 199.161 44.2128L197.04 42.7442C195.851 44.4616 194.357 46.0249 192.548 47.4319L194.132 49.4684ZM199.161 44.2128C200.596 42.1407 201.294 39.7273 201.294 37.0259H198.714C198.714 39.261 198.144 41.1493 197.04 42.7442L199.161 44.2128ZM201.294 37.0259C201.294 33.0329 200.077 29.9037 197.35 28.0294L195.889 30.1554C197.676 31.384 198.714 33.5439 198.714 37.0259H201.294ZM197.388 28.0564C194.944 26.2433 191.983 25.3695 188.58 25.3695V27.9495C191.524 27.9495 193.922 28.6977 195.851 30.1284L197.388 28.0564ZM188.58 25.3695C186.351 25.3695 184.283 25.8321 182.397 26.775L183.551 29.0827C185.05 28.3331 186.719 27.9495 188.58 27.9495V25.3695ZM182.417 26.7651C180.627 27.6214 179.073 28.8282 177.76 30.3726L179.726 32.0435C180.811 30.7671 182.077 29.7877 183.53 29.0926L182.417 26.7651ZM177.735 30.4022C176.517 31.9247 175.537 33.6644 174.788 35.6108L177.196 36.537C177.858 34.8164 178.711 33.3121 179.75 32.0139L177.735 30.4022ZM174.773 35.6519C174.094 37.6136 173.72 39.6807 173.645 41.8474L176.224 41.9363C176.29 40.0128 176.621 38.2013 177.211 36.4959L174.773 35.6519ZM174.935 40.6018H160.654V43.1818H174.935V40.6018ZM246.829 89.2812V90.5713H247.875L248.092 89.5481L246.829 89.2812ZM230.857 89.2812L229.595 89.0144L229.265 90.5713H230.857V89.2812ZM241.012 41.2571L242.274 41.524L242.603 39.9671H241.012V41.2571ZM222.923 41.2571L221.662 40.986L221.326 42.5471H222.923V41.2571ZM225.356 29.9387L225.29 28.6504L224.303 28.701L224.095 29.6676L225.356 29.9387ZM233.078 29.0924L233.302 30.3628L233.317 30.3603L233.331 30.3574L233.078 29.0924ZM239.848 26.7653L240.441 27.9111L240.448 27.9073L240.455 27.9035L239.848 26.7653ZM245.56 22.3225L244.63 21.4284L244.621 21.4379L244.612 21.4475L245.56 22.3225ZM250.214 15.2352V13.9452H249.39L249.044 14.6929L250.214 15.2352ZM262.485 15.2352L263.747 15.5021L264.076 13.9452H262.485V15.2352ZM246.829 87.9912H230.857V90.5713H246.829V87.9912ZM232.119 89.5481L242.274 41.524L239.749 40.9903L229.595 89.0144L232.119 89.5481ZM241.012 39.9671H222.923V42.5471H241.012V39.9671ZM224.184 41.5282L226.617 30.2098L224.095 29.6676L221.662 40.986L224.184 41.5282ZM225.422 31.227C228.219 31.0836 230.846 30.7962 233.302 30.3628L232.854 27.8221C230.515 28.2348 227.994 28.5117 225.29 28.6504L225.422 31.227ZM233.331 30.3574C235.907 29.8423 238.279 29.0292 240.441 27.9111L239.255 25.6195C237.327 26.617 235.186 27.3553 232.825 27.8275L233.331 30.3574ZM240.455 27.9035C242.703 26.7044 244.722 25.1329 246.508 23.1975L244.612 21.4475C243.014 23.1792 241.224 24.5695 239.241 25.627L240.455 27.9035ZM246.49 23.2166C248.374 21.2577 249.999 18.7673 251.385 15.7776L249.044 14.6929C247.75 17.4858 246.273 19.7203 244.63 21.4284L246.49 23.2166ZM250.214 16.5252H262.485V13.9452H250.214V16.5252ZM261.223 14.9684L245.567 89.0144L248.092 89.5481L263.747 15.5021L261.223 14.9684Z" fill="white"/>
<path d="M177.926 116.601L175.819 110.469L173.58 116.601H177.926ZM174.836 108.41H176.962L181.998 122.289H179.938L178.531 118.132H173.041L171.539 122.289H169.611L174.836 108.41ZM187.684 108.41V116.989C187.684 117.996 187.873 118.834 188.251 119.502C188.811 120.51 189.756 121.014 191.085 121.014C192.679 121.014 193.762 120.469 194.336 119.379C194.644 118.787 194.799 117.99 194.799 116.989V108.41H196.707V116.204C196.707 117.911 196.477 119.225 196.017 120.144C195.173 121.82 193.58 122.658 191.237 122.658C188.893 122.658 187.303 121.82 186.465 120.144C186.005 119.225 185.775 117.911 185.775 116.204V108.41H187.684ZM207.561 108.051C208.865 108.051 209.993 108.303 210.944 108.806C212.323 109.531 213.167 110.8 213.476 112.614H211.615C211.388 111.6 210.918 110.863 210.207 110.403C209.495 109.937 208.597 109.704 207.514 109.704C206.229 109.704 205.146 110.186 204.264 111.15C203.388 112.113 202.95 113.549 202.95 115.458C202.95 117.108 203.313 118.453 204.037 119.492C204.761 120.525 205.942 121.042 207.58 121.042C208.834 121.042 209.87 120.68 210.689 119.955C211.514 119.225 211.936 118.047 211.955 116.422H207.608V114.863H213.703V122.289H212.493L212.04 120.503C211.403 121.203 210.84 121.688 210.348 121.958C209.523 122.424 208.475 122.658 207.202 122.658C205.558 122.658 204.144 122.125 202.96 121.061C201.669 119.725 201.023 117.892 201.023 115.562C201.023 113.238 201.653 111.389 202.913 110.016C204.109 108.706 205.659 108.051 207.561 108.051ZM220.598 108.41V116.989C220.598 117.996 220.787 118.834 221.165 119.502C221.725 120.51 222.67 121.014 223.999 121.014C225.593 121.014 226.676 120.469 227.249 119.379C227.558 118.787 227.712 117.99 227.712 116.989V108.41H229.621V116.204C229.621 117.911 229.391 119.225 228.931 120.144C228.087 121.82 226.494 122.658 224.15 122.658C221.807 122.658 220.217 121.82 219.379 120.144C218.919 119.225 218.689 117.911 218.689 116.204V108.41H220.598ZM235.704 117.811C235.748 118.598 235.934 119.237 236.261 119.729C236.885 120.648 237.984 121.108 239.559 121.108C240.264 121.108 240.907 121.007 241.486 120.806C242.607 120.415 243.168 119.716 243.168 118.708C243.168 117.952 242.932 117.414 242.459 117.093C241.981 116.778 241.231 116.504 240.211 116.271L238.33 115.845C237.102 115.568 236.233 115.263 235.723 114.929C234.841 114.349 234.4 113.483 234.4 112.331C234.4 111.083 234.831 110.06 235.694 109.26C236.557 108.46 237.779 108.06 239.36 108.06C240.815 108.06 242.05 108.413 243.064 109.118C244.084 109.817 244.595 110.939 244.595 112.482H242.828C242.733 111.739 242.532 111.168 242.223 110.772C241.65 110.047 240.677 109.685 239.304 109.685C238.195 109.685 237.398 109.918 236.913 110.384C236.428 110.85 236.186 111.392 236.186 112.009C236.186 112.69 236.469 113.187 237.036 113.502C237.408 113.704 238.248 113.956 239.559 114.258L241.505 114.702C242.443 114.916 243.168 115.209 243.678 115.581C244.56 116.23 245.001 117.171 245.001 118.406C245.001 119.943 244.44 121.042 243.319 121.703C242.204 122.365 240.907 122.695 239.426 122.695C237.7 122.695 236.349 122.254 235.373 121.373C234.397 120.497 233.918 119.31 233.937 117.811H235.704ZM259.417 108.41V110.063H254.74V122.289H252.832V110.063H248.155V108.41H259.417Z" fill="white"/>
<path d="M177.926 116.601V116.959H178.427L178.264 116.485L177.926 116.601ZM175.819 110.469L176.157 110.353L175.829 109.399L175.483 110.347L175.819 110.469ZM173.58 116.601L173.244 116.479L173.068 116.959H173.58V116.601ZM174.836 108.41V108.052H174.589L174.502 108.284L174.836 108.41ZM176.962 108.41L177.298 108.288L177.213 108.052H176.962V108.41ZM181.998 122.289V122.647H182.508L182.334 122.167L181.998 122.289ZM179.938 122.289L179.6 122.404L179.682 122.647H179.938V122.289ZM178.531 118.132L178.869 118.017L178.787 117.774H178.531V118.132ZM173.041 118.132V117.774H172.79L172.705 118.01L173.041 118.132ZM171.539 122.289V122.647H171.79L171.875 122.411L171.539 122.289ZM169.611 122.289L169.277 122.163L169.095 122.647H169.611V122.289ZM178.264 116.485L176.157 110.353L175.481 110.586L177.588 116.717L178.264 116.485ZM175.483 110.347L173.244 116.479L173.916 116.724L176.155 110.592L175.483 110.347ZM173.58 116.959H177.926V116.244H173.58V116.959ZM174.836 108.767H176.962V108.052H174.836V108.767ZM176.626 108.532L181.662 122.411L182.334 122.167L177.298 108.288L176.626 108.532ZM181.998 121.931H179.938V122.647H181.998V121.931ZM180.277 122.174L178.869 118.017L178.192 118.247L179.6 122.404L180.277 122.174ZM178.531 117.774H173.041V118.489H178.531V117.774ZM172.705 118.01L171.203 122.168L171.875 122.411L173.377 118.253L172.705 118.01ZM171.539 121.931H169.611V122.647H171.539V121.931ZM169.946 122.415L175.171 108.536L174.502 108.284L169.277 122.163L169.946 122.415ZM187.684 108.41H188.042V108.052H187.684V108.41ZM188.251 119.502L188.563 119.328L188.562 119.326L188.251 119.502ZM194.336 119.379L194.652 119.545L194.653 119.544L194.336 119.379ZM194.799 108.41V108.052H194.441V108.41H194.799ZM196.707 108.41H197.065V108.052H196.707V108.41ZM196.017 120.144L196.337 120.305L196.337 120.304L196.017 120.144ZM185.775 108.41V108.052H185.418V108.41H185.775ZM187.326 108.41V116.989H188.042V108.41H187.326ZM187.326 116.989C187.326 118.039 187.523 118.942 187.94 119.678L188.562 119.326C188.223 118.726 188.042 117.953 188.042 116.989H187.326ZM187.938 119.676C188.573 120.816 189.65 121.371 191.085 121.371V120.656C189.862 120.656 189.05 120.203 188.563 119.328L187.938 119.676ZM191.085 121.371C192.766 121.371 193.998 120.788 194.652 119.545L194.019 119.213C193.526 120.149 192.592 120.656 191.085 120.656V121.371ZM194.653 119.544C194.998 118.882 195.156 118.021 195.156 116.989H194.441C194.441 117.959 194.29 118.692 194.018 119.214L194.653 119.544ZM195.156 116.989V108.41H194.441V116.989H195.156ZM194.799 108.767H196.707V108.052H194.799V108.767ZM196.349 108.41V116.204H197.065V108.41H196.349ZM196.349 116.204C196.349 117.888 196.121 119.137 195.697 119.984L196.337 120.304C196.833 119.313 197.065 117.935 197.065 116.204H196.349ZM195.698 119.983C194.931 121.506 193.485 122.3 191.237 122.3V123.015C193.675 123.015 195.416 122.133 196.337 120.305L195.698 119.983ZM191.237 122.3C188.988 122.3 187.546 121.506 186.785 119.984L186.145 120.304C187.06 122.133 188.799 123.015 191.237 123.015V122.3ZM186.785 119.984C186.361 119.137 186.133 117.888 186.133 116.204H185.418C185.418 117.935 185.649 119.313 186.145 120.304L186.785 119.984ZM186.133 116.204V108.41H185.418V116.204H186.133ZM185.775 108.767H187.684V108.052H185.775V108.767ZM210.944 108.806L210.776 109.122L210.777 109.123L210.944 108.806ZM213.476 112.614V112.972H213.899L213.828 112.554L213.476 112.614ZM211.615 112.614L211.266 112.692L211.328 112.972H211.615V112.614ZM210.207 110.403L210.011 110.702L210.013 110.704L210.207 110.403ZM204.264 111.15L204 110.908L203.999 110.909L204.264 111.15ZM204.037 119.492L203.744 119.697L203.744 119.698L204.037 119.492ZM210.689 119.955L210.926 120.223L210.926 120.223L210.689 119.955ZM211.955 116.422L212.312 116.426L212.316 116.064H211.955V116.422ZM207.608 116.422H207.251V116.779H207.608V116.422ZM207.608 114.863V114.505H207.251V114.863H207.608ZM213.703 114.863H214.06V114.505H213.703V114.863ZM213.703 122.289V122.647H214.06V122.289H213.703ZM212.493 122.289L212.147 122.377L212.215 122.647H212.493V122.289ZM212.04 120.503L212.386 120.415L212.223 119.771L211.775 120.263L212.04 120.503ZM210.348 121.958L210.176 121.645L210.173 121.647L210.348 121.958ZM202.96 121.061L202.703 121.309L202.712 121.318L202.721 121.327L202.96 121.061ZM202.913 110.016L203.176 110.258L203.177 110.257L202.913 110.016ZM207.561 108.408C208.819 108.408 209.887 108.651 210.776 109.122L211.111 108.49C210.099 107.954 208.911 107.693 207.561 107.693V108.408ZM210.777 109.123C212.04 109.786 212.83 110.947 213.123 112.674L213.828 112.554C213.505 110.653 212.607 109.276 211.11 108.49L210.777 109.123ZM213.476 112.256H211.615V112.972H213.476V112.256ZM211.964 112.536C211.721 111.452 211.208 110.625 210.401 110.103L210.013 110.704C210.629 111.101 211.054 111.748 211.266 112.692L211.964 112.536ZM210.403 110.104C209.619 109.591 208.648 109.346 207.514 109.346V110.062C208.547 110.062 209.371 110.284 210.011 110.702L210.403 110.104ZM207.514 109.346C206.127 109.346 204.948 109.872 204 110.908L204.528 111.391C205.343 110.5 206.331 110.062 207.514 110.062V109.346ZM203.999 110.909C203.041 111.964 202.593 113.501 202.593 115.458H203.308C203.308 113.598 203.735 112.263 204.528 111.39L203.999 110.909ZM202.593 115.458C202.593 117.159 202.966 118.582 203.744 119.697L204.33 119.288C203.659 118.324 203.308 117.057 203.308 115.458H202.593ZM203.744 119.698C204.555 120.854 205.864 121.4 207.58 121.4V120.684C206.02 120.684 204.968 120.197 204.33 119.287L203.744 119.698ZM207.58 121.4C208.907 121.4 210.032 121.014 210.926 120.223L210.452 119.687C209.708 120.346 208.76 120.684 207.58 120.684V121.4ZM210.926 120.223C211.856 119.399 212.293 118.103 212.312 116.426L211.597 116.418C211.579 117.99 211.171 119.05 210.451 119.688L210.926 120.223ZM211.955 116.064H207.608V116.779H211.955V116.064ZM207.966 116.422V114.863H207.251V116.422H207.966ZM207.608 115.22H213.703V114.505H207.608V115.22ZM213.345 114.863V122.289H214.06V114.863H213.345ZM213.703 121.931H212.493V122.647H213.703V121.931ZM212.84 122.201L212.386 120.415L211.693 120.591L212.147 122.377L212.84 122.201ZM211.775 120.263C211.15 120.95 210.617 121.402 210.176 121.645L210.521 122.272C211.062 121.973 211.657 121.455 212.304 120.744L211.775 120.263ZM210.173 121.647C209.416 122.074 208.433 122.3 207.202 122.3V123.015C208.516 123.015 209.63 122.775 210.524 122.27L210.173 121.647ZM207.202 122.3C205.643 122.3 204.315 121.798 203.199 120.795L202.721 121.327C203.973 122.452 205.473 123.015 207.202 123.015V122.3ZM203.217 120.812C202.006 119.559 201.381 117.825 201.381 115.562H200.665C200.665 117.96 201.332 119.891 202.703 121.309L203.217 120.812ZM201.381 115.562C201.381 113.304 201.991 111.549 203.176 110.258L202.649 109.774C201.315 111.228 200.665 113.171 200.665 115.562H201.381ZM203.177 110.257C204.3 109.027 205.751 108.408 207.561 108.408V107.693C205.567 107.693 203.918 108.384 202.649 109.775L203.177 110.257ZM220.598 108.41H220.956V108.052H220.598V108.41ZM221.165 119.502L221.477 119.328L221.476 119.326L221.165 119.502ZM227.249 119.379L227.566 119.545L227.567 119.544L227.249 119.379ZM227.712 108.41V108.052H227.355V108.41H227.712ZM229.621 108.41H229.979V108.052H229.621V108.41ZM228.931 120.144L229.251 120.305L229.251 120.304L228.931 120.144ZM218.689 108.41V108.052H218.332V108.41H218.689ZM220.24 108.41V116.989H220.956V108.41H220.24ZM220.24 116.989C220.24 118.039 220.437 118.942 220.854 119.678L221.476 119.326C221.137 118.726 220.956 117.953 220.956 116.989H220.24ZM220.852 119.676C221.487 120.816 222.564 121.371 223.999 121.371V120.656C222.776 120.656 221.964 120.203 221.477 119.328L220.852 119.676ZM223.999 121.371C225.68 121.371 226.912 120.788 227.566 119.545L226.933 119.213C226.44 120.149 225.506 120.656 223.999 120.656V121.371ZM227.567 119.544C227.912 118.882 228.07 118.021 228.07 116.989H227.355C227.355 117.959 227.204 118.692 226.932 119.214L227.567 119.544ZM228.07 116.989V108.41H227.355V116.989H228.07ZM227.712 108.767H229.621V108.052H227.712V108.767ZM229.263 108.41V116.204H229.979V108.41H229.263ZM229.263 116.204C229.263 117.888 229.035 119.137 228.611 119.984L229.251 120.304C229.747 119.313 229.979 117.935 229.979 116.204H229.263ZM228.612 119.983C227.845 121.506 226.399 122.3 224.15 122.3V123.015C226.588 123.015 228.33 122.133 229.251 120.305L228.612 119.983ZM224.15 122.3C221.902 122.3 220.46 121.506 219.699 119.984L219.059 120.304C219.974 122.133 221.712 123.015 224.15 123.015V122.3ZM219.699 119.984C219.275 119.137 219.047 117.888 219.047 116.204H218.332C218.332 117.935 218.563 119.313 219.059 120.304L219.699 119.984ZM219.047 116.204V108.41H218.332V116.204H219.047ZM218.689 108.767H220.598V108.052H218.689V108.767ZM235.704 117.811L236.061 117.791L236.042 117.453H235.704V117.811ZM236.261 119.729L235.964 119.927L235.965 119.929L236.261 119.729ZM241.486 120.806L241.604 121.143L241.604 121.143L241.486 120.806ZM242.459 117.093L242.66 116.797L242.656 116.794L242.459 117.093ZM240.211 116.271L240.29 115.922L240.289 115.922L240.211 116.271ZM238.33 115.845L238.409 115.497L238.409 115.497L238.33 115.845ZM235.723 114.929L235.526 115.228L235.527 115.228L235.723 114.929ZM243.064 109.118L242.86 109.412L242.862 109.413L243.064 109.118ZM244.595 112.482V112.839H244.952V112.482H244.595ZM242.828 112.482L242.473 112.527L242.513 112.839H242.828V112.482ZM242.223 110.772L242.505 110.552L242.503 110.55L242.223 110.772ZM237.036 113.502L236.862 113.815L236.865 113.817L237.036 113.502ZM239.559 114.258L239.478 114.607L239.479 114.607L239.559 114.258ZM241.505 114.702L241.585 114.353L241.585 114.353L241.505 114.702ZM243.678 115.581L243.89 115.293L243.889 115.292L243.678 115.581ZM243.319 121.703L243.137 121.395L243.137 121.396L243.319 121.703ZM235.373 121.373L235.613 121.107L235.612 121.106L235.373 121.373ZM233.937 117.811V117.453H233.584L233.579 117.806L233.937 117.811ZM235.347 117.831C235.393 118.661 235.591 119.368 235.964 119.927L236.559 119.53C236.277 119.107 236.102 118.535 236.061 117.791L235.347 117.831ZM235.965 119.929C236.681 120.984 237.919 121.466 239.559 121.466V120.75C238.049 120.75 237.089 120.312 236.557 119.528L235.965 119.929ZM239.559 121.466C240.298 121.466 240.981 121.36 241.604 121.143L241.369 120.468C240.832 120.655 240.23 120.75 239.559 120.75V121.466ZM241.604 121.143C242.208 120.933 242.693 120.629 243.026 120.212C243.364 119.791 243.525 119.283 243.525 118.708H242.81C242.81 119.141 242.691 119.486 242.468 119.765C242.242 120.047 241.886 120.288 241.368 120.468L241.604 121.143ZM243.525 118.708C243.525 117.876 243.261 117.205 242.66 116.797L242.258 117.388C242.602 117.622 242.81 118.028 242.81 118.708H243.525ZM242.656 116.794C242.123 116.443 241.324 116.158 240.29 115.922L240.131 116.619C241.138 116.849 241.838 117.112 242.263 117.391L242.656 116.794ZM240.289 115.922L238.409 115.497L238.251 116.194L240.132 116.619L240.289 115.922ZM238.409 115.497C237.188 115.221 236.372 114.926 235.918 114.63L235.527 115.228C236.094 115.599 237.016 115.915 238.252 116.194L238.409 115.497ZM235.919 114.63C235.148 114.124 234.757 113.376 234.757 112.331H234.042C234.042 113.591 234.533 114.575 235.526 115.228L235.919 114.63ZM234.757 112.331C234.757 111.176 235.152 110.25 235.937 109.522L235.451 108.998C234.51 109.87 234.042 110.991 234.042 112.331H234.757ZM235.937 109.522C236.714 108.802 237.838 108.418 239.36 108.418V107.702C237.721 107.702 236.4 108.118 235.451 108.998L235.937 109.522ZM239.36 108.418C240.756 108.418 241.916 108.755 242.86 109.412L243.268 108.825C242.184 108.07 240.875 107.702 239.36 107.702V108.418ZM242.862 109.413C243.761 110.029 244.237 111.024 244.237 112.482H244.952C244.952 110.854 244.408 109.606 243.266 108.823L242.862 109.413ZM244.595 112.124H242.828V112.839H244.595V112.124ZM243.182 112.437C243.084 111.659 242.868 111.018 242.505 110.552L241.941 110.991C242.195 111.318 242.383 111.818 242.473 112.527L243.182 112.437ZM242.503 110.55C241.834 109.704 240.731 109.327 239.304 109.327V110.043C240.622 110.043 241.465 110.39 241.943 110.994L242.503 110.55ZM239.304 109.327C238.159 109.327 237.249 109.566 236.665 110.126L237.161 110.642C237.547 110.271 238.231 110.043 239.304 110.043V109.327ZM236.665 110.126C236.117 110.653 235.828 111.286 235.828 112.009H236.543C236.543 111.499 236.739 111.048 237.161 110.642L236.665 110.126ZM235.828 112.009C235.828 112.4 235.91 112.758 236.087 113.07C236.266 113.383 236.529 113.63 236.862 113.815L237.21 113.19C236.976 113.06 236.814 112.9 236.709 112.716C236.603 112.53 236.543 112.299 236.543 112.009H235.828ZM236.865 113.817C237.288 114.045 238.178 114.307 239.478 114.607L239.639 113.91C238.319 113.605 237.528 113.362 237.206 113.188L236.865 113.817ZM239.479 114.607L241.425 115.051L241.585 114.353L239.638 113.909L239.479 114.607ZM241.425 115.051C242.339 115.259 243.012 115.538 243.467 115.87L243.889 115.292C243.324 114.881 242.548 114.573 241.585 114.353L241.425 115.051ZM243.466 115.869C244.244 116.441 244.643 117.268 244.643 118.406H245.358C245.358 117.074 244.876 116.018 243.89 115.293L243.466 115.869ZM244.643 118.406C244.643 119.843 244.128 120.811 243.137 121.395L243.501 122.011C244.752 121.273 245.358 120.042 245.358 118.406H244.643ZM243.137 121.396C242.084 122.02 240.852 122.338 239.426 122.338V123.053C240.962 123.053 242.324 122.709 243.501 122.011L243.137 121.396ZM239.426 122.338C237.761 122.338 236.505 121.913 235.613 121.107L235.133 121.638C236.194 122.596 237.64 123.053 239.426 123.053V122.338ZM235.612 121.106C234.724 120.31 234.277 119.227 234.295 117.815L233.579 117.806C233.559 119.392 234.07 120.684 235.134 121.639L235.612 121.106ZM233.937 118.168H235.704V117.453H233.937V118.168ZM259.417 108.41H259.775V108.052H259.417V108.41ZM259.417 110.063V110.421H259.775V110.063H259.417ZM254.74 110.063V109.705H254.382V110.063H254.74ZM254.74 122.289V122.647H255.098V122.289H254.74ZM252.832 122.289H252.474V122.647H252.832V122.289ZM252.832 110.063H253.189V109.705H252.832V110.063ZM248.155 110.063H247.797V110.421H248.155V110.063ZM248.155 108.41V108.052H247.797V108.41H248.155ZM259.059 108.41V110.063H259.775V108.41H259.059ZM259.417 109.705H254.74V110.421H259.417V109.705ZM254.382 110.063V122.289H255.098V110.063H254.382ZM254.74 121.931H252.832V122.647H254.74V121.931ZM253.189 122.289V110.063H252.474V122.289H253.189ZM252.832 109.705H248.155V110.421H252.832V109.705ZM248.512 110.063V108.41H247.797V110.063H248.512ZM248.155 108.767H259.417V108.052H248.155V108.767Z" fill="white"/>
<rect y="0.828125" width="129" height="129" rx="6" fill="#242424"/>
<path d="M109.284 82.0951H20.6387V75.7969H109.284V82.0951ZM22.0024 80.7495H107.92V77.1425H22.0024V80.7495Z" fill="white"/>
<path d="M34.5373 76.9087L33.6843 75.9317C30.717 72.5263 27.3962 68.7162 23.6997 66.0191C24.2984 69.4048 24.5541 73.4915 24.5887 76.4612L23.2249 76.477C23.187 73.23 22.8534 68.1899 22.037 64.6702L21.6641 63.0625L23.0705 63.9547C27.4867 66.7556 31.329 71.1643 34.7185 75.0539L35.5695 76.0296L34.5373 76.9087Z" fill="white"/>
<path d="M37.8677 69.6117C32.5185 67.3253 26.9608 65.7129 22.6191 65.1866L22.7856 63.8516C27.2512 64.3923 32.946 66.0421 38.4097 68.3765L37.8677 69.6117Z" fill="white"/>
<path d="M26.754 65.3468L25.5234 64.7673C31.2143 52.9921 36.5502 46.1525 42.3169 43.2425L43.9437 42.4219L43.2591 44.0934C41.6743 47.9665 40.8739 59.8475 40.9758 63.6228L39.612 63.6583C39.5327 60.699 40.0795 50.5506 41.4459 45.2997C36.5508 48.4678 31.729 55.0525 26.754 65.3468Z" fill="white"/>
<path d="M41.192 58.5913L39.8828 58.2168C41.8106 51.6603 52.499 33.01 60.9168 28.5974L64.6784 26.625L61.7285 29.6572C57.9109 33.5809 55.5023 39.9337 53.7443 44.5717C53.4187 45.4297 53.117 46.2247 52.8353 46.9278L51.5674 46.4337C51.8465 45.7366 52.1448 44.9501 52.4664 44.1006C53.7669 40.6702 55.415 36.324 57.7424 32.6204C50.5453 39.3306 42.7395 53.3298 41.192 58.5913Z" fill="white"/>
<path d="M37.2785 76.4041L35.916 76.3345C36.6026 63.2879 49.1935 47.4161 57.4867 40.7979L57.9874 40.3984L58.7859 41.2637C59.7501 42.3045 60.4473 43.0568 61.259 44.4759L60.0711 45.1369C59.3545 43.8833 58.7472 43.2171 57.8483 42.2467C49.7502 48.9332 37.9297 64.0218 37.2785 76.4041Z" fill="white"/>
<path d="M59.1824 76.7548C56.6579 71.3981 55.0251 68.3692 48.7609 64.293C44.2641 66.95 41.0844 72.4992 39.1932 76.7417L37.9453 76.2003C39.9697 71.6582 43.4364 65.6662 48.4526 62.9152L48.8109 62.7188L49.1545 62.9389C56.0073 67.3225 57.8146 70.6622 60.4196 76.1871L59.1824 76.7548Z" fill="white"/>
<path d="M94.4443 76.9087L93.4121 76.0296L94.2631 75.0539C97.6526 71.1643 101.495 66.7556 105.911 63.9547L107.318 63.0625L106.945 64.6702C106.128 68.1899 105.795 73.23 105.757 76.477L104.393 76.4612C104.428 73.4915 104.683 69.4048 105.282 66.0191C101.585 68.7162 98.2646 72.5263 95.2973 75.9317L94.4443 76.9087Z" fill="white"/>
<path d="M91.1143 69.6117L90.5723 68.3765C96.036 66.0421 101.731 64.3923 106.196 63.8516L106.363 65.1866C102.021 65.7129 96.4635 67.3253 91.1143 69.6117Z" fill="white"/>
<path d="M102.229 65.3472C97.5754 55.7184 92.649 49.2172 87.5635 45.9852C89.0645 51.248 90.3237 61.6547 90.2371 64.8938L88.8733 64.8583C88.9659 61.3919 87.3737 48.8059 85.7236 44.7737L85.0391 43.1016L86.6659 43.9222C92.5625 46.8979 98.2127 53.911 103.459 64.7677L102.229 65.3472Z" fill="white"/>
<path d="M88.3152 57.2319C86.757 51.9343 78.5837 38.9285 71.2681 32.5264C74.4045 37.1893 76.6958 42.9101 78.0736 46.3489L76.8197 46.8791L76.8051 46.843C75.0511 42.4652 71.7868 34.3155 67.2546 29.6572L64.3047 26.625L68.0664 28.5974C76.4788 33.0074 87.6833 50.2556 89.6244 56.8574L88.3152 57.2319Z" fill="white"/>
<path d="M91.9919 76.3829C91.334 63.8837 79.7146 48.889 71.7264 42.2636C70.8961 43.3621 70.5212 44.0159 69.8133 45.2491C69.6362 45.5579 69.4391 45.9015 69.21 46.2958L68.0273 45.6256C68.2551 45.234 68.4509 44.893 68.6267 44.5862C69.4524 43.1473 69.8666 42.4246 71.0739 40.8871L71.5007 40.3438L72.0421 40.7761C80.2261 47.3082 92.6592 63.1196 93.3544 76.3133L91.9919 76.3829Z" fill="white"/>
<path d="M56.6168 69.7611L55.2637 69.589C55.4082 68.4865 58.8616 42.5142 64.035 35.057L64.6057 34.2344L65.165 35.0642C69.4328 41.39 72.8888 62.0167 73.8604 69.4306L72.5073 69.6028C71.5917 62.6107 68.4579 43.7547 64.5903 36.7337C60.8519 43.3697 57.7675 60.9799 56.6168 69.7611Z" fill="white"/>
<path d="M69.7998 76.7548L68.5625 76.1871C71.1675 70.6622 72.9748 67.3225 79.8276 62.9389L80.1712 62.7188L80.5295 62.9152C85.5457 65.6662 89.0124 71.6582 91.0368 76.2003L89.7889 76.7417C87.8977 72.4992 84.718 66.95 80.2212 64.293C73.957 68.3692 72.3242 71.3981 69.7998 76.7548Z" fill="white"/>
<path d="M22.6144 106.547L25.6744 92.1469H26.9164L28.4284 103.307L30.8044 92.1469H32.0104L28.9504 106.547H27.7084L26.2144 95.3869L23.8384 106.547H22.6144ZM33.0931 106.547L36.1531 92.1469H41.2651L41.0491 93.2269H37.2331L36.0451 98.8069H39.6991L39.4831 99.8869H35.8291L34.6411 105.467H38.4391L38.2051 106.547H33.0931ZM43.6106 106.547L44.4026 92.1469H45.6986L44.8886 104.891L49.5506 92.1469H51.3866L50.5946 104.945V104.999L50.6126 104.945L55.2386 92.1469H56.5526L51.2066 106.547H49.3706L50.1086 94.0189V93.8569L50.0546 94.0189L45.4466 106.547H43.6106ZM62.824 106.547L65.884 92.1469H68.404C70.69 92.1469 72.022 93.1909 71.356 96.2689L69.88 103.199C69.214 106.331 67.954 106.547 65.812 106.547H62.824ZM64.354 105.521H65.596C67.45 105.521 68.062 105.485 68.566 103.199L70.042 96.2509C70.528 93.9469 70.06 93.1729 68.206 93.1729H66.982L64.354 105.521ZM73.1796 106.547L76.2396 92.1469H81.3516L81.1356 93.2269H77.3196L76.1316 98.8069H79.7856L79.5696 99.8869H75.9156L74.7276 105.467H78.5256L78.2916 106.547H73.1796ZM82.0591 106.547L85.0831 92.1469H86.3971L83.6071 105.467H87.4231L87.1891 106.547H82.0591ZM95.6425 106.547L97.0465 99.8869H93.3925L91.9885 106.547H90.6745L93.6985 92.1469H95.0125L93.6085 98.8069H97.2625L98.6665 92.1469H99.9805L96.9385 106.547H95.6425ZM101.1 106.547L103.872 93.3169L104.124 92.1469H105.438L102.666 105.377L102.414 106.547H101.1Z" fill="#EA337D"/>
<path d="M22.6144 106.547L21.8319 106.381L21.6265 107.347H22.6144V106.547ZM25.6744 92.1469V91.3469H25.0265L24.8919 91.9806L25.6744 92.1469ZM26.9164 92.1469L27.7092 92.0395L27.6153 91.3469H26.9164V92.1469ZM28.4284 103.307L27.6356 103.414L29.2109 103.473L28.4284 103.307ZM30.8044 92.1469V91.3469H30.1568L30.0219 91.9803L30.8044 92.1469ZM32.0104 92.1469L32.7929 92.3132L32.9983 91.3469H32.0104V92.1469ZM28.9504 106.547V107.347H29.5983L29.7329 106.713L28.9504 106.547ZM27.7084 106.547L26.9155 106.653L27.0084 107.347H27.7084V106.547ZM26.2144 95.3869L27.0073 95.2807L25.4319 95.2203L26.2144 95.3869ZM23.8384 106.547V107.347H24.486L24.6209 106.713L23.8384 106.547ZM23.3969 106.713L26.4569 92.3132L24.8919 91.9806L21.8319 106.381L23.3969 106.713ZM25.6744 92.9469H26.9164V91.3469H25.6744V92.9469ZM26.1236 92.2543L27.6356 103.414L29.2212 103.199L27.7092 92.0395L26.1236 92.2543ZM29.2109 103.473L31.5869 92.3135L30.0219 91.9803L27.6459 103.14L29.2109 103.473ZM30.8044 92.9469H32.0104V91.3469H30.8044V92.9469ZM31.2279 91.9806L28.1679 106.381L29.7329 106.713L32.7929 92.3132L31.2279 91.9806ZM28.9504 105.747H27.7084V107.347H28.9504V105.747ZM28.5013 106.441L27.0073 95.2807L25.4215 95.493L26.9155 106.653L28.5013 106.441ZM25.4319 95.2203L23.0559 106.38L24.6209 106.713L26.9969 95.5535L25.4319 95.2203ZM23.8384 105.747H22.6144V107.347H23.8384V105.747ZM33.0931 106.547L32.3106 106.381L32.1052 107.347H33.0931V106.547ZM36.1531 92.1469V91.3469H35.5052L35.3706 91.9806L36.1531 92.1469ZM41.2651 92.1469L42.0495 92.3038L42.2409 91.3469H41.2651V92.1469ZM41.0491 93.2269V94.0269H41.7049L41.8335 93.3838L41.0491 93.2269ZM37.2331 93.2269V92.4269H36.5855L36.4506 93.0603L37.2331 93.2269ZM36.0451 98.8069L35.2626 98.6403L35.0568 99.6069H36.0451V98.8069ZM39.6991 98.8069L40.4835 98.9638L40.6749 98.0069H39.6991V98.8069ZM39.4831 99.8869V100.687H40.1389L40.2675 100.044L39.4831 99.8869ZM35.8291 99.8869V99.0869H35.1815L35.0466 99.7203L35.8291 99.8869ZM34.6411 105.467L33.8586 105.3L33.6528 106.267H34.6411V105.467ZM38.4391 105.467L39.2209 105.636L39.431 104.667H38.4391V105.467ZM38.2051 106.547V107.347H38.8503L38.9869 106.716L38.2051 106.547ZM33.8756 106.713L36.9356 92.3132L35.3706 91.9806L32.3106 106.381L33.8756 106.713ZM36.1531 92.9469H41.2651V91.3469H36.1531V92.9469ZM40.4806 91.99L40.2646 93.07L41.8335 93.3838L42.0495 92.3038L40.4806 91.99ZM41.0491 92.4269H37.2331V94.0269H41.0491V92.4269ZM36.4506 93.0603L35.2626 98.6403L36.8275 98.9735L38.0155 93.3935L36.4506 93.0603ZM36.0451 99.6069H39.6991V98.0069H36.0451V99.6069ZM38.9146 98.65L38.6986 99.73L40.2675 100.044L40.4835 98.9638L38.9146 98.65ZM39.4831 99.0869H35.8291V100.687H39.4831V99.0869ZM35.0466 99.7203L33.8586 105.3L35.4235 105.633L36.6115 100.053L35.0466 99.7203ZM34.6411 106.267H38.4391V104.667H34.6411V106.267ZM37.6572 105.297L37.4232 106.377L38.9869 106.716L39.2209 105.636L37.6572 105.297ZM38.2051 105.747H33.0931V107.347H38.2051V105.747ZM43.6106 106.547L42.8118 106.503L42.7654 107.347H43.6106V106.547ZM44.4026 92.1469V91.3469H43.6454L43.6038 92.1029L44.4026 92.1469ZM45.6986 92.1469L46.497 92.1976L46.551 91.3469H45.6986V92.1469ZM44.8886 104.891L44.0902 104.84L45.6399 105.166L44.8886 104.891ZM49.5506 92.1469V91.3469H48.9914L48.7993 91.872L49.5506 92.1469ZM51.3866 92.1469L52.185 92.1963L52.2376 91.3469H51.3866V92.1469ZM50.5946 104.945L49.7961 104.895L49.7946 104.92V104.945H50.5946ZM50.5946 104.999H49.7946L51.3535 105.252L50.5946 104.999ZM50.6126 104.945L49.8602 104.673L49.8568 104.682L49.8536 104.692L50.6126 104.945ZM55.2386 92.1469V91.3469H54.6771L54.4862 91.8749L55.2386 92.1469ZM56.5526 92.1469L57.3025 92.4253L57.7029 91.3469H56.5526V92.1469ZM51.2066 106.547V107.347H51.7629L51.9565 106.825L51.2066 106.547ZM49.3706 106.547L48.5719 106.5L48.522 107.347H49.3706V106.547ZM50.1086 94.0189L50.9072 94.0659L50.9086 94.0424V94.0189H50.1086ZM50.1086 93.8569H50.9086L49.3496 93.6039L50.1086 93.8569ZM50.0546 94.0189L50.8054 94.295L50.8096 94.2835L50.8135 94.2719L50.0546 94.0189ZM45.4466 106.547V107.347H46.0047L46.1974 106.823L45.4466 106.547ZM44.4094 106.591L45.2014 92.1908L43.6038 92.1029L42.8118 106.503L44.4094 106.591ZM44.4026 92.9469H45.6986V91.3469H44.4026V92.9469ZM44.9002 92.0961L44.0902 104.84L45.687 104.942L46.497 92.1976L44.9002 92.0961ZM45.6399 105.166L50.3019 92.4217L48.7993 91.872L44.1373 104.616L45.6399 105.166ZM49.5506 92.9469H51.3866V91.3469H49.5506V92.9469ZM50.5881 92.0975L49.7961 104.895L51.393 104.994L52.185 92.1963L50.5881 92.0975ZM49.7946 104.945V104.999H51.3946V104.945H49.7946ZM51.3535 105.252L51.3715 105.198L49.8536 104.692L49.8356 104.746L51.3535 105.252ZM51.3649 105.217L55.9909 92.4188L54.4862 91.8749L49.8602 104.673L51.3649 105.217ZM55.2386 92.9469H56.5526V91.3469H55.2386V92.9469ZM55.8026 91.8684L50.4566 106.268L51.9565 106.825L57.3025 92.4253L55.8026 91.8684ZM51.2066 105.747H49.3706V107.347H51.2066V105.747ZM50.1692 106.594L50.9072 94.0659L49.3099 93.9718L48.5719 106.5L50.1692 106.594ZM50.9086 94.0189V93.8569H49.3086V94.0189H50.9086ZM49.3496 93.6039L49.2956 93.7659L50.8135 94.2719L50.8675 94.1099L49.3496 93.6039ZM49.3037 93.7427L44.6957 106.271L46.1974 106.823L50.8054 94.295L49.3037 93.7427ZM45.4466 105.747H43.6106V107.347H45.4466V105.747ZM62.824 106.547L62.0415 106.381L61.8362 107.347H62.824V106.547ZM65.884 92.1469V91.3469H65.2362L65.1015 91.9806L65.884 92.1469ZM71.356 96.2689L70.5741 96.0997L70.5736 96.1022L71.356 96.2689ZM69.88 103.199L69.0976 103.032L69.0975 103.032L69.88 103.199ZM64.354 105.521L63.5715 105.354L63.3658 106.321H64.354V105.521ZM68.566 103.199L69.3473 103.371L69.3486 103.365L68.566 103.199ZM70.042 96.2509L70.8246 96.4171L70.8248 96.416L70.042 96.2509ZM66.982 93.1729V92.3729H66.3344L66.1995 93.0063L66.982 93.1729ZM63.6065 106.713L66.6665 92.3132L65.1015 91.9806L62.0415 106.381L63.6065 106.713ZM65.884 92.9469H68.404V91.3469H65.884V92.9469ZM68.404 92.9469C69.4624 92.9469 70.0641 93.1939 70.3712 93.5643C70.6738 93.9292 70.8871 94.6532 70.5741 96.0997L72.1379 96.4381C72.4909 94.8065 72.3713 93.4696 71.6028 92.543C70.839 91.6218 69.6317 91.3469 68.404 91.3469V92.9469ZM70.5736 96.1022L69.0976 103.032L70.6625 103.366L72.1385 96.4355L70.5736 96.1022ZM69.0975 103.032C68.7792 104.53 68.3594 105.112 67.9547 105.382C67.5174 105.675 66.9083 105.747 65.812 105.747V107.347C66.8577 107.347 67.9497 107.311 68.8443 106.712C69.7717 106.092 70.3149 105 70.6625 103.365L69.0975 103.032ZM65.812 105.747H62.824V107.347H65.812V105.747ZM64.354 106.321H65.596V104.721H64.354V106.321ZM65.596 106.321C66.0484 106.321 66.4843 106.32 66.8666 106.274C67.2586 106.227 67.6605 106.127 68.0271 105.885C68.7673 105.398 69.095 104.515 69.3473 103.371L67.7848 103.027C67.5331 104.168 67.3028 104.447 67.1474 104.549C67.0663 104.602 66.9361 104.654 66.6761 104.685C66.4065 104.718 66.0706 104.721 65.596 104.721V106.321ZM69.3486 103.365L70.8246 96.4171L69.2595 96.0846L67.7835 103.033L69.3486 103.365ZM70.8248 96.416C70.952 95.8128 71.0263 95.2682 71.0208 94.7889C71.0154 94.3101 70.9301 93.8419 70.6881 93.4372C70.1671 92.5663 69.183 92.3729 68.206 92.3729V93.9729C69.0831 93.9729 69.2599 94.1665 69.315 94.2585C69.3609 94.3354 69.4174 94.4926 69.4209 94.807C69.4245 95.1208 69.375 95.537 69.2592 96.0858L70.8248 96.416ZM68.206 92.3729H66.982V93.9729H68.206V92.3729ZM66.1995 93.0063L63.5715 105.354L65.1365 105.687L67.7645 93.3394L66.1995 93.0063ZM73.1796 106.547L72.3971 106.381L72.1918 107.347H73.1796V106.547ZM76.2396 92.1469V91.3469H75.5918L75.4571 91.9806L76.2396 92.1469ZM81.3516 92.1469L82.1361 92.3038L82.3275 91.3469H81.3516V92.1469ZM81.1356 93.2269V94.0269H81.7915L81.9201 93.3838L81.1356 93.2269ZM77.3196 93.2269V92.4269H76.672L76.5372 93.0603L77.3196 93.2269ZM76.1316 98.8069L75.3492 98.6403L75.1434 99.6069H76.1316V98.8069ZM79.7856 98.8069L80.5701 98.9638L80.7615 98.0069H79.7856V98.8069ZM79.5696 99.8869V100.687H80.2255L80.3541 100.044L79.5696 99.8869ZM75.9156 99.8869V99.0869H75.268L75.1332 99.7203L75.9156 99.8869ZM74.7276 105.467L73.9452 105.3L73.7394 106.267H74.7276V105.467ZM78.5256 105.467L79.3075 105.636L79.5175 104.667H78.5256V105.467ZM78.2916 106.547V107.347H78.9369L79.0735 106.716L78.2916 106.547ZM73.9622 106.713L77.0222 92.3132L75.4571 91.9806L72.3971 106.381L73.9622 106.713ZM76.2396 92.9469H81.3516V91.3469H76.2396V92.9469ZM80.5672 91.99L80.3512 93.07L81.9201 93.3838L82.1361 92.3038L80.5672 91.99ZM81.1356 92.4269H77.3196V94.0269H81.1356V92.4269ZM76.5372 93.0603L75.3492 98.6403L76.9141 98.9735L78.1021 93.3935L76.5372 93.0603ZM76.1316 99.6069H79.7856V98.0069H76.1316V99.6069ZM79.0012 98.65L78.7852 99.73L80.3541 100.044L80.5701 98.9638L79.0012 98.65ZM79.5696 99.0869H75.9156V100.687H79.5696V99.0869ZM75.1332 99.7203L73.9452 105.3L75.5101 105.633L76.6981 100.053L75.1332 99.7203ZM74.7276 106.267H78.5256V104.667H74.7276V106.267ZM77.7438 105.297L77.5098 106.377L79.0735 106.716L79.3075 105.636L77.7438 105.297ZM78.2916 105.747H73.1796V107.347H78.2916V105.747ZM82.0591 106.547L81.2762 106.382L81.0737 107.347H82.0591V106.547ZM85.0831 92.1469V91.3469H84.4337L84.3002 91.9825L85.0831 92.1469ZM86.3971 92.1469L87.1801 92.3109L87.3821 91.3469H86.3971V92.1469ZM83.6071 105.467L82.8241 105.303L82.6222 106.267H83.6071V105.467ZM87.4231 105.467L88.205 105.636L88.415 104.667H87.4231V105.467ZM87.1891 106.547V107.347H87.8344L87.971 106.716L87.1891 106.547ZM82.842 106.711L85.866 92.3113L84.3002 91.9825L81.2762 106.382L82.842 106.711ZM85.0831 92.9469H86.3971V91.3469H85.0831V92.9469ZM85.6141 91.9829L82.8241 105.303L84.3901 105.631L87.1801 92.3109L85.6141 91.9829ZM83.6071 106.267H87.4231V104.667H83.6071V106.267ZM86.6413 105.297L86.4073 106.377L87.971 106.716L88.205 105.636L86.6413 105.297ZM87.1891 105.747H82.0591V107.347H87.1891V105.747ZM95.6425 106.547L94.8597 106.382L94.6563 107.347H95.6425V106.547ZM97.0465 99.8869L97.8293 100.052L98.0327 99.0869H97.0465V99.8869ZM93.3925 99.8869V99.0869H92.7436L92.6097 99.7219L93.3925 99.8869ZM91.9885 106.547V107.347H92.6374L92.7713 106.712L91.9885 106.547ZM90.6745 106.547L89.8916 106.382L89.6891 107.347H90.6745V106.547ZM93.6985 92.1469V91.3469H93.0491L92.9156 91.9825L93.6985 92.1469ZM95.0125 92.1469L95.7953 92.3119L95.9987 91.3469H95.0125V92.1469ZM93.6085 98.8069L92.8257 98.6419L92.6223 99.6069H93.6085V98.8069ZM97.2625 98.8069V99.6069H97.9114L98.0453 98.9719L97.2625 98.8069ZM98.6665 92.1469V91.3469H98.0176L97.8837 91.9819L98.6665 92.1469ZM99.9805 92.1469L100.763 92.3122L100.967 91.3469H99.9805V92.1469ZM96.9385 106.547V107.347H97.5872L97.7212 106.712L96.9385 106.547ZM96.4253 106.712L97.8293 100.052L96.2637 99.7219L94.8597 106.382L96.4253 106.712ZM97.0465 99.0869H93.3925V100.687H97.0465V99.0869ZM92.6097 99.7219L91.2057 106.382L92.7713 106.712L94.1753 100.052L92.6097 99.7219ZM91.9885 105.747H90.6745V107.347H91.9885V105.747ZM91.4574 106.711L94.4814 92.3113L92.9156 91.9825L89.8916 106.382L91.4574 106.711ZM93.6985 92.9469H95.0125V91.3469H93.6985V92.9469ZM94.2297 91.9819L92.8257 98.6419L94.3913 98.9719L95.7953 92.3119L94.2297 91.9819ZM93.6085 99.6069H97.2625V98.0069H93.6085V99.6069ZM98.0453 98.9719L99.4493 92.3119L97.8837 91.9819L96.4797 98.6419L98.0453 98.9719ZM98.6665 92.9469H99.9805V91.3469H98.6665V92.9469ZM99.1978 91.9815L96.1558 106.382L97.7212 106.712L100.763 92.3122L99.1978 91.9815ZM96.9385 105.747H95.6425V107.347H96.9385V105.747ZM101.1 106.547L100.317 106.383L100.115 107.347H101.1V106.547ZM103.872 93.3169L103.09 93.1484L103.089 93.1528L103.872 93.3169ZM104.124 92.1469V91.3469H103.478L103.342 91.9784L104.124 92.1469ZM105.438 92.1469L106.221 92.3109L106.423 91.3469H105.438V92.1469ZM102.666 105.377L103.449 105.545L103.449 105.541L102.666 105.377ZM102.414 106.547V107.347H103.06L103.197 106.715L102.414 106.547ZM101.883 106.711L104.655 93.4809L103.089 93.1528L100.317 106.383L101.883 106.711ZM104.655 93.4853L104.907 92.3153L103.342 91.9784L103.09 93.1484L104.655 93.4853ZM104.124 92.9469H105.438V91.3469H104.124V92.9469ZM104.655 91.9828L101.883 105.213L103.449 105.541L106.221 92.3109L104.655 91.9828ZM101.884 105.208L101.632 106.378L103.197 106.715L103.449 105.545L101.884 105.208ZM102.414 105.747H101.1V107.347H102.414V105.747Z" fill="#EA337D"/>
</svg>
