<svg width="145" height="85" viewBox="0 0 145 85" fill="none" xmlns="http://www.w3.org/2000/svg">
<path d="M93.96 28.044L93.4184 28.0013L93.3723 28.5872H93.96V28.044ZM97.7463 19.3132L98.1141 19.713L98.1169 19.7104L97.7463 19.3132ZM110.486 16.7742L110.325 17.2932L110.337 17.2965L110.486 16.7742ZM113.782 18.4669L114.125 18.0453L114.125 18.0453L113.782 18.4669ZM116.01 21.4068L115.514 21.6298L115.519 21.6399L116.01 21.4068ZM115.876 29.6921L116.352 29.9539L116.355 29.949L115.876 29.6921ZM113.337 32.9439L113.704 33.3449L113.71 33.3391L113.337 32.9439ZM109.773 35.572L109.494 35.1062L109.489 35.109L109.773 35.572ZM105.853 37.9329L106.122 38.4053L106.13 38.4006L105.853 37.9329ZM102.112 40.1601L101.824 39.6995L102.112 40.1601ZM99.1271 42.5655L98.7296 42.1954L97.8792 43.1088H99.1271V42.5655ZM114.495 42.5655L115.025 42.6871L115.177 42.0223H114.495V42.5655ZM113.248 48V48.5432H113.68L113.777 48.1215L113.248 48ZM90.1737 48L89.6315 47.9666L89.596 48.5432H90.1737V48ZM91.4655 42.9665L91.9473 43.2174H91.9473L91.4655 42.9665ZM94.3163 39.2247L94.6848 39.6239L94.6902 39.6188L94.3163 39.2247ZM98.2363 36.2847L98.5129 36.7522L98.2363 36.2847ZM102.691 33.7902L102.945 34.2703L102.954 34.2657L102.962 34.2608L102.691 33.7902ZM105.185 32.4094L104.936 31.9266L104.93 31.93L105.185 32.4094ZM107.724 30.8058L108.055 31.2363L108.058 31.2346L107.724 30.8058ZM109.729 28.7122L110.175 29.0214L109.729 28.7122ZM109.105 22.6541L108.781 23.0903L108.789 23.0962L108.797 23.1017L109.105 22.6541ZM103.359 22.1641L103.593 22.6542L103.602 22.65L103.359 22.1641ZM101.577 23.545L101.163 23.1931L101.158 23.1993L101.153 23.2056L101.577 23.545ZM100.419 25.594L99.9119 25.399L99.9086 25.4076L99.9056 25.4163L100.419 25.594ZM99.9735 28.044V28.5872H100.498L100.516 28.0627L99.9735 28.044ZM94.5015 28.0866C94.7905 24.4162 96.0113 21.6475 98.1141 19.713L97.3785 18.9134C95.0267 21.077 93.7233 24.1289 93.4184 28.0013L94.5015 28.0866ZM98.1169 19.7104C100.226 17.742 102.995 16.7383 106.477 16.7383V15.6519C102.772 15.6519 99.7211 16.7269 97.3756 18.9161L98.1169 19.7104ZM106.477 16.7383C107.853 16.7383 109.135 16.9246 110.325 17.2931L110.647 16.2552C109.343 15.8517 107.952 15.6519 106.477 15.6519V16.7383ZM110.337 17.2965C111.518 17.6339 112.55 18.1654 113.44 18.8885L114.125 18.0453C113.114 17.2242 111.949 16.6272 110.635 16.2519L110.337 17.2965ZM113.44 18.8885C114.32 19.6038 115.012 20.5141 115.514 21.6297L116.505 21.1839C115.938 19.9239 115.145 18.8742 114.125 18.0453L113.44 18.8885ZM115.519 21.6399C116.042 22.7407 116.313 24.0537 116.313 25.594H117.399C117.399 23.9271 117.106 22.4486 116.5 21.1737L115.519 21.6399ZM116.313 25.594C116.313 27.0277 116.004 28.3041 115.397 29.4353L116.355 29.949C117.054 28.645 117.399 27.1894 117.399 25.594H116.313ZM115.4 29.4303C114.775 30.566 113.965 31.6054 112.964 32.5486L113.71 33.3391C114.788 32.3224 115.67 31.194 116.352 29.9539L115.4 29.4303ZM112.97 32.543C111.96 33.4663 110.802 34.3211 109.494 35.1062L110.053 36.0378C111.417 35.2193 112.635 34.322 113.703 33.3448L112.97 32.543ZM109.489 35.109C108.185 35.9093 106.881 36.6947 105.577 37.4652L106.13 38.4006C107.439 37.6269 108.748 36.8384 110.057 36.035L109.489 35.109ZM105.585 37.4606C104.272 38.2065 103.018 38.9528 101.824 39.6995L102.4 40.6208C103.581 39.8827 104.821 39.1441 106.122 38.4052L105.585 37.4606ZM101.824 39.6995C100.603 40.4625 99.5693 41.2935 98.7296 42.1954L99.5247 42.9357C100.289 42.1152 101.245 41.3426 102.4 40.6208L101.824 39.6995ZM99.1271 43.1088H114.495V42.0223H99.1271V43.1088ZM113.966 42.444L112.718 47.8785L113.777 48.1215L115.025 42.6871L113.966 42.444ZM113.248 47.4568H90.1737V48.5432H113.248V47.4568ZM90.7159 48.0334C90.8309 46.1639 91.2464 44.563 91.9473 43.2174L90.9837 42.7155C90.1997 44.2207 89.754 45.9756 89.6315 47.9666L90.7159 48.0334ZM91.9473 43.2174C92.6613 41.8464 93.5736 40.6496 94.6848 39.6239L93.9479 38.8255C92.7427 39.938 91.7544 41.2356 90.9837 42.7155L91.9473 43.2174ZM94.6902 39.6188C95.8171 38.5497 97.0908 37.5939 98.5129 36.7522L97.9596 35.8173C96.4715 36.698 95.1318 37.7022 93.9424 38.8306L94.6902 39.6188ZM98.5129 36.7522C99.9606 35.8955 101.438 35.0682 102.945 34.2703L102.437 33.3101C100.915 34.1159 99.4222 34.9516 97.9596 35.8173L98.5129 36.7522ZM102.962 34.2608C103.728 33.8187 104.555 33.3613 105.441 32.8887L104.93 31.93C104.034 32.4077 103.197 32.8709 102.419 33.3197L102.962 34.2608ZM105.434 32.8921C106.382 32.403 107.256 31.8513 108.055 31.2363L107.393 30.3752C106.648 30.9481 105.83 31.4655 104.936 31.9266L105.434 32.8921ZM108.058 31.2346C108.9 30.5798 109.607 29.8424 110.175 29.0214L109.282 28.4029C108.781 29.1261 108.153 29.7845 107.391 30.377L108.058 31.2346ZM110.175 29.0214C110.78 28.1488 111.074 27.1325 111.074 25.9949H109.987C109.987 26.9361 109.747 27.7313 109.282 28.4029L110.175 29.0214ZM111.074 25.9949C111.074 24.3134 110.561 22.9957 109.413 22.2064L108.797 23.1017C109.55 23.6191 109.987 24.5286 109.987 25.9949H111.074ZM109.429 22.2178C108.4 21.4543 107.153 21.0863 105.72 21.0863V22.1728C106.96 22.1728 107.969 22.4878 108.781 23.0903L109.429 22.2178ZM105.72 21.0863C104.781 21.0863 103.91 21.2811 103.116 21.6782L103.602 22.65C104.233 22.3343 104.936 22.1728 105.72 22.1728V21.0863ZM103.125 21.674C102.371 22.0346 101.716 22.5428 101.163 23.1931L101.991 23.8968C102.448 23.3593 102.981 22.9469 103.593 22.6541L103.125 21.674ZM101.153 23.2056C100.64 23.8468 100.227 24.5794 99.9119 25.399L100.926 25.789C101.205 25.0645 101.564 24.431 102.001 23.8843L101.153 23.2056ZM99.9056 25.4163C99.6197 26.2424 99.4621 27.1129 99.4306 28.0253L100.516 28.0627C100.544 27.2527 100.684 26.4899 100.932 25.7717L99.9056 25.4163ZM99.9735 27.5008H93.96V28.5872H99.9735V27.5008ZM130.249 48V48.5432H130.689L130.78 48.1124L130.249 48ZM123.523 48L122.991 47.8876L122.853 48.5432H123.523V48ZM127.799 27.7767L128.33 27.8891L128.469 27.2335H127.799V27.7767ZM120.182 27.7767L119.651 27.6626L119.509 28.3199H120.182V27.7767ZM121.206 23.0104L121.179 22.4679L120.763 22.4892L120.675 22.8963L121.206 23.0104ZM124.458 22.6541L124.553 23.1892L124.565 23.1868L124.458 22.6541ZM127.309 21.6741L127.559 22.1566L127.565 22.1534L127.309 21.6741ZM129.714 19.8032L129.323 19.4266L129.315 19.4348L129.714 19.8032ZM131.674 16.8187V16.2755H131.327L131.181 16.5903L131.674 16.8187ZM136.842 16.8187L137.373 16.9311L137.512 16.2755H136.842V16.8187ZM130.249 47.4568H123.523V48.5432H130.249V47.4568ZM124.054 48.1124L128.33 27.8891L127.267 27.6643L122.991 47.8876L124.054 48.1124ZM127.799 27.2335H120.182V28.3199H127.799V27.2335ZM120.713 27.8909L121.737 23.1246L120.675 22.8963L119.651 27.6626L120.713 27.8909ZM121.234 23.5529C122.412 23.4926 123.518 23.3716 124.553 23.189L124.364 22.1191C123.379 22.2929 122.317 22.4095 121.179 22.4679L121.234 23.5529ZM124.565 23.1868C125.649 22.9698 126.648 22.6274 127.559 22.1566L127.059 21.1916C126.247 21.6116 125.346 21.9226 124.352 22.1214L124.565 23.1868ZM127.565 22.1534C128.511 21.6485 129.361 20.9867 130.114 20.1717L129.315 19.4348C128.642 20.164 127.888 20.7494 127.053 21.1948L127.565 22.1534ZM130.106 20.1797C130.899 19.3548 131.584 18.3061 132.167 17.0471L131.181 16.5903C130.636 17.7664 130.014 18.7074 129.323 19.4267L130.106 20.1797ZM131.674 17.3619H136.842V16.2755H131.674V17.3619ZM136.31 16.7064L129.717 47.8876L130.78 48.1124L137.373 16.9311L136.31 16.7064Z" fill="#B4B4B4"/>
<path d="M92.3455 64.9212H95.7175L94.0615 60.5292L92.3455 64.9212ZM93.6415 59.7132H94.5535L97.9135 68.2812H97.0375L95.9935 65.6172H92.0935L91.0615 68.2812H90.1975L93.6415 59.7132ZM99.8081 59.7132H100.624V65.0172C100.624 65.5132 100.68 65.9372 100.792 66.2892C100.904 66.6332 101.068 66.9172 101.284 67.1412C101.5 67.3572 101.764 67.5172 102.076 67.6212C102.388 67.7172 102.74 67.7652 103.132 67.7652C103.532 67.7652 103.888 67.7172 104.2 67.6212C104.512 67.5172 104.776 67.3572 104.992 67.1412C105.208 66.9172 105.372 66.6332 105.484 66.2892C105.596 65.9372 105.652 65.5132 105.652 65.0172V59.7132H106.468V65.1973C106.468 65.6372 106.404 66.0572 106.276 66.4572C106.156 66.8492 105.96 67.1932 105.688 67.4893C105.424 67.7852 105.08 68.0212 104.656 68.1972C104.24 68.3653 103.732 68.4493 103.132 68.4493C102.54 68.4493 102.032 68.3653 101.608 68.1972C101.192 68.0212 100.848 67.7852 100.576 67.4893C100.312 67.1932 100.116 66.8492 99.9881 66.4572C99.8681 66.0572 99.8081 65.6372 99.8081 65.1973V59.7132ZM116.627 68.2812H116.039L115.931 66.7212H115.907C115.763 67.0252 115.583 67.2892 115.367 67.5132C115.159 67.7292 114.927 67.9092 114.671 68.0532C114.415 68.1892 114.139 68.2892 113.843 68.3533C113.555 68.4173 113.255 68.4493 112.943 68.4493C112.271 68.4493 111.679 68.3293 111.167 68.0892C110.663 67.8412 110.243 67.5132 109.907 67.1052C109.571 66.6972 109.319 66.2252 109.151 65.6892C108.983 65.1532 108.899 64.5892 108.899 63.9972C108.899 63.4052 108.983 62.8412 109.151 62.3052C109.319 61.7692 109.571 61.2972 109.907 60.8892C110.243 60.4732 110.663 60.1452 111.167 59.9052C111.679 59.6572 112.271 59.5332 112.943 59.5332C113.391 59.5332 113.815 59.5932 114.215 59.7132C114.615 59.8332 114.971 60.0132 115.283 60.2532C115.595 60.4932 115.859 60.7892 116.075 61.1412C116.291 61.4932 116.439 61.9052 116.519 62.3772H115.703C115.679 62.1292 115.595 61.8812 115.451 61.6332C115.315 61.3772 115.127 61.1452 114.887 60.9372C114.655 60.7292 114.375 60.5612 114.047 60.4332C113.719 60.2972 113.351 60.2292 112.943 60.2292C112.375 60.2292 111.887 60.3372 111.479 60.5532C111.071 60.7692 110.735 61.0572 110.471 61.4172C110.215 61.7692 110.023 62.1692 109.895 62.6172C109.775 63.0652 109.715 63.5252 109.715 63.9972C109.715 64.4612 109.775 64.9212 109.895 65.3772C110.023 65.8252 110.215 66.2292 110.471 66.5892C110.735 66.9412 111.071 67.2252 111.479 67.4412C111.887 67.6572 112.375 67.7652 112.943 67.7652C113.415 67.7652 113.835 67.6892 114.203 67.5372C114.579 67.3772 114.895 67.1572 115.151 66.8772C115.407 66.5972 115.599 66.2652 115.727 65.8812C115.855 65.4972 115.915 65.0772 115.907 64.6212H112.991V63.9252H116.627V68.2812ZM119.318 59.7132H120.134V65.0172C120.134 65.5132 120.19 65.9372 120.302 66.2892C120.414 66.6332 120.578 66.9172 120.794 67.1412C121.01 67.3572 121.274 67.5172 121.586 67.6212C121.898 67.7172 122.25 67.7652 122.642 67.7652C123.042 67.7652 123.398 67.7172 123.71 67.6212C124.022 67.5172 124.286 67.3572 124.502 67.1412C124.718 66.9172 124.882 66.6332 124.994 66.2892C125.106 65.9372 125.162 65.5132 125.162 65.0172V59.7132H125.978V65.1973C125.978 65.6372 125.914 66.0572 125.786 66.4572C125.666 66.8492 125.47 67.1932 125.198 67.4893C124.934 67.7852 124.59 68.0212 124.166 68.1972C123.75 68.3653 123.242 68.4493 122.642 68.4493C122.05 68.4493 121.542 68.3653 121.118 68.1972C120.702 68.0212 120.358 67.7852 120.086 67.4893C119.822 67.1932 119.626 66.8492 119.498 66.4572C119.378 66.0572 119.318 65.6372 119.318 65.1973V59.7132ZM129.2 65.4612C129.192 65.9012 129.26 66.2692 129.404 66.5652C129.548 66.8612 129.744 67.0972 129.992 67.2732C130.248 67.4492 130.548 67.5772 130.892 67.6572C131.236 67.7292 131.604 67.7652 131.996 67.7652C132.22 67.7652 132.464 67.7332 132.728 67.6692C132.992 67.6052 133.236 67.5052 133.46 67.3692C133.692 67.2252 133.884 67.0452 134.036 66.8292C134.188 66.6052 134.264 66.3372 134.264 66.0252C134.264 65.7852 134.208 65.5772 134.096 65.4012C133.992 65.2252 133.852 65.0772 133.676 64.9572C133.508 64.8372 133.32 64.7412 133.112 64.6692C132.904 64.5892 132.7 64.5252 132.5 64.4772L130.592 64.0092C130.344 63.9452 130.1 63.8652 129.86 63.7692C129.628 63.6732 129.424 63.5452 129.248 63.3852C129.072 63.2252 128.928 63.0292 128.816 62.7972C128.712 62.5652 128.66 62.2812 128.66 61.9453C128.66 61.7372 128.7 61.4932 128.78 61.2132C128.86 60.9332 129.008 60.6692 129.224 60.4212C129.448 60.1732 129.752 59.9652 130.136 59.7972C130.52 59.6212 131.012 59.5332 131.612 59.5332C132.036 59.5332 132.44 59.5892 132.824 59.7012C133.208 59.8132 133.544 59.9812 133.832 60.2052C134.12 60.4292 134.348 60.7092 134.516 61.0452C134.692 61.3732 134.78 61.7572 134.78 62.1972H133.964C133.948 61.8692 133.872 61.5852 133.736 61.3452C133.608 61.0972 133.436 60.8932 133.22 60.7332C133.012 60.5652 132.768 60.4412 132.488 60.3612C132.216 60.2732 131.928 60.2292 131.624 60.2292C131.344 60.2292 131.072 60.2612 130.808 60.3252C130.552 60.3812 130.324 60.4772 130.124 60.6132C129.932 60.7412 129.776 60.9132 129.656 61.1292C129.536 61.3452 129.476 61.6132 129.476 61.9332C129.476 62.1332 129.508 62.3092 129.572 62.4612C129.644 62.6052 129.74 62.7292 129.86 62.8332C129.98 62.9372 130.116 63.0212 130.268 63.0852C130.428 63.1492 130.596 63.2012 130.772 63.2412L132.86 63.7572C133.164 63.8372 133.448 63.9372 133.712 64.0572C133.984 64.1692 134.22 64.3132 134.42 64.4892C134.628 64.6572 134.788 64.8652 134.9 65.1133C135.02 65.3612 135.08 65.6612 135.08 66.0132C135.08 66.1092 135.068 66.2372 135.044 66.3972C135.028 66.5572 134.98 66.7292 134.9 66.9132C134.828 67.0892 134.72 67.2692 134.576 67.4532C134.44 67.6372 134.248 67.8052 134 67.9572C133.76 68.1012 133.46 68.2172 133.1 68.3053C132.74 68.4013 132.308 68.4493 131.804 68.4493C131.3 68.4493 130.832 68.3933 130.4 68.2812C129.968 68.1612 129.6 67.9812 129.296 67.7412C128.992 67.5012 128.756 67.1932 128.588 66.8172C128.428 66.4412 128.36 65.9892 128.384 65.4612H129.2ZM136.663 59.7132H143.443V60.4092H140.455V68.2812H139.639V60.4092H136.663V59.7132Z" fill="white"/>
<path d="M92.3455 64.9212L92.2053 64.8664L92.125 65.0718H92.3455V64.9212ZM95.7175 64.9212V65.0718H95.9353L95.8584 64.8681L95.7175 64.9212ZM94.0615 60.5292L94.2024 60.4761L94.064 60.109L93.9213 60.4744L94.0615 60.5292ZM93.6415 59.7132V59.5627H93.5398L93.5018 59.6571L93.6415 59.7132ZM94.5535 59.7132L94.6937 59.6583L94.6562 59.5627H94.5535V59.7132ZM97.9135 68.2812V68.4318H98.1343L98.0537 68.2263L97.9135 68.2812ZM97.0375 68.2812L96.8973 68.3362L96.9348 68.4318H97.0375V68.2812ZM95.9935 65.6172L96.1337 65.5623L96.0963 65.4667H95.9935V65.6172ZM92.0935 65.6172V65.4667H91.9904L91.9531 65.5629L92.0935 65.6172ZM91.0615 68.2812V68.4318H91.1647L91.202 68.3356L91.0615 68.2812ZM90.1975 68.2812L90.0578 68.2251L89.9747 68.4318H90.1975V68.2812ZM92.3455 65.0718H95.7175V64.7707H92.3455V65.0718ZM95.8584 64.8681L94.2024 60.4761L93.9206 60.5824L95.5766 64.9744L95.8584 64.8681ZM93.9213 60.4744L92.2053 64.8664L92.4858 64.9761L94.2018 60.5841L93.9213 60.4744ZM93.6415 59.8638H94.5535V59.5627H93.6415V59.8638ZM94.4133 59.7682L97.7733 68.3362L98.0537 68.2263L94.6937 59.6583L94.4133 59.7682ZM97.9135 68.1307H97.0375V68.4318H97.9135V68.1307ZM97.1777 68.2263L96.1337 65.5623L95.8533 65.6722L96.8973 68.3362L97.1777 68.2263ZM95.9935 65.4667H92.0935V65.7678H95.9935V65.4667ZM91.9531 65.5629L90.9211 68.2269L91.202 68.3356L92.234 65.6716L91.9531 65.5629ZM91.0615 68.1307H90.1975V68.4318H91.0615V68.1307ZM90.3373 68.3374L93.7813 59.7694L93.5018 59.6571L90.0578 68.2251L90.3373 68.3374ZM99.8081 59.7132V59.5627H99.6575V59.7132H99.8081ZM100.624 59.7132H100.775V59.5627H100.624V59.7132ZM100.792 66.2892L100.649 66.3349L100.649 66.3359L100.792 66.2892ZM101.284 67.1412L101.176 67.2458L101.178 67.2477L101.284 67.1412ZM102.076 67.6213L102.028 67.7642L102.032 67.7652L102.076 67.6213ZM104.2 67.6213L104.244 67.7652L104.248 67.7641L104.2 67.6213ZM104.992 67.1412L105.099 67.2478L105.101 67.2458L104.992 67.1412ZM105.484 66.2892L105.627 66.3359L105.628 66.3349L105.484 66.2892ZM105.652 59.7132V59.5627H105.502V59.7132H105.652ZM106.468 59.7132H106.619V59.5627H106.468V59.7132ZM106.276 66.4572L106.133 66.4113L106.132 66.4132L106.276 66.4572ZM105.688 67.4893L105.577 67.3873L105.576 67.389L105.688 67.4893ZM104.656 68.1973L104.713 68.3369L104.714 68.3363L104.656 68.1973ZM101.608 68.1973L101.549 68.336L101.553 68.3373L101.608 68.1973ZM100.576 67.4893L100.464 67.5895L100.465 67.5911L100.576 67.4893ZM99.9881 66.4572L99.8438 66.5005L99.845 66.504L99.9881 66.4572ZM99.8081 59.8638H100.624V59.5627H99.8081V59.8638ZM100.474 59.7132V65.0173H100.775V59.7132H100.474ZM100.474 65.0173C100.474 65.5238 100.531 65.9641 100.649 66.3349L100.936 66.2436C100.83 65.9104 100.775 65.5027 100.775 65.0173H100.474ZM100.649 66.3359C100.767 66.698 100.942 67.0029 101.176 67.2458L101.393 67.0367C101.195 66.8316 101.041 66.5685 100.935 66.2426L100.649 66.3359ZM101.178 67.2477C101.411 67.4815 101.696 67.6533 102.029 67.7641L102.124 67.4784C101.832 67.3812 101.589 67.233 101.391 67.0348L101.178 67.2477ZM102.032 67.7652C102.361 67.8664 102.728 67.9158 103.132 67.9158V67.6147C102.752 67.6147 102.416 67.5681 102.12 67.4773L102.032 67.7652ZM103.132 67.9158C103.544 67.9158 103.915 67.8665 104.244 67.7652L104.156 67.4773C103.861 67.568 103.52 67.6147 103.132 67.6147V67.9158ZM104.248 67.7641C104.58 67.6533 104.865 67.4815 105.099 67.2477L104.886 67.0348C104.687 67.233 104.444 67.3812 104.153 67.4784L104.248 67.7641ZM105.101 67.2458C105.335 67.0029 105.509 66.698 105.627 66.3359L105.341 66.2426C105.235 66.5685 105.082 66.8316 104.884 67.0367L105.101 67.2458ZM105.628 66.3349C105.746 65.9641 105.803 65.5238 105.803 65.0173H105.502C105.502 65.5027 105.447 65.9104 105.341 66.2436L105.628 66.3349ZM105.803 65.0173V59.7132H105.502V65.0173H105.803ZM105.652 59.8638H106.468V59.5627H105.652V59.8638ZM106.318 59.7132V65.1972H106.619V59.7132H106.318ZM106.318 65.1972C106.318 65.6224 106.256 66.0269 106.133 66.4114L106.42 66.5031C106.553 66.0876 106.619 65.6521 106.619 65.1972H106.318ZM106.132 66.4132C106.019 66.7841 105.834 67.1082 105.577 67.3874L105.799 67.5911C106.087 67.2783 106.294 66.9144 106.42 66.5013L106.132 66.4132ZM105.576 67.389C105.329 67.6657 105.005 67.8895 104.598 68.0582L104.714 68.3363C105.155 68.153 105.519 67.9048 105.801 67.5895L105.576 67.389ZM104.6 68.0576C104.207 68.2164 103.719 68.2987 103.132 68.2987V68.5998C103.745 68.5998 104.274 68.5141 104.713 68.3369L104.6 68.0576ZM103.132 68.2987C102.554 68.2987 102.066 68.2165 101.664 68.0572L101.553 68.3373C101.999 68.514 102.527 68.5998 103.132 68.5998V68.2987ZM101.667 68.0586C101.268 67.8899 100.943 67.6656 100.687 67.3874L100.465 67.5911C100.754 67.9049 101.116 68.1526 101.549 68.3359L101.667 68.0586ZM100.689 67.389C100.439 67.1091 100.253 66.7835 100.131 66.4105L99.845 66.504C99.9792 66.915 100.185 67.2774 100.464 67.5895L100.689 67.389ZM100.132 66.414C100.017 66.0288 99.9587 65.6234 99.9587 65.1972H99.6575C99.6575 65.6511 99.7194 66.0857 99.8439 66.5005L100.132 66.414ZM99.9587 65.1972V59.7132H99.6575V65.1972H99.9587ZM116.627 68.2812V68.4318H116.778V68.2812H116.627ZM116.039 68.2812L115.889 68.2917L115.898 68.4318H116.039V68.2812ZM115.931 66.7212L116.081 66.7108L116.071 66.5707H115.931V66.7212ZM115.907 66.7212V66.5707H115.812L115.771 66.6568L115.907 66.7212ZM115.367 67.5133L115.259 67.4087L115.258 67.4088L115.367 67.5133ZM114.671 68.0533L114.742 68.1863L114.745 68.1845L114.671 68.0533ZM113.843 68.3532L113.811 68.2061L113.81 68.2062L113.843 68.3532ZM111.167 68.0892L111.1 68.2244L111.103 68.2256L111.167 68.0892ZM109.907 67.1053L110.023 67.0095L109.907 67.1053ZM109.151 65.6892L109.007 65.7343L109.151 65.6892ZM109.151 62.3052L109.007 62.2602L109.151 62.3052ZM109.907 60.8892L110.023 60.985L110.024 60.9839L109.907 60.8892ZM111.167 59.9052L111.232 60.0412L111.233 60.0408L111.167 59.9052ZM114.215 59.7132L114.258 59.569L114.215 59.7132ZM115.283 60.2532L115.191 60.3726L115.283 60.2532ZM116.519 62.3772V62.5278H116.697L116.667 62.3521L116.519 62.3772ZM115.703 62.3772L115.553 62.3918L115.566 62.5278H115.703V62.3772ZM115.451 61.6332L115.318 61.704L115.321 61.7089L115.451 61.6332ZM114.887 60.9372L114.786 61.0494L114.788 61.0511L114.887 60.9372ZM114.047 60.4332L113.989 60.5724L113.992 60.5735L114.047 60.4332ZM111.479 60.5532L111.409 60.4202L111.479 60.5532ZM110.471 61.4172L110.35 61.3282L110.349 61.3287L110.471 61.4172ZM109.895 62.6172L109.75 62.5759L109.75 62.5783L109.895 62.6172ZM109.895 65.3772L109.749 65.4156L109.75 65.4186L109.895 65.3772ZM110.471 66.5892L110.348 66.6766L110.35 66.6796L110.471 66.5892ZM111.479 67.4412L111.549 67.3082L111.479 67.4412ZM114.203 67.5372L114.26 67.6764L114.262 67.6758L114.203 67.5372ZM115.727 65.8812L115.87 65.9289V65.9289L115.727 65.8812ZM115.907 64.6213L116.058 64.6186L116.055 64.4707H115.907V64.6213ZM112.991 64.6213H112.84V64.7718H112.991V64.6213ZM112.991 63.9253V63.7747H112.84V63.9253H112.991ZM116.627 63.9253H116.778V63.7747H116.627V63.9253ZM116.627 68.1307H116.039V68.4318H116.627V68.1307ZM116.189 68.2708L116.081 66.7108L115.781 66.7317L115.889 68.2917L116.189 68.2708ZM115.931 66.5707H115.907V66.8718H115.931V66.5707ZM115.771 66.6568C115.633 66.9472 115.462 67.1974 115.259 67.4087L115.475 67.6178C115.704 67.3811 115.893 67.1033 116.043 66.7857L115.771 66.6568ZM115.258 67.4088C115.06 67.6144 114.84 67.7853 114.597 67.922L114.745 68.1845C115.014 68.0332 115.257 67.8441 115.475 67.6177L115.258 67.4088ZM114.6 67.9203C114.357 68.0495 114.094 68.1449 113.811 68.2061L113.875 68.5004C114.184 68.4336 114.473 68.329 114.742 68.1862L114.6 67.9203ZM113.81 68.2062C113.534 68.2677 113.245 68.2987 112.943 68.2987V68.5998C113.265 68.5998 113.576 68.5668 113.876 68.5003L113.81 68.2062ZM112.943 68.2987C112.289 68.2987 111.719 68.1819 111.231 67.9529L111.103 68.2256C111.638 68.4766 112.253 68.5998 112.943 68.5998V68.2987ZM111.233 67.9541C110.747 67.715 110.345 67.4 110.023 67.0095L109.791 67.201C110.141 67.6265 110.579 67.9675 111.1 68.2244L111.233 67.9541ZM110.023 67.0095C109.7 66.6174 109.457 66.1629 109.295 65.6442L109.007 65.7343C109.181 66.2876 109.442 66.7771 109.791 67.201L110.023 67.0095ZM109.295 65.6442C109.131 65.1236 109.05 64.5748 109.05 63.9972H108.748C108.748 64.6037 108.834 65.1829 109.007 65.7343L109.295 65.6442ZM109.05 63.9972C109.05 63.4197 109.131 62.8709 109.295 62.3503L109.007 62.2602C108.834 62.8116 108.748 63.3908 108.748 63.9972H109.05ZM109.295 62.3503C109.457 61.8316 109.7 61.3771 110.023 60.985L109.791 60.7935C109.442 61.2174 109.181 61.7069 109.007 62.2602L109.295 62.3503ZM110.024 60.9839C110.345 60.5862 110.747 60.272 111.232 60.0412L111.102 59.7693C110.579 60.0185 110.141 60.3603 109.79 60.7946L110.024 60.9839ZM111.233 60.0408C111.721 59.8043 112.29 59.6838 112.943 59.6838V59.3827C112.252 59.3827 111.637 59.5102 111.101 59.7697L111.233 60.0408ZM112.943 59.6838C113.377 59.6838 113.787 59.742 114.172 59.8575L114.258 59.569C113.843 59.4445 113.405 59.3827 112.943 59.3827V59.6838ZM114.172 59.8575C114.555 59.9725 114.895 60.1445 115.191 60.3726L115.375 60.1339C115.047 59.882 114.675 59.6939 114.258 59.569L114.172 59.8575ZM115.191 60.3726C115.488 60.6009 115.74 60.8829 115.947 61.22L116.203 61.0625C115.978 60.6956 115.702 60.3856 115.375 60.1339L115.191 60.3726ZM115.947 61.22C116.151 61.5532 116.293 61.9464 116.37 62.4024L116.667 62.3521C116.585 61.8641 116.431 61.4333 116.203 61.0625L115.947 61.22ZM116.519 62.2267H115.703V62.5278H116.519V62.2267ZM115.853 62.3627C115.826 62.0902 115.734 61.8215 115.581 61.5576L115.321 61.7089C115.456 61.941 115.531 62.1683 115.553 62.3918L115.853 62.3627ZM115.584 61.5626C115.438 61.2887 115.238 61.0424 114.986 60.8234L114.788 61.0511C115.016 61.2481 115.191 61.4658 115.318 61.7039L115.584 61.5626ZM114.987 60.8251C114.74 60.6036 114.444 60.4267 114.102 60.293L113.992 60.5735C114.306 60.6958 114.57 60.8549 114.786 61.0494L114.987 60.8251ZM114.105 60.2941C113.756 60.1495 113.368 60.0787 112.943 60.0787V60.3798C113.334 60.3798 113.682 60.445 113.989 60.5724L114.105 60.2941ZM112.943 60.0787C112.356 60.0787 111.843 60.1903 111.409 60.4202L111.549 60.6863C111.931 60.4842 112.394 60.3798 112.943 60.3798V60.0787ZM111.409 60.4202C110.981 60.6464 110.627 60.9492 110.35 61.3282L110.592 61.5063C110.842 61.1653 111.161 60.8921 111.549 60.6863L111.409 60.4202ZM110.349 61.3287C110.082 61.6959 109.883 62.1121 109.75 62.5759L110.04 62.6586C110.163 62.2264 110.348 61.8426 110.593 61.5058L110.349 61.3287ZM109.75 62.5783C109.626 63.0392 109.564 63.5123 109.564 63.9972H109.866C109.866 63.5382 109.924 63.0913 110.04 62.6562L109.75 62.5783ZM109.564 63.9972C109.564 64.4744 109.626 64.9473 109.749 65.4156L110.041 65.3389C109.924 64.8952 109.866 64.4481 109.866 63.9972H109.564ZM109.75 65.4186C109.883 65.8822 110.082 66.3018 110.348 66.6765L110.594 66.502C110.348 66.1567 110.163 65.7683 110.04 65.3359L109.75 65.4186ZM110.35 66.6796C110.628 67.0502 110.982 67.3485 111.409 67.5743L111.549 67.3082C111.16 67.102 110.841 66.8323 110.591 66.4989L110.35 66.6796ZM111.409 67.5743C111.843 67.8042 112.356 67.9158 112.943 67.9158V67.6147C112.394 67.6147 111.931 67.5103 111.549 67.3082L111.409 67.5743ZM112.943 67.9158C113.431 67.9158 113.871 67.8372 114.26 67.6764L114.145 67.3981C113.799 67.5413 113.399 67.6147 112.943 67.6147V67.9158ZM114.262 67.6758C114.656 67.508 114.99 67.276 115.262 66.9789L115.04 66.7756C114.799 67.0385 114.502 67.2465 114.144 67.3987L114.262 67.6758ZM115.262 66.9789C115.533 66.6823 115.736 66.3315 115.87 65.9289L115.584 65.8336C115.462 66.199 115.281 66.5122 115.04 66.7756L115.262 66.9789ZM115.87 65.9289C116.004 65.5268 116.066 65.0895 116.058 64.6186L115.756 64.6239C115.764 65.065 115.706 65.4677 115.584 65.8336L115.87 65.9289ZM115.907 64.4707H112.991V64.7718H115.907V64.4707ZM113.142 64.6213V63.9253H112.84V64.6213H113.142ZM112.991 64.0758H116.627V63.7747H112.991V64.0758ZM116.476 63.9253V68.2812H116.778V63.9253H116.476ZM119.318 59.7132V59.5627H119.167V59.7132H119.318ZM120.134 59.7132H120.284V59.5627H120.134V59.7132ZM120.302 66.2892L120.158 66.3349L120.158 66.3359L120.302 66.2892ZM120.794 67.1412L120.685 67.2458L120.687 67.2477L120.794 67.1412ZM121.586 67.6213L121.538 67.7642L121.541 67.7652L121.586 67.6213ZM123.709 67.6213L123.754 67.7652L123.757 67.7641L123.709 67.6213ZM124.501 67.1412L124.608 67.2478L124.61 67.2458L124.501 67.1412ZM124.993 66.2892L125.137 66.3359L125.137 66.3349L124.993 66.2892ZM125.161 59.7132V59.5627H125.011V59.7132H125.161ZM125.978 59.7132H126.128V59.5627H125.978V59.7132ZM125.785 66.4572L125.642 66.4113L125.642 66.4132L125.785 66.4572ZM125.198 67.4893L125.087 67.3873L125.085 67.389L125.198 67.4893ZM124.166 68.1973L124.222 68.3369L124.223 68.3363L124.166 68.1973ZM121.118 68.1973L121.059 68.336L121.062 68.3373L121.118 68.1973ZM120.086 67.4893L119.973 67.5895L119.975 67.5911L120.086 67.4893ZM119.498 66.4572L119.353 66.5005L119.354 66.504L119.498 66.4572ZM119.318 59.8638H120.134V59.5627H119.318V59.8638ZM119.983 59.7132V65.0173H120.284V59.7132H119.983ZM119.983 65.0173C119.983 65.5238 120.04 65.9641 120.158 66.3349L120.445 66.2436C120.339 65.9104 120.284 65.5027 120.284 65.0173H119.983ZM120.158 66.3359C120.276 66.698 120.451 67.0029 120.685 67.2458L120.902 67.0367C120.704 66.8316 120.551 66.5685 120.445 66.2426L120.158 66.3359ZM120.687 67.2477C120.921 67.4815 121.205 67.6533 121.538 67.7641L121.633 67.4784C121.342 67.3812 121.098 67.233 120.9 67.0348L120.687 67.2477ZM121.541 67.7652C121.87 67.8664 122.237 67.9158 122.642 67.9158V67.6147C122.262 67.6147 121.925 67.5681 121.63 67.4773L121.541 67.7652ZM122.642 67.9158C123.053 67.9158 123.425 67.8665 123.754 67.7652L123.665 67.4773C123.37 67.568 123.03 67.6147 122.642 67.6147V67.9158ZM123.757 67.7641C124.09 67.6533 124.374 67.4815 124.608 67.2477L124.395 67.0348C124.197 67.233 123.953 67.3812 123.662 67.4784L123.757 67.7641ZM124.61 67.2458C124.844 67.0029 125.019 66.698 125.137 66.3359L124.85 66.2426C124.744 66.5685 124.591 66.8316 124.393 67.0367L124.61 67.2458ZM125.137 66.3349C125.255 65.9641 125.312 65.5238 125.312 65.0173H125.011C125.011 65.5027 124.956 65.9104 124.85 66.2436L125.137 66.3349ZM125.312 65.0173V59.7132H125.011V65.0173H125.312ZM125.161 59.8638H125.978V59.5627H125.161V59.8638ZM125.827 59.7132V65.1972H126.128V59.7132H125.827ZM125.827 65.1972C125.827 65.6224 125.765 66.0269 125.642 66.4114L125.929 66.5031C126.062 66.0876 126.128 65.6521 126.128 65.1972H125.827ZM125.642 66.4132C125.528 66.7841 125.343 67.1082 125.087 67.3874L125.308 67.5911C125.596 67.2783 125.803 66.9144 125.93 66.5013L125.642 66.4132ZM125.085 67.389C124.838 67.6657 124.514 67.8895 124.108 68.0582L124.223 68.3363C124.665 68.153 125.029 67.9048 125.31 67.5895L125.085 67.389ZM124.109 68.0576C123.716 68.2164 123.228 68.2987 122.642 68.2987V68.5998C123.255 68.5998 123.783 68.5141 124.222 68.3369L124.109 68.0576ZM122.642 68.2987C122.063 68.2987 121.575 68.2165 121.173 68.0572L121.062 68.3373C121.508 68.514 122.036 68.5998 122.642 68.5998V68.2987ZM121.176 68.0586C120.778 67.8899 120.452 67.6656 120.196 67.3874L119.975 67.5911C120.263 67.9049 120.625 68.1526 121.059 68.3359L121.176 68.0586ZM120.198 67.389C119.948 67.1091 119.762 66.7835 119.641 66.4105L119.354 66.504C119.489 66.915 119.695 67.2774 119.973 67.5895L120.198 67.389ZM119.642 66.414C119.526 66.0288 119.468 65.6234 119.468 65.1972H119.167C119.167 65.6511 119.229 66.0857 119.353 66.5005L119.642 66.414ZM119.468 65.1972V59.7132H119.167V65.1972H119.468ZM129.2 65.4612L129.351 65.464L129.354 65.3107H129.2V65.4612ZM129.404 66.5653L129.269 66.6311L129.404 66.5653ZM129.992 67.2732L129.905 67.3961L129.907 67.3973L129.992 67.2732ZM130.892 67.6573L130.858 67.804L130.861 67.8047L130.892 67.6573ZM132.728 67.6692L132.764 67.8156L132.728 67.6692ZM133.46 67.3693L133.539 67.498L133.54 67.4972L133.46 67.3693ZM134.036 66.8293L134.16 66.9159L134.161 66.9138L134.036 66.8293ZM134.096 65.4012L133.967 65.4779L133.969 65.4821L134.096 65.4012ZM133.676 64.9572L133.589 65.0798L133.592 65.0817L133.676 64.9572ZM133.112 64.6692L133.058 64.8099L133.063 64.8116L133.112 64.6692ZM132.5 64.4773L132.464 64.6235L132.465 64.6237L132.5 64.4773ZM130.592 64.0092L130.555 64.1551L130.556 64.1555L130.592 64.0092ZM129.86 63.7692L129.803 63.9084L129.804 63.9091L129.86 63.7692ZM129.248 63.3852L129.147 63.4967L129.248 63.3852ZM128.816 62.7972L128.679 62.8589L128.681 62.8627L128.816 62.7972ZM128.78 61.2132L128.636 61.1719L128.78 61.2132ZM129.224 60.4212L129.113 60.3203L129.111 60.3223L129.224 60.4212ZM130.136 59.7972L130.197 59.9352L130.199 59.9342L130.136 59.7972ZM133.832 60.2052L133.74 60.3241L133.832 60.2052ZM134.516 61.0452L134.382 61.1126L134.384 61.1165L134.516 61.0452ZM134.78 62.1972V62.3478H134.931V62.1972H134.78ZM133.964 62.1972L133.814 62.2046L133.821 62.3478H133.964V62.1972ZM133.736 61.3452L133.602 61.4144L133.605 61.4195L133.736 61.3452ZM133.22 60.7332L133.126 60.8505L133.131 60.8543L133.22 60.7332ZM132.488 60.3612L132.442 60.5046L132.447 60.5061L132.488 60.3612ZM130.808 60.3252L130.841 60.4724L130.844 60.4716L130.808 60.3252ZM130.124 60.6132L130.208 60.7386L130.209 60.7378L130.124 60.6132ZM129.572 62.4612L129.433 62.5198L129.438 62.5286L129.572 62.4612ZM129.86 62.8332L129.959 62.7194L129.86 62.8332ZM130.268 63.0852L130.21 63.2241L130.212 63.2251L130.268 63.0852ZM130.772 63.2413L130.808 63.095L130.806 63.0944L130.772 63.2413ZM132.86 63.7572L132.899 63.6116L132.896 63.6111L132.86 63.7572ZM133.712 64.0572L133.65 64.1944L133.655 64.1965L133.712 64.0572ZM134.42 64.4892L134.321 64.6024L134.326 64.6064L134.42 64.4892ZM134.9 65.1132L134.763 65.1753L134.765 65.1788L134.9 65.1132ZM135.044 66.3973L134.895 66.3749L134.894 66.3823L135.044 66.3973ZM134.9 66.9132L134.762 66.8532L134.761 66.8562L134.9 66.9132ZM134.576 67.4532L134.458 67.3604L134.455 67.3637L134.576 67.4532ZM134 67.9572L134.078 68.0864L134.079 68.0856L134 67.9572ZM133.1 68.3053L133.065 68.1589L133.062 68.1597L133.1 68.3053ZM130.4 68.2812L130.36 68.4264L130.363 68.427L130.4 68.2812ZM128.588 66.8173L128.45 66.8762L128.451 66.8787L128.588 66.8173ZM128.384 65.4612V65.3107H128.24L128.234 65.4544L128.384 65.4612ZM129.05 65.4585C129.041 65.9146 129.112 66.3078 129.269 66.6311L129.54 66.4994C129.409 66.2307 129.343 65.8879 129.351 65.464L129.05 65.4585ZM129.269 66.6311C129.423 66.9479 129.635 67.2042 129.905 67.3961L130.079 67.1504C129.854 66.9903 129.674 66.7746 129.54 66.4994L129.269 66.6311ZM129.907 67.3973C130.181 67.5854 130.498 67.7202 130.858 67.8039L130.926 67.5106C130.598 67.4343 130.316 67.3131 130.078 67.1492L129.907 67.3973ZM130.861 67.8047C131.217 67.879 131.595 67.9158 131.996 67.9158V67.6147C131.614 67.6147 131.256 67.5795 130.923 67.5098L130.861 67.8047ZM131.996 67.9158C132.235 67.9158 132.491 67.8818 132.764 67.8156L132.693 67.5229C132.438 67.5847 132.206 67.6147 131.996 67.6147V67.9158ZM132.764 67.8156C133.042 67.7481 133.301 67.6423 133.538 67.498L133.382 67.2405C133.172 67.3682 132.942 67.4624 132.693 67.5229L132.764 67.8156ZM133.54 67.4972C133.788 67.3429 133.995 67.149 134.16 66.9159L133.913 66.7426C133.773 66.9415 133.596 67.1076 133.381 67.2413L133.54 67.4972ZM134.161 66.9138C134.332 66.6612 134.415 66.3627 134.415 66.0252H134.114C134.114 66.3118 134.044 66.5493 133.912 66.7447L134.161 66.9138ZM134.415 66.0252C134.415 65.761 134.353 65.524 134.223 65.3204L133.969 65.4821C134.064 65.6305 134.114 65.8095 134.114 66.0252H134.415ZM134.226 65.3246C134.11 65.1288 133.955 64.9647 133.761 64.8328L133.592 65.0817C133.75 65.1898 133.874 65.3217 133.967 65.4779L134.226 65.3246ZM133.764 64.8347C133.583 64.7058 133.382 64.6033 133.162 64.5269L133.063 64.8116C133.258 64.8792 133.433 64.9687 133.589 65.0798L133.764 64.8347ZM133.166 64.5287C132.953 64.4465 132.742 64.3805 132.535 64.3308L132.465 64.6237C132.658 64.67 132.856 64.732 133.058 64.8098L133.166 64.5287ZM132.536 64.331L130.628 63.863L130.556 64.1555L132.464 64.6235L132.536 64.331ZM130.63 63.8634C130.388 63.8011 130.15 63.7231 129.916 63.6294L129.804 63.9091C130.05 64.0074 130.3 64.0894 130.555 64.1551L130.63 63.8634ZM129.918 63.6301C129.701 63.5404 129.512 63.4215 129.35 63.2738L129.147 63.4967C129.337 63.669 129.556 63.8061 129.803 63.9084L129.918 63.6301ZM129.35 63.2738C129.189 63.1278 129.056 62.9479 128.952 62.7318L128.681 62.8627C128.8 63.1106 128.956 63.3227 129.147 63.4967L129.35 63.2738ZM128.954 62.7356C128.861 62.5282 128.811 62.2665 128.811 61.9453H128.51C128.51 62.296 128.564 62.6023 128.679 62.8589L128.954 62.7356ZM128.811 61.9453C128.811 61.7556 128.848 61.5261 128.925 61.2546L128.636 61.1719C128.553 61.4604 128.51 61.7189 128.51 61.9453H128.811ZM128.925 61.2546C128.998 60.9985 129.135 60.7537 129.338 60.5202L129.111 60.3223C128.882 60.5848 128.722 60.868 128.636 61.1719L128.925 61.2546ZM129.336 60.5222C129.543 60.2935 129.827 60.0968 130.197 59.9352L130.076 59.6593C129.677 59.8337 129.354 60.053 129.113 60.3203L129.336 60.5222ZM130.199 59.9342C130.557 59.7701 131.026 59.6838 131.612 59.6838V59.3827C130.999 59.3827 130.484 59.4724 130.074 59.6603L130.199 59.9342ZM131.612 59.6838C132.023 59.6838 132.413 59.738 132.782 59.8458L132.867 59.5567C132.468 59.4404 132.05 59.3827 131.612 59.3827V59.6838ZM132.782 59.8458C133.15 59.953 133.468 60.1129 133.74 60.3241L133.925 60.0864C133.62 59.8496 133.267 59.6735 132.867 59.5567L132.782 59.8458ZM133.74 60.3241C134.01 60.5339 134.223 60.7961 134.382 61.1126L134.651 60.9779C134.473 60.6224 134.231 60.3246 133.925 60.0864L133.74 60.3241ZM134.384 61.1165C134.546 61.4189 134.63 61.7776 134.63 62.1972H134.931C134.931 61.7369 134.839 61.3276 134.649 60.974L134.384 61.1165ZM134.78 62.0467H133.964V62.3478H134.78V62.0467ZM134.115 62.1899C134.098 61.8428 134.017 61.535 133.867 61.271L133.605 61.4195C133.728 61.6355 133.799 61.8957 133.814 62.2046L134.115 62.1899ZM133.87 61.2762C133.732 61.0085 133.545 60.7865 133.31 60.6122L133.131 60.8543C133.327 61 133.485 61.186 133.603 61.4143L133.87 61.2762ZM133.315 60.6161C133.09 60.4343 132.827 60.3015 132.53 60.2164L132.447 60.5061C132.709 60.581 132.935 60.6962 133.126 60.8504L133.315 60.6161ZM132.535 60.218C132.247 60.1248 131.943 60.0787 131.624 60.0787V60.3798C131.914 60.3798 132.186 60.4217 132.442 60.5045L132.535 60.218ZM131.624 60.0787C131.333 60.0787 131.049 60.112 130.773 60.1789L130.844 60.4716C131.096 60.4105 131.356 60.3798 131.624 60.3798V60.0787ZM130.776 60.1781C130.503 60.2379 130.257 60.341 130.04 60.4887L130.209 60.7378C130.392 60.6135 130.602 60.5246 130.841 60.4724L130.776 60.1781ZM130.041 60.4879C129.827 60.6302 129.656 60.8207 129.525 61.0561L129.788 61.2024C129.897 61.0058 130.037 60.8523 130.208 60.7386L130.041 60.4879ZM129.525 61.0561C129.389 61.3001 129.326 61.595 129.326 61.9332H129.627C129.627 61.6315 129.684 61.3904 129.788 61.2024L129.525 61.0561ZM129.326 61.9332C129.326 62.1492 129.36 62.3457 129.434 62.5197L129.711 62.4028C129.656 62.2728 129.627 62.1173 129.627 61.9332H129.326ZM129.438 62.5286C129.518 62.6901 129.627 62.8299 129.762 62.9471L129.959 62.7194C129.854 62.6286 129.77 62.5204 129.707 62.3939L129.438 62.5286ZM129.762 62.9471C129.894 63.0618 130.044 63.1541 130.21 63.224L130.327 62.9465C130.189 62.8884 130.067 62.8127 129.959 62.7194L129.762 62.9471ZM130.212 63.2251C130.38 63.2921 130.556 63.3464 130.739 63.3881L130.806 63.0944C130.637 63.0561 130.477 63.0064 130.324 62.9454L130.212 63.2251ZM130.736 63.3874L132.824 63.9034L132.896 63.6111L130.808 63.0951L130.736 63.3874ZM132.822 63.9029C133.118 63.9809 133.394 64.0781 133.65 64.1943L133.775 63.9202C133.502 63.7964 133.21 63.6936 132.899 63.6116L132.822 63.9029ZM133.655 64.1965C133.913 64.3028 134.135 64.4384 134.321 64.6023L134.52 64.3762C134.306 64.1881 134.055 64.0357 133.77 63.918L133.655 64.1965ZM134.326 64.6064C134.515 64.7593 134.661 64.9483 134.763 65.1752L135.038 65.0513C134.916 64.7822 134.742 64.5552 134.515 64.3721L134.326 64.6064ZM134.765 65.1788C134.873 65.4015 134.93 65.6779 134.93 66.0132H135.231C135.231 65.6446 135.168 65.321 135.036 65.0477L134.765 65.1788ZM134.93 66.0132C134.93 66.0984 134.919 66.218 134.895 66.3749L135.193 66.4196C135.218 66.2565 135.231 66.1201 135.231 66.0132H134.93ZM134.894 66.3823C134.88 66.5234 134.837 66.6801 134.762 66.8532L135.038 66.9733C135.123 66.7784 135.176 66.5911 135.194 66.4122L134.894 66.3823ZM134.761 66.8562C134.695 67.0169 134.595 67.185 134.458 67.3604L134.695 67.5461C134.846 67.3535 134.961 67.1616 135.04 66.9703L134.761 66.8562ZM134.455 67.3637C134.333 67.5286 134.157 67.6843 133.922 67.8289L134.079 68.0856C134.339 67.9262 134.547 67.7459 134.697 67.5428L134.455 67.3637ZM133.923 67.8281C133.699 67.9623 133.414 68.0735 133.065 68.159L133.136 68.4515C133.506 68.361 133.821 68.2402 134.078 68.0864L133.923 67.8281ZM133.062 68.1597C132.718 68.2514 132.3 68.2987 131.804 68.2987V68.5998C132.317 68.5998 132.763 68.5511 133.139 68.4508L133.062 68.1597ZM131.804 68.2987C131.311 68.2987 130.856 68.2439 130.438 68.1355L130.363 68.427C130.808 68.5426 131.289 68.5998 131.804 68.5998V68.2987ZM130.441 68.1361C130.025 68.0207 129.676 67.8489 129.39 67.6231L129.203 67.8594C129.525 68.1136 129.912 68.3018 130.36 68.4264L130.441 68.1361ZM129.39 67.6231C129.106 67.3991 128.885 67.111 128.726 66.7558L128.451 66.8787C128.628 67.2755 128.879 67.6034 129.203 67.8594L129.39 67.6231ZM128.727 66.7583C128.578 66.4082 128.512 65.9799 128.535 65.4681L128.234 65.4544C128.209 65.9986 128.279 66.4743 128.45 66.8762L128.727 66.7583ZM128.384 65.6118H129.2V65.3107H128.384V65.6118ZM136.663 59.7132V59.5627H136.512V59.7132H136.663ZM143.443 59.7132H143.594V59.5627H143.443V59.7132ZM143.443 60.4092V60.5598H143.594V60.4092H143.443ZM140.455 60.4092V60.2587H140.304V60.4092H140.455ZM140.455 68.2812V68.4318H140.606V68.2812H140.455ZM139.639 68.2812H139.488V68.4318H139.639V68.2812ZM139.639 60.4092H139.79V60.2587H139.639V60.4092ZM136.663 60.4092H136.512V60.5598H136.663V60.4092ZM136.663 59.8638H143.443V59.5627H136.663V59.8638ZM143.292 59.7132V60.4092H143.594V59.7132H143.292ZM143.443 60.2587H140.455V60.5598H143.443V60.2587ZM140.304 60.4092V68.2812H140.606V60.4092H140.304ZM140.455 68.1307H139.639V68.4318H140.455V68.1307ZM139.79 68.2812V60.4092H139.488V68.2812H139.79ZM139.639 60.2587H136.663V60.5598H139.639V60.2587ZM136.814 60.4092V59.7132H136.512V60.4092H136.814Z" fill="#B4B4B4"/>
<rect width="84.3228" height="84.3228" rx="4" fill="#242424"/>
<path d="M71.4345 53.1248H13.4902V49.0078H71.4345V53.1248ZM14.3817 52.2452H70.5431V49.8874H14.3817V52.2452Z" fill="white"/>
<path d="M22.573 49.7383L22.0154 49.0996C20.0758 46.8737 17.9051 44.3831 15.4889 42.6201C15.8802 44.8332 16.0473 47.5046 16.0699 49.4458L15.1785 49.4561C15.1537 47.3336 14.9356 44.0391 14.402 41.7384L14.1582 40.6875L15.0775 41.2707C17.9643 43.1016 20.4758 45.9834 22.6914 48.5258L23.2477 49.1636L22.573 49.7383Z" fill="white"/>
<path d="M24.7526 44.9683C21.256 43.4738 17.6232 42.4198 14.7852 42.0758L14.894 41.2031C17.813 41.5566 21.5355 42.635 25.1069 44.1609L24.7526 44.9683Z" fill="white"/>
<path d="M17.486 42.1806L16.6816 41.8018C20.4015 34.1047 23.8894 29.6339 27.6589 27.7317L28.7223 27.1953L28.2749 28.2879C27.2389 30.8197 26.7157 38.5859 26.7823 41.0536L25.8908 41.0768C25.839 39.1425 26.1964 32.5088 27.0896 29.0764C23.8899 31.1473 20.738 35.4515 17.486 42.1806Z" fill="white"/>
<path d="M26.9222 37.7624L26.0664 37.5176C27.3265 33.2319 34.3132 21.0408 39.8156 18.1565L42.2744 16.8672L40.3462 18.8492C37.8507 21.414 36.2763 25.5666 35.1272 28.5983C34.9143 29.1592 34.7171 29.6789 34.533 30.1384L33.7042 29.8154C33.8866 29.3598 34.0816 28.8457 34.2919 28.2904C35.142 26.0481 36.2193 23.2071 37.7406 20.7861C33.0361 25.1724 27.9338 34.3232 26.9222 37.7624Z" fill="white"/>
<path d="M24.3671 49.4107L23.4766 49.3651C23.9253 40.8371 32.1556 30.4622 37.5765 26.1361L37.9039 25.875L38.4258 26.4406C39.0561 27.1209 39.5118 27.6127 40.0424 28.5403L39.2659 28.9724C38.7975 28.1529 38.4005 27.7174 37.8129 27.0831C32.5195 31.4539 24.7928 41.3168 24.3671 49.4107Z" fill="white"/>
<path d="M38.6866 49.6358C37.0365 46.1343 35.9692 44.1544 31.8745 41.49C28.935 43.2268 26.8566 46.8541 25.6204 49.6272L24.8047 49.2733C26.1279 46.3044 28.394 42.3876 31.673 40.5894L31.9071 40.4609L32.1317 40.6048C36.6112 43.4703 37.7925 45.6533 39.4953 49.2647L38.6866 49.6358Z" fill="white"/>
<path d="M61.7352 49.7383L61.0605 49.1636L61.6168 48.5258C63.8324 45.9834 66.344 43.1016 69.2307 41.2707L70.15 40.6875L69.9063 41.7384C69.3726 44.0391 69.1546 47.3336 69.1297 49.4561L68.2383 49.4458C68.2609 47.5046 68.4281 44.8332 68.8194 42.6201C66.4032 44.3831 64.2324 46.8737 62.2928 49.0996L61.7352 49.7383Z" fill="white"/>
<path d="M59.5574 44.9683L59.2031 44.1609C62.7746 42.635 66.4971 41.5566 69.4161 41.2031L69.5249 42.0758C66.6869 42.4198 63.054 43.4738 59.5574 44.9683Z" fill="white"/>
<path d="M66.8242 42.1818C63.7824 35.8878 60.5623 31.6382 57.238 29.5256C58.2192 32.9657 59.0423 39.7681 58.9857 41.8855L58.0942 41.8623C58.1547 39.5963 57.114 31.3693 56.0354 28.7336L55.5879 27.6406L56.6513 28.177C60.5057 30.1221 64.199 34.7063 67.6286 41.803L66.8242 42.1818Z" fill="white"/>
<path d="M57.7241 36.8739C56.7056 33.411 51.363 24.9095 46.581 20.7247C48.6312 23.7727 50.129 27.5122 51.0296 29.76L50.2099 30.1066L50.2003 30.083C49.0538 27.2214 46.9201 21.8942 43.9576 18.8492L42.0293 16.8672L44.4882 18.1565C49.9871 21.0391 57.3111 32.3137 58.5799 36.6291L57.7241 36.8739Z" fill="white"/>
<path d="M60.1277 49.3935C59.6976 41.2232 52.1025 31.4217 46.8809 27.0909C46.3381 27.8089 46.093 28.2363 45.6303 29.0424C45.5145 29.2443 45.3857 29.4689 45.2359 29.7266L44.4629 29.2885C44.6118 29.0325 44.7397 28.8096 44.8546 28.6091C45.3944 27.6685 45.6651 27.1961 46.4543 26.1911L46.7333 25.8359L47.0872 26.1185C52.4368 30.3884 60.5639 40.7237 61.0183 49.348L60.1277 49.3935Z" fill="white"/>
<path d="M37.0114 45.0663L36.127 44.9538C36.2214 44.2331 38.4788 27.256 41.8604 22.3815L42.2335 21.8438L42.5991 22.3862C45.3888 26.5212 47.6479 40.0041 48.283 44.8503L47.3985 44.9628C46.8 40.3923 44.7516 28.0668 42.2235 23.4775C39.7798 27.8152 37.7636 39.3264 37.0114 45.0663Z" fill="white"/>
<path d="M45.6232 49.6358L44.8145 49.2647C46.5173 45.6533 47.6986 43.4703 52.1781 40.6048L52.4027 40.4609L52.6368 40.5894C55.9158 42.3876 58.1819 46.3044 59.5051 49.2733L58.6894 49.6272C57.4532 46.8541 55.3747 43.2268 52.4353 41.49C48.3406 44.1544 47.2733 46.1343 45.6232 49.6358Z" fill="white"/>
<path d="M17.0073 67.3438H15.1473L17.4033 58.9437H19.4433L19.8873 63.9957H19.9353L20.1033 63.1197L21.1593 58.9437H23.0193L20.7753 67.3438H18.7833L18.3033 62.2917H18.2673L18.0753 63.1797L17.0073 67.3438ZM26.7549 67.3438H22.0989L24.3549 58.9437H28.9269L28.5189 60.4797H25.8909L25.4469 62.2077H27.6789L27.2829 63.6477H25.0509L24.4749 65.8077H27.1629L26.7549 67.3438ZM31.4412 67.3438H29.0652L29.8932 58.9437H31.8492L30.9732 64.7757L30.8772 65.2557H30.9012L33.3012 58.9437H35.3892L34.5252 64.5597L34.4172 65.2557H34.4412L34.6092 64.7757L36.8412 58.9437H38.7972L35.1612 67.3438H32.7732L33.5172 62.2197L33.6252 61.7397H33.5892L33.4212 62.2197L31.4412 67.3438ZM43.3473 67.3438H40.5512L42.8073 58.9437H45.3273C47.0673 58.9437 47.6913 60.0117 47.2113 61.8357L46.4913 64.4637C46.0113 66.2877 45.0993 67.3438 43.3473 67.3438ZM44.3433 60.4797L42.9273 65.8077H43.4433C44.0312 65.8077 44.2953 65.3877 44.5353 64.4757L45.2553 61.7757C45.4833 60.9477 45.4593 60.4797 44.8593 60.4797H44.3433ZM51.608 67.3438H46.952L49.208 58.9437H53.78L53.372 60.4797H50.744L50.3 62.2077H52.532L52.136 63.6477H49.904L49.328 65.8077H52.016L51.608 67.3438ZM57.5663 65.8077L57.1463 67.3438H52.7903L55.0463 58.9437H57.0023L55.1663 65.8077H57.5663ZM62.7078 62.3277L63.6078 58.9437H65.5638L63.3198 67.3438H61.3638L62.2878 63.8637H61.0518L60.1158 67.3438H58.1598L60.4158 58.9437H62.3718L61.4598 62.3277H62.7078ZM66.5987 67.3438H64.6427L66.8987 58.9437H68.8547L66.5987 67.3438Z" fill="#EA337D"/>
</svg>
