<svg width="51" height="50" viewBox="0 0 51 50" fill="none" xmlns="http://www.w3.org/2000/svg">
<path d="M25.3369 50C39.1488 50 50.3456 38.8071 50.3456 25C50.3456 11.1929 39.1488 0 25.3369 0C11.5249 0 0.328125 11.1929 0.328125 25C0.328125 38.8071 11.5249 50 25.3369 50Z" fill="#1E1F20"/>
<path d="M32.7682 18.33C31.4382 17.71 29.9982 17.26 28.4982 17C28.485 16.9996 28.4719 17.0021 28.4598 17.0073C28.4477 17.0125 28.4369 17.0202 28.4282 17.03C28.2482 17.36 28.0382 17.79 27.8982 18.12C26.3072 17.88 24.6892 17.88 23.0982 18.12C22.9582 17.78 22.7482 17.36 22.5582 17.03C22.5482 17.01 22.5182 17 22.4882 17C20.9882 17.26 19.5582 17.71 18.2182 18.33C18.2082 18.33 18.1982 18.34 18.1882 18.35C15.4682 22.42 14.7182 26.38 15.0882 30.3C15.0882 30.32 15.0982 30.34 15.1182 30.35C16.9182 31.67 18.6482 32.47 20.3582 33C20.3882 33.01 20.4182 33 20.4282 32.98C20.8282 32.43 21.1882 31.85 21.4982 31.24C21.5182 31.2 21.4982 31.16 21.4582 31.15C20.8882 30.93 20.3482 30.67 19.8182 30.37C19.7782 30.35 19.7782 30.29 19.8082 30.26C19.9182 30.18 20.0282 30.09 20.1382 30.01C20.1582 29.99 20.1882 29.99 20.2082 30C23.6482 31.57 27.3582 31.57 30.7582 30C30.7782 29.99 30.8082 29.99 30.8282 30.01C30.9382 30.1 31.0482 30.18 31.1582 30.27C31.1982 30.3 31.1982 30.36 31.1482 30.38C30.6282 30.69 30.0782 30.94 29.5082 31.16C29.4682 31.17 29.4582 31.22 29.4682 31.25C29.7882 31.86 30.1482 32.44 30.5382 32.99C30.5682 33 30.5982 33.01 30.6282 33C32.3482 32.47 34.0782 31.67 35.8782 30.35C35.8982 30.34 35.9082 30.32 35.9082 30.3C36.3482 25.77 35.1782 21.84 32.8082 18.35C32.7982 18.34 32.7882 18.33 32.7682 18.33ZM22.0182 27.91C20.9882 27.91 20.1282 26.96 20.1282 25.79C20.1282 24.62 20.9682 23.67 22.0182 23.67C23.0782 23.67 23.9182 24.63 23.9082 25.79C23.9082 26.96 23.0682 27.91 22.0182 27.91ZM28.9882 27.91C27.9582 27.91 27.0982 26.96 27.0982 25.79C27.0982 24.62 27.9382 23.67 28.9882 23.67C30.0482 23.67 30.8882 24.63 30.8782 25.79C30.8782 26.96 30.0482 27.91 28.9882 27.91Z" fill="white"/>
</svg>
