<svg width="51" height="50" viewBox="0 0 51 50" fill="none" xmlns="http://www.w3.org/2000/svg">
<path d="M25.0088 50C38.8207 50 50.0175 38.8071 50.0175 25C50.0175 11.1929 38.8207 0 25.0088 0C11.1968 0 0 11.1929 0 25C0 38.8071 11.1968 50 25.0088 50Z" fill="#B4B4B4" fill-opacity="0.2"/>
<path d="M33.4832 17.5075C31.9944 16.8032 30.4024 16.2914 28.7381 16C28.5337 16.3736 28.2949 16.8761 28.1303 17.2759C26.3611 17.0069 24.6081 17.0069 22.8714 17.2759C22.7068 16.8761 22.4626 16.3736 22.2564 16C20.5903 16.2914 18.9965 16.8051 17.5077 17.5112C14.5047 22.099 13.6906 26.5729 14.0977 30.9832C16.0894 32.4869 18.0196 33.4004 19.9173 33.9982C20.3858 33.3462 20.8037 32.6532 21.1637 31.9228C20.4781 31.6594 19.8214 31.3344 19.2009 30.9571C19.3656 30.8338 19.5266 30.7049 19.6821 30.5722C23.4666 32.3618 27.5785 32.3618 31.3178 30.5722C31.4752 30.7049 31.6362 30.8338 31.799 30.9571C31.1767 31.3362 30.5182 31.6613 29.8326 31.9247C30.1926 32.6532 30.6087 33.3481 31.079 34C32.9785 33.4022 34.9105 32.4888 36.9022 30.9832C37.3798 25.8705 36.0864 21.4377 33.4832 17.5075ZM21.6793 28.2709C20.5432 28.2709 19.6116 27.1986 19.6116 25.8929C19.6116 24.5872 20.5233 23.5131 21.6793 23.5131C22.8353 23.5131 23.7669 24.5853 23.747 25.8929C23.7488 27.1986 22.8353 28.2709 21.6793 28.2709ZM29.3206 28.2709C28.1846 28.2709 27.2529 27.1986 27.2529 25.8929C27.2529 24.5872 28.1646 23.5131 29.3206 23.5131C30.4766 23.5131 31.4082 24.5853 31.3883 25.8929C31.3883 27.1986 30.4766 28.2709 29.3206 28.2709Z" fill="#EA337D"/>
</svg>
