<svg width="61" height="47" viewBox="0 0 61 47" fill="none" xmlns="http://www.w3.org/2000/svg">
<path d="M51.1892 4.73102C47.3312 2.92598 43.2061 1.61415 38.8934 0.867188C38.3638 1.82477 37.745 3.11274 37.3184 4.13732C32.7339 3.44787 28.1916 3.44787 23.6914 4.13732C23.2648 3.11274 22.632 1.82477 22.0976 0.867188C17.7803 1.61415 13.6504 2.9308 9.79246 4.74058C2.01093 16.4995 -0.09851 27.9663 0.956214 39.2703C6.11733 43.1245 11.1191 45.4658 16.0364 46.9979C17.2505 45.327 18.3334 43.5507 19.2662 41.6786C17.4896 41.0036 15.788 40.1705 14.1801 39.2033C14.6067 38.8873 15.0239 38.5569 15.427 38.217C25.2336 42.8038 35.8887 42.8038 45.5781 38.217C45.9859 38.5569 46.4031 38.8873 46.825 39.2033C45.2124 40.1752 43.5061 41.0083 41.7295 41.6835C42.6623 43.5507 43.7405 45.3318 44.9593 47.0027C49.8814 45.4706 54.8878 43.1293 60.0489 39.2703C61.2864 26.1661 57.9348 14.8046 51.1892 4.73102ZM20.6022 32.3185C17.6584 32.3185 15.2442 29.5702 15.2442 26.2235C15.2442 22.8769 17.6068 20.1239 20.6022 20.1239C23.5977 20.1239 26.0118 22.872 25.9602 26.2235C25.9649 29.5702 23.5977 32.3185 20.6022 32.3185ZM40.4029 32.3185C37.4591 32.3185 35.0449 29.5702 35.0449 26.2235C35.0449 22.8769 37.4074 20.1239 40.4029 20.1239C43.3983 20.1239 45.8125 22.872 45.7609 26.2235C45.7609 29.5702 43.3983 32.3185 40.4029 32.3185Z" fill="white"/>
</svg>
