<svg width="67" height="75" viewBox="0 0 67 75" fill="none" xmlns="http://www.w3.org/2000/svg">
<path d="M6.02992 63.7364C-0.106357 63.6827 0.0188735 63.5933 0.000983514 63.8795C-0.0347965 64.2731 0.752363 63.969 0.931264 64.613C0.949154 65.1855 0.895484 72.4667 0.895484 72.914C0.895484 72.9677 0.841813 73.236 0.519793 73.397C0.430343 73.4507 0.376674 73.5401 0.412454 73.6475C0.430344 73.7369 0.519794 73.8085 0.627134 73.8085H0.680804C1.62898 73.8085 2.89917 73.8264 3.63266 73.9695C4.15147 74.0589 4.65239 74.1126 5.11753 74.1126C8.82076 74.1126 10.7708 71.3576 10.7887 68.6204C10.8065 66.2947 9.32168 63.7722 6.02992 63.7364ZM2.79183 64.5772C9.32168 64.1658 9.42902 68.9782 8.44507 71.3397C7.92626 72.5741 6.11937 73.3076 4.68817 73.3076C3.79367 73.3076 3.13173 73.0392 2.84549 72.5383L2.79183 64.5772Z" fill="#1D1D1B"/>
<path d="M14.6882 68.8536C14.6882 72.2885 17.5685 74.0954 20.4309 74.0954C23.186 74.0954 26.1378 72.1812 26.1378 68.6211C26.1378 61.8229 14.6882 61.644 14.6882 68.8536ZM16.7456 68.8357C16.7456 66.3133 17.4969 64.2917 20.091 64.2917C22.1305 64.2917 24.0089 66.349 24.0089 68.6032C24.0447 70.6247 23.5974 73.0936 21.1465 73.3261C18.6061 73.3082 17.1213 71.7876 16.7456 68.8357Z" fill="#1D1D1B"/>
<path d="M38.5173 63.5925C38.2848 63.664 38.0164 63.7177 37.8375 63.7177C37.6586 63.7177 30.9141 63.6998 30.5026 63.6998C30.2164 63.5567 29.787 63.3778 29.7155 63.6819L29.4292 64.9163C29.4113 65.0237 29.465 65.131 29.5545 65.1668C29.6618 65.2026 29.7691 65.1668 29.8228 65.0774C29.948 64.8985 30.1269 64.7553 30.3774 64.6659C31.0214 64.648 32.7747 64.6301 33.1682 64.6301L33.1325 72.9668C33.1325 72.9847 33.1146 73.271 32.8462 73.432C32.6494 73.5393 32.7389 73.8435 32.9714 73.8435L35.3687 73.8256C35.6013 73.8256 35.6728 73.5035 35.476 73.4141C35.2793 73.3246 35.1719 73.1815 35.154 72.9847C35.1361 72.5912 35.0825 65.9897 35.0646 64.6301L37.5155 64.6838C37.5334 64.6838 38.0522 64.7196 38.2311 65.2205C38.2669 65.3278 38.3742 65.3815 38.4816 65.3636C38.7141 65.3278 38.6784 65.1668 38.7141 64.1292C38.7678 64.0218 38.8036 63.8608 38.7857 63.7535C38.7857 63.6462 38.6426 63.5567 38.5173 63.5925Z" fill="#1D1D1B"/>
<path d="M52.2037 70.7849C51.5954 70.767 50.3431 70.767 50.0748 70.767C50.0748 70.7491 47.0514 63.4857 47.0514 63.4857C46.9619 63.3068 46.7115 63.3068 46.6399 63.4857L42.7041 72.9138C42.7041 72.9138 42.5252 73.2537 42.0958 73.4505C41.8811 73.5578 41.9527 73.8619 42.1853 73.8619C42.2032 73.8619 43.9743 73.8619 43.9743 73.8619C44.2247 73.8619 44.2784 73.522 44.0458 73.4326C43.9206 73.3789 43.8669 73.2895 43.9027 73.1463C44.0279 72.717 44.3679 71.8046 44.4394 71.5899L48.3573 71.6078L49.1266 73.3968C49.1266 73.3968 49.1445 73.4326 49.1087 73.4684C48.9835 73.6115 49.0729 73.8262 49.2697 73.8441C49.2876 73.8441 51.506 73.8798 51.506 73.8798C51.6312 73.8798 51.7385 73.7725 51.7385 73.6652C51.7385 73.5757 51.667 73.4863 51.5775 73.4505C51.2913 73.3074 51.1661 73.1821 50.3968 71.6078C51.0587 71.6257 51.2018 71.3216 52.1858 71.1963C52.311 71.1784 52.3826 71.089 52.3826 70.9638C52.4184 70.8743 52.311 70.7849 52.2037 70.7849ZM46.4789 66.4913L48.0532 70.767L44.7614 70.8028L46.4789 66.4913Z" fill="#1D1D1B"/>
<path d="M66.2131 71.5707C65.9984 72.0358 65.7301 72.4831 65.0681 72.5188C64.7282 72.5367 62.8677 72.6083 61.7048 72.5904C68.6819 67.4023 66.8214 63.4844 62.6709 63.4844C61.7585 63.4844 60.8461 63.6991 60.1484 64.0747C60.0768 64.1105 60.041 64.1821 60.041 64.2536C60.0232 64.4862 60.0768 64.9692 60.1842 65.667C60.2021 65.7743 60.2736 65.8459 60.381 65.8459C60.4883 65.8459 60.5778 65.7922 60.6135 65.7027C61.0071 64.6115 61.8301 64.2179 62.4383 64.2179C63.3328 64.2179 64.2631 64.9692 64.3168 66.3826C64.442 69.5491 60.4883 72.5367 59.6117 73.3597C59.4686 73.4849 59.3433 73.628 59.4686 73.7711C59.4686 74.0395 59.8264 74.0753 59.8979 73.8606C60.6493 73.8606 64.7819 73.8248 65.5512 73.8427C66.1058 73.8785 66.3741 73.5743 66.392 73.2165L66.6604 71.7138C66.6782 71.4454 66.3204 71.3381 66.2131 71.5707Z" fill="#1D1D1B"/>
<path d="M62.6889 13.3058C62.4563 2.64335 62.4384 4.95117 62.671 1.62362C62.6889 1.42683 62.5279 1.24793 62.3311 1.24793C46.0333 0.156642 45.425 0.0314118 44.1548 0.0314118C21.9354 0.0314118 33.5997 -0.326388 3.93806 1.37316C3.74127 1.39105 3.58026 1.55206 3.59815 1.74885C5.51239 37.511 5.44082 31.6788 4.45687 55.5083C4.45687 55.6872 4.56421 55.8304 4.74311 55.8661C6.96148 56.3849 6.5679 56.1703 11.756 56.1882L21.4703 55.1505C21.5239 55.1505 34.8878 57.2973 34.9236 57.2973C34.9415 57.2973 34.9415 57.2973 34.9593 57.2973C50.6131 56.0093 46.1406 56.3313 56.2306 55.7767L62.17 56.9395C62.4026 56.9932 62.6173 56.8143 62.6173 56.5817C62.4563 44.9532 62.6889 13.3058 62.6889 13.3058ZM38.591 12.4471C38.6268 12.4292 38.6984 12.4292 38.7699 12.3934L42.992 11.4631C45.1566 10.9264 45.4787 10.8012 47.3213 9.96037C48.1801 10.2466 50.5237 11.5168 51.114 12.2324C51.5076 12.7154 51.4718 12.8228 51.3645 13.3416C51.3466 13.4489 51.3108 13.5563 51.2929 13.6815C51.2929 13.6815 51.2929 13.6994 51.2929 13.7173L50.3626 20.8017C49.4502 20.8375 49.3608 20.7659 49.1103 20.5334C49.003 20.4439 48.8778 20.3187 48.6452 20.1756C47.2498 19.2632 42.6699 15.9714 41.2387 14.8265L38.3942 12.6081L38.4121 12.5902C38.4479 12.5544 38.4658 12.5186 38.4837 12.4829C38.5016 12.465 38.5731 12.465 38.591 12.4471ZM45.1745 48.1198C45.0851 48.0303 9.68076 11.4452 9.66287 11.3916L12.7578 9.08376L55.9801 36.9922C55.6223 37.994 55.4792 39.139 55.2645 40.0871C54.5131 43.4505 53.5292 44.9174 52.0085 48.1019C49.8259 48.1913 45.3355 48.1734 45.1745 48.1198ZM12.9725 38.2266C13.3661 37.2963 13.9207 35.7935 14.3858 35.0422C16.64 36.4197 25.4776 45.0785 26.2469 46.2413C25.8175 46.4023 23.9928 46.6528 20.9515 47.8335C19.0193 48.5849 17.2125 49.2826 15.4592 48.7101C15.2803 48.6565 14.8152 48.2629 14.1175 47.6904C12.8473 46.6349 11.7023 45.8656 11.0404 45.472C9.91333 44.8101 10.0922 44.9532 12.9725 38.2266Z" fill="#1D1D1B"/>
<path d="M8.10644 38.2947C7.83809 24.3583 8.14222 31.9437 6.49634 1.22656L3.93806 1.36968C3.74127 1.38757 3.58026 1.54858 3.59815 1.74537L4.95779 27.2565C5.22614 40.8887 5.2977 34.9135 4.45687 55.5049C4.45687 55.6838 4.56421 55.8269 4.74311 55.8627C5.99541 56.1489 6.51423 56.2205 7.39084 56.2205C7.35506 56.131 7.31928 57.1507 8.10644 38.2947Z" fill="#1D1D1B"/>
<path d="M28.0697 47.014C28.0697 47.014 29.5724 46.5131 28.338 45.1892C23.3109 39.7149 20.2518 37.747 17.3357 34.6341C16.1192 33.346 14.3659 35.0277 14.3659 35.0277C25.744 44.8851 23.4541 43.4539 25.4756 45.3502C25.744 45.6007 25.9587 45.7975 26.227 46.2268C26.1733 46.2447 25.9408 46.2984 25.6188 46.3878C20.8779 47.5507 20.1802 48.3378 18.0692 48.7851C20.0371 50.3594 23.5256 48.4452 25.9944 47.6044C26.6027 47.4076 27.3899 47.1929 28.0697 47.014Z" fill="#1D1D1B"/>
<path d="M58.1442 34.0941L16.8183 8.40405C15.4408 7.54533 13.938 7.9568 12.7573 9.10176L55.9795 37.0102C55.6217 38.012 55.4786 39.157 55.2639 40.1052C54.5125 43.4685 53.5286 44.9355 52.0079 48.1199C52.0079 48.1199 55.9258 48.8534 57.1245 46.2772C59.9332 40.463 59.2713 39.3717 59.9511 37.529C59.8616 36.4735 60.0048 35.257 58.1442 34.0941Z" fill="#1D1D1B"/>
<path d="M51.2922 13.7014C51.2922 13.7014 51.2922 13.7192 51.2922 13.7371L50.3619 20.8216C50.3619 20.8216 54.0294 23.0399 54.4945 19.3904L55.2459 13.3972C55.2459 13.3793 55.2459 13.3793 55.2459 13.3614C55.2817 13.2183 55.2996 13.111 55.3354 13.0036C55.4606 12.4848 55.4964 12.3596 55.0849 11.8766C54.6555 11.3578 52.7771 9.99813 51.3638 9.12152C50.0399 8.24491 48.4477 9.30042 48.4477 9.30042C48.0541 9.58666 47.6963 9.85501 47.3206 9.96235C48.2867 10.4633 50.7376 11.7692 51.1133 12.2344C51.5069 12.7174 51.4711 12.8247 51.3638 13.3436C51.3459 13.4509 51.328 13.5582 51.2922 13.7014Z" fill="#1D1D1B"/>
</svg>
