<?xml version="1.0" encoding="utf-8"?>
<!-- Generator: Adobe Illustrator 27.8.0, SVG Export Plug-In . SVG Version: 6.00 Build 0)  -->
<svg version="1.1" id="Layer_1" xmlns="http://www.w3.org/2000/svg" xmlns:xlink="http://www.w3.org/1999/xlink" x="0px" y="0px"
	 viewBox="0 0 3714 1552" style="enable-background:new 0 0 3714 1552;" xml:space="preserve">
<style type="text/css">
	.st0{fill-rule:evenodd;clip-rule:evenodd;}
	.st1{fill:none;stroke:#070304;stroke-width:1.0121;stroke-miterlimit:10;stroke-opacity:0.5;}
</style>
<g>
	<path d="M2931.1,1311.6h-161.9V935.7h161.9c23.3,0.4,42.7,3,58.1,8.2c26.4,8.7,47.7,24.6,64,47.7c13.1,18.7,22,38.9,26.8,60.7
		c4.8,21.8,7.1,42.5,7.1,62.2c0,50-10.1,92.3-30.1,127C3029.9,1288.2,2987.8,1311.6,2931.1,1311.6L2931.1,1311.6z M2989.4,1031.6
		c-12.1-20.4-36-30.6-71.6-30.6h-72.4v245.3h72.4c37.1,0,62.9-18.3,77.5-54.8c8-20.1,12-43.9,12-71.7
		C3007.3,1081.6,3001.3,1052.1,2989.4,1031.6z"/>
	<path d="M3229.7,1311.6h-73.2V935.7h114.3l68.3,295.6l67.8-295.6h113v375.9h-73.2v-254.2c0-7.3,0.1-17.6,0.2-30.7
		c0.2-13.2,0.2-23.3,0.2-30.5l-71.1,315.4h-76.2l-70.7-315.4c0,7.1,0.1,17.3,0.2,30.5c0.2,13.2,0.2,23.4,0.2,30.7V1311.6z"/>
	<path d="M3598.2,935.7h78v375.9h-78V935.7z"/>
	<path class="st0" d="M2910.6,787.1c29.5-86.5,59-173,88.5-259.5c-27.3-26.7-54.6-53.4-81.9-80.1
		c-49.4,144.2-98.7,288.3-148.1,432.5c188.8-0.8,393.9-14,576.2-66.8c114.4-33.1,256.8-90.7,309.1-184.4
		c81.6-146.2-83.2-273.7-195.9-337.9c-73.8-42.1-156.7-75.5-240.6-109.3c-38.2-13.1-76.7-25.7-115.7-37.5
		c-98.5-29.9-200.1-55.1-307.6-71.5c99.3,21.1,193.3,49.1,284.7,80.5c84.2,28.9,226.1,82.2,336.8,155.1
		c89.9,59.2,216.2,174.6,133.6,288.2c-36,49.5-104.6,93.4-223.7,128.9C3195.1,764.1,3046.3,779.7,2910.6,787.1 M3319.1,472.6
		L3338,421l123.4-42.3l-17.8,52.7L3319.1,472.6z M3234,725.3l77.2-223.7l124-42.7l-79.9,233.2L3234,725.3L3234,725.3z M3076,750.7
		l93.8-274.3l124.5-39.4l-101.1,297.5L3076,750.7z M2937.2,762.6l81.8-232.7l124.5-41.5l-91.2,267.2L2937.2,762.6z"/>
	<path class="st1" d="M2141.8,181.2v1272.6"/>
	<g id="lIBP4c.tif">
		<g>
			<path d="M755.9,354.6c211.2,0,421.1,0,632.1,0c-4.5,7.8-8.5,14.8-12.6,21.7C1300,505.2,1224.7,634.1,1149.3,763
				c-48.4,82.8-96.9,165.6-145.3,248.5c-10.2,17.5-20.4,35.1-30.4,52.7c-1.9,3.3-4,4.5-7.8,4.5c-38.4-0.1-76.8-0.2-115.3,0
				c-4.3,0-6.1-1.8-8-5.2c-76.7-133-153.5-265.9-230.4-398.8c-1.2-2.1-2.5-4.1-4.3-7.2c-38,65.1-75.6,129.5-113.8,194.9
				c3.6,0,6,0,8.3,0c45.7,0,91.4,0.1,137.1-0.1c4.6,0,7.1,1.5,9.3,5.4c39.9,67.9,79.9,135.7,119.8,203.6c1.2,2,2.3,4.2,3.7,6.8
				c-218.7,0-436.6,0-655.5,0c2.2-3.9,3.9-7.1,5.8-10.3c94.6-161.8,189.3-323.7,283.9-485.5c41.2-70.5,82.3-141,123.2-211.6
				c2.9-5.1,6.1-6.8,11.9-6.8c45,0.3,90.1,0.2,135.1,0c5.1,0,7.8,1.5,10.4,6c72.5,126,145.1,251.9,217.8,377.8c1.2,2,2.4,4,4.2,6.8
				c38-65.2,75.4-129.5,113.6-195c-3.8,0-6.1,0-8.5,0c-45.5,0-91-0.1-136.5,0.1c-5.2,0-7.8-1.7-10.3-6
				c-30.7-52.6-61.6-105-92.5-157.5C768.8,376,762.7,365.8,755.9,354.6z"/>
			<path d="M368.5,1237.2c-6.4,12.3-12.8,24.6-19.2,36.8c-5.5,10.6-10.7,21.3-16.6,31.6c-1.5,2.6-5,5.4-7.6,5.5
				c-2.6,0-6.3-2.8-7.7-5.4c-11.2-20.7-22-41.7-32.9-62.6c-1-1.9-2.1-3.8-4.1-7.5c-1.4,8.9-2.5,16-3.6,23.2c-2,14-4.1,27.9-5.7,41.9
				c-0.8,6.5-3.3,9.4-10.2,8.8c-6.6-0.5-13.2-0.2-19.9-0.1c-5.5,0.1-7.5-2.3-6.6-7.8c7.3-42.3,14.4-84.7,21.6-127.1
				c1.1-6.7,1.8-13.6,3.5-20.2c0.7-2.7,2.8-6.2,5.1-7.2c3.9-1.6,6.8,0.9,8.8,4.8c15.6,29.4,31.4,58.7,47.2,88
				c1.2,2.3,2.6,4.6,4.3,7.7c1.6-2.7,2.9-4.9,4.1-7.1c15.6-29.1,31.3-58.2,46.9-87.4c2.1-4,4.4-7.2,9.6-6.2c5,0.9,4.7,5.1,5.3,8.7
				c8.1,48.7,16.2,97.4,24.4,146c0.9,5.6-1,7.9-6.5,7.8c-7.3-0.1-14.6-0.1-21.8,0c-4.6,0.1-6.6-1.9-7.3-6.5
				c-3-21.8-6.4-43.5-9.6-65.3C369.5,1237.5,369,1237.3,368.5,1237.2z"/>
			<path d="M1093.2,1244.9c10,18.5,19.7,36.6,29.4,54.6c4,7.4,2.5,9.8-6.1,9.9c-7.7,0.1-15.5-0.2-23.2,0.1c-4.7,0.2-7.2-1.7-9.2-5.8
				c-7.6-15.7-15.6-31.2-23.4-46.7c-5.7-11.4-6.6-11.8-20.7-9.1c0,2.2,0,4.6,0,6.9c0,15.2,0,30.5,0,45.7c0,8.3-0.6,8.9-9.2,8.9
				c-6.2,0-12.4-0.3-18.5,0.1c-6.4,0.4-8.5-2.3-8.5-8.6c0.2-47.7,0.1-95.4,0.1-143.1c0-0.4,0-0.9,0-1.3c-0.5-5.4,2-7.5,7.4-7.4
				c21.9,0.2,43.7-0.1,65.6,0.1c23.4,0.2,42.6,15.4,48.3,37.9c5.4,21.3-4.4,42.5-25,54C1098.2,1242.3,1096.1,1243.4,1093.2,1244.9z
				 M1040.3,1217c12.5,0,24.6,0.6,36.6-0.2c7.9-0.6,13.8-8.6,14.2-16.7c0.3-7.4-4.7-16.2-12.1-16.8c-12.7-1.1-25.6-0.3-38.7-0.3
				C1040.3,1194.4,1040.3,1205.4,1040.3,1217z"/>
			<path d="M1400.6,1183.4c0,9.2,0,18,0,27.8c2.4,0,4.7,0,7,0c13.9,0,27.8,0.1,41.7-0.1c5.3-0.1,7.8,1.8,7.7,7.3
				c-0.2,6.4-0.1,12.8,0,19.2c0.1,5.4-2.3,7.4-7.7,7.3c-16.1-0.2-32.1-0.1-48.6-0.1c0,10.2,0,19.8,0,30.2c2.3,0.1,4.6,0.3,6.9,0.3
				c17.2,0,34.4,0,51.7,0c7.8,0,8.6,0.8,8.6,8.8c0,6.2-0.1,12.4,0,18.5c0.1,4.3-1.6,6.7-6.1,6.7c-30.5,0-60.9,0-91.4,0
				c-5.7,0-6.1-3.7-6.1-8.1c0.1-24.5,0-49,0-73.5c0-23.4,0.2-46.8-0.1-70.2c-0.1-6.3,2-8.6,8.4-8.6c29.1,0.2,58.3,0.2,87.4,0
				c5.6,0,8.2,1.8,7.9,7.6c-0.3,6.2-0.3,12.4,0,18.5c0.3,5.8-2,7.9-7.7,7.8c-17.9-0.2-35.8-0.1-53.6-0.1
				C1404.7,1183.1,1402.8,1183.3,1400.6,1183.4z"/>
			<path d="M865.7,1185.3c0,9.6,0,18.3,0,27.9c11.3,0,22.3,0,33.3,0c5.3,0,10.6,0.1,15.9,0c5-0.1,7.2,2.3,7.1,7.3
				c-0.2,6.6-0.2,13.2,0,19.9c0.1,5.1-2.3,7-7.3,7c-16.1-0.1-32.2,0-48.8,0c0,10.1,0,19.9,0,30.4c4.5,0,8.9,0,13.3,0
				c15.5,0,30.9,0.1,46.4-0.1c5.3-0.1,7.8,1.7,7.5,7.3c-0.3,6.8-0.1,13.7-0.1,20.5c0,4.2-1.8,6-6,6c-30.5,0-60.9-0.1-91.4,0
				c-6.3,0-6.2-4.1-6.2-8.6c0-47.5,0-94.9,0-142.4c0-0.7,0-1.3,0-2c-0.2-5,2-7.1,7.1-7.1c29.8,0.1,59.6,0.1,89.4,0
				c5.1,0,7.3,1.8,7.1,7c-0.2,6.6-0.2,13.2,0,19.9c0.2,5.1-1.9,7.1-7,7c-17.4-0.2-34.9-0.1-52.3-0.1
				C871.2,1185.3,868.8,1185.3,865.7,1185.3z"/>
			<path d="M172.9,1306.7c-13.8,3.7-20.8-3.3-24.2-15.7c-1.8-6.5-5.6-8.6-12.5-8.3c-15.9,0.6-31.8,0.3-47.6,0.1
				c-4.1-0.1-6.3,1.2-8,5c-9.5,21.2-5.2,18.7-29.5,18.8c-16.7,0.1-16.7,0-9.6-15.3c21.8-46.9,43.6-93.9,65.6-140.7
				c1.3-2.7,4.5-5.8,7.1-6.1c1.9-0.2,5.3,3.4,6.5,6c22.8,48.4,45.3,97,67.9,145.5c4.1,8.9,2.9,10.7-7.1,10.7
				C178.7,1306.7,175.8,1306.7,172.9,1306.7z M113.8,1214c-6,13.3-11.2,24.9-16.6,37c11.8,0,22.3,0,33.6,0
				C125.2,1238.8,119.9,1227.3,113.8,1214z"/>
			<path d="M500.5,1251.3c0,17,0,33,0,49.1c0,8.3-0.7,9-9.1,9c-6.6,0-13.2-0.1-19.9,0c-4.5,0.1-7-1.6-7-6.6c0.1-49,0.1-98,0-147
				c0-4.8,2-6.8,6.7-6.8c18.5,0.1,37.1-0.4,55.6,0.2c27.2,0.9,49.1,24.5,48.5,51.3c-0.6,27.8-22.8,50.2-50.2,50.6
				C517.3,1251.4,509.4,1251.3,500.5,1251.3z M500.9,1217.5c8.2,0,16.2,0.7,24-0.2c9.2-1,15.5-9.3,15.1-18
				c-0.4-8.2-6.7-15.1-15.8-15.9c-7.6-0.6-15.3-0.1-23.3-0.1C500.9,1194.9,500.9,1206,500.9,1217.5z"/>
			<path d="M1241.5,1311.6c-18.6-0.3-34.6-4.3-48.5-15c-4.6-3.5-6-7-2.4-12.2c3-4.3,5.4-9.1,7.9-13.8c2.7-5.1,6-5.1,10.9-2.7
				c8.6,4.2,17.4,8.6,26.6,10.9c9.4,2.4,16.2-1.6,18.8-8.3c2.5-6.5-0.1-14-7.7-19.3c-5.2-3.6-11.3-5.9-16.8-9
				c-8-4.5-16.6-8.4-23.8-14c-15.5-12-22.2-28-16.8-47.4c5.3-19.3,19.5-29.3,38.5-32.8c22.1-4,41.9,2.4,60,14.8
				c4.1,2.8,4.7,6.1,2.1,10.1c-3.4,5.2-6.8,10.3-10.3,15.4c-3,4.3-6.2,5.1-11.2,2.2c-7.6-4.3-15.7-7.8-23.8-11.2
				c-2.5-1-6.1-1.6-8.4-0.5c-4.1,1.9-9.5,4.6-10.7,8.1c-1.2,3.6,0.6,10.1,3.5,12.8c5.4,4.9,12.4,8.1,19,11.6
				c8.3,4.5,17.3,8,25.1,13.2c18.6,12.6,25.7,31,20.8,50.2c-4.9,19.1-22.6,33.7-43.7,36.1
				C1247.1,1311.4,1243.5,1311.4,1241.5,1311.6z"/>
			<path d="M696.4,1236c9.2-20.4,17.8-39.2,26.3-58c3.5-7.8,7.2-15.6,10.5-23.5c1.7-4.2,4.4-5.5,8.7-5.3c7.9,0.2,15.9,0,23.8,0.1
				c7.9,0.1,9.1,2.1,5.8,9.2c-20.3,43.5-40.6,87-60.9,130.6c-2.6,5.6-4.9,11.4-8,16.7c-1.4,2.4-4.4,5.2-6.9,5.4
				c-2,0.2-5.1-3-6.2-5.3c-20.8-44.3-41.3-88.7-61.9-133c-2.4-5.2-4.9-10.3-7.2-15.6c-2.3-5.3-1-7.7,4.6-7.9
				c9-0.2,18.1-0.5,27.1,0.2c2.6,0.2,6.1,3.3,7.3,5.9c11.4,24.4,22.3,48.9,33.4,73.4C693.8,1230.7,694.8,1232.7,696.4,1236z"/>
		</g>
	</g>
</g>
</svg>
