<svg width="13" height="14" viewBox="0 0 13 14" fill="none" xmlns="http://www.w3.org/2000/svg">
<path d="M1 13H12M2.14537 7.79143C1.85211 8.07623 1.68742 8.46227 1.6875 8.86474V11H3.90331C4.31856 11 4.71663 10.84 5.01019 10.5547L11.5414 4.21816C11.8348 3.93341 11.9996 3.54736 11.9996 3.14485C11.9996 2.74234 11.8348 2.35629 11.5414 2.07154L10.8966 1.44488C10.7511 1.30379 10.5784 1.19187 10.3884 1.11553C10.1983 1.0392 9.99458 0.999938 9.78886 1C9.58313 1.00006 9.37943 1.03944 9.18942 1.11589C8.9994 1.19235 8.82678 1.30437 8.68144 1.44555L2.14537 7.79143Z" stroke="#B4B4B4" stroke-width="0.966432" stroke-linecap="round" stroke-linejoin="round"/>
</svg>
