<svg width="478" height="97" viewBox="0 0 478 97" fill="none" xmlns="http://www.w3.org/2000/svg">
<path d="M4.78237 20.7953C4.93858 20.6391 5.19185 20.6391 5.34806 20.7953L11.2948 26.742C11.451 26.8982 11.7043 26.8982 11.8605 26.742L17.8072 20.7953C17.9634 20.6391 18.2167 20.6391 18.3729 20.7953L19.2544 21.6768C19.4106 21.833 19.4106 22.0863 19.2544 22.2425L11.8605 29.6364C11.7043 29.7926 11.451 29.7926 11.2948 29.6364L3.90085 22.2425C3.74464 22.0863 3.74464 21.833 3.90085 21.6768L4.78237 20.7953ZM4.78237 28.0313C4.93858 27.8751 5.19185 27.8751 5.34806 28.0313L11.2948 33.978C11.451 34.1342 11.7043 34.1342 11.8605 33.978L17.8072 28.0313C17.9634 27.8751 18.2167 27.8751 18.3729 28.0313L19.2544 28.9128C19.4106 29.069 19.4106 29.3223 19.2544 29.4785L11.8605 36.8724C11.7043 37.0286 11.451 37.0286 11.2948 36.8724L3.90085 29.4785C3.74464 29.3223 3.74465 29.069 3.90085 28.9128L4.78237 28.0313Z" fill="#DBFD67"/>
<path d="M98.7824 20.7953C98.9386 20.6391 99.1918 20.6391 99.3481 20.7953L105.295 26.742C105.451 26.8982 105.704 26.8982 105.86 26.742L111.807 20.7953C111.963 20.6391 112.217 20.6391 112.373 20.7953L113.254 21.6768C113.411 21.833 113.411 22.0863 113.254 22.2425L105.86 29.6364C105.704 29.7926 105.451 29.7926 105.295 29.6364L97.9009 22.2425C97.7446 22.0863 97.7446 21.833 97.9009 21.6768L98.7824 20.7953ZM98.7824 28.0313C98.9386 27.8751 99.1918 27.8751 99.3481 28.0313L105.295 33.978C105.451 34.1342 105.704 34.1342 105.86 33.978L111.807 28.0313C111.963 27.8751 112.217 27.8751 112.373 28.0313L113.254 28.9128C113.411 29.069 113.411 29.3223 113.254 29.4785L105.86 36.8724C105.704 37.0286 105.451 37.0286 105.295 36.8724L97.9009 29.4785C97.7446 29.3223 97.7446 29.069 97.9009 28.9128L98.7824 28.0313Z" fill="#DBFD67"/>
<path d="M186.782 20.7953C186.939 20.6391 187.192 20.6391 187.348 20.7953L193.295 26.742C193.451 26.8982 193.704 26.8982 193.86 26.742L199.807 20.7953C199.963 20.6391 200.217 20.6391 200.373 20.7953L201.254 21.6768C201.411 21.833 201.411 22.0863 201.254 22.2425L193.86 29.6364C193.704 29.7926 193.451 29.7926 193.295 29.6364L185.901 22.2425C185.745 22.0863 185.745 21.833 185.901 21.6768L186.782 20.7953ZM186.782 28.0313C186.939 27.8751 187.192 27.8751 187.348 28.0313L193.295 33.978C193.451 34.1342 193.704 34.1342 193.86 33.978L199.807 28.0313C199.963 27.8751 200.217 27.8751 200.373 28.0313L201.254 28.9128C201.411 29.069 201.411 29.3223 201.254 29.4785L193.86 36.8724C193.704 37.0286 193.451 37.0286 193.295 36.8724L185.901 29.4785C185.745 29.3223 185.745 29.069 185.901 28.9128L186.782 28.0313Z" fill="#DBFD67"/>
<path d="M276.782 20.7953C276.939 20.6391 277.192 20.6391 277.348 20.7953L283.295 26.742C283.451 26.8982 283.704 26.8982 283.86 26.742L289.807 20.7953C289.963 20.6391 290.217 20.6391 290.373 20.7953L291.254 21.6768C291.411 21.833 291.411 22.0863 291.254 22.2425L283.86 29.6364C283.704 29.7926 283.451 29.7926 283.295 29.6364L275.901 22.2425C275.745 22.0863 275.745 21.833 275.901 21.6768L276.782 20.7953ZM276.782 28.0313C276.939 27.8751 277.192 27.8751 277.348 28.0313L283.295 33.978C283.451 34.1342 283.704 34.1342 283.86 33.978L289.807 28.0313C289.963 27.8751 290.217 27.8751 290.373 28.0313L291.254 28.9128C291.411 29.069 291.411 29.3223 291.254 29.4785L283.86 36.8724C283.704 37.0286 283.451 37.0286 283.295 36.8724L275.901 29.4785C275.745 29.3223 275.745 29.069 275.901 28.9128L276.782 28.0313Z" fill="#DBFD67"/>
<path d="M364.782 20.7953C364.939 20.6391 365.192 20.6391 365.348 20.7953L371.295 26.742C371.451 26.8982 371.704 26.8982 371.86 26.742L377.807 20.7953C377.963 20.6391 378.217 20.6391 378.373 20.7953L379.254 21.6768C379.411 21.833 379.411 22.0863 379.254 22.2425L371.86 29.6364C371.704 29.7926 371.451 29.7926 371.295 29.6364L363.901 22.2425C363.745 22.0863 363.745 21.833 363.901 21.6768L364.782 20.7953ZM364.782 28.0313C364.939 27.8751 365.192 27.8751 365.348 28.0313L371.295 33.978C371.451 34.1342 371.704 34.1342 371.86 33.978L377.807 28.0313C377.963 27.8751 378.217 27.8751 378.373 28.0313L379.254 28.9128C379.411 29.069 379.411 29.3223 379.254 29.4785L371.86 36.8724C371.704 37.0286 371.451 37.0286 371.295 36.8724L363.901 29.4785C363.745 29.3223 363.745 29.069 363.901 28.9128L364.782 28.0313Z" fill="#DBFD67"/>
<path d="M458.782 20.7953C458.939 20.6391 459.192 20.6391 459.348 20.7953L465.295 26.742C465.451 26.8982 465.704 26.8982 465.86 26.742L471.807 20.7953C471.963 20.6391 472.217 20.6391 472.373 20.7953L473.254 21.6768C473.411 21.833 473.411 22.0863 473.254 22.2425L465.86 29.6364C465.704 29.7926 465.451 29.7926 465.295 29.6364L457.901 22.2425C457.745 22.0863 457.745 21.833 457.901 21.6768L458.782 20.7953ZM458.782 28.0313C458.939 27.8751 459.192 27.8751 459.348 28.0313L465.295 33.978C465.451 34.1342 465.704 34.1342 465.86 33.978L471.807 28.0313C471.963 27.8751 472.217 27.8751 472.373 28.0313L473.254 28.9128C473.411 29.069 473.411 29.3223 473.254 29.4785L465.86 36.8724C465.704 37.0286 465.451 37.0286 465.295 36.8724L457.901 29.4785C457.745 29.3223 457.745 29.069 457.901 28.9128L458.782 28.0313Z" fill="#DBFD67"/>
<path d="M12 0V49.9118C12 55.4346 16.4772 59.9118 22 59.9118H233C238.523 59.9118 243 64.3889 243 69.9118V97" stroke="url(#paint0_linear_1786_3471)"/>
<path d="M466 0V49.9118C466 55.4346 461.523 59.9118 456 59.9118H253C247.477 59.9118 243 64.3889 243 69.9118V97" stroke="url(#paint1_linear_1786_3471)"/>
<path d="M106 0V49.9118C106 55.4346 110.477 59.9118 116 59.9118H233C238.523 59.9118 243 64.3889 243 69.9118V97" stroke="url(#paint2_linear_1786_3471)"/>
<path d="M372 0V49.9118C372 55.4346 367.523 59.9118 362 59.9118H253C247.477 59.9118 243 64.3889 243 69.9118V97" stroke="url(#paint3_linear_1786_3471)"/>
<path d="M194 0V49.9118C194 55.4346 198.477 59.9118 204 59.9118H233C238.523 59.9118 243 64.3889 243 69.9118V97" stroke="url(#paint4_linear_1786_3471)"/>
<path d="M284 0V49.9118C284 55.4346 279.523 59.9118 274 59.9118H253C247.477 59.9118 243 64.3889 243 69.9118V97" stroke="url(#paint5_linear_1786_3471)"/>
<defs>
<linearGradient id="paint0_linear_1786_3471" x1="243" y1="-0.356618" x2="243" y2="96.6434" gradientUnits="userSpaceOnUse">
<stop stop-color="#DBFD67" stop-opacity="0"/>
<stop offset="0.155" stop-color="#DBFD67"/>
<stop offset="0.83" stop-color="#DBFD67"/>
<stop offset="1" stop-color="#DBFD67" stop-opacity="0"/>
</linearGradient>
<linearGradient id="paint1_linear_1786_3471" x1="243" y1="-0.356618" x2="243" y2="96.6434" gradientUnits="userSpaceOnUse">
<stop stop-color="#DBFD67" stop-opacity="0"/>
<stop offset="0.155" stop-color="#DBFD67"/>
<stop offset="0.83" stop-color="#DBFD67"/>
<stop offset="1" stop-color="#DBFD67" stop-opacity="0"/>
</linearGradient>
<linearGradient id="paint2_linear_1786_3471" x1="243" y1="-0.356618" x2="243" y2="96.6434" gradientUnits="userSpaceOnUse">
<stop stop-color="#DBFD67" stop-opacity="0"/>
<stop offset="0.155" stop-color="#DBFD67"/>
<stop offset="0.83" stop-color="#DBFD67"/>
<stop offset="1" stop-color="#DBFD67" stop-opacity="0"/>
</linearGradient>
<linearGradient id="paint3_linear_1786_3471" x1="243" y1="-0.356618" x2="243" y2="96.6434" gradientUnits="userSpaceOnUse">
<stop stop-color="#DBFD67" stop-opacity="0"/>
<stop offset="0.155" stop-color="#DBFD67"/>
<stop offset="0.83" stop-color="#DBFD67"/>
<stop offset="1" stop-color="#DBFD67" stop-opacity="0"/>
</linearGradient>
<linearGradient id="paint4_linear_1786_3471" x1="243" y1="-0.356618" x2="243" y2="96.6434" gradientUnits="userSpaceOnUse">
<stop stop-color="#DBFD67" stop-opacity="0"/>
<stop offset="0.155" stop-color="#DBFD67"/>
<stop offset="0.83" stop-color="#DBFD67"/>
<stop offset="1" stop-color="#DBFD67" stop-opacity="0"/>
</linearGradient>
<linearGradient id="paint5_linear_1786_3471" x1="243" y1="-0.356618" x2="243" y2="96.6434" gradientUnits="userSpaceOnUse">
<stop stop-color="#DBFD67" stop-opacity="0"/>
<stop offset="0.155" stop-color="#DBFD67"/>
<stop offset="0.83" stop-color="#DBFD67"/>
<stop offset="1" stop-color="#DBFD67" stop-opacity="0"/>
</linearGradient>
</defs>
</svg>
