<svg width="24" height="82" viewBox="0 0 24 82" fill="none" xmlns="http://www.w3.org/2000/svg">
<path d="M4.78237 36.7953C4.93858 36.6391 5.19185 36.6391 5.34806 36.7953L11.2948 42.742C11.451 42.8982 11.7043 42.8982 11.8605 42.742L17.8072 36.7953C17.9634 36.6391 18.2167 36.6391 18.3729 36.7953L19.2544 37.6768C19.4106 37.833 19.4106 38.0863 19.2544 38.2425L11.8605 45.6364C11.7043 45.7926 11.451 45.7926 11.2948 45.6364L3.90085 38.2425C3.74464 38.0863 3.74464 37.833 3.90085 37.6768L4.78237 36.7953ZM4.78237 44.0313C4.93858 43.8751 5.19185 43.8751 5.34806 44.0313L11.2948 49.978C11.451 50.1342 11.7043 50.1342 11.8605 49.978L17.8072 44.0313C17.9634 43.8751 18.2167 43.8751 18.3729 44.0313L19.2544 44.9128C19.4106 45.069 19.4106 45.3223 19.2544 45.4785L11.8605 52.8724C11.7043 53.0286 11.451 53.0286 11.2948 52.8724L3.90085 45.4785C3.74464 45.3223 3.74465 45.069 3.90085 44.9128L4.78237 44.0313Z" fill="#DBFD67"/>
<path d="M12 0L12 50.6471L12 82" stroke="url(#paint0_linear_1936_3617)"/>
<defs>
<linearGradient id="paint0_linear_1936_3617" x1="13" y1="-0.301471" x2="12.9992" y2="81.6985" gradientUnits="userSpaceOnUse">
<stop stop-color="#DBFD67" stop-opacity="0"/>
<stop offset="0.155" stop-color="#DBFD67"/>
<stop offset="0.83" stop-color="#DBFD67"/>
<stop offset="1" stop-color="#DBFD67" stop-opacity="0"/>
</linearGradient>
</defs>
</svg>
