<svg width="24" height="60" viewBox="0 0 24 60" fill="none" xmlns="http://www.w3.org/2000/svg">
<path d="M4.78237 21.7953C4.93858 21.6391 5.19185 21.6391 5.34806 21.7953L11.2948 27.742C11.451 27.8982 11.7043 27.8982 11.8605 27.742L17.8072 21.7953C17.9634 21.6391 18.2167 21.6391 18.3729 21.7953L19.2544 22.6768C19.4106 22.833 19.4106 23.0863 19.2544 23.2425L11.8605 30.6364C11.7043 30.7926 11.451 30.7926 11.2948 30.6364L3.90085 23.2425C3.74464 23.0863 3.74464 22.833 3.90085 22.6768L4.78237 21.7953ZM4.78237 29.0313C4.93858 28.8751 5.19185 28.8751 5.34806 29.0313L11.2948 34.978C11.451 35.1342 11.7043 35.1342 11.8605 34.978L17.8072 29.0313C17.9634 28.8751 18.2167 28.8751 18.3729 29.0313L19.2544 29.9128C19.4106 30.069 19.4106 30.3223 19.2544 30.4785L11.8605 37.8724C11.7043 38.0286 11.451 38.0286 11.2948 37.8724L3.90085 30.4785C3.74464 30.3223 3.74465 30.069 3.90085 29.9128L4.78237 29.0313Z" fill="#DBFD67"/>
<path d="M12 0L12 37.0588L12 60" stroke="url(#paint0_linear_1936_3618)"/>
<defs>
<linearGradient id="paint0_linear_1936_3618" x1="13" y1="-0.220588" x2="12.9996" y2="59.7794" gradientUnits="userSpaceOnUse">
<stop stop-color="#DBFD67" stop-opacity="0"/>
<stop offset="0.155" stop-color="#DBFD67"/>
<stop offset="0.83" stop-color="#DBFD67"/>
<stop offset="1" stop-color="#DBFD67" stop-opacity="0"/>
</linearGradient>
</defs>
</svg>
