<svg width="657" height="136" viewBox="0 0 657 136" fill="none" xmlns="http://www.w3.org/2000/svg">
<path d="M637.782 36.7958C637.939 36.6395 638.192 36.6395 638.348 36.7958L644.295 42.7425C644.451 42.8987 644.704 42.8987 644.86 42.7425L650.807 36.7958C650.963 36.6395 651.217 36.6395 651.373 36.7958L652.254 37.6773C652.411 37.8335 652.411 38.0867 652.254 38.243L644.86 45.6369C644.704 45.7931 644.451 45.7931 644.295 45.6369L636.901 38.243C636.745 38.0867 636.745 37.8335 636.901 37.6773L637.782 36.7958ZM637.782 44.0318C637.939 43.8756 638.192 43.8756 638.348 44.0318L644.295 49.9785C644.451 50.1347 644.704 50.1347 644.86 49.9785L650.807 44.0318C650.963 43.8756 651.217 43.8756 651.373 44.0318L652.254 44.9133C652.411 45.0695 652.411 45.3228 652.254 45.479L644.86 52.8729C644.704 53.0291 644.451 53.0291 644.295 52.8729L636.901 45.479C636.745 45.3228 636.745 45.0695 636.901 44.9133L637.782 44.0318Z" fill="#DBFD67"/>
<path d="M4.78237 36.7958C4.93858 36.6395 5.19185 36.6395 5.34806 36.7958L11.2948 42.7425C11.451 42.8987 11.7043 42.8987 11.8605 42.7425L17.8072 36.7958C17.9634 36.6395 18.2167 36.6395 18.3729 36.7958L19.2544 37.6773C19.4106 37.8335 19.4106 38.0867 19.2544 38.243L11.8605 45.6369C11.7043 45.7931 11.451 45.7931 11.2948 45.6369L3.90085 38.243C3.74464 38.0867 3.74464 37.8335 3.90085 37.6773L4.78237 36.7958ZM4.78237 44.0318C4.93858 43.8756 5.19185 43.8756 5.34806 44.0318L11.2948 49.9785C11.451 50.1347 11.7043 50.1347 11.8605 49.9785L17.8072 44.0318C17.9634 43.8756 18.2167 43.8756 18.3729 44.0318L19.2544 44.9133C19.4106 45.0695 19.4106 45.3228 19.2544 45.479L11.8605 52.8729C11.7043 53.0291 11.451 53.0291 11.2948 52.8729L3.90085 45.479C3.74464 45.3228 3.74465 45.0695 3.90085 44.9133L4.78237 44.0318Z" fill="#DBFD67"/>
<path d="M12 0V74C12 79.5228 16.4772 84 22 84H319C324.523 84 329 88.4772 329 94V136" stroke="url(#paint0_linear_1359_143195)"/>
<path d="M645 0V74C645 79.5228 640.523 84 635 84H338C332.477 84 328 88.4772 328 94V136" stroke="url(#paint1_linear_1359_143195)"/>
<defs>
<linearGradient id="paint0_linear_1359_143195" x1="329" y1="-0.5" x2="329" y2="135.5" gradientUnits="userSpaceOnUse">
<stop stop-color="#DBFD67" stop-opacity="0"/>
<stop offset="0.155" stop-color="#DBFD67"/>
<stop offset="0.83" stop-color="#DBFD67"/>
<stop offset="1" stop-color="#DBFD67" stop-opacity="0"/>
</linearGradient>
<linearGradient id="paint1_linear_1359_143195" x1="328" y1="-0.5" x2="328" y2="135.5" gradientUnits="userSpaceOnUse">
<stop stop-color="#DBFD67" stop-opacity="0"/>
<stop offset="0.155" stop-color="#DBFD67"/>
<stop offset="0.83" stop-color="#DBFD67"/>
<stop offset="1" stop-color="#DBFD67" stop-opacity="0"/>
</linearGradient>
</defs>
</svg>
