<svg width="316" height="638" viewBox="0 0 316 638" fill="none" xmlns="http://www.w3.org/2000/svg">
<path d="M316.735 470.026C317.441 470.203 318.009 469.787 318.627 469.497C320.858 468.45 321.943 466.231 323.582 464.592C324.073 464.1 324.086 463.357 323.847 462.688C323.115 460.646 323.67 458.754 324.502 456.687C323.821 455.224 322.813 455.35 321.917 455.943C320.947 456.586 320.114 456.687 319.118 456.145C317 455.01 315.008 456.245 312.966 456.573C312.6 456.636 312.171 457.09 312.02 457.468C311.2 459.397 309.75 460.923 309.019 462.966C307.897 466.029 308.893 468.11 310.961 469.724C311.705 470.316 312.486 470.644 313.445 470.367C314.516 470.077 315.588 469.736 316.748 470.014L316.735 470.026Z" fill="#333333"/>
<path d="M320.505 244.424C322.9 244.651 324.691 243.264 325.851 241.599C327.477 239.242 327.918 236.48 326.153 233.782C325.409 232.66 324.691 231.563 323.632 230.706C322.371 229.672 321.022 229.004 319.093 229.294C317.97 229.483 317.075 229.571 316.243 229.823C315.739 229.975 315.159 230.277 314.869 230.693C313.381 232.963 312.07 235.333 313.116 238.145C313.621 239.532 314.037 240.856 313.873 242.356C313.784 243.1 314.226 243.592 314.982 243.793C316.798 244.272 318.664 244.247 320.53 244.424L320.505 244.424Z" fill="#333333"/>
<path d="M296.07 453.724C296.498 455.439 297.507 455.943 299.386 455.678C300.495 455.527 301.706 455.502 302.651 454.985C303.937 454.279 305.148 453.8 306.623 453.611C307.505 453.484 308.249 452.337 309.056 451.656C308.438 451.19 307.631 452.198 307.051 451.391C306.938 451.228 306.635 451.101 306.459 451.152C305.059 451.518 304.189 451.051 303.521 449.727C302.853 448.378 301.605 448.365 300.104 449.009C298.112 449.21 296.914 450.559 295.376 451.038C295.452 452.098 295.88 452.879 296.082 453.711L296.07 453.724Z" fill="#333333"/>
<path d="M240.027 444.761C241.514 445.392 242.939 445.152 244.124 444.32C245.272 443.501 246.243 442.303 245.65 440.399C244.957 438.041 243.254 437.701 241.388 437.776C240.09 437.839 238.06 439.869 237.719 441.294C237.354 442.794 238.224 443.992 240.039 444.749L240.027 444.761Z" fill="#333333"/>
<path d="M258.296 371.918C256.607 373.28 256.607 375.348 257.805 376.672C258.927 377.92 260.213 378.147 261.965 377.907C262.608 378.122 263.024 378.311 263.466 378.399C263.655 378.437 264.033 378.336 264.058 378.235C264.399 376.76 265.281 375.348 264.638 373.721C263.579 370.998 260.591 370.078 258.309 371.931L258.296 371.918Z" fill="#333333"/>
<path d="M313.282 395.409C312.929 395.434 312.626 395.711 312.626 396.064C312.551 397.981 312.74 399.859 313.976 401.473C315.413 403.364 316.749 403.415 318.3 401.612C318.817 401.019 319.384 400.452 319.359 399.342C319.321 398.548 319.321 397.968 319.271 397.413C319.094 395.749 318.792 395.371 317.292 395.308C315.968 395.245 314.631 395.32 313.295 395.396L313.282 395.409Z" fill="#333333"/>
<path d="M313.948 380.012C313.62 380.138 313.494 380.516 313.645 380.844C313.721 380.995 314.011 381.109 314.213 381.134C314.742 381.21 315.31 381.626 315.827 381.285C316.633 380.781 317.478 380.768 318.386 380.819C318.916 380.844 319.496 380.642 319.987 380.428C321.311 379.861 321.74 378.121 320.819 377.049C320.239 376.393 319.533 375.839 318.777 374.981C318.373 374.124 318.083 373.506 317.453 373.203C317.024 373.002 316.596 373.077 316.255 373.468C316.18 373.544 315.436 376.885 315.41 377.011C315.196 378.133 315.461 379.482 313.961 380.025L313.948 380.012Z" fill="#333333"/>
<path d="M296.057 443.62C298.516 444.439 301 444.981 303.32 443.241C303.837 442.851 304.631 442.863 304.971 442.119C304.644 440.001 303.887 438.261 301.012 438.387C298.075 438.728 297.192 441.148 295.704 442.813C295.503 443.04 295.742 443.506 296.083 443.62L296.057 443.62Z" fill="#333333"/>
<path d="M203.324 289.388C203.702 288.354 203.349 287.245 202.327 286.4C200.361 284.786 198.28 284.698 195.96 286.186C195.708 286.791 195.431 287.321 195.569 287.636C196.502 289.527 197.952 290.851 200.083 291.242C201.445 291.494 202.857 290.637 203.311 289.401L203.324 289.388Z" fill="#333333"/>
<path d="M77.6569 373.75C78.7664 375.742 80.7207 376.259 82.2716 377.306C83.3937 378.05 84.3267 377.898 85.3228 377.028C85.7389 376.663 86.1171 376.234 86.4449 375.78C87.2014 374.772 86.9493 373.46 85.7389 373.006C83.0659 371.998 80.2921 371.922 77.5308 372.464C77.0139 372.578 77.2913 373.183 77.6695 373.738L77.6569 373.75Z" fill="#333333"/>
<path d="M303.497 195.64C304.821 194.644 305.3 192.854 304.468 191.442C304.14 190.887 303.522 190.496 302.854 189.903C300.559 189.399 299.714 189.689 298.996 191.038C298.189 192.526 298.353 193.875 299.475 195.022C300.395 195.968 302.627 196.308 303.51 195.628L303.497 195.64Z" fill="#333333"/>
<path d="M307.406 297.113C308.036 296.709 308.541 295.978 308.087 295.423C306.965 294.024 307.469 293.04 308.528 292.006C308.654 291.88 308.604 291.578 308.579 291.124C308.15 290.039 307.645 289.283 306.813 288.879C306.082 288.526 305.313 288.337 304.582 288.816C304.115 289.132 304.065 290.292 304.443 291.023C304.657 291.414 304.922 291.779 305.174 292.158C305.426 292.511 305.842 292.826 305.943 293.229C306.107 293.948 305.338 293.986 304.947 294.326C304.166 295.007 304.153 296.583 304.884 297.289C305.338 297.743 306.549 297.667 307.419 297.125L307.406 297.113Z" fill="#333333"/>
<path d="M170.807 230.064C171.55 229.799 172.257 229.471 172.597 228.677C173.063 227.58 172.572 226.735 171.714 225.777C170.542 224.302 169.054 224.251 167.629 224.214C166.23 224.176 165.473 225.411 165.94 226.786C166.57 228.677 168.083 229.56 169.823 230.14C170.113 230.228 170.504 230.165 170.794 230.051L170.807 230.064Z" fill="#333333"/>
<path d="M106.466 405.739C107.223 405.184 107.702 404.428 107.513 403.431C107.336 402.448 106.706 401.868 105.785 401.553C104.915 401.238 104.02 401.275 103.125 401.49C102.091 401.742 101.322 402.36 100.767 403.545C100.364 404.705 100.389 405.663 101.347 406.092C103.074 406.886 104.84 406.911 106.441 405.739L106.466 405.739Z" fill="#333333"/>
<path d="M255.484 389.557C256.164 388.876 256.177 387.678 257.299 387.262C257.501 387.187 257.022 386.985 256.77 387.086C256.227 387.3 255.937 387.01 255.761 386.581C255.509 386.001 255.294 385.409 254.941 384.829C253.113 385.068 251.651 385.775 250.579 387.174C250.188 387.666 250.15 388.183 250.629 388.662C251.02 389.053 251.398 389.481 251.814 389.822C252.874 390.654 254.513 390.503 255.458 389.557H255.484Z" fill="#333333"/>
<path d="M254.916 327.867C253.946 328.434 252.95 328.825 251.916 329.229C251.247 329.493 251.071 330.326 251.525 330.88C252.193 331.675 253.113 332.469 254.072 331.965C255.496 331.196 256.921 332.015 258.472 331.498C259.405 330.01 259.191 328.762 258.031 327.804C257.06 327.01 255.85 327.312 254.891 327.867L254.916 327.867Z" fill="#333333"/>
<path d="M165.599 239.557C166.355 239.935 167.099 239.822 167.969 239.179C168.549 238.195 168.246 237.464 167.856 236.796C166.532 234.388 164.174 234.779 162.005 234.753C161.703 234.753 161.249 234.905 161.337 235.321C161.715 237.086 162.951 238.12 164.464 238.901C164.867 239.103 165.22 239.355 165.611 239.544L165.599 239.557Z" fill="#333333"/>
<path d="M274.888 455.591C273.312 456.562 271.837 457.608 269.883 457.621C269.706 457.621 269.479 458.1 269.404 458.402C269.303 458.755 269.618 458.995 269.908 459.134C270.097 459.247 270.349 459.373 270.526 459.323C271.761 458.995 272.795 459.096 273.88 459.978C274.636 460.609 275.746 460.609 276.679 459.953C277.675 459.26 278.28 458.428 277.801 456.915C276.981 455.692 276.023 454.885 274.888 455.591Z" fill="#333333"/>
<path d="M278.998 426.892C278.329 427.283 277.812 427.875 277.081 428.556C276.577 429.161 276.262 429.678 276.451 430.246C276.791 431.216 279.023 432.061 279.893 431.494C280.712 430.952 281.444 430.246 282.137 429.527C282.73 428.909 282.616 428.014 282.011 427.434C281.078 426.501 280.044 426.274 278.985 426.904L278.998 426.892Z" fill="#333333"/>
<path d="M238.929 339.489C239.724 339.325 240.153 338.468 239.888 337.673C239.585 336.791 238.955 336.16 238.249 335.606C237.757 335.215 236.963 335.177 236.723 334.181C236.408 333.79 236.143 333.525 235.866 333.475C235.185 333.324 234.945 333.614 235.324 334.294C235.55 334.723 235.777 335.101 235.45 335.48C234.504 336.576 234.996 337.623 235.626 338.531C236.42 339.653 237.669 339.766 238.942 339.502L238.929 339.489Z" fill="#333333"/>
<path d="M296.902 365.717C296.561 365.654 296.473 365.591 296.372 365.566C293.687 364.772 292.766 365.465 292.842 368.062C292.867 369.197 293.447 369.676 294.367 369.991C296.864 370.824 297.52 371.303 298.932 368.151C298.932 368.151 298.932 368.1 298.932 368.075C298.982 368.125 299.033 368.176 299.083 368.226C299.524 367.785 299.776 367.482 299.852 367.129C299.978 367.129 300.117 367.091 300.256 367.054C301.97 365.591 302.046 365.162 300.836 363.902C300.634 363.7 300.331 363.599 299.94 363.637C299.915 363.511 299.877 363.372 299.827 363.221C299.222 362.515 298.553 362.099 299.247 361.355C299.486 361.115 299.739 360.888 299.903 360.598C300.419 359.653 299.865 358.72 298.806 358.795C297.368 358.896 295.906 358.972 294.481 359.186C293.851 359.287 293.283 359.703 292.489 360.119C292.501 360.056 292.501 359.98 292.501 359.905C291.341 360.106 291.278 360.245 292.022 360.989C292.01 361.128 292.022 361.266 292.073 361.443C293.157 362.83 294.582 362.641 296.057 362.956C296.057 362.956 296.057 362.956 296.07 362.943C296.019 362.994 295.981 363.032 295.944 363.095C296.107 363.385 296.133 363.511 296.297 363.448C296.7 363.271 297.028 363.221 297.457 363.095C297.482 363.17 297.507 363.246 297.532 363.347C297.646 363.889 297.784 364.255 298.049 364.797C297.986 364.784 297.898 364.797 297.784 364.835C297.507 365.188 297.343 365.427 297.293 365.73C297.167 365.73 297.028 365.717 296.864 365.73L296.902 365.717ZM298.39 365.062C298.39 365.062 298.503 365.099 298.553 365.125C298.503 365.175 298.44 365.238 298.377 365.301C298.377 365.225 298.364 365.137 298.364 365.062L298.39 365.062Z" fill="#333333"/>
<path d="M293.876 233.608C295.263 232.574 295.415 232.07 294.885 231.112C293.939 229.384 292.225 228.804 290.548 228.212C290.056 228.048 289.388 228.666 289.464 229.195C289.665 230.431 290.245 231.54 290.977 232.498C291.582 233.305 292.565 233.709 293.876 233.608Z" fill="#333333"/>
<path d="M281.557 340.032C282.364 340.688 283.36 340.776 284.621 340.347C284.671 340.322 284.734 340.284 284.785 340.259C284.709 340.335 284.659 340.435 284.57 340.524C285.642 340.814 286.663 340.297 287.559 341.217C287.559 341.217 287.559 341.217 287.571 341.23C287.521 341.255 287.483 341.293 287.458 341.343C287.811 341.52 288 341.457 288.012 341.242C288.038 341.242 288.088 341.242 288.113 341.242C288.113 341.242 288.139 341.268 288.315 341.242C288.277 341.305 288.239 341.368 288.227 341.432C288.719 341.696 289.021 341.848 289.349 341.898C289.815 341.961 290.269 341.835 290.421 341.356C290.559 340.915 290.433 340.486 289.967 340.246C289.815 340.171 289.626 340.108 289.374 340.158C289.399 340.057 289.412 339.944 289.437 339.818C289.576 338.796 290.345 338.078 289.626 337.031L289.778 336.88C288.63 334.648 288.277 334.497 286.386 335.203C286.096 335.316 285.819 335.493 285.428 335.808C285.415 335.745 285.39 335.67 285.34 335.594C284.823 335.606 284.419 335.707 284.117 335.909C283.965 335.884 283.801 335.846 283.637 335.808C282.54 335.745 281.658 335.695 280.775 335.72C279.678 335.758 279.313 336.426 279.565 337.51C279.83 338.683 280.674 339.402 281.507 340.082L281.557 340.032Z" fill="#333333"/>
<path d="M285.695 318.42C286.741 318.836 287.952 318.307 288.494 317.21C288.885 316.415 288.645 315.47 287.788 314.865C287.258 314.486 286.59 314.297 285.771 313.906C284.724 313.339 284.056 313.604 283.551 314.335C283.009 315.129 283.022 316.125 283.564 316.844C284.131 317.563 284.838 318.092 285.695 318.42Z" fill="#333333"/>
<path d="M315.651 386.307C315.31 386.194 314.983 386.32 314.793 386.635C314.604 386.95 314.655 387.303 314.995 387.467C315.676 387.795 316.357 388.072 316.975 388.64C317.908 389.472 319.194 389.573 320.392 389.762C321.198 389.888 321.955 389.51 322.308 388.703C322.573 388.085 322.762 387.417 322.371 386.774C321.867 385.916 321.035 385.513 320.102 385.664C319.358 385.778 318.652 386.232 317.706 386.623C316.735 387.089 316.243 386.496 315.638 386.295L315.651 386.307Z" fill="#333333"/>
<path d="M283.45 348.984C284.081 349.412 284.774 349.829 285.48 350.055C286.602 350.421 287.422 350.005 287.85 348.643C287.939 346.815 286.653 346.16 285.606 345.39C284.913 344.873 283.412 345.365 282.946 346.084C282.303 347.105 282.467 348.328 283.438 348.996L283.45 348.984Z" fill="#333333"/>
<path d="M305.362 423.022C305.123 422.328 304.177 421.862 303.156 421.9C301.365 421.95 300.344 422.997 299.739 424.812C300.004 425.96 300.672 426.552 301.529 426.83C302.538 427.157 303.496 426.704 304.379 426.275C305.312 425.821 305.766 424.182 305.375 423.035L305.362 423.022Z" fill="#333333"/>
<path d="M287.886 193.525C288.744 193.096 289.059 192.554 288.946 191.81C288.807 190.89 288.378 190.058 287.571 189.654C286.499 189.112 285.327 188.746 284.18 188.356C283.864 188.242 283.474 188.406 283.347 188.734C283.247 189.011 283.171 189.415 283.284 189.654C283.675 190.449 284.142 191.193 284.633 191.936C285.352 193.033 286.348 193.651 287.899 193.538L287.886 193.525Z" fill="#333333"/>
<path d="M210.712 304.94C211.355 305.28 212.024 305.142 212.667 304.927C213.587 304.587 213.864 303.805 213.373 302.759C213.234 302.469 212.919 302.28 212.515 301.901C211.696 301.586 211.078 301.296 210.422 301.246C208.947 301.107 207.951 301.599 207.913 302.368C207.863 303.503 208.846 303.755 209.578 304.234C209.956 304.486 210.309 304.738 210.712 304.94Z" fill="#333333"/>
<path d="M205.152 183.416C206.552 183.781 207.321 183.138 207.144 181.751C206.981 180.327 206.123 179.318 205.001 178.524C204.408 178.107 203.765 178.044 203.135 178.473C202.442 178.914 202.177 179.683 202.429 180.516C202.681 181.398 203.148 182.142 204.068 182.861C204.547 183.138 204.85 183.34 205.165 183.428L205.152 183.416Z" fill="#333333"/>
<path d="M271.243 346.494C271.622 345.611 271.218 344.476 270.298 343.859C269.403 343.266 268.444 343.09 267.209 343.518C266.251 344.275 265.948 345.056 266.427 346.015C266.906 346.998 267.688 347.578 268.747 347.755C269.844 347.944 270.853 347.439 271.243 346.494Z" fill="#333333"/>
<path d="M301.077 324.526C301.216 325.396 301.027 326.014 300.421 326.594C300.094 326.921 300.043 327.401 300.157 327.842C300.472 328.989 301.254 329.771 302.313 330.25C302.855 330.49 303.435 330.338 303.876 329.973C304.355 329.594 304.481 329.014 304.267 328.472C304.04 327.842 303.712 327.262 303.397 326.669C302.855 325.673 302.451 324.74 303.473 323.769C303.662 323.58 303.296 323.189 302.779 323.026C301.808 323.265 300.926 323.517 301.09 324.513L301.077 324.526Z" fill="#333333"/>
<path d="M288.227 110.774C289.147 109.804 288.857 108.757 287.887 107.61C286.891 106.866 286.071 106.273 285.226 105.756C284.823 105.504 284.331 105.567 284.003 105.92C283.688 106.235 283.562 106.74 283.801 107.156C284.23 107.912 284.747 108.656 285.251 109.387C286.172 110.711 287.622 111.43 288.24 110.787L288.227 110.774Z" fill="#333333"/>
<path d="M76.4969 430.232C78.262 430.308 80.065 430.673 81.8554 429.539C82.2463 428.971 82.385 428.48 82.0698 428.114C81.3637 427.282 80.355 426.878 79.3716 427.282C78.2494 427.723 77.2534 428.467 76.2321 429.135C76.106 429.211 76.0808 429.539 76.1186 429.728C76.1691 429.929 76.3456 430.232 76.4969 430.232Z" fill="#333333"/>
<path d="M313.294 446.608C314.958 446.684 316.572 446.482 318.06 445.473C318.135 445.549 318.249 445.587 318.438 445.65C320.279 445.852 321.514 446.28 321.275 448.285C321.224 448.714 321.653 449.041 322.044 449.256C322.447 449.483 322.838 449.722 323.317 449.848C323.355 450.012 323.381 450.164 323.444 450.327C323.683 451.324 323.96 452.055 324.137 452.811C324.364 453.845 324.957 454.463 325.99 454.286C327.024 454.11 327.768 455.257 328.853 454.753C329.849 454.286 330.05 453.152 330.87 452.584C331.828 451.929 331.778 450.92 331.929 449.911C331.979 449.558 332.131 449.306 332.307 449.205C331.942 448.31 331.488 447.629 330.366 447.541C329.622 447.478 328.903 447.188 327.932 446.898C327.92 446.885 327.907 446.873 327.882 446.848C327.92 446.81 327.97 446.81 328.008 446.797C327.844 446.28 327.705 445.94 327.793 445.7C328.058 445.082 328.714 444.855 329.206 444.465C330.05 443.796 330.038 443.532 329.206 442.372C329.079 442.195 328.941 442.031 328.689 442.082C327.63 443.141 327.163 444.465 326.091 445.36C325.927 445.297 325.763 445.234 325.587 445.183C324.49 444.969 323.847 445.259 323.418 446.293C323.418 446.343 323.406 446.406 323.406 446.457C323.355 446.406 323.292 446.343 323.229 446.28C322.574 446.936 322.094 447.062 321.527 446.772C320.96 446.482 320.796 445.99 320.909 445.398C321.061 444.565 321.325 443.746 320.682 442.901C320.771 442.813 320.846 442.712 320.909 442.599C320.052 440.733 318.652 440.165 316.837 440.594C316.736 440.493 316.622 440.379 316.509 440.266C315.185 439.371 314.668 439.409 314.719 440.241C314.807 442.296 313.924 443.885 312.676 445.385C312.285 445.852 312.676 446.57 313.269 446.608L313.294 446.608Z" fill="#333333"/>
<path d="M243.292 421.699C242.839 422.607 243.04 423.187 243.633 423.628C244.263 424.108 244.995 424.41 245.789 424.12C246.407 423.906 246.987 423.578 247.554 423.263C248.046 422.998 248.512 422.658 248.449 422.015C248.361 421.145 247.68 421.119 246.999 421.044C246.457 420.981 245.953 420.779 245.411 420.665C244.579 420.514 243.91 420.855 243.28 421.687L243.292 421.699Z" fill="#333333"/>
<path d="M302.387 362.501C302.551 363.724 303.408 364.128 304.505 364.191C304.618 364.203 304.732 364.191 305.072 364.178C305.867 364.09 306.421 364.039 306.825 363.585C307.455 362.854 307.493 361.808 306.926 361.165C306.182 360.295 305.097 360.093 303.887 360.572C302.841 360.988 302.273 361.681 302.387 362.526V362.501Z" fill="#333333"/>
<path d="M287.296 392.395C287.346 392.95 287.434 393.492 287.447 394.034C287.472 395.421 287.724 395.774 288.947 396.039C290.107 396.291 291.154 396.177 292.137 395.068C291.608 391.865 291.154 391.638 287.296 392.37L287.296 392.395Z" fill="#333333"/>
<path d="M281.029 250.64C281.52 250.249 281.571 249.442 281.483 248.774C281.319 247.45 280.638 246.945 278.406 246.731C276.83 247.651 276.742 247.866 277.473 248.698C277.99 249.265 278.545 249.845 279.163 250.287C279.692 250.64 280.436 251.106 281.016 250.652L281.029 250.64Z" fill="#333333"/>
<path d="M283.866 134.049C284.446 133.545 284.471 132.889 284.118 132.259C283.425 131.086 282.378 130.241 281.193 129.687C280.537 129.384 280.235 129.914 280.323 130.784C280.361 132.461 281.105 133.457 282.366 134.137C282.895 134.44 283.412 134.453 283.879 134.037L283.866 134.049Z" fill="#333333"/>
<path d="M197.498 353.31C198.658 353.713 199.806 354.104 200.991 354.356C201.331 354.419 201.76 354.016 202.302 353.625C202.516 353.083 202.731 352.717 202.617 352.453C201.709 350.309 198.608 349.855 197.082 351.608C196.654 352.087 196.855 353.096 197.498 353.31Z" fill="#333333"/>
<path d="M274.259 360.118C275.166 360.244 276.074 360.42 276.642 359.449C277.184 358.504 276.742 357.735 276.125 357.041C275.973 356.89 275.759 356.776 275.356 356.6C274.473 356.625 273.805 356.713 273.136 356.802C272.758 356.852 272.556 357.129 272.481 357.457C272.229 358.844 272.973 359.941 274.259 360.118Z" fill="#333333"/>
<path d="M238.991 319.154C239.584 320.679 241.803 321.991 243.24 321.663C243.921 321.512 244.413 321.045 244.564 320.339C244.69 319.734 244.388 319.255 243.921 318.914C242.724 317.994 241.337 317.716 239.635 317.906C239.067 318.296 238.828 318.713 238.991 319.154Z" fill="#333333"/>
<path d="M304.682 215.057C304.909 213.292 303.434 211.641 301.555 211.628C301.328 211.628 301.101 212.031 300.798 212.511C300.471 214.402 301.202 215.511 302.677 216.154C303.534 216.533 304.556 215.965 304.669 215.045L304.682 215.057Z" fill="#333333"/>
<path d="M201.395 468.307C201.848 467.98 202.265 467.589 202.227 466.971C202.189 466.202 201.647 465.836 200.739 465.634C198.822 465.786 197.725 466.832 196.767 468.068C196.528 468.383 196.729 468.837 197.007 468.887C198.52 469.14 200.045 469.278 201.407 468.295L201.395 468.307Z" fill="#333333"/>
<path d="M266.97 478.938C267.563 479.707 268.622 479.404 269.479 479.253C270.437 479.101 271.08 478.332 271.131 477.425C271.194 476.353 270.589 475.748 268.887 475.483C268.281 475.785 267.777 475.912 267.563 476.252C267.033 477.059 266.226 477.992 266.97 478.963L266.97 478.938Z" fill="#333333"/>
<path d="M283.841 486.582C283.677 485.435 284.37 484.741 284.963 483.947C285.417 483.342 285.253 482.673 284.673 482.169C284.118 481.69 283.45 481.576 282.819 481.98C281.949 482.547 281.369 483.329 281.559 484.476C281.647 485.018 281.722 485.573 281.836 486.342C282.012 487.174 282.328 487.591 283.008 487.464C283.462 487.389 283.916 487.086 283.828 486.595L283.841 486.582Z" fill="#333333"/>
<path d="M229.537 205.278C230.217 206.211 231.138 206.652 231.768 206.198C232.714 205.53 232.361 204.647 231.831 203.638C230.281 202.466 228.339 202.264 227.481 200.499C227.456 200.474 227.229 200.474 227.204 200.524C227.091 200.688 226.901 201.003 226.952 201.054C228.2 202.226 228.553 203.941 229.537 205.278Z" fill="#333333"/>
<path d="M286.816 452.084C287.408 451.239 287.976 450.798 288.82 450.634C289.602 450.508 290.245 450.092 290.649 449.336C291.002 448.68 290.775 447.923 290.094 447.747C288.606 447.343 287.635 447.608 286.879 448.718C286.387 449.436 285.895 450.205 285.605 451.025C285.315 451.819 285.706 452.286 286.828 452.072L286.816 452.084Z" fill="#333333"/>
<path d="M119.832 302.093C120.739 302.042 121.181 301.525 121.118 300.58C121.067 300 120.777 299.558 120.096 299.155C119.163 298.953 118.445 298.588 117.675 298.928C116.78 299.319 116.528 300.403 117.171 301.071C117.915 301.841 118.785 302.156 119.832 302.093Z" fill="#333333"/>
<path d="M174.866 336.303C176.089 336.694 177.476 336.996 178.598 335.874C179.077 335.395 178.976 334.487 178.409 334.147C176.997 333.315 175.521 333.05 173.769 333.819C173.214 335.181 173.908 336 174.866 336.303Z" fill="#333333"/>
<path d="M211.002 284.36C210.069 283.906 208.909 283.931 208.506 284.385C208.026 284.94 208.569 286.138 209.666 286.806C210.548 287.361 211.469 287.676 212.364 286.755C212.439 286.68 212.515 286.604 212.591 286.579C212.452 286.314 212.439 286.024 212.326 285.759C212.061 285.116 211.595 284.65 210.977 284.36L211.002 284.36Z" fill="#333333"/>
<path d="M213.323 287.128C213.335 286.51 213.02 286.321 212.617 286.573C212.718 286.8 212.919 287.002 213.323 287.128Z" fill="#333333"/>
<path d="M286.601 375.512C286.601 375.512 286.614 375.448 286.614 375.423C286.614 375.423 286.614 375.423 286.601 375.435C286.601 375.461 286.601 375.486 286.601 375.512Z" fill="#333333"/>
<path d="M286.615 375.424C287.258 374.832 287.964 374.554 288.582 374.163C289.086 373.836 289.213 373.281 288.897 372.713C288.57 372.133 288.116 371.654 287.296 371.238C287.296 371.238 287.447 371.188 287.523 371.137C288.368 369.158 287.283 368.174 286.048 367.317C285.871 367.191 285.43 367.38 285.178 367.506C285.039 367.594 284.901 367.935 284.976 368.086C285.417 369.032 285.997 369.94 285.947 371.125C285.821 371.175 285.682 371.238 285.556 371.314C284.648 371.642 284.182 372.058 284.182 372.814C284.169 373.407 284.522 373.836 285.001 374.138C285.544 374.479 286.124 374.756 286.666 375.122C286.691 375.147 286.666 375.248 286.64 375.399L286.615 375.424Z" fill="#333333"/>
<path d="M249.722 379.181C250.176 379.483 250.73 379.685 251.26 379.761C252.483 379.975 253.542 379.37 253.655 378.5C253.819 377.378 252.874 376.508 251.499 376.596C250.957 376.634 250.428 376.861 249.684 377.1C248.826 377.958 248.94 378.651 249.709 379.168L249.722 379.181Z" fill="#333333"/>
<path d="M201.446 449.949C202.366 449.457 202.744 448.6 202.354 447.755C202.164 447.339 201.9 446.998 201.446 446.847C200.841 446.62 200.387 446.948 199.756 447.402C199.05 447.957 198.483 448.423 198.874 449.192C199.378 450.176 200.475 450.466 201.433 449.961L201.446 449.949Z" fill="#333333"/>
<path d="M281.508 420.779C283.273 421.183 283.841 419.481 284.963 418.762C285.165 418.636 284.887 418.131 284.547 418.018C283.715 417.741 282.883 417.514 282.038 417.274C280.903 416.971 280.121 417.501 279.97 418.686C279.869 419.417 280.197 419.947 280.954 420.527C281.269 420.691 281.382 420.729 281.496 420.767L281.508 420.779Z" fill="#333333"/>
<path d="M245.434 433.473C246.468 433.297 247.313 432.401 247.099 431.733C246.758 430.611 245.535 429.766 244.59 430.056C243.568 430.371 242.774 430.914 242.963 432.389C243.669 433.347 244.476 433.624 245.434 433.473Z" fill="#333333"/>
<path d="M180.729 383.29C181.309 382.71 181.486 382.205 181.221 381.638C180.969 381.058 180.452 380.919 179.885 380.806C178.687 380.592 177.716 381.159 176.783 381.764C176.329 382.067 176.455 382.823 176.997 383.138C178.145 383.807 179.342 383.693 180.742 383.277L180.729 383.29Z" fill="#333333"/>
<path d="M166.156 291.43C166.963 291.456 167.555 291.418 167.77 290.775C168.022 290.043 167.669 289.463 167.076 289.047C166.421 288.593 165.664 288.367 164.87 288.354C164.34 288.354 163.647 288.215 163.332 288.757C162.865 289.602 163.722 289.905 164.202 290.283C164.718 290.699 165.324 291.002 166.131 291.405L166.156 291.43Z" fill="#333333"/>
<path d="M247.982 537.314C246.658 537.856 246.015 538.777 245.372 539.672C245.208 539.912 245.12 540.353 245.221 540.605C245.423 541.084 245.914 541.046 246.356 540.933C247.011 540.781 247.654 540.618 248.31 540.466C248.865 540.34 249.344 540.038 249.684 539.596C250.113 539.042 250.327 538.373 249.962 537.73C249.571 537.037 248.915 536.986 247.982 537.314Z" fill="#333333"/>
<path d="M208.003 461.756C208.659 461.655 209.314 461.504 209.932 461.29C210.462 461.088 210.865 460.659 210.966 460.079C211.092 459.474 210.764 459.02 210.109 458.566C208.306 458.15 207.41 458.869 207.045 460.445C206.868 461.252 207.259 461.87 207.99 461.769L208.003 461.756Z" fill="#333333"/>
<path d="M236.798 416.087C236.168 416.566 236.143 417.222 237 417.853C238.286 418.508 239.345 418.432 240.367 417.764C240.77 417.487 240.871 417.058 240.783 416.566C240.694 416.1 240.468 415.671 240.001 415.558C238.866 415.28 237.731 415.331 236.798 416.062L236.798 416.087Z" fill="#333333"/>
<path d="M225.616 524.856C225.023 525.448 224.04 526.053 224.418 527.037C224.846 528.172 225.906 527.642 226.75 527.579C227.192 527.541 227.646 527.491 228.049 527.339C228.515 527.176 228.591 526.696 228.553 526.003C227.734 524.099 226.75 523.746 225.603 524.843L225.616 524.856Z" fill="#333333"/>
<path d="M303.623 471.761C303.409 472.353 303.598 472.87 304.203 473.148C305.741 473.879 306.964 473.186 307.507 471.03C307.002 470.147 306.397 469.996 305.678 470.185C304.796 470.437 303.976 470.828 303.623 471.761Z" fill="#333333"/>
<path d="M313.57 371.594C312.915 370.837 312.499 370.144 311.54 370.245C310.746 370.333 310.002 370.572 309.51 371.241C309.346 371.455 309.296 371.884 309.384 372.174C309.636 373.006 310.368 373.46 311.137 373.422C312.36 373.359 313.053 372.514 313.558 371.606L313.57 371.594Z" fill="#333333"/>
<path d="M271.687 523.264C271.081 523.44 270.905 524.02 270.653 524.752C270.653 525.609 270.955 526.113 271.636 525.962C273.023 525.659 274.397 525.243 275.746 524.777C275.961 524.714 276.162 524.235 276.137 523.957C276.112 523.68 275.835 523.226 275.633 523.201C274.322 523.05 272.985 522.873 271.687 523.264Z" fill="#333333"/>
<path d="M279.251 414.186C279.844 414.097 280.235 413.681 280.272 413.064C280.31 412.294 279.617 411.525 278.898 411.487C278.079 411.45 277.398 411.752 276.818 412.332C276.288 412.862 276.339 413.164 277.41 414.211C278.154 414.249 278.722 414.287 279.264 414.198L279.251 414.186Z" fill="#333333"/>
<path d="M280.927 317.137C281.608 316.104 279.842 315.7 279.603 314.755C279.565 314.565 279.338 314.414 279.187 314.263C278.67 313.746 278.039 313.595 277.396 313.935C276.577 314.376 276.413 315.045 277.081 316.041C277.51 316.394 277.787 316.721 278.065 316.721C279.086 316.709 280.031 318.487 280.914 317.15L280.927 317.137Z" fill="#333333"/>
<path d="M242.838 530.281C243.759 530.697 244.717 530.899 245.713 530.508C246.482 530.218 246.885 529.436 246.608 528.63C246.381 527.999 245.738 527.709 244.969 527.848C244.162 527.999 243.645 528.617 242.901 529.26C242.561 529.726 242.523 530.143 242.813 530.281L242.838 530.281Z" fill="#333333"/>
<path d="M302.676 278.717C303.307 278.314 303.345 277.62 303.13 276.952C302.828 275.969 302.147 275.515 301.151 275.603C300.546 275.653 300.167 276.032 299.903 276.801C299.814 277.62 300.067 278.074 300.533 278.415C301.189 278.919 301.92 279.171 302.664 278.705L302.676 278.717Z" fill="#333333"/>
<path d="M83.7223 310.52C83.9996 310.47 84.3023 310.217 84.4662 309.953C84.7435 309.524 84.5418 309.095 84.2518 308.755C83.2432 307.544 81.9193 307.734 80.3937 308.023C80.1541 308.238 80.0532 308.364 80.1037 308.44C80.8728 309.965 82.2597 310.772 83.7223 310.52Z" fill="#333333"/>
<path d="M278.205 367.642C277.789 368.235 277.385 368.462 276.805 368.538C276.692 368.449 276.566 368.348 276.44 368.222C273.704 367.1 273.237 367.239 272.027 369.433C271.749 369.937 271.484 370.353 270.942 370.618C270.11 371.021 270.312 371.702 270.614 372.307C270.98 373.026 271.8 373.19 272.354 372.862C273.451 372.219 274.561 371.967 275.796 371.816C276.856 371.69 277.612 370.958 277.448 369.483C277.448 369.483 277.436 369.471 277.436 369.445C277.499 369.483 277.562 369.521 277.637 369.546C278.52 369.496 279.163 369.66 279.819 369.71C280.512 369.773 281.168 369.571 281.382 368.828C281.584 368.121 281.231 367.541 280.676 367.113C279.844 366.482 278.949 366.571 278.205 367.642Z" fill="#333333"/>
<path d="M262.204 367.939C262.255 368.066 262.305 368.192 262.368 368.33C263.188 368.847 263.781 369.213 264.613 369.616C264.587 369.642 264.562 369.667 264.55 369.679C265.142 369.944 265.609 370.159 265.974 369.818C266.138 369.831 266.302 369.843 266.491 369.856C266.983 369.818 267.21 369.793 267.399 369.679C268.559 369.049 269.858 368.482 269.719 366.855C269.593 365.241 268.282 364.813 266.807 364.321C266.819 364.308 266.844 364.283 266.857 364.27C266.302 363.943 265.861 363.779 265.533 364.081C265.382 364.081 265.218 364.069 265.054 364.081C264.184 364.245 263.516 364.434 262.595 364.649C262.57 364.674 262.545 364.699 262.52 364.724C262.545 364.674 262.57 364.598 262.608 364.56C261.851 364.081 261.385 363.59 260.83 363.262C260.326 362.959 259.758 362.997 259.33 363.476C258.863 363.993 258.901 364.964 259.569 365.178C260.717 365.519 261.12 366.25 261.297 367.309C261.372 367.738 261.662 368.103 262.23 367.939L262.204 367.939Z" fill="#333333"/>
<path d="M272.959 551.676C272.405 551.727 271.9 551.929 271.497 552.332C271.169 552.66 270.967 553.063 271.106 553.505C271.257 553.959 271.648 554.198 272.14 554.11C272.77 553.984 273.325 553.757 274.031 553.883C275.821 554.186 275.922 554.034 276.061 551.651C274.914 551.538 273.943 551.601 272.959 551.676Z" fill="#333333"/>
<path d="M307.747 404.373C307.747 404.373 307.532 404.385 307.192 404.474C306.045 405.192 306.032 405.987 306.65 406.831C307.179 407.538 308.125 407.626 309.045 407.084C309.663 406.718 310.042 406.188 309.865 405.432C309.588 404.272 308.629 404.348 307.734 404.36L307.747 404.373Z" fill="#333333"/>
<path d="M224.064 395.054C223.9 395.949 224.77 395.962 225.312 396.226C225.602 396.365 225.88 396.567 226.182 396.693C226.85 396.983 227.506 396.932 227.935 396.327C228.376 395.709 228.237 395.092 227.506 394.461C226.674 394.083 226.031 394.02 225.388 394.234C224.871 394.398 224.19 394.474 224.077 395.066L224.064 395.054Z" fill="#333333"/>
<path d="M311.744 329.521C311.656 330.189 311.631 330.87 312.299 331.286C313.005 331.715 313.787 331.74 314.48 331.299C314.72 331.16 314.972 330.782 314.96 330.517C314.972 329.647 314.317 329.168 313.674 328.727C313.094 328.323 312.463 328.197 311.833 329.004C311.757 329.307 311.744 329.42 311.732 329.534L311.744 329.521Z" fill="#333333"/>
<path d="M293.498 522.564C292.502 523.081 291.922 524.064 292.099 524.972C292.225 525.628 293.183 525.729 294.431 525.237C295.011 525.01 295.289 524.581 295.465 523.775C294.721 522.425 294.23 522.186 293.498 522.564Z" fill="#333333"/>
<path d="M225.149 322.055C225.653 321.777 226.069 321.387 226.031 320.743C225.994 320.075 225.502 319.785 224.934 319.621C224.518 319.508 224.039 319.382 223.623 319.445C222.98 319.533 222.224 319.634 221.984 320.403C221.744 321.172 222.161 321.689 222.98 322.156C223.875 322.42 224.531 322.395 225.149 322.055Z" fill="#333333"/>
<path d="M282.593 468.036C284.875 468.956 285.228 468.88 286.035 467.594C286.3 467.178 286.376 466.75 286.073 466.371C285.884 466.157 285.518 465.943 285.241 465.943C283.942 465.955 282.858 466.359 282.606 468.023L282.593 468.036Z" fill="#333333"/>
<path d="M242.523 307.808C242.712 308.552 242.964 309.283 243.229 310.002C243.456 310.657 243.708 310.632 244.755 309.686C245.398 307.606 245.171 307.051 243.784 306.749C243.065 306.585 242.359 307.165 242.536 307.82L242.523 307.808Z" fill="#333333"/>
<path d="M246.495 479.543C246.168 478.787 245.651 478.623 245.109 478.534C244.365 478.421 243.873 478.787 243.482 479.732C243.23 480.337 243.419 480.804 243.886 481.17C245.045 482.103 245.789 481.712 246.495 479.543Z" fill="#333333"/>
<path d="M218.769 511.256C218.908 510.361 218.921 509.617 218.026 509.529C216.941 509.428 216.26 510.109 215.996 511.332C215.895 511.786 215.996 512.215 216.361 512.53C216.903 512.996 217.559 512.769 218.555 511.748C218.631 511.672 218.656 511.546 218.744 511.256L218.769 511.256Z" fill="#333333"/>
<path d="M168.122 328.296C168.312 327.855 168.198 327.439 167.921 327.086C167.391 326.43 166.622 326.392 165.853 326.355C165.248 326.329 164.807 326.569 164.643 327.389C165.235 328.485 166.03 328.977 167.076 328.965C167.517 328.952 167.908 328.763 168.097 328.296H168.122Z" fill="#333333"/>
<path d="M278.483 279.463C278.584 279.766 278.798 280.056 279.139 280.497C279.656 280.686 279.996 280.85 280.311 280.787C281.232 280.573 281.724 279.879 281.547 279.148C281.282 278.101 280.147 277.395 278.95 277.534C278.294 277.61 278.105 278.328 278.471 279.476L278.483 279.463Z" fill="#333333"/>
<path d="M222.097 406.481C222.513 406.292 222.866 405.913 222.74 405.409C222.677 405.119 222.438 404.753 222.186 404.652C221.126 404.249 220.042 403.896 218.945 404.993C219.992 406.72 220.811 407.061 222.097 406.481Z" fill="#333333"/>
<path d="M277.676 326.463C278.319 326.904 278.936 326.816 279.668 326.16C280.21 325.139 280.046 324.445 279.163 324.067C278.419 323.752 277.65 323.613 276.957 324.206C276.818 324.344 276.679 324.609 276.692 324.798C276.755 325.492 277.083 326.072 277.676 326.463Z" fill="#333333"/>
<path d="M326.898 371.276C327.377 371.957 327.34 372.574 326.81 373.356C326.734 373.306 326.646 373.268 326.545 373.217C325.827 373.356 325.272 373.407 324.793 373.633C324.377 373.823 324.251 374.276 324.352 374.73C324.452 375.184 324.78 375.512 325.234 375.512C325.751 375.499 326.255 375.373 326.999 375.159C326.987 375.247 326.974 375.31 326.987 375.399C327.403 375.689 327.642 375.853 328.147 375.928C328.147 375.928 328.172 375.903 328.184 375.89C328.121 375.953 328.071 376.029 328.033 376.117C329.231 376.357 329.37 375.588 329.571 374.882C329.622 374.932 329.685 374.97 329.773 375.033C330.277 375.563 330.643 375.827 330.92 376.18C331.79 377.277 332.774 377.731 334.123 376.987C334.476 376.786 334.993 376.823 335.636 376.76C335.623 376.798 335.623 376.849 335.623 376.874C337.048 376.861 337.754 377.996 338.838 378.223C339.355 378.336 340.024 377.895 340.074 377.366C340.137 376.748 339.835 376.218 339.229 376.143C338.258 376.029 337.275 376.054 336.153 376.117C336.153 376.016 336.153 375.89 336.128 375.764C334.363 374.579 332.698 373.646 330.782 372.713C330.807 372.637 330.832 372.587 330.857 372.511C330.479 372.183 330.214 371.994 329.899 371.931C329.887 371.793 329.861 371.667 329.824 371.503C329.508 370.229 328.752 369.523 327.869 368.968C327.857 368.855 327.831 368.729 327.781 368.603C327.34 368.086 326.734 367.808 327.037 367.355C327.983 365.93 327.516 364.908 326.344 363.887C325.524 363.169 325.6 363.068 327.05 361.87C327.037 361.933 327.012 361.983 326.999 362.046C328.084 361.895 328.159 361.87 327.743 361.126C327.831 360.987 327.92 360.823 327.995 360.622C329.029 358.831 328.827 357.318 328.159 355.641C327.478 353.927 326.079 353.46 324.705 352.792C324.415 352.653 324.074 352.59 323.746 352.489C321.729 351.783 319.863 351.682 318.35 353.548C318.325 353.574 318.199 353.548 317.984 353.536C317.997 353.523 318.01 353.485 317.795 353.397C316.913 352.943 316.282 352.237 315.601 353.094C315.072 353.75 315.702 354.254 316.068 354.771C316.131 354.834 316.181 354.91 316.522 354.923C316.497 354.948 316.471 354.973 316.459 355.011C316.383 355.011 316.307 355.036 316.232 355.036C316.232 355.036 316.232 355.036 316.08 355.263C315.374 355.969 314.832 356.461 314.315 356.953C314.315 356.953 314.315 356.953 314.467 357.028C315.009 357.217 315.4 357.28 315.904 357.18C315.917 357.318 315.954 357.482 316.017 357.646C318.413 359.714 319.913 362.273 322.435 363.786C322.675 363.925 322.612 364.593 322.549 365.211C322.536 365.198 322.511 365.173 322.498 365.161C322.044 365.69 321.426 366.031 321.779 366.611C322.006 366.964 322.41 366.863 322.75 366.522C322.838 366.611 322.952 366.674 323.103 366.749C324.793 367.405 325.448 368.666 326.508 369.876C326.419 369.914 326.344 369.964 326.243 370.015C326.457 370.607 326.634 370.96 326.873 371.301L326.898 371.276ZM329.357 374.869C329.357 374.869 329.307 374.92 329.256 374.945C329.307 374.894 329.357 374.844 329.42 374.781C329.433 374.793 329.458 374.819 329.47 374.831C329.445 374.856 329.395 374.856 329.332 374.869H329.357Z" fill="#333333"/>
<path d="M254.11 323.605C254.4 324.197 254.602 324.601 254.753 325.004C254.879 325.357 255.144 325.572 255.497 325.572C255.976 325.572 256.367 325.357 256.581 324.916C256.947 324.147 256.909 323.378 256.442 322.684C256.014 322.054 255.333 321.953 254.639 322.117C253.971 322.281 253.833 322.798 254.11 323.605Z" fill="#333333"/>
<path d="M262.305 482.419C262.747 482.028 262.86 481.133 262.52 480.641C262.242 480.238 261.839 480.162 261.385 480.212C260.565 480.326 259.935 480.654 259.632 481.713C260.944 483.125 261.448 483.226 262.318 482.431L262.305 482.419Z" fill="#333333"/>
<path d="M193.982 344.166C194.184 343.637 193.616 342.792 192.936 342.716C192.066 342.603 191.17 342.616 190.073 342.653C189.582 342.994 189.544 343.309 189.746 343.586C190.477 344.519 191.511 344.898 192.658 344.986C193.263 345.036 193.755 344.772 193.969 344.179L193.982 344.166Z" fill="#333333"/>
<path d="M243.254 295.578C244.023 295.793 244.641 295.503 244.88 294.809C245.107 294.103 244.994 293.46 244.351 293.044C243.733 292.653 243.09 292.691 242.371 293.334C241.905 294.532 242.182 295.263 243.266 295.566L243.254 295.578Z" fill="#333333"/>
<path d="M263.806 542.805C264.134 542.402 264.058 541.973 263.806 541.569C263.466 541.027 262.961 540.876 262.356 541.053C261.423 541.305 261.234 542.049 261.259 543.082C261.65 544.028 262.205 544.28 262.898 543.789C263.251 543.536 263.529 543.158 263.819 542.818L263.806 542.805Z" fill="#333333"/>
<path d="M244.452 368.942C244.238 369.509 244.389 370.064 244.906 370.405C245.612 370.884 246.697 370.707 247.289 369.963C247.97 369.131 247.378 368.564 246.508 367.996C245.436 367.807 244.768 368.097 244.465 368.929L244.452 368.942Z" fill="#333333"/>
<path d="M294.483 403.561C294.735 404.09 295.139 404.494 295.731 404.456C296.122 404.418 296.639 404.229 296.866 403.927C297.471 403.12 297.976 402.212 298.417 401.216C298.53 401.254 298.669 401.291 298.82 401.317C299.968 401.884 300.901 402.01 301.884 401.48C302.678 401.064 302.83 400.207 302.124 399.602C301.72 399.249 301.241 398.946 300.762 398.669C299.955 398.24 299.262 398.707 298.568 399.022C298.001 399.261 297.736 399.678 297.824 400.522C297.761 400.51 297.698 400.497 297.635 400.484C296.412 401.102 295.328 401.405 294.66 402.35C294.395 402.716 294.269 403.12 294.496 403.573L294.483 403.561Z" fill="#333333"/>
<path d="M199.578 331.586C200.221 331.422 200.763 330.729 200.649 330.136C200.498 329.379 199.956 329.064 199.225 329.039C198.909 329.026 198.582 329.152 198.115 329.342C197.674 329.833 197.51 330.249 197.699 330.691C198.027 331.447 198.783 331.775 199.59 331.573L199.578 331.586Z" fill="#333333"/>
<path d="M246.823 331.696C247.566 331.406 247.932 331.015 247.819 330.397C247.692 329.792 247.251 329.502 246.659 329.439C246.331 329.413 246.003 329.464 245.7 329.514C245.284 329.603 244.83 329.703 244.704 330.208C244.591 330.674 244.83 331.04 245.133 331.368C245.562 331.796 246.091 331.822 246.848 331.696L246.823 331.696Z" fill="#333333"/>
<path d="M290.119 484.36C290.459 483.515 290.383 482.809 289.135 482.595C288.164 482.96 287.698 483.553 287.622 484.41C287.584 484.952 288.063 485.482 288.656 485.495C289.463 485.52 289.879 485.028 290.144 484.36H290.119Z" fill="#333333"/>
<path d="M310.659 447.584C310.495 446.185 309.537 446.815 308.881 446.689C308.352 446.588 307.797 446.815 307.444 447.294C307.091 447.773 307.015 448.303 307.356 448.82C307.633 449.248 308.087 449.274 308.516 449.274C309.512 449.236 310.029 448.492 310.672 447.597L310.659 447.584Z" fill="#333333"/>
<path d="M271.875 225.673C272.278 224.992 271.976 224.387 271.383 223.945C271.043 223.681 270.614 223.504 270.211 223.353C269.757 223.202 269.303 223.328 269.013 223.693C268.698 224.084 268.811 224.525 269.114 224.904C269.315 225.156 269.555 225.395 269.946 225.811C270.791 226.328 271.446 226.354 271.85 225.673L271.875 225.673Z" fill="#333333"/>
<path d="M202.164 483.756C202.933 483.643 203.727 483.429 204.307 482.874C204.66 482.521 204.635 482.067 204.143 481.525C203.072 481.058 202.202 481.02 201.395 481.6C200.903 481.941 200.689 482.483 200.84 483.088C201.004 483.782 201.609 483.857 202.164 483.782L202.164 483.756Z" fill="#333333"/>
<path d="M175.409 354.597C176.014 354.724 176.48 354.887 176.846 354.749C177.615 354.484 177.842 353.879 177.602 353.211C177.388 352.593 176.896 352.429 176.316 352.454C175.749 352.467 175.245 352.719 174.892 353.147C174.425 353.69 174.715 354.131 175.409 354.597Z" fill="#333333"/>
<path d="M288.555 303.407C288.82 304.05 289.311 304.542 290.043 304.466C290.862 304.378 290.988 303.697 290.976 302.776C291.001 302.323 291.039 302.108 291.064 301.906C291.127 301.591 291.253 301.238 290.9 301.036C290.761 300.948 290.459 300.948 290.307 301.049C289.828 301.326 289.362 301.616 288.946 301.957C288.492 302.335 288.328 302.877 288.555 303.432V303.407Z" fill="#333333"/>
<path d="M294.961 343.499C295.39 343.071 295.478 342.503 295.213 341.961C294.886 341.255 294.192 341.192 293.524 341.129C292.477 341.041 292.301 341.217 292.074 342.831C292.389 343.272 292.566 343.575 292.83 343.739C293.574 344.18 294.343 344.092 294.949 343.487L294.961 343.499Z" fill="#333333"/>
<path d="M270.589 535.382C270.224 536 270.375 536.656 270.564 537.526C270.489 538.434 270.463 539.114 271.321 539.316C271.913 539.455 272.216 539.051 272.304 538.005C272.367 537.236 272.455 536.492 272.468 535.723C272.468 535.244 272.14 534.891 271.674 534.802C271.207 534.714 270.829 534.966 270.589 535.382Z" fill="#333333"/>
<path d="M263.062 440.661C262.369 441.153 261.978 441.746 262.722 442.742C264.525 442.956 265.168 442.691 265.47 441.658C265.533 441.418 265.395 440.951 265.193 440.825C264.525 440.409 263.768 440.157 263.037 440.661L263.062 440.661Z" fill="#333333"/>
<path d="M218.327 445.174C218.806 444.77 218.781 444.216 218.302 443.56C217.003 443.194 216.171 443.673 215.452 444.443C215.2 444.695 215.162 445.035 215.339 445.338C215.44 445.514 215.654 445.653 215.83 445.729C216.738 445.981 217.596 445.804 218.314 445.186L218.327 445.174Z" fill="#333333"/>
<path d="M274.423 311.159C274.574 311.31 274.738 311.474 274.877 311.613C275.646 312.18 276.453 312.206 276.907 311.6C277.499 310.831 277.197 310.201 276.213 309.646C275.684 309.545 275.343 309.457 275.041 309.533C274.045 309.797 273.793 310.503 274.398 311.159H274.423Z" fill="#333333"/>
<path d="M294.734 335.503C295.188 334.873 294.961 334.268 294.293 333.625C293.549 333.385 293.007 333.423 292.515 333.738C292.137 333.99 291.859 334.318 291.91 334.822C291.985 335.428 292.326 335.818 292.931 335.944C293.587 336.071 294.28 336.134 294.722 335.516L294.734 335.503Z" fill="#333333"/>
<path d="M310.974 422.329C311.075 421.774 310.961 421.232 310.432 420.904C309.839 420.539 309.196 420.602 308.339 420.804C307.381 421.711 308.288 422.241 308.503 422.909C308.667 423.376 309.07 423.552 309.537 423.464C310.192 423.338 310.823 423.111 310.961 422.342L310.974 422.329Z" fill="#333333"/>
<path d="M262.457 465.172C262.154 466.66 262.406 467.164 263.201 467.252C264.184 467.378 265.067 466.924 265.319 466.143C265.508 465.55 265.104 464.768 264.474 464.592C263.793 464.39 263.188 464.617 262.457 465.147L262.457 465.172Z" fill="#333333"/>
<path d="M300.22 514.509C300.51 514.446 300.813 514.219 301.014 513.992C301.456 513.551 301.431 513.021 300.939 512.303C300.523 511.887 300.283 511.647 300.006 511.496C299.527 511.218 298.959 511.08 298.48 511.458C297.938 511.899 298.266 512.454 298.392 512.958C298.455 513.173 298.518 513.387 298.644 513.563C299.022 514.118 299.451 514.648 300.208 514.496L300.22 514.509Z" fill="#333333"/>
<path d="M227.783 253.455C228.274 253.392 228.577 253.014 228.64 252.548C228.741 251.968 228.552 251.426 228.073 251.047C227.455 250.581 226.787 250.165 226.043 249.95C225.299 250.846 225.274 251.552 225.904 252.258C226.421 252.825 226.837 253.594 227.77 253.468L227.783 253.455Z" fill="#333333"/>
<path d="M316.584 407.789C316.622 407.55 316.37 407.046 316.206 407.008C314.996 406.856 314.025 406.113 312.928 405.696C312.777 405.646 312.537 405.81 312.197 406.075C312.903 407.689 314.681 408.71 315.941 408.432C316.194 408.382 316.509 408.042 316.572 407.777L316.584 407.789Z" fill="#333333"/>
<path d="M299.172 339.04C299.209 339.834 299.777 340.553 300.571 340.641C301.403 340.717 302.135 340.54 301.983 339.229C301.454 338.523 300.975 338.069 300.256 338.031C299.701 338.006 299.146 338.51 299.172 339.04Z" fill="#333333"/>
<path d="M255.005 444.028C255.257 444.457 255.711 444.507 256.153 444.419C256.783 444.293 257.439 444.192 258.044 443.965C258.258 443.877 258.46 443.448 258.46 443.171C258.46 442.893 258.271 442.528 258.031 442.364C257.325 441.859 256.581 442.074 255.661 442.49C255.119 443.032 254.652 443.423 255.005 444.028Z" fill="#333333"/>
<path d="M252.924 234.72C252.987 234.808 253.075 234.871 253.352 235.048C253.63 235.174 253.768 235.237 253.844 235.186C255.029 234.505 255.244 234.014 254.701 233.194C254.298 232.589 253.768 232.261 253.012 232.513C252.268 232.778 252.243 233.535 252.911 234.707L252.924 234.72Z" fill="#333333"/>
<path d="M168.348 319.971C168.512 320.741 169.231 321.106 170.441 320.98C170.731 320.942 170.996 320.678 171.374 320.324C170.807 318.849 170.353 318.622 169.029 319.013C168.575 319.139 168.26 319.455 168.373 319.971H168.348Z" fill="#333333"/>
<path d="M273.023 353.508C273.275 353.81 273.729 353.987 274.309 354.239C275.103 354.151 275.544 353.861 275.62 353.23C275.658 352.915 275.67 352.549 275.557 352.285C275.229 351.553 274.082 351.465 273.262 352.108C272.771 352.499 272.619 353.054 273.01 353.545L273.023 353.508Z" fill="#333333"/>
<path d="M301.115 501.354C300.371 501.442 299.854 501.808 299.614 502.501C299.349 503.245 299.602 503.8 300.598 504.065C301.493 503.8 301.909 503.283 302.161 502.653C302.451 501.985 301.833 501.291 301.102 501.367L301.115 501.354Z" fill="#333333"/>
<path d="M219.992 303.407C219.74 303.81 219.614 303.987 219.45 304.151C218.92 304.604 218.466 305.058 219.084 305.752C219.588 306.307 220.257 306.37 220.811 305.89C221.429 305.374 221.366 304.806 220.874 304.214C220.622 303.911 220.433 303.571 220.231 303.268C220.257 303.218 220.294 303.154 220.421 303.154C221.404 303.129 222.009 302.827 222.451 302.31C222.791 301.894 223.32 301.263 223.22 300.91C223.018 300.229 222.501 299.561 221.946 299.107C220.988 298.325 219.538 298.641 218.655 299.649C217.874 300.557 217.924 301.616 218.933 302.6C219.21 302.877 219.651 302.991 220.105 303.268C220.068 303.306 220.03 303.344 220.004 303.444L219.992 303.407Z" fill="#333333"/>
<path d="M155.916 338.209C155.6 338.902 156.168 339.445 156.685 339.911C156.76 339.987 156.874 340.025 157.189 340.163C158.109 340.277 158.803 340.189 158.916 339.319C159.055 338.423 158.336 338.209 157.668 338.07C157.088 337.944 156.332 337.339 155.916 338.209Z" fill="#333333"/>
<path d="M260.717 413.826C261.91 414.566 262.793 414.659 263.365 414.104C263.781 413.688 264.209 413.259 264.89 412.578C263.188 412.944 261.675 412.414 260.717 413.826Z" fill="#333333"/>
<path d="M269.567 300.63C269.769 301.084 269.945 301.387 270.185 301.576C270.765 302.055 271.408 302.118 271.925 301.551C272.227 301.223 272.126 300.719 271.862 300.328C271.471 299.76 270.941 299.332 270.223 299.723C269.958 299.861 269.769 300.176 269.554 300.618L269.567 300.63Z" fill="#333333"/>
<path d="M199.402 459.664C199.553 459.891 199.894 460.055 200.171 460.131C200.474 460.206 200.827 460.156 201.129 460.106C201.684 460.005 202.214 459.727 202.314 459.147C202.466 458.366 201.961 457.962 201.003 457.836C200.385 458.101 199.982 458.277 199.667 458.542C199.301 458.832 199.125 459.261 199.389 459.677L199.402 459.664Z" fill="#333333"/>
<path d="M136.373 435.492C136.726 434.912 136.713 434.471 136.436 434.118C136.07 433.651 135.528 433.513 134.961 433.55C134.368 433.588 133.889 433.866 133.801 434.483C133.687 435.278 134.393 435.782 135.604 435.832C135.805 435.832 136.02 435.719 136.373 435.492Z" fill="#333333"/>
<path d="M258.763 531.505C259.293 531.076 259.671 530.521 259.255 529.828C258.801 529.046 258.146 528.844 257.137 529.5C256.431 530.256 255.838 530.874 256.683 531.593C257.351 532.16 258.108 532.034 258.763 531.505Z" fill="#333333"/>
<path d="M317.845 516.676C318.425 516.071 318.437 515.554 318.084 515.075C317.92 514.835 317.593 514.583 317.315 514.608C316.496 514.646 315.701 515.441 315.651 516.298C315.638 516.538 315.903 516.903 316.143 517.017C316.647 517.244 317.189 517.13 317.82 516.676L317.845 516.676Z" fill="#333333"/>
<path d="M241.451 311.478C240.077 311.768 239.762 312.109 239.989 312.739C240.291 313.647 241.312 314.113 242.044 313.685C242.548 313.407 242.51 312.663 241.93 311.73C241.88 311.655 241.754 311.604 241.451 311.478Z" fill="#333333"/>
<path d="M267.426 268.888C267.753 268.358 267.627 267.804 267.186 267.362C266.493 266.669 265.421 266.354 265.131 266.77C264.69 267.413 265.106 268.031 265.345 268.648C265.396 268.749 265.484 268.837 265.736 269.039C266.467 269.342 267.06 269.48 267.413 268.901L267.426 268.888Z" fill="#333333"/>
<path d="M287.271 149.532C288.027 149.129 288.103 148.523 287.712 147.855C287.472 147.439 287.031 147.25 286.565 147.414C285.947 147.653 285.858 148.196 285.884 148.801C285.909 149.154 285.972 149.469 286.476 149.696C286.855 149.671 287.081 149.646 287.271 149.532Z" fill="#333333"/>
<path d="M238.841 233.064C238.4 232.497 237.555 232.308 237.152 232.736C236.458 233.48 236.912 234.136 237.429 234.728C237.58 234.88 237.769 234.968 238.185 235.107C239.32 234.224 239.421 233.795 238.841 233.064Z" fill="#333333"/>
<path d="M156.295 221.456C156.471 221.103 156.509 220.56 156.383 220.182C156.219 219.59 155.677 219.375 155.059 219.413C154.441 219.451 154.05 219.791 153.811 220.611C153.924 221.43 154.277 221.859 154.857 222.01C155.45 222.174 156.017 221.985 156.282 221.443L156.295 221.456Z" fill="#333333"/>
<path d="M297.28 268.433C296.889 269.127 297.091 269.707 297.696 270.186C297.872 270.312 298.074 270.413 298.478 270.564C298.944 270.4 299.335 270.236 299.411 269.984C299.675 269.089 299.36 268.522 298.452 268.168C298.036 268.005 297.545 267.942 297.28 268.433Z" fill="#333333"/>
<path d="M210.044 264.058C210.195 264.21 210.41 264.273 210.876 264.386C211.57 264.247 212.011 264.008 211.897 263.516C211.658 262.444 210.359 261.524 209.237 261.562C209.086 261.562 208.846 261.801 208.808 261.965C208.544 263.037 209.464 263.453 210.031 264.071L210.044 264.058Z" fill="#333333"/>
<path d="M311.264 481.902C311.617 481.599 311.794 481.196 311.655 480.73C311.529 480.2 311.075 480.074 310.647 480.023C309.878 479.96 309.424 480.389 309.235 481.335C309.915 482.444 310.495 482.545 311.264 481.902Z" fill="#333333"/>
<path d="M289.918 428.687C289.123 427.54 288.619 426.834 289.275 425.926C289.439 425.687 289.338 425.283 288.997 425.094C288.594 424.867 288.127 424.804 287.787 425.145C287.585 425.346 287.547 425.712 287.573 426.191C288.846 426.506 288.72 427.868 289.943 428.687L289.918 428.687Z" fill="#333333"/>
<path d="M305.603 436.779C305.388 437.447 305.804 438.166 306.674 438.557C307.267 438.822 307.796 438.645 307.998 438.04C308.137 437.649 308.036 437.195 307.91 436.565C306.359 435.997 305.804 436.098 305.59 436.766L305.603 436.779Z" fill="#333333"/>
<path d="M265.786 245.203C265.735 245.985 265.962 246.464 266.416 246.792C266.807 247.082 267.274 247.019 267.601 246.691C267.803 246.489 268.005 246.136 267.98 245.859C267.929 245.279 267.513 244.913 266.996 244.674C266.555 244.485 266.164 244.649 265.798 245.191L265.786 245.203Z" fill="#333333"/>
<path d="M270.779 461.566C270.426 461.843 270.148 462.221 270.35 462.701C270.552 463.18 271.031 463.205 271.472 463.217C272.178 463.217 272.834 463.016 272.985 462.234C273.111 461.578 272.67 461.238 271.85 461.099C271.334 461.263 271.031 461.389 270.754 461.591L270.779 461.566Z" fill="#333333"/>
<path d="M237.228 486.925C237.102 487.959 237.884 488.136 238.956 488.022C239.687 487.669 240.015 487.291 240.04 486.686C240.065 486.207 239.876 485.816 239.435 485.652C238.514 485.286 237.342 485.904 237.216 486.913L237.228 486.925Z" fill="#333333"/>
<path d="M295.313 417.461C294.506 418.016 294.569 418.684 294.607 419.327C294.632 419.882 294.796 420.399 295.414 420.588C295.981 420.777 296.46 420.576 296.902 420.21C297.608 419.655 297.633 419.226 296.927 418.369C296.776 418.218 296.612 418.079 296.296 417.865C296.385 417.827 296.473 417.764 296.574 417.688C297.532 416.074 298.591 415.772 300.016 416.617C300.243 416.743 300.684 416.73 300.924 416.591C301.365 416.352 301.252 415.885 301.201 415.431C300.936 413.553 299.537 412.708 297.999 411.951C297.948 412.002 297.822 412.052 297.646 412.178C297.658 412.166 297.658 412.115 297.658 412.09C297.873 412.027 297.961 411.939 298.011 411.687C297.658 410.577 298.276 409.959 298.591 409.266C298.957 408.497 298.894 407.778 298.679 406.984C298.415 406.013 297.809 405.786 296.94 406.379C295.931 407.085 294.96 407.829 293.977 408.56C293.624 408.837 293.207 409.127 293.447 409.619C293.573 409.871 293.939 410.111 294.216 410.136C295.023 410.211 295.729 410.388 296.208 411.346C296.133 411.371 296.057 411.397 295.969 411.434C295.565 412.645 296.133 413.011 297.028 413.048C296.99 413.162 296.952 413.275 296.889 413.414C296.044 414.763 296.574 416.276 295.653 417.499C295.565 417.461 295.464 417.436 295.338 417.436L295.313 417.461Z" fill="#333333"/>
<path d="M281.28 331.609C280.99 330.562 280.335 330.234 279.528 330.209C279.074 330.184 278.67 330.411 278.582 330.903C278.456 331.584 278.922 332.252 279.805 332.58C280.536 332.857 281.053 332.567 281.28 331.609Z" fill="#333333"/>
<path d="M312.928 268.016C313.054 267.562 312.953 267.133 312.625 266.83C312.197 266.427 311.667 266.301 311.15 266.641C310.633 266.982 310.495 267.448 310.898 268.205C311.314 268.469 311.629 268.633 311.919 268.646C312.373 268.671 312.777 268.52 312.915 268.028L312.928 268.016Z" fill="#333333"/>
<path d="M254.827 411.696C254.55 411.772 254.197 412.024 254.121 412.276C254.058 412.516 254.222 412.932 254.411 413.096C255.017 413.625 255.71 413.839 256.479 413.323C256.82 413.083 257.21 412.894 257.324 412.629C256.441 411.999 255.786 411.368 254.815 411.683L254.827 411.696Z" fill="#333333"/>
<path d="M311.074 349.275C311.881 349.476 312.549 349.161 312.852 348.304C312.953 348.052 312.776 347.673 312.574 347.219C312.095 347.018 311.78 346.879 311.477 346.929C310.734 347.043 310.368 347.56 310.381 348.304C310.381 348.783 310.57 349.148 311.074 349.275Z" fill="#333333"/>
<path d="M272.809 382.271C272.595 382.208 272.368 382.258 271.952 382.372C271.284 383.04 271.132 383.67 271.561 384.301C271.851 384.717 272.343 384.729 272.771 384.628C273.452 384.477 274.057 384.099 274.146 383.38C274.247 382.472 273.414 382.447 272.797 382.258L272.809 382.271Z" fill="#333333"/>
<path d="M131.129 324.815C131.532 324.26 131.305 323.529 130.574 322.924C130.461 322.81 130.171 322.898 129.78 322.987C128.973 323.743 128.859 324.386 129.717 324.941C130.196 325.269 130.738 325.357 131.129 324.815Z" fill="#333333"/>
<path d="M235.89 476.459C236.218 476.106 236.269 475.653 236.067 475.249C235.701 474.48 235.096 474.505 234.302 474.997C233.76 475.867 233.987 476.396 234.693 476.724C235.134 476.939 235.563 476.838 235.89 476.485L235.89 476.459Z" fill="#333333"/>
<path d="M289.147 294.971C289.223 294.164 288.971 293.711 288.416 293.458C287.748 293.168 287.054 293.408 286.764 294.001C286.5 294.593 286.827 295.274 287.546 295.564C288.126 295.791 288.605 295.539 289.147 294.971Z" fill="#333333"/>
<path d="M315.412 367.681C315.463 368.438 316.017 368.514 316.61 368.4C317.102 368.312 317.417 367.921 317.304 367.455C317.089 366.534 316.774 365.639 316.32 364.882C316.383 364.744 316.446 364.605 316.497 364.429C316.383 363.811 316.32 363.344 316.068 363.016C315.349 362.121 314.441 362.02 313.811 362.651C313.168 363.294 313.092 364.202 313.723 365.009C313.975 365.336 314.429 365.488 315.059 365.765C315.009 365.815 314.958 365.866 314.933 365.942C315.425 366.61 315.374 367.165 315.412 367.707V367.681Z" fill="#333333"/>
<path d="M277.688 545.41C277.499 545.498 277.385 545.713 277.171 546.104C277.411 547.478 277.751 547.793 278.457 547.591C279.365 547.314 279.768 546.684 279.592 545.851C279.428 545.108 278.772 544.931 277.688 545.41Z" fill="#333333"/>
<path d="M226.296 249.518C226.775 247.778 225.679 247.186 224.632 246.568C224.317 246.379 223.649 246.795 223.686 247.186C223.724 247.602 223.787 248.068 223.989 248.421C224.456 249.266 225.325 249.48 226.183 249.707C226.183 249.707 226.208 249.682 226.296 249.518Z" fill="#333333"/>
<path d="M181.625 361.292C181.171 361.393 180.831 361.683 180.629 362.313C180.907 362.944 181.297 363.107 181.764 363.12C182.407 363.133 183.126 363.246 183.567 362.578C183.756 362.288 183.731 361.935 183.479 361.658C182.962 361.09 182.294 361.128 181.625 361.292Z" fill="#333333"/>
<path d="M282.946 219.172C283.576 218.693 283.677 217.886 283.16 217.193C282.807 216.714 282.29 216.449 281.723 216.789C281.004 217.231 281.117 217.874 281.496 218.504C281.609 218.693 281.786 218.844 282.113 219.097C282.517 219.197 282.794 219.273 282.933 219.16L282.946 219.172Z" fill="#333333"/>
<path d="M250.265 528.985C250.479 529.199 250.807 529.3 251.311 529.451C251.778 529.262 252.105 529.111 252.257 528.859C252.585 528.329 252.459 527.799 252.005 527.396C251.525 526.967 250.58 527.03 250.227 527.509C249.874 527.989 249.849 528.543 250.277 528.997L250.265 528.985Z" fill="#333333"/>
<path d="M230.898 237.204C231.188 236.788 231.377 236.422 231.263 236.182C230.885 235.375 230.318 234.732 229.309 234.783C229.145 234.795 228.906 235.01 228.868 235.174C228.54 236.258 229.347 236.712 230.053 237.191C230.217 237.304 230.469 237.279 230.91 237.216L230.898 237.204Z" fill="#333333"/>
<path d="M112.279 438.93C112.67 438.414 112.417 437.884 111.472 437.216C111.409 437.153 111.257 437.203 110.993 437.266C110.148 438.061 110.324 438.691 111.131 439.145C111.522 439.359 111.976 439.309 112.291 438.918L112.279 438.93Z" fill="#333333"/>
<path d="M231.982 262.719C232.108 262.467 232.032 262.089 231.969 261.799C231.843 261.219 231.452 260.878 230.633 260.992C230.128 261.395 229.901 261.824 230.103 262.228C230.28 262.581 230.595 262.946 230.935 263.135C231.351 263.35 231.805 263.148 231.994 262.732L231.982 262.719Z" fill="#333333"/>
<path d="M286.551 375.989C286.274 376.695 285.895 377.124 285.656 377.616C285.416 378.107 285.757 378.448 286.211 378.624C286.816 378.877 287.32 378.65 287.673 378.171C287.963 377.78 287.925 377.338 287.597 376.96C287.257 376.569 286.652 376.393 286.601 375.762C286.601 375.687 286.601 375.611 286.589 375.498C286.576 375.586 286.564 375.649 286.564 375.75C286.538 375.775 286.513 375.8 286.538 375.977L286.551 375.989Z" fill="#333333"/>
<path d="M244.982 413.806C244.465 413.995 243.809 414.197 244.062 414.903C244.263 415.457 244.856 415.646 245.449 415.609C246.028 415.558 246.52 415.319 246.835 414.827C247.239 414.222 246.999 413.806 246.142 413.553C245.6 413.642 245.259 413.705 244.969 413.818L244.982 413.806Z" fill="#333333"/>
<path d="M227.582 440.281C227.948 439.538 227.557 439.021 226.12 438.693C225.288 439.928 225.262 440.408 225.842 440.71C226.511 441.051 227.292 440.849 227.57 440.294L227.582 440.281Z" fill="#333333"/>
<path d="M183.567 341.297C183.479 341.99 184.097 342.204 184.626 342.356C185.168 342.494 185.761 342.608 186.089 341.977C186.417 341.347 185.9 340.981 185.269 340.527C184.298 340.288 183.693 340.49 183.58 341.309L183.567 341.297Z" fill="#333333"/>
<path d="M238.716 252.053C237.443 251.284 237.039 251.284 236.812 251.889C236.548 252.557 236.838 253.25 237.468 253.452C238.098 253.654 238.464 253.314 238.729 252.065L238.716 252.053Z" fill="#333333"/>
<path d="M167.151 214.199C167.34 214.187 167.504 213.972 167.769 213.682C167.832 213.392 167.845 213.279 167.807 213.191C167.605 212.611 167.252 212.233 166.597 212.409C166.143 212.535 165.777 212.85 165.903 213.38C166.067 213.998 166.559 214.237 167.151 214.199Z" fill="#333333"/>
<path d="M232.184 392.412C232.234 393.017 232.877 393.257 233.735 393.08C234.176 392.992 234.541 392.803 234.617 392.299C234.705 391.555 234.188 391.416 233.419 391.353C232.688 391.53 232.121 391.744 232.184 392.412Z" fill="#333333"/>
<path d="M150.267 360.626C150.418 360.323 150.292 359.92 149.977 359.781C149.107 359.39 148.262 359.504 147.342 360.223C147.191 361.383 147.909 361.37 148.565 361.395C149.246 361.42 149.914 361.332 150.254 360.639L150.267 360.626Z" fill="#333333"/>
<path d="M159.574 349.631C159.649 349.43 159.637 349.19 159.574 348.799C159.309 348.484 159.133 348.307 158.943 348.244C158.326 348.055 157.821 348.232 157.607 348.875C157.418 349.467 157.569 349.997 158.212 350.211C158.805 350.4 159.322 350.262 159.574 349.631Z" fill="#333333"/>
<path d="M133.688 370.468C134.016 370.972 134.546 371.199 135.1 370.997C135.97 370.682 135.756 370.014 135.327 369.232C134.634 368.766 134.092 368.803 133.688 369.257C133.386 369.585 133.423 370.077 133.688 370.468Z" fill="#333333"/>
<path d="M335.434 435.015C335.446 434.877 335.421 434.725 335.383 434.536C335.396 434.07 335.421 433.818 335.522 433.338C335.547 433.364 335.572 433.389 335.61 433.427C336.001 432.834 336.152 432.33 335.648 432.027C335.635 431.914 335.61 431.788 335.585 431.662C335.585 431.535 335.509 431.308 335.434 431.082C335.522 431.094 335.597 431.119 335.698 431.119C336.316 430.174 336.783 429.405 337.174 428.61C337.539 427.892 337.262 427.211 336.581 426.984C335.913 426.769 335.055 427.072 334.904 427.677C334.791 428.093 334.791 428.547 334.828 428.989C334.866 429.505 334.639 429.859 334.4 430.249C334.236 430.237 334.059 430.262 333.832 430.312C332.496 430.06 331.525 429.216 330.352 429.682C329.382 430.048 328.663 429.758 327.919 429.089C327.074 428.32 326.141 427.841 324.893 427.854C321.287 427.904 321.274 427.866 319.219 430.955C319.043 431.233 318.854 431.523 318.564 432.04C318.564 432.04 318.551 432.052 318.551 432.078C318.513 432.015 318.488 431.939 318.45 431.851C317.341 432.38 316.445 432.821 315.613 433.351C314.869 433.818 314.226 433.704 313.445 433.376C313.457 433.238 313.47 433.099 313.482 432.935C313.155 431.195 311.843 431.069 310.683 430.766C310.507 430.716 310.255 430.842 310.078 430.968C308.906 431.737 308.754 433.351 309.725 434.372C310.116 434.763 310.494 435.167 310.91 435.532C311.73 436.226 311.982 436.201 313.268 435.091C313.382 435.154 313.508 435.23 313.672 435.293C314.642 435.885 315.071 436.768 316.017 436.907C316.899 437.033 317.378 436.301 318.009 435.898C318.753 435.431 319.144 436.049 319.799 436.402C319.761 436.491 319.724 436.579 319.761 436.667C320.278 438.167 321.35 438.029 322.245 437.966C322.548 438.041 322.85 438.117 323.153 438.218C324.162 438.369 324.981 438.407 325.662 438.029C326.633 437.487 327.364 438.016 328.386 438.407C328.386 438.407 328.335 438.609 328.31 438.71C328.663 439.113 328.852 439.227 329.041 439.365C329.041 439.39 329.104 439.428 329.104 439.176C329.344 438.634 329.596 438.205 329.747 437.802C329.924 437.676 330.1 437.524 330.302 437.373C331.273 436.352 331.928 435.217 333.605 436.062C333.568 436.1 333.505 436.137 333.467 436.175C334.021 437.537 334.274 437.638 334.967 436.919C335.534 436.352 336.266 435.772 335.421 435.028L335.434 435.015Z" fill="#333333"/>
<path d="M142.211 463.166C143.005 463.002 143.497 462.46 143.282 461.792C143.017 460.896 142.349 461.06 141.542 461.489C141.227 462.863 141.454 463.317 142.198 463.153L142.211 463.166Z" fill="#333333"/>
<path d="M213.386 330.869C213.764 331.121 214.243 331.147 214.634 330.882C215.189 330.504 215.214 329.999 214.823 329.482C214.571 329.155 214.117 328.928 214.205 328.638C213.865 329.054 213.537 329.205 213.335 329.457C212.982 329.911 212.781 330.466 213.386 330.869Z" fill="#333333"/>
<path d="M250.668 231.578C251.033 230.809 250.554 230.355 250.025 229.952C249.571 229.599 249.054 229.536 248.373 229.989C248.423 230.569 248.512 231.036 248.776 231.326C249.52 232.145 250.327 232.221 250.642 231.578L250.668 231.578Z" fill="#333333"/>
<path d="M309.145 529.762C309.447 530.367 309.952 530.342 311.049 529.447C311.149 528.64 311.036 528.123 310.519 527.783C310.216 527.581 309.901 527.568 309.599 527.745C308.918 528.148 308.741 528.981 309.132 529.75L309.145 529.762Z" fill="#333333"/>
<path d="M244.692 410.159C245.146 409.857 245.234 409.088 244.843 408.772C244.276 408.331 243.658 408.293 243.053 408.671C242.498 409.024 242.448 409.504 242.965 410.172C243.683 410.462 244.213 410.487 244.692 410.159Z" fill="#333333"/>
<path d="M276.905 385.942C277.573 386.61 278.191 386.723 278.847 386.446C279.364 386.232 279.591 385.5 279.288 385.097C278.847 384.479 278.241 384.378 277.548 384.517C276.905 384.656 276.691 385.122 276.905 385.942Z" fill="#333333"/>
<path d="M250.971 306.648C251.311 306.081 251.336 305.652 251.059 305.274C250.731 304.795 250.29 304.505 249.672 304.669C249.18 304.807 249.004 305.211 248.978 305.665C248.928 306.27 249.218 306.736 249.823 306.862C250.113 306.925 250.466 306.825 250.958 306.661L250.971 306.648Z" fill="#333333"/>
<path d="M280.752 395.459C280.6 395.485 280.436 395.522 280.272 395.535C279.377 395.447 278.659 395.308 278.192 395.926C277.726 396.544 277.183 397.414 277.536 398.044C278.041 398.952 278.633 399.872 279.68 400.44C281.067 401.196 282.227 400.843 283.399 400.15C284.572 399.456 284.484 398.334 284.269 397.212C284.206 396.796 283.992 396.405 283.664 395.85C283.639 395.825 283.626 395.812 283.601 395.787C283.689 395.775 283.765 395.775 283.853 395.762C282.983 393.253 282.895 393.24 281.218 394.842C281.029 395.031 280.852 395.207 280.752 395.434L280.752 395.459Z" fill="#333333"/>
<path d="M259.394 395.131C259.129 395.245 258.953 395.547 258.726 395.976C258.94 396.392 259.129 396.707 259.407 396.808C259.961 397.01 260.516 396.884 260.756 396.266C260.844 396.026 260.743 395.623 260.579 395.383C260.302 394.955 259.823 394.955 259.419 395.131L259.394 395.131Z" fill="#333333"/>
<path d="M213.612 287.088C213.612 287.088 213.586 287.138 213.549 287.227C214.381 288.664 214.595 288.777 215.453 288.424C215.793 288.286 215.944 287.933 215.793 287.605C215.654 287.34 215.389 287.075 215.125 286.937C214.595 286.634 214.066 286.735 213.624 287.1L213.612 287.088Z" fill="#333333"/>
<path d="M307.19 341.409C307.317 340.754 306.737 340.199 305.967 340.262C305.514 340.287 305.148 340.527 304.997 341.208C305.161 341.876 305.526 342.115 305.98 342.191C306.61 342.292 307.077 342.052 307.203 341.422L307.19 341.409Z" fill="#333333"/>
<path d="M289.288 436.95C289.225 437.013 289.2 437.139 289.15 437.442C289.553 438.602 290.234 438.526 290.953 438.035C291.318 437.77 291.52 437.291 291.205 436.925C290.612 436.232 289.919 436.32 289.301 436.963L289.288 436.95Z" fill="#333333"/>
<path d="M254.034 365.892C254.261 366.421 254.677 366.888 255.269 366.774C255.9 366.648 255.95 365.992 255.925 365.438C255.925 364.883 255.875 364.278 255.194 364.177C254.727 364.089 254.412 364.505 254.021 365.047C253.958 365.488 253.946 365.702 254.021 365.904L254.034 365.892Z" fill="#333333"/>
<path d="M212.781 234.087C212.566 233.671 212.176 233.432 211.722 233.532C211.444 233.608 211.091 233.835 211.003 234.075C210.789 234.692 211.179 235.058 211.936 235.235C212.718 235.058 213.096 234.73 212.768 234.075L212.781 234.087Z" fill="#333333"/>
<path d="M228.112 512.731C228.112 512.731 228.314 512.655 228.566 512.478C229.171 511.545 228.755 511.079 228.036 510.89C227.431 510.739 226.939 511.054 226.864 511.709C226.75 512.655 227.393 512.768 228.125 512.718L228.112 512.731Z" fill="#333333"/>
<path d="M217.848 420.887C217.243 420.786 216.776 420.749 216.385 420.887C215.957 421.039 215.616 421.429 215.73 421.921C215.83 422.375 216.234 422.652 216.7 422.716C217.583 422.842 217.911 422.413 217.835 420.875L217.848 420.887Z" fill="#333333"/>
<path d="M236.232 385.389C236.119 386.058 236.686 386.625 237.405 386.587C237.695 386.574 238.061 386.411 238.212 386.184C238.54 385.654 238.363 385.175 237.645 384.784C236.863 384.608 236.346 384.721 236.245 385.377L236.232 385.389Z" fill="#333333"/>
<path d="M270.022 310.266C270.299 309.711 270.123 309.157 269.593 308.904C269.253 308.741 268.774 308.867 268.168 308.967C267.374 310.165 268.244 310.329 268.938 310.619C269.391 310.796 269.808 310.707 270.035 310.279L270.022 310.266Z" fill="#333333"/>
<path d="M206.83 325.194C207.271 325.156 207.75 325.08 207.876 324.601C207.99 324.135 207.637 323.807 207.032 323.504C206.704 323.429 206.603 323.403 206.489 323.416C205.897 323.454 205.38 323.643 205.367 324.311C205.355 325.03 205.96 325.105 206.502 325.194C206.603 325.219 206.716 325.206 206.83 325.194Z" fill="#333333"/>
<path d="M80.5068 336.733C80.8346 336.506 80.7211 336.14 80.4816 335.901C79.9899 335.384 79.3721 335.321 78.5273 335.56C78.2878 335.951 78.086 336.405 78.2121 336.506C78.8677 337.162 79.7881 337.225 80.5068 336.733Z" fill="#333333"/>
<path d="M307.873 310.589C308.226 309.959 307.948 309.505 306.877 308.963C306.788 308.925 306.675 308.963 306.334 309.076C305.553 310.06 305.906 310.64 306.763 310.968C307.179 311.131 307.633 311.031 307.885 310.577L307.873 310.589Z" fill="#333333"/>
<path d="M236.333 350.742C236.749 350.527 236.875 350.073 236.761 349.632C236.623 349.039 236.232 348.674 235.602 348.775C235.312 348.813 235.034 349.039 234.694 349.38C234.706 349.897 234.706 350.25 234.87 350.489C235.248 350.994 235.816 351.006 236.333 350.767L236.333 350.742Z" fill="#333333"/>
<path d="M198.292 323.697C198.708 323.356 198.569 322.94 198.153 322.423C197.611 322.058 197.182 321.982 196.779 322.209C196.615 322.297 196.426 322.512 196.413 322.701C196.363 323.18 196.678 323.495 197.069 323.709C197.485 323.924 197.914 323.999 198.292 323.697Z" fill="#333333"/>
<path d="M268.547 573.217C268.951 572.813 269.203 572.284 268.787 571.792C268.232 571.161 267.652 571.439 267.16 571.956C267.009 572.107 266.933 572.309 266.795 572.75C267.702 573.759 267.992 573.797 268.547 573.217Z" fill="#333333"/>
<path d="M308.981 440.632C309.107 441.312 309.649 441.502 310.242 441.388C311.036 441.224 311.276 440.657 311.049 439.9C310.986 439.711 310.797 439.547 310.456 439.308C310.154 439.232 310.04 439.219 309.927 439.232C309.069 439.333 308.83 439.9 308.968 440.644L308.981 440.632Z" fill="#333333"/>
<path d="M262.645 491.108C262.028 489.708 261.801 489.557 260.893 489.835C260.464 489.961 260.086 490.238 260.073 490.73C260.048 491.284 260.477 491.486 260.918 491.474C261.448 491.474 261.977 491.348 262.633 491.095L262.645 491.108Z" fill="#333333"/>
<path d="M304.846 463.431C304.846 463.431 304.973 463.482 305.048 463.507C305.212 463.066 305.263 462.738 305.162 462.36C305.275 462.322 305.414 462.259 305.54 462.183C306.435 461.288 306.006 460.632 305.603 459.977C305.25 459.397 304.783 458.93 304.052 458.981C303.106 459.018 302.375 459.498 302.06 460.393C301.795 461.111 302.123 461.641 303.106 461.868C303.132 461.893 303.157 461.918 303.195 461.906C303.144 461.931 303.069 461.956 303.018 462.007C303.321 462.309 303.535 462.473 303.863 462.776C303.762 462.776 303.661 462.776 303.548 462.788C303.195 463.066 303.018 463.192 302.892 463.368C302.539 463.847 302.438 464.377 302.917 464.806C303.371 465.209 303.939 465.121 304.418 464.793C304.783 464.554 304.935 464.15 304.846 463.457L304.846 463.431Z" fill="#333333"/>
<path d="M291.392 241.416C291.997 241.088 291.846 240.533 291.505 239.84C290.812 239.373 290.32 239.336 290.056 240.004C289.829 240.559 289.967 241.101 290.497 241.378C290.724 241.504 291.14 241.517 291.379 241.403L291.392 241.416Z" fill="#333333"/>
<path d="M213.134 326.325C212.755 326.93 213.285 327.283 213.638 327.662C213.865 327.889 214.067 328.141 214.256 328.355C214.268 328.343 214.243 328.368 214.382 328.179C214.583 327.901 214.659 327.826 214.735 327.75C215.201 327.157 215.252 326.552 214.558 326.136C214.092 325.871 213.499 325.758 213.134 326.325Z" fill="#333333"/>
<path d="M259.267 459.335C259.821 460.218 260.553 460.142 261.297 459.978C261.65 459.902 261.877 459.625 261.801 459.297C261.738 459.032 261.536 458.679 261.297 458.566C260.515 458.238 259.859 458.616 259.254 459.322L259.267 459.335Z" fill="#333333"/>
<path d="M213.712 483.602C213.346 483.867 213.258 484.409 213.56 484.762C214.04 485.292 214.67 485.368 215.275 484.888C215.351 484.813 215.401 484.712 215.477 484.409C215.099 483.325 214.481 483.035 213.699 483.615L213.712 483.602Z" fill="#333333"/>
<path d="M212.491 364.219C212.478 364.837 213.134 365.442 213.802 365.354C214.647 365.24 214.836 364.698 214.244 363.828C213.739 363.652 213.411 363.576 213.109 363.601C212.756 363.626 212.504 363.879 212.491 364.219Z" fill="#333333"/>
<path d="M39.4407 335.154C39.9325 334.663 39.5794 334.209 38.9112 333.793C38.1295 333.692 37.5621 333.856 37.6882 334.537C37.8017 335.306 38.886 335.684 39.4407 335.154Z" fill="#333333"/>
<path d="M248.99 383.145C249.18 382.855 249.18 382.502 248.927 382.275C248.726 382.073 248.398 381.897 248.12 381.871C247.528 381.808 247.137 382.199 246.86 382.93C248.209 383.851 248.549 383.863 248.978 383.157L248.99 383.145Z" fill="#333333"/>
<path d="M128.62 271.821C128.986 271.405 128.822 270.737 128.267 270.459C127.712 270.182 127.22 270.27 126.88 271.039C127.069 271.506 127.246 271.783 127.498 271.985C127.901 272.313 128.317 272.174 128.632 271.809L128.62 271.821Z" fill="#333333"/>
<path d="M282.467 357.786C283.135 357.697 283.312 357.244 283.16 356.437C282.669 355.894 282.341 355.314 281.723 355.705C281.181 356.046 281.282 356.626 281.484 357.13C281.647 357.521 281.963 357.836 282.467 357.786Z" fill="#333333"/>
<path d="M138.794 290.215C138.946 290.064 139.046 289.862 139.172 289.484C138.92 289.08 138.693 288.803 138.416 288.727C137.861 288.576 137.281 288.702 137.143 289.345C137.067 289.597 137.18 290.039 137.369 290.202C137.786 290.619 138.328 290.656 138.807 290.202L138.794 290.215Z" fill="#333333"/>
<path d="M88.6257 344.826C88.6761 345.331 89.0543 345.558 89.5209 345.595C90.1387 345.658 90.5926 345.431 90.7691 344.599C90.4286 343.83 89.9621 343.641 89.3569 343.893C88.9409 344.057 88.5626 344.309 88.6257 344.826Z" fill="#333333"/>
<path d="M289.729 355.164C290.171 355.101 290.397 355.051 290.574 354.924C291.091 354.534 291.192 354.029 290.788 353.5C290.36 352.945 289.654 352.995 289.086 353.638C288.519 354.281 288.632 354.824 289.729 355.164Z" fill="#333333"/>
<path d="M143.245 313.002C143.762 312.485 143.535 312.006 143.094 311.565C142.753 311.225 142.325 311.099 141.896 311.351C141.253 311.716 141.404 312.271 141.682 312.775C141.846 313.065 142.11 313.28 142.489 313.431C142.854 313.217 143.081 313.141 143.233 312.99L143.245 313.002Z" fill="#333333"/>
<path d="M143.409 315.688C143.762 315.234 143.447 314.868 143.169 314.541C142.879 314.2 142.589 313.885 142.299 313.57C142.299 313.57 142.312 313.557 142.173 313.746C141.82 314.2 141.518 314.427 141.442 314.73C141.291 315.36 141.644 315.764 142.236 315.953C142.678 316.091 143.119 316.104 143.422 315.701L143.409 315.688Z" fill="#333333"/>
<path d="M233.155 559.208C231.415 559.032 231.113 559.183 231.05 559.952C231.024 560.305 231.201 560.633 231.529 560.709C232.588 560.936 233.13 560.419 233.155 559.208Z" fill="#333333"/>
<path d="M151.139 333.677C151 333.009 150.647 332.782 150.206 332.719C149.739 332.63 149.31 332.807 149.222 333.273C149.172 333.525 149.361 333.916 149.563 334.118C150.143 334.698 150.685 334.585 151.151 333.689L151.139 333.677Z" fill="#333333"/>
<path d="M236.659 256.552C237.277 256.262 237.126 255.682 236.81 254.989C236.155 254.61 235.613 254.472 235.31 255.102C235.197 255.342 235.222 255.745 235.36 255.985C235.625 256.476 236.092 256.817 236.659 256.552Z" fill="#333333"/>
<path d="M309.069 508.529C309.018 509.311 309.145 509.84 309.888 509.702C310.62 509.55 311.061 508.806 310.758 508.327C310.393 507.76 309.888 507.861 309.384 508.138C309.296 508.176 309.233 508.289 309.081 508.542L309.069 508.529Z" fill="#333333"/>
<path d="M250.226 286.031C250.239 285.564 250.189 285.237 250.025 284.997C249.772 284.644 249.382 284.43 248.928 284.581C248.575 284.707 248.486 285.022 248.499 285.363C248.512 285.829 248.726 286.22 249.192 286.308C249.495 286.359 249.798 286.233 250.226 286.031Z" fill="#333333"/>
<path d="M288.832 256.703C287.937 257.145 288.504 257.737 289.047 258.355C289.879 258.506 290.307 258.229 290.232 257.573C290.156 256.892 289.437 256.401 288.845 256.691L288.832 256.703Z" fill="#333333"/>
<path d="M230.683 244.856C231.074 244.516 230.86 244.1 230.456 243.57C229.927 243.192 229.486 242.978 229.158 243.356C228.792 243.797 228.817 244.352 229.259 244.768C229.687 245.171 230.23 245.235 230.671 244.844L230.683 244.856Z" fill="#333333"/>
<path d="M261.726 383.745C261.915 383.934 262.281 383.947 262.747 383.959C263.239 383.467 263.126 383.102 262.861 382.736C262.584 382.383 262.205 382.131 261.789 382.421C261.209 382.799 261.335 383.329 261.739 383.757L261.726 383.745Z" fill="#333333"/>
<path d="M292.577 312.701C292.06 311.427 291.555 311.15 291.165 311.692C290.812 312.196 290.812 312.701 291.215 313.129C291.707 313.621 292.148 313.382 292.577 312.701Z" fill="#333333"/>
<path d="M292.539 307.999C292.249 307.936 291.997 308.364 292.123 308.692C292.287 309.133 292.691 309.335 293.334 309.524C293.649 309.612 293.762 309.701 293.863 309.675C294.166 309.625 294.595 309.625 294.733 309.436C294.935 309.159 294.658 308.831 294.355 308.679C293.762 308.415 293.17 308.125 292.539 307.999Z" fill="#333333"/>
<path d="M267.94 466.416C267.814 466.542 267.751 466.807 267.764 467.021C267.789 467.525 268.104 467.815 268.621 467.803C268.823 467.803 269.037 467.689 269.352 467.425C269.365 466.933 269.34 466.555 269.125 466.365C268.785 466.025 268.293 466.113 267.94 466.416Z" fill="#333333"/>
<path d="M304.303 302.585C303.282 302.9 303.143 303.467 303.635 304.085C304.001 304.552 304.631 304.602 305.009 304.123C305.514 303.493 305.224 302.95 304.303 302.585Z" fill="#333333"/>
<path d="M113.955 347.384C114.132 346.35 113.715 345.96 112.921 346.149C112.467 346.25 112.177 346.691 112.316 347.132C112.581 347.926 113.173 347.99 113.955 347.384Z" fill="#333333"/>
<path d="M193.175 354.38C192.544 355.011 192.872 355.49 193.767 355.881C194.725 355.528 194.915 355.011 194.335 354.405C194.007 354.078 193.502 354.052 193.175 354.38Z" fill="#333333"/>
<path d="M312.121 357.305C312.814 357.998 313.457 357.734 314.063 357.154C314.138 357.078 314.214 357.002 314.126 356.738C313.369 356.031 312.726 355.691 312.071 356.448C311.844 356.675 311.856 357.065 312.121 357.305Z" fill="#333333"/>
<path d="M177.489 254.194C178.044 253.387 178.018 252.833 177.123 252.643C176.783 252.58 176.455 252.732 176.341 253.072C176.064 253.93 176.493 254.257 177.501 254.182L177.489 254.194Z" fill="#333333"/>
<path d="M303.055 318.333C303.471 319.228 303.988 319.493 304.606 318.825C304.858 318.573 304.833 318.194 304.606 317.917C304.014 317.223 303.484 317.4 303.055 318.333Z" fill="#333333"/>
<path d="M96.7968 331.685C96.5194 330.903 96.0908 330.651 95.536 331.029C95.3217 331.168 95.183 331.559 95.1956 331.824C95.246 332.505 95.8386 332.517 96.7968 331.685Z" fill="#333333"/>
<path d="M290.333 408.445C289.69 408.029 289.135 407.827 288.807 408.482C288.605 408.911 288.719 409.378 289.223 409.554C290.043 409.844 290.459 409.504 290.333 408.445Z" fill="#333333"/>
<path d="M273.034 213.147C273.425 212.63 273.223 211.974 272.694 211.848C272.252 211.735 271.799 211.836 271.673 212.34C271.609 212.605 271.761 212.933 271.988 213.336C272.479 213.349 272.87 213.336 273.022 213.134L273.034 213.147Z" fill="#333333"/>
<path d="M273.59 378.485C273.943 378.107 273.791 377.678 273.325 377.187C272.82 377.161 272.417 377.161 272.215 377.363C271.887 377.691 271.799 378.183 272.152 378.536C272.606 378.99 273.136 378.964 273.577 378.498L273.59 378.485Z" fill="#333333"/>
<path d="M312.814 515.278C312.537 515.354 312.335 515.657 312.096 516.073C312.285 516.741 312.625 517.006 313.117 516.892C313.558 516.779 313.861 516.401 313.773 515.909C313.684 515.442 313.306 515.14 312.814 515.278Z" fill="#333333"/>
<path d="M166.823 346.113C166.243 346.012 165.763 346.289 165.763 346.945C165.751 347.613 166.217 347.878 166.81 347.79C167.062 347.739 167.251 347.399 167.491 346.957C167.276 346.516 167.075 346.163 166.823 346.113Z" fill="#333333"/>
<path d="M310.179 207.295C311.011 207.043 311.023 206.45 310.431 205.656C309.409 205.492 308.956 205.845 309.17 206.69C309.271 207.144 309.712 207.434 310.166 207.307L310.179 207.295Z" fill="#333333"/>
<path d="M292.578 457.164C292.351 457.592 292.426 457.996 292.779 458.298C293.133 458.601 293.549 458.639 293.927 458.311C294.066 458.172 294.192 457.996 294.33 457.58C294.129 457.126 293.927 456.798 293.662 456.71C293.246 456.596 292.817 456.722 292.578 457.164Z" fill="#333333"/>
<path d="M248.019 498.947C247.793 498.493 247.603 498.153 247.351 498.102C246.746 498.001 246.28 498.266 246.28 498.947C246.28 499.628 246.733 499.905 247.339 499.804C247.603 499.767 247.793 499.401 248.032 498.96L248.019 498.947Z" fill="#333333"/>
<path d="M257.389 422.506C257.464 422.683 257.679 422.872 257.843 422.91C258.297 423.011 258.738 422.872 258.877 422.406C258.965 422.141 258.801 421.8 258.549 421.397C258.133 421.334 257.906 421.334 257.729 421.409C257.263 421.649 257.187 422.052 257.376 422.494L257.389 422.506Z" fill="#333333"/>
<path d="M125.443 471.889C125.808 472.205 126.262 472.255 126.615 471.927C126.804 471.738 126.867 471.373 126.855 470.906C126.54 470.666 126.338 470.54 126.136 470.54C125.644 470.528 125.317 470.805 125.266 471.309C125.253 471.499 125.304 471.776 125.443 471.889Z" fill="#333333"/>
<path d="M262.092 361.616C262.886 362.208 263.441 362.107 263.693 361.351C263.844 360.897 263.567 360.494 263.113 360.393C262.319 360.229 261.928 360.62 262.105 361.628L262.092 361.616Z" fill="#333333"/>
<path d="M240.998 389.37C240.897 389.32 240.796 389.269 240.644 389.219C239.888 389.194 239.333 389.143 238.791 389.181C238.362 389.206 237.934 389.307 237.518 389.446C236.887 389.648 236.534 390.429 236.711 391.034C236.912 391.69 237.467 391.741 238.047 391.69C239.258 391.589 240.216 390.984 241.199 389.975C241.25 390.076 241.313 390.165 241.426 390.278C242.347 390.644 242.939 390.53 243.027 389.66C243.09 388.992 242.498 388.576 241.666 388.727C241.401 388.765 241.174 389.017 241.023 389.37L240.998 389.37Z" fill="#333333"/>
<path d="M255.421 428.985C255.232 428.519 254.778 428.393 254.337 428.607C253.694 428.922 253.744 429.426 254.286 430.07C255.282 430.158 255.774 429.868 255.421 428.985Z" fill="#333333"/>
<path d="M310.569 513.987C310.998 513.458 311.061 513.042 310.771 512.676C310.38 512.184 309.674 512.31 309.51 512.878C309.321 513.596 309.447 514.151 310.569 513.987Z" fill="#333333"/>
<path d="M230.469 457.492C229.876 458.136 229.939 458.627 230.62 458.854C231.074 459.005 231.591 458.791 231.692 458.337C231.843 457.606 231.276 457.442 230.481 457.48L230.469 457.492Z" fill="#333333"/>
<path d="M221.177 399.432C221.479 399.457 221.782 399.381 222.223 399.167C222.337 398.372 222.047 398.007 221.404 398.045C220.95 398.07 220.597 398.297 220.609 398.814C220.622 399.154 220.849 399.406 221.189 399.419L221.177 399.432Z" fill="#333333"/>
<path d="M251.511 368.618C251.75 368.858 252.129 368.883 252.393 368.643C252.898 368.139 252.709 367.723 251.94 367.408C251.12 367.698 251.007 368.114 251.511 368.618Z" fill="#333333"/>
<path d="M257.754 412.86C258.687 413.793 259.443 414.499 260.528 413.642C260.49 413.654 260.553 413.667 260.364 413.478C259.632 412.747 259.103 412.217 258.586 411.7C258.598 411.713 258.611 411.675 258.435 411.851C258.031 412.255 257.817 412.469 257.602 412.684C257.615 412.671 257.59 412.671 257.766 412.848L257.754 412.86Z" fill="#333333"/>
<path d="M305.477 483.376C305.136 483.464 304.909 483.716 304.972 484.057C305.099 484.712 305.628 484.788 306.183 484.737C306.284 484.737 306.385 484.662 306.599 484.447C306.7 483.414 306.221 483.187 305.464 483.363L305.477 483.376Z" fill="#333333"/>
<path d="M262.166 280.778C262.582 280.992 262.922 281.131 263.2 281.055C263.54 280.992 263.729 280.677 263.692 280.312C263.641 279.958 263.402 279.719 263.061 279.681C262.431 279.631 262.002 279.858 262.179 280.765L262.166 280.778Z" fill="#333333"/>
<path d="M192.278 305.172C192.354 304.416 191.761 304.378 191.004 304.454C190.298 305.286 190.576 305.74 191.395 305.879C191.874 305.954 192.24 305.639 192.278 305.172Z" fill="#333333"/>
<path d="M190.488 216.886C190.211 216.709 189.87 216.722 189.618 216.999C189.391 217.276 189.353 217.592 189.593 217.856C189.807 218.071 190.085 218.247 190.564 218.424C191.383 217.781 191.131 217.276 190.501 216.873L190.488 216.886Z" fill="#333333"/>
<path d="M310.231 281.255C310.546 281.495 310.773 281.621 310.988 281.609C311.48 281.571 311.883 281.319 311.795 280.776C311.719 280.272 311.29 280.07 310.799 280.133C310.294 280.209 310.042 280.537 310.231 281.255Z" fill="#333333"/>
<path d="M243.305 261.583C244.036 261.28 244.402 260.889 243.885 260.347C243.582 260.019 243.028 260.019 242.725 260.347C242.221 260.877 242.523 261.305 243.305 261.583Z" fill="#333333"/>
<path d="M275.594 338.888C275.518 338.208 274.926 338.069 274.371 338.271C273.64 338.523 273.791 339.027 274.333 339.645C275.14 339.771 275.669 339.62 275.581 338.901L275.594 338.888Z" fill="#333333"/>
<path d="M124.889 385.779C125.38 385.287 125.368 384.871 124.863 384.669C124.397 384.48 123.993 384.732 123.93 385.224C123.855 385.779 124.246 385.943 124.889 385.779Z" fill="#333333"/>
<path d="M221.428 372.195C222.184 371.767 222.79 371.313 221.958 370.708C221.441 370.342 220.898 370.758 220.659 371.25C220.444 371.716 220.747 372.044 221.428 372.17L221.428 372.195Z" fill="#333333"/>
<path d="M275.847 483.58C275.519 483.883 275.507 484.425 275.835 484.728C276.364 485.207 276.793 484.904 277.083 484.16C276.805 483.378 276.364 483.114 275.847 483.58Z" fill="#333333"/>
<path d="M216.575 397.019C216.575 396.489 215.97 396.187 215.352 396.401C214.646 396.653 214.76 397.145 215.302 397.763C216.096 397.876 216.588 397.712 216.575 397.019Z" fill="#333333"/>
<path d="M242.876 372.618C243.506 372.896 244.099 372.631 244.149 372.101C244.174 371.572 243.834 371.307 243.355 371.282C243.166 371.269 242.951 371.408 242.624 371.635C242.447 372.164 242.561 372.48 242.876 372.618Z" fill="#333333"/>
<path d="M259.998 259.923C259.746 259.67 259.343 259.67 259.09 259.923C258.586 260.427 258.637 260.881 259.532 261.171C260.414 260.868 260.503 260.427 259.998 259.923Z" fill="#333333"/>
<path d="M280.372 465.332C280.347 464.878 279.994 464.551 279.515 464.651C278.733 464.803 278.456 465.257 279.111 466.064C279.855 466.127 280.41 466.051 280.372 465.332Z" fill="#333333"/>
<path d="M290.926 332.129C290.636 331.26 290.169 331.146 289.69 331.676C289.514 331.852 289.514 332.407 289.665 332.583C290.157 333.151 290.598 332.936 290.926 332.129Z" fill="#333333"/>
<path d="M186.43 370.965C186.833 370.662 186.833 370.234 186.606 369.83C186.442 369.54 186.115 369.389 185.799 369.503C185.333 369.692 185.219 370.082 185.346 370.536C185.371 370.637 185.446 370.713 185.673 370.94C186.039 371.028 186.291 371.053 186.442 370.952L186.43 370.965Z" fill="#333333"/>
<path d="M274.22 349.211C274.498 348.933 274.637 348.719 274.624 348.53C274.561 348.013 274.183 347.761 273.704 347.862C273.426 347.912 273.061 348.152 272.985 348.379C272.859 348.883 273.212 349.16 273.691 349.286C273.792 349.312 273.905 349.299 274.208 349.223L274.22 349.211Z" fill="#333333"/>
<path d="M277.209 435.564C277.209 435.766 277.335 435.967 277.587 436.295C278.129 436.484 278.444 436.371 278.583 436.056C278.861 435.425 278.596 434.833 278.054 434.795C277.537 434.757 277.247 435.072 277.221 435.576L277.209 435.564Z" fill="#333333"/>
<path d="M263.44 407.772C263.68 407.432 263.983 407.003 263.491 406.688C263.087 406.436 262.697 406.726 262.394 407.054C261.877 407.621 261.89 408.189 262.558 408.63C262.999 408.239 263.264 408.025 263.44 407.772Z" fill="#333333"/>
<path d="M67.1528 377.595C67.3546 376.687 67.0394 376.195 66.2829 376.095C65.9046 376.044 65.6651 376.309 65.7029 376.674C65.7785 377.431 66.2703 377.771 67.1654 377.608L67.1528 377.595Z" fill="#333333"/>
<path d="M275.179 424.156C275.267 424.774 275.696 425.026 276.301 424.9C276.402 424.875 276.49 424.786 276.666 424.534C276.792 423.727 276.629 423.261 275.922 423.311C275.481 423.349 275.103 423.626 275.166 424.143L275.179 424.156Z" fill="#333333"/>
<path d="M242.65 368.979C242.751 368.752 242.675 368.348 242.524 368.172C242.209 367.832 241.805 367.832 241.477 368.437C241.603 368.79 241.717 369.004 241.881 369.092C242.146 369.256 242.524 369.357 242.663 368.991L242.65 368.979Z" fill="#333333"/>
<path d="M78.2479 413.224C78.1092 412.908 77.7436 412.745 77.4158 412.896C76.7349 413.224 76.7853 413.703 77.504 414.22C78.2101 414.068 78.4496 413.703 78.2479 413.224Z" fill="#333333"/>
<path d="M304.076 259.874C304.366 260.215 304.756 260.479 305.185 260.051C305.45 259.786 305.437 259.445 305.185 259.168C305.034 259.017 304.845 258.878 304.441 258.727C303.811 259.055 303.71 259.458 304.063 259.862L304.076 259.874Z" fill="#333333"/>
<path d="M294.443 376.775C294.342 376.876 294.229 376.964 294.103 377.065C293.762 377.456 293.573 377.695 293.246 378.099C293.246 378.099 293.233 378.01 293.233 377.96C292.754 378.363 292.287 378.653 292.602 379.17C292.514 379.284 292.426 379.397 292.312 379.511C290.825 382.335 292.01 384.251 294.027 386.168C294.04 386.18 294.052 386.193 294.065 386.206C294.015 386.206 293.952 386.193 293.889 386.206C295.225 387.467 296.902 387.555 298.415 387.908C298.478 388.021 298.516 388.135 298.579 388.273C298.869 388.563 299.058 388.702 299.361 389.03C299.373 389.043 299.361 389.08 299.386 389.106C299.323 389.093 299.272 389.068 299.184 389.055C299.247 389.698 299.335 390.165 299.562 390.493C299.562 390.593 299.55 390.682 299.537 390.77C299.587 390.77 299.487 390.77 299.55 391.035C299.575 391.06 299.6 391.085 299.6 391.11C299.537 391.072 299.461 391.022 299.386 390.997C299.512 392.031 300.142 392.51 300.659 393.077C301.088 393.556 301.126 393.922 300.823 394.527C300.104 395.927 300.117 396.015 301.643 396.229C301.655 396.242 301.668 396.255 301.693 396.28C301.769 396.355 301.844 396.431 302.122 396.633C303.584 397.49 304.379 396.57 305.501 395.826C305.488 395.889 305.476 395.927 305.463 395.99C306.207 395.775 306.648 395.435 306.207 394.918C306.27 394.754 306.32 394.578 306.371 394.376C306.396 393.569 306.194 393.065 305.551 392.497C305.551 392.472 305.564 392.434 305.551 392.396C305.602 392.396 305.639 392.409 305.703 392.396C305.766 391.652 305.955 391.186 306.484 391.312C308.01 391.652 309.598 391.249 311.074 391.917C311.755 392.22 312.07 391.728 312.208 391.136C312.271 390.921 312.271 390.694 312.309 390.48C312.461 389.522 312.208 388.69 311.502 388.059C310.784 387.416 310.09 387.958 309.346 388.198C307.985 388.626 307.606 388.5 306.522 387.391C306.56 387.177 306.61 386.975 306.623 386.76C307.304 386.13 307.947 385.815 308.249 384.882C308.287 384.92 308.325 384.957 308.363 384.995C308.981 384.504 309.422 384.163 309.775 383.734C310.065 383.394 310.897 383.419 310.557 382.398C309.712 382.89 308.93 383.52 307.985 383.684C307.859 383.558 307.707 383.432 307.493 383.344C306.787 381.402 306.585 379.511 305.526 377.821C306.421 377.254 307.102 376.876 307.745 376.434C308.212 376.094 308.035 375.64 307.783 375.262C307.417 374.719 306.661 374.568 306.358 374.946C305.854 375.552 305.4 376.207 304.921 376.989C304.82 376.964 304.706 376.926 304.606 376.901C304.126 376.371 304.026 375.943 304.19 375.274C304.19 375.274 304.19 375.274 304.19 375.249C304.227 375.287 304.24 375.35 304.278 375.388C304.568 374.795 304.694 374.266 304.013 374.165C303.963 374.039 303.9 373.9 303.799 373.749C303.03 372.98 302.26 372.765 301.189 372.702C301.126 372.74 301.075 372.765 301 372.79C301.075 372.715 301.138 372.652 301.214 372.576C299.802 373.181 298.491 373.786 297.52 374.707C297.268 374.858 297.003 374.997 296.738 375.136C296.309 375.363 296.07 375.526 295.679 375.791C295.666 375.753 295.679 375.716 295.666 375.678C295.061 376.006 294.431 376.157 294.443 376.775ZM302.399 392.749C302.399 392.749 302.513 392.686 302.563 392.636C302.563 392.636 302.538 392.661 302.55 392.674C302.5 392.699 302.45 392.724 302.387 392.737L302.399 392.749Z" fill="#333333"/>
<path d="M280.361 309.529C280.109 310.185 280.285 310.538 280.827 310.601C281.205 310.651 281.483 310.399 281.432 309.996C281.382 309.466 281.016 309.277 280.373 309.517L280.361 309.529Z" fill="#333333"/>
<path d="M275.847 292.995C275.658 293.411 275.923 293.852 276.377 293.953C276.856 294.054 277.121 293.738 276.995 293.058C276.503 292.616 276.049 292.541 275.835 293.007L275.847 292.995Z" fill="#333333"/>
<path d="M258.851 408.912C258.712 408.874 258.561 408.849 258.384 408.824C256.771 409.883 256.758 410.072 257.842 411.03C258.082 411.245 258.347 411.459 258.687 411.472C259.154 410.955 259.507 410.652 259.872 410.06C259.923 410.11 259.998 410.161 260.074 410.186C260.515 409.795 260.755 409.581 260.818 409.215C260.061 408.509 259.418 408.244 258.838 408.925L258.851 408.912Z" fill="#333333"/>
<path d="M270.652 396.908C270.501 397.639 270.778 397.967 271.295 397.853C271.761 397.74 272.064 397.261 271.875 396.82C271.648 396.315 271.169 396.416 270.652 396.908Z" fill="#333333"/>
<path d="M115.47 434.407C115.722 434.155 115.71 433.84 115.483 433.562C115.344 433.398 115.168 433.297 114.777 433.159C114.02 433.613 114.096 434.066 114.625 434.445C114.903 434.646 115.218 434.684 115.47 434.407Z" fill="#333333"/>
<path d="M291.645 398.533C291.834 398.873 292.225 398.861 292.515 398.621C292.894 398.318 293.007 397.928 292.326 397.549C291.671 397.726 291.393 398.054 291.658 398.52L291.645 398.533Z" fill="#333333"/>
<path d="M296.386 246.96C296.6 247.603 296.928 247.881 297.407 247.628C297.772 247.439 297.735 247.048 297.495 246.784C297.155 246.393 296.764 246.33 296.386 246.96Z" fill="#333333"/>
<path d="M138.34 274.455C138.466 273.925 138.188 273.673 137.482 273.724C137.029 274.228 137.054 274.631 137.571 274.82C137.899 274.947 138.252 274.82 138.352 274.442L138.34 274.455Z" fill="#333333"/>
<path d="M253.379 437.606C252.963 437.417 252.534 437.695 252.434 438.149C252.333 438.628 252.648 438.892 253.316 438.754C253.757 438.262 253.833 437.808 253.379 437.606Z" fill="#333333"/>
<path d="M229.699 436.271C229.838 435.905 229.876 435.666 229.788 435.502C229.536 435.073 229.132 434.871 228.729 435.275C228.325 435.678 228.489 436.069 228.918 436.346C229.094 436.447 229.334 436.409 229.687 436.283L229.699 436.271Z" fill="#333333"/>
<path d="M312.07 225.272C311.881 225.688 312.108 226.142 312.574 226.23C313.053 226.331 313.318 226.016 313.217 225.335C312.725 224.893 312.284 224.805 312.082 225.284L312.07 225.272Z" fill="#333333"/>
<path d="M305.791 475.65C305.992 476.305 306.345 476.557 306.812 476.293C307.152 476.103 307.165 475.713 306.913 475.435C306.572 475.044 306.169 475.019 305.791 475.65Z" fill="#333333"/>
<path d="M252.054 247.159C252.521 247.827 252.975 247.852 253.303 247.247C253.467 246.957 253.353 246.591 253.038 246.453C252.597 246.289 252.244 246.516 252.054 247.159Z" fill="#333333"/>
<path d="M302.904 293.4C303.433 293.198 303.332 292.719 303.005 292.341C302.929 292.265 302.828 292.215 302.526 292.165C302.223 292.366 302.034 292.555 302.046 292.719C302.072 293.224 302.425 293.602 302.916 293.413L302.904 293.4Z" fill="#333333"/>
<path d="M265.81 228.635C266.252 228.421 266.189 227.954 265.747 227.437C265.054 227.324 264.713 227.563 264.839 228.068C264.953 228.509 265.394 228.824 265.823 228.622L265.81 228.635Z" fill="#333333"/>
<path d="M301.052 224.368C301.493 223.851 301.543 223.372 301.077 223.157C300.648 222.956 300.169 223.183 300.093 223.687C300.018 224.191 300.346 224.469 301.064 224.355L301.052 224.368Z" fill="#333333"/>
<path d="M262.152 408.841C261.661 409.055 261.333 409.206 260.98 409.358C260.993 409.37 261.03 409.408 261.106 409.509C261.497 410.076 261.888 410.392 262.291 410.19C262.909 409.875 262.77 409.333 262.392 408.853C262.367 408.879 262.316 408.803 262.14 408.853L262.152 408.841Z" fill="#333333"/>
<path d="M307.986 321.345C307.469 321.156 307.229 321.32 307.242 321.711C307.254 321.85 307.469 322.089 307.62 322.089C307.998 322.114 308.162 321.85 307.998 321.333L307.986 321.345Z" fill="#333333"/>
<path d="M313.469 314.549C313.481 314.688 313.708 314.915 313.86 314.94C314.238 314.966 314.414 314.713 314.225 314.196C313.696 313.995 313.444 314.171 313.469 314.549Z" fill="#333333"/>
<path d="M303.055 334.547C302.765 333.98 302.412 333.703 301.984 334.131C301.719 334.396 301.732 334.711 301.971 334.976C302.4 335.43 302.715 335.115 303.043 334.56L303.055 334.547Z" fill="#333333"/>
<path d="M297.823 181.599C297.559 181.007 297.231 180.754 296.815 181.07C296.424 181.385 296.436 181.776 296.802 182.091C297.218 182.431 297.533 182.192 297.811 181.587L297.823 181.599Z" fill="#333333"/>
<path d="M291.923 412.153C292.251 412.707 292.579 412.733 292.869 412.317C292.92 412.266 292.919 412.09 292.869 412.014C292.579 411.598 292.264 411.585 291.911 412.14L291.923 412.153Z" fill="#333333"/>
<path d="M313.961 371.808C314.314 371.959 314.516 372.085 314.705 372.072C315.033 372.047 315.247 371.808 315.096 371.48C315.058 371.366 314.743 371.253 314.592 371.303C314.314 371.379 314.049 371.568 313.823 371.719C313.848 371.719 313.81 371.732 313.961 371.833L313.961 371.808Z" fill="#333333"/>
<path d="M271.043 406.509C271.661 406.219 271.838 405.891 271.333 405.538C271.195 405.45 270.892 405.399 270.766 405.5C270.312 405.828 270.438 406.181 271.043 406.509Z" fill="#333333"/>
<path d="M296.181 363.742C296.181 363.742 296.296 363.652 296.271 363.652C296.233 363.64 296.233 363.614 296.245 363.627L296.194 363.755L296.181 363.742Z" fill="#333333"/>
</svg>
