<svg width="1437" height="676" viewBox="0 0 1437 676" fill="none" xmlns="http://www.w3.org/2000/svg">
<path fill-rule="evenodd" clip-rule="evenodd" d="M1236.67 29.4137L1207.26 0L1136.39 70.8702L1107.11 41.5972L1036.09 112.623L1065.5 142.037L1136.37 71.1667L1165.64 100.44L1236.67 29.4137ZM1436.66 53.4122L1407.24 23.9985L1336.22 95.0246L1365.63 124.438L1436.66 53.4122ZM1306.45 62.3959L1335.86 91.8096L1264.84 162.836L1235.42 133.422L1306.45 62.3959ZM1236.67 131.807L1207.26 102.393L1136.39 173.263L1107.11 143.99L1036.09 215.017L1065.5 244.43L1136.37 173.56L1165.64 202.833L1236.67 131.807ZM1036.68 213.401L1007.27 183.988L936.243 255.014L965.657 284.427L1036.68 213.401ZM936.44 253.511L907.026 224.097L836 295.124L865.414 324.537L936.44 253.511ZM907.026 121.704L936.44 151.118L865.414 222.144L836 192.73L907.026 121.704ZM1036.68 111.008L1007.27 81.5945L936.243 152.621L965.657 182.034L1036.68 111.008ZM907.026 9.71191L936.44 39.1256L865.414 110.152L836 80.738L907.026 9.71191ZM936.44 363.904L907.026 334.49L836 405.516L865.414 434.93L936.44 363.904ZM1007.27 294.38L1036.68 323.794L965.657 394.82L936.243 365.406L1007.27 294.38ZM1165.64 313.226L1136.37 283.953L1065.5 354.823L1036.09 325.409L1107.11 254.383L1136.39 283.656L1207.26 212.786L1236.67 242.199L1165.64 313.226ZM1335.86 202.202L1306.45 172.789L1235.42 243.815L1264.84 273.228L1335.86 202.202ZM1407.24 134.391L1436.66 163.805L1365.63 234.831L1336.22 205.417L1407.24 134.391ZM936.44 464.697L907.026 435.283L836 506.309L865.414 535.723L936.44 464.697ZM1007.27 395.173L1036.68 424.587L965.657 495.613L936.243 466.199L1007.27 395.173ZM1165.64 414.019L1136.37 384.746L1065.5 455.616L1036.09 426.202L1107.11 355.176L1136.39 384.449L1207.26 313.579L1236.67 342.992L1165.64 414.019ZM1335.86 302.995L1306.45 273.581L1235.42 344.608L1264.84 374.021L1335.86 302.995ZM1407.24 235.184L1436.66 264.598L1365.63 335.624L1336.22 306.21L1407.24 235.184ZM936.44 573.489L907.026 544.076L836 615.102L865.414 644.515L936.44 573.489ZM1007.27 503.966L1036.68 533.379L965.657 604.406L936.243 574.992L1007.27 503.966ZM1165.64 522.811L1136.37 493.538L1065.5 564.408L1036.09 534.995L1107.11 463.968L1136.39 493.241L1207.26 422.371L1236.67 451.785L1165.64 522.811ZM1335.86 411.788L1306.45 382.374L1235.42 453.4L1264.84 482.814L1335.86 411.788ZM1407.24 343.977L1436.66 373.39L1365.63 444.416L1336.22 415.003L1407.24 343.977ZM1165.64 623.604L1136.37 594.331L1065.5 665.202L1036.09 635.788L1107.11 564.762L1136.39 594.035L1207.26 523.165L1236.67 552.578L1165.64 623.604ZM1335.86 512.581L1306.45 483.167L1235.42 554.194L1264.84 583.607L1335.86 512.581ZM1407.24 444.77L1436.66 474.184L1365.63 545.21L1336.22 515.796L1407.24 444.77ZM1436.66 574.977L1407.24 545.563L1336.22 616.589L1365.63 646.003L1436.66 574.977Z" fill="url(#paint0_linear_1326_6466)"/>
<path fill-rule="evenodd" clip-rule="evenodd" d="M638.669 29.4137L609.256 0L538.386 70.8702L509.113 41.5972L438.086 112.623L467.5 142.037L538.37 71.1667L567.643 100.44L638.669 29.4137ZM838.656 53.4122L809.242 23.9985L738.216 95.0246L767.63 124.438L838.656 53.4122ZM708.449 62.3959L737.863 91.8096L666.837 162.836L637.423 133.422L708.449 62.3959ZM638.669 131.807L609.256 102.393L538.386 173.263L509.113 143.99L438.086 215.017L467.5 244.43L538.37 173.56L567.643 202.833L638.669 131.807ZM438.683 213.401L409.269 183.988L338.243 255.014L367.657 284.427L438.683 213.401ZM338.44 253.511L309.026 224.097L238 295.124L267.414 324.537L338.44 253.511ZM309.026 121.704L338.44 151.118L267.414 222.144L238 192.73L309.026 121.704ZM438.683 111.008L409.269 81.5945L338.243 152.621L367.657 182.034L438.683 111.008ZM309.026 9.71191L338.44 39.1256L267.414 110.152L238 80.738L309.026 9.71191ZM338.44 363.904L309.026 334.49L238 405.516L267.414 434.93L338.44 363.904ZM409.269 294.38L438.683 323.794L367.657 394.82L338.243 365.406L409.269 294.38ZM567.643 313.226L538.37 283.953L467.5 354.823L438.086 325.409L509.113 254.383L538.386 283.656L609.256 212.786L638.669 242.199L567.643 313.226ZM737.863 202.202L708.449 172.789L637.423 243.815L666.837 273.228L737.863 202.202ZM809.242 134.391L838.656 163.805L767.63 234.831L738.216 205.417L809.242 134.391ZM338.44 464.697L309.026 435.283L238 506.309L267.414 535.723L338.44 464.697ZM409.269 395.173L438.683 424.587L367.657 495.613L338.243 466.199L409.269 395.173ZM567.643 414.019L538.37 384.746L467.5 455.616L438.086 426.202L509.113 355.176L538.386 384.449L609.256 313.579L638.669 342.992L567.643 414.019ZM737.863 302.995L708.449 273.581L637.423 344.608L666.837 374.021L737.863 302.995ZM809.242 235.184L838.656 264.598L767.63 335.624L738.216 306.21L809.242 235.184ZM338.44 573.489L309.026 544.076L238 615.102L267.414 644.515L338.44 573.489ZM409.269 503.966L438.683 533.379L367.657 604.406L338.243 574.992L409.269 503.966ZM567.643 522.811L538.37 493.538L467.5 564.408L438.086 534.995L509.113 463.968L538.386 493.241L609.256 422.371L638.669 451.785L567.643 522.811ZM737.863 411.788L708.449 382.374L637.423 453.4L666.837 482.814L737.863 411.788ZM809.242 343.977L838.656 373.39L767.63 444.416L738.216 415.003L809.242 343.977ZM567.644 623.604L538.371 594.331L467.501 665.202L438.087 635.788L509.113 564.762L538.386 594.035L609.256 523.165L638.67 552.578L567.644 623.604ZM737.863 512.581L708.45 483.167L637.423 554.194L666.837 583.607L737.863 512.581ZM809.243 444.77L838.656 474.184L767.63 545.21L738.217 515.796L809.243 444.77ZM838.656 574.977L809.242 545.563L738.216 616.589L767.629 646.003L838.656 574.977Z" fill="url(#paint1_linear_1326_6466)"/>
<path fill-rule="evenodd" clip-rule="evenodd" d="M37.6695 39.4137L8.2558 10L-62.6144 80.8702L-91.8874 51.5972L-162.914 122.623L-133.5 152.037L-62.6296 81.1667L-33.3566 110.44L37.6695 39.4137ZM237.656 63.4122L208.242 33.9985L137.216 105.025L166.63 134.438L237.656 63.4122ZM107.449 72.3959L136.863 101.81L65.8367 172.836L36.423 143.422L107.449 72.3959ZM37.6695 141.807L8.2558 112.393L-62.6144 183.263L-91.8874 153.99L-162.914 225.017L-133.5 254.43L-62.6296 183.56L-33.3566 212.833L37.6695 141.807ZM-162.317 223.401L-191.731 193.988L-262.757 265.014L-233.343 294.427L-162.317 223.401ZM-262.56 263.511L-291.974 234.097L-363 305.124L-333.586 334.537L-262.56 263.511ZM-291.974 131.704L-262.56 161.118L-333.586 232.144L-363 202.73L-291.974 131.704ZM-162.317 121.008L-191.731 91.5945L-262.757 162.621L-233.343 192.034L-162.317 121.008ZM-291.974 19.7119L-262.56 49.1256L-333.586 120.152L-363 90.738L-291.974 19.7119ZM-262.56 373.904L-291.974 344.49L-363 415.516L-333.586 444.93L-262.56 373.904ZM-191.731 304.38L-162.317 333.794L-233.343 404.82L-262.757 375.406L-191.731 304.38ZM-33.3566 323.226L-62.6296 293.953L-133.5 364.823L-162.914 335.409L-91.8874 264.383L-62.6144 293.656L8.2558 222.786L37.6695 252.199L-33.3566 323.226ZM136.863 212.202L107.449 182.789L36.423 253.815L65.8367 283.228L136.863 212.202ZM208.242 144.391L237.656 173.805L166.63 244.831L137.216 215.417L208.242 144.391ZM-262.56 474.697L-291.974 445.283L-363 516.309L-333.586 545.723L-262.56 474.697ZM-191.731 405.173L-162.317 434.587L-233.343 505.613L-262.757 476.199L-191.731 405.173ZM-33.3566 424.019L-62.6296 394.746L-133.5 465.616L-162.914 436.202L-91.8874 365.176L-62.6144 394.449L8.2558 323.579L37.6695 352.992L-33.3566 424.019ZM136.863 312.995L107.449 283.581L36.423 354.608L65.8367 384.021L136.863 312.995ZM208.242 245.184L237.656 274.598L166.63 345.624L137.216 316.21L208.242 245.184ZM-262.56 583.489L-291.974 554.076L-363 625.102L-333.586 654.515L-262.56 583.489ZM-191.731 513.966L-162.317 543.379L-233.343 614.406L-262.757 584.992L-191.731 513.966ZM-33.3566 532.811L-62.6296 503.538L-133.5 574.408L-162.914 544.995L-91.8874 473.968L-62.6144 503.241L8.2558 432.371L37.6695 461.785L-33.3566 532.811ZM136.863 421.788L107.449 392.374L36.423 463.4L65.8367 492.814L136.863 421.788ZM208.242 353.977L237.656 383.39L166.63 454.416L137.216 425.003L208.242 353.977ZM-33.3562 633.604L-62.6292 604.331L-133.499 675.202L-162.913 645.788L-91.887 574.762L-62.614 604.035L8.25623 533.165L37.6699 562.578L-33.3562 633.604ZM136.863 522.581L107.45 493.167L36.4234 564.194L65.8371 593.607L136.863 522.581ZM208.243 454.77L237.656 484.184L166.63 555.21L137.217 525.796L208.243 454.77ZM237.656 584.977L208.242 555.563L137.216 626.589L166.629 656.003L237.656 584.977Z" fill="url(#paint2_linear_1326_6466)"/>
<defs>
<linearGradient id="paint0_linear_1326_6466" x1="1285.91" y1="508.358" x2="1265.97" y2="238.374" gradientUnits="userSpaceOnUse">
<stop stop-color="#F0F0F0"/>
<stop offset="1" stop-color="#E3E3E3" stop-opacity="0"/>
</linearGradient>
<linearGradient id="paint1_linear_1326_6466" x1="687.911" y1="508.358" x2="667.972" y2="238.374" gradientUnits="userSpaceOnUse">
<stop stop-color="#F0F0F0"/>
<stop offset="1" stop-color="#E3E3E3" stop-opacity="0"/>
</linearGradient>
<linearGradient id="paint2_linear_1326_6466" x1="86.9108" y1="518.358" x2="66.9721" y2="248.374" gradientUnits="userSpaceOnUse">
<stop stop-color="#F0F0F0"/>
<stop offset="1" stop-color="#E3E3E3" stop-opacity="0"/>
</linearGradient>
</defs>
</svg>
