<svg width="375" height="141" viewBox="0 0 375 141" fill="none" xmlns="http://www.w3.org/2000/svg">
<path fill-rule="evenodd" clip-rule="evenodd" d="M333.323 6.12904L327.194 0L312.426 14.7687L306.329 8.67188L291.529 23.4719L297.658 29.6009L312.427 14.8322L318.524 20.929L333.323 6.12904ZM374.995 11.129L368.866 5L354.066 19.8L360.195 25.929L374.995 11.129ZM347.864 13L353.993 19.129L339.193 33.929L333.064 27.8L347.864 13ZM333.323 27.465L327.194 21.3359L312.43 36.1007L306.329 30L291.529 44.8L297.658 50.929L312.423 36.1643L318.524 42.265L333.323 27.465ZM291.653 44.465L285.524 38.3359L270.725 53.1359L276.854 59.265L291.653 44.465ZM270.765 52.8244L264.636 46.6953L249.836 61.4953L255.965 67.6244L270.765 52.8244ZM264.636 25.3594L270.765 31.4884L255.965 46.2884L249.836 40.1594L264.636 25.3594ZM291.653 23.129L285.524 17L270.725 31.8L276.854 37.929L291.653 23.129ZM264.636 2.02344L270.765 8.15248L255.965 22.9525L249.836 16.8234L264.636 2.02344ZM270.765 75.8244L264.636 69.6953L249.836 84.4953L255.965 90.6244L270.765 75.8244ZM285.524 61.3359L291.653 67.465L276.854 82.265L270.725 76.1359L285.524 61.3359ZM306.329 53L312.43 59.1007L327.194 44.3359L333.323 50.465L318.524 65.265L312.423 59.1643L297.658 73.929L291.529 67.8L306.329 53ZM353.993 42.129L347.864 36L333.064 50.8L339.193 56.929L353.993 42.129ZM368.866 28L374.995 34.129L360.195 48.929L354.066 42.8L368.866 28ZM270.765 96.8244L264.636 90.6953L249.836 105.495L255.965 111.624L270.765 96.8244ZM285.524 82.3359L291.653 88.465L276.854 103.265L270.725 97.1359L285.524 82.3359ZM306.329 74L312.43 80.1007L327.194 65.3359L333.323 71.465L318.524 86.265L312.423 80.1643L297.658 94.929L291.529 88.8L306.329 74ZM353.993 63.129L347.864 57L333.064 71.8L339.193 77.929L353.993 63.129ZM368.866 49L374.995 55.129L360.195 69.929L354.066 63.8L368.866 49ZM270.765 119.504L264.636 113.375L249.836 128.175L255.965 134.304L270.765 119.504ZM285.524 105.016L291.653 111.145L276.854 125.945L270.725 119.816L285.524 105.016ZM306.329 96.6875L312.426 102.784L327.194 88.0156L333.323 94.1447L318.524 108.945L312.427 102.848L297.658 117.617L291.529 111.487L306.329 96.6875ZM353.993 85.8087L347.864 79.6797L333.064 94.4797L339.193 100.609L353.993 85.8087ZM368.866 71.6797L374.995 77.8087L360.195 92.6087L354.066 86.4797L368.866 71.6797ZM306.329 117.688L312.427 123.785L327.196 109.016L333.325 115.145L318.525 129.945L312.428 123.847L297.658 138.617L291.529 132.488L306.329 117.688ZM353.995 106.809L347.866 100.68L333.066 115.48L339.195 121.609L353.995 106.809ZM368.868 92.6797L374.997 98.8087L360.197 113.609L354.068 107.48L368.868 92.6797ZM374.999 119.809L368.87 113.68L354.07 128.48L360.199 134.609L374.999 119.809Z" fill="url(#paint0_linear_1410_17449)"/>
<path fill-rule="evenodd" clip-rule="evenodd" d="M208.72 6.12904L202.591 0L187.822 14.7687L181.726 8.67188L166.926 23.4719L173.055 29.6009L187.823 14.8322L193.92 20.929L208.72 6.12904ZM250.392 11.129L244.263 5L229.463 19.8L235.592 25.929L250.392 11.129ZM223.261 13L229.39 19.129L214.59 33.929L208.461 27.8L223.261 13ZM208.72 27.465L202.591 21.3359L187.826 36.1007L181.726 30L166.926 44.8L173.055 50.929L187.819 36.1643L193.92 42.265L208.72 27.465ZM167.05 44.465L160.921 38.3359L146.121 53.1359L152.25 59.265L167.05 44.465ZM146.161 52.8244L140.032 46.6953L125.232 61.4953L131.361 67.6244L146.161 52.8244ZM140.032 25.3594L146.161 31.4884L131.361 46.2884L125.232 40.1594L140.032 25.3594ZM167.05 23.129L160.921 17L146.121 31.8L152.25 37.929L167.05 23.129ZM140.032 2.02344L146.161 8.15248L131.361 22.9525L125.232 16.8234L140.032 2.02344ZM146.161 75.8244L140.032 69.6953L125.232 84.4953L131.361 90.6244L146.161 75.8244ZM160.921 61.3359L167.05 67.465L152.25 82.265L146.121 76.1359L160.921 61.3359ZM181.726 53L187.826 59.1007L202.591 44.3359L208.72 50.465L193.92 65.265L187.819 59.1643L173.055 73.929L166.926 67.8L181.726 53ZM229.39 42.129L223.261 36L208.461 50.8L214.59 56.929L229.39 42.129ZM244.263 28L250.392 34.129L235.592 48.929L229.463 42.8L244.263 28ZM146.161 96.8244L140.032 90.6953L125.232 105.495L131.361 111.624L146.161 96.8244ZM160.921 82.3359L167.05 88.465L152.25 103.265L146.121 97.1359L160.921 82.3359ZM181.726 74L187.826 80.1007L202.591 65.3359L208.72 71.465L193.92 86.265L187.819 80.1643L173.055 94.929L166.926 88.8L181.726 74ZM229.39 63.129L223.261 57L208.461 71.8L214.59 77.929L229.39 63.129ZM244.263 49L250.392 55.129L235.592 69.929L229.463 63.8L244.263 49ZM146.161 119.504L140.032 113.375L125.232 128.175L131.361 134.304L146.161 119.504ZM160.921 105.016L167.05 111.145L152.25 125.945L146.121 119.816L160.921 105.016ZM181.726 96.6875L187.822 102.784L202.591 88.0156L208.72 94.1447L193.92 108.945L187.823 102.848L173.055 117.617L166.926 111.487L181.726 96.6875ZM229.39 85.8087L223.261 79.6797L208.461 94.4797L214.59 100.609L229.39 85.8087ZM244.263 71.6797L250.392 77.8087L235.592 92.6087L229.463 86.4797L244.263 71.6797ZM181.726 117.688L187.823 123.785L202.593 109.016L208.722 115.145L193.922 129.945L187.824 123.847L173.055 138.617L166.926 132.488L181.726 117.688ZM229.392 106.809L223.263 100.68L208.463 115.48L214.592 121.609L229.392 106.809ZM244.265 92.6797L250.394 98.8087L235.594 113.609L229.465 107.48L244.265 92.6797ZM250.392 119.809L244.263 113.68L229.463 128.48L235.592 134.609L250.392 119.809Z" fill="url(#paint1_linear_1410_17449)"/>
<path fill-rule="evenodd" clip-rule="evenodd" d="M83.4875 8.21498L77.3585 2.08594L62.5938 16.8507L56.4932 10.75L41.6933 25.55L47.8223 31.679L62.5869 16.9143L68.6876 23.015L83.4875 8.21498ZM125.159 13.2152L119.03 7.08613L104.23 21.8861L110.359 28.0152L125.159 13.2152ZM98.0283 15.0861L104.157 21.2152L89.3574 36.0152L83.2284 29.8861L98.0283 15.0861ZM83.4875 29.5511L77.3585 23.4221L62.5899 38.1907L56.4932 32.0939L41.6933 46.8939L47.8223 53.023L62.5908 38.2543L68.6876 44.3511L83.4875 29.5511ZM41.8175 46.5511L35.6885 40.4221L20.8886 55.2221L27.0176 61.3511L41.8175 46.5511ZM20.9289 54.9105L14.7999 48.7814L0 63.5814L6.129 69.7105L20.9289 54.9105ZM14.7999 27.4453L20.9289 33.5744L6.12901 48.3744L1.16069e-05 42.2453L14.7999 27.4453ZM41.8175 25.215L35.6885 19.0859L20.8886 33.8859L27.0176 40.015L41.8175 25.215ZM14.7999 4.10955L20.9289 10.2386L6.129 25.0386L0 18.9095L14.7999 4.10955ZM20.9289 77.9181L14.7999 71.7891L0 86.5891L6.129 92.7181L20.9289 77.9181ZM35.6885 63.4297L41.8175 69.5587L27.0176 84.3587L20.8886 78.2297L35.6885 63.4297ZM56.4932 55.0938L62.5938 61.1945L77.3585 46.4297L83.4875 52.5587L68.6876 67.3587L62.5869 61.258L47.8223 76.0228L41.6933 69.8937L56.4932 55.0938ZM104.157 44.2228L98.0283 38.0938L83.2284 52.8937L89.3574 59.0228L104.157 44.2228ZM119.03 30.0938L125.159 36.2228L110.359 51.0228L104.23 44.8937L119.03 30.0938ZM20.9289 98.9181L14.7999 92.7891L0 107.589L6.129 113.718L20.9289 98.9181ZM35.6885 84.4297L41.8175 90.5587L27.0176 105.359L20.8886 99.2297L35.6885 84.4297ZM56.4932 76.0938L62.5938 82.1945L77.3585 67.4297L83.4875 73.5587L68.6876 88.3587L62.5869 82.258L47.8223 97.0228L41.6933 90.8937L56.4932 76.0938ZM104.157 65.2228L98.0283 59.0938L83.2284 73.8937L89.3574 80.0228L104.157 65.2228ZM119.03 51.0938L125.159 57.2228L110.359 72.0228L104.23 65.8937L119.03 51.0938ZM20.9289 121.59L14.7999 115.461L0 130.261L6.129 136.39L20.9289 121.59ZM35.6885 107.102L41.8175 113.231L27.0176 128.031L20.8886 121.902L35.6885 107.102ZM56.4932 98.7656L62.5938 104.866L77.3585 90.1016L83.4875 96.2306L68.6876 111.031L62.5869 104.93L47.8223 119.695L41.6933 113.566L56.4932 98.7656ZM104.157 87.8947L98.0283 81.7656L83.2284 96.5656L89.3574 102.695L104.157 87.8947ZM119.03 73.7656L125.159 79.8947L110.359 94.6947L104.23 88.5656L119.03 73.7656ZM56.4932 119.766L62.5948 125.867L77.3604 111.102L83.4894 117.231L68.6896 132.031L62.5879 125.929L47.8223 140.695L41.6933 134.566L56.4932 119.766ZM104.159 108.895L98.0303 102.766L83.2304 117.566L89.3594 123.695L104.159 108.895ZM119.032 94.7656L125.161 100.895L110.361 115.695L104.232 109.566L119.032 94.7656ZM125.161 121.895L119.032 115.766L104.232 130.566L110.361 136.695L125.161 121.895Z" fill="url(#paint2_linear_1410_17449)"/>
<defs>
<linearGradient id="paint0_linear_1410_17449" x1="343.587" y1="105.933" x2="339.432" y2="49.673" gradientUnits="userSpaceOnUse">
<stop stop-color="#F0F0F0"/>
<stop offset="1" stop-color="#E3E3E3" stop-opacity="0"/>
</linearGradient>
<linearGradient id="paint1_linear_1410_17449" x1="218.982" y1="105.933" x2="214.827" y2="49.673" gradientUnits="userSpaceOnUse">
<stop stop-color="#F0F0F0"/>
<stop offset="1" stop-color="#E3E3E3" stop-opacity="0"/>
</linearGradient>
<linearGradient id="paint2_linear_1410_17449" x1="93.7498" y1="108.013" x2="89.5952" y2="51.7561" gradientUnits="userSpaceOnUse">
<stop stop-color="#F0F0F0"/>
<stop offset="1" stop-color="#E3E3E3" stop-opacity="0"/>
</linearGradient>
</defs>
</svg>
