<svg width="140" height="31" viewBox="0 0 140 31" fill="none" xmlns="http://www.w3.org/2000/svg">
<mask id="mask0_1113_15130" style="mask-type:luminance" maskUnits="userSpaceOnUse" x="0" y="0" width="140" height="31">
<path d="M139.334 0H0V30.6569H139.334V0Z" fill="white"/>
</mask>
<g mask="url(#mask0_1113_15130)">
<path d="M127.416 10.8732H128.19L128.462 10.1196H127.416V9.42548H128.717L128.989 8.67188H126.349V12.1165H127.416V10.8732Z" fill="black"/>
<path d="M130.388 8.67188H129.317V12.1165H130.388V8.67188Z" fill="black"/>
<path d="M132.195 10.8732H132.965L133.237 10.1196H132.195V9.42548H133.492L133.764 8.67188H131.124V12.1165H132.195V10.8732Z" fill="black"/>
<path d="M134.266 12.1165L134.398 11.6567H135.61L135.75 12.1165H136.83L135.576 8.67188H134.466L133.211 12.1165H134.266ZM135.006 9.56178L135.431 10.9967H134.581L135.006 9.56178Z" fill="black"/>
<path d="M136.456 9.55319C136.502 9.6 136.557 9.63759 136.617 9.66389C136.682 9.69299 136.751 9.7076 136.822 9.7065C136.89 9.7072 136.959 9.69269 137.021 9.66389C137.143 9.61029 137.24 9.51309 137.294 9.39139C137.323 9.32879 137.337 9.26029 137.336 9.19129C137.337 9.12079 137.323 9.051 137.294 8.98689C137.267 8.92642 137.23 8.8715 137.183 8.82508C137.137 8.77737 137.082 8.73968 137.021 8.71438C136.958 8.68635 136.889 8.67188 136.819 8.67188C136.75 8.67188 136.681 8.68635 136.617 8.71438C136.496 8.76799 136.399 8.8652 136.345 8.98689C136.316 9.051 136.302 9.12079 136.303 9.19129C136.302 9.26029 136.316 9.32879 136.345 9.39139C136.371 9.45239 136.408 9.50749 136.456 9.55319ZM136.456 9.0252C136.475 8.9748 136.504 8.92856 136.541 8.88896C136.577 8.85349 136.618 8.82464 136.664 8.80379C136.713 8.78295 136.765 8.77278 136.817 8.77398C136.868 8.77313 136.919 8.78329 136.966 8.80379C137.013 8.82356 137.054 8.85254 137.089 8.88896C137.126 8.92856 137.155 8.9748 137.174 9.0252C137.214 9.1323 137.214 9.2502 137.174 9.3573C137.155 9.4066 137.126 9.45149 137.089 9.4893C137.056 9.5271 137.013 9.5563 136.966 9.5745C136.919 9.5963 136.869 9.60789 136.817 9.60849C136.764 9.60839 136.712 9.5968 136.664 9.5745C136.618 9.5551 136.576 9.5261 136.541 9.4893C136.504 9.45149 136.475 9.4066 136.456 9.3573C136.416 9.2502 136.416 9.1323 136.456 9.0252Z" fill="black"/>
<path d="M136.728 9.22731H136.796L136.949 9.47851H137.06L136.902 9.22301C136.943 9.22061 136.983 9.20411 137.013 9.17621C137.028 9.16251 137.04 9.14541 137.048 9.12611C137.055 9.10681 137.058 9.08601 137.055 9.06551C137.058 9.04061 137.054 9.01561 137.044 8.99263C137.034 8.96963 137.019 8.94933 137 8.93349C136.952 8.9032 136.895 8.88835 136.839 8.89091H136.622V9.47851H136.728V9.22731ZM136.728 8.97607H136.868H136.907L136.936 9.00161C136.939 9.01571 136.939 9.03011 136.936 9.04421C136.939 9.05971 136.939 9.07551 136.936 9.09101L136.911 9.11661H136.873H136.728V8.97607Z" fill="black"/>
<path d="M127.484 18.2178C127.537 18.2718 127.601 18.3139 127.671 18.3413C127.755 18.37 127.842 18.3844 127.931 18.3839C128.019 18.384 128.106 18.3696 128.19 18.3413C128.26 18.3129 128.323 18.2709 128.377 18.2178C128.429 18.1617 128.468 18.0948 128.492 18.022C128.518 17.9379 128.531 17.8503 128.53 17.7622C128.531 17.6742 128.519 17.5864 128.492 17.5025C128.469 17.4297 128.43 17.363 128.378 17.3077C128.326 17.2523 128.261 17.2097 128.19 17.1832C128.106 17.1549 128.019 17.1405 127.931 17.1406C127.842 17.1401 127.755 17.1545 127.671 17.1832C127.6 17.2095 127.536 17.2518 127.484 17.3066C127.432 17.3628 127.393 17.4296 127.369 17.5025C127.343 17.5864 127.33 17.6742 127.331 17.7622C127.33 17.8503 127.343 17.9379 127.369 18.022C127.393 18.0948 127.432 18.1617 127.484 18.2178ZM127.675 17.6175C127.683 17.5737 127.699 17.5318 127.722 17.494C127.744 17.4596 127.773 17.4305 127.807 17.4088C127.845 17.3894 127.888 17.3792 127.931 17.3792C127.973 17.3792 128.016 17.3894 128.054 17.4088C128.088 17.4305 128.117 17.4596 128.139 17.494C128.162 17.5318 128.178 17.5737 128.186 17.6175C128.19 17.6656 128.19 17.7141 128.186 17.7622C128.19 17.8104 128.19 17.8588 128.186 17.907C128.177 17.9505 128.161 17.9923 128.139 18.0305C128.117 18.0649 128.088 18.094 128.054 18.1156C128.016 18.1351 127.973 18.1452 127.931 18.1452C127.888 18.1452 127.845 18.1351 127.807 18.1156C127.773 18.094 127.744 18.0649 127.722 18.0305C127.7 17.9923 127.684 17.9505 127.675 17.907C127.669 17.859 127.669 17.8103 127.675 17.7622C127.669 17.7142 127.669 17.6655 127.675 17.6175Z" fill="black"/>
<path d="M129.104 17.8715H129.567V17.6458H129.104V17.3861H129.589V17.1562H128.785V18.3569H129.104V17.8715Z" fill="black"/>
<path d="M130.146 17.8715H130.609V17.6458H130.146V17.3861H130.626V17.1562H129.827V18.3569H130.146V17.8715Z" fill="black"/>
<path d="M131.209 17.1562H130.89V18.3569H131.209V17.1562Z" fill="black"/>
<path d="M131.715 18.2406C131.78 18.2912 131.855 18.3274 131.936 18.347C132.015 18.3688 132.096 18.3802 132.178 18.3811C132.246 18.3885 132.314 18.3885 132.382 18.3811L132.531 18.347V18.1001C132.484 18.1174 132.436 18.1316 132.386 18.1427C132.336 18.1489 132.284 18.1489 132.233 18.1427C132.178 18.1435 132.124 18.1349 132.072 18.1171C132.024 18.102 131.98 18.0757 131.944 18.0405C131.908 18.0079 131.88 17.967 131.863 17.9212C131.841 17.8719 131.829 17.8181 131.829 17.7637C131.83 17.7112 131.84 17.6592 131.859 17.6104C131.875 17.5642 131.902 17.522 131.936 17.4869C131.967 17.4507 132.006 17.4228 132.051 17.406C132.099 17.3852 132.151 17.375 132.204 17.3762C132.257 17.3697 132.312 17.3697 132.365 17.3762C132.419 17.3902 132.471 17.4117 132.518 17.4401L132.544 17.1804C132.487 17.1622 132.428 17.1479 132.369 17.1378C132.309 17.1312 132.247 17.1312 132.187 17.1378C132.095 17.1371 132.003 17.15 131.915 17.1761C131.835 17.2002 131.761 17.2408 131.698 17.2953C131.633 17.3471 131.584 17.4146 131.553 17.4912C131.517 17.5775 131.5 17.6703 131.502 17.7637C131.499 17.864 131.521 17.9635 131.566 18.0532C131.601 18.1262 131.651 18.1903 131.715 18.2406Z" fill="black"/>
<path d="M133.101 17.1562H132.782V18.3569H133.101V17.1562Z" fill="black"/>
<path d="M133.743 18.1014H134.194L134.283 18.3569H134.632L134.173 17.1562H133.781L133.326 18.3569H133.65L133.743 18.1014ZM133.973 17.4031L134.113 17.8715H133.815L133.973 17.4031Z" fill="black"/>
<path d="M135.657 18.1185H135.163V17.1562H134.844V18.3569H135.657V18.1185Z" fill="black"/>
<path d="M128.143 20.1576H127.65V19.1953H127.331V20.3961H128.143V20.1576Z" fill="black"/>
<path d="M128.704 19.1953H128.385V20.3961H128.704V19.1953Z" fill="black"/>
<path d="M129.181 19.3287C129.116 19.3805 129.067 19.4479 129.036 19.5246C129 19.6109 128.983 19.7037 128.985 19.7971C128.983 19.8968 129.003 19.9958 129.044 20.0866C129.084 20.16 129.139 20.2239 129.206 20.274C129.273 20.3245 129.35 20.3608 129.431 20.3804C129.513 20.4105 129.599 20.4291 129.686 20.4358C129.754 20.4411 129.823 20.4411 129.891 20.4358L130.039 20.4017V20.1505C129.993 20.1705 129.944 20.1862 129.895 20.1973C129.843 20.2038 129.79 20.2038 129.738 20.1973C129.683 20.1975 129.628 20.1889 129.576 20.1718C129.53 20.1555 129.488 20.1294 129.453 20.0951C129.415 20.0628 129.386 20.0219 129.368 19.9759C129.348 19.9256 129.338 19.8722 129.338 19.8184C129.337 19.7661 129.346 19.7142 129.363 19.6651C129.383 19.6204 129.409 19.5789 129.44 19.5416C129.473 19.5061 129.514 19.4785 129.559 19.4607C129.607 19.4398 129.659 19.4297 129.712 19.4309C129.766 19.4244 129.82 19.4244 129.874 19.4309C129.927 19.4448 129.979 19.4663 130.027 19.4948L130.052 19.235C129.995 19.2173 129.937 19.2031 129.878 19.1924C129.817 19.1859 129.756 19.1859 129.695 19.1924C129.603 19.1917 129.511 19.2046 129.423 19.2308C129.336 19.245 129.253 19.2785 129.181 19.3287Z" fill="black"/>
<path d="M130.571 19.8979H131.064V19.6722H130.571V19.421H131.094V19.1953H130.252V20.3961H131.115V20.1704H130.571V19.8979Z" fill="black"/>
<path d="M131.681 19.5743H131.685L132.106 20.3961H132.501V19.1953H132.208L132.212 20.0086L131.804 19.1953H131.4V20.3961H131.693L131.681 19.5743Z" fill="black"/>
<path d="M132.927 19.8181C132.968 19.8459 133.014 19.866 133.063 19.8778L133.199 19.9246C133.235 19.9351 133.269 19.9509 133.301 19.9714C133.315 19.9815 133.326 19.995 133.333 20.0106C133.341 20.0263 133.344 20.0436 133.343 20.0608C133.35 20.0787 133.35 20.0985 133.343 20.1162C133.333 20.1331 133.319 20.1465 133.301 20.1545H133.237H133.165C133.104 20.1615 133.043 20.1615 132.982 20.1545C132.93 20.1406 132.88 20.1206 132.833 20.0949L132.807 20.3632C132.866 20.3813 132.925 20.3941 132.986 20.4015H133.165C133.23 20.4007 133.296 20.3936 133.36 20.3802C133.419 20.3721 133.476 20.3518 133.526 20.3206C133.576 20.2906 133.617 20.248 133.645 20.1971C133.678 20.1386 133.694 20.0724 133.692 20.0055C133.696 19.9443 133.681 19.8835 133.649 19.8309C133.622 19.7897 133.585 19.7548 133.543 19.7287C133.501 19.7007 133.455 19.6791 133.407 19.6649L133.271 19.6265C133.234 19.6165 133.198 19.6022 133.165 19.584C133.152 19.5757 133.142 19.5643 133.135 19.5508C133.128 19.5373 133.125 19.5223 133.126 19.5073C133.125 19.4964 133.126 19.4853 133.13 19.4749C133.133 19.4645 133.14 19.4552 133.148 19.4477C133.163 19.4316 133.182 19.4199 133.203 19.4136C133.225 19.4092 133.248 19.4092 133.271 19.4136H133.339C133.384 19.4093 133.43 19.4093 133.475 19.4136C133.521 19.4213 133.565 19.4357 133.607 19.4562V19.2093C133.561 19.1939 133.514 19.1826 133.467 19.1752C133.411 19.1708 133.356 19.1708 133.301 19.1752C133.24 19.1711 133.179 19.1711 133.118 19.1752C133.059 19.1873 133.002 19.2073 132.948 19.2348C132.898 19.2625 132.856 19.3019 132.824 19.3498C132.792 19.4037 132.776 19.4657 132.778 19.5286C132.774 19.5898 132.789 19.6507 132.82 19.7032C132.846 19.7491 132.883 19.7884 132.927 19.8181Z" fill="black"/>
<path d="M134.785 19.421V19.1953H133.939V20.3961H134.802V20.1704H134.258V19.8979H134.755V19.6722H134.258V19.421H134.785Z" fill="black"/>
<path d="M135.083 19.1955V20.3963H135.508C135.602 20.3965 135.697 20.385 135.788 20.3622C135.87 20.344 135.946 20.3092 136.014 20.26C136.079 20.2117 136.13 20.1471 136.163 20.0727C136.199 19.9836 136.216 19.8879 136.214 19.7916C136.217 19.6926 136.199 19.5941 136.163 19.5021C136.13 19.43 136.081 19.3671 136.018 19.319C135.951 19.271 135.874 19.2389 135.793 19.2253C135.699 19.204 135.604 19.194 135.508 19.1955H135.083ZM135.801 19.5234C135.865 19.5999 135.9 19.6963 135.9 19.7959C135.9 19.8955 135.865 19.9919 135.801 20.0684C135.724 20.133 135.625 20.1651 135.525 20.1578H135.401V19.434H135.525C135.625 19.4272 135.724 19.4592 135.801 19.5234Z" fill="black"/>
<path d="M127.65 22.0088H127.773C127.898 22.0168 128.021 21.9806 128.122 21.9066C128.164 21.8732 128.197 21.8303 128.219 21.7814C128.241 21.7326 128.252 21.6792 128.249 21.6256C128.254 21.5689 128.244 21.512 128.221 21.46C128.198 21.408 128.162 21.3625 128.118 21.3276C127.99 21.2499 127.841 21.2156 127.692 21.2296H127.314V22.4304H127.633L127.65 22.0088ZM127.65 21.4553H127.731H127.807C127.83 21.4586 127.852 21.4673 127.871 21.4808C127.89 21.4937 127.904 21.5113 127.913 21.5319C127.918 21.5573 127.918 21.5833 127.913 21.6086C127.919 21.6353 127.919 21.6628 127.913 21.6895C127.904 21.7101 127.89 21.7278 127.871 21.7406C127.852 21.7541 127.83 21.7629 127.807 21.7661H127.731H127.65V21.4553Z" fill="black"/>
<path d="M129.329 22.0072C129.323 21.9804 129.313 21.9547 129.3 21.9305C129.29 21.9101 129.277 21.8914 129.261 21.8752C129.243 21.8589 129.221 21.8472 129.198 21.8411C129.267 21.8303 129.329 21.7938 129.372 21.7389C129.411 21.6797 129.43 21.6097 129.427 21.5388C129.429 21.493 129.419 21.4474 129.398 21.4067C129.379 21.3678 129.351 21.3342 129.317 21.3089C129.278 21.2854 129.237 21.2668 129.193 21.2535C129.142 21.2489 129.091 21.2489 129.04 21.2535H128.471V22.4542H128.794V21.9561H128.858C128.883 21.9512 128.909 21.9512 128.934 21.9561C128.957 21.9647 128.978 21.9793 128.994 21.9985C129.011 22.022 129.026 22.0478 129.036 22.0753C129.054 22.1168 129.07 22.1595 129.083 22.203L129.151 22.4202H129.487L129.368 22.0923C129.355 22.0668 129.342 22.037 129.329 22.0072ZM129.087 21.6708C129.072 21.6886 129.053 21.7029 129.032 21.7133H128.955H128.794V21.4409H128.875H128.964C128.988 21.436 129.012 21.436 129.036 21.4409C129.058 21.4498 129.077 21.4645 129.091 21.4834C129.098 21.5042 129.098 21.5266 129.091 21.5473C129.101 21.5667 129.105 21.5881 129.105 21.6096C129.104 21.6311 129.098 21.6521 129.087 21.6708Z" fill="black"/>
<path d="M130.716 21.3771C130.662 21.324 130.598 21.2821 130.529 21.2536C130.445 21.2253 130.357 21.211 130.269 21.211C130.181 21.2102 130.093 21.2246 130.01 21.2536C129.938 21.2809 129.873 21.323 129.818 21.3771C129.768 21.4344 129.729 21.5009 129.704 21.573C129.677 21.6569 129.664 21.7446 129.665 21.8327C129.664 21.9194 129.677 22.0056 129.704 22.0882C129.729 22.1604 129.768 22.227 129.818 22.284C129.872 22.3407 129.937 22.3845 130.01 22.4118C130.177 22.4685 130.357 22.4685 130.524 22.4118C130.597 22.3845 130.662 22.3407 130.716 22.284C130.769 22.2292 130.809 22.1619 130.83 22.0882C130.857 22.0056 130.87 21.9194 130.869 21.8327C130.87 21.7446 130.857 21.6569 130.83 21.573C130.807 21.5001 130.768 21.4333 130.716 21.3771ZM130.537 21.9775C130.527 22.0212 130.51 22.063 130.486 22.1009C130.467 22.1348 130.439 22.1628 130.405 22.1818C130.368 22.2044 130.325 22.2162 130.282 22.2159C130.24 22.2155 130.2 22.2048 130.163 22.1847C130.127 22.1647 130.096 22.1359 130.074 22.1009C130.051 22.0627 130.035 22.021 130.027 21.9775C130.02 21.9294 130.02 21.8807 130.027 21.8327C130.02 21.7832 130.02 21.7331 130.027 21.6837C130.035 21.6415 130.051 21.6011 130.074 21.5644C130.095 21.5301 130.124 21.501 130.159 21.4793C130.196 21.4575 130.239 21.4471 130.282 21.4495C130.325 21.4476 130.368 21.4579 130.405 21.4793C130.438 21.5011 130.466 21.5302 130.486 21.5644C130.51 21.6009 130.527 21.6412 130.537 21.6837C130.541 21.7332 130.541 21.7831 130.537 21.8327C130.541 21.8808 130.541 21.9293 130.537 21.9775Z" fill="black"/>
<path d="M132.08 21.3502C132.013 21.3028 131.936 21.2708 131.855 21.2565C131.762 21.2352 131.666 21.2252 131.57 21.2267H131.145V22.4275H131.57C131.665 22.4277 131.759 22.4162 131.851 22.3934C131.932 22.3752 132.009 22.3404 132.076 22.2912C132.14 22.2417 132.191 22.1774 132.225 22.1039C132.261 22.0148 132.279 21.9191 132.276 21.8228C132.279 21.7238 132.262 21.6253 132.225 21.5333C132.193 21.4612 132.143 21.3983 132.08 21.3502ZM131.851 22.0996C131.773 22.1638 131.675 22.1958 131.574 22.189H131.451V21.4652H131.574C131.674 21.4592 131.773 21.4911 131.851 21.5546C131.885 21.5908 131.911 21.6337 131.928 21.6806C131.945 21.7275 131.952 21.7774 131.949 21.8271C131.952 21.8768 131.944 21.9266 131.928 21.9734C131.911 22.0203 131.885 22.0632 131.851 22.0996Z" fill="black"/>
<path d="M132.663 22.3337C132.711 22.374 132.768 22.4031 132.829 22.4188C132.899 22.4381 132.972 22.4481 133.046 22.4486C133.117 22.4477 133.189 22.4377 133.258 22.4188C133.319 22.4031 133.376 22.374 133.424 22.3337C133.47 22.2923 133.506 22.2415 133.53 22.1847C133.557 22.117 133.57 22.0446 133.569 21.9718V21.2266H133.25V21.9164C133.252 21.9547 133.252 21.9931 133.25 22.0314C133.243 22.064 133.231 22.0956 133.216 22.125C133.203 22.1507 133.182 22.1716 133.156 22.1847C133.125 22.202 133.09 22.2108 133.054 22.2102C133.018 22.2119 132.983 22.203 132.952 22.1847C132.926 22.1707 132.904 22.1501 132.888 22.125C132.874 22.0948 132.863 22.0635 132.854 22.0314C132.852 21.9931 132.852 21.9547 132.854 21.9164V21.2266H132.535V21.9718C132.534 22.0446 132.547 22.117 132.574 22.1847C132.593 22.2399 132.623 22.2907 132.663 22.3337Z" fill="black"/>
<path d="M134.721 22.1941C134.669 22.2004 134.616 22.2004 134.564 22.1941C134.509 22.195 134.454 22.1863 134.402 22.1685C134.354 22.1534 134.31 22.1271 134.275 22.0919C134.24 22.0582 134.212 22.0176 134.194 21.9727C134.172 21.923 134.162 21.8692 134.164 21.8151C134.163 21.7629 134.172 21.7109 134.189 21.6618C134.205 21.6151 134.231 21.5727 134.266 21.5384C134.298 21.502 134.339 21.4743 134.385 21.4575C134.433 21.4358 134.486 21.4256 134.538 21.4277C134.591 21.4282 134.644 21.4353 134.695 21.4489C134.749 21.4629 134.801 21.4844 134.849 21.5128L134.874 21.2531L134.7 21.2062C134.64 21.2021 134.581 21.2021 134.521 21.2062C134.428 21.2055 134.335 21.2184 134.245 21.2446C134.166 21.2705 134.092 21.3109 134.028 21.3638C133.965 21.4168 133.915 21.4839 133.883 21.5596C133.848 21.646 133.83 21.7388 133.832 21.8322C133.829 21.9325 133.851 22.032 133.896 22.1217C133.936 22.1951 133.991 22.259 134.058 22.309C134.123 22.3596 134.198 22.3959 134.279 22.4155C134.358 22.4372 134.439 22.4487 134.521 22.4495C134.589 22.4549 134.657 22.4549 134.725 22.4495L134.878 22.4155V22.1643L134.721 22.1941Z" fill="black"/>
<path d="M135.019 21.4651H135.316V22.4273H135.635V21.4651H135.928V21.2266H135.019V21.4651Z" fill="black"/>
<path d="M124.159 5.8125V24.8368H139.356V5.8125H124.159ZM139.168 24.6921H124.286V15.4056H139.168V24.6921ZM139.168 15.2651H124.286V5.97855H139.168V15.2651Z" fill="black"/>
<path d="M15.3073 30.6569C23.7612 30.6569 30.6145 23.7941 30.6145 15.3285C30.6145 6.86279 23.7612 0 15.3073 0C6.8533 0 0 6.86279 0 15.3285C0 23.7941 6.8533 30.6569 15.3073 30.6569Z" fill="black"/>
<path d="M25.3761 17.796H25.763V17.8811H25.6099V18.2132H25.5121V17.8811H25.3591L25.3761 17.796ZM7.11791 19.3331H6.23349C6.03789 19.3331 5.9401 19.2266 5.9401 19.0095V18.6603C5.93557 18.5708 5.96436 18.4828 6.02089 18.4133C6.04618 18.3815 6.0786 18.356 6.11553 18.339C6.15246 18.322 6.19287 18.3139 6.23349 18.3154H6.92657C7.00031 18.3115 7.07309 18.3336 7.13217 18.378C7.19125 18.4224 7.23286 18.4861 7.24972 18.5581L7.34752 18.8945H7.98107V18.5198C7.98464 18.405 7.96416 18.2908 7.92095 18.1845C7.87774 18.0781 7.81276 17.9821 7.7302 17.9024C7.64938 17.8232 7.5536 17.761 7.44846 17.7193C7.34333 17.6776 7.23095 17.6574 7.11791 17.6597H6.09317C5.97709 17.6573 5.86174 17.6787 5.75425 17.7227C5.64675 17.7666 5.54937 17.8321 5.46812 17.9152C5.38623 17.9955 5.32141 18.0917 5.27757 18.1978C5.23373 18.3039 5.21177 18.4178 5.213 18.5326V19.1287C5.20884 19.2455 5.22876 19.362 5.27152 19.4708C5.31428 19.5797 5.37896 19.6785 5.46154 19.7612C5.54412 19.8439 5.64281 19.9086 5.75148 19.9515C5.86015 19.9943 5.97647 20.0142 6.09317 20.0101H6.97334C7.16893 20.0101 7.26673 20.125 7.26673 20.3464V20.7978C7.27028 20.8851 7.2432 20.971 7.19019 21.0405C7.16424 21.0727 7.13109 21.0983 7.09342 21.1153C7.05575 21.1323 7.01462 21.1402 6.97334 21.1384H6.27176C6.19755 21.1454 6.12335 21.125 6.06308 21.0811C6.0028 21.0372 5.96059 20.9728 5.94435 20.9L5.85081 20.521H5.213V20.9468C5.21008 21.0617 5.23042 21.1761 5.27281 21.2829C5.31519 21.3897 5.37874 21.4869 5.45962 21.5685C5.54109 21.6495 5.6381 21.7131 5.74479 21.7555C5.85148 21.798 5.96565 21.8183 6.08042 21.8154H7.11791C7.23358 21.8167 7.3483 21.7943 7.45505 21.7496C7.56179 21.705 7.65831 21.639 7.7387 21.5557C7.82035 21.4745 7.88468 21.3775 7.92781 21.2706C7.97093 21.1638 7.99194 21.0493 7.98957 20.934V20.2144C7.98848 19.9825 7.89656 19.7602 7.73357 19.5954C7.57058 19.4306 7.34952 19.3364 7.11791 19.3331ZM11.3444 17.9152C11.4258 17.995 11.4903 18.0905 11.5341 18.1958C11.578 18.3011 11.6002 18.4142 11.5995 18.5283V19.3799C11.6014 19.4954 11.5797 19.6101 11.5358 19.717C11.4919 19.8239 11.4268 19.9207 11.3444 20.0015C11.2616 20.0837 11.1634 20.1486 11.0554 20.1925C10.9473 20.2364 10.8317 20.2583 10.7151 20.257H9.5756V21.7984H8.84848V17.6597H10.7151C10.8317 17.6584 10.9473 17.6804 11.0554 17.7242C11.1634 17.7681 11.2616 17.833 11.3444 17.9152ZM10.8682 18.6646C10.8709 18.5759 10.8406 18.4894 10.7831 18.4219C10.7581 18.3911 10.7262 18.3666 10.69 18.3504C10.6539 18.3341 10.6144 18.3265 10.5748 18.3282H9.5756V19.6056H10.5748C10.6144 19.6072 10.6539 19.5996 10.69 19.5834C10.7262 19.5671 10.7581 19.5426 10.7831 19.5119C10.8405 19.4426 10.8707 19.3549 10.8682 19.2649V18.6646ZM18.1434 20.0867L18.8662 21.7899H18.0924L17.4333 20.1761H16.7232V21.7984H15.9919V17.6597H17.8202C17.9356 17.6579 18.0501 17.6796 18.1569 17.7235C18.2636 17.7674 18.3603 17.8326 18.441 17.9152C18.5247 17.994 18.5916 18.0889 18.6376 18.1943C18.6837 18.2997 18.7079 18.4133 18.7089 18.5283V19.2522C18.7105 19.434 18.6571 19.6121 18.5558 19.7631C18.4502 19.9064 18.3076 20.0182 18.1434 20.0867ZM17.9648 18.6646C17.9703 18.577 17.943 18.4904 17.8883 18.4219C17.8632 18.3911 17.8313 18.3666 17.7951 18.3504C17.759 18.3341 17.7195 18.3265 17.6799 18.3282H16.7232V19.5119H17.6799C17.7194 19.5126 17.7585 19.5046 17.7946 19.4884C17.8306 19.4722 17.8626 19.4482 17.8883 19.4182C17.943 19.3496 17.9703 19.2631 17.9648 19.1755V18.6646ZM19.1596 18.3282H20.2099V21.7984H20.9455V18.3282H22.0042V17.6597H19.1596V18.3282ZM24.4364 19.3331H23.5562C23.3606 19.3331 23.2628 19.2266 23.2628 19.0095V18.6603C23.2583 18.5708 23.2871 18.4828 23.3436 18.4133C23.3693 18.382 23.4018 18.3569 23.4387 18.3399C23.4755 18.3229 23.5157 18.3146 23.5562 18.3154H24.2365C24.3105 18.3106 24.3837 18.3324 24.4429 18.3769C24.5022 18.4214 24.5436 18.4857 24.5597 18.5581L24.6575 18.8945H25.291V18.5198C25.2928 18.4053 25.2715 18.2916 25.2284 18.1855C25.1853 18.0794 25.1213 17.9831 25.0402 17.9024C24.9588 17.8227 24.8624 17.7601 24.7565 17.7185C24.6506 17.6768 24.5374 17.6568 24.4236 17.6597H23.4031C23.1734 17.663 22.954 17.7562 22.792 17.9193C22.6299 18.0824 22.5379 18.3025 22.5357 18.5326V19.1287C22.5339 19.2452 22.5559 19.3609 22.6006 19.4686C22.6452 19.5762 22.7114 19.6736 22.7951 19.7546C22.8759 19.8371 22.9725 19.9023 23.0793 19.9463C23.186 19.9902 23.3005 20.0119 23.4159 20.0101H24.2961C24.4959 20.0101 24.5895 20.125 24.5895 20.3464V20.7978C24.593 20.8851 24.5659 20.971 24.5129 21.0405C24.487 21.0727 24.4538 21.0983 24.4161 21.1153C24.3785 21.1323 24.3373 21.1402 24.2961 21.1384H23.5945C23.5203 21.1454 23.4461 21.125 23.3858 21.0811C23.3255 21.0372 23.2833 20.9728 23.2671 20.9L23.1735 20.521H22.5357V20.9468C22.5334 21.062 22.5544 21.1765 22.5975 21.2834C22.6406 21.3903 22.7049 21.4872 22.7866 21.5685C22.9488 21.7206 23.164 21.8031 23.3861 21.7984H24.4194C24.5358 21.8002 24.6513 21.7781 24.7588 21.7335C24.8663 21.6888 24.9635 21.6225 25.0444 21.5387C25.1268 21.4578 25.192 21.361 25.2358 21.2541C25.2797 21.1472 25.3014 21.0325 25.2995 20.917V20.2144C25.2941 19.9824 25.1997 19.7613 25.0358 19.5972C24.8719 19.4331 24.6511 19.3385 24.4194 19.3331H24.4364ZM26.2392 17.796L26.0819 18.0344L25.9373 17.796H25.8736V18.1962H25.9373V17.9492C25.9373 17.9492 25.9373 17.9194 25.9373 17.9024C25.9373 17.8854 25.9373 17.9322 25.9629 17.945L26.0947 18.1451L26.2222 17.9492C26.2222 17.9492 26.2222 17.9194 26.2222 17.9024V18.1962H26.2945V17.796H26.2392ZM14.8438 17.9109C14.9265 17.9909 14.9921 18.0869 15.0367 18.193C15.0813 18.2991 15.1039 18.4132 15.1032 18.5283V20.9085C15.1038 21.0251 15.0813 21.1408 15.0371 21.2487C14.9929 21.3567 14.9278 21.4548 14.8457 21.5375C14.7635 21.6202 14.6658 21.6858 14.5582 21.7306C14.4506 21.7753 14.3353 21.7984 14.2188 21.7984H13.2323C13.1159 21.8002 13.0004 21.7781 12.8929 21.7335C12.7854 21.6888 12.6881 21.6225 12.6073 21.5387C12.5199 21.4587 12.4503 21.3613 12.4027 21.2528C12.3551 21.1443 12.3306 21.027 12.3309 20.9085V18.5283C12.3386 18.299 12.4353 18.0818 12.6005 17.9228C12.7656 17.7638 12.9862 17.6755 13.2153 17.6767H14.2018C14.3191 17.6692 14.4368 17.6861 14.5473 17.7264C14.6578 17.7667 14.7588 17.8295 14.8438 17.9109ZM14.3719 18.6646C14.3763 18.5756 14.3457 18.4885 14.2868 18.4219C14.2617 18.3911 14.2299 18.3666 14.1937 18.3504C14.1575 18.3341 14.1181 18.3265 14.0785 18.3282H13.3769C13.336 18.3265 13.2953 18.334 13.2578 18.3502C13.2202 18.3665 13.1868 18.3909 13.16 18.4219C13.107 18.4913 13.0799 18.5772 13.0835 18.6646V20.7935C13.0806 20.8795 13.1076 20.9638 13.16 21.032C13.1858 21.0647 13.2188 21.091 13.2564 21.1087C13.294 21.1264 13.3353 21.1351 13.3769 21.1342H14.0785C14.1188 21.1352 14.1589 21.1264 14.1951 21.1086C14.2314 21.0908 14.2629 21.0645 14.2868 21.032C14.3451 20.9666 14.3756 20.8811 14.3719 20.7935V18.6646ZM17.4546 7.09156H9.5883L8.38501 9.00759H16.247L17.4546 7.09156ZM20.431 12.8355H19.2574L18.0456 14.7558H21.6471L22.8546 16.6719H25.1507L19.0661 7.02344L14.172 14.7601H8.82297L10.0518 12.8397H13.3726L14.5845 10.9237H7.17318L5.95285 12.8397H7.7302L5.30655 16.6719H15.3073L19.0661 10.6427L20.431 12.8355Z" fill="white"/>
<path d="M36.4526 5.80469H50.6288L49.9102 9.96891H40.981L40.3687 13.4647H47.5631L46.8445 17.6246H39.6161L38.3405 24.829H33.0935L36.4526 5.80469Z" fill="black"/>
<path d="M52.4657 5.80469H57.7169L54.3578 24.829H49.1066L52.4657 5.80469Z" fill="black"/>
<path d="M59.5538 5.80469H73.73L73.0114 9.9689H64.0822L63.4699 13.4647H70.6643L69.9457 17.6246H62.7173L61.4417 24.829H56.1947L59.5538 5.80469Z" fill="black"/>
<path d="M78.1522 5.78125H84.0413L87.107 24.8311H81.8812L81.456 21.4972H74.8739L73.2752 24.8311H68.211L78.1522 5.78125ZM80.95 17.5203L80.0699 10.6651H79.9636L76.7661 17.5203H80.95Z" fill="black"/>
<path d="M90.5042 21.9155L96.8822 15.8352C98.2854 14.4811 100.526 12.4288 100.526 10.6448C100.526 9.64424 99.774 9.15883 98.8551 9.15883C97.1543 9.15883 96.7291 10.5937 96.5335 11.9434H91.7458C91.7713 11.8625 91.9073 10.9684 91.9329 10.8875C92.66 6.99577 95.9808 5.29688 99.812 5.29688C102.835 5.29688 105.616 6.51038 105.616 9.91674C105.616 13.6977 101.755 16.6186 99.191 18.9136L97.3712 20.5359L97.3457 20.6721H104.009L103.281 24.8321H89.9897L90.5042 21.9155Z" fill="black"/>
<path d="M105.374 20.8055C105.376 20.2046 105.447 19.606 105.586 19.0214H110.336C110.286 19.289 110.25 19.5591 110.229 19.8304C110.229 20.9375 111.445 21.21 112.334 21.21C112.651 21.2017 112.963 21.131 113.252 21.002C113.541 20.873 113.802 20.6881 114.02 20.458C114.238 20.2278 114.409 19.9569 114.522 19.6608C114.636 19.3646 114.69 19.049 114.681 18.7319C114.681 17.4545 113.406 16.9223 112.279 16.9223H111.365L111.956 13.4904H113.036C114.464 13.5713 115.842 12.758 115.842 10.9357C115.842 9.90954 115.166 9.36885 114.196 9.36885C112.657 9.36885 111.985 10.0458 111.739 11.4509H107.1L107.206 10.8292C107.852 6.99715 111.229 5.23438 114.898 5.23438C117.73 5.23438 120.783 6.51175 120.783 9.82865C120.783 12.2045 119.541 14.2313 117.22 14.9381L117.19 15.0744C117.985 15.249 118.694 15.6949 119.197 16.3357C119.7 16.9766 119.964 17.7725 119.945 18.5871C119.945 23.075 115.196 25.2337 111.496 25.1528C108.609 25.1188 105.374 24.2672 105.374 20.8055Z" fill="black"/>
</g>
</svg>
