<svg width="141" height="34" viewBox="0 0 141 34" fill="none" xmlns="http://www.w3.org/2000/svg">
<g clip-path="url(#clip0_2570_3755)">
<path d="M19.5068 20.632H18.4788V21.9015H19.5068C19.5925 21.9041 19.673 21.8677 19.7301 21.8028C19.7872 21.7301 19.8184 21.6367 19.8158 21.5432V20.9954C19.821 20.902 19.7898 20.8085 19.7301 20.7332C19.6756 20.6683 19.5925 20.6294 19.5068 20.632ZM15.6386 20.632H14.8858C14.7871 20.632 14.7118 20.6631 14.6547 20.7332C14.5976 20.8085 14.5664 20.8994 14.569 20.9954V23.2722C14.569 23.3735 14.595 23.4617 14.6547 23.5292C14.7144 23.6019 14.7871 23.6383 14.8858 23.6383H15.6386C15.7295 23.6383 15.8048 23.6019 15.8645 23.5292C15.9268 23.4565 15.958 23.3657 15.9554 23.2722V20.9954C15.958 20.8994 15.9268 20.8059 15.8645 20.7332C15.8074 20.6683 15.7243 20.6294 15.6386 20.632ZM11.8769 20.632H10.8047V22.0079H11.8769C11.9652 22.0105 12.0482 21.9716 12.1028 21.9067C12.1651 21.834 12.1962 21.7405 12.191 21.6445V20.998C12.1962 20.902 12.1625 20.8111 12.1028 20.7358C12.0482 20.6683 11.9626 20.6294 11.8769 20.632Z" fill="white"/>
<path d="M16.9593 0.976562C7.88078 0.976562 0.523438 8.3365 0.523438 17.4125C0.523438 26.4885 7.88338 33.8484 16.9593 33.8484C26.0353 33.8484 33.3952 26.4885 33.3952 17.4125C33.3952 8.3365 26.0379 0.976562 16.9593 0.976562ZM10.8169 8.58313H19.2672L17.9718 10.6341L9.52671 10.6392L10.8169 8.58313ZM9.10095 23.4069C9.10614 23.6561 9.00749 23.8976 8.83096 24.0741C8.65702 24.2558 8.41558 24.3545 8.16376 24.3519H7.05003C6.54898 24.3648 6.13361 23.9676 6.12063 23.4666C6.12063 23.4536 6.12063 23.438 6.12063 23.4251V22.9837H6.806L6.90725 23.3939C6.95398 23.5627 7.0708 23.6483 7.25772 23.6483H8.01059C8.09886 23.6509 8.18453 23.612 8.23904 23.5445C8.29616 23.4692 8.32731 23.3783 8.32472 23.2849V22.7994C8.32472 22.5606 8.22087 22.4411 8.01059 22.4411H7.06301C6.81119 22.4437 6.56975 22.3451 6.39062 22.166C6.21149 21.9894 6.11284 21.748 6.11803 21.4988V20.8575C6.11544 20.6083 6.21409 20.3695 6.39062 20.1981C6.56716 20.019 6.80859 19.9177 7.06301 19.9203H8.16116C8.41818 19.9203 8.63884 20.0086 8.82057 20.1851C8.9997 20.3617 9.08797 20.5797 9.08797 20.8471V21.2443H8.41039L8.30914 20.8835C8.25722 20.7095 8.1352 20.6265 7.96126 20.6265H7.21878C7.12013 20.6265 7.04484 20.6602 6.98773 20.7303C6.92542 20.803 6.89427 20.8991 6.89946 20.9951V21.369C6.89946 21.6026 7.0033 21.7194 7.21618 21.7194H8.16376C8.42077 21.7194 8.64144 21.8129 8.82576 21.9998C9.01009 22.1867 9.10095 22.4074 9.10095 22.6618V23.4147V23.4069ZM12.9769 21.7817C12.9821 22.031 12.8808 22.2724 12.7017 22.4463C12.5252 22.6255 12.2811 22.7267 12.0293 22.7241H10.8065V24.3519H10.0226V19.9125H12.0319C12.2915 19.9125 12.5174 20.0034 12.7043 20.1903C12.8834 20.3643 12.9821 20.6005 12.9795 20.8497V21.7817H12.9769ZM16.7386 23.4017C16.7464 23.6561 16.6452 23.9027 16.4608 24.0767C16.2869 24.2584 16.0455 24.3597 15.7937 24.3545H14.7318C14.48 24.3597 14.236 24.2584 14.0595 24.0767C13.8777 23.9001 13.7765 23.6561 13.7817 23.4017V20.8497C13.7817 20.5953 13.8751 20.3721 14.0595 20.1903C14.236 20.0086 14.48 19.9074 14.7318 19.9125H15.7937C16.0455 19.9074 16.2869 20.006 16.4608 20.1851C16.6426 20.3565 16.7438 20.5953 16.7386 20.8471V23.4017ZM16.9333 18.8559H6.23486L8.83615 14.7463H6.92542L8.22347 12.6902H16.1831L14.8824 14.7463H11.3154L9.9966 16.805H15.7417L20.9936 8.51303L27.5306 18.8559H25.0643L23.7637 16.8024H19.8981L21.1961 14.7437H22.463L20.991 12.4072L16.9333 18.8559ZM19.9474 24.3545L19.2231 22.6151H18.478V24.3519H17.694V19.9125H19.6566C19.9214 19.9125 20.1421 20.0034 20.3264 20.1903C20.5056 20.3617 20.6068 20.6005 20.6042 20.8497V21.626C20.6068 21.8207 20.5471 22.0102 20.4381 22.1711C20.3212 22.3321 20.1759 22.4463 20.0071 22.5216L20.7859 24.3571L19.9474 24.3545ZM24.1505 20.6317H23.0134V24.3545H22.2268V20.6317H21.0975V19.9151H24.1505V20.6317ZM27.7097 23.4069C27.7149 23.6587 27.6163 23.9002 27.4346 24.0741C27.258 24.2558 27.014 24.3571 26.7622 24.3519H25.651C25.4044 24.3571 25.163 24.261 24.989 24.0871C24.8125 23.9131 24.7164 23.6717 24.7216 23.4251V22.9837H25.4044L25.5057 23.3939C25.555 23.5627 25.6692 23.6483 25.8587 23.6483H26.6116C26.6999 23.6509 26.7855 23.6146 26.8426 23.5445C26.8998 23.4692 26.9309 23.3783 26.9283 23.2849V22.7994C26.9283 22.5606 26.8245 22.4411 26.6116 22.4411H25.6666C25.4148 22.4463 25.1734 22.3477 24.9994 22.166C24.8203 21.9894 24.719 21.748 24.7216 21.4988V20.8575C24.7216 20.6005 24.8151 20.3798 24.9994 20.1981C25.1734 20.0164 25.4148 19.9151 25.6666 19.9203H26.7622C27.2658 19.9099 27.6812 20.3097 27.6916 20.8134C27.6916 20.8238 27.6916 20.8368 27.6916 20.8471V21.2443H27.0088L26.905 20.8835C26.8504 20.7095 26.7336 20.6265 26.5597 20.6265H25.8146C25.7263 20.6239 25.6407 20.6628 25.5861 20.7303C25.5264 20.8056 25.4979 20.8991 25.5005 20.9951V21.369C25.5005 21.6026 25.6095 21.7194 25.8172 21.7194H26.7622C27.0192 21.7194 27.2424 21.8129 27.4242 21.9998C27.6137 22.1867 27.7071 22.4074 27.7071 22.6618V23.4147L27.7097 23.4069ZM62.5494 30.5488H77.9806L84.1515 19.884H77.0356L74.4265 24.3908L69.2032 24.396L77.2693 10.4342H82.49L79.6421 15.359L86.7632 15.3668L93.1807 4.2788H77.4821C75.1534 4.2762 73.0013 5.51714 71.8356 7.53171L60.5348 27.057C59.6392 28.6095 60.7581 30.5488 62.5494 30.5488ZM116.192 7.74459C117.083 6.2077 115.974 4.28139 114.196 4.28139C110.226 4.2762 105.486 4.2736 102.622 4.28139C100.206 4.28918 97.9757 5.57425 96.7582 7.66151C95.6185 9.61638 94.484 11.5739 93.3521 13.5339H100.683L102.508 10.3744H107.565L104.668 15.3875H96.7218C94.0452 15.3823 91.5686 16.7998 90.216 19.1078C87.9808 22.9162 85.7533 26.7299 83.531 30.5462H102.988L106.517 24.4453H94.3776L96.052 21.5559H108.188C108.985 20.1722 113.461 12.4565 116.192 7.74459ZM52.8244 14.9514L55.4335 10.4367H67.7753L71.3502 4.2762H55.7165C53.3462 4.2762 51.1577 5.5405 49.9713 7.59142L36.6819 30.5488H43.803L49.2729 21.1093H61.6148L65.1663 14.9514H52.8244ZM139.853 4.28139L133.365 15.4291L136.745 15.455L133.259 21.5559L129.871 21.5403L124.726 30.5462H117.63L122.784 21.5403L116.935 21.5481C114.061 21.5507 112.256 18.4483 113.684 15.9509L120.356 4.2762L127.4 4.27101L121.068 15.3901L126.26 15.4498L132.646 4.2762H139.853V4.28139Z" fill="white"/>
</g>
<defs>
<clipPath id="clip0_2570_3755">
<rect width="140" height="33" fill="white" transform="translate(0.523438 0.976562)"/>
</clipPath>
</defs>
</svg>
