
<svg width="130" height="73" viewBox="0 0 130 73" fill="none" xmlns="http://www.w3.org/2000/svg">
<path d="M33.2745 33.7331L25.2266 71.4663L31.6937 72.8457L39.7417 35.1124L33.2745 33.7331Z" fill="white"/>
<path d="M16.1822 55.0396L10.2422 57.9419L17.5996 73.0001L23.5396 70.0978L16.1822 55.0396Z" fill="white"/>
<path d="M19.737 40.8587L16.7951 54.8247L23.2652 56.1888L27.0473 38.2345L23.813 34.2461L7.93963 34.2491L0 71.4684L6.46718 72.8473L13.2906 40.8587H19.737Z" fill="white"/>
<path d="M72.9318 37.9543L67.8732 33.6943L46.7157 58.8209L51.7699 35.1341L45.3027 33.7537L37.2695 71.4124L43.7352 72.7928L72.9318 37.9543Z" fill="#DBFD67"/>
<path d="M82.3489 33.7534L53.1523 68.5919L58.2109 72.8519L79.3684 47.7253L74.3143 71.4121L80.7815 72.7925L88.8146 35.1338L82.3489 33.7534Z" fill="white"/>
<path d="M100.605 34.9746L94.1379 33.5957L86.9062 67.4931L90.1391 71.4889H104.393V64.8778H94.2254L100.605 34.9746Z" fill="white"/>
<path d="M121.926 49.7069H110.373L120.198 36.878L114.948 32.8569L101 51.0695L103.658 56.3864H115.215L105.634 68.7953L110.886 72.8134L124.584 54.908L121.926 49.7069Z" fill="white"/>
<path d="M58.0822 0.366211H52.2474L46.0859 29.3624H49.8903H51.9208H57.6473L58.6982 24.5057H52.9524L58.0822 0.366211Z" fill="white"/>
<path d="M73.5549 0.366211H67.72L61.5586 29.3624H65.3629H67.3935H73.12L74.1709 24.5057H68.4251L73.5549 0.366211Z" fill="white"/>
<path d="M93.5631 5.22291L94.6125 0.366211H89.0314H86.9653H83.1966L77.0352 29.3624H80.8038H82.87H88.4511L89.5034 24.5057H83.9031L85.4423 17.2563H90.6983L91.7136 12.4723H86.4591L87.9998 5.22291H93.5631Z" fill="white"/>
<path d="M128.032 5.22291L129.083 0.366211H123.5H121.434H117.665L111.504 29.3624H115.273H117.339H122.92L123.972 24.5057H118.372L119.911 17.2563H125.167L126.182 12.4723H120.928L122.469 5.22291H128.032Z" fill="white"/>
<path d="M25.3519 0.946938C24.2401 0.31907 22.8374 0.00439453 21.1468 0.00439453C19.6491 0.00439453 18.3859 0.293837 17.3603 0.874206C16.3331 1.45458 15.4752 2.35407 14.7865 3.57418C14.0977 4.7943 13.5352 6.40775 13.1018 8.41307L10.3112 21.6413C9.90009 23.5027 9.90751 25.0375 10.3291 26.2442C10.7521 27.4524 11.5195 28.3341 12.6312 28.8908C13.7415 29.4459 15.1442 29.7249 16.8348 29.7249C18.3577 29.7249 19.6313 29.4533 20.6584 28.91C21.6856 28.3668 22.5302 27.491 23.1951 26.2828C23.8586 25.0746 24.4093 23.4195 24.8442 21.3177L25.6413 17.5847H19.6966L18.5017 23.1657C18.4038 23.6496 18.2954 24.0296 18.1752 24.3072C18.0535 24.5862 17.8961 24.7792 17.7046 24.8861C17.5117 24.9959 17.2816 25.0493 17.0159 25.0493C16.6775 25.0493 16.4118 24.9825 16.2188 24.8504C16.0259 24.7183 15.9042 24.4942 15.8567 24.1795C15.8077 23.8663 15.8329 23.467 15.9294 22.9832L19.4457 6.6022C19.566 6.09456 19.6921 5.70122 19.8257 5.42365C19.9593 5.14608 20.1211 4.95312 20.3156 4.84328C20.5085 4.73492 20.7505 4.68 21.0414 4.68C21.3546 4.68 21.6084 4.75274 21.8028 4.89671C21.9958 5.04218 22.1101 5.26483 22.1472 5.56763C22.1828 5.87043 22.1413 6.28752 22.021 6.81742L20.8618 12.1461H26.805L27.5665 8.55853C27.9776 6.62446 27.988 5.0303 27.6021 3.77457C27.2162 2.51883 26.4666 1.57629 25.3548 0.946938" fill="white"/>
<path d="M40.5746 6.6735L37.0226 23.1643C36.9009 23.6719 36.7688 24.0638 36.6234 24.3414C36.4779 24.6204 36.3161 24.8074 36.1335 24.9024C35.9524 24.9989 35.7164 25.0479 35.427 25.0479C35.0886 25.0479 34.8288 24.987 34.6477 24.8668C34.4666 24.7451 34.3583 24.5403 34.3212 24.2508C34.2855 23.9614 34.3152 23.5873 34.4117 23.1272L37.9637 6.59929C38.0602 6.11688 38.1745 5.73541 38.3081 5.45636C38.4402 5.17879 38.6034 4.97989 38.7979 4.85818C38.9908 4.73795 39.2447 4.67709 39.5593 4.67709C39.874 4.67709 40.1204 4.74389 40.303 4.87599C40.4841 5.00958 40.5984 5.22629 40.6473 5.52761C40.6948 5.83041 40.6711 6.2104 40.5746 6.66905M46.12 3.93345C45.7579 2.64061 45.0261 1.66244 43.9277 0.997463C42.8278 0.333972 41.4088 0 39.6692 0C38.1225 0 36.8356 0.289442 35.8085 0.869812C34.7813 1.45018 33.9367 2.34374 33.2718 3.55198C32.6068 4.76021 32.0576 6.37961 31.6227 8.40867L28.8678 21.4202C28.4581 23.3291 28.4447 24.8935 28.8322 26.1136C29.2181 27.3338 29.9558 28.2407 31.0438 28.8314C32.1303 29.4237 33.5567 29.7191 35.3201 29.7191C36.8905 29.7191 38.1893 29.4281 39.2165 28.8492C40.2436 28.2689 41.0882 27.3768 41.7532 26.1671C42.4167 24.9588 42.9555 23.3409 43.3651 21.3104L46.0473 8.66249C46.4585 6.80264 46.4822 5.22481 46.12 3.93196" fill="white"/>
<path d="M111.446 3.97347C111.071 2.68062 110.34 1.69652 109.254 1.01967C108.166 0.34282 106.777 0.00439453 105.086 0.00439453C103.587 0.00439453 102.319 0.293837 101.28 0.874206C100.241 1.45458 99.3713 2.35407 98.6707 3.57418C97.9701 4.7943 97.4016 6.40775 96.9682 8.41307L94.2133 21.4617C93.8273 23.2503 93.814 24.7599 94.1776 25.9919C94.5398 27.2239 95.2048 28.1545 96.1711 28.7824C97.1374 29.4103 98.31 29.7249 99.6874 29.7249C100.605 29.7249 101.451 29.5617 102.224 29.2351C102.997 28.9086 103.71 28.4321 104.363 27.8027L104.725 29.3613H107.008L110.234 14.2836H103.165L102.223 18.741H103.309L102.404 23.1271C102.307 23.611 102.191 23.9851 102.059 24.2508C101.926 24.5179 101.757 24.7168 101.552 24.8489C101.345 24.9825 101.086 25.0478 100.772 25.0478C100.459 25.0478 100.21 24.9751 100.03 24.8297C99.8492 24.6842 99.7394 24.4734 99.7038 24.1958C99.6667 23.9183 99.6978 23.5502 99.7943 23.09L103.309 6.59923C103.406 6.11534 103.52 5.73536 103.654 5.4563C103.786 5.17874 103.949 4.97984 104.143 4.85812C104.336 4.73789 104.59 4.67703 104.905 4.67703C105.22 4.67703 105.472 4.74977 105.666 4.89375C105.859 5.03921 105.974 5.25592 106.011 5.54536C106.046 5.83481 106.017 6.21034 105.92 6.66899L104.688 12.1788H110.631L111.393 8.66244C111.804 6.82633 111.822 5.26186 111.448 3.96901" fill="white"/>
</svg>
