<svg width="130" height="74" viewBox="0 0 130 74" fill="none" xmlns="http://www.w3.org/2000/svg">
<path d="M33.2726 34.5637L25.2246 72.2969L31.6918 73.6762L39.7398 35.943L33.2726 34.5637Z" fill="white"/>
<path d="M16.1803 55.8711L10.2402 58.7734L17.5976 73.8316L23.5377 70.9293L16.1803 55.8711Z" fill="white"/>
<path d="M19.737 41.6908L16.7951 55.6567L23.2652 57.0208L27.0473 39.0665L23.813 35.0781L7.93963 35.0811L0 72.3004L6.46718 73.6794L13.2906 41.6908H19.737Z" fill="white"/>
<path d="M72.9318 38.7834L67.8732 34.5234L46.7157 59.65L51.7699 35.9632L45.3027 34.5828L37.2695 72.2415L43.7352 73.6219L72.9318 38.7834Z" fill="#EA337D"/>
<path d="M82.3489 34.5781L53.1523 69.4166L58.2109 73.6766L79.3684 48.55L74.3143 72.2368L80.7815 73.6172L88.8146 35.9585L82.3489 34.5781Z" fill="white"/>
<path d="M100.603 35.8008L94.1359 34.4219L86.9043 68.3193L90.1372 72.3151H104.391V65.7039H94.2235L100.603 35.8008Z" fill="white"/>
<path d="M121.924 50.5375H110.372L120.196 37.7085L114.946 33.6875L100.998 51.9001L103.656 57.2169H115.213L105.632 69.6259L110.884 73.6439L124.582 55.7386L121.924 50.5375Z" fill="white"/>
<path d="M58.0803 1.19531H52.2454L46.084 30.1915H49.8883H51.9188H57.6454L58.6963 25.3348H52.9505L58.0803 1.19531Z" fill="white"/>
<path d="M73.5549 1.19531H67.72L61.5586 30.1915H65.3629H67.3935H73.12L74.1709 25.3348H68.4251L73.5549 1.19531Z" fill="white"/>
<path d="M93.5631 6.05201L94.6125 1.19531H89.0314H86.9653H83.1966L77.0352 30.1915H80.8038H82.87H88.4511L89.5034 25.3348H83.9031L85.4423 18.0854H90.6983L91.7136 13.3014H86.4591L87.9998 6.05201H93.5631Z" fill="white"/>
<path d="M128.032 6.05201L129.083 1.19531H123.5H121.434H117.665L111.504 30.1915H115.273H117.339H122.92L123.972 25.3348H118.372L119.911 18.0854H125.167L126.182 13.3014H120.928L122.469 6.05201H128.032Z" fill="white"/>
<path d="M25.3538 1.77848C24.2421 1.15061 22.8394 0.835938 21.1487 0.835938C19.6511 0.835938 18.3879 1.12538 17.3622 1.70575C16.3351 2.28612 15.4771 3.18562 14.7884 4.40573C14.0997 5.62584 13.5371 7.2393 13.1037 9.24461L10.3132 22.4729C9.90204 24.3342 9.90946 25.869 10.331 27.0758C10.754 28.284 11.5214 29.1657 12.6332 29.7223C13.7435 30.2774 15.1461 30.5565 16.8368 30.5565C18.3597 30.5565 19.6332 30.2849 20.6604 29.7416C21.6875 29.1983 22.5321 28.3226 23.1971 27.1143C23.8606 25.9061 24.4113 24.2511 24.8462 22.1493L25.6433 18.4162H19.6986L18.5037 23.9973C18.4057 24.4812 18.2974 24.8611 18.1771 25.1387C18.0554 25.4178 17.8981 25.6107 17.7066 25.7176C17.5136 25.8274 17.2836 25.8809 17.0179 25.8809C16.6794 25.8809 16.4138 25.8141 16.2208 25.682C16.0278 25.5499 15.9061 25.3257 15.8586 25.0111C15.8096 24.6979 15.8349 24.2986 15.9313 23.8147L19.4477 7.43374C19.5679 6.9261 19.6941 6.53276 19.8277 6.25519C19.9613 5.97762 20.1231 5.78466 20.3175 5.67482C20.5105 5.56647 20.7524 5.51155 21.0433 5.51155C21.3565 5.51155 21.6104 5.58428 21.8048 5.72826C21.9978 5.87372 22.1121 6.09637 22.1492 6.39917C22.1848 6.70197 22.1432 7.11907 22.023 7.64897L20.8637 12.9777H26.807L27.5684 9.39008C27.9796 7.45601 27.99 5.86185 27.604 4.60611C27.2181 3.35038 26.4685 2.40783 25.3568 1.77848" fill="white"/>
<path d="M40.5746 7.50163L37.0226 23.9924C36.9009 24.5001 36.7688 24.8919 36.6234 25.1695C36.4779 25.4485 36.3161 25.6356 36.1335 25.7306C35.9524 25.827 35.7164 25.876 35.427 25.876C35.0886 25.876 34.8288 25.8152 34.6477 25.6949C34.4666 25.5732 34.3583 25.3684 34.3212 25.0789C34.2855 24.7895 34.3152 24.4155 34.4117 23.9553L37.9637 7.42741C38.0602 6.94501 38.1745 6.56354 38.3081 6.28449C38.4402 6.00692 38.6034 5.80802 38.7979 5.68631C38.9908 5.56607 39.2447 5.50522 39.5593 5.50522C39.874 5.50522 40.1204 5.57201 40.303 5.70412C40.4841 5.83771 40.5984 6.05442 40.6473 6.35573C40.6948 6.65853 40.6711 7.03852 40.5746 7.49718M46.12 4.76157C45.7579 3.46873 45.0261 2.49056 43.9277 1.82559C42.8278 1.1621 41.4088 0.828125 39.6692 0.828125C38.1225 0.828125 36.8356 1.11757 35.8085 1.69794C34.7813 2.27831 33.9367 3.17187 33.2718 4.3801C32.6068 5.58834 32.0576 7.20773 31.6227 9.2368L28.8678 22.2483C28.4581 24.1572 28.4447 25.7217 28.8322 26.9418C29.2181 28.1619 29.9558 29.0688 31.0438 29.6596C32.1303 30.2518 33.5567 30.5472 35.3201 30.5472C36.8905 30.5472 38.1893 30.2563 39.2165 29.6774C40.2436 29.097 41.0882 28.2049 41.7532 26.9952C42.4167 25.787 42.9555 24.1691 43.3651 22.1385L46.0473 9.49062C46.4585 7.63076 46.4822 6.05293 46.12 4.76009" fill="white"/>
<path d="M111.448 4.80501C111.073 3.51217 110.342 2.52806 109.256 1.85121C108.168 1.17436 106.779 0.835938 105.088 0.835938C103.589 0.835938 102.321 1.12538 101.282 1.70575C100.243 2.28612 99.3732 3.18562 98.6726 4.40573C97.972 5.62584 97.4035 7.2393 96.9701 9.24461L94.2152 22.2933C93.8293 24.0819 93.8159 25.5914 94.1796 26.8234C94.5418 28.0554 95.2067 28.9861 96.173 29.6139C97.1393 30.2418 98.3119 30.5565 99.6894 30.5565C100.607 30.5565 101.453 30.3932 102.226 30.0667C102.999 29.7401 103.712 29.2636 104.365 28.6343L104.727 30.1928H107.01L110.235 15.1151H103.167L102.225 19.5725H103.311L102.406 23.9587C102.309 24.4426 102.193 24.8166 102.061 25.0823C101.928 25.3495 101.759 25.5484 101.554 25.6805C101.347 25.8141 101.088 25.8794 100.774 25.8794C100.461 25.8794 100.212 25.8067 100.032 25.6612C99.8512 25.5157 99.7413 25.305 99.7057 25.0274C99.6686 24.7498 99.6998 24.3817 99.7963 23.9216L103.311 7.43077C103.408 6.94688 103.522 6.5669 103.656 6.28785C103.788 6.01028 103.951 5.81138 104.145 5.68966C104.338 5.56944 104.592 5.50858 104.907 5.50858C105.221 5.50858 105.474 5.58131 105.668 5.72529C105.861 5.87075 105.975 6.08746 106.013 6.37691C106.048 6.66635 106.019 7.04188 105.922 7.50054L104.69 13.0103H110.633L111.395 9.49398C111.806 7.65787 111.824 6.0934 111.45 4.80056" fill="white"/>
</svg>
