<svg width="55" height="55" viewBox="0 0 55 55" fill="none" xmlns="http://www.w3.org/2000/svg">
<rect width="54.9294" height="54.9294" rx="11.9412" fill="white"/>
<path d="M44.8009 25.2253H45.0305L45.1112 25.0017H44.8009V24.7958H45.1869L45.2675 24.5723H44.4844V25.5941H44.8009V25.2253Z" fill="black"/>
<path d="M45.6849 24.5723H45.3672V25.5941H45.6849V24.5723Z" fill="black"/>
<path d="M46.2162 25.2253H46.4446L46.5253 25.0017H46.2162V24.7958H46.6009L46.6816 24.5723H45.8984V25.5941H46.2162V25.2253Z" fill="black"/>
<path d="M46.8286 25.5941L46.8678 25.4577H47.2273L47.2688 25.5941H47.5892L47.2172 24.5723H46.8879L46.5156 25.5941H46.8286ZM47.0481 24.8363L47.1742 25.2619H46.922L47.0481 24.8363Z" fill="black"/>
<path d="M47.4829 24.8337C47.4965 24.8476 47.5129 24.8588 47.5307 24.8666C47.5499 24.8752 47.5704 24.8795 47.5915 24.8792C47.6117 24.8794 47.6321 24.8751 47.6505 24.8666C47.6867 24.8507 47.7155 24.8218 47.7315 24.7857C47.7401 24.7671 47.7443 24.7468 47.744 24.7264C47.7443 24.7054 47.7401 24.6847 47.7315 24.6657C47.7235 24.6478 47.7125 24.6315 47.6986 24.6177C47.6849 24.6036 47.6686 24.5924 47.6505 24.5849C47.6318 24.5766 47.6114 24.5723 47.5906 24.5723C47.5701 24.5723 47.5497 24.5766 47.5307 24.5849C47.4948 24.6008 47.466 24.6296 47.45 24.6657C47.4414 24.6847 47.4372 24.7054 47.4375 24.7264C47.4372 24.7468 47.4414 24.7671 47.45 24.7857C47.4577 24.8038 47.4687 24.8202 47.4829 24.8337ZM47.4829 24.6771C47.4885 24.6621 47.4971 24.6484 47.5081 24.6367C47.5188 24.6261 47.531 24.6176 47.5446 24.6114C47.5591 24.6052 47.5746 24.6022 47.59 24.6026C47.6051 24.6023 47.6203 24.6053 47.6342 24.6114C47.6481 24.6173 47.6603 24.6259 47.6707 24.6367C47.6817 24.6484 47.6903 24.6621 47.6959 24.6771C47.7078 24.7089 47.7078 24.7438 47.6959 24.7756C47.6903 24.7902 47.6817 24.8035 47.6707 24.8148C47.6609 24.826 47.6481 24.8346 47.6342 24.84C47.6203 24.8465 47.6054 24.8499 47.59 24.8501C47.5743 24.8501 47.5588 24.8466 47.5446 24.84C47.531 24.8343 47.5185 24.8257 47.5081 24.8148C47.4971 24.8035 47.4885 24.7902 47.4829 24.7756C47.471 24.7438 47.471 24.7089 47.4829 24.6771Z" fill="black"/>
<path d="M47.5627 24.7366H47.5829L47.6283 24.8111H47.6612L47.6143 24.7353C47.6265 24.7346 47.6383 24.7297 47.6472 24.7214C47.6517 24.7174 47.6553 24.7123 47.6576 24.7066C47.6597 24.7009 47.6606 24.6947 47.6597 24.6886C47.6606 24.6812 47.6594 24.6738 47.6564 24.667C47.6535 24.6602 47.649 24.6541 47.6434 24.6494C47.6291 24.6404 47.6122 24.636 47.5956 24.6368H47.5312V24.8111H47.5627V24.7366ZM47.5627 24.6621H47.6042H47.6158L47.6244 24.6696C47.6253 24.6738 47.6253 24.6781 47.6244 24.6823C47.6253 24.6869 47.6253 24.6916 47.6244 24.6962L47.617 24.7038H47.6057H47.5627V24.6621Z" fill="black"/>
<path d="M44.8188 27.4035C44.8346 27.4196 44.8536 27.4321 44.8743 27.4402C44.8992 27.4487 44.925 27.453 44.9514 27.4528C44.9776 27.4528 45.0034 27.4486 45.0283 27.4402C45.049 27.4318 45.0677 27.4193 45.0838 27.4035C45.0992 27.3869 45.1108 27.3671 45.1179 27.3455C45.1256 27.3205 45.1294 27.2945 45.1291 27.2684C45.1294 27.2423 45.1259 27.2162 45.1179 27.1913C45.111 27.1698 45.0995 27.15 45.0841 27.1336C45.0686 27.1171 45.0493 27.1045 45.0283 27.0966C45.0034 27.0882 44.9776 27.084 44.9514 27.084C44.925 27.0838 44.8992 27.0881 44.8743 27.0966C44.8533 27.1044 44.8343 27.117 44.8188 27.1332C44.8034 27.1499 44.7918 27.1697 44.7847 27.1913C44.777 27.2162 44.7732 27.2423 44.7735 27.2684C44.7732 27.2945 44.777 27.3205 44.7847 27.3455C44.7918 27.3671 44.8034 27.3869 44.8188 27.4035ZM44.8755 27.2255C44.8779 27.2125 44.8826 27.2 44.8894 27.1888C44.896 27.1786 44.9046 27.17 44.9147 27.1636C44.9259 27.1578 44.9387 27.1548 44.9514 27.1548C44.9639 27.1548 44.9767 27.1578 44.9879 27.1636C44.998 27.17 45.0066 27.1786 45.0132 27.1888C45.02 27.2 45.0247 27.2125 45.0271 27.2255C45.0283 27.2397 45.0283 27.2541 45.0271 27.2684C45.0283 27.2827 45.0283 27.297 45.0271 27.3113C45.0244 27.3242 45.0197 27.3366 45.0132 27.348C45.0066 27.3582 44.998 27.3668 44.9879 27.3732C44.9767 27.379 44.9639 27.382 44.9514 27.382C44.9387 27.382 44.9259 27.379 44.9147 27.3732C44.9046 27.3668 44.896 27.3582 44.8894 27.348C44.8829 27.3366 44.8782 27.3242 44.8755 27.3113C44.8737 27.2971 44.8737 27.2827 44.8755 27.2684C44.8737 27.2541 44.8737 27.2397 44.8755 27.2255Z" fill="black"/>
<path d="M45.2978 27.302H45.4351V27.2351H45.2978V27.158H45.4416V27.0898H45.2031V27.446H45.2978V27.302Z" fill="black"/>
<path d="M45.6103 27.302H45.7476V27.2351H45.6103V27.158H45.7527V27.0898H45.5156V27.446H45.6103V27.302Z" fill="black"/>
<path d="M45.9228 27.0898H45.8281V27.446H45.9228V27.0898Z" fill="black"/>
<path d="M46.0711 27.4106C46.0904 27.4257 46.1126 27.4364 46.1366 27.4422C46.1601 27.4487 46.1841 27.4521 46.2084 27.4523C46.2286 27.4545 46.2488 27.4545 46.2689 27.4523L46.3132 27.4422V27.369C46.2992 27.3741 46.285 27.3783 46.2701 27.3816C46.2553 27.3834 46.2399 27.3834 46.2247 27.3816C46.2084 27.3818 46.1924 27.3793 46.177 27.374C46.1627 27.3695 46.1497 27.3617 46.139 27.3513C46.1283 27.3416 46.12 27.3295 46.115 27.3159C46.1085 27.3013 46.1049 27.2853 46.1049 27.2692C46.1052 27.2536 46.1082 27.2382 46.1138 27.2237C46.1185 27.21 46.1266 27.1975 46.1366 27.1871C46.1458 27.1763 46.1574 27.168 46.1708 27.1631C46.185 27.1569 46.2004 27.1539 46.2161 27.1542C46.2319 27.1523 46.2482 27.1523 46.2639 27.1542C46.2799 27.1584 46.2954 27.1648 46.3093 27.1732L46.317 27.0961C46.3001 27.0907 46.2826 27.0865 46.2651 27.0835C46.2473 27.0815 46.2289 27.0815 46.2111 27.0835C46.1838 27.0833 46.1565 27.0871 46.1304 27.0949C46.1067 27.102 46.0847 27.1141 46.066 27.1302C46.0468 27.1456 46.0322 27.1656 46.023 27.1883C46.0123 27.2139 46.0073 27.2415 46.0079 27.2692C46.007 27.2989 46.0135 27.3284 46.0269 27.3551C46.0373 27.3767 46.0521 27.3957 46.0711 27.4106Z" fill="black"/>
<path d="M46.4853 27.0898H46.3906V27.446H46.4853V27.0898Z" fill="black"/>
<path d="M46.6706 27.3702H46.8044L46.8308 27.446H46.9343L46.7981 27.0898H46.6819L46.5469 27.446H46.643L46.6706 27.3702ZM46.7388 27.1631L46.7803 27.302H46.6919L46.7388 27.1631Z" fill="black"/>
<path d="M47.2412 27.3753H47.0946V27.0898H47V27.446H47.2412V27.3753Z" fill="black"/>
<path d="M45.0143 27.9788H44.8681V27.6934H44.7734V28.0496H45.0143V27.9788Z" fill="black"/>
<path d="M45.1806 27.6934H45.0859V28.0496H45.1806V27.6934Z" fill="black"/>
<path d="M45.3238 27.7333C45.3045 27.7487 45.29 27.7686 45.2808 27.7914C45.2701 27.817 45.2651 27.8445 45.2657 27.8722C45.2651 27.9018 45.271 27.9312 45.2832 27.9581C45.295 27.9799 45.3114 27.9989 45.3312 28.0137C45.3511 28.0287 45.374 28.0395 45.398 28.0453C45.4223 28.0542 45.4478 28.0597 45.4736 28.0617C45.4938 28.0633 45.5143 28.0633 45.5344 28.0617L45.5783 28.0516V27.9771C45.5647 27.983 45.5502 27.9877 45.5356 27.991C45.5202 27.9929 45.5045 27.9929 45.4891 27.991C45.4727 27.991 45.4564 27.9885 45.441 27.9834C45.4273 27.9786 45.4149 27.9708 45.4045 27.9606C45.3932 27.9511 45.3846 27.9389 45.3793 27.9253C45.3734 27.9104 45.3704 27.8945 45.3704 27.8786C45.3701 27.863 45.3728 27.8476 45.3778 27.8331C45.3837 27.8198 45.3915 27.8075 45.4006 27.7964C45.4104 27.7859 45.4226 27.7777 45.436 27.7724C45.4502 27.7662 45.4656 27.7632 45.4813 27.7636C45.4974 27.7617 45.5134 27.7617 45.5294 27.7636C45.5451 27.7677 45.5605 27.7741 45.5748 27.7826L45.5822 27.7055C45.5653 27.7002 45.5481 27.696 45.5306 27.6929C45.5125 27.6909 45.4944 27.6909 45.4763 27.6929C45.449 27.6926 45.4217 27.6965 45.3956 27.7042C45.3698 27.7085 45.3452 27.7184 45.3238 27.7333Z" fill="black"/>
<path d="M45.7353 27.9018H45.8815V27.8348H45.7353V27.7603H45.8904V27.6934H45.6406V28.0496H45.8966V27.9826H45.7353V27.9018Z" fill="black"/>
<path d="M46.0599 27.8058H46.0611L46.186 28.0496H46.3032V27.6934H46.2163L46.2174 27.9346L46.0964 27.6934H45.9766V28.0496H46.0635L46.0599 27.8058Z" fill="black"/>
<path d="M46.435 27.8792C46.4472 27.8875 46.4608 27.8934 46.4754 27.8969L46.5157 27.9108C46.5264 27.9139 46.5365 27.9186 46.546 27.9247C46.5501 27.9277 46.5534 27.9317 46.5555 27.9363C46.5578 27.941 46.5587 27.9461 46.5584 27.9512C46.5605 27.9565 46.5605 27.9624 46.5584 27.9677C46.5555 27.9727 46.5513 27.9766 46.546 27.979H46.527H46.5056C46.4875 27.9811 46.4694 27.9811 46.4513 27.979C46.4359 27.9749 46.4211 27.969 46.4071 27.9613L46.3994 28.0409C46.4169 28.0463 46.4344 28.0501 46.4525 28.0523H46.5056C46.5249 28.0521 46.5445 28.0499 46.5635 28.046C46.581 28.0436 46.5979 28.0375 46.6127 28.0283C46.6275 28.0194 46.6397 28.0068 46.648 27.9917C46.6578 27.9743 46.6625 27.9547 46.662 27.9348C46.6631 27.9167 46.6587 27.8986 46.6492 27.883C46.6412 27.8708 46.6302 27.8604 46.6178 27.8527C46.6053 27.8444 46.5916 27.838 46.5774 27.8338L46.5371 27.8224C46.5261 27.8194 46.5154 27.8152 46.5056 27.8098C46.5018 27.8073 46.4988 27.8039 46.4967 27.7999C46.4946 27.7959 46.4938 27.7915 46.4941 27.787C46.4938 27.7838 46.4941 27.7805 46.4952 27.7774C46.4961 27.7743 46.4982 27.7716 46.5006 27.7693C46.505 27.7646 46.5107 27.7611 46.5169 27.7592C46.5234 27.7579 46.5302 27.7579 46.5371 27.7592H46.5572C46.5706 27.7579 46.5842 27.7579 46.5976 27.7592C46.6112 27.7615 46.6243 27.7658 46.6367 27.7719V27.6986C46.6231 27.694 46.6091 27.6907 46.5952 27.6885C46.5786 27.6872 46.5623 27.6872 46.546 27.6885C46.5279 27.6873 46.5098 27.6873 46.4917 27.6885C46.4742 27.6921 46.4573 27.698 46.4412 27.7062C46.4264 27.7144 46.414 27.7261 46.4045 27.7403C46.395 27.7563 46.3902 27.7747 46.3908 27.7933C46.3896 27.8115 46.3941 27.8296 46.4033 27.8451C46.411 27.8588 46.422 27.8704 46.435 27.8792Z" fill="black"/>
<path d="M46.9853 27.7603V27.6934H46.7344V28.0496H46.9904V27.9826H46.829V27.9018H46.9764V27.8348H46.829V27.7603H46.9853Z" fill="black"/>
<path d="M47.0703 27.6934V28.0496H47.1964C47.2243 28.0497 47.2525 28.0463 47.2795 28.0395C47.3038 28.0341 47.3263 28.0238 47.3465 28.0092C47.3658 27.9949 47.3809 27.9757 47.3907 27.9536C47.4014 27.9272 47.4064 27.8988 47.4058 27.8702C47.4067 27.8409 47.4014 27.8116 47.3907 27.7844C47.3809 27.763 47.3664 27.7443 47.3477 27.73C47.3278 27.7158 47.305 27.7063 47.2809 27.7022C47.2531 27.6959 47.2249 27.693 47.1964 27.6934H47.0703ZM47.2833 27.7907C47.3023 27.8134 47.3127 27.842 47.3127 27.8715C47.3127 27.9011 47.3023 27.9297 47.2833 27.9524C47.2605 27.9715 47.2311 27.981 47.2014 27.9789H47.1647V27.7642H47.2014C47.2311 27.7621 47.2605 27.7716 47.2833 27.7907Z" fill="black"/>
<path d="M44.8653 28.5289H44.9018C44.9389 28.5313 44.9754 28.5206 45.0053 28.4986C45.0178 28.4887 45.0276 28.476 45.0341 28.4615C45.0406 28.447 45.0439 28.4312 45.043 28.4153C45.0445 28.3984 45.0415 28.3816 45.0347 28.3661C45.0279 28.3507 45.0172 28.3372 45.0041 28.3269C44.9662 28.3038 44.922 28.2936 44.8778 28.2978H44.7656V28.654H44.8603L44.8653 28.5289ZM44.8653 28.3647H44.8893H44.9119C44.9187 28.3657 44.9252 28.3683 44.9309 28.3723C44.9365 28.3761 44.9407 28.3813 44.9433 28.3875C44.9448 28.395 44.9448 28.4027 44.9433 28.4102C44.9451 28.4181 44.9451 28.4263 44.9433 28.4342C44.9407 28.4403 44.9365 28.4456 44.9309 28.4494C44.9252 28.4534 44.9187 28.456 44.9119 28.4569H44.8893H44.8653V28.3647Z" fill="black"/>
<path d="M45.3639 28.5293C45.3621 28.5213 45.3592 28.5137 45.3553 28.5065C45.3523 28.5005 45.3485 28.4949 45.3437 28.4901C45.3384 28.4853 45.3319 28.4818 45.325 28.48C45.3455 28.4768 45.3639 28.466 45.3767 28.4497C45.3882 28.4321 45.3939 28.4114 45.393 28.3903C45.3936 28.3768 45.3906 28.3633 45.3844 28.3512C45.3787 28.3396 45.3704 28.3297 45.3603 28.3221C45.3488 28.3152 45.3366 28.3097 45.3236 28.3057C45.3084 28.3043 45.2933 28.3043 45.2782 28.3057H45.1094V28.6619H45.2052V28.5141H45.2242C45.2316 28.5127 45.2393 28.5127 45.2467 28.5141C45.2536 28.5167 45.2598 28.5211 45.2645 28.5267C45.2696 28.5337 45.274 28.5413 45.277 28.5495C45.2823 28.5618 45.2871 28.5745 45.2909 28.5874L45.3111 28.6518H45.4108L45.3755 28.5545C45.3716 28.547 45.3678 28.5381 45.3639 28.5293ZM45.2921 28.4295C45.2877 28.4348 45.282 28.4391 45.2758 28.4421H45.253H45.2052V28.3613H45.2292H45.2556C45.2627 28.3599 45.2699 28.3599 45.277 28.3613C45.2835 28.3639 45.2892 28.3683 45.2933 28.3739C45.2954 28.3801 45.2954 28.3867 45.2933 28.3929C45.2963 28.3986 45.2975 28.405 45.2975 28.4113C45.2972 28.4177 45.2954 28.424 45.2921 28.4295Z" fill="black"/>
<path d="M45.7806 28.3423C45.7645 28.3265 45.7455 28.3141 45.7251 28.3056C45.7002 28.2972 45.6741 28.293 45.6479 28.293C45.6218 28.2927 45.5957 28.297 45.5711 28.3056C45.5498 28.3137 45.5305 28.3262 45.5142 28.3423C45.4993 28.3593 45.4878 28.379 45.4803 28.4004C45.4723 28.4253 45.4685 28.4513 45.4688 28.4774C45.4685 28.5031 45.4723 28.5287 45.4803 28.5532C45.4878 28.5746 45.4993 28.5944 45.5142 28.6113C45.5302 28.6281 45.5495 28.6411 45.5711 28.6492C45.6207 28.666 45.6741 28.666 45.7236 28.6492C45.7453 28.6411 45.7645 28.6281 45.7806 28.6113C45.7963 28.595 45.8081 28.5751 45.8144 28.5532C45.8224 28.5287 45.8262 28.5031 45.8259 28.4774C45.8262 28.4513 45.8224 28.4253 45.8144 28.4004C45.8075 28.3787 45.796 28.3589 45.7806 28.3423ZM45.7275 28.5204C45.7245 28.5333 45.7194 28.5457 45.7123 28.557C45.7067 28.567 45.6984 28.5753 45.6883 28.581C45.6773 28.5877 45.6646 28.5912 45.6518 28.5911C45.6393 28.591 45.6275 28.5878 45.6165 28.5818C45.6058 28.5759 45.5966 28.5674 45.5901 28.557C45.5833 28.5456 45.5785 28.5333 45.5762 28.5204C45.5741 28.5061 45.5741 28.4916 45.5762 28.4774C45.5741 28.4627 45.5741 28.4479 45.5762 28.4332C45.5785 28.4207 45.5833 28.4087 45.5901 28.3978C45.5963 28.3876 45.6049 28.379 45.6153 28.3726C45.6263 28.3661 45.639 28.363 45.6518 28.3637C45.6646 28.3632 45.6773 28.3662 45.6883 28.3726C45.6981 28.379 45.7064 28.3877 45.7123 28.3978C45.7194 28.4086 45.7245 28.4206 45.7275 28.4332C45.7286 28.4479 45.7286 28.4627 45.7275 28.4774C45.7286 28.4917 45.7286 28.5061 45.7275 28.5204Z" fill="black"/>
<path d="M46.1836 28.3336C46.1637 28.3195 46.1409 28.31 46.1169 28.3058C46.0893 28.2994 46.0608 28.2965 46.0323 28.2969H45.9062V28.6531H46.0323C46.0605 28.6532 46.0884 28.6498 46.1157 28.643C46.1397 28.6376 46.1626 28.6273 46.1824 28.6127C46.2014 28.598 46.2166 28.5789 46.2266 28.5571C46.2373 28.5307 46.2427 28.5023 46.2418 28.4738C46.2427 28.4444 46.2376 28.4152 46.2266 28.3879C46.2171 28.3665 46.2023 28.3478 46.1836 28.3336ZM46.1157 28.5559C46.0925 28.5749 46.0635 28.5844 46.0335 28.5824H45.997V28.3677H46.0335C46.0632 28.3659 46.0925 28.3754 46.1157 28.3942C46.1258 28.4049 46.1335 28.4177 46.1385 28.4316C46.1436 28.4455 46.1457 28.4603 46.1448 28.475C46.1457 28.4898 46.1433 28.5045 46.1385 28.5184C46.1335 28.5323 46.1258 28.5451 46.1157 28.5559Z" fill="black"/>
<path d="M46.3583 28.6253C46.3725 28.6373 46.3894 28.6459 46.4075 28.6505C46.4283 28.6563 46.45 28.6592 46.4719 28.6594C46.493 28.6591 46.5143 28.6562 46.5348 28.6505C46.5529 28.6459 46.5698 28.6373 46.5841 28.6253C46.5977 28.613 46.6084 28.5979 46.6155 28.5811C46.6235 28.561 46.6274 28.5395 46.6271 28.5179V28.2969H46.5324V28.5015C46.533 28.5129 46.533 28.5243 46.5324 28.5356C46.5304 28.5453 46.5268 28.5547 46.5223 28.5634C46.5185 28.571 46.5123 28.5772 46.5046 28.5811C46.4954 28.5862 46.485 28.5888 46.4743 28.5887C46.4636 28.5892 46.4532 28.5865 46.444 28.5811C46.4363 28.5769 46.4298 28.5708 46.425 28.5634C46.4209 28.5544 46.4176 28.5451 46.415 28.5356C46.4144 28.5243 46.4144 28.5129 46.415 28.5015V28.2969H46.3203V28.5179C46.32 28.5395 46.3239 28.561 46.3319 28.5811C46.3375 28.5975 46.3464 28.6125 46.3583 28.6253Z" fill="black"/>
<path d="M46.9669 28.583C46.9515 28.5849 46.9358 28.5849 46.9204 28.583C46.904 28.5833 46.8877 28.5807 46.8723 28.5754C46.8581 28.571 46.845 28.5632 46.8346 28.5527C46.8242 28.5427 46.8159 28.5307 46.8106 28.5174C46.8041 28.5026 46.8011 28.4867 46.8017 28.4706C46.8014 28.4551 46.8041 28.4397 46.8091 28.4251C46.8139 28.4113 46.8216 28.3987 46.832 28.3885C46.8414 28.3777 46.8536 28.3695 46.8673 28.3645C46.8815 28.3581 46.8972 28.3551 46.9126 28.3557C46.9284 28.3558 46.9441 28.3579 46.9592 28.362C46.9752 28.3661 46.9907 28.3725 47.0049 28.3809L47.0123 28.3039L46.9607 28.29C46.9429 28.2888 46.9254 28.2888 46.9076 28.29C46.88 28.2898 46.8524 28.2936 46.8257 28.3014C46.8023 28.309 46.7803 28.321 46.7613 28.3367C46.7427 28.3525 46.7278 28.3724 46.7183 28.3948C46.708 28.4204 46.7026 28.448 46.7032 28.4757C46.7023 28.5054 46.7088 28.535 46.7222 28.5616C46.7341 28.5833 46.7504 28.6023 46.7702 28.6171C46.7895 28.6321 46.8118 28.6429 46.8358 28.6487C46.8592 28.6552 46.8833 28.6586 46.9076 28.6588C46.9278 28.6604 46.9479 28.6604 46.9681 28.6588L47.0135 28.6487V28.5742L46.9669 28.583Z" fill="black"/>
<path d="M47.0547 28.3676H47.1428V28.6531H47.2374V28.3676H47.3243V28.2969H47.0547V28.3676Z" fill="black"/>
<path d="M43.8359 23.7246V29.3682H48.3442V23.7246H43.8359ZM48.2884 29.3253H43.8736V26.5704H48.2884V29.3253ZM48.2884 26.5288H43.8736V23.7739H48.2884V26.5288Z" fill="black"/>
<path d="M11.541 31.0945C14.0489 31.0945 16.0819 29.0586 16.0819 26.5473C16.0819 24.0359 14.0489 22 11.541 22C9.03306 22 7 24.0359 7 26.5473C7 29.0586 9.03306 31.0945 11.541 31.0945Z" fill="black"/>
<path d="M14.5285 27.2797H14.6433V27.305H14.5979V27.4035H14.5688V27.305H14.5235L14.5285 27.2797ZM9.11213 27.7357H8.84977C8.79174 27.7357 8.76273 27.7041 8.76273 27.6397V27.5361C8.76139 27.5096 8.76993 27.4834 8.7867 27.4628C8.7942 27.4534 8.80382 27.4458 8.81477 27.4408C8.82573 27.4357 8.83772 27.4333 8.84977 27.4338H9.05537C9.07725 27.4326 9.09884 27.4392 9.11636 27.4524C9.13389 27.4655 9.14623 27.4844 9.15124 27.5058L9.18025 27.6056H9.36819V27.4944C9.36925 27.4604 9.36318 27.4265 9.35036 27.395C9.33754 27.3634 9.31826 27.3349 9.29377 27.3113C9.2698 27.2878 9.24138 27.2693 9.21019 27.257C9.17901 27.2446 9.14567 27.2386 9.11213 27.2393H8.80814C8.77371 27.2386 8.73949 27.2449 8.7076 27.258C8.67571 27.271 8.64682 27.2904 8.62272 27.3151C8.59842 27.3389 8.5792 27.3674 8.56619 27.3989C8.55318 27.4304 8.54667 27.4642 8.54704 27.4982V27.6751C8.5458 27.7097 8.55171 27.7443 8.5644 27.7765C8.57708 27.8088 8.59627 27.8382 8.62077 27.8627C8.64526 27.8872 8.67454 27.9064 8.70678 27.9191C8.73901 27.9318 8.77352 27.9377 8.80814 27.9365H9.06925C9.12727 27.9365 9.15628 27.9706 9.15628 28.0363V28.1702C9.15734 28.1961 9.1493 28.2216 9.13358 28.2422C9.12588 28.2518 9.11604 28.2593 9.10487 28.2644C9.09369 28.2694 9.08149 28.2718 9.06925 28.2712H8.86112C8.83911 28.2733 8.81709 28.2673 8.79921 28.2542C8.78133 28.2412 8.76881 28.2221 8.76399 28.2005L8.73624 28.0881H8.54704V28.2144C8.54617 28.2485 8.5522 28.2824 8.56478 28.3141C8.57735 28.3458 8.5962 28.3746 8.6202 28.3988C8.64436 28.4229 8.67314 28.4417 8.70479 28.4543C8.73644 28.4669 8.77031 28.4729 8.80436 28.4721H9.11213C9.14645 28.4725 9.18048 28.4658 9.21215 28.4526C9.24381 28.4393 9.27245 28.4197 9.29629 28.395C9.32052 28.3709 9.3396 28.3422 9.35239 28.3105C9.36519 28.2788 9.37142 28.2448 9.37072 28.2106V27.9971C9.37039 27.9283 9.34312 27.8624 9.29477 27.8135C9.24642 27.7646 9.18084 27.7367 9.11213 27.7357ZM10.3659 27.3151C10.3901 27.3387 10.4092 27.3671 10.4222 27.3983C10.4352 27.4295 10.4418 27.4631 10.4416 27.4969V27.7496C10.4422 27.7838 10.4357 27.8179 10.4227 27.8496C10.4097 27.8813 10.3904 27.91 10.3659 27.934C10.3414 27.9584 10.3122 27.9776 10.2802 27.9906C10.2481 28.0037 10.2138 28.0102 10.1793 28.0098H9.84122V28.467H9.62552V27.2393H10.1793C10.2138 27.2389 10.2481 27.2454 10.2802 27.2584C10.3122 27.2714 10.3414 27.2907 10.3659 27.3151ZM10.2247 27.5374C10.2255 27.5111 10.2165 27.4854 10.1994 27.4654C10.192 27.4562 10.1825 27.449 10.1718 27.4442C10.1611 27.4393 10.1494 27.4371 10.1376 27.4376H9.84122V27.8165H10.1376C10.1494 27.817 10.1611 27.8148 10.1718 27.8099C10.1825 27.8051 10.192 27.7978 10.1994 27.7887C10.2165 27.7682 10.2254 27.7422 10.2247 27.7155V27.5374ZM12.3829 27.9593L12.5973 28.4645H12.3678L12.1722 27.9858H11.9616V28.467H11.7446V27.2393H12.287C12.3212 27.2387 12.3552 27.2452 12.3869 27.2582C12.4185 27.2712 12.4472 27.2906 12.4712 27.3151C12.496 27.3384 12.5159 27.3666 12.5295 27.3979C12.5432 27.4291 12.5504 27.4628 12.5506 27.4969V27.7117C12.5511 27.7656 12.5353 27.8185 12.5052 27.8633C12.4739 27.9058 12.4316 27.9389 12.3829 27.9593ZM12.3299 27.5374C12.3315 27.5114 12.3234 27.4857 12.3072 27.4654C12.2998 27.4562 12.2903 27.449 12.2796 27.4442C12.2689 27.4393 12.2571 27.4371 12.2454 27.4376H11.9616V27.7887H12.2454C12.2571 27.7889 12.2687 27.7866 12.2794 27.7818C12.2901 27.777 12.2996 27.7698 12.3072 27.7609C12.3234 27.7406 12.3315 27.7149 12.3299 27.6889V27.5374ZM12.6844 27.4376H12.9959V28.467H13.2141V27.4376H13.5282V27.2393H12.6844V27.4376ZM14.2497 27.7357H13.9886C13.9306 27.7357 13.9016 27.7041 13.9016 27.6397V27.5361C13.9002 27.5096 13.9088 27.4834 13.9256 27.4628C13.9332 27.4535 13.9428 27.4461 13.9538 27.4411C13.9647 27.436 13.9766 27.4335 13.9886 27.4338H14.1904C14.2124 27.4324 14.2341 27.4388 14.2517 27.452C14.2693 27.4652 14.2815 27.4843 14.2863 27.5058L14.3153 27.6056H14.5033V27.4944C14.5038 27.4605 14.4975 27.4267 14.4847 27.3953C14.4719 27.3638 14.4529 27.3352 14.4289 27.3113C14.4047 27.2876 14.3761 27.2691 14.3447 27.2567C14.3133 27.2443 14.2797 27.2384 14.2459 27.2393H13.9432C13.8751 27.2403 13.81 27.2679 13.7619 27.3163C13.7138 27.3647 13.6865 27.43 13.6859 27.4982V27.6751C13.6854 27.7096 13.6919 27.7439 13.7051 27.7759C13.7184 27.8078 13.738 27.8367 13.7628 27.8607C13.7868 27.8852 13.8155 27.9045 13.8471 27.9176C13.8788 27.9306 13.9128 27.9371 13.947 27.9365H14.2081C14.2674 27.9365 14.2952 27.9706 14.2952 28.0363V28.1702C14.2962 28.1961 14.2882 28.2216 14.2724 28.2422C14.2647 28.2518 14.2549 28.2593 14.2437 28.2644C14.2326 28.2694 14.2203 28.2718 14.2081 28.2712H14C13.978 28.2733 13.956 28.2673 13.9381 28.2542C13.9202 28.2412 13.9077 28.2221 13.9029 28.2005L13.8751 28.0881H13.6859V28.2144C13.6852 28.2486 13.6914 28.2825 13.7042 28.3143C13.717 28.346 13.7361 28.3747 13.7603 28.3988C13.8084 28.444 13.8723 28.4684 13.9382 28.467H14.2447C14.2792 28.4676 14.3135 28.461 14.3454 28.4478C14.3773 28.4345 14.4061 28.4149 14.4301 28.39C14.4545 28.366 14.4739 28.3373 14.4869 28.3056C14.4999 28.2739 14.5063 28.2398 14.5058 28.2056V27.9971C14.5042 27.9283 14.4762 27.8627 14.4275 27.814C14.3789 27.7654 14.3134 27.7373 14.2447 27.7357H14.2497ZM14.7845 27.2797L14.7379 27.3504L14.695 27.2797H14.6761V27.3984H14.695V27.3252C14.695 27.3252 14.695 27.3163 14.695 27.3113C14.695 27.3062 14.695 27.3201 14.7026 27.3239L14.7417 27.3833L14.7795 27.3252C14.7795 27.3252 14.7795 27.3163 14.7795 27.3113V27.3984H14.8009V27.2797H14.7845ZM11.4041 27.3138C11.4286 27.3375 11.448 27.366 11.4613 27.3975C11.4745 27.429 11.4812 27.4628 11.481 27.4969V28.203C11.4812 28.2376 11.4745 28.272 11.4614 28.304C11.4483 28.336 11.429 28.3651 11.4046 28.3896C11.3802 28.4142 11.3512 28.4336 11.3193 28.4469C11.2874 28.4602 11.2532 28.467 11.2186 28.467H10.926C10.8915 28.4676 10.8572 28.461 10.8253 28.4478C10.7934 28.4345 10.7646 28.4149 10.7406 28.39C10.7147 28.3663 10.694 28.3374 10.6799 28.3052C10.6658 28.273 10.6585 28.2382 10.6586 28.203V27.4969C10.6609 27.4289 10.6896 27.3645 10.7386 27.3173C10.7875 27.2702 10.853 27.244 10.921 27.2443H11.2136C11.2484 27.2421 11.2833 27.2471 11.3161 27.2591C11.3489 27.271 11.3788 27.2896 11.4041 27.3138ZM11.2641 27.5374C11.2654 27.511 11.2563 27.4851 11.2388 27.4654C11.2314 27.4562 11.2219 27.449 11.2112 27.4442C11.2005 27.4393 11.1888 27.4371 11.177 27.4376H10.9689C10.9568 27.4371 10.9447 27.4393 10.9336 27.4441C10.9224 27.4489 10.9125 27.4562 10.9045 27.4654C10.8888 27.486 10.8808 27.5115 10.8819 27.5374V28.1689C10.881 28.1944 10.889 28.2194 10.9045 28.2397C10.9122 28.2494 10.922 28.2572 10.9331 28.2624C10.9443 28.2677 10.9565 28.2703 10.9689 28.27H11.177C11.189 28.2703 11.2009 28.2677 11.2116 28.2624C11.2224 28.2571 11.2317 28.2493 11.2388 28.2397C11.2561 28.2203 11.2652 28.1949 11.2641 28.1689V27.5374ZM12.1786 24.1042H9.84499L9.48802 24.6726H11.8203L12.1786 24.1042ZM13.0615 25.8082H12.7134L12.3539 26.3778H13.4223L13.7805 26.9462H14.4616L12.6566 24.084L11.2048 26.3791H9.61795L9.98248 25.8094H10.9676L11.3271 25.241H9.12853L8.76651 25.8094H9.29377L8.57479 26.9462H11.5416L12.6566 25.1576L13.0615 25.8082Z" fill="white"/>
<path d="M17.8168 23.7227H22.0222L21.8091 24.958H19.1602L18.9785 25.995H21.1128L20.8996 27.2291H18.7553L18.3769 29.3663H16.8203L17.8168 23.7227Z" fill="black"/>
<path d="M22.5668 23.7227H24.1246L23.1281 29.3663H21.5703L22.5668 23.7227Z" fill="black"/>
<path d="M24.6684 23.7227H28.8738L28.6606 24.958H26.0117L25.8301 25.995H27.9643L27.7512 27.2291H25.6068L25.2284 29.3663H23.6719L24.6684 23.7227Z" fill="black"/>
<path d="M30.1835 23.7148H31.9305L32.84 29.3661H31.2897L31.1636 28.377H29.211L28.7367 29.3661H27.2344L30.1835 23.7148ZM31.0135 27.1973L30.7524 25.1637H30.7208L29.7723 27.1973H31.0135Z" fill="black"/>
<path d="M33.8479 28.5023L35.74 26.6985C36.1563 26.2968 36.8209 25.688 36.8209 25.1588C36.8209 24.8619 36.5979 24.7179 36.3253 24.7179C35.8207 24.7179 35.6946 25.1436 35.6366 25.544H34.2163C34.2238 25.52 34.2642 25.2548 34.2718 25.2308C34.4875 24.0763 35.4726 23.5723 36.6091 23.5723C37.5059 23.5723 38.3309 23.9323 38.3309 24.9428C38.3309 26.0644 37.1855 26.9309 36.4249 27.6117L35.8851 28.093L35.8775 28.1334H37.8542L37.6382 29.3675H33.6953L33.8479 28.5023Z" fill="black"/>
<path d="M38.2578 28.172C38.2584 27.9937 38.2795 27.8161 38.3207 27.6427H39.7298C39.715 27.7221 39.7043 27.8022 39.6981 27.8827C39.6981 28.2111 40.0588 28.292 40.3225 28.292C40.4166 28.2895 40.5091 28.2685 40.5949 28.2303C40.6806 28.192 40.758 28.1372 40.8227 28.0689C40.8874 28.0006 40.9381 27.9202 40.9716 27.8324C41.0054 27.7445 41.0214 27.6509 41.0188 27.5568C41.0188 27.1779 40.6405 27.02 40.3062 27.02H40.0351L40.2104 26.0019H40.5308C40.9544 26.0259 41.3632 25.7847 41.3632 25.2441C41.3632 24.9396 41.1626 24.7792 40.8749 24.7792C40.4183 24.7792 40.219 24.9801 40.146 25.3969H38.7698L38.8013 25.2125C38.9929 24.0757 39.9947 23.5527 41.0831 23.5527C41.9233 23.5527 42.829 23.9317 42.829 24.9156C42.829 25.6205 42.4605 26.2217 41.772 26.4314L41.7631 26.4718C41.9989 26.5236 42.2092 26.6559 42.3585 26.846C42.5077 27.0361 42.586 27.2722 42.5804 27.5139C42.5804 28.8452 41.1715 29.4856 40.0739 29.4616C39.2175 29.4515 38.2578 29.1989 38.2578 28.172Z" fill="black"/>
</svg>
