<svg width="55" height="55" viewBox="0 0 55 55" fill="none" xmlns="http://www.w3.org/2000/svg">
<rect width="54.9294" height="54.9294" rx="11.9412" fill="white"/>
<path fill-rule="evenodd" clip-rule="evenodd" d="M44.5335 26.597H40.845C40.1783 26.597 39.6328 27.141 39.6328 27.8091V30.986C39.6328 31.6527 40.1769 32.1981 40.845 32.1981H44.5335C45.2001 32.1981 45.7456 31.6541 45.7456 30.986V27.8091C45.7456 27.1425 45.2016 26.597 44.5335 26.597ZM30.9817 22.4194H30.5278V22.3405C30.6519 22.3433 30.7308 22.3165 30.6758 22.2066C30.5927 22.0417 30.9549 22.0501 31.0085 22.0868C31.1029 22.1502 31.0409 22.332 30.9817 22.4194ZM30.3615 22.5293H30.9112C30.8506 22.621 30.6787 22.9339 30.5687 22.9339C30.5236 22.8718 30.377 22.6703 30.3615 22.5293ZM40.8647 27.8091H44.5138V30.986H40.8647V27.8091ZM33.3749 27.8091H38.4531C38.4531 27.1425 37.9091 26.597 37.241 26.597H33.3425C32.6758 26.597 32.1304 27.141 32.1304 27.8091V30.986C32.1304 31.6527 32.6744 32.1981 33.3425 32.1981H37.241C37.9077 32.1981 38.4531 31.6541 38.4531 30.986V28.8902H34.3305C34.3305 29.406 34.7505 29.826 35.2664 29.826H37.296V30.986H33.3735V27.8091H33.3749ZM17.5159 27.8091H22.3643C22.3643 27.1425 21.8203 26.597 21.1522 26.597H17.4003C16.7336 26.597 16.1882 27.141 16.1882 27.8091V28.7915C16.1882 29.4582 16.7322 30.0036 17.4003 30.0036H21.1621V30.986H16.1882C16.1882 31.6527 16.7322 32.1981 17.4003 32.1981H21.2777C21.9443 32.1981 22.4898 31.6541 22.4898 30.986V30.0036C22.4898 29.337 21.9457 28.7915 21.2777 28.7915H17.5159V27.8091ZM10.5349 27.8091H15.1113C15.1113 27.1425 14.5673 26.597 13.8992 26.597H10.2121C9.54545 26.597 9 27.141 9 27.8091V30.986C9 31.6527 9.54405 32.1981 10.2121 32.1981H13.9006C14.5673 32.1981 15.1128 31.6541 15.1128 30.986H10.5349V27.8091ZM32.1473 21.8683C32.1233 21.881 32.0951 21.8923 32.0571 21.8993C31.8837 22.1446 31.988 22.115 31.6836 22.3193C31.6836 22.7295 31.6963 22.7732 31.7921 23.1368C31.7949 23.1453 31.7921 23.1537 31.7879 23.1622C31.7837 23.1692 31.7766 23.1749 31.7682 23.1763C31.6949 23.1918 31.5877 23.22 31.5271 23.2312C31.5285 23.2439 31.5581 23.4765 31.5257 23.6498C31.4736 23.9219 30.8281 24.5152 30.673 24.5463C30.4588 24.5885 30.2206 24.3997 29.8471 24.2362C29.7442 24.1911 29.3989 23.9642 29.2185 23.9035C29.0691 23.8542 28.9183 24.2179 29.1043 24.3165C29.1917 24.3616 29.3298 24.4236 29.3735 24.5364C29.5032 24.8718 29.3538 26.1657 29.086 26.4265C28.9591 26.4265 28.8534 26.3095 28.759 26.3391C28.5913 26.4307 28.697 26.9437 28.759 27.0339C29.7921 28.0966 29.6695 28.8831 30.1078 29.4709C30.308 29.4709 30.1769 29.6823 30.3277 29.9317C30.3686 30.06 30.3164 30.2771 30.2939 30.3588V30.6787C30.2826 30.7126 30.2713 30.745 30.26 30.7788V31.0593C30.229 31.196 30.1952 31.3792 30.167 31.5061C30.1064 31.7753 30.3418 31.9839 30.2009 32.2404C30.2009 32.3983 30.2008 32.3658 30.1078 32.4941C30.1078 32.7379 30.05 33.2538 30.1078 33.4356C30.1473 33.5625 30.6068 34.0981 30.7223 34.1502C31 34.2742 31.4087 34.2475 31.2763 34.6844C30.4644 34.9339 29.9457 34.5434 29.5116 34.5378L29.4919 34.6125C29.2142 34.6125 28.993 34.5448 28.9324 34.5251C28.9324 34.4504 29.0226 33.8754 29.0522 33.7837C29.0832 33.7344 29.1142 33.6851 29.1452 33.6372C29.179 33.5399 29.1114 32.8225 29.1057 32.6294C28.9324 32.5026 28.8985 32.115 28.8985 31.9021C28.8492 31.7372 28.8492 31.5413 28.8379 31.3285C28.8337 31.2284 28.7731 31.0804 28.8111 30.955C28.8365 30.869 28.9338 30.831 28.9577 30.7619V30.5209C29.0028 30.2686 28.9887 30.1516 28.8379 30.0008C28.4574 30.005 28.4052 30.0234 28.1966 29.7006C28.1318 29.6005 27.6004 28.7619 27.5497 28.7394C27.1071 28.5463 27.1959 28.621 27.0028 28.2785C26.9944 28.2785 26.8774 28.3179 26.7731 28.473C26.6152 28.7098 26.3347 29.4779 26.2544 29.7471C26.2093 29.8979 26.2544 30.0628 26.1882 30.1883C26.1402 30.2785 25.9824 30.3067 25.9471 30.3687C25.7921 30.6477 25.9077 30.6266 25.6131 30.8225C25.5596 30.8916 25.5581 30.9931 25.5201 31.0762C25.4975 31.1072 25.475 31.1382 25.4538 31.1692C25.4045 31.2763 25.506 31.4694 25.4877 31.5371C25.4369 31.7119 25.3693 31.888 25.3002 32.0515C25.1649 32.3729 25.1832 32.7985 25.0465 32.9959C24.9775 33.0945 24.8125 32.9987 24.6857 33.0804C24.6787 33.1495 24.4785 33.6076 24.439 33.7344V34.4617C24.4771 34.5843 24.58 34.7013 24.549 34.8563C24.5166 35.0212 23.9415 35.0184 23.6286 34.9747C23.42 34.9451 23.3566 34.7901 23.3608 34.6125C23.365 34.4025 23.7893 33.0367 23.7639 32.9465C23.4412 32.5843 23.8499 32.2094 23.9711 31.8711C24.0303 31.7062 23.9937 31.4765 24.0585 31.3243C24.1727 31.1171 24.2854 30.9099 24.3996 30.7027C24.6068 30.5068 24.5137 30.4969 24.6265 30.3222C24.7238 30.1699 24.8421 30.067 24.7731 29.8345C24.635 29.3666 24.9338 28.7027 24.9535 28.2122C24.9013 28.1573 24.7209 28.1742 24.6984 28.0248C24.6533 27.7203 24.814 27.1819 24.9126 27.1312C24.9563 27.1086 25.0071 27.1284 25.0465 27.1044C25.0465 26.8761 24.8196 25.6062 24.9915 25.5427C25.0973 25.5033 25.3425 25.4821 25.389 25.461C25.3862 25.4074 25.3495 25.2919 25.3044 25.2848C25.2283 25.2749 25.0733 25.2453 24.9493 25.2172C24.5701 25.1298 24.9211 23.6329 24.9253 23.6273C25.0296 23.4892 25.5145 23.6752 25.5722 23.4398C25.7343 23.2327 25.4468 22.4377 26.0007 21.4596C26.1868 21.1284 26.5448 20.7957 26.962 20.9367C27.1015 20.9846 27.0169 21.1847 27.2622 20.9705C27.2678 20.8451 27.21 20.7408 27.1748 20.6365C26.766 19.4187 28.1501 18.7591 29.117 19.4553C29.2255 19.499 29.2889 19.5216 29.3707 19.5822C29.4242 19.8584 29.6977 20.3489 29.4242 20.6703C29.3129 20.6942 29.1762 20.7563 29.0902 20.8169C29.0888 20.9282 29.1029 21.0311 29.124 21.0973C29.1424 21.1565 29.1776 21.1805 29.0874 21.2172C29.0761 21.2214 29.0803 21.2594 29.0874 21.2735C29.3129 21.3186 29.5539 21.2312 29.7047 21.1706H29.8851V20.9437H29.9711V20.7661H30.0571V21.0734H30.2826V21.1706H33.6202V21.344H33.7682V20.7098H33.8922V21.2256H34.1769V21.5202H35.0606V21.4328H35.2072V21.4708H35.6244V21.7161H35.2072V21.7541H35.0606V21.6668H34.1769V21.7541H33.7879V21.695H33.6216V21.8725H32.1473V21.8683Z" fill="black"/>
</svg>
