<svg width="55" height="55" viewBox="0 0 55 55" fill="none" xmlns="http://www.w3.org/2000/svg">
<rect width="54.9294" height="54.9294" rx="11.9412" fill="white"/>
<path d="M5 33.3656V28.1562H29.809V33.3656H5ZM8.66965 31.2497C8.7018 31.2513 8.73343 31.2523 8.76559 31.2539C8.8719 31.577 8.9611 31.9068 9.09283 32.2185C9.13846 32.3263 9.28212 32.4384 9.39621 32.4565C9.46674 32.4679 9.60365 32.3227 9.64462 32.2211C9.7805 31.8835 9.88629 31.5339 10.0035 31.189C10.0325 31.1932 10.0616 31.1979 10.0906 31.202V32.442H11.022V29.027C10.7866 29.027 10.5755 29.0545 10.3738 29.0213C9.99105 28.958 9.84584 29.138 9.76131 29.4797C9.669 29.8536 9.52068 30.2141 9.37184 30.6528C9.21055 30.1643 9.08245 29.7401 8.92532 29.3262C8.88124 29.2101 8.75833 29.055 8.65616 29.042C8.35174 29.0042 8.04006 29.0285 7.73305 29.0285V32.4399H8.67016V31.2497H8.66965ZM15.8632 32.4544C16.5789 32.4544 17.2536 32.4767 17.9252 32.4389C18.0968 32.429 18.3841 32.2439 18.4002 32.1132C18.449 31.7087 18.3956 31.2917 18.3733 30.88C18.3691 30.8042 18.2949 30.7275 18.3032 30.6575C18.3437 30.3266 18.4116 29.9989 18.4505 29.668C18.4941 29.2951 18.2654 29.0742 17.9387 29.056C17.2551 29.0187 16.5685 29.0446 15.8637 29.0446V32.4544H15.8632ZM14.7456 30.7622C14.7456 30.4179 14.7482 30.0735 14.7451 29.7287C14.7404 29.2676 14.5631 29.0545 14.1134 29.0322C13.6638 29.0099 13.2105 29.0052 12.762 29.0353C12.4197 29.0581 12.151 29.236 12.1448 29.6208C12.1329 30.3697 12.1365 31.1185 12.1448 31.8669C12.1484 32.1941 12.3217 32.4249 12.6551 32.442C13.1784 32.469 13.7053 32.4742 14.228 32.4441C14.5714 32.4244 14.7596 32.2071 14.7487 31.8399C14.7384 31.481 14.7467 31.1211 14.7461 30.7617L14.7456 30.7622ZM25.8733 30.3826V29.7427H27.1024V29.0643H24.8838V32.4285H27.1003V31.73H25.8764V31.0879C26.2037 31.0703 26.5091 31.0542 26.8099 31.0381V30.3826H25.8733ZM21.67 29.0431V32.4378H23.9166V31.7351H22.6512V29.0431H21.67ZM19.5707 29.0555V32.4487H20.5172V29.0555H19.5707Z" fill="black"/>
<path d="M16.836 26.6626H15.5016V21.879H14.1232V26.6549H12.7924V21.8687H11.875V20.666H17.7752V21.8422H16.836V26.6626Z" fill="black"/>
<path d="M42.875 26.6814V20.6448C43.7483 20.6448 44.6014 20.621 45.4514 20.6552C45.8606 20.6718 46.094 21.0405 46.1012 21.5918C46.1152 22.6694 46.1111 23.7471 46.1101 24.8253C46.1101 25.1842 46.1147 25.5446 46.0852 25.9019C46.0432 26.4096 45.7403 26.6767 45.2279 26.6803C44.451 26.6855 43.6737 26.6819 42.875 26.6819V26.6814ZM44.1995 21.7557V25.5627C44.5978 25.6125 44.7973 25.462 44.798 25.111C44.799 24.1537 44.7767 23.1953 44.8104 22.239C44.8265 21.7821 44.6746 21.6333 44.199 21.7551L44.1995 21.7557Z" fill="black"/>
<path d="M7.76578 23.6253C8.12984 23.7897 8.27039 24.1843 8.25275 24.6718C8.23979 25.0307 8.25846 25.3901 8.24653 25.7489C8.22631 26.3759 7.91411 26.6778 7.29334 26.6798C6.54499 26.6824 5.79612 26.6804 5.01562 26.6804V20.6547C5.88377 20.6547 6.76436 20.6127 7.63821 20.6739C8.02353 20.7008 8.2206 21.0763 8.24134 21.4663C8.26313 21.8693 8.30565 22.2852 8.22942 22.6741C8.1677 22.9905 7.94367 23.2752 7.76578 23.6253ZM6.31628 24.1719V25.666C6.73739 25.7123 6.94725 25.5379 6.94587 25.1427C6.94535 24.9939 6.94587 24.845 6.94639 24.6962C6.94708 24.32 6.73705 24.1454 6.31628 24.1724V24.1719ZM6.30799 23.2762C6.57299 23.144 6.89453 23.074 6.91216 22.9583C6.97543 22.5383 6.93705 22.1026 6.93705 21.6447H6.30799V23.2762Z" fill="black"/>
<path d="M42.3653 20.6776V26.682C42.0941 26.682 41.841 26.6617 41.5926 26.6872C41.3105 26.7162 41.1985 26.5897 41.1238 26.3387C40.9003 25.5841 40.6565 24.8357 40.3267 24.0905V26.6534H39.1484V20.6392C39.4352 20.6392 39.7028 20.6547 39.9673 20.635C40.2261 20.6159 40.3293 20.7201 40.4019 20.9654C40.6285 21.7329 40.8868 22.4911 41.2327 23.2431V20.6776H42.3653Z" fill="black"/>
<path d="M29.4319 26.6661H28.1328V20.6565C28.9942 20.6565 29.8738 20.6274 30.7487 20.6798C30.9322 20.6907 31.233 20.991 31.2476 21.1761C31.3046 21.913 31.2771 22.6567 31.261 23.3973C31.259 23.4974 31.1625 23.6338 31.0712 23.6856C30.7772 23.8537 30.8316 24.0513 30.925 24.3178C31.1869 25.0667 31.6536 25.7699 31.4814 26.6811C31.1812 26.6811 30.8685 26.7034 30.5625 26.6686C30.4562 26.6567 30.3161 26.5208 30.2762 26.4114C30.0729 25.8513 29.8987 25.2803 29.7104 24.7145C29.6668 24.5828 29.6077 24.4563 29.5559 24.3271C29.5144 24.3334 29.4734 24.3396 29.4319 24.3458V26.6661ZM29.406 23.2287C29.8281 23.2647 30.0392 23.096 30.0392 22.7226C30.0392 22.5432 30.0392 22.3637 30.0376 22.1843C30.034 21.6553 29.9889 21.6231 29.406 21.7492V23.2287Z" fill="black"/>
<path d="M31.7991 23.6678C31.7991 22.9791 31.7934 22.2899 31.8007 21.6012C31.8079 20.941 32.1098 20.6423 32.7606 20.6382C33.2113 20.635 33.662 20.6376 34.1126 20.6397C34.6883 20.6423 35.0352 20.9255 35.044 21.4975C35.0663 22.9345 35.0674 24.3726 35.044 25.8097C35.0342 26.4056 34.6903 26.6799 34.0789 26.682C33.6132 26.6835 33.1475 26.6866 32.6818 26.6815C32.1404 26.6752 31.8136 26.3667 31.8038 25.8242C31.7903 25.1059 31.8007 24.3866 31.8007 23.6678C31.8007 23.6678 31.7996 23.6678 31.7991 23.6678ZM33.7014 25.5701C33.7154 25.4757 33.7429 25.3741 33.7434 25.2729C33.746 24.2098 33.7413 23.1472 33.746 22.084C33.747 21.846 33.7164 21.6754 33.413 21.6795C33.1153 21.6837 33.079 21.8465 33.0806 22.0887C33.0884 23.0917 33.0848 24.0947 33.0858 25.0976C33.0858 25.6562 33.1013 25.6681 33.7014 25.5696V25.5701Z" fill="black"/>
<path d="M27.6638 22.6218H26.303C26.303 22.4315 26.2905 22.2438 26.3061 22.0581C26.3263 21.817 26.2537 21.6982 25.9871 21.7003C25.7107 21.7029 25.6729 21.8501 25.6744 22.0757C25.6812 23.0798 25.6781 24.0833 25.6786 25.0873C25.6786 25.451 25.8853 25.6131 26.2988 25.5737C26.2988 25.2283 26.443 24.6879 26.2719 24.5573C25.7367 24.1491 26.1142 23.6647 25.9462 23.2047H27.6296C27.6296 24.0895 27.6607 24.9701 27.6187 25.847C27.5902 26.4424 27.2707 26.6799 26.6702 26.6825C26.1889 26.6846 25.7081 26.6898 25.2269 26.6825C24.7529 26.6752 24.4096 26.3848 24.4038 25.915C24.3862 24.4172 24.3862 22.919 24.4038 21.4207C24.4096 20.9275 24.7498 20.6444 25.2575 20.6392C25.7683 20.634 26.2796 20.6382 26.791 20.6408C27.2277 20.6428 27.5186 20.8606 27.5803 21.2849C27.642 21.7091 27.6363 22.1426 27.6628 22.6208L27.6638 22.6218Z" fill="black"/>
<path d="M38.6683 20.6641C38.6683 22.4278 38.6781 24.1501 38.6626 25.8719C38.6579 26.3832 38.3079 26.6773 37.783 26.6819C37.3168 26.6861 36.8506 26.6877 36.3844 26.6819C35.8875 26.6752 35.5271 26.3905 35.5209 25.8978C35.4981 24.1626 35.5121 22.4273 35.5121 20.6656H36.8304V25.5524C37.2484 25.6899 37.3889 25.5768 37.3832 25.1728C37.3645 23.839 37.3759 22.5046 37.3759 21.1702C37.3759 21.0095 37.3759 20.8492 37.3759 20.6646H38.6688L38.6683 20.6641Z" fill="black"/>
<path d="M49.7823 22.7087H48.4858C48.4858 22.4774 48.4781 22.271 48.4879 22.0646C48.4993 21.8286 48.4267 21.7047 48.1602 21.7C47.8765 21.6953 47.8542 21.8452 47.849 22.0692C47.8324 22.7844 47.8246 22.7875 48.477 23.0479C49.8964 23.6147 49.7865 23.4461 49.7881 24.9797C49.7881 25.2794 49.7984 25.5802 49.7777 25.8789C49.7445 26.3607 49.4074 26.6739 48.9277 26.6802C48.4464 26.6869 47.9652 26.6833 47.4834 26.6812C46.8761 26.6786 46.5763 26.4022 46.5214 25.7954C46.5146 25.7207 46.5177 25.6455 46.5177 25.5709C46.5177 25.2421 46.5177 24.9133 46.5177 24.5497H47.862V25.7078C48.1306 25.5843 48.4609 25.491 48.4558 25.4246C48.4283 25.0808 48.6979 24.6441 48.2514 24.4056C47.8827 24.208 47.4917 24.0493 47.1038 23.8895C46.7096 23.7267 46.5182 23.4415 46.5188 23.0214C46.5188 22.5417 46.5105 22.0615 46.5208 21.5823C46.5338 20.9916 46.9067 20.5777 47.516 20.6317C47.9786 20.6726 48.448 20.6348 48.9142 20.641C49.4017 20.6472 49.7466 20.9491 49.7766 21.4303C49.8026 21.8452 49.7818 22.2632 49.7818 22.7087H49.7823Z" fill="black"/>
<path d="M11.2099 20.6434C11.4236 22.681 11.9432 24.6253 11.9712 26.6597H10.7281C10.6949 26.2796 10.6633 25.9135 10.6296 25.5307H9.96474C9.92429 25.8912 9.88332 26.2563 9.83872 26.653H8.54688C8.63815 25.8746 8.71231 25.1096 8.81966 24.3494C8.97628 23.2406 9.16609 22.137 9.3196 21.0277C9.35694 20.7585 9.42124 20.6237 9.72463 20.6377C10.2023 20.66 10.682 20.6434 11.2094 20.6434H11.2099ZM10.3599 22.3569C10.3143 22.3564 10.2692 22.3558 10.2235 22.3553C10.1675 22.9813 10.111 23.6072 10.0513 24.2736C10.2432 24.2565 10.3667 24.2451 10.5212 24.2311C10.4652 23.5813 10.4123 22.9694 10.3599 22.3574V22.3569Z" fill="black"/>
<path d="M23.8805 26.6617H21.1562V20.6641H23.8405V21.8657H22.4528V22.9765H23.7508V24.2326H22.4512V25.4249H23.88V26.6617H23.8805Z" fill="black"/>
<path d="M35.0859 28.6687C35.3769 28.6687 35.6476 28.6428 35.9084 28.6812C36.0194 28.6972 36.1522 28.829 36.2035 28.941C36.4706 29.5244 36.7149 30.1182 37.0452 30.7068V28.6905H37.9813V32.7673C37.2252 32.9379 37.1676 32.9119 36.8663 32.2336C36.6075 31.6507 36.3513 31.0662 36.0262 30.4901V32.8015H35.0865V28.6692L35.0859 28.6687Z" fill="black"/>
<path d="M18.1094 20.6602H19.3825V25.4365H20.7579V26.649H18.1094V20.6602Z" fill="black"/>
<path d="M39.5703 28.6683C40.299 28.6683 40.9726 28.6517 41.6458 28.6729C42.2588 28.6926 42.4579 28.9255 42.4589 29.5426C42.46 30.3947 42.4501 31.2473 42.4646 32.0994C42.4719 32.521 42.2722 32.7793 41.876 32.7964C41.1173 32.8296 40.356 32.8062 39.5708 32.8062V28.6683H39.5703ZM41.4871 32.1543V29.3456H40.5017V32.1543H41.4871Z" fill="black"/>
<path d="M49.7297 32.7996H48.7838C48.6951 32.6269 48.6329 32.3267 48.51 32.2997C48.1812 32.2276 47.8265 32.2686 47.4826 32.2753C47.4385 32.2764 47.3639 32.3355 47.3566 32.3775C47.2223 33.1341 46.67 32.7286 46.2266 32.8458C46.6134 31.4715 46.9723 30.1833 47.3473 28.8992C47.3753 28.8038 47.5143 28.685 47.6107 28.6762C47.9208 28.6477 48.2351 28.6658 48.566 28.6658C48.956 30.051 49.3377 31.4062 49.7303 32.7996H49.7297ZM47.5371 31.6152H48.4384C48.2989 31.0789 48.1687 30.5759 48.038 30.0733C48.0028 30.0733 47.968 30.0733 47.9328 30.0739C47.8031 30.579 47.6735 31.0841 47.5371 31.6152Z" fill="black"/>
<path d="M44.0156 28.6875H44.9346V32.8037H44.0156V28.6875Z" fill="black"/>
<path d="M33.4978 32.8093H32.6328V28.6973H33.4978V32.8093Z" fill="black"/>
<path d="M16.8672 30.3332V29.7793H17.4231V30.3332H16.8672Z" fill="black"/>
<path d="M16.8672 31.082H17.4211V31.7095H16.8672V31.082Z" fill="black"/>
<path d="M13.1641 29.7656H13.7273V31.7311H13.1641V29.7656Z" fill="black"/>
</svg>
