<svg width="55" height="55" viewBox="0 0 55 55" fill="none" xmlns="http://www.w3.org/2000/svg">
<rect width="54.9294" height="54.9294" rx="11.9412" fill="white"/>
<path d="M17.3119 13.0194C17.4321 12.9477 17.5088 13.0926 17.5737 13.1689C21.7488 18.3921 25.9289 23.6115 30.1037 28.8347C30.1894 28.909 30.1245 29.068 30.0088 29.051C28.0098 29.0532 26.0105 29.0517 24.0115 29.0517C23.8514 29.0536 23.6981 28.9739 23.5998 28.8491C21.5257 26.2578 19.4527 23.6654 17.3786 21.0737C17.2906 20.969 17.2451 20.8335 17.2508 20.6973C17.2508 18.1936 17.2515 15.6896 17.25 13.186C17.2511 13.1268 17.2489 13.0501 17.3119 13.0194Z" fill="black"/>
<path d="M36.6183 13.0074C36.7037 12.9751 36.7978 13.054 36.7853 13.1436C36.7883 15.6484 36.7849 18.1532 36.7868 20.6579C36.7925 20.7998 36.7614 20.9467 36.6692 21.0583C36.0389 21.8468 35.4078 22.6349 34.7776 23.423C34.6725 23.5596 34.5006 23.6351 34.3287 23.6264C32.343 23.6245 30.3569 23.6275 28.3712 23.6249C28.254 23.6431 28.1872 23.4849 28.2737 23.4086C31.0274 19.9635 33.7834 16.5196 36.5386 13.0753C36.5595 13.0457 36.5861 13.0229 36.6183 13.0074Z" fill="black"/>
<path d="M22.8941 33.3606C23.4967 33.268 24.1292 33.3746 24.665 33.6675C25.1845 33.9487 25.6114 34.3976 25.8652 34.9315C26.1468 35.517 26.2124 36.2015 26.0534 36.8314C25.9024 37.4412 25.537 37.9945 25.0384 38.3766C24.1858 39.0482 22.9362 39.1473 21.9868 38.6225C21.4404 38.3291 20.9972 37.8499 20.7471 37.2822C20.4322 36.5772 20.428 35.7413 20.735 35.0324C21.105 34.1536 21.9496 33.4968 22.8941 33.3606ZM23.0463 34.3092C22.4414 34.4006 21.9094 34.8302 21.6723 35.3914C21.4271 35.95 21.4753 36.6273 21.802 37.143C22.0699 37.5774 22.5268 37.8939 23.0322 37.9751C23.546 38.0654 24.0932 37.9064 24.4848 37.5634C24.9314 37.1813 25.1731 36.5787 25.1226 35.9936C25.0847 35.4715 24.8168 34.9706 24.399 34.6537C24.0203 34.3608 23.5194 34.2314 23.0463 34.3092Z" fill="black"/>
<path d="M8 33.49C8.2345 33.4263 8.48229 33.4779 8.7221 33.4597C8.80748 33.4714 8.93725 33.4274 8.98544 33.5238C9.00214 33.6494 8.99152 33.7765 8.99303 33.9033C8.99303 35.0079 8.99265 36.1128 8.99303 37.2174C9.9614 36.0073 10.9286 34.7965 11.8959 33.5857C11.9463 33.5227 12.015 33.4669 12.0996 33.4654C12.3774 33.4532 12.6555 33.4669 12.9337 33.4601C13.0376 33.462 13.153 33.4422 13.2418 33.5113C12.9181 33.9378 12.5751 34.3495 12.2434 34.7699C11.2493 36.0145 10.2547 37.2588 9.26017 38.503C9.18618 38.5933 9.12129 38.6927 9.03288 38.7709C8.94598 38.8426 8.82494 38.8202 8.72096 38.8259C8.48077 38.8176 8.23906 38.8388 8 38.8092V33.49Z" fill="black"/>
<path d="M14.7201 33.6813C14.8233 33.5413 14.9925 33.4563 15.1667 33.4601C15.3814 33.4605 15.5966 33.4563 15.8114 33.462C15.8854 33.454 15.9267 33.5307 15.9172 33.596C15.9172 35.2921 15.9172 36.9887 15.9172 38.6848C15.9271 38.7501 15.8873 38.8298 15.8114 38.8214C15.5454 38.8245 15.2794 38.8245 15.0134 38.821C14.9159 38.8237 14.8388 38.755 14.7842 38.6818C14.3243 38.1043 13.8621 37.5286 13.4022 36.9511C12.934 37.5343 12.4684 38.1194 12.0013 38.7038C11.9512 38.7679 11.8787 38.8218 11.7937 38.8207C11.489 38.8275 11.1839 38.8191 10.8788 38.8241C10.8041 38.8191 10.7104 38.8431 10.6641 38.7653C12.0081 37.0646 13.3703 35.3775 14.7201 33.6813ZM13.9623 36.1417C14.278 36.5345 14.5891 36.9306 14.9071 37.3211C14.9094 36.5337 14.9086 35.7467 14.9079 34.9593C14.5918 35.3528 14.2769 35.7471 13.9623 36.1417Z" fill="black"/>
<path d="M17.126 33.595C17.1188 33.5351 17.1514 33.4615 17.2208 33.463C17.4884 33.4565 17.757 33.4592 18.0249 33.4619C18.1016 33.4535 18.1494 33.5294 18.1372 33.5996C18.1387 35.021 18.138 36.4425 18.1376 37.8643C18.8813 37.8669 19.6251 37.8624 20.3684 37.8662C20.4322 37.8525 20.472 37.9334 20.4215 37.9762C20.228 38.2255 20.0281 38.4703 19.8311 38.7177C19.7715 38.7981 19.6706 38.8308 19.5735 38.8236C18.7895 38.8209 18.0052 38.8266 17.2212 38.8209C17.1491 38.8239 17.1192 38.7458 17.126 38.6854C17.126 36.9889 17.1256 35.292 17.126 33.595Z" fill="black"/>
<path d="M27.042 33.5968C27.0245 33.5186 27.0875 33.4477 27.1668 33.4606C28.5222 33.4591 29.8773 33.4598 31.2323 33.4602C31.2949 33.4515 31.3689 33.4905 31.3628 33.5619C31.367 33.9292 31.3636 34.2969 31.3644 34.6642C31.3723 34.7519 31.326 34.8289 31.2722 34.8934C30.8809 35.3772 30.4962 35.8659 30.1038 36.349C30.0845 36.3831 30.02 36.4283 30.0689 36.4678C30.6616 37.213 31.2593 37.9548 31.8512 38.7005C31.8941 38.7361 31.8948 38.8211 31.8246 38.8192C31.4733 38.8268 31.1215 38.823 30.7701 38.8211C30.6324 38.823 30.5546 38.6952 30.4783 38.601C29.9342 37.9184 29.3897 37.2361 28.8436 36.5554C28.803 36.5053 28.7408 36.4328 28.7973 36.371C29.3115 35.7183 29.8352 35.0725 30.352 34.4213C29.5866 34.4179 28.8209 34.4278 28.0559 34.4164C28.0422 35.8508 28.0567 37.2859 28.0487 38.7202C28.0574 38.787 27.9884 38.8314 27.9284 38.8223C27.6628 38.8223 27.3972 38.8264 27.1315 38.8204C27.061 38.8211 27.0325 38.7418 27.0416 38.683C27.042 36.9876 27.0416 35.2922 27.042 33.5968Z" fill="black"/>
<path d="M32.7052 33.5993C32.693 33.531 32.7374 33.4529 32.8141 33.4616C33.0672 33.457 33.321 33.4597 33.5745 33.4604C33.6694 33.4548 33.7612 33.4992 33.817 33.5762C35.0817 35.1585 36.346 36.7412 37.6108 38.3235C37.7197 38.4696 37.8502 38.6009 37.9447 38.7576C37.9356 38.7724 37.9174 38.802 37.9083 38.8168C37.6017 38.8324 37.2939 38.8168 36.9869 38.8237C36.8659 38.8256 36.7194 38.8358 36.6394 38.725C36.1643 38.1357 35.6938 37.5426 35.221 36.9514C34.7527 37.5343 34.2867 38.1194 33.82 38.7034C33.7699 38.7683 33.6967 38.8214 33.6117 38.821C33.3468 38.8248 33.082 38.8237 32.8175 38.8218C32.7386 38.8328 32.6926 38.7531 32.7052 38.6836C32.7052 36.989 32.7055 35.294 32.7052 33.5993ZM33.7149 34.9619C33.7138 35.7489 33.7138 36.5355 33.7149 37.3225C34.0306 36.9294 34.3448 36.5352 34.6594 36.1413C34.344 35.7486 34.0321 35.3528 33.7149 34.9619Z" fill="black"/>
<path d="M37.1658 33.6012C37.1579 33.5424 37.184 33.4657 37.2535 33.4642C37.5058 33.4539 37.7585 33.4627 38.0109 33.46C38.1088 33.4536 38.2112 33.4858 38.2708 33.5678C39.2441 34.7828 40.2136 36.0008 41.1877 37.2151C41.1877 36.0096 41.1873 34.804 41.1877 33.5981C41.1714 33.5222 41.2305 33.4486 41.3099 33.4608C41.577 33.4612 41.8441 33.4547 42.1109 33.4642C42.1792 33.4668 42.2039 33.5427 42.1963 33.6012C42.1963 35.2951 42.1963 36.9889 42.1963 38.6828C42.2042 38.7405 42.1788 38.8187 42.1097 38.8198C41.8445 38.8274 41.5785 38.8221 41.3133 38.8225C41.2256 38.8259 41.1425 38.7838 41.0909 38.7143C40.1187 37.5005 39.15 36.2835 38.1771 35.0704C38.1759 35.7819 38.179 36.4938 38.1759 37.2052C38.1945 37.2686 38.1042 37.3229 38.0659 37.2652C37.7866 36.9263 37.5168 36.5795 37.2413 36.2376C37.1799 36.1705 37.1601 36.0802 37.1647 35.9917C37.1662 35.1949 37.1643 34.398 37.1658 33.6012Z" fill="black"/>
<path d="M42.8936 33.5614C42.8856 33.4923 42.9593 33.4525 43.0196 33.4605C44.1337 33.4586 45.2478 33.4605 46.3618 33.4597C46.4582 33.4536 46.5591 33.4851 46.618 33.5663C46.8153 33.8122 47.0145 34.0574 47.2084 34.3063C47.2596 34.348 47.2213 34.4307 47.1568 34.4194C46.5743 34.4239 45.9915 34.4194 45.4086 34.4213C45.406 35.8419 45.4121 37.2626 45.4117 38.6833C45.4253 38.7512 45.3787 38.8294 45.3028 38.8214C45.0368 38.8237 44.7704 38.8248 44.5048 38.821C44.4482 38.826 44.3989 38.7759 44.4046 38.7201C44.3951 37.2873 44.4042 35.8541 44.3966 34.4213C43.9371 34.4201 43.4772 34.4228 43.0181 34.4205C42.957 34.4277 42.8841 34.3856 42.8936 34.3165C42.8898 34.0649 42.8894 33.813 42.8936 33.5614Z" fill="black"/>
</svg>
