<svg width="73" height="73" viewBox="0 0 73 73" fill="none" xmlns="http://www.w3.org/2000/svg">
<rect width="72.6355" height="72.6355" rx="6" fill="#333333"/>
<path d="M30.7664 12.7337L28.002 13.7201L30.4656 20.6251L33.2301 19.6387L30.7664 12.7337Z" fill="#DBFD67"/>
<path fill-rule="evenodd" clip-rule="evenodd" d="M41.1044 19.9314L24.5424 25.8405C21.6152 26.8887 19.2232 29.0552 17.8913 31.8647C16.5594 34.6742 16.3963 37.8973 17.4378 40.8269L22.3472 54.5868C22.6005 55.3232 22.9983 56.0014 23.5174 56.5818C24.0365 57.1622 24.6664 57.633 25.37 57.9666C26.0736 58.3002 26.8367 58.4897 27.6146 58.5242C28.3925 58.5587 29.1695 58.4373 29.8998 58.1673L33.0771 57.0337C34.1637 56.6425 35.1111 55.9403 35.8013 55.0145C36.4916 54.0887 36.8941 52.9802 36.9588 51.8273C37.0164 50.5658 37.1017 49.2239 37.1511 48.1769C37.178 47.6055 37.3712 47.0544 37.707 46.5914C38.0429 46.1283 38.5067 45.7735 39.0415 45.5705L42.2563 44.4235C42.7988 44.2421 43.3825 44.2232 43.9356 44.3691C44.4887 44.515 44.9871 44.8193 45.3695 45.2446C46.0831 46.0194 46.986 47.0087 47.8291 47.9488C48.6202 48.8155 49.6527 49.4252 50.7937 49.6993C51.9346 49.9734 53.1315 49.8993 54.2299 49.4866L57.4197 48.3485C58.8839 47.8261 60.0811 46.7442 60.7486 45.3402C61.4162 43.9362 61.4995 42.3248 60.9804 40.8594L56.0711 27.0994C55.0325 24.1675 52.8741 21.7667 50.0687 20.4231C47.2634 19.0795 44.0398 18.9027 41.1044 19.9314ZM34.0527 37.2398L30.6002 38.4716L31.8454 41.9616L29.0934 42.9435L27.8482 39.4535L24.3957 40.6853L23.4094 37.9208L26.8618 36.689L25.63 33.2365L28.382 32.2546L29.6138 35.7071L33.0663 34.4753L34.0527 37.2398ZM47.2634 37.1939C46.174 37.591 44.9912 37.6557 43.8649 37.38C42.7386 37.1042 41.7195 36.5004 40.9367 35.645C40.1539 34.7895 39.6427 33.721 39.4677 32.5747C39.2927 31.4284 39.4619 30.256 39.9539 29.206C40.4458 28.156 41.2384 27.2756 42.2311 26.6764C43.2239 26.0772 44.3721 25.7862 45.5304 25.8402C46.6887 25.8942 47.8049 26.2907 48.7376 26.9797C49.6703 27.6686 50.3775 28.6189 50.7697 29.7101C51.2935 31.1676 51.2187 32.7733 50.5616 34.1758C49.9045 35.5784 48.7186 36.6635 47.2634 37.1939Z" fill="white"/>
<path fill-rule="evenodd" clip-rule="evenodd" d="M44.3089 28.913C43.7622 29.108 43.2855 29.4609 42.9393 29.9268C42.593 30.3928 42.3928 30.951 42.3638 31.5308C42.3347 32.1106 42.4783 32.686 42.7763 33.1842C43.0743 33.6824 43.5134 34.081 44.0379 34.3297C44.5625 34.5784 45.149 34.6659 45.7233 34.5813C46.2976 34.4966 46.834 34.2435 47.2645 33.8541C47.6949 33.4646 48.0003 32.9562 48.1418 32.3932C48.2834 31.8302 48.2548 31.2379 48.0598 30.6911C47.7982 29.9579 47.256 29.3587 46.5526 29.0252C45.8492 28.6917 45.0421 28.6514 44.3089 28.913Z" fill="#DBFD67"/>
</svg>
