<svg width="55" height="55" viewBox="0 0 55 55" fill="none" xmlns="http://www.w3.org/2000/svg">
<rect width="54.9294" height="54.9294" rx="11.9412" fill="white"/>
<path d="M13.5657 28.0715C13.5381 27.8373 13.5381 27.8367 13.742 27.8367C14.2959 27.8367 14.8491 27.842 15.4023 27.834C15.5371 27.8321 15.5911 27.8802 15.6358 28.0023C15.943 28.8374 16.2581 29.6693 16.5712 30.5025C16.5916 30.5573 16.6139 30.612 16.6521 30.7103C16.7376 30.4986 16.8073 30.3303 16.8738 30.1601C17.0849 29.6179 17.298 29.0763 17.5033 28.5313C17.573 28.3466 17.6263 28.156 17.6756 27.9647C17.698 27.8763 17.7296 27.836 17.8276 27.8367C18.3867 27.8406 18.9458 27.8367 19.5043 27.8426C19.5483 27.8426 19.6154 27.8967 19.6299 27.9396C19.6562 28.0188 19.6293 28.0762 19.5227 28.0959C19.0293 28.1863 19.0254 28.1962 19.0254 28.7042C19.0254 29.6165 19.0254 30.5289 19.0254 31.4413C19.0254 31.814 19.0879 31.8984 19.4543 31.9512C19.6168 31.9743 19.6806 32.0304 19.624 32.2045H17.2796V31.9882C17.4112 31.9677 17.5362 31.9552 17.6579 31.9288C17.8407 31.8892 17.9427 31.781 17.9427 31.5963C17.944 30.552 17.9387 29.5084 17.9348 28.4641C17.9348 28.4594 17.9302 28.4542 17.9104 28.4179C17.8736 28.5017 17.8427 28.5663 17.817 28.6323C17.3776 29.7577 16.9336 30.8818 16.5034 32.0106C16.4331 32.196 16.3028 32.1313 16.1837 32.1491C16.064 32.1669 16.043 32.0891 16.0101 32.0014C15.5799 30.831 15.1471 29.6621 14.7142 28.4924C14.7004 28.4542 14.682 28.4179 14.6406 28.3856C14.6379 28.4377 14.6333 28.4904 14.6333 28.5426C14.6327 29.3507 14.632 30.1588 14.6333 30.9663C14.6333 31.054 14.636 31.1424 14.6419 31.2302C14.6721 31.6854 14.782 31.8305 15.2253 31.94C15.3852 31.9796 15.4398 32.0429 15.3812 32.2078H13.5381C13.4862 32.0495 13.5184 31.9776 13.6966 31.9519C14.0979 31.8945 14.2341 31.7546 14.2492 31.3443C14.2729 30.713 14.265 30.081 14.2696 29.449C14.2709 29.2234 14.2716 28.9984 14.2696 28.7728C14.265 28.3519 14.1018 28.1646 13.6848 28.0953C13.6473 28.0893 13.6105 28.0814 13.5671 28.0729L13.5657 28.0715Z" fill="black"/>
<path d="M33.6283 30.0615C33.9125 30.4217 34.1736 30.7601 34.4426 31.0926C34.6216 31.3142 34.7972 31.5418 35.0004 31.7397C35.107 31.844 35.2636 31.9258 35.4096 31.9522C35.5747 31.9825 35.6148 32.0406 35.5661 32.2061C35.5208 32.2094 35.4688 32.216 35.4168 32.2167C34.9623 32.2174 34.5071 32.2134 34.0526 32.22C33.9394 32.2213 33.8789 32.1778 33.8144 32.0881C33.4073 31.5161 32.9922 30.9494 32.5791 30.3814C32.5502 30.3418 32.5193 30.2996 32.4804 30.2726C32.393 30.2125 32.2989 30.2554 32.2982 30.357C32.2956 30.7746 32.2956 31.1922 32.2996 31.6098C32.3009 31.7853 32.414 31.8743 32.5692 31.9192C32.6219 31.9343 32.6758 31.9548 32.7291 31.9561C32.912 31.9601 32.9113 32.0656 32.8745 32.2081H30.5794C30.5327 31.9891 30.536 31.9838 30.7353 31.964C30.7735 31.9601 30.8116 31.9555 30.8491 31.9495C31.1162 31.906 31.1984 31.8143 31.1991 31.5431C31.201 30.6308 31.1997 29.7184 31.1997 28.8061C31.1997 28.7183 31.201 28.6299 31.1997 28.5422C31.1945 28.3001 31.1366 28.2229 30.9024 28.1536C30.8287 28.1318 30.7537 28.1107 30.6781 28.1035C30.5663 28.0923 30.5518 28.027 30.5551 27.9326C30.5597 27.8178 30.64 27.8376 30.7077 27.8376C31.5352 27.8376 32.3634 27.8238 33.1895 27.8502C33.5013 27.86 33.8283 27.9174 34.1164 28.0329C34.786 28.3007 34.907 29.2289 34.3446 29.6894C34.1907 29.8154 33.9967 29.8926 33.8191 29.9882C33.7677 30.0159 33.7092 30.0318 33.6276 30.0628L33.6283 30.0615ZM32.2969 29.0271C32.2969 29.2362 32.2969 29.4446 32.2969 29.6538C32.2969 29.8675 32.4055 29.9669 32.6225 29.952C33.0586 29.9216 33.3487 29.7244 33.4349 29.3556C33.6046 28.6319 33.377 28.12 32.5258 28.1193C32.4929 28.1193 32.4601 28.1219 32.4272 28.1193C32.3265 28.1088 32.2936 28.1543 32.2949 28.2532C32.2996 28.5112 32.2963 28.7698 32.2963 29.0284L32.2969 29.0271Z" fill="black"/>
<path d="M45.6993 29.3205C45.5421 29.368 45.4454 29.333 45.3783 29.1569C45.2948 28.9379 45.1823 28.7261 45.0533 28.5295C44.8146 28.166 44.4732 27.9708 44.0325 28.0433C43.8746 28.0691 43.7055 28.1522 43.5858 28.2584C43.3174 28.4979 43.3411 28.9247 43.6312 29.1364C43.7871 29.2506 43.9746 29.3284 44.1568 29.399C44.4942 29.5296 44.8455 29.6246 45.177 29.7671C45.6375 29.965 45.9315 30.3041 45.9578 30.8325C45.9841 31.3669 45.7684 31.7719 45.3112 32.0418C44.6778 32.4151 44.0061 32.4052 43.3234 32.212C43.1872 32.173 43.0524 32.1203 42.9267 32.0549C42.8346 32.0074 42.7741 32.016 42.7182 32.0965C42.6241 32.2317 42.4959 32.235 42.3281 32.1922V30.6472C42.4695 30.5997 42.5643 30.632 42.6347 30.7962C42.8182 31.2264 43.0681 31.6143 43.4786 31.8643C43.8101 32.0668 44.1713 32.0728 44.5245 31.9448C44.7666 31.857 44.9067 31.6591 44.9396 31.3952C44.9724 31.1314 44.8705 30.9255 44.6482 30.7962C44.4791 30.6979 44.2943 30.6234 44.1107 30.5548C43.8285 30.4486 43.5371 30.3668 43.2569 30.256C42.7531 30.058 42.4525 29.6873 42.4136 29.1404C42.3742 28.5856 42.6419 28.1871 43.1208 27.9398C43.7733 27.6026 44.435 27.6594 45.0876 27.9516C45.1967 28.0004 45.2658 28.0064 45.3592 27.9167C45.4165 27.8626 45.5224 27.8527 45.6092 27.8408C45.6348 27.8375 45.6954 27.8942 45.6954 27.9239C45.7006 28.3844 45.6993 28.8455 45.6993 29.3205Z" fill="black"/>
<path d="M12.1809 30.8759C12.1539 31.3218 12.127 31.7586 12.0993 32.2052H8.00395V31.9862C8.11314 31.9703 8.22628 31.9584 8.33745 31.936C8.54333 31.8945 8.62622 31.8047 8.62687 31.5996C8.63016 30.5665 8.62687 29.5334 8.62951 28.5003C8.62951 28.3262 8.5486 28.2193 8.38875 28.1705C8.26377 28.1322 8.1355 28.1032 8 28.0676V27.8439C8.06381 27.8406 8.12235 27.8353 8.18023 27.8353C9.34715 27.8353 10.5147 27.8373 11.6817 27.832C11.8303 27.8314 11.8816 27.869 11.875 28.024C11.8625 28.3248 11.8711 28.6263 11.8711 28.9298C11.7297 28.976 11.6474 28.9588 11.5718 28.8183C11.4797 28.6468 11.3574 28.4845 11.2186 28.3486C11.1225 28.2542 10.9804 28.1612 10.8528 28.152C10.4891 28.1256 10.1227 28.1428 9.7438 28.1428V29.8164C9.98521 29.8019 10.2207 29.8052 10.4496 29.7689C10.7496 29.7214 10.8588 29.4734 10.9259 29.2181C10.9686 29.0551 11.0443 29.0122 11.2021 29.071V30.862C11.0568 30.9062 10.9633 30.8884 10.9305 30.7162C10.9107 30.61 10.8555 30.5104 10.8134 30.4095C10.7436 30.2432 10.6101 30.1436 10.4391 30.1219C10.2135 30.0941 9.9839 30.0928 9.72999 30.079C9.72999 30.2366 9.72999 30.3666 9.72999 30.4966C9.72999 30.8205 9.72538 31.145 9.73328 31.469C9.74117 31.7995 9.85497 31.9241 10.1799 31.9294C10.4858 31.9347 10.7923 31.9142 11.0975 31.8951C11.2521 31.8852 11.3817 31.8094 11.4666 31.6761C11.6113 31.4498 11.7547 31.2229 11.8889 30.9907C11.975 30.8422 11.9671 30.8376 12.1789 30.8759H12.1809Z" fill="black"/>
<path d="M39.8702 30.8669C39.7262 30.9091 39.6479 30.8728 39.6209 30.7204C39.6032 30.6195 39.5519 30.5245 39.5111 30.4289C39.4361 30.2534 39.298 30.1432 39.1138 30.1208C38.9138 30.0964 38.7099 30.0957 38.5079 30.0983C38.4757 30.0983 38.4172 30.1709 38.4172 30.2105C38.4119 30.6446 38.4086 31.0787 38.4198 31.5127C38.427 31.7911 38.5375 31.9158 38.8086 31.9251C39.125 31.9363 39.4427 31.9165 39.7591 31.9013C39.94 31.8927 40.0814 31.7997 40.1781 31.646C40.3156 31.4276 40.4609 31.2139 40.58 30.9856C40.6445 30.8616 40.7168 30.83 40.8622 30.8748C40.8359 31.3122 40.8096 31.7535 40.7819 32.2054H36.6872V31.9871C36.7819 31.9745 36.8786 31.9646 36.9746 31.9481C37.2332 31.9039 37.3127 31.8129 37.3134 31.5497C37.3154 30.632 37.3141 29.7144 37.3141 28.7968C37.3141 28.709 37.3154 28.6206 37.3141 28.5329C37.3095 28.3027 37.2476 28.2208 37.0259 28.1536C36.9529 28.1311 36.8773 28.1107 36.8016 28.1028C36.6944 28.0922 36.6694 28.0368 36.6721 27.9378C36.6747 27.825 36.7477 27.8362 36.8187 27.8362C38.0186 27.8362 39.2184 27.8362 40.4182 27.8362C40.4925 27.8362 40.5616 27.8323 40.5609 27.9418C40.5576 28.2703 40.5596 28.5995 40.5596 28.928C40.4083 28.9861 40.3254 28.9544 40.2504 28.81C40.1656 28.647 40.0432 28.5012 39.9229 28.3607C39.792 28.209 39.617 28.1305 39.4144 28.1292C39.0875 28.1272 38.7605 28.1292 38.4152 28.1292C38.4152 28.3772 38.4152 28.6121 38.4152 28.8469C38.4152 29.1108 38.4205 29.3747 38.4126 29.6379C38.4086 29.7626 38.4389 29.8233 38.575 29.8081C38.6619 29.7982 38.75 29.8068 38.8375 29.8061C39.2973 29.8008 39.4749 29.6695 39.619 29.2289C39.6328 29.1873 39.6321 29.1286 39.6597 29.1068C39.7005 29.0745 39.7624 29.054 39.8137 29.0567C39.8419 29.058 39.8906 29.1167 39.8906 29.1497C39.8939 29.7098 39.8906 30.2705 39.8887 30.8306C39.8887 30.8405 39.8801 30.8504 39.8715 30.8676L39.8702 30.8669Z" fill="black"/>
<path d="M21.1919 32.2035C21.1656 32.0557 21.2195 31.975 21.3537 31.9614C21.4024 31.9561 21.4517 31.9495 21.5004 31.9403C21.7339 31.8961 21.8109 31.8097 21.8129 31.5728C21.8161 31.2047 21.8142 30.8366 21.8142 30.4678C21.8142 29.8411 21.8142 29.2144 21.8142 28.5884C21.8142 28.2823 21.7537 28.2084 21.453 28.1332C21.4215 28.1253 21.3892 28.114 21.357 28.1121C21.1893 28.1041 21.1366 28.0204 21.1945 27.8436C21.2439 27.8409 21.3018 27.8356 21.3603 27.8356C22.0944 27.8356 22.8291 27.8297 23.5632 27.8403C23.8303 27.8442 24.1013 27.8647 24.3625 27.9168C24.8939 28.023 25.1939 28.3113 25.2597 28.7335C25.3445 29.2758 25.1202 29.7554 24.665 30.0258C24.2835 30.2528 23.8619 30.3042 23.4317 30.3227C23.2679 30.33 23.1041 30.324 22.9114 30.324C22.9114 30.4329 22.9114 30.5233 22.9114 30.6143C22.9114 30.9112 22.9101 31.208 22.9114 31.5049C22.9127 31.778 22.987 31.8704 23.2475 31.9304C23.2903 31.9403 23.333 31.9502 23.3764 31.9574C23.4979 31.979 23.549 32.061 23.5297 32.2035H21.1919ZM22.9107 28.0883C22.9107 28.6688 22.9107 29.1893 22.9107 29.7099C22.9107 29.9482 23.0295 30.0538 23.2672 30.0265C23.677 29.9797 23.9323 29.787 24.025 29.4301C24.1072 29.1135 24.1033 28.7909 23.9474 28.5C23.8809 28.3759 23.7527 28.2453 23.6244 28.2024C23.408 28.1299 23.1692 28.1253 22.9107 28.0883Z" fill="black"/>
<path d="M26.6603 32.206C26.6314 31.9784 26.6314 31.9797 26.8366 31.9672C26.9076 31.9626 26.9787 31.9566 27.0484 31.9434C27.2155 31.9118 27.3095 31.8095 27.3148 31.6373C27.3194 31.4948 27.3181 31.3517 27.3181 31.2085C27.3181 30.3457 27.3181 29.4828 27.3181 28.6192C27.3181 28.2834 27.2622 28.2135 26.932 28.133C26.8682 28.1172 26.8037 28.1014 26.7386 28.0941C26.6333 28.0822 26.6307 28.0031 26.6498 27.9371C26.6616 27.8962 26.7221 27.8421 26.7616 27.8421C27.4957 27.8362 28.2304 27.8368 28.9645 27.8421C29.0027 27.8421 29.0612 27.8988 29.0731 27.9397C29.0921 28.007 29.0882 28.0829 28.9803 28.0915C28.8823 28.0987 28.7836 28.1139 28.6883 28.1357C28.4804 28.1832 28.412 28.2656 28.4094 28.4807C28.4054 28.8105 28.408 29.1404 28.4074 29.4702C28.4074 30.1411 28.4074 30.8114 28.4074 31.4823C28.4074 31.7963 28.4765 31.8801 28.7804 31.9421C28.8178 31.95 28.856 31.9639 28.8935 31.9619C29.0718 31.954 29.1139 32.0398 29.0586 32.2073H26.6596L26.6603 32.206Z" fill="black"/>
<path d="M42.5168 22.0452C43.1752 22.0452 43.8225 22.0254 44.4665 22.057C44.6684 22.0669 44.8993 22.1758 45.0545 22.311C45.4453 22.6521 45.3788 23.3164 44.9454 23.6153C44.798 23.7162 44.627 23.7822 44.4553 23.8706C44.4698 23.8956 44.4849 23.9279 44.5059 23.9557C44.7664 24.3093 45.0269 24.6629 45.2887 25.0151C45.4499 25.2322 45.636 25.4103 45.9235 25.4439C45.957 25.4479 45.9965 25.5086 46.007 25.5501C46.0116 25.568 45.9491 25.6247 45.9163 25.626C45.6531 25.6326 45.39 25.6366 45.1276 25.624C45.073 25.6214 45.0092 25.5574 44.9717 25.5053C44.6625 25.0719 44.3639 24.6312 44.0521 24.1997C43.8824 23.9649 43.8633 23.9675 43.5272 24.0203C43.5272 24.1833 43.5272 24.3508 43.5272 24.5184C43.5272 24.711 43.5258 24.903 43.5272 25.0956C43.5298 25.3285 43.5903 25.3964 43.8218 25.4294C43.8653 25.4354 43.9153 25.4274 43.9508 25.4466C43.9856 25.465 44.0271 25.5106 44.0264 25.5435C44.0258 25.5732 43.9718 25.6254 43.9409 25.626C43.4916 25.6313 43.0424 25.6313 42.5931 25.626C42.5628 25.626 42.5102 25.5713 42.5102 25.5416C42.5102 25.5086 42.5523 25.4545 42.5859 25.4453C42.9884 25.3364 42.9891 25.3384 42.9891 24.9267C42.9891 24.1681 42.9891 23.4094 42.9891 22.6514C42.9891 22.3203 42.9654 22.2873 42.6437 22.2292C42.5319 22.2088 42.4675 22.1725 42.5168 22.0471V22.0452ZM43.5285 22.2411C43.5285 22.7359 43.5272 23.2122 43.5318 23.6885C43.5318 23.7182 43.5765 23.7709 43.6028 23.7729C43.8607 23.7874 44.1179 23.7934 44.3454 23.6344C44.6165 23.445 44.7428 23.0796 44.6546 22.7253C44.5882 22.4575 44.3836 22.2721 44.0948 22.2451C43.9166 22.2286 43.735 22.2418 43.5291 22.2418L43.5285 22.2411Z" fill="black"/>
<path d="M10.0325 23.8759C10.3614 24.3119 10.6843 24.7486 11.0178 25.1761C11.1356 25.3272 11.3014 25.413 11.4961 25.4413C11.5382 25.4473 11.573 25.506 11.6105 25.5409C11.5697 25.5706 11.5296 25.6247 11.4882 25.626C11.2527 25.6346 11.0165 25.6247 10.781 25.6326C10.6732 25.6366 10.6146 25.5937 10.5561 25.508C10.2555 25.0686 9.93644 24.6418 9.64767 24.1945C9.51216 23.9854 9.34574 23.9768 9.11749 24.0177C9.11749 24.2281 9.11749 24.4399 9.11749 24.6517C9.11749 24.8054 9.11486 24.9598 9.11749 25.1135C9.12144 25.3213 9.17998 25.3886 9.38061 25.4242C9.42928 25.4328 9.48388 25.4242 9.52598 25.444C9.56479 25.4624 9.5911 25.5093 9.62267 25.5436C9.5865 25.572 9.55097 25.6234 9.51348 25.6254C9.2997 25.6333 9.08592 25.6293 8.87213 25.6293C8.65309 25.6293 8.43339 25.6333 8.21434 25.6254C8.17619 25.6241 8.13936 25.5753 8.10186 25.5482C8.13673 25.5113 8.16698 25.4486 8.20711 25.4413C8.56034 25.3754 8.57876 25.3576 8.57876 24.9927C8.57876 24.2011 8.57876 23.4095 8.57876 22.6178C8.57876 22.3249 8.54456 22.2801 8.25052 22.2312C8.12883 22.2108 8.06963 22.1706 8.11896 22.0314C8.16106 22.0287 8.20382 22.0234 8.24592 22.0234C8.81622 22.0274 9.38587 22.0215 9.95552 22.0399C10.264 22.0498 10.5574 22.1435 10.7462 22.4127C11.0244 22.8098 10.9146 23.3666 10.5094 23.6318C10.3647 23.7261 10.2002 23.7901 10.0312 23.8745L10.0325 23.8759ZM9.12012 22.2398C9.12012 22.7346 9.11881 23.2109 9.12341 23.6872C9.12341 23.7175 9.16222 23.767 9.19182 23.7749C9.54374 23.8693 9.96999 23.7004 10.1581 23.3989C10.4633 22.9101 10.1956 22.2873 9.65688 22.2425C9.48914 22.2286 9.31877 22.2405 9.12012 22.2405V22.2398Z" fill="black"/>
<path d="M19.1312 22.0359C19.1562 22.0319 19.1832 22.024 19.2095 22.024C19.7463 22.026 20.285 22.0055 20.8198 22.0385C21.5052 22.0807 22.086 22.3545 22.3781 23.0175C22.6695 23.6785 22.6406 24.3382 22.1919 24.9359C21.9453 25.2651 21.5966 25.4511 21.2039 25.5474C21.0191 25.593 20.8264 25.6213 20.6363 25.626C20.1653 25.6372 19.6937 25.6319 19.2227 25.626C19.1793 25.626 19.1365 25.5752 19.0938 25.5481C19.1352 25.5118 19.1733 25.4505 19.2194 25.4439C19.5562 25.3937 19.5812 25.3693 19.5812 25.025C19.5812 24.2333 19.5812 23.4424 19.5812 22.6507C19.5812 22.3347 19.5503 22.2905 19.2464 22.2285C19.128 22.2041 19.0832 22.1573 19.1319 22.0352L19.1312 22.0359ZM21.9729 23.8916C21.9578 23.8883 21.9433 23.885 21.9282 23.8817C21.9282 23.821 21.9321 23.7603 21.9282 23.7003C21.89 23.2174 21.7433 22.7912 21.3375 22.4832C20.9954 22.2239 20.606 22.218 20.2087 22.2457C20.1791 22.2476 20.1337 22.3281 20.1324 22.373C20.1252 22.6474 20.1285 22.9218 20.1285 23.1963C20.1285 23.7946 20.1271 24.3936 20.1291 24.992C20.1298 25.2334 20.2087 25.3502 20.4146 25.3918C20.9428 25.4986 21.5401 25.3231 21.769 24.7314C21.8723 24.4649 21.9071 24.172 21.9729 23.8909V23.8916Z" fill="black"/>
<path d="M15.1707 23.8082C15.1595 24.6038 14.8642 25.218 14.1498 25.5571C13.0579 26.075 11.837 25.3321 11.7173 24.0932C11.6489 23.384 11.8199 22.756 12.3968 22.2975C13.3269 21.5587 14.6859 21.9894 15.0648 23.1353C15.099 23.2389 15.126 23.3471 15.1418 23.4553C15.1602 23.58 15.1628 23.7066 15.1707 23.8089V23.8082ZM12.3238 23.9111C12.3172 24.2047 12.3692 24.5735 12.5396 24.9145C12.7139 25.2635 12.9921 25.4759 13.3934 25.4885C13.7756 25.5004 14.0933 25.3499 14.2709 25.0128C14.6669 24.2595 14.6577 23.4804 14.3123 22.7131C14.1354 22.32 13.7959 22.1445 13.3638 22.1695C12.9467 22.1933 12.681 22.4301 12.5152 22.7982C12.3685 23.1248 12.3251 23.4724 12.3238 23.9118V23.9111Z" fill="black"/>
<path d="M41.9536 23.7477C41.9325 24.5684 41.6714 25.1707 41.0018 25.5263C39.9513 26.083 38.7146 25.426 38.5199 24.2148C38.4206 23.5947 38.5199 23.0135 38.9389 22.5279C39.3836 22.0134 39.9618 21.8366 40.6176 21.9876C41.2807 22.14 41.6878 22.584 41.8687 23.2331C41.9227 23.4271 41.9352 23.6323 41.9536 23.7477ZM41.3379 23.9087C41.3399 23.4218 41.2655 23.0313 41.1188 22.7469C40.9301 22.3815 40.6406 22.1697 40.217 22.1677C39.7908 22.1658 39.4849 22.3775 39.3211 22.7509C39.0159 23.4456 39.006 24.1613 39.2994 24.8639C39.4652 25.2597 39.7717 25.4933 40.2183 25.4906C40.6623 25.4873 40.9544 25.2498 41.1412 24.8626C41.2951 24.5433 41.3287 24.2003 41.3379 23.9093V23.9087Z" fill="black"/>
<path d="M10.7754 26.7824C21.3849 26.6716 31.9944 26.6934 42.6039 26.7804V26.8332H10.7734C10.7734 26.8161 10.7748 26.7996 10.7754 26.7824Z" fill="black"/>
<path d="M15.2883 25.6295C15.2435 25.5101 15.26 25.4487 15.3837 25.4296C15.631 25.3913 15.7757 25.2271 15.8638 25.0041C16.1684 24.227 16.473 23.4505 16.7762 22.6727C16.8499 22.4834 16.9202 22.2927 16.9906 22.1027C17.0183 22.0269 17.0511 21.9444 17.1472 21.9787C17.2064 21.9998 17.2755 22.0546 17.2972 22.1106C17.6721 23.0665 18.0431 24.0238 18.4088 24.9836C18.4989 25.2205 18.6266 25.3966 18.8936 25.4448C18.937 25.4527 18.9666 25.5378 19.0028 25.5866C18.989 25.6011 18.9752 25.6163 18.9614 25.6308C18.6391 25.6308 18.3174 25.6308 17.9951 25.6308C17.8635 25.6308 17.7313 25.6381 17.6011 25.6262C17.559 25.6222 17.5215 25.5688 17.4813 25.5384C17.5142 25.5055 17.5432 25.4507 17.5813 25.4428C17.9799 25.3623 17.9799 25.3643 17.8412 24.9882C17.7826 24.8286 17.7228 24.669 17.6714 24.5067C17.6418 24.4137 17.5932 24.378 17.4938 24.3793C17.1597 24.3853 16.8255 24.3846 16.4914 24.3793C16.396 24.378 16.3381 24.4031 16.3092 24.5001C16.25 24.7 16.1743 24.8952 16.1204 25.0964C16.073 25.2719 16.1151 25.3359 16.2894 25.3893C16.373 25.4144 16.4631 25.4171 16.5453 25.4461C16.5789 25.458 16.6131 25.5094 16.6183 25.5464C16.6216 25.5701 16.5716 25.6249 16.5453 25.6255C16.125 25.6308 15.7047 25.6288 15.2883 25.6288V25.6295ZM17.5274 24.1504C17.3439 23.6867 17.1722 23.2513 16.9827 22.7723C16.7946 23.2605 16.6269 23.6966 16.4519 24.1504H17.5274Z" fill="black"/>
<path d="M34.3208 25.6294C34.1182 25.6294 33.9149 25.6353 33.7123 25.6254C33.6649 25.6235 33.6202 25.5687 33.5742 25.5384C33.6136 25.5047 33.6491 25.4493 33.6932 25.4407C34.0688 25.3701 34.0728 25.3675 33.9406 25.0119C33.8774 24.8417 33.8103 24.6735 33.7518 24.502C33.7235 24.4189 33.6827 24.378 33.5873 24.3793C33.242 24.3846 32.8966 24.3773 32.5513 24.3859C32.502 24.3872 32.4283 24.4373 32.4105 24.4828C32.3349 24.6768 32.2684 24.8754 32.2132 25.0766C32.1586 25.2758 32.2053 25.3431 32.4072 25.3978C32.4757 25.4163 32.5506 25.4157 32.6151 25.442C32.6546 25.4585 32.6789 25.51 32.7098 25.5456C32.6776 25.5733 32.646 25.6248 32.6131 25.6254C32.2244 25.6314 31.835 25.6314 31.4456 25.6254C31.4146 25.6254 31.36 25.5727 31.3594 25.543C31.3587 25.5087 31.4008 25.4473 31.4317 25.4427C31.7416 25.3965 31.8797 25.1815 31.9823 24.9156C32.3401 23.9881 32.7039 23.0625 33.067 22.137C33.0973 22.0591 33.1078 21.9694 33.2341 21.9707C33.3617 21.972 33.3676 22.0644 33.3972 22.1416C33.7735 23.1153 34.1484 24.089 34.5227 25.0627C34.5997 25.2633 34.7391 25.384 34.9489 25.4361C34.9943 25.4473 35.0259 25.514 35.0641 25.5549C35.0187 25.5799 34.9746 25.6241 34.9286 25.6261C34.726 25.634 34.5234 25.6294 34.3201 25.6294H34.3208ZM33.6169 24.1517C33.4327 23.6859 33.2604 23.2479 33.0874 22.8105C33.0736 22.8112 33.0591 22.8125 33.0453 22.8132C32.8789 23.2532 32.7118 23.6938 32.5388 24.1517H33.6169Z" fill="black"/>
<path d="M27.8125 22.0268C27.9085 22.0268 28.0111 22.0268 28.1138 22.0268C28.4538 22.0268 28.7933 22.0235 29.1333 22.0308C29.18 22.0321 29.2261 22.0862 29.2721 22.1159C29.2333 22.1488 29.1978 22.2036 29.1544 22.2122C28.7841 22.2847 28.7847 22.2814 28.9169 22.635C29.1695 23.3093 29.4208 23.9835 29.6727 24.6577C29.6938 24.7137 29.7175 24.7685 29.7484 24.8457C29.7786 24.7982 29.803 24.7711 29.8155 24.7395C30.0681 24.095 30.3187 23.4498 30.57 22.8046C30.5759 22.7894 30.5811 22.7736 30.5857 22.7577C30.7134 22.3632 30.6706 22.2946 30.2575 22.2247C30.1904 22.2135 30.0917 22.2155 30.122 22.1119C30.1338 22.0717 30.222 22.0308 30.2759 22.0301C30.6588 22.0228 31.0416 22.0261 31.4284 22.0261C31.4757 22.1455 31.4553 22.2095 31.3284 22.2313C31.1468 22.2617 31.0212 22.3685 30.9495 22.5381C30.8087 22.8719 30.664 23.2044 30.5292 23.5408C30.2661 24.1985 30.0082 24.8589 29.749 25.5186C29.7168 25.5997 29.699 25.6828 29.576 25.6795C29.4609 25.6762 29.4471 25.5964 29.4188 25.5212C29.0557 24.5482 28.6926 23.5758 28.3322 22.6021C28.2565 22.3982 28.1177 22.2729 27.9085 22.23C27.7961 22.2069 27.7605 22.1541 27.8125 22.0268Z" fill="black"/>
<path d="M35.3169 22.0312H36.8042C36.8081 22.084 36.8114 22.1309 36.8167 22.1942C36.7529 22.2074 36.6956 22.2199 36.6384 22.2311C36.3562 22.2872 36.3148 22.336 36.3148 22.6283C36.3148 23.4028 36.3148 24.1772 36.3148 24.9517C36.3148 25.023 36.3187 25.0942 36.3253 25.1655C36.3378 25.3027 36.4095 25.4043 36.5496 25.4056C36.8325 25.4082 37.1166 25.403 37.3975 25.3753C37.4804 25.3667 37.5777 25.2875 37.6297 25.2136C37.7553 25.0349 37.854 24.8376 37.9737 24.6535C38.0027 24.6087 38.0698 24.5882 38.1198 24.5566C38.1382 24.6054 38.175 24.6549 38.173 24.703C38.1599 24.9662 38.1355 25.2288 38.1198 25.492C38.1145 25.5817 38.0948 25.6319 37.9882 25.6319C37.1232 25.6286 36.2575 25.6299 35.3919 25.6292C35.3656 25.6292 35.3399 25.62 35.3156 25.6154C35.2663 25.4861 35.3169 25.4452 35.4386 25.4327C35.7247 25.4036 35.7754 25.3436 35.776 25.0579C35.7767 24.2617 35.776 23.4648 35.776 22.6685C35.776 22.3664 35.7353 22.3103 35.4399 22.2364C35.3353 22.21 35.2603 22.1803 35.3162 22.0319L35.3169 22.0312Z" fill="black"/>
<path d="M27.4451 23.8192C27.4425 24.2414 27.2202 24.5713 26.8623 24.6828C26.4782 24.8022 26.0914 24.6439 25.8974 24.287C25.6842 23.8944 25.7724 23.3713 26.0973 23.0969C26.3881 22.8515 26.8314 22.8462 27.1287 23.0916C27.3563 23.2789 27.4504 23.529 27.4445 23.8199L27.4451 23.8192ZM26.0519 23.8107C26.0947 23.9842 26.1197 24.153 26.1782 24.3094C26.2493 24.4974 26.3966 24.6082 26.6065 24.6109C26.8222 24.6135 26.9742 24.504 27.0544 24.3114C27.1965 23.9716 27.1925 23.6266 27.0413 23.2908C26.963 23.1167 26.8189 23.0263 26.6249 23.0217C26.4223 23.017 26.2683 23.1094 26.194 23.2908C26.1269 23.4551 26.098 23.6345 26.0519 23.8107Z" fill="black"/>
<path d="M24.0547 23.4022V22.9629H25.536V23.399C25.5262 23.4082 25.5156 23.4168 25.5058 23.426C25.3591 23.2367 25.2729 22.9411 24.9223 23.0797C24.9223 23.3132 24.9223 23.5593 24.9223 23.8047C24.9223 23.9749 24.9295 24.1457 24.9203 24.3159C24.9111 24.4743 24.9585 24.5726 25.1295 24.5831C25.1446 24.5838 25.1604 24.5937 25.1729 24.6029C25.1808 24.6082 25.1835 24.6207 25.2012 24.6544H24.3586C24.4086 24.6161 24.4277 24.5877 24.4467 24.5884C24.6467 24.5904 24.6724 24.4696 24.6684 24.3047C24.6605 23.9584 24.6684 23.612 24.6618 23.2664C24.6605 23.1944 24.6184 23.0612 24.6033 23.0618C24.4954 23.0698 24.3783 23.0869 24.2862 23.1397C24.2237 23.1753 24.1948 23.2723 24.1553 23.3442C24.1376 23.3765 24.1297 23.4148 24.1178 23.4504C24.0968 23.4346 24.0757 23.4194 24.0547 23.4036V23.4022Z" fill="black"/>
</svg>
