<?xml version="1.0" encoding="UTF-8"?><svg id="Layer_2" xmlns="http://www.w3.org/2000/svg" viewBox="0 0 1601.12 953.87"><defs><style>.cls-1{stroke-width:0px;}</style></defs><g id="Layer_1-2"><path class="cls-1" d="m149.03,276.19l-80.2,413.7c-16.2,83.7,10.5,140.6,56.6,171.2,21.4,14.2,47.1,23.2,74.8,27,28.5,3.9,59.1,2.3,89.5-4.9,88.8-20.9,173.9-89.3,196.3-205.3l18.2-93.7,5-26h582.4l5,26,18.2,93.7c22.5,116,107.5,184.4,196.3,205.3,30.4,7.1,61,8.8,89.5,4.9,27.7-3.8,53.4-12.8,74.8-27,46.1-30.6,72.8-87.4,56.6-171.2l-80.2-413.7c-14.5-74.9-55-129.9-105.6-165-29.3-20.3-62.1-34-95.3-41.3-33-7.1-66.1-7.8-96.5-1.9-41.3,8-77.3,28.1-99.6,60.3l-9.6,13.9h-489.6l-9.6-13.9c-22.3-32.2-58.3-52.3-99.6-60.3-30.4-5.9-63.5-5.3-96.5,1.9-33.2,7.2-66,21-95.3,41.3-50.6,35-91.1,90-105.6,165h0ZM6.13,677.79l80.2-413.7c18-93,68.6-161.5,132.1-205.5,36.5-25.3,77.1-42.4,118-51.3,41.3-8.9,83.2-9.7,122-2.1,51.3,9.9,97.2,34.2,129.5,72.9h425.2c32.3-38.7,78.2-63,129.5-72.9,38.8-7.5,80.7-6.8,122,2.1,41,8.9,81.6,26,118.1,51.3,63.4,44,114.1,112.5,132.1,205.5l80.2,413.7c21.9,113.2-17.4,192.2-84.1,236.4-29.5,19.6-64.4,31.9-101.5,37-36.3,5-74.8,3-112.5-5.9-110.6-26-216.6-111.2-244.6-255.5l-13.1-67.7h-477.3l-13.1,67.7c-28,144.3-133.9,229.5-244.6,255.5-37.7,8.9-76.2,10.8-112.5,5.9-37.1-5.1-72-17.4-101.5-37-66.8-44.2-106.1-123.2-84.1-236.4h0Z"/><path class="cls-1" d="m752.53,334.09c-17.7,0-32,14.3-32,32s14.3,32,32,32h96c17.7,0,32-14.3,32-32s-14.3-32-32-32h-96Z"/><circle class="cls-1" cx="1198.53" cy="251.79" r="48"/><circle class="cls-1" cx="1198.53" cy="443.79" r="48"/><circle class="cls-1" cx="1062.53" cy="347.79" r="48"/><circle class="cls-1" cx="1334.53" cy="347.79" r="48"/><path class="cls-1" d="m384.03,238.19c0-17.7-14.3-32-32-32s-32,14.3-32,32v256c0,17.7,14.3,32,32,32s32-14.3,32-32v-256Z"/><path class="cls-1" d="m224.03,334.09c-17.7,0-32,14.3-32,32s14.3,32,32,32h256c17.7,0,32-14.3,32-32s-14.3-32-32-32H224.03Z"/></g></svg>