<svg width="168" height="84" viewBox="0 0 168 84" fill="none" xmlns="http://www.w3.org/2000/svg">
<path d="M112.426 40.4564L112.957 40.571L113.099 39.9132H112.426V40.4564ZM111.446 45V45.5432H111.885L111.977 45.1145L111.446 45ZM89.7973 45L89.2605 44.9167L89.1633 45.5432H89.7973V45ZM98.1717 33.2847L98.4533 33.7493L98.4564 33.7474L98.1717 33.2847ZM105.522 28.7857L105.8 29.2523L105.802 29.2508L105.522 28.7857ZM98.3499 24.5985V25.1418H98.8585L98.8919 24.6343L98.3499 24.5985ZM93.539 24.5985L92.9978 24.5525L92.9477 25.1418H93.539V24.5985ZM107.704 32.5275L107.989 32.9901L107.99 32.9893L107.704 32.5275ZM96.6126 40.4564L96.1801 40.1277L95.5175 40.9997H96.6126V40.4564ZM111.895 40.3419L110.915 44.8855L111.977 45.1145L112.957 40.571L111.895 40.3419ZM111.446 44.4568H89.7973V45.5432H111.446V44.4568ZM90.3341 45.0833C91.1058 40.11 94.1467 36.3593 98.4533 33.7493L97.8901 32.8202C93.3768 35.5555 90.0924 39.5557 89.2605 44.9167L90.3341 45.0833ZM98.4564 33.7474C100.777 32.3193 103.265 30.7642 105.8 29.2523L105.243 28.3192C102.7 29.8363 100.199 31.3993 97.887 32.8221L98.4564 33.7474ZM105.802 29.2508C107.127 28.4515 108.29 27.5351 109.12 26.3325C109.957 25.1199 110.43 23.6515 110.43 21.7922H109.344C109.344 23.452 108.926 24.7008 108.226 25.7155C107.519 26.7401 106.5 27.5609 105.241 28.3206L105.802 29.2508ZM110.43 21.7922C110.43 20.1758 109.751 18.9269 108.684 18.0954C107.633 17.2756 106.238 16.8836 104.809 16.8836V17.9701C106.053 17.9701 107.197 18.3131 108.016 18.9521C108.821 19.5795 109.344 20.5133 109.344 21.7922H110.43ZM104.809 16.8836C102.669 16.8836 100.968 17.7322 99.7778 19.1422C98.5987 20.539 97.947 22.4526 97.8078 24.5628L98.8919 24.6343C99.0201 22.6909 99.6156 21.0187 100.608 19.843C101.589 18.6805 102.985 17.9701 104.809 17.9701V16.8836ZM98.3499 24.0553H93.539V25.1418H98.3499V24.0553ZM94.0803 24.6445C94.3622 21.3273 95.4629 18.6076 97.3123 16.7214C99.1547 14.8423 101.791 13.7383 105.254 13.7383V12.6519C101.546 12.6519 98.6141 13.8419 96.5366 15.9607C94.4661 18.0724 93.295 21.0545 92.9978 24.5525L94.0803 24.6445ZM105.254 13.7383C107.887 13.7383 110.18 14.408 111.804 15.7369C113.411 17.0529 114.422 19.0624 114.422 21.8813H115.508C115.508 18.7758 114.381 16.4421 112.492 14.8962C110.619 13.3631 108.056 12.6519 105.254 12.6519V13.7383ZM114.422 21.8813C114.422 26.7554 111.473 29.5536 107.418 32.0657L107.99 32.9893C112.132 30.4232 115.508 27.3415 115.508 21.8813H114.422ZM107.42 32.0648C106.414 32.6839 105.38 33.278 104.345 33.8792C103.314 34.4786 102.282 35.084 101.297 35.7176C99.3291 36.9825 97.5069 38.382 96.1801 40.1277L97.0451 40.7851C98.2574 39.19 99.9542 37.8723 101.884 36.6315C102.847 36.0124 103.86 35.4178 104.891 34.8187C105.919 34.2213 106.968 33.6183 107.989 32.9901L107.42 32.0648ZM96.6126 40.9997H112.426V39.9132H96.6126V40.9997ZM134.425 23.6631C134.425 21.9975 134.166 20.3177 133.368 19.0382C132.545 17.7167 131.184 16.8836 129.16 16.8836V17.9701C130.833 17.9701 131.833 18.6293 132.446 19.6129C133.085 20.6386 133.338 22.0769 133.338 23.6631H134.425ZM129.16 16.8836C127.345 16.8836 125.855 17.7818 124.664 19.1294C123.479 20.4698 122.561 22.2847 121.861 24.2189C120.462 28.0876 119.886 32.5831 119.886 35.1556H120.972C120.972 32.6946 121.532 28.3257 122.883 24.5884C123.559 22.7196 124.42 21.0461 125.478 19.8488C126.529 18.6588 127.745 17.9701 129.16 17.9701V16.8836ZM119.886 35.1556C119.886 36.8212 120.145 38.501 120.942 39.7805C121.766 41.1021 123.127 41.9351 125.151 41.9351V40.8487C123.478 40.8487 122.477 40.1894 121.865 39.2059C121.225 38.1801 120.972 36.7418 120.972 35.1556H119.886ZM125.151 41.9351C126.966 41.9351 128.456 41.0369 129.647 39.6893C130.831 38.349 131.75 36.5341 132.449 34.5998C133.848 30.7311 134.425 26.2356 134.425 23.6631H133.338C133.338 26.1241 132.779 30.493 131.427 34.2303C130.752 36.0991 129.891 37.7726 128.833 38.9699C127.781 40.1599 126.566 40.8487 125.151 40.8487V41.9351ZM115.894 33.6857C115.894 33.0984 116.102 28.0488 117.974 23.1671C119.847 18.2832 123.304 13.7383 129.739 13.7383V12.6519C122.632 12.6519 118.896 17.7286 116.96 22.7782C115.023 27.83 114.808 33.0256 114.808 33.6857H115.894ZM129.739 13.7383C132.928 13.7383 135.049 14.7677 136.399 16.6268C137.774 18.5214 138.416 21.3672 138.416 25.1331H139.503C139.503 21.2818 138.853 18.1586 137.278 15.9885C135.676 13.7829 133.187 12.6519 129.739 12.6519V13.7383ZM138.416 25.1331C138.416 27.038 137.901 32.0814 135.88 36.6276C133.86 41.169 130.409 45.0804 124.572 45.0804V46.1669C131.029 46.1669 134.772 41.793 136.872 37.0691C138.971 32.35 139.503 27.148 139.503 25.1331H138.416ZM124.572 45.0804C121.404 45.0804 119.277 43.933 117.917 41.9982C116.534 40.0303 115.894 37.1763 115.894 33.6857H114.808C114.808 37.2776 115.46 40.3926 117.028 42.623C118.619 44.8866 121.102 46.1669 124.572 46.1669V45.0804Z" fill="#B4B4B4"/>
<path d="M90.3835 62.18C90.3755 62.62 90.4435 62.988 90.5875 63.284C90.7315 63.58 90.9275 63.816 91.1755 63.992C91.4315 64.168 91.7315 64.296 92.0755 64.376C92.4195 64.448 92.7875 64.484 93.1795 64.484C93.4035 64.484 93.6475 64.452 93.9115 64.388C94.1755 64.324 94.4195 64.224 94.6435 64.088C94.8755 63.944 95.0675 63.764 95.2195 63.548C95.3715 63.324 95.4475 63.056 95.4475 62.744C95.4475 62.504 95.3915 62.296 95.2795 62.12C95.1755 61.944 95.0355 61.796 94.8595 61.676C94.6915 61.556 94.5035 61.46 94.2955 61.388C94.0875 61.308 93.8835 61.244 93.6835 61.196L91.7755 60.728C91.5275 60.664 91.2835 60.584 91.0435 60.488C90.8115 60.392 90.6075 60.264 90.4315 60.104C90.2555 59.944 90.1115 59.748 89.9995 59.516C89.8955 59.284 89.8435 59 89.8435 58.664C89.8435 58.456 89.8835 58.212 89.9635 57.932C90.0435 57.652 90.1915 57.388 90.4075 57.14C90.6315 56.892 90.9355 56.684 91.3195 56.516C91.7035 56.34 92.1955 56.252 92.7955 56.252C93.2195 56.252 93.6235 56.308 94.0075 56.42C94.3915 56.532 94.7275 56.7 95.0155 56.924C95.3035 57.148 95.5315 57.428 95.6995 57.764C95.8755 58.092 95.9635 58.476 95.9635 58.916H95.1475C95.1315 58.588 95.0555 58.304 94.9195 58.064C94.7915 57.816 94.6195 57.612 94.4035 57.452C94.1955 57.284 93.9515 57.16 93.6715 57.08C93.3995 56.992 93.1115 56.948 92.8075 56.948C92.5275 56.948 92.2555 56.98 91.9915 57.044C91.7355 57.1 91.5075 57.196 91.3075 57.332C91.1155 57.46 90.9595 57.632 90.8395 57.848C90.7195 58.064 90.6595 58.332 90.6595 58.652C90.6595 58.852 90.6915 59.028 90.7555 59.18C90.8275 59.324 90.9235 59.448 91.0435 59.552C91.1635 59.656 91.2995 59.74 91.4515 59.804C91.6115 59.868 91.7795 59.92 91.9555 59.96L94.0435 60.476C94.3475 60.556 94.6315 60.656 94.8955 60.776C95.1675 60.888 95.4035 61.032 95.6035 61.208C95.8115 61.376 95.9715 61.584 96.0835 61.832C96.2035 62.08 96.2635 62.38 96.2635 62.732C96.2635 62.828 96.2515 62.956 96.2275 63.116C96.2115 63.276 96.1635 63.448 96.0835 63.632C96.0115 63.808 95.9035 63.988 95.7595 64.172C95.6235 64.356 95.4315 64.524 95.1835 64.676C94.9435 64.82 94.6435 64.936 94.2835 65.024C93.9235 65.12 93.4915 65.168 92.9875 65.168C92.4835 65.168 92.0155 65.112 91.5835 65C91.1515 64.88 90.7835 64.7 90.4795 64.46C90.1755 64.22 89.9395 63.912 89.7715 63.536C89.6115 63.16 89.5435 62.708 89.5675 62.18H90.3835ZM98.7581 56.432H104.674V57.128H99.5741V60.224H104.35V60.92H99.5741V64.304H104.734V65H98.7581V56.432ZM107.887 60.632H110.695C111.263 60.632 111.723 60.488 112.075 60.2C112.427 59.912 112.603 59.472 112.603 58.88C112.603 58.288 112.427 57.848 112.075 57.56C111.723 57.272 111.263 57.128 110.695 57.128H107.887V60.632ZM107.071 56.432H110.875C111.259 56.432 111.607 56.488 111.919 56.6C112.231 56.704 112.499 56.864 112.723 57.08C112.947 57.288 113.119 57.544 113.239 57.848C113.359 58.152 113.419 58.496 113.419 58.88C113.419 59.264 113.359 59.608 113.239 59.912C113.119 60.216 112.947 60.476 112.723 60.692C112.499 60.9 112.231 61.06 111.919 61.172C111.607 61.276 111.259 61.328 110.875 61.328H107.887V65H107.071V56.432ZM114.918 56.432H121.698V57.128H118.71V65H117.894V57.128H114.918V56.432ZM123.698 56.432H129.614V57.128H124.514V60.224H129.29V60.92H124.514V64.304H129.674V65H123.698V56.432ZM131.987 56.432H133.187L136.151 63.944L139.103 56.432H140.303V65H139.487V57.596H139.463L136.535 65H135.767L132.827 57.596H132.803V65H131.987V56.432ZM144.023 60.188H146.831C147.159 60.188 147.443 60.152 147.683 60.08C147.923 60 148.123 59.896 148.283 59.768C148.443 59.632 148.563 59.476 148.643 59.3C148.723 59.124 148.763 58.936 148.763 58.736C148.763 57.664 148.119 57.128 146.831 57.128H144.023V60.188ZM143.207 56.432H146.831C147.191 56.432 147.535 56.468 147.863 56.54C148.199 56.604 148.491 56.72 148.739 56.888C148.995 57.048 149.199 57.264 149.351 57.536C149.503 57.8 149.579 58.132 149.579 58.532C149.579 58.756 149.543 58.976 149.471 59.192C149.399 59.4 149.295 59.592 149.159 59.768C149.031 59.936 148.875 60.08 148.691 60.2C148.515 60.32 148.315 60.404 148.091 60.452V60.476C148.643 60.548 149.083 60.776 149.411 61.16C149.739 61.536 149.903 62.004 149.903 62.564C149.903 62.7 149.891 62.856 149.867 63.032C149.843 63.2 149.795 63.376 149.723 63.56C149.651 63.736 149.547 63.912 149.411 64.088C149.275 64.264 149.091 64.42 148.859 64.556C148.635 64.684 148.355 64.792 148.019 64.88C147.691 64.96 147.295 65 146.831 65H143.207V56.432ZM144.023 64.304H146.831C147.135 64.304 147.423 64.28 147.695 64.232C147.967 64.176 148.207 64.08 148.415 63.944C148.623 63.808 148.787 63.628 148.907 63.404C149.027 63.172 149.087 62.884 149.087 62.54C149.087 61.988 148.891 61.576 148.499 61.304C148.115 61.024 147.559 60.884 146.831 60.884H144.023V64.304ZM152.411 56.432H158.327V57.128H153.227V60.224H158.003V60.92H153.227V64.304H158.387V65H152.411V56.432ZM161.541 60.5H164.589C164.837 60.5 165.073 60.464 165.297 60.392C165.521 60.312 165.717 60.2 165.885 60.056C166.053 59.912 166.185 59.74 166.281 59.54C166.385 59.332 166.437 59.096 166.437 58.832C166.437 58.304 166.285 57.888 165.981 57.584C165.677 57.28 165.213 57.128 164.589 57.128H161.541V60.5ZM160.725 56.432H164.649C165.001 56.432 165.333 56.476 165.645 56.564C165.965 56.652 166.241 56.788 166.473 56.972C166.713 57.148 166.901 57.38 167.037 57.668C167.181 57.948 167.253 58.28 167.253 58.664C167.253 59.208 167.113 59.68 166.833 60.08C166.553 60.48 166.137 60.736 165.585 60.848V60.872C165.865 60.912 166.097 60.988 166.281 61.1C166.465 61.204 166.613 61.34 166.725 61.508C166.845 61.676 166.929 61.872 166.977 62.096C167.033 62.312 167.069 62.548 167.085 62.804C167.093 62.948 167.101 63.124 167.109 63.332C167.117 63.54 167.133 63.752 167.157 63.968C167.181 64.176 167.217 64.376 167.265 64.568C167.321 64.752 167.393 64.896 167.481 65H166.581C166.533 64.92 166.493 64.824 166.461 64.712C166.437 64.592 166.417 64.472 166.401 64.352C166.393 64.224 166.385 64.1 166.377 63.98C166.369 63.86 166.361 63.756 166.353 63.668C166.337 63.364 166.309 63.064 166.269 62.768C166.237 62.464 166.161 62.196 166.041 61.964C165.929 61.724 165.761 61.532 165.537 61.388C165.321 61.244 165.021 61.18 164.637 61.196H161.541V65H160.725V56.432Z" fill="white"/>
<path d="M90.3835 62.18L90.5341 62.1827L90.5369 62.0294H90.3835V62.18ZM90.5875 63.284L90.4521 63.3499L90.4521 63.3499L90.5875 63.284ZM91.1755 63.992L91.0884 64.1148L91.0902 64.1161L91.1755 63.992ZM92.0755 64.376L92.0414 64.5227L92.0447 64.5234L92.0755 64.376ZM93.9115 64.388L93.947 64.5344L93.947 64.5344L93.9115 64.388ZM94.6435 64.088L94.7217 64.2167L94.723 64.216L94.6435 64.088ZM95.2195 63.548L95.3427 63.6347L95.3442 63.6326L95.2195 63.548ZM95.2795 62.12L95.1498 62.1967L95.1525 62.2009L95.2795 62.12ZM94.8595 61.676L94.772 61.7986L94.7747 61.8004L94.8595 61.676ZM94.2955 61.388L94.2415 61.5286L94.2463 61.5303L94.2955 61.388ZM93.6835 61.196L93.6477 61.3423L93.6484 61.3424L93.6835 61.196ZM91.7755 60.728L91.7379 60.8738L91.7397 60.8743L91.7755 60.728ZM91.0435 60.488L90.986 60.6272L90.9876 60.6278L91.0435 60.488ZM90.4315 60.104L90.3302 60.2154L90.3302 60.2154L90.4315 60.104ZM89.9995 59.516L89.8621 59.5776L89.8639 59.5815L89.9995 59.516ZM89.9635 57.932L89.8187 57.8906L89.8187 57.8906L89.9635 57.932ZM90.4075 57.14L90.2958 57.039L90.294 57.0411L90.4075 57.14ZM91.3195 56.516L91.3799 56.654L91.3823 56.6529L91.3195 56.516ZM95.0155 56.924L94.9231 57.0429L94.9231 57.0429L95.0155 56.924ZM95.6995 57.764L95.5648 57.8314L95.5668 57.8352L95.6995 57.764ZM95.9635 58.916V59.0666H96.1141V58.916H95.9635ZM95.1475 58.916L94.9971 58.9233L95.0041 59.0666H95.1475V58.916ZM94.9195 58.064L94.7856 58.1331L94.7885 58.1382L94.9195 58.064ZM94.4035 57.452L94.3088 57.5693L94.3139 57.573L94.4035 57.452ZM93.6715 57.08L93.6252 57.2234L93.6302 57.2248L93.6715 57.08ZM91.9915 57.044L92.0237 57.1912L92.027 57.1904L91.9915 57.044ZM91.3075 57.332L91.3911 57.4573L91.3922 57.4565L91.3075 57.332ZM90.7555 59.18L90.6165 59.2386L90.6209 59.2473L90.7555 59.18ZM91.0435 59.552L91.1422 59.4382L91.1422 59.4382L91.0435 59.552ZM91.4515 59.804L91.3931 59.9428L91.3956 59.9438L91.4515 59.804ZM91.9555 59.96L91.9917 59.8138L91.9889 59.8131L91.9555 59.96ZM94.0435 60.476L94.0819 60.3303L94.0797 60.3298L94.0435 60.476ZM94.8955 60.776L94.8332 60.9132L94.8382 60.9153L94.8955 60.776ZM95.6035 61.208L95.504 61.3212L95.5089 61.3252L95.6035 61.208ZM96.0835 61.832L95.9463 61.894L95.948 61.8976L96.0835 61.832ZM96.2275 63.116L96.0784 63.0936L96.0777 63.101L96.2275 63.116ZM96.0835 63.632L95.9454 63.5719L95.9442 63.575L96.0835 63.632ZM95.7595 64.172L95.6409 64.0792L95.6384 64.0825L95.7595 64.172ZM95.1835 64.676L95.261 64.8051L95.2622 64.8044L95.1835 64.676ZM94.2835 65.024L94.2478 64.8777L94.2447 64.8785L94.2835 65.024ZM91.5835 65L91.5432 65.1451L91.5458 65.1458L91.5835 65ZM89.7715 63.536L89.633 63.595L89.6341 63.5974L89.7715 63.536ZM89.5675 62.18V62.0294H89.4236L89.4171 62.1732L89.5675 62.18ZM90.233 62.1773C90.2247 62.6334 90.2948 63.0266 90.4521 63.3499L90.723 63.2181C90.5923 62.9494 90.5264 62.6066 90.5341 62.1827L90.233 62.1773ZM90.4521 63.3499C90.6062 63.6667 90.8181 63.923 91.0884 64.1148L91.2627 63.8692C91.037 63.709 90.8568 63.4933 90.723 63.2181L90.4521 63.3499ZM91.0902 64.1161C91.3637 64.3041 91.6816 64.439 92.0414 64.5227L92.1097 64.2293C91.7815 64.153 91.4994 64.0319 91.2609 63.8679L91.0902 64.1161ZM92.0447 64.5234C92.3999 64.5978 92.7784 64.6346 93.1795 64.6346V64.3334C92.7967 64.3334 92.4392 64.2982 92.1064 64.2286L92.0447 64.5234ZM93.1795 64.6346C93.4177 64.6346 93.6738 64.6006 93.947 64.5344L93.8761 64.2416C93.6213 64.3034 93.3894 64.3334 93.1795 64.3334V64.6346ZM93.947 64.5344C94.2255 64.4668 94.484 64.3611 94.7217 64.2167L94.5654 63.9593C94.3551 64.0869 94.1256 64.1812 93.8761 64.2416L93.947 64.5344ZM94.723 64.216C94.9716 64.0616 95.1787 63.8678 95.3427 63.6347L95.0964 63.4613C94.9564 63.6602 94.7795 63.8264 94.5641 63.96L94.723 64.216ZM95.3442 63.6326C95.5156 63.38 95.5981 63.0814 95.5981 62.744H95.297C95.297 63.0306 95.2275 63.268 95.0949 63.4634L95.3442 63.6326ZM95.5981 62.744C95.5981 62.4798 95.5362 62.2428 95.4066 62.0391L95.1525 62.2009C95.2469 62.3492 95.297 62.5282 95.297 62.744H95.5981ZM95.4092 62.0434C95.2935 61.8475 95.1379 61.6835 94.9444 61.5516L94.7747 61.8004C94.9332 61.9085 95.0576 62.0404 95.1499 62.1966L95.4092 62.0434ZM94.9471 61.5535C94.7666 61.4245 94.5655 61.3221 94.3448 61.2457L94.2463 61.5303C94.4415 61.5979 94.6165 61.6875 94.772 61.7985L94.9471 61.5535ZM94.3496 61.2474C94.1359 61.1653 93.9256 61.0992 93.7187 61.0496L93.6484 61.3424C93.8415 61.3888 94.0392 61.4507 94.2415 61.5286L94.3496 61.2474ZM93.7194 61.0497L91.8114 60.5817L91.7397 60.8743L93.6477 61.3423L93.7194 61.0497ZM91.8132 60.5822C91.5715 60.5198 91.3336 60.4418 91.0995 60.3482L90.9876 60.6278C91.2335 60.7262 91.4836 60.8082 91.7379 60.8738L91.8132 60.5822ZM91.1011 60.3488C90.8843 60.2591 90.6953 60.1402 90.5328 59.9926L90.3302 60.2154C90.5198 60.3878 90.7388 60.5249 90.986 60.6272L91.1011 60.3488ZM90.5328 59.9926C90.3723 59.8466 90.2395 59.6666 90.1352 59.4505L89.8639 59.5815C89.9836 59.8294 90.1388 60.0414 90.3302 60.2154L90.5328 59.9926ZM90.137 59.4544C90.044 59.2469 89.9941 58.9853 89.9941 58.664H89.693C89.693 59.0147 89.7471 59.3211 89.8621 59.5776L90.137 59.4544ZM89.9941 58.664C89.9941 58.4743 90.0308 58.2448 90.1083 57.9734L89.8187 57.8906C89.7363 58.1792 89.693 58.4377 89.693 58.664H89.9941ZM90.1083 57.9734C90.1815 57.7172 90.3177 57.4724 90.5211 57.2389L90.294 57.0411C90.0654 57.3036 89.9056 57.5868 89.8187 57.8906L90.1083 57.9734ZM90.5193 57.2409C90.7258 57.0123 91.0107 56.8155 91.3799 56.654L91.2592 56.378C90.8604 56.5525 90.5373 56.7717 90.2958 57.0391L90.5193 57.2409ZM91.3823 56.6529C91.7401 56.4889 92.2087 56.4026 92.7955 56.4026V56.1014C92.1824 56.1014 91.667 56.1911 91.2568 56.3791L91.3823 56.6529ZM92.7955 56.4026C93.2061 56.4026 93.5959 56.4568 93.9654 56.5646L94.0497 56.2754C93.6512 56.1592 93.233 56.1014 92.7955 56.1014V56.4026ZM93.9654 56.5646C94.3329 56.6718 94.6515 56.8316 94.9231 57.0429L95.108 56.8051C94.8036 56.5684 94.4502 56.3922 94.0497 56.2754L93.9654 56.5646ZM94.9231 57.0429C95.1928 57.2527 95.4066 57.5148 95.5649 57.8313L95.8342 57.6967C95.6565 57.3412 95.4143 57.0433 95.108 56.8051L94.9231 57.0429ZM95.5668 57.8352C95.7291 58.1376 95.813 58.4963 95.813 58.916H96.1141C96.1141 58.4557 96.022 58.0464 95.8322 57.6928L95.5668 57.8352ZM95.9635 58.7654H95.1475V59.0666H95.9635V58.7654ZM95.298 58.9087C95.281 58.5616 95.2002 58.2538 95.0506 57.9898L94.7885 58.1382C94.9109 58.3542 94.9821 58.6144 94.9971 58.9233L95.298 58.9087ZM95.0534 57.9949C94.9152 57.7273 94.7284 57.5052 94.4932 57.331L94.3139 57.573C94.5107 57.7188 94.6679 57.9047 94.7857 58.1331L95.0534 57.9949ZM94.4982 57.3348C94.2731 57.1531 94.0106 57.0203 93.7129 56.9352L93.6302 57.2248C93.8925 57.2997 94.118 57.4149 94.3089 57.5692L94.4982 57.3348ZM93.7179 56.9367C93.43 56.8436 93.1263 56.7974 92.8075 56.7974V57.0986C93.0968 57.0986 93.3691 57.1404 93.6252 57.2233L93.7179 56.9367ZM92.8075 56.7974C92.516 56.7974 92.232 56.8307 91.9561 56.8976L92.027 57.1904C92.2791 57.1293 92.5391 57.0986 92.8075 57.0986V56.7974ZM91.9594 56.8969C91.6862 56.9566 91.44 57.0598 91.2229 57.2075L91.3922 57.4565C91.575 57.3322 91.7849 57.2434 92.0237 57.1911L91.9594 56.8969ZM91.224 57.2067C91.0106 57.3489 90.8387 57.5394 90.7079 57.7749L90.9712 57.9211C91.0804 57.7246 91.2204 57.5711 91.3911 57.4573L91.224 57.2067ZM90.7079 57.7749C90.5723 58.0189 90.509 58.3138 90.509 58.652H90.8101C90.8101 58.3502 90.8668 58.1091 90.9712 57.9211L90.7079 57.7749ZM90.509 58.652C90.509 58.8679 90.5435 59.0645 90.6168 59.2384L90.8943 59.1216C90.8396 58.9915 90.8101 58.8361 90.8101 58.652H90.509ZM90.6209 59.2473C90.7016 59.4088 90.8097 59.5487 90.9449 59.6658L91.1422 59.4382C91.0373 59.3473 90.9535 59.2392 90.8902 59.1127L90.6209 59.2473ZM90.9449 59.6658C91.0774 59.7806 91.227 59.8729 91.3931 59.9428L91.51 59.6652C91.372 59.6071 91.2497 59.5314 91.1422 59.4382L90.9449 59.6658ZM91.3956 59.9438C91.5633 60.0109 91.7388 60.0652 91.9222 60.1068L91.9889 59.8131C91.8203 59.7748 91.6598 59.7251 91.5075 59.6642L91.3956 59.9438ZM91.9194 60.1062L94.0074 60.6222L94.0797 60.3298L91.9917 59.8138L91.9194 60.1062ZM94.0052 60.6216C94.3017 60.6997 94.5776 60.7969 94.8332 60.9131L94.9579 60.6389C94.6855 60.5151 94.3934 60.4123 94.0819 60.3304L94.0052 60.6216ZM94.8382 60.9153C95.0964 61.0216 95.3178 61.1571 95.5041 61.3211L95.703 61.0949C95.4893 60.9069 95.2387 60.7544 94.9529 60.6367L94.8382 60.9153ZM95.5089 61.3252C95.6983 61.4781 95.8438 61.6671 95.9463 61.894L96.2208 61.77C96.0993 61.5009 95.9248 61.2739 95.6982 61.0908L95.5089 61.3252ZM95.948 61.8976C96.0557 62.1203 96.113 62.3966 96.113 62.732H96.4141C96.4141 62.3634 96.3514 62.0397 96.2191 61.7664L95.948 61.8976ZM96.113 62.732C96.113 62.8172 96.1022 62.9368 96.0786 63.0937L96.3765 63.1383C96.4009 62.9752 96.4141 62.8388 96.4141 62.732H96.113ZM96.0777 63.101C96.0636 63.2422 96.0207 63.3989 95.9454 63.572L96.2217 63.692C96.3064 63.4971 96.3595 63.3098 96.3774 63.131L96.0777 63.101ZM95.9442 63.575C95.8785 63.7356 95.7783 63.9037 95.641 64.0792L95.8781 64.2648C96.0288 64.0723 96.1446 63.8804 96.2229 63.689L95.9442 63.575ZM95.6384 64.0825C95.5166 64.2473 95.3406 64.4031 95.1049 64.5476L95.2622 64.8044C95.5225 64.6449 95.7305 64.4647 95.8807 64.2615L95.6384 64.0825ZM95.1061 64.5469C94.8825 64.681 94.5976 64.7922 94.2478 64.8777L94.3193 65.1703C94.6895 65.0798 95.0046 64.959 95.261 64.8051L95.1061 64.5469ZM94.2447 64.8785C93.901 64.9702 93.4827 65.0174 92.9875 65.0174V65.3186C93.5004 65.3186 93.9461 65.2698 94.3224 65.1695L94.2447 64.8785ZM92.9875 65.0174C92.4947 65.0174 92.0395 64.9626 91.6213 64.8542L91.5458 65.1458C91.9916 65.2614 92.4724 65.3186 92.9875 65.3186V65.0174ZM91.6239 64.8549C91.2081 64.7394 90.8589 64.5676 90.5729 64.3418L90.3862 64.5782C90.7082 64.8324 91.095 65.0206 91.5432 65.1451L91.6239 64.8549ZM90.5729 64.3418C90.2892 64.1178 90.0678 63.8298 89.909 63.4746L89.6341 63.5974C89.8113 63.9942 90.0619 64.3222 90.3862 64.5782L90.5729 64.3418ZM89.9101 63.477C89.7612 63.127 89.6947 62.6987 89.718 62.1868L89.4171 62.1732C89.3924 62.7173 89.4619 63.193 89.633 63.595L89.9101 63.477ZM89.5675 62.3306H90.3835V62.0294H89.5675V62.3306ZM98.7581 56.432V56.2814H98.6075V56.432H98.7581ZM104.674 56.432H104.825V56.2814H104.674V56.432ZM104.674 57.128V57.2786H104.825V57.128H104.674ZM99.5741 57.128V56.9774H99.4235V57.128H99.5741ZM99.5741 60.224H99.4235V60.3746H99.5741V60.224ZM104.35 60.224H104.501V60.0734H104.35V60.224ZM104.35 60.92V61.0706H104.501V60.92H104.35ZM99.5741 60.92V60.7694H99.4235V60.92H99.5741ZM99.5741 64.304H99.4235V64.4546H99.5741V64.304ZM104.734 64.304H104.885V64.1534H104.734V64.304ZM104.734 65V65.1506H104.885V65H104.734ZM98.7581 65H98.6075V65.1506H98.7581V65ZM98.7581 56.5826H104.674V56.2814H98.7581V56.5826ZM104.524 56.432V57.128H104.825V56.432H104.524ZM104.674 56.9774H99.5741V57.2786H104.674V56.9774ZM99.4235 57.128V60.224H99.7247V57.128H99.4235ZM99.5741 60.3746H104.35V60.0734H99.5741V60.3746ZM104.2 60.224V60.92H104.501V60.224H104.2ZM104.35 60.7694H99.5741V61.0706H104.35V60.7694ZM99.4235 60.92V64.304H99.7247V60.92H99.4235ZM99.5741 64.4546H104.734V64.1534H99.5741V64.4546ZM104.584 64.304V65H104.885V64.304H104.584ZM104.734 64.8494H98.7581V65.1506H104.734V64.8494ZM98.9087 65V56.432H98.6075V65H98.9087ZM107.887 60.632H107.737V60.7826H107.887V60.632ZM112.075 60.2L112.171 60.3166L112.171 60.3166L112.075 60.2ZM112.075 57.56L111.98 57.6766L111.98 57.6766L112.075 57.56ZM107.887 57.128V56.9774H107.737V57.128H107.887ZM107.071 56.432V56.2814H106.921V56.432H107.071ZM111.919 56.6L111.869 56.7418L111.872 56.7429L111.919 56.6ZM112.723 57.08L112.619 57.1884L112.621 57.1904L112.723 57.08ZM113.239 59.912L113.099 59.8567L113.099 59.8567L113.239 59.912ZM112.723 60.692L112.826 60.8024L112.828 60.8004L112.723 60.692ZM111.919 61.172L111.967 61.3149L111.97 61.3137L111.919 61.172ZM107.887 61.328V61.1774H107.737V61.328H107.887ZM107.887 65V65.1506H108.038V65H107.887ZM107.071 65H106.921V65.1506H107.071V65ZM107.887 60.7826H110.695V60.4814H107.887V60.7826ZM110.695 60.7826C111.289 60.7826 111.786 60.6316 112.171 60.3166L111.98 60.0834C111.661 60.3444 111.238 60.4814 110.695 60.4814V60.7826ZM112.171 60.3166C112.568 59.9918 112.754 59.5025 112.754 58.88H112.453C112.453 59.4415 112.287 59.8322 111.98 60.0834L112.171 60.3166ZM112.754 58.88C112.754 58.2575 112.568 57.7682 112.171 57.4434L111.98 57.6766C112.287 57.9278 112.453 58.3185 112.453 58.88H112.754ZM112.171 57.4434C111.786 57.1284 111.289 56.9774 110.695 56.9774V57.2786C111.238 57.2786 111.661 57.4156 111.98 57.6766L112.171 57.4434ZM110.695 56.9774H107.887V57.2786H110.695V56.9774ZM107.737 57.128V60.632H108.038V57.128H107.737ZM107.071 56.5826H110.875V56.2814H107.071V56.5826ZM110.875 56.5826C111.245 56.5826 111.575 56.6364 111.869 56.7417L111.97 56.4583C111.64 56.3396 111.274 56.2814 110.875 56.2814V56.5826ZM111.872 56.7429C112.164 56.8402 112.412 56.9889 112.619 57.1884L112.828 56.9716C112.587 56.7391 112.299 56.5678 111.967 56.4571L111.872 56.7429ZM112.621 57.1904C112.827 57.382 112.987 57.6187 113.099 57.9033L113.379 57.7927C113.252 57.4693 113.068 57.194 112.826 56.9696L112.621 57.1904ZM113.099 57.9033C113.211 58.1869 113.269 58.5117 113.269 58.88H113.57C113.57 58.4803 113.508 58.1171 113.379 57.7927L113.099 57.9033ZM113.269 58.88C113.269 59.2483 113.211 59.5731 113.099 59.8567L113.379 59.9673C113.508 59.6429 113.57 59.2797 113.57 58.88H113.269ZM113.099 59.8567C112.987 60.1417 112.827 60.3833 112.619 60.5836L112.828 60.8004C113.068 60.5687 113.252 60.2903 113.379 59.9673L113.099 59.8567ZM112.621 60.5816C112.413 60.7747 112.163 60.9245 111.869 61.0303L111.97 61.3137C112.3 61.1955 112.586 61.0253 112.826 60.8024L112.621 60.5816ZM111.872 61.0291C111.577 61.1272 111.246 61.1774 110.875 61.1774V61.4786C111.273 61.4786 111.637 61.4248 111.967 61.3149L111.872 61.0291ZM110.875 61.1774H107.887V61.4786H110.875V61.1774ZM107.737 61.328V65H108.038V61.328H107.737ZM107.887 64.8494H107.071V65.1506H107.887V64.8494ZM107.222 65V56.432H106.921V65H107.222ZM114.918 56.432V56.2814H114.767V56.432H114.918ZM121.698 56.432H121.849V56.2814H121.698V56.432ZM121.698 57.128V57.2786H121.849V57.128H121.698ZM118.71 57.128V56.9774H118.559V57.128H118.71ZM118.71 65V65.1506H118.861V65H118.71ZM117.894 65H117.743V65.1506H117.894V65ZM117.894 57.128H118.045V56.9774H117.894V57.128ZM114.918 57.128H114.767V57.2786H114.918V57.128ZM114.918 56.5826H121.698V56.2814H114.918V56.5826ZM121.547 56.432V57.128H121.849V56.432H121.547ZM121.698 56.9774H118.71V57.2786H121.698V56.9774ZM118.559 57.128V65H118.861V57.128H118.559ZM118.71 64.8494H117.894V65.1506H118.71V64.8494ZM118.045 65V57.128H117.743V65H118.045ZM117.894 56.9774H114.918V57.2786H117.894V56.9774ZM115.069 57.128V56.432H114.767V57.128H115.069ZM123.698 56.432V56.2814H123.547V56.432H123.698ZM129.614 56.432H129.765V56.2814H129.614V56.432ZM129.614 57.128V57.2786H129.765V57.128H129.614ZM124.514 57.128V56.9774H124.363V57.128H124.514ZM124.514 60.224H124.363V60.3746H124.514V60.224ZM129.29 60.224H129.441V60.0734H129.29V60.224ZM129.29 60.92V61.0706H129.441V60.92H129.29ZM124.514 60.92V60.7694H124.363V60.92H124.514ZM124.514 64.304H124.363V64.4546H124.514V64.304ZM129.674 64.304H129.825V64.1534H129.674V64.304ZM129.674 65V65.1506H129.825V65H129.674ZM123.698 65H123.547V65.1506H123.698V65ZM123.698 56.5826H129.614V56.2814H123.698V56.5826ZM129.463 56.432V57.128H129.765V56.432H129.463ZM129.614 56.9774H124.514V57.2786H129.614V56.9774ZM124.363 57.128V60.224H124.665V57.128H124.363ZM124.514 60.3746H129.29V60.0734H124.514V60.3746ZM129.139 60.224V60.92H129.441V60.224H129.139ZM129.29 60.7694H124.514V61.0706H129.29V60.7694ZM124.363 60.92V64.304H124.665V60.92H124.363ZM124.514 64.4546H129.674V64.1534H124.514V64.4546ZM129.523 64.304V65H129.825V64.304H129.523ZM129.674 64.8494H123.698V65.1506H129.674V64.8494ZM123.849 65V56.432H123.547V65H123.849ZM131.987 56.432V56.2814H131.837V56.432H131.987ZM133.187 56.432L133.327 56.3767L133.29 56.2814H133.187V56.432ZM136.151 63.944L136.011 63.9993L136.152 64.355L136.291 63.9991L136.151 63.944ZM139.103 56.432V56.2814H139.001L138.963 56.3769L139.103 56.432ZM140.303 56.432H140.454V56.2814H140.303V56.432ZM140.303 65V65.1506H140.454V65H140.303ZM139.487 65H139.337V65.1506H139.487V65ZM139.487 57.596H139.638V57.4454H139.487V57.596ZM139.463 57.596V57.4454H139.361L139.323 57.5406L139.463 57.596ZM136.535 65V65.1506H136.638L136.675 65.0554L136.535 65ZM135.767 65L135.627 65.0556L135.665 65.1506H135.767V65ZM132.827 57.596L132.967 57.5404L132.93 57.4454H132.827V57.596ZM132.803 57.596V57.4454H132.653V57.596H132.803ZM132.803 65V65.1506H132.954V65H132.803ZM131.987 65H131.837V65.1506H131.987V65ZM131.987 56.5826H133.187V56.2814H131.987V56.5826ZM133.047 56.4873L136.011 63.9993L136.291 63.8887L133.327 56.3767L133.047 56.4873ZM136.291 63.9991L139.243 56.4871L138.963 56.3769L136.011 63.8889L136.291 63.9991ZM139.103 56.5826H140.303V56.2814H139.103V56.5826ZM140.153 56.432V65H140.454V56.432H140.153ZM140.303 64.8494H139.487V65.1506H140.303V64.8494ZM139.638 65V57.596H139.337V65H139.638ZM139.487 57.4454H139.463V57.7466H139.487V57.4454ZM139.323 57.5406L136.395 64.9446L136.675 65.0554L139.603 57.6514L139.323 57.5406ZM136.535 64.8494H135.767V65.1506H136.535V64.8494ZM135.907 64.9444L132.967 57.5404L132.687 57.6516L135.627 65.0556L135.907 64.9444ZM132.827 57.4454H132.803V57.7466H132.827V57.4454ZM132.653 57.596V65H132.954V57.596H132.653ZM132.803 64.8494H131.987V65.1506H132.803V64.8494ZM132.138 65V56.432H131.837V65H132.138ZM144.023 60.188H143.873V60.3386H144.023V60.188ZM147.683 60.08L147.727 60.2243L147.731 60.2229L147.683 60.08ZM148.283 59.768L148.377 59.8856L148.381 59.8827L148.283 59.768ZM148.643 59.3L148.506 59.2377L148.506 59.2377L148.643 59.3ZM144.023 57.128V56.9774H143.873V57.128H144.023ZM143.207 56.432V56.2814H143.057V56.432H143.207ZM147.863 56.54L147.831 56.6871L147.835 56.6879L147.863 56.54ZM148.739 56.888L148.655 57.0128L148.66 57.0157L148.739 56.888ZM149.351 57.536L149.22 57.6095L149.221 57.6111L149.351 57.536ZM149.471 59.192L149.614 59.2413L149.614 59.2396L149.471 59.192ZM149.159 59.768L149.04 59.6759L149.04 59.6767L149.159 59.768ZM148.691 60.2L148.609 60.0738L148.607 60.0756L148.691 60.2ZM148.091 60.452L148.06 60.3047L147.941 60.3303V60.452H148.091ZM148.091 60.476H147.941V60.6082L148.072 60.6253L148.091 60.476ZM149.411 61.16L149.297 61.2578L149.298 61.259L149.411 61.16ZM149.867 63.032L150.016 63.0533L150.017 63.0523L149.867 63.032ZM149.723 63.56L149.863 63.617L149.864 63.6149L149.723 63.56ZM149.411 64.088L149.531 64.1801L149.531 64.1801L149.411 64.088ZM148.859 64.556L148.934 64.6868L148.936 64.6859L148.859 64.556ZM148.019 64.88L148.055 65.0263L148.058 65.0257L148.019 64.88ZM143.207 65H143.057V65.1506H143.207V65ZM144.023 64.304H143.873V64.4546H144.023V64.304ZM147.695 64.232L147.722 64.3804L147.726 64.3795L147.695 64.232ZM148.415 63.944L148.498 64.07L148.498 64.07L148.415 63.944ZM148.907 63.404L149.04 63.4751L149.041 63.4732L148.907 63.404ZM148.499 61.304L148.411 61.4257L148.414 61.4277L148.499 61.304ZM144.023 60.884V60.7334H143.873V60.884H144.023ZM144.023 60.3386H146.831V60.0374H144.023V60.3386ZM146.831 60.3386C147.17 60.3386 147.469 60.3015 147.727 60.2242L147.64 59.9358C147.418 60.0025 147.149 60.0374 146.831 60.0374V60.3386ZM147.731 60.2229C147.984 60.1385 148.201 60.027 148.377 59.8856L148.189 59.6504C148.046 59.765 147.863 59.8615 147.636 59.9371L147.731 60.2229ZM148.381 59.8827C148.556 59.7336 148.691 59.5602 148.78 59.3623L148.506 59.2377C148.436 59.3918 148.33 59.5304 148.186 59.6533L148.381 59.8827ZM148.78 59.3623C148.87 59.1661 148.914 58.9567 148.914 58.736H148.613C148.613 58.9153 148.577 59.0819 148.506 59.2377L148.78 59.3623ZM148.914 58.736C148.914 58.1688 148.742 57.7185 148.377 57.4143C148.016 57.1144 147.493 56.9774 146.831 56.9774V57.2786C147.458 57.2786 147.9 57.4096 148.184 57.6457C148.462 57.8775 148.613 58.2312 148.613 58.736H148.914ZM146.831 56.9774H144.023V57.2786H146.831V56.9774ZM143.873 57.128V60.188H144.174V57.128H143.873ZM143.207 56.5826H146.831V56.2814H143.207V56.5826ZM146.831 56.5826C147.181 56.5826 147.514 56.6176 147.831 56.6871L147.896 56.3929C147.556 56.3184 147.201 56.2814 146.831 56.2814V56.5826ZM147.835 56.6879C148.154 56.7486 148.426 56.8577 148.655 57.0127L148.824 56.7633C148.557 56.5823 148.245 56.4594 147.892 56.3921L147.835 56.6879ZM148.66 57.0157C148.893 57.1618 149.08 57.3589 149.22 57.6095L149.483 57.4625C149.319 57.1691 149.097 56.9342 148.819 56.7603L148.66 57.0157ZM149.221 57.6111C149.356 57.8462 149.429 58.1504 149.429 58.532H149.73C149.73 58.1136 149.651 57.7538 149.482 57.4609L149.221 57.6111ZM149.429 58.532C149.429 58.7395 149.395 58.9435 149.328 59.1444L149.614 59.2396C149.691 59.0085 149.73 58.7725 149.73 58.532H149.429ZM149.329 59.1427C149.262 59.3351 149.166 59.5127 149.04 59.6759L149.279 59.8601C149.424 59.6713 149.536 59.4649 149.614 59.2413L149.329 59.1427ZM149.04 59.6767C148.922 59.8305 148.779 59.9629 148.609 60.0739L148.774 60.3261C148.971 60.1971 149.14 60.0415 149.279 59.8593L149.04 59.6767ZM148.607 60.0756C148.448 60.1838 148.266 60.2605 148.06 60.3047L148.123 60.5993C148.365 60.5475 148.583 60.4562 148.776 60.3244L148.607 60.0756ZM147.941 60.452V60.476H148.242V60.452H147.941ZM148.072 60.6253C148.591 60.693 148.996 60.9051 149.297 61.2578L149.526 61.0622C149.171 60.6469 148.696 60.403 148.111 60.3267L148.072 60.6253ZM149.298 61.259C149.599 61.6042 149.753 62.0356 149.753 62.564H150.054C150.054 61.9724 149.88 61.4678 149.525 61.061L149.298 61.259ZM149.753 62.564C149.753 62.6915 149.741 62.8405 149.718 63.0117L150.017 63.0523C150.041 62.8715 150.054 62.7085 150.054 62.564H149.753ZM149.718 63.0107C149.696 63.1655 149.652 63.3302 149.583 63.5051L149.864 63.6149C149.939 63.4218 149.991 63.2345 150.016 63.0533L149.718 63.0107ZM149.584 63.503C149.518 63.6645 149.421 63.8289 149.292 63.9959L149.531 64.1801C149.673 63.9951 149.785 63.8075 149.863 63.617L149.584 63.503ZM149.292 63.9959C149.17 64.1538 149.002 64.2978 148.783 64.4261L148.936 64.6859C149.181 64.5422 149.381 64.3742 149.531 64.1801L149.292 63.9959ZM148.785 64.4252C148.575 64.5449 148.309 64.6486 147.981 64.7343L148.058 65.0257C148.402 64.9354 148.695 64.8231 148.934 64.6868L148.785 64.4252ZM147.984 64.7337C147.671 64.81 147.287 64.8494 146.831 64.8494V65.1506C147.303 65.1506 147.712 65.11 148.055 65.0263L147.984 64.7337ZM146.831 64.8494H143.207V65.1506H146.831V64.8494ZM143.358 65V56.432H143.057V65H143.358ZM144.023 64.4546H146.831V64.1534H144.023V64.4546ZM146.831 64.4546C147.143 64.4546 147.44 64.43 147.722 64.3803L147.669 64.0837C147.407 64.13 147.127 64.1534 146.831 64.1534V64.4546ZM147.726 64.3795C148.014 64.3201 148.272 64.2176 148.498 64.07L148.333 63.818C148.143 63.9424 147.921 64.0319 147.665 64.0845L147.726 64.3795ZM148.498 64.07C148.727 63.9199 148.908 63.7208 149.04 63.4751L148.775 63.3329C148.666 63.5352 148.519 63.6961 148.333 63.818L148.498 64.07ZM149.041 63.4732C149.175 63.2141 149.238 62.9007 149.238 62.54H148.937C148.937 62.8673 148.88 63.1299 148.774 63.3348L149.041 63.4732ZM149.238 62.54C149.238 61.9476 149.025 61.4851 148.585 61.1803L148.414 61.4277C148.758 61.6669 148.937 62.0284 148.937 62.54H149.238ZM148.588 61.1823C148.168 60.8759 147.575 60.7334 146.831 60.7334V61.0346C147.543 61.0346 148.063 61.1721 148.411 61.4257L148.588 61.1823ZM146.831 60.7334H144.023V61.0346H146.831V60.7334ZM143.873 60.884V64.304H144.174V60.884H143.873ZM152.411 56.432V56.2814H152.261V56.432H152.411ZM158.327 56.432H158.478V56.2814H158.327V56.432ZM158.327 57.128V57.2786H158.478V57.128H158.327ZM153.227 57.128V56.9774H153.077V57.128H153.227ZM153.227 60.224H153.077V60.3746H153.227V60.224ZM158.003 60.224H158.154V60.0734H158.003V60.224ZM158.003 60.92V61.0706H158.154V60.92H158.003ZM153.227 60.92V60.7694H153.077V60.92H153.227ZM153.227 64.304H153.077V64.4546H153.227V64.304ZM158.387 64.304H158.538V64.1534H158.387V64.304ZM158.387 65V65.1506H158.538V65H158.387ZM152.411 65H152.261V65.1506H152.411V65ZM152.411 56.5826H158.327V56.2814H152.411V56.5826ZM158.177 56.432V57.128H158.478V56.432H158.177ZM158.327 56.9774H153.227V57.2786H158.327V56.9774ZM153.077 57.128V60.224H153.378V57.128H153.077ZM153.227 60.3746H158.003V60.0734H153.227V60.3746ZM157.853 60.224V60.92H158.154V60.224H157.853ZM158.003 60.7694H153.227V61.0706H158.003V60.7694ZM153.077 60.92V64.304H153.378V60.92H153.077ZM153.227 64.4546H158.387V64.1534H153.227V64.4546ZM158.237 64.304V65H158.538V64.304H158.237ZM158.387 64.8494H152.411V65.1506H158.387V64.8494ZM152.562 65V56.432H152.261V65H152.562ZM161.541 60.5H161.39V60.6506H161.541V60.5ZM165.297 60.392L165.343 60.5354L165.347 60.5338L165.297 60.392ZM165.885 60.056L165.787 59.9417L165.787 59.9417L165.885 60.056ZM166.281 59.54L166.146 59.4726L166.145 59.4748L166.281 59.54ZM165.981 57.584L166.087 57.4775L166.087 57.4775L165.981 57.584ZM161.541 57.128V56.9774H161.39V57.128H161.541ZM160.725 56.432V56.2814H160.574V56.432H160.725ZM165.645 56.564L165.604 56.7089L165.605 56.7092L165.645 56.564ZM166.473 56.972L166.379 57.0901L166.383 57.0934L166.473 56.972ZM167.037 57.668L166.9 57.7323L166.903 57.7369L167.037 57.668ZM166.833 60.08L166.709 59.9936L166.709 59.9936L166.833 60.08ZM165.585 60.848L165.555 60.7004L165.434 60.7249V60.848H165.585ZM165.585 60.872H165.434V61.0026L165.563 61.0211L165.585 60.872ZM166.281 61.1L166.202 61.2287L166.206 61.2311L166.281 61.1ZM166.725 61.508L166.599 61.5916L166.602 61.5955L166.725 61.508ZM166.977 62.096L166.829 62.1276L166.831 62.1338L166.977 62.096ZM167.085 62.804L167.235 62.7956L167.235 62.7946L167.085 62.804ZM167.109 63.332L167.259 63.3262L167.259 63.3262L167.109 63.332ZM167.157 63.968L167.007 63.9846L167.007 63.9853L167.157 63.968ZM167.265 64.568L167.118 64.6046L167.12 64.6118L167.265 64.568ZM167.481 65V65.1506H167.805L167.596 64.9027L167.481 65ZM166.581 65L166.451 65.0775L166.495 65.1506H166.581V65ZM166.461 64.712L166.312 64.7416L166.316 64.7534L166.461 64.712ZM166.401 64.352L166.25 64.3614L166.251 64.3719L166.401 64.352ZM166.353 63.668L166.202 63.6759L166.203 63.6816L166.353 63.668ZM166.269 62.768L166.119 62.7838L166.119 62.7882L166.269 62.768ZM166.041 61.964L165.904 62.0277L165.907 62.0332L166.041 61.964ZM165.537 61.388L165.453 61.5133L165.455 61.5147L165.537 61.388ZM164.637 61.196V61.3467L164.643 61.3465L164.637 61.196ZM161.541 61.196V61.0454H161.39V61.196H161.541ZM161.541 65V65.1506H161.691V65H161.541ZM160.725 65H160.574V65.1506H160.725V65ZM161.541 60.6506H164.589V60.3494H161.541V60.6506ZM164.589 60.6506C164.851 60.6506 165.103 60.6124 165.343 60.5354L165.25 60.2486C165.042 60.3156 164.822 60.3494 164.589 60.3494V60.6506ZM165.347 60.5338C165.587 60.4481 165.8 60.3272 165.983 60.1703L165.787 59.9417C165.634 60.0728 165.454 60.1759 165.246 60.2502L165.347 60.5338ZM165.983 60.1703C166.166 60.0127 166.311 59.8239 166.416 59.6052L166.145 59.4748C166.058 59.6561 165.939 59.8113 165.787 59.9417L165.983 60.1703ZM166.415 59.6073C166.531 59.3758 166.587 59.1162 166.587 58.832H166.286C166.286 59.0758 166.238 59.2882 166.146 59.4727L166.415 59.6073ZM166.587 58.832C166.587 58.2737 166.425 57.8159 166.087 57.4775L165.874 57.6905C166.144 57.9601 166.286 58.3343 166.286 58.832H166.587ZM166.087 57.4775C165.744 57.1347 165.234 56.9774 164.589 56.9774V57.2786C165.191 57.2786 165.609 57.4253 165.874 57.6905L166.087 57.4775ZM164.589 56.9774H161.541V57.2786H164.589V56.9774ZM161.39 57.128V60.5H161.691V57.128H161.39ZM160.725 56.5826H164.649V56.2814H160.725V56.5826ZM164.649 56.5826C164.988 56.5826 165.306 56.625 165.604 56.7089L165.685 56.4191C165.359 56.327 165.013 56.2814 164.649 56.2814V56.5826ZM165.605 56.7092C165.907 56.7925 166.165 56.92 166.379 57.09L166.566 56.854C166.316 56.656 166.022 56.5115 165.684 56.4188L165.605 56.7092ZM166.383 57.0934C166.602 57.2536 166.774 57.4653 166.9 57.7323L167.173 57.6037C167.027 57.2947 166.823 57.0424 166.562 56.8506L166.383 57.0934ZM166.903 57.7369C167.034 57.9914 167.102 58.2988 167.102 58.664H167.403C167.403 58.2612 167.328 57.9046 167.17 57.5991L166.903 57.7369ZM167.102 58.664C167.102 59.1808 166.969 59.6218 166.709 59.9936L166.956 60.1664C167.256 59.7382 167.403 59.2352 167.403 58.664H167.102ZM166.709 59.9936C166.455 60.3571 166.075 60.5948 165.555 60.7004L165.614 60.9956C166.198 60.8772 166.65 60.6029 166.956 60.1664L166.709 59.9936ZM165.434 60.848V60.872H165.735V60.848H165.434ZM165.563 61.0211C165.829 61.0591 166.04 61.13 166.202 61.2286L166.359 60.9714C166.153 60.846 165.9 60.7649 165.606 60.7229L165.563 61.0211ZM166.206 61.2311C166.371 61.324 166.501 61.4441 166.599 61.5915L166.85 61.4245C166.724 61.2359 166.558 61.084 166.355 60.9689L166.206 61.2311ZM166.602 61.5955C166.709 61.745 166.785 61.9215 166.829 62.1276L167.124 62.0644C167.072 61.8225 166.98 61.607 166.847 61.4205L166.602 61.5955ZM166.831 62.1338C166.884 62.3392 166.919 62.5656 166.934 62.8134L167.235 62.7946C167.218 62.5304 167.181 62.2848 167.122 62.0582L166.831 62.1338ZM166.934 62.8124C166.942 62.9552 166.95 63.1303 166.958 63.3378L167.259 63.3262C167.251 63.1177 167.243 62.9408 167.235 62.7956L166.934 62.8124ZM166.958 63.3378C166.966 63.5496 166.982 63.7652 167.007 63.9846L167.306 63.9514C167.283 63.7388 167.267 63.5304 167.259 63.3262L166.958 63.3378ZM167.007 63.9853C167.032 64.1994 167.069 64.4058 167.118 64.6045L167.411 64.5315C167.364 64.3462 167.329 64.1526 167.306 63.9507L167.007 63.9853ZM167.12 64.6118C167.18 64.808 167.26 64.9726 167.366 65.0973L167.596 64.9027C167.525 64.8194 167.461 64.696 167.409 64.5242L167.12 64.6118ZM167.481 64.8494H166.581V65.1506H167.481V64.8494ZM166.71 64.9225C166.67 64.8562 166.635 64.773 166.605 64.6706L166.316 64.7534C166.351 64.875 166.395 64.9838 166.451 65.0775L166.71 64.9225ZM166.608 64.6825C166.585 64.5656 166.565 64.4488 166.55 64.3321L166.251 64.3719C166.268 64.4952 166.288 64.6184 166.313 64.7415L166.608 64.6825ZM166.551 64.3426C166.543 64.2144 166.535 64.0902 166.527 63.97L166.226 63.99C166.234 64.1098 166.242 64.2336 166.25 64.3614L166.551 64.3426ZM166.527 63.97C166.519 63.8492 166.511 63.7439 166.503 63.6544L166.203 63.6816C166.21 63.7681 166.218 63.8708 166.226 63.99L166.527 63.97ZM166.503 63.6601C166.487 63.3521 166.458 63.048 166.418 62.7478L166.119 62.7882C166.159 63.08 166.186 63.3759 166.202 63.6759L166.503 63.6601ZM166.418 62.7522C166.385 62.4327 166.304 62.146 166.174 61.8948L165.907 62.0332C166.017 62.246 166.088 62.4953 166.119 62.7838L166.418 62.7522ZM166.177 61.9003C166.053 61.6344 165.866 61.4206 165.618 61.2613L165.455 61.5147C165.655 61.6434 165.804 61.8136 165.904 62.0277L166.177 61.9003ZM165.62 61.2627C165.368 61.0944 165.032 61.0288 164.63 61.0455L164.643 61.3465C165.01 61.3312 165.274 61.3936 165.453 61.5133L165.62 61.2627ZM164.637 61.0454H161.541V61.3466H164.637V61.0454ZM161.39 61.196V65H161.691V61.196H161.39ZM161.541 64.8494H160.725V65.1506H161.541V64.8494ZM160.875 65V56.432H160.574V65H160.875Z" fill="#B4B4B4"/>
<rect width="84" height="84" rx="4" fill="#242424"/>
<path d="M65.0979 54.181H58.0289V41.1355L59.3259 39.3791C59.3312 39.3534 59.3312 39.3268 59.3259 39.3011C59.3259 39.3011 59.3259 39.3011 59.3259 39.2425C59.3562 39.1782 59.3731 39.1085 59.3754 39.0376V34.3053C59.3754 34.1501 59.3128 34.0011 59.2014 33.8914C59.09 33.7816 58.9389 33.7199 58.7814 33.7199H57.4151V30.2755L58.514 28.568C58.572 28.4739 58.6028 28.3659 58.6032 28.2558V26.4702C58.6032 26.3149 58.5406 26.166 58.4292 26.0562C58.3178 25.9464 58.1667 25.8847 58.0091 25.8847H57.326V19.884C57.4835 19.884 57.6346 19.8223 57.746 19.7125C57.8574 19.6027 57.92 19.4538 57.92 19.2985V17.0641C57.92 16.9088 57.8574 16.7599 57.746 16.6501C57.6346 16.5404 57.4835 16.4787 57.326 16.4787V14.0198C57.3246 13.4666 57.1404 12.9288 56.8013 12.4879L56.0191 11.4634V10.3511C56.0191 10.1958 55.9565 10.0469 55.8451 9.9371C55.7337 9.8273 55.5826 9.76562 55.4251 9.76562C55.2675 9.76562 55.1164 9.8273 55.005 9.9371C54.8936 10.0469 54.831 10.1958 54.831 10.3511V11.4829L54.0885 12.5172C53.7833 12.9458 53.6207 13.4572 53.6232 13.9808V16.4982C53.4822 16.5148 53.3523 16.5814 53.2575 16.6855C53.1628 16.7897 53.1097 16.9242 53.1083 17.0641V19.2985C53.1097 19.4384 53.1628 19.573 53.2575 19.6771C53.3523 19.7813 53.4822 19.8479 53.6232 19.8645V25.8847H52.9301C52.7726 25.8847 52.6215 25.9464 52.5101 26.0562C52.3987 26.166 52.3361 26.3149 52.3361 26.4702V27.5923H32.2182V26.4702C32.2182 26.3149 32.1556 26.166 32.0442 26.0562C31.9328 25.9464 31.7817 25.8847 31.6241 25.8847H30.941V19.884C31.0985 19.884 31.2496 19.8223 31.361 19.7125C31.4724 19.6027 31.535 19.4538 31.535 19.2985V17.0641C31.535 16.9088 31.4724 16.7599 31.361 16.6501C31.2496 16.5404 31.0985 16.4787 30.941 16.4787V14.0198C30.9481 13.4699 30.7745 12.9325 30.4459 12.4879L29.6638 11.4634V10.3511C29.6638 10.1958 29.6012 10.0469 29.4898 9.9371C29.3784 9.8273 29.2273 9.76562 29.0698 9.76562C28.9122 9.76562 28.7611 9.8273 28.6497 9.9371C28.5383 10.0469 28.4757 10.1958 28.4757 10.3511V11.4829L27.7332 12.5172C27.4251 12.9449 27.259 13.4562 27.258 13.9808V16.4982C27.117 16.5148 26.9871 16.5814 26.8923 16.6855C26.7976 16.7897 26.7445 16.9242 26.7431 17.0641V19.2985C26.7445 19.4384 26.7976 19.573 26.8923 19.6771C26.9871 19.7813 27.117 19.8479 27.258 19.8645V25.8847H26.5748C26.4173 25.8847 26.2662 25.9464 26.1548 26.0562C26.0434 26.166 25.9808 26.3149 25.9808 26.4702V28.2655C25.9811 28.3757 26.0119 28.4836 26.0699 28.5778L27.1689 30.2755V33.7199H25.8026C25.7246 33.7199 25.6473 33.735 25.5753 33.7644C25.5032 33.7939 25.4377 33.837 25.3825 33.8914C25.3274 33.9457 25.2836 34.0103 25.2538 34.0813C25.2239 34.1523 25.2085 34.2284 25.2085 34.3053V39.0376C25.2112 39.1428 25.2457 39.2447 25.3076 39.3304L26.4857 41.1257V54.181H19.5553C19.4716 54.1703 19.3864 54.1773 19.3056 54.2016C19.2248 54.2258 19.1502 54.2668 19.0867 54.3218C19.0233 54.3767 18.9724 54.4443 18.9376 54.5202C18.9028 54.596 18.8848 54.6783 18.8848 54.7616C18.8848 54.8448 18.9028 54.9271 18.9376 55.003C18.9724 55.0788 19.0233 55.1465 19.0867 55.2014C19.1502 55.2564 19.2248 55.2973 19.3056 55.3216C19.3864 55.3459 19.4716 55.3529 19.5553 55.3421H65.0979C65.1817 55.3529 65.2668 55.3459 65.3476 55.3216C65.4284 55.2973 65.503 55.2564 65.5665 55.2014C65.63 55.1465 65.6808 55.0788 65.7156 55.003C65.7505 54.9271 65.7685 54.8448 65.7685 54.7616C65.7685 54.6783 65.7505 54.596 65.7156 54.5202C65.6808 54.4443 65.63 54.3767 65.5665 54.3218C65.503 54.2668 65.4284 54.2258 65.3476 54.2016C65.2668 54.1773 65.1817 54.1703 65.0979 54.181ZM36.0299 54.181H31.6439V53.0882H36.02L36.0299 54.181ZM36.0299 51.9173H31.6439V41.1355L32.7627 39.6231H36.02V51.9173H36.0299ZM30.743 40.3549H27.4758L26.9709 39.6231H31.3271L30.743 40.3549ZM27.7134 41.5258H30.4459V51.9173H27.7134V41.5258ZM31.0202 30.5195H53.5341V33.7004H51.1777V32.4709C51.1886 32.3884 51.1815 32.3045 51.1569 32.2249C51.1323 32.1452 51.0907 32.0717 51.0349 32.0091C50.9792 31.9466 50.9105 31.8965 50.8336 31.8622C50.7566 31.8278 50.6731 31.8101 50.5886 31.8101C50.5042 31.8101 50.4207 31.8278 50.3437 31.8622C50.2668 31.8965 50.1981 31.9466 50.1424 32.0091C50.0866 32.0717 50.045 32.1452 50.0204 32.2249C49.9958 32.3045 49.9887 32.3884 49.9996 32.4709V33.7004H47.8808V32.4709C47.8808 32.3157 47.8183 32.1668 47.7069 32.057C47.5955 31.9472 47.4444 31.8855 47.2868 31.8855C47.1293 31.8855 46.9782 31.9472 46.8668 32.057C46.7554 32.1668 46.6928 32.3157 46.6928 32.4709V33.7004H44.5741V32.4709C44.5741 32.3157 44.5115 32.1668 44.4001 32.057C44.2887 31.9472 44.1376 31.8855 43.98 31.8855C43.8225 31.8855 43.6714 31.9472 43.56 32.057C43.4486 32.1668 43.386 32.3157 43.386 32.4709V33.7004H41.2673V32.4709C41.2673 32.3157 41.2047 32.1668 41.0933 32.057C40.9819 31.9472 40.8308 31.8855 40.6732 31.8855C40.5157 31.8855 40.3646 31.9472 40.2532 32.057C40.1418 32.1668 40.0792 32.3157 40.0792 32.4709V33.7004H37.9605V32.4709C37.9605 32.3157 37.8979 32.1668 37.7865 32.057C37.6751 31.9472 37.524 31.8855 37.3664 31.8855C37.2089 31.8855 37.0578 31.9472 36.9464 32.057C36.835 32.1668 36.7724 32.3157 36.7724 32.4709V33.7004H34.6537V32.4709C34.6646 32.3884 34.6575 32.3045 34.6328 32.2249C34.6082 32.1452 34.5666 32.0717 34.5109 32.0091C34.4551 31.9466 34.3865 31.8965 34.3095 31.8622C34.2326 31.8278 34.1491 31.8101 34.0646 31.8101C33.9801 31.8101 33.8966 31.8278 33.8197 31.8622C33.7427 31.8965 33.6741 31.9466 33.6183 32.0091C33.5626 32.0717 33.521 32.1452 33.4964 32.2249C33.4717 32.3045 33.4646 32.3884 33.4755 32.4709V33.7004H31.0202V30.5195ZM32.0102 28.7827H52.6034L52.9796 29.3486H31.6142L32.0102 28.7827ZM56.8409 51.9173H54.0984V41.5258H56.8409V51.9173ZM57.1775 40.3549H53.8212L53.3163 39.6231H57.6824L57.1775 40.3549ZM51.6431 34.8908V36.53H33.0498V34.8908H51.6431ZM33.0498 37.7009H51.6035V38.4522H33.0498V37.7009ZM37.1981 39.6523H47.4551V45.0091C46.0347 43.7749 44.3386 42.889 42.5048 42.4234C42.4135 42.4039 42.319 42.4039 42.2276 42.4234C40.393 42.8604 38.694 43.7311 37.2773 44.9603L37.1981 39.6523ZM48.6333 39.6523H51.8807L52.8707 41.155V51.9173H48.6333V39.6231V39.6523ZM48.6333 53.1175H52.9103V54.2103H48.6333V53.1175ZM54.0984 53.1175H56.8409V54.22H54.0984V53.1175ZM58.2566 34.92V38.4815H52.7915V34.8908H58.2566V34.92ZM54.7221 33.7492V30.5195H56.1874V33.7004L54.7221 33.7492ZM56.1379 25.9433H54.8112V19.884H56.1874L56.1379 25.9433ZM56.7517 17.7081V18.7131H54.2964V17.6496L56.7517 17.7081ZM55.0588 13.249L55.4449 12.7123L55.8607 13.249C56.0414 13.4888 56.1386 13.7797 56.1379 14.0784V16.5372H54.8112V13.9808C54.8126 13.699 54.8988 13.424 55.0588 13.1905V13.249ZM53.5242 27.0556H57.4151V28.0899L56.5933 29.3681H54.3558L53.5242 28.0899V27.0556ZM29.7628 25.8847H28.4658V19.884H29.7529L29.7628 25.8847ZM30.3667 17.6496V18.7131H27.9015V17.6496H30.3667ZM28.6836 13.1905L29.0698 12.6538L29.4757 13.1905C29.6593 13.4293 29.76 13.7202 29.7628 14.0198V16.4787H28.4658V13.9808C28.4511 13.7026 28.5237 13.4266 28.6737 13.1905H28.6836ZM27.1392 28.0899V27.0556H31.0301V28.0899L30.2083 29.3681H27.9609L27.1392 28.0899ZM28.3272 30.5195H29.842V33.7004H28.3272V30.5195ZM27.7332 34.8712H31.8617V38.4327H26.3966V34.8908L27.7332 34.8712ZM27.7332 53.0687H30.4459V54.1615H27.7134L27.7332 53.0687ZM37.2179 47.5558C37.2179 45.0091 41.5247 43.7602 42.3464 43.5455C43.9008 43.9553 47.4749 45.3604 47.4749 47.5558V54.1615H37.1981L37.2179 47.5558Z" fill="white"/>
<path d="M17.8418 64.0621L18.7418 60.6781H20.6978L18.4538 69.0781H16.4978L17.4218 65.5981H16.1858L15.2498 69.0781H13.2938L15.5498 60.6781H17.5058L16.5938 64.0621H17.8418ZM25.1526 60.6781H27.3726L23.9526 66.4621L23.2806 69.0781H21.3246L22.0686 66.3661L21.7326 60.6781H23.7606L23.4846 64.2901L25.1526 60.6781ZM28.95 69.0781H26.154L28.41 60.6781H30.93C32.67 60.6781 33.294 61.7461 32.814 63.5701L32.094 66.1981C31.614 68.0221 30.702 69.0781 28.95 69.0781ZM29.946 62.2141L28.53 67.5421H29.046C29.634 67.5421 29.898 67.1221 30.138 66.2101L30.858 63.5101C31.086 62.6821 31.062 62.2141 30.462 62.2141H29.946ZM37.2108 69.0781H32.5548L34.8108 60.6781H39.3828L38.9748 62.2141H36.3468L35.9028 63.9421H38.1348L37.7388 65.3821H35.5068L34.9308 67.5421H37.6188L37.2108 69.0781ZM40.649 60.6781H43.493C44.765 60.6781 45.641 61.3981 45.197 62.9821L45.101 63.3901C44.885 64.1461 44.429 64.6621 43.901 64.8901L43.889 64.9381C44.249 65.1661 44.429 65.5501 44.261 66.1621L43.637 68.5261C43.565 68.7541 43.637 68.8981 43.817 68.9101L43.781 69.0781H41.921C41.705 68.9821 41.633 68.7061 41.741 68.2981L42.293 66.2461C42.401 65.8261 42.377 65.5021 41.945 65.5021H41.309L40.349 69.0781H38.393L40.649 60.6781ZM42.209 62.1541L41.693 64.0261H42.401C42.749 64.0261 43.013 63.8701 43.145 63.3781L43.289 62.8141C43.421 62.3221 43.265 62.1541 42.917 62.1541H42.209ZM44.4587 69.0781L48.2387 60.6781H50.9507L50.2787 69.0781H48.3707L48.5267 67.7701H47.0027L46.4627 69.0781H44.4587ZM49.0667 62.7781L47.6387 66.2341H48.7067L49.1267 62.7781H49.0667ZM54.4801 69.0781H51.3001L53.5561 60.6781H56.2681C57.4681 60.6781 58.4041 61.1701 58.0081 62.6581L57.9121 62.9941C57.6481 63.8821 57.1801 64.4101 56.4361 64.6381L56.4241 64.6621C57.1321 64.9021 57.3721 65.4781 57.1441 66.3421L57.0001 66.8941C56.5921 68.4061 55.8241 69.0781 54.4801 69.0781ZM55.1041 62.1781L54.6001 64.0861H55.2361C55.5481 64.0861 55.8001 63.8821 55.9321 63.3901L56.0881 62.8381C56.2201 62.3701 56.0641 62.1781 55.7401 62.1781H55.1041ZM54.2281 65.4421L53.6641 67.5781H54.3241C54.6841 67.5781 54.9241 67.3741 55.0681 66.8701L55.2601 66.1501C55.4161 65.6341 55.2361 65.4301 54.9001 65.4421H54.2281ZM57.2134 69.0781L60.9934 60.6781H63.7054L63.0334 69.0781H61.1254L61.2814 67.7701H59.7574L59.2174 69.0781H57.2134ZM61.8214 62.7781L60.3934 66.2341H61.4614L61.8814 62.7781H61.8214ZM66.8508 69.0781H64.0548L66.3108 60.6781H68.8308C70.5708 60.6781 71.1948 61.7461 70.7148 63.5701L69.9948 66.1981C69.5148 68.0221 68.6028 69.0781 66.8508 69.0781ZM67.8468 62.2141L66.4308 67.5421H66.9468C67.5348 67.5421 67.7988 67.1221 68.0388 66.2101L68.7588 63.5101C68.9868 62.6821 68.9628 62.2141 68.3628 62.2141H67.8468Z" fill="#EA337D"/>
</svg>
