<svg width="283" height="130" viewBox="0 0 283 130" fill="none" xmlns="http://www.w3.org/2000/svg">
<path d="M160.744 42.8918L159.458 42.7905L159.349 44.1818H160.744V42.8918ZM169.735 22.1589L170.609 23.1083L170.616 23.102L169.735 22.1589ZM199.989 16.1295L199.607 17.3618L199.621 17.366L199.634 17.3698L199.989 16.1295ZM207.816 20.1491L208.63 19.1479V19.1479L207.816 20.1491ZM213.105 27.1306L211.929 27.66L211.934 27.6721L211.94 27.6841L213.105 27.1306ZM212.788 46.8057L213.918 47.4274L213.925 47.4156L212.788 46.8057ZM206.758 54.5276L207.629 55.4797L207.636 55.473L207.643 55.4662L206.758 54.5276ZM198.296 60.7686L197.632 59.6624L197.621 59.6691L198.296 60.7686ZM188.987 66.375L189.625 67.4966L189.634 67.4911L189.644 67.4856L188.987 66.375ZM180.102 71.664L179.418 70.57H179.418L180.102 71.664ZM173.015 77.3761L172.071 76.4971L170.051 78.6661H173.015V77.3761ZM209.509 77.3761L210.766 77.6646L211.128 76.0861H209.509V77.3761ZM206.547 90.2812V91.5713H207.574L207.804 90.5698L206.547 90.2812ZM151.753 90.2812L150.465 90.202L150.381 91.5713H151.753V90.2812ZM154.82 78.3281L155.965 78.924H155.965L154.82 78.3281ZM161.59 69.4426L162.465 70.3905L162.472 70.3845L162.478 70.3784L161.59 69.4426ZM170.899 62.4611L171.556 63.5713L170.899 62.4611ZM181.477 56.5374L182.081 57.6775L182.101 57.6665L182.122 57.6548L181.477 56.5374ZM187.401 53.2582L186.809 52.1119L186.801 52.1159L186.794 52.12L187.401 53.2582ZM193.43 49.4502L194.217 50.4727L194.222 50.4684L193.43 49.4502ZM198.19 44.4785L199.251 45.2128L198.19 44.4785ZM196.709 30.0924L195.941 31.1284L195.959 31.1423L195.979 31.1554L196.709 30.0924ZM183.064 28.9288L183.62 30.0926L183.631 30.0877L183.641 30.0827L183.064 28.9288ZM178.833 32.208L177.85 31.3726L177.837 31.3872L177.825 31.4022L178.833 32.208ZM176.082 37.0739L174.878 36.6108L174.87 36.6313L174.863 36.6519L176.082 37.0739ZM175.024 42.8918V44.1818H176.271L176.314 42.9363L175.024 42.8918ZM162.03 42.9931C162.716 34.2769 165.616 27.7022 170.609 23.1083L168.862 21.2096C163.277 26.3475 160.182 33.5946 159.458 42.7905L162.03 42.9931ZM170.616 23.102C175.624 18.4278 182.2 16.0443 190.468 16.0443V13.4643C181.671 13.4643 174.425 16.0173 168.855 21.2159L170.616 23.102ZM190.468 16.0443C193.736 16.0443 196.78 16.4866 199.607 17.3618L200.37 14.8971C197.274 13.9388 193.971 13.4643 190.468 13.4643V16.0443ZM199.634 17.3698C202.438 18.1711 204.889 19.4331 207.003 21.1503L208.63 19.1479C206.23 17.198 203.462 15.7803 200.343 14.8891L199.634 17.3698ZM207.003 21.1503C209.093 22.8489 210.737 25.0106 211.929 27.66L214.282 26.6012C212.935 23.609 211.052 21.1163 208.63 19.1479L207.003 21.1503ZM211.94 27.6841C213.182 30.2982 213.825 33.4161 213.825 37.0739H216.405C216.405 33.1156 215.709 29.6046 214.27 26.5771L211.94 27.6841ZM213.825 37.0739C213.825 40.4785 213.093 43.5096 211.651 46.1957L213.925 47.4156C215.586 44.3191 216.405 40.8624 216.405 37.0739H213.825ZM211.658 46.184C210.174 48.8808 208.249 51.3491 205.874 53.589L207.643 55.4662C210.204 53.0518 212.299 50.3721 213.918 47.4273L211.658 46.184ZM205.888 53.5756C203.49 55.7683 200.74 57.7981 197.632 59.6625L198.96 61.8748C202.199 59.9311 205.091 57.8002 207.629 55.4797L205.888 53.5756ZM197.621 59.6691C194.525 61.5695 191.428 63.4345 188.331 65.2644L189.644 67.4856C192.753 65.6484 195.862 63.7759 198.971 61.8681L197.621 59.6691ZM188.35 65.2534C185.233 67.0246 182.255 68.7968 179.418 70.57L180.786 72.7579C183.59 71.0051 186.536 69.2513 189.625 67.4966L188.35 65.2534ZM179.418 70.57C176.519 72.382 174.065 74.3553 172.071 76.4971L173.959 78.2551C175.773 76.3067 178.043 74.472 180.786 72.7579L179.418 70.57ZM173.015 78.6661H209.509V76.0861H173.015V78.6661ZM208.251 77.0875L205.29 89.9927L207.804 90.5698L210.766 77.6646L208.251 77.0875ZM206.547 88.9912H151.753V91.5713H206.547V88.9912ZM153.04 90.3605C153.314 85.9211 154.3 82.1195 155.965 78.924L153.676 77.7322C151.815 81.3066 150.756 85.4738 150.465 90.202L153.04 90.3605ZM155.965 78.924C157.66 75.6684 159.827 72.8263 162.465 70.3905L160.715 68.4947C157.854 71.1363 155.507 74.2179 153.676 77.7322L155.965 78.924ZM162.478 70.3784C165.154 67.8396 168.179 65.57 171.556 63.5713L170.242 61.351C166.708 63.4424 163.527 65.8271 160.703 68.5067L162.478 70.3784ZM171.556 63.5713C174.994 61.5367 178.502 59.5721 182.081 57.6775L180.873 55.3973C177.259 57.3108 173.715 59.2953 170.242 61.351L171.556 63.5713ZM182.122 57.6548C183.941 56.605 185.903 55.5189 188.008 54.3965L186.794 52.12C184.667 53.2542 182.68 54.3542 180.832 55.4201L182.122 57.6548ZM187.992 54.4046C190.243 53.2431 192.318 51.9329 194.217 50.4727L192.644 48.4277C190.875 49.7882 188.931 51.0168 186.809 52.1119L187.992 54.4046ZM194.222 50.4684C196.221 48.9136 197.901 47.1625 199.251 45.2128L197.13 43.7442C195.941 45.4616 194.447 47.0249 192.638 48.4319L194.222 50.4684ZM199.251 45.2128C200.685 43.1407 201.384 40.7273 201.384 38.0259H198.804C198.804 40.261 198.234 42.1493 197.13 43.7442L199.251 45.2128ZM201.384 38.0259C201.384 34.0329 200.166 30.9037 197.44 29.0294L195.979 31.1554C197.766 32.384 198.804 34.5439 198.804 38.0259H201.384ZM197.478 29.0564C195.034 27.2433 192.073 26.3695 188.67 26.3695V28.9495C191.614 28.9495 194.012 29.6977 195.941 31.1284L197.478 29.0564ZM188.67 26.3695C186.441 26.3695 184.373 26.8321 182.487 27.775L183.641 30.0827C185.14 29.3331 186.809 28.9495 188.67 28.9495V26.3695ZM182.507 27.7651C180.717 28.6214 179.162 29.8282 177.85 31.3726L179.815 33.0435C180.9 31.7671 182.167 30.7877 183.62 30.0926L182.507 27.7651ZM177.825 31.4022C176.607 32.9247 175.627 34.6644 174.878 36.6108L177.286 37.537C177.948 35.8164 178.801 34.3121 179.84 33.0139L177.825 31.4022ZM174.863 36.6519C174.184 38.6136 173.81 40.6807 173.735 42.8474L176.314 42.9363C176.38 41.0128 176.711 39.2013 177.301 37.4959L174.863 36.6519ZM175.024 41.6018H160.744V44.1818H175.024V41.6018ZM227.773 71.4524L226.502 71.6734L226.508 71.706L226.515 71.7383L227.773 71.4524ZM229.466 75.5778L228.383 76.2786L228.392 76.2938L228.403 76.3086L229.466 75.5778ZM232.639 78.3281L232.038 79.4697V79.4697L232.639 78.3281ZM244.381 77.2703L245.148 78.3069L245.155 78.3023L244.381 77.2703ZM249.458 71.5582L248.355 70.8896L249.458 71.5582ZM253.055 63.7305L251.834 63.3136L253.055 63.7305ZM255.382 55.0565L254.122 54.7799L254.118 54.7947L254.116 54.8095L255.382 55.0565ZM256.651 46.9114L255.369 46.7728L255.367 46.7885L255.366 46.8043L256.651 46.9114ZM256.44 35.2756L255.179 35.5497L255.185 35.5756L255.191 35.6013L256.44 35.2756ZM254.535 31.0445L253.482 31.7884L253.496 31.8085L253.511 31.8281L254.535 31.0445ZM251.151 28.1884L250.55 29.3299L250.562 29.3362L250.574 29.3422L251.151 28.1884ZM239.726 29.352L240.494 30.3886L240.506 30.3795L240.518 30.3702L239.726 29.352ZM234.755 34.9583L235.858 35.6269L234.755 34.9583ZM231.158 42.8918L229.934 42.4839L229.931 42.4929L229.928 42.5019L231.158 42.8918ZM228.937 51.5658L227.671 51.3187L228.937 51.5658ZM227.667 59.8166L226.385 59.678L226.383 59.6951L226.382 59.7124L227.667 59.8166ZM213.387 52.412L212.115 52.196L213.387 52.412ZM216.137 41.4109L214.921 40.9816L214.917 40.9922L214.914 41.003L216.137 41.4109ZM220.897 31.1502L219.796 30.4795L219.79 30.4883L219.785 30.4972L220.897 31.1502ZM227.667 22.6878L228.553 23.6257L228.554 23.625L227.667 22.6878ZM236.447 16.8699L235.942 15.6829L235.933 15.6869L236.447 16.8699ZM258.238 16.8699L257.704 18.0443L257.715 18.0494L257.726 18.0542L258.238 16.8699ZM265.96 22.582L266.953 21.759V21.759L265.96 22.582ZM270.508 31.4676L269.268 31.822L269.272 31.8372L269.277 31.8523L270.508 31.4676ZM271.143 53.9987L272.415 54.2108L272.416 54.207L271.143 53.9987ZM268.181 65.1056L266.972 64.6553L266.968 64.6657L266.965 64.6763L268.181 65.1056ZM263.209 75.3663L262.118 74.6783L262.113 74.6869L262.108 74.6955L263.209 75.3663ZM256.228 83.8287L255.368 82.8673L256.228 83.8287ZM224.917 89.435L224.319 90.5777L224.335 90.5862L224.351 90.5942L224.917 89.435ZM217.724 83.194L216.669 83.9357L217.724 83.194ZM213.704 74.2027L212.451 74.5095L212.453 74.5156L213.704 74.2027ZM226.06 66.375C226.06 68.2069 226.207 69.9735 226.502 71.6734L229.044 71.2314C228.776 69.6874 228.64 68.0691 228.64 66.375H226.06ZM226.515 71.7383C226.898 73.4205 227.516 74.9391 228.383 76.2786L230.549 74.877C229.864 73.8188 229.354 72.5872 229.031 71.1665L226.515 71.7383ZM228.403 76.3086C229.309 77.627 230.533 78.6775 232.038 79.4697L233.24 77.1866C232.065 76.5683 231.174 75.7853 230.529 74.847L228.403 76.3086ZM232.038 79.4697C233.617 80.3005 235.532 80.6759 237.716 80.6759V78.0959C235.811 78.0959 234.341 77.7661 233.24 77.1866L232.038 79.4697ZM237.716 80.6759C240.511 80.6759 243.006 79.8939 245.148 78.3069L243.613 76.2337C241.947 77.4675 240 78.0959 237.716 78.0959V80.6759ZM245.155 78.3023C247.274 76.7127 249.074 74.6805 250.561 72.2268L248.355 70.8896C247.021 73.0902 245.436 74.866 243.607 76.2383L245.155 78.3023ZM250.561 72.2268C252.025 69.8112 253.262 67.116 254.275 64.1473L251.834 63.3136C250.873 66.1276 249.712 68.6509 248.355 70.8896L250.561 72.2268ZM254.275 64.1473C255.281 61.2025 256.072 58.2545 256.648 55.3036L254.116 54.8095C253.563 57.6411 252.803 60.4757 251.834 63.3136L254.275 64.1473ZM256.642 55.3331C257.287 52.3946 257.72 49.6225 257.937 47.0186L255.366 46.8043C255.159 49.2778 254.746 51.9357 254.122 54.7799L256.642 55.3331ZM257.934 47.0501C258.218 44.4169 258.364 42.2155 258.364 40.4589H255.784C255.784 42.0872 255.648 44.1875 255.369 46.7728L257.934 47.0501ZM258.364 40.4589C258.364 38.5257 258.141 36.6877 257.688 34.95L255.191 35.6013C255.584 37.1075 255.784 38.725 255.784 40.4589H258.364ZM257.7 35.0016C257.311 33.2132 256.603 31.6246 255.56 30.2608L253.511 31.8281C254.301 32.8619 254.863 34.0941 255.179 35.5497L257.7 35.0016ZM255.589 30.3005C254.611 28.9149 253.314 27.8277 251.727 27.0346L250.574 29.3422C251.808 29.9595 252.767 30.7763 253.482 31.7884L255.589 30.3005ZM251.751 27.0468C250.185 26.2222 248.345 25.8406 246.285 25.8406V28.4206C248.032 28.4206 249.437 28.7442 250.55 29.3299L251.751 27.0468ZM246.285 25.8406C243.537 25.8406 241.07 26.6723 238.934 28.3337L240.518 30.3702C242.19 29.0698 244.096 28.4206 246.285 28.4206V25.8406ZM238.958 28.3154C236.901 29.8392 235.136 31.8403 233.651 34.2897L235.858 35.6269C237.194 33.422 238.743 31.6855 240.494 30.3886L238.958 28.3154ZM233.651 34.2897C232.185 36.71 230.948 39.444 229.934 42.4839L232.382 43.2997C233.343 40.416 234.504 37.861 235.858 35.6269L233.651 34.2897ZM229.928 42.5019C228.997 45.4387 228.244 48.3777 227.671 51.3187L230.203 51.8128C230.757 48.9712 231.485 46.1275 232.388 43.2817L229.928 42.5019ZM227.671 51.3187C227.1 54.2417 226.671 57.0283 226.385 59.678L228.95 59.9553C229.228 57.3864 229.645 54.6725 230.203 51.8128L227.671 51.3187ZM226.382 59.7124C226.168 62.3414 226.06 64.5649 226.06 66.375H228.64C228.64 64.659 228.743 62.5103 228.953 59.9209L226.382 59.7124ZM213.725 63.3073C213.725 59.8589 214.035 56.2995 214.659 52.628L212.115 52.196C211.469 55.9997 211.145 59.7038 211.145 63.3073H213.725ZM214.659 52.628C215.282 48.9555 216.183 45.3527 217.361 41.8188L214.914 41.003C213.694 44.6621 212.761 48.3934 212.115 52.196L214.659 52.628ZM217.354 41.8402C218.596 38.3203 220.148 34.9751 222.01 31.8032L219.785 30.4972C217.839 33.8132 216.217 37.3084 214.921 40.9816L217.354 41.8402ZM221.999 31.821C223.919 28.6668 226.105 25.9378 228.553 23.6257L226.782 21.75C224.152 24.2332 221.825 27.1458 219.796 30.4795L221.999 31.821ZM228.554 23.625C231.056 21.2581 233.857 19.4027 236.961 18.053L235.933 15.6869C232.549 17.158 229.497 19.1812 226.781 21.7507L228.554 23.625ZM236.952 18.0569C240.092 16.7208 243.55 16.0443 247.342 16.0443V13.4643C243.237 13.4643 239.431 14.1983 235.942 15.6829L236.952 18.0569ZM247.342 16.0443C251.359 16.0443 254.802 16.725 257.704 18.0443L258.772 15.6956C255.468 14.1941 251.648 13.4643 247.342 13.4643V16.0443ZM257.726 18.0542C260.653 19.3179 263.058 21.1022 264.966 23.4051L266.953 21.759C264.771 19.1255 262.029 17.1017 258.749 15.6856L257.726 18.0542ZM264.966 23.4051C266.885 25.7201 268.324 28.5173 269.268 31.822L271.749 31.1132C270.718 27.5069 269.125 24.3804 266.953 21.759L264.966 23.4051ZM269.277 31.8523C270.29 35.0934 270.805 38.7338 270.805 42.786H273.385C273.385 38.5169 272.842 34.6117 271.74 31.0828L269.277 31.8523ZM270.805 42.786C270.805 46.3067 270.494 49.9744 269.87 53.7904L272.416 54.207C273.061 50.2658 273.385 46.4584 273.385 42.786H270.805ZM269.871 53.7866C269.249 57.5139 268.283 61.1364 266.972 64.6553L269.39 65.556C270.759 61.8818 271.767 58.0997 272.415 54.2108L269.871 53.7866ZM266.965 64.6763C265.727 68.1817 264.112 71.5152 262.118 74.6783L264.301 76.0542C266.397 72.7295 268.096 69.2226 269.398 65.5349L266.965 64.6763ZM262.108 74.6955C260.195 77.8373 257.948 80.5587 255.368 82.8673L257.088 84.79C259.867 82.3032 262.275 79.3831 264.311 76.037L262.108 74.6955ZM255.368 82.8673C252.798 85.1668 249.889 86.9941 246.635 88.35L247.627 90.7316C251.143 89.2667 254.299 87.2859 257.088 84.79L255.368 82.8673ZM246.635 88.35C243.427 89.6867 239.826 90.3664 235.812 90.3664V92.9464C240.121 92.9464 244.065 92.2157 247.627 90.7316L246.635 88.35ZM235.812 90.3664C231.729 90.3664 228.3 89.6517 225.483 88.2759L224.351 90.5942C227.599 92.1802 231.434 92.9464 235.812 92.9464V90.3664ZM225.516 88.2923C222.727 86.8315 220.489 84.8852 218.78 82.4523L216.669 83.9357C218.626 86.7213 221.184 88.9357 224.319 90.5777L225.516 88.2923ZM218.78 82.4523C217.045 79.9844 215.767 77.1355 214.956 73.8898L212.453 74.5156C213.334 78.0398 214.736 81.1851 216.669 83.9357L218.78 82.4523ZM214.957 73.8958C214.137 70.5476 213.725 67.0193 213.725 63.3073H211.145C211.145 67.2116 211.579 70.9468 212.451 74.5095L214.957 73.8958Z" fill="white"/>
<path d="M149.868 117.811C149.912 118.598 150.097 119.237 150.425 119.729C151.049 120.648 152.148 121.108 153.722 121.108C154.428 121.108 155.07 121.007 155.65 120.806C156.771 120.415 157.332 119.716 157.332 118.708C157.332 117.952 157.095 117.414 156.623 117.093C156.144 116.778 155.395 116.504 154.374 116.271L152.494 115.845C151.266 115.568 150.397 115.263 149.886 114.929C149.005 114.349 148.564 113.483 148.564 112.331C148.564 111.083 148.995 110.06 149.858 109.26C150.721 108.46 151.943 108.06 153.524 108.06C154.979 108.06 156.214 108.413 157.228 109.118C158.248 109.817 158.758 110.939 158.758 112.482H156.991C156.897 111.739 156.695 111.168 156.387 110.772C155.814 110.047 154.84 109.685 153.467 109.685C152.359 109.685 151.562 109.918 151.077 110.384C150.592 110.85 150.349 111.392 150.349 112.009C150.349 112.69 150.633 113.187 151.2 113.502C151.571 113.704 152.412 113.956 153.722 114.258L155.669 114.702C156.607 114.916 157.332 115.209 157.842 115.581C158.724 116.23 159.165 117.171 159.165 118.406C159.165 119.943 158.604 121.042 157.483 121.703C156.368 122.365 155.07 122.695 153.59 122.695C151.864 122.695 150.513 122.254 149.537 121.373C148.56 120.497 148.082 119.31 148.101 117.811H149.868ZM163.66 108.41H173.779V110.11H165.493V114.324H173.156V115.93H165.493V120.636H173.921V122.289H163.66V108.41ZM178.501 108.41H184.747C185.981 108.41 186.976 108.759 187.732 109.458C188.488 110.151 188.866 111.128 188.866 112.387C188.866 113.471 188.529 114.416 187.855 115.222C187.181 116.022 186.145 116.422 184.747 116.422H180.382V122.289H178.501V108.41ZM186.967 112.397C186.967 111.376 186.589 110.683 185.833 110.318C185.417 110.123 184.847 110.025 184.123 110.025H180.382V114.834H184.123C184.967 114.834 185.651 114.655 186.173 114.296C186.702 113.937 186.967 113.304 186.967 112.397ZM203.263 108.41V110.063H198.586V122.289H196.678V110.063H192.001V108.41H203.263ZM207.107 108.41H217.226V110.11H208.94V114.324H216.602V115.93H208.94V120.636H217.368V122.289H207.107V108.41ZM221.721 108.41H224.414L228.401 120.144L232.36 108.41H235.025V122.289H233.239V114.097C233.239 113.814 233.245 113.345 233.258 112.69C233.27 112.035 233.277 111.332 233.277 110.583L229.318 122.289H227.456L223.469 110.583V111.008C223.469 111.348 223.476 111.868 223.488 112.567C223.507 113.26 223.517 113.77 223.517 114.097V122.289H221.721V108.41ZM245.038 114.277C245.831 114.277 246.449 114.167 246.89 113.946C247.582 113.6 247.929 112.976 247.929 112.076C247.929 111.168 247.56 110.557 246.823 110.243C246.408 110.066 245.79 109.978 244.972 109.978H241.617V114.277H245.038ZM245.671 120.683C246.823 120.683 247.645 120.349 248.137 119.681C248.445 119.259 248.6 118.749 248.6 118.151C248.6 117.143 248.149 116.456 247.249 116.091C246.77 115.896 246.137 115.798 245.35 115.798H241.617V120.683H245.671ZM239.775 108.41H245.737C247.362 108.41 248.518 108.895 249.204 109.865C249.608 110.438 249.809 111.099 249.809 111.849C249.809 112.724 249.56 113.442 249.063 114.003C248.804 114.299 248.433 114.57 247.948 114.816C248.66 115.086 249.192 115.392 249.545 115.732C250.168 116.337 250.48 117.171 250.48 118.236C250.48 119.13 250.2 119.94 249.639 120.664C248.801 121.747 247.469 122.289 245.642 122.289H239.775V108.41ZM254.843 108.41H264.962V110.11H256.676V114.324H264.339V115.93H256.676V120.636H265.104V122.289H254.843V108.41ZM275.958 114.768C276.84 114.768 277.536 114.592 278.046 114.239C278.563 113.886 278.821 113.25 278.821 112.331C278.821 111.342 278.462 110.668 277.744 110.309C277.36 110.12 276.846 110.025 276.204 110.025H271.612V114.768H275.958ZM269.732 108.41H276.156C277.215 108.41 278.087 108.564 278.774 108.873C280.077 109.465 280.729 110.557 280.729 112.151C280.729 112.983 280.556 113.663 280.21 114.192C279.87 114.721 279.391 115.146 278.774 115.467C279.315 115.688 279.722 115.978 279.992 116.337C280.27 116.696 280.424 117.278 280.455 118.085L280.522 119.946C280.54 120.475 280.585 120.869 280.654 121.127C280.767 121.568 280.969 121.851 281.259 121.977V122.289H278.953C278.89 122.169 278.84 122.015 278.802 121.826C278.764 121.637 278.733 121.272 278.708 120.73L278.594 118.415C278.55 117.508 278.213 116.9 277.583 116.592C277.224 116.422 276.66 116.337 275.892 116.337H271.612V122.289H269.732V108.41Z" fill="white"/>
<path d="M149.868 117.811L150.225 117.791L150.206 117.453H149.868V117.811ZM150.425 119.729L150.127 119.927L150.129 119.929L150.425 119.729ZM155.65 120.806L155.767 121.143L155.767 121.143L155.65 120.806ZM156.623 117.093L156.824 116.797L156.82 116.794L156.623 117.093ZM154.374 116.271L154.454 115.922L154.453 115.922L154.374 116.271ZM152.494 115.845L152.573 115.497L152.573 115.497L152.494 115.845ZM149.886 114.929L149.69 115.228L149.691 115.228L149.886 114.929ZM157.228 109.118L157.023 109.412L157.026 109.413L157.228 109.118ZM158.758 112.482V112.839H159.116V112.482H158.758ZM156.991 112.482L156.637 112.527L156.676 112.839H156.991V112.482ZM156.387 110.772L156.669 110.552L156.667 110.55L156.387 110.772ZM151.2 113.502L151.026 113.815L151.029 113.817L151.2 113.502ZM153.722 114.258L153.642 114.607L153.643 114.607L153.722 114.258ZM155.669 114.702L155.748 114.353L155.748 114.353L155.669 114.702ZM157.842 115.581L158.054 115.293L158.052 115.292L157.842 115.581ZM157.483 121.703L157.301 121.395L157.3 121.396L157.483 121.703ZM149.537 121.373L149.777 121.107L149.776 121.106L149.537 121.373ZM148.101 117.811V117.453H147.748L147.743 117.806L148.101 117.811ZM149.51 117.831C149.557 118.661 149.755 119.368 150.127 119.927L150.723 119.53C150.44 119.107 150.266 118.535 150.225 117.791L149.51 117.831ZM150.129 119.929C150.844 120.984 152.083 121.466 153.722 121.466V120.75C152.213 120.75 151.253 120.312 150.721 119.528L150.129 119.929ZM153.722 121.466C154.462 121.466 155.145 121.36 155.767 121.143L155.532 120.468C154.996 120.655 154.394 120.75 153.722 120.75V121.466ZM155.767 121.143C156.371 120.933 156.856 120.629 157.19 120.212C157.528 119.791 157.689 119.283 157.689 118.708H156.974C156.974 119.141 156.855 119.486 156.632 119.765C156.405 120.047 156.049 120.288 155.532 120.468L155.767 121.143ZM157.689 118.708C157.689 117.876 157.425 117.205 156.824 116.797L156.422 117.388C156.766 117.622 156.974 118.028 156.974 118.708H157.689ZM156.82 116.794C156.287 116.443 155.487 116.158 154.454 115.922L154.295 116.619C155.302 116.849 156.002 117.112 156.426 117.391L156.82 116.794ZM154.453 115.922L152.573 115.497L152.415 116.194L154.295 116.619L154.453 115.922ZM152.573 115.497C151.351 115.221 150.536 114.926 150.082 114.63L149.691 115.228C150.258 115.599 151.18 115.915 152.415 116.194L152.573 115.497ZM150.083 114.63C149.312 114.124 148.921 113.376 148.921 112.331H148.206C148.206 113.591 148.697 114.575 149.69 115.228L150.083 114.63ZM148.921 112.331C148.921 111.176 149.316 110.25 150.101 109.522L149.615 108.998C148.674 109.87 148.206 110.991 148.206 112.331H148.921ZM150.101 109.522C150.878 108.802 152.002 108.418 153.524 108.418V107.702C151.884 107.702 150.564 108.118 149.615 108.998L150.101 109.522ZM153.524 108.418C154.919 108.418 156.079 108.755 157.023 109.412L157.432 108.825C156.348 108.07 155.039 107.702 153.524 107.702V108.418ZM157.026 109.413C157.924 110.029 158.401 111.024 158.401 112.482H159.116C159.116 110.854 158.572 109.606 157.43 108.823L157.026 109.413ZM158.758 112.124H156.991V112.839H158.758V112.124ZM157.346 112.437C157.247 111.659 157.032 111.018 156.669 110.552L156.105 110.991C156.359 111.318 156.547 111.818 156.637 112.527L157.346 112.437ZM156.667 110.55C155.998 109.704 154.895 109.327 153.467 109.327V110.043C154.786 110.043 155.629 110.39 156.106 110.994L156.667 110.55ZM153.467 109.327C152.323 109.327 151.413 109.566 150.829 110.126L151.325 110.642C151.711 110.271 152.395 110.043 153.467 110.043V109.327ZM150.829 110.126C150.281 110.653 149.992 111.286 149.992 112.009H150.707C150.707 111.499 150.903 111.048 151.325 110.642L150.829 110.126ZM149.992 112.009C149.992 112.4 150.073 112.758 150.251 113.07C150.429 113.383 150.693 113.63 151.026 113.815L151.373 113.19C151.139 113.06 150.978 112.9 150.873 112.716C150.767 112.53 150.707 112.299 150.707 112.009H149.992ZM151.029 113.817C151.451 114.045 152.342 114.307 153.642 114.607L153.803 113.91C152.482 113.605 151.691 113.362 151.37 113.188L151.029 113.817ZM153.643 114.607L155.589 115.051L155.748 114.353L153.802 113.909L153.643 114.607ZM155.589 115.051C156.503 115.259 157.175 115.538 157.631 115.87L158.052 115.292C157.488 114.881 156.712 114.573 155.748 114.353L155.589 115.051ZM157.63 115.869C158.407 116.441 158.807 117.268 158.807 118.406H159.522C159.522 117.074 159.04 116.018 158.054 115.293L157.63 115.869ZM158.807 118.406C158.807 119.843 158.292 120.811 157.301 121.395L157.664 122.011C158.916 121.273 159.522 120.042 159.522 118.406H158.807ZM157.3 121.396C156.248 122.02 155.015 122.338 153.59 122.338V123.053C155.125 123.053 156.488 122.709 157.665 122.011L157.3 121.396ZM153.59 122.338C151.925 122.338 150.669 121.913 149.777 121.107L149.297 121.638C150.357 122.596 151.804 123.053 153.59 123.053V122.338ZM149.776 121.106C148.887 120.31 148.44 119.227 148.458 117.815L147.743 117.806C147.723 119.392 148.233 120.684 149.298 121.639L149.776 121.106ZM148.101 118.168H149.868V117.453H148.101V118.168ZM163.66 108.41V108.052H163.302V108.41H163.66ZM173.779 108.41H174.137V108.052H173.779V108.41ZM173.779 110.11V110.468H174.137V110.11H173.779ZM165.493 110.11V109.753H165.135V110.11H165.493ZM165.493 114.324H165.135V114.682H165.493V114.324ZM173.156 114.324H173.513V113.967H173.156V114.324ZM173.156 115.93V116.288H173.513V115.93H173.156ZM165.493 115.93V115.573H165.135V115.93H165.493ZM165.493 120.636H165.135V120.993H165.493V120.636ZM173.921 120.636H174.278V120.278H173.921V120.636ZM173.921 122.289V122.647H174.278V122.289H173.921ZM163.66 122.289H163.302V122.647H163.66V122.289ZM163.66 108.767H173.779V108.052H163.66V108.767ZM173.421 108.41V110.11H174.137V108.41H173.421ZM173.779 109.753H165.493V110.468H173.779V109.753ZM165.135 110.11V114.324H165.851V110.11H165.135ZM165.493 114.682H173.156V113.967H165.493V114.682ZM172.798 114.324V115.93H173.513V114.324H172.798ZM173.156 115.573H165.493V116.288H173.156V115.573ZM165.135 115.93V120.636H165.851V115.93H165.135ZM165.493 120.993H173.921V120.278H165.493V120.993ZM173.563 120.636V122.289H174.278V120.636H173.563ZM173.921 121.931H163.66V122.647H173.921V121.931ZM164.018 122.289V108.41H163.302V122.289H164.018ZM178.501 108.41V108.052H178.144V108.41H178.501ZM187.732 109.458L187.489 109.721L187.491 109.722L187.732 109.458ZM187.855 115.222L188.129 115.452L188.129 115.451L187.855 115.222ZM180.382 116.422V116.064H180.024V116.422H180.382ZM180.382 122.289V122.647H180.739V122.289H180.382ZM178.501 122.289H178.144V122.647H178.501V122.289ZM185.833 110.318L185.989 109.996L185.985 109.994L185.833 110.318ZM180.382 110.025V109.668H180.024V110.025H180.382ZM180.382 114.834H180.024V115.192H180.382V114.834ZM186.173 114.296L185.973 114L185.971 114.001L186.173 114.296ZM178.501 108.767H184.747V108.052H178.501V108.767ZM184.747 108.767C185.91 108.767 186.812 109.095 187.489 109.721L187.975 109.196C187.14 108.424 186.052 108.052 184.747 108.052V108.767ZM187.491 109.722C188.156 110.332 188.508 111.203 188.508 112.387H189.224C189.224 111.052 188.82 109.97 187.974 109.195L187.491 109.722ZM188.508 112.387C188.508 113.39 188.199 114.253 187.581 114.992L188.129 115.451C188.859 114.578 189.224 113.552 189.224 112.387H188.508ZM187.582 114.991C186.997 115.686 186.077 116.064 184.747 116.064V116.779C186.213 116.779 187.366 116.358 188.129 115.452L187.582 114.991ZM184.747 116.064H180.382V116.779H184.747V116.064ZM180.024 116.422V122.289H180.739V116.422H180.024ZM180.382 121.931H178.501V122.647H180.382V121.931ZM178.859 122.289V108.41H178.144V122.289H178.859ZM187.325 112.397C187.325 111.844 187.222 111.353 186.997 110.941C186.77 110.524 186.429 110.209 185.989 109.996L185.678 110.64C185.993 110.792 186.219 111.006 186.37 111.283C186.523 111.564 186.609 111.929 186.609 112.397H187.325ZM185.985 109.994C185.502 109.768 184.873 109.668 184.123 109.668V110.383C184.822 110.383 185.333 110.478 185.681 110.642L185.985 109.994ZM184.123 109.668H180.382V110.383H184.123V109.668ZM180.024 110.025V114.834H180.739V110.025H180.024ZM180.382 115.192H184.123V114.477H180.382V115.192ZM184.123 115.192C185.016 115.192 185.777 115.002 186.376 114.591L185.971 114.001C185.524 114.308 184.918 114.477 184.123 114.477V115.192ZM186.374 114.592C187.039 114.141 187.325 113.369 187.325 112.397H186.609C186.609 113.239 186.366 113.733 185.973 114L186.374 114.592ZM203.263 108.41H203.621V108.052H203.263V108.41ZM203.263 110.063V110.421H203.621V110.063H203.263ZM198.586 110.063V109.705H198.229V110.063H198.586ZM198.586 122.289V122.647H198.944V122.289H198.586ZM196.678 122.289H196.32V122.647H196.678V122.289ZM196.678 110.063H197.035V109.705H196.678V110.063ZM192.001 110.063H191.643V110.421H192.001V110.063ZM192.001 108.41V108.052H191.643V108.41H192.001ZM202.906 108.41V110.063H203.621V108.41H202.906ZM203.263 109.705H198.586V110.421H203.263V109.705ZM198.229 110.063V122.289H198.944V110.063H198.229ZM198.586 121.931H196.678V122.647H198.586V121.931ZM197.035 122.289V110.063H196.32V122.289H197.035ZM196.678 109.705H192.001V110.421H196.678V109.705ZM192.359 110.063V108.41H191.643V110.063H192.359ZM192.001 108.767H203.263V108.052H192.001V108.767ZM207.107 108.41V108.052H206.749V108.41H207.107ZM217.226 108.41H217.584V108.052H217.226V108.41ZM217.226 110.11V110.468H217.584V110.11H217.226ZM208.94 110.11V109.753H208.582V110.11H208.94ZM208.94 114.324H208.582V114.682H208.94V114.324ZM216.602 114.324H216.96V113.967H216.602V114.324ZM216.602 115.93V116.288H216.96V115.93H216.602ZM208.94 115.93V115.573H208.582V115.93H208.94ZM208.94 120.636H208.582V120.993H208.94V120.636ZM217.368 120.636H217.725V120.278H217.368V120.636ZM217.368 122.289V122.647H217.725V122.289H217.368ZM207.107 122.289H206.749V122.647H207.107V122.289ZM207.107 108.767H217.226V108.052H207.107V108.767ZM216.868 108.41V110.11H217.584V108.41H216.868ZM217.226 109.753H208.94V110.468H217.226V109.753ZM208.582 110.11V114.324H209.297V110.11H208.582ZM208.94 114.682H216.602V113.967H208.94V114.682ZM216.245 114.324V115.93H216.96V114.324H216.245ZM216.602 115.573H208.94V116.288H216.602V115.573ZM208.582 115.93V120.636H209.297V115.93H208.582ZM208.94 120.993H217.368V120.278H208.94V120.993ZM217.01 120.636V122.289H217.725V120.636H217.01ZM217.368 121.931H207.107V122.647H217.368V121.931ZM207.464 122.289V108.41H206.749V122.289H207.464ZM221.721 108.41V108.052H221.364V108.41H221.721ZM224.414 108.41L224.753 108.295L224.67 108.052H224.414V108.41ZM228.401 120.144L228.063 120.259L228.402 121.259L228.74 120.259L228.401 120.144ZM232.36 108.41V108.052H232.103L232.021 108.295L232.36 108.41ZM235.024 108.41H235.382V108.052H235.024V108.41ZM235.024 122.289V122.647H235.382V122.289H235.024ZM233.239 122.289H232.881V122.647H233.239V122.289ZM233.277 110.583H233.634L232.938 110.468L233.277 110.583ZM229.318 122.289V122.647H229.574L229.657 122.404L229.318 122.289ZM227.456 122.289L227.118 122.404L227.2 122.647H227.456V122.289ZM223.469 110.583L223.808 110.467L223.112 110.583H223.469ZM223.488 112.567L223.131 112.573L223.131 112.577L223.488 112.567ZM223.517 122.289V122.647H223.874V122.289H223.517ZM221.721 122.289H221.364V122.647H221.721V122.289ZM221.721 108.767H224.414V108.052H221.721V108.767ZM224.076 108.525L228.063 120.259L228.74 120.029L224.753 108.295L224.076 108.525ZM228.74 120.259L232.699 108.524L232.021 108.295L228.062 120.03L228.74 120.259ZM232.36 108.767H235.024V108.052H232.36V108.767ZM234.667 108.41V122.289H235.382V108.41H234.667ZM235.024 121.931H233.239V122.647H235.024V121.931ZM233.596 122.289V114.097H232.881V122.289H233.596ZM233.596 114.097C233.596 113.818 233.603 113.351 233.615 112.697L232.9 112.683C232.888 113.338 232.881 113.81 232.881 114.097H233.596ZM233.615 112.697C233.628 112.039 233.634 111.334 233.634 110.583H232.919C232.919 111.33 232.913 112.03 232.9 112.683L233.615 112.697ZM232.938 110.468L228.979 122.174L229.657 122.404L233.615 110.697L232.938 110.468ZM229.318 121.931H227.456V122.647H229.318V121.931ZM227.795 122.174L223.808 110.467L223.131 110.698L227.118 122.404L227.795 122.174ZM223.112 110.583V111.008H223.827V110.583H223.112ZM223.112 111.008C223.112 111.351 223.118 111.874 223.131 112.573L223.846 112.56C223.833 111.862 223.827 111.345 223.827 111.008H223.112ZM223.131 112.577C223.15 113.269 223.159 113.775 223.159 114.097H223.874C223.874 113.765 223.865 113.25 223.846 112.557L223.131 112.577ZM223.159 114.097V122.289H223.874V114.097H223.159ZM223.517 121.931H221.721V122.647H223.517V121.931ZM222.079 122.289V108.41H221.364V122.289H222.079ZM246.89 113.946L246.73 113.626L246.89 113.946ZM246.823 110.243L246.964 109.914L246.963 109.913L246.823 110.243ZM241.617 109.978V109.62H241.26V109.978H241.617ZM241.617 114.277H241.26V114.635H241.617V114.277ZM248.137 119.681L248.425 119.893L248.425 119.892L248.137 119.681ZM247.249 116.091L247.114 116.422L247.114 116.422L247.249 116.091ZM241.617 115.798V115.441H241.26V115.798H241.617ZM241.617 120.683H241.26V121.04H241.617V120.683ZM239.775 108.41V108.052H239.417V108.41H239.775ZM249.204 109.865L249.497 109.659L249.496 109.658L249.204 109.865ZM249.063 114.003L248.795 113.766L248.793 113.768L249.063 114.003ZM247.948 114.816L247.786 114.496L247.065 114.862L247.821 115.15L247.948 114.816ZM249.545 115.732L249.794 115.475L249.793 115.475L249.545 115.732ZM249.639 120.664L249.356 120.445L249.356 120.445L249.639 120.664ZM239.775 122.289H239.417V122.647H239.775V122.289ZM245.038 114.635C245.857 114.635 246.538 114.522 247.05 114.266L246.73 113.626C246.36 113.811 245.806 113.919 245.038 113.919V114.635ZM247.05 114.266C247.455 114.064 247.77 113.773 247.982 113.392C248.191 113.015 248.287 112.571 248.287 112.076H247.571C247.571 112.481 247.493 112.799 247.356 113.045C247.221 113.288 247.017 113.483 246.73 113.626L247.05 114.266ZM248.287 112.076C248.287 111.574 248.185 111.127 247.959 110.752C247.731 110.375 247.393 110.097 246.964 109.914L246.683 110.571C246.991 110.703 247.206 110.888 247.346 111.122C247.489 111.358 247.571 111.67 247.571 112.076H248.287ZM246.963 109.913C246.481 109.709 245.806 109.62 244.972 109.62V110.336C245.775 110.336 246.335 110.424 246.684 110.572L246.963 109.913ZM244.972 109.62H241.617V110.336H244.972V109.62ZM241.26 109.978V114.277H241.975V109.978H241.26ZM241.617 114.635H245.038V113.919H241.617V114.635ZM245.671 121.04C246.89 121.04 247.842 120.685 248.425 119.893L247.849 119.469C247.449 120.013 246.757 120.325 245.671 120.325V121.04ZM248.425 119.892C248.785 119.401 248.957 118.814 248.957 118.151H248.242C248.242 118.685 248.106 119.118 247.848 119.47L248.425 119.892ZM248.957 118.151C248.957 117.593 248.832 117.097 248.561 116.684C248.289 116.269 247.888 115.964 247.383 115.76L247.114 116.422C247.51 116.583 247.785 116.804 247.963 117.076C248.142 117.349 248.242 117.701 248.242 118.151H248.957ZM247.384 115.76C246.846 115.54 246.161 115.441 245.35 115.441V116.156C246.112 116.156 246.694 116.251 247.114 116.422L247.384 115.76ZM245.35 115.441H241.617V116.156H245.35V115.441ZM241.26 115.798V120.683H241.975V115.798H241.26ZM241.617 121.04H245.671V120.325H241.617V121.04ZM239.775 108.767H245.737V108.052H239.775V108.767ZM245.737 108.767C247.292 108.767 248.316 109.228 248.913 110.071L249.496 109.658C248.72 108.561 247.432 108.052 245.737 108.052V108.767ZM248.912 110.07C249.27 110.579 249.451 111.167 249.451 111.849H250.167C250.167 111.031 249.945 110.297 249.497 109.659L248.912 110.07ZM249.451 111.849C249.451 112.652 249.225 113.281 248.795 113.766L249.33 114.24C249.895 113.604 250.167 112.796 250.167 111.849H249.451ZM248.793 113.768C248.574 114.019 248.245 114.264 247.786 114.496L248.109 115.135C248.621 114.876 249.035 114.579 249.332 114.238L248.793 113.768ZM247.821 115.15C248.51 115.412 248.992 115.696 249.296 115.989L249.793 115.475C249.391 115.088 248.81 114.761 248.075 114.481L247.821 115.15ZM249.296 115.989C249.835 116.511 250.122 117.245 250.122 118.236H250.838C250.838 117.098 250.502 116.162 249.794 115.475L249.296 115.989ZM250.122 118.236C250.122 119.049 249.87 119.782 249.356 120.445L249.922 120.883C250.53 120.097 250.838 119.211 250.838 118.236H250.122ZM249.356 120.445C248.607 121.414 247.398 121.931 245.642 121.931V122.647C247.54 122.647 248.995 122.081 249.922 120.883L249.356 120.445ZM245.642 121.931H239.775V122.647H245.642V121.931ZM240.133 122.289V108.41H239.417V122.289H240.133ZM254.843 108.41V108.052H254.486V108.41H254.843ZM264.962 108.41H265.32V108.052H264.962V108.41ZM264.962 110.11V110.468H265.32V110.11H264.962ZM256.676 110.11V109.753H256.318V110.11H256.676ZM256.676 114.324H256.318V114.682H256.676V114.324ZM264.339 114.324H264.696V113.967H264.339V114.324ZM264.339 115.93V116.288H264.696V115.93H264.339ZM256.676 115.93V115.573H256.318V115.93H256.676ZM256.676 120.636H256.318V120.993H256.676V120.636ZM265.104 120.636H265.462V120.278H265.104V120.636ZM265.104 122.289V122.647H265.462V122.289H265.104ZM254.843 122.289H254.486V122.647H254.843V122.289ZM254.843 108.767H264.962V108.052H254.843V108.767ZM264.605 108.41V110.11H265.32V108.41H264.605ZM264.962 109.753H256.676V110.468H264.962V109.753ZM256.318 110.11V114.324H257.034V110.11H256.318ZM256.676 114.682H264.339V113.967H256.676V114.682ZM263.981 114.324V115.93H264.696V114.324H263.981ZM264.339 115.573H256.676V116.288H264.339V115.573ZM256.318 115.93V120.636H257.034V115.93H256.318ZM256.676 120.993H265.104V120.278H256.676V120.993ZM264.746 120.636V122.289H265.462V120.636H264.746ZM265.104 121.931H254.843V122.647H265.104V121.931ZM255.201 122.289V108.41H254.486V122.289H255.201ZM278.046 114.239L277.844 113.944L277.843 113.945L278.046 114.239ZM277.744 110.309L277.904 109.989L277.902 109.988L277.744 110.309ZM271.612 110.025V109.668H271.254V110.025H271.612ZM271.612 114.768H271.254V115.126H271.612V114.768ZM269.732 108.41V108.052H269.374V108.41H269.732ZM278.774 108.873L278.922 108.547L278.92 108.546L278.774 108.873ZM280.21 114.192L279.911 113.996L279.909 113.999L280.21 114.192ZM278.774 115.467L278.609 115.15L277.923 115.507L278.639 115.799L278.774 115.467ZM279.992 116.337L279.707 116.552L279.709 116.555L279.992 116.337ZM280.455 118.085L280.813 118.072L280.813 118.071L280.455 118.085ZM280.522 119.946L280.164 119.959V119.959L280.522 119.946ZM280.654 121.127L281 121.038L280.999 121.034L280.654 121.127ZM281.259 121.977H281.616V121.743L281.401 121.649L281.259 121.977ZM281.259 122.289V122.647H281.616V122.289H281.259ZM278.953 122.289L278.637 122.456L278.737 122.647H278.953V122.289ZM278.708 120.73L279.065 120.713L279.065 120.713L278.708 120.73ZM278.594 118.415L278.237 118.433L278.237 118.433L278.594 118.415ZM277.583 116.592L277.741 116.271L277.736 116.269L277.583 116.592ZM271.612 116.337V115.979H271.254V116.337H271.612ZM271.612 122.289V122.647H271.969V122.289H271.612ZM269.732 122.289H269.374V122.647H269.732V122.289ZM275.958 115.126C276.883 115.126 277.659 114.941 278.249 114.533L277.843 113.945C277.413 114.242 276.797 114.411 275.958 114.411V115.126ZM278.248 114.534C278.902 114.088 279.178 113.309 279.178 112.331H278.463C278.463 113.191 278.223 113.685 277.844 113.944L278.248 114.534ZM279.178 112.331C279.178 111.244 278.773 110.424 277.904 109.989L277.584 110.629C278.15 110.912 278.463 111.439 278.463 112.331H279.178ZM277.902 109.988C277.45 109.766 276.876 109.668 276.204 109.668V110.383C276.817 110.383 277.269 110.474 277.586 110.63L277.902 109.988ZM276.204 109.668H271.612V110.383H276.204V109.668ZM271.254 110.025V114.768H271.969V110.025H271.254ZM271.612 115.126H275.958V114.411H271.612V115.126ZM269.732 108.767H276.156V108.052H269.732V108.767ZM276.156 108.767C277.183 108.767 278.001 108.917 278.627 109.199L278.92 108.546C278.173 108.21 277.246 108.052 276.156 108.052V108.767ZM278.626 109.198C279.22 109.468 279.649 109.843 279.933 110.319C280.219 110.798 280.372 111.403 280.372 112.151H281.087C281.087 111.306 280.914 110.567 280.548 109.953C280.18 109.336 279.631 108.869 278.922 108.547L278.626 109.198ZM280.372 112.151C280.372 112.934 280.209 113.541 279.911 113.996L280.509 114.388C280.904 113.785 281.087 113.031 281.087 112.151H280.372ZM279.909 113.999C279.606 114.47 279.177 114.855 278.609 115.15L278.939 115.785C279.605 115.438 280.133 114.972 280.511 114.385L279.909 113.999ZM278.639 115.799C279.138 116.002 279.485 116.258 279.707 116.552L280.278 116.121C279.958 115.697 279.492 115.374 278.908 115.136L278.639 115.799ZM279.709 116.555C279.918 116.825 280.068 117.316 280.098 118.099L280.813 118.071C280.78 117.241 280.622 116.566 280.276 116.118L279.709 116.555ZM280.098 118.097L280.164 119.959L280.879 119.933L280.813 118.072L280.098 118.097ZM280.164 119.959C280.183 120.494 280.228 120.921 280.308 121.22L280.999 121.034C280.941 120.817 280.898 120.456 280.879 119.933L280.164 119.959ZM280.307 121.216C280.436 121.714 280.686 122.118 281.116 122.305L281.401 121.649C281.251 121.584 281.099 121.421 281 121.038L280.307 121.216ZM280.901 121.977V122.289H281.616V121.977H280.901ZM281.259 121.931H278.953V122.647H281.259V121.931ZM279.27 122.123C279.228 122.043 279.186 121.924 279.153 121.756L278.451 121.896C278.493 122.106 278.553 122.296 278.637 122.456L279.27 122.123ZM279.153 121.756C279.121 121.597 279.09 121.258 279.065 120.713L278.35 120.747C278.375 121.285 278.407 121.677 278.451 121.896L279.153 121.756ZM279.065 120.713L278.951 118.398L278.237 118.433L278.35 120.748L279.065 120.713ZM278.951 118.398C278.903 117.405 278.523 116.654 277.741 116.271L277.426 116.913C277.904 117.147 278.197 117.611 278.237 118.433L278.951 118.398ZM277.736 116.269C277.303 116.063 276.673 115.979 275.892 115.979V116.694C276.648 116.694 277.145 116.78 277.43 116.915L277.736 116.269ZM275.892 115.979H271.612V116.694H275.892V115.979ZM271.254 116.337V122.289H271.969V116.337H271.254ZM271.612 121.931H269.732V122.647H271.612V121.931ZM270.089 122.289V108.41H269.374V122.289H270.089Z" fill="white"/>
<rect y="0.828125" width="129" height="129" rx="6" fill="#242424"/>
<path d="M99.9702 84.0375H89.1142V64.0032L91.106 61.306C91.1142 61.2665 91.1142 61.2257 91.106 61.1861C91.106 61.1861 91.106 61.1861 91.106 61.0962C91.1526 60.9975 91.1785 60.8904 91.182 60.7816V53.5141C91.182 53.2756 91.0859 53.047 90.9148 52.8784C90.7438 52.7097 90.5117 52.615 90.2698 52.615H88.1716V47.3255L89.8593 44.7032C89.9483 44.5586 89.9956 44.3928 89.9961 44.2237V41.4816C89.9961 41.2431 89.9 41.0144 89.7289 40.8458C89.5578 40.6772 89.3258 40.5825 89.0838 40.5825H88.0347V31.367C88.2767 31.367 88.5087 31.2723 88.6798 31.1037C88.8509 30.9351 88.947 30.7064 88.947 30.468V27.0365C88.947 26.7981 88.8509 26.5694 88.6798 26.4008C88.5087 26.2322 88.2767 26.1374 88.0347 26.1374V22.3614C88.0325 21.5117 87.7497 20.6859 87.2289 20.0088L86.0277 18.4354V16.7272C86.0277 16.4887 85.9316 16.2601 85.7605 16.0915C85.5894 15.9228 85.3574 15.8281 85.1155 15.8281C84.8735 15.8281 84.6415 15.9228 84.4704 16.0915C84.2993 16.2601 84.2032 16.4887 84.2032 16.7272V18.4654L83.0629 20.0537C82.5942 20.7119 82.3444 21.4973 82.3483 22.3014V26.1674C82.1318 26.1929 81.9322 26.2952 81.7867 26.4551C81.6412 26.615 81.5598 26.8217 81.5576 27.0365V30.468C81.5598 30.6828 81.6412 30.8894 81.7867 31.0494C81.9322 31.2093 82.1318 31.3116 82.3483 31.3371V40.5825H81.284C81.042 40.5825 80.81 40.6772 80.6389 40.8458C80.4678 41.0144 80.3717 41.2431 80.3717 41.4816V43.2048H49.4763V41.4816C49.4763 41.2431 49.3802 41.0144 49.2091 40.8458C49.038 40.6772 48.8059 40.5825 48.564 40.5825H47.5149V31.367C47.7568 31.367 47.9889 31.2723 48.16 31.1037C48.331 30.9351 48.4272 30.7064 48.4272 30.468V27.0365C48.4272 26.7981 48.331 26.5694 48.16 26.4008C47.9889 26.2322 47.7568 26.1374 47.5149 26.1374V22.3614C47.5259 21.5168 47.2592 20.6915 46.7547 20.0088L45.5535 18.4354V16.7272C45.5535 16.4887 45.4574 16.2601 45.2863 16.0915C45.1152 15.9228 44.8832 15.8281 44.6413 15.8281C44.3993 15.8281 44.1673 15.9228 43.9962 16.0915C43.8251 16.2601 43.729 16.4887 43.729 16.7272V18.4654L42.5887 20.0537C42.1154 20.7106 41.8605 21.4959 41.8588 22.3014V26.1674C41.6424 26.1929 41.4428 26.2952 41.2973 26.4551C41.1518 26.615 41.0704 26.8217 41.0682 27.0365V30.468C41.0704 30.6828 41.1518 30.8894 41.2973 31.0494C41.4428 31.2093 41.6424 31.3116 41.8588 31.3371V40.5825H40.8097C40.5678 40.5825 40.3358 40.6772 40.1647 40.8458C39.9936 41.0144 39.8975 41.2431 39.8975 41.4816V44.2387C39.898 44.4078 39.9453 44.5736 40.0343 44.7182L41.722 47.3255V52.615H39.6238C39.504 52.615 39.3854 52.6383 39.2747 52.6835C39.164 52.7286 39.0634 52.7949 38.9787 52.8784C38.894 52.9618 38.8268 53.061 38.781 53.17C38.7351 53.2791 38.7115 53.396 38.7115 53.5141V60.7816C38.7156 60.943 38.7685 61.0996 38.8636 61.2311L40.6729 63.9882V84.0375H30.0298C29.9011 84.021 29.7704 84.0318 29.6463 84.069C29.5222 84.1063 29.4076 84.1692 29.3102 84.2536C29.2127 84.338 29.1346 84.4419 29.0812 84.5584C29.0277 84.6748 29 84.8012 29 84.9291C29 85.0569 29.0277 85.1833 29.0812 85.2998C29.1346 85.4162 29.2127 85.5201 29.3102 85.6045C29.4076 85.6889 29.5222 85.7518 29.6463 85.7891C29.7704 85.8263 29.9011 85.8371 30.0298 85.8206H99.9702C100.099 85.8371 100.23 85.8263 100.354 85.7891C100.478 85.7518 100.592 85.6889 100.69 85.6045C100.787 85.5201 100.865 85.4162 100.919 85.2998C100.972 85.1833 101 85.0569 101 84.9291C101 84.8012 100.972 84.6748 100.919 84.5584C100.865 84.4419 100.787 84.338 100.69 84.2536C100.592 84.1692 100.478 84.1063 100.354 84.069C100.23 84.0318 100.099 84.021 99.9702 84.0375ZM55.33 84.0375H48.5944V82.3592H55.3148L55.33 84.0375ZM55.33 80.5611H48.5944V64.0032L50.3125 61.6806H55.3148V80.5611H55.33ZM47.2108 62.8045H42.1933L41.4179 61.6806H48.1079L47.2108 62.8045ZM42.5583 64.6026H46.7547V80.5611H42.5583V64.6026ZM47.6365 47.7001H82.2114V52.5851H78.5928V50.697C78.6095 50.5702 78.5986 50.4414 78.5607 50.3191C78.5229 50.1968 78.4591 50.0839 78.3735 49.9878C78.2878 49.8918 78.1824 49.8148 78.0642 49.7621C77.9461 49.7094 77.8178 49.6821 77.6881 49.6821C77.5584 49.6821 77.4301 49.7094 77.312 49.7621C77.1938 49.8148 77.0884 49.8918 77.0027 49.9878C76.9171 50.0839 76.8533 50.1968 76.8155 50.3191C76.7776 50.4414 76.7667 50.5702 76.7834 50.697V52.5851H73.5297V50.697C73.5297 50.4586 73.4336 50.2299 73.2625 50.0613C73.0914 49.8927 72.8594 49.7979 72.6174 49.7979C72.3755 49.7979 72.1434 49.8927 71.9724 50.0613C71.8013 50.2299 71.7052 50.4586 71.7052 50.697V52.5851H68.4514V50.697C68.4514 50.4586 68.3553 50.2299 68.1842 50.0613C68.0131 49.8927 67.7811 49.7979 67.5391 49.7979C67.2972 49.7979 67.0652 49.8927 66.8941 50.0613C66.723 50.2299 66.6269 50.4586 66.6269 50.697V52.5851H63.3731V50.697C63.3731 50.4586 63.277 50.2299 63.1059 50.0613C62.9348 49.8927 62.7028 49.7979 62.4609 49.7979C62.2189 49.7979 61.9869 49.8927 61.8158 50.0613C61.6447 50.2299 61.5486 50.4586 61.5486 50.697V52.5851H58.2948V50.697C58.2948 50.4586 58.1987 50.2299 58.0276 50.0613C57.8566 49.8927 57.6245 49.7979 57.3826 49.7979C57.1406 49.7979 56.9086 49.8927 56.7375 50.0613C56.5664 50.2299 56.4703 50.4586 56.4703 50.697V52.5851H53.2166V50.697C53.2333 50.5702 53.2224 50.4414 53.1845 50.3191C53.1467 50.1968 53.0829 50.0839 52.9973 49.9878C52.9116 49.8918 52.8062 49.8148 52.688 49.7621C52.5699 49.7094 52.4416 49.6821 52.3119 49.6821C52.1822 49.6821 52.0539 49.7094 51.9357 49.7621C51.8176 49.8148 51.7121 49.8918 51.6265 49.9878C51.5409 50.0839 51.4771 50.1968 51.4392 50.3191C51.4014 50.4414 51.3905 50.5702 51.4072 50.697V52.5851H47.6365V47.7001ZM49.157 45.0329H80.7822L81.36 45.902H48.5488L49.157 45.0329ZM87.2897 80.5611H83.0781V64.6026H87.2897V80.5611ZM87.8067 62.8045H82.6524L81.8769 61.6806H88.5821L87.8067 62.8045ZM79.3074 54.4132V56.9306H50.7534V54.4132H79.3074ZM50.7534 58.7287H79.2466V59.8825H50.7534V58.7287ZM57.1241 61.7256H72.8759V69.9521C70.6946 68.0567 68.0898 66.6961 65.2737 65.9812C65.1334 65.9512 64.9882 65.9512 64.848 65.9812C62.0305 66.6523 59.4213 67.9894 57.2457 69.8771L57.1241 61.7256ZM74.6852 61.7256H79.6723L81.1927 64.0332V80.5611H74.6852V61.6806V61.7256ZM74.6852 82.4042H81.2535V84.0824H74.6852V82.4042ZM83.0781 82.4042H87.2897V84.0974H83.0781V82.4042ZM89.4639 54.4581V59.9275H81.0711V54.4132H89.4639V54.4581ZM84.0359 52.66V47.7001H86.2862V52.5851L84.0359 52.66ZM86.2102 40.6724H84.1728V31.367H86.2862L86.2102 40.6724ZM87.1529 28.0255V29.5689H83.3822V27.9356L87.1529 28.0255ZM84.5529 21.1776L85.1459 20.3534L85.7845 21.1776C86.062 21.5458 86.2113 21.9926 86.2102 22.4513V26.2274H84.1728V22.3014C84.1749 21.8687 84.3072 21.4463 84.5529 21.0877V21.1776ZM82.1962 42.3806H88.1716V43.969L86.9096 45.9319H83.4734L82.1962 43.969V42.3806ZM45.7056 40.5825H43.7138V31.367H45.6904L45.7056 40.5825ZM46.633 27.9356V29.5689H42.8471V27.9356H46.633ZM44.0483 21.0877L44.6413 20.2635L45.2646 21.0877C45.5466 21.4546 45.7012 21.9011 45.7056 22.3614V26.1374H43.7138V22.3014C43.6912 21.8741 43.8027 21.4503 44.0331 21.0877H44.0483ZM41.6764 43.969V42.3806H47.6517V43.969L46.3898 45.9319H42.9384L41.6764 43.969ZM43.5009 47.7001H45.8272V52.5851H43.5009V47.7001ZM42.5887 54.3832H48.9289V59.8525H40.5361V54.4132L42.5887 54.3832ZM42.5887 82.3292H46.7547V84.0075H42.5583L42.5887 82.3292ZM57.1545 73.863C57.1545 69.9521 63.7684 68.0341 65.0304 67.7044C67.4175 68.3337 72.9063 70.4915 72.9063 73.863V84.0075H57.1241L57.1545 73.863Z" fill="white"/>
<path d="M25.6229 110.547L27.0269 103.887H23.3729L21.9689 110.547H20.6549L23.6789 96.1469H24.9929L23.5889 102.807H27.2429L28.6469 96.1469H29.9609L26.9189 110.547H25.6229ZM32.9528 110.547L34.0328 105.507L33.4208 96.1469H34.7168L35.0408 103.761L38.5508 96.1469H39.9368L35.3468 105.507L34.2668 110.547H32.9528ZM40.311 110.547L43.371 96.1469H45.891C48.177 96.1469 49.509 97.1909 48.843 100.269L47.367 107.199C46.701 110.331 45.441 110.547 43.299 110.547H40.311ZM41.841 109.521H43.083C44.937 109.521 45.549 109.485 46.053 107.199L47.529 100.251C48.015 97.9469 47.547 97.1729 45.693 97.1729H44.469L41.841 109.521ZM50.6666 110.547L53.7266 96.1469H58.8386L58.6226 97.2269H54.8066L53.6186 102.807H57.2726L57.0566 103.887H53.4026L52.2146 109.467H56.0126L55.7786 110.547H50.6666ZM64.6041 110.547C64.4781 110.313 64.5501 109.809 64.6761 109.251L65.2161 106.677C65.7561 104.175 64.2081 103.995 63.3981 103.995H62.2281L60.8421 110.547H59.5281L62.5881 96.1469H65.1441C67.4841 96.1469 68.5281 97.4249 67.9881 99.9449L67.8621 100.539C67.5201 102.177 66.8721 103.077 65.1981 103.491C66.3861 103.923 66.8721 105.147 66.5121 106.821L65.9901 109.287C65.8641 109.881 65.7921 110.331 65.9001 110.547H64.6041ZM62.4441 102.969H63.5421C65.6481 102.969 66.1881 102.141 66.4761 100.755L66.6381 99.9989C67.1421 97.6229 66.5301 97.1729 64.8201 97.1729H63.6861L62.4441 102.969ZM68.9729 110.547L74.3009 96.1469H76.1729L75.3989 110.547H74.0849L74.3009 107.379H71.4389L70.3049 110.547H68.9729ZM71.8349 106.299H74.3729L74.9849 97.5329V97.4969L74.9669 97.5509L71.8349 106.299ZM78.9034 110.547L81.9634 96.1469H84.5194C86.9314 96.1469 87.7054 97.4609 87.1834 99.8009L87.0574 100.323C86.7514 101.691 86.1394 102.447 84.8794 102.825C85.9054 103.293 86.5354 104.319 86.1214 106.245L85.9594 106.965C85.3654 109.701 84.4114 110.547 82.2514 110.547H78.9034ZM80.4514 109.467H81.6214C83.7634 109.467 84.1594 109.089 84.6094 107.091L84.8254 106.119C85.2214 104.319 84.7174 103.383 82.8994 103.383H81.7474L80.4514 109.467ZM81.9634 102.303H83.1334C84.3394 102.303 85.3294 102.159 85.7074 100.449L85.8694 99.7469C86.3194 97.7309 85.7794 97.2269 84.2134 97.2269H83.0434L81.9634 102.303ZM88.2252 110.547L93.5532 96.1469H95.4252L94.6512 110.547H93.3372L93.5532 107.379H90.6912L89.5572 110.547H88.2252ZM91.0872 106.299H93.6252L94.2372 97.5329V97.4969L94.2192 97.5509L91.0872 106.299ZM98.1557 110.547L101.216 96.1469H103.736C106.022 96.1469 107.354 97.1909 106.688 100.269L105.212 107.199C104.546 110.331 103.286 110.547 101.144 110.547H98.1557ZM99.6857 109.521H100.928C102.782 109.521 103.394 109.485 103.898 107.199L105.374 100.251C105.86 97.9469 105.392 97.1729 103.538 97.1729H102.314L99.6857 109.521Z" fill="#EA337D"/>
<path d="M25.6229 110.547L24.8401 110.382L24.6366 111.347H25.6229V110.547ZM27.0269 103.887L27.8097 104.052L28.0131 103.087H27.0269V103.887ZM23.3729 103.887V103.087H22.7239L22.5901 103.722L23.3729 103.887ZM21.9689 110.547V111.347H22.6178L22.7517 110.712L21.9689 110.547ZM20.6549 110.547L19.8719 110.382L19.6694 111.347H20.6549V110.547ZM23.6789 96.1469V95.3469H23.0294L22.8959 95.9825L23.6789 96.1469ZM24.9929 96.1469L25.7757 96.3119L25.9791 95.3469H24.9929V96.1469ZM23.5889 102.807L22.8061 102.642L22.6026 103.607H23.5889V102.807ZM27.2429 102.807V103.607H27.8918L28.0257 102.972L27.2429 102.807ZM28.6469 96.1469V95.3469H27.9979L27.8641 95.9819L28.6469 96.1469ZM29.9609 96.1469L30.7436 96.3122L30.9475 95.3469H29.9609V96.1469ZM26.9189 110.547V111.347H27.5675L27.7016 110.712L26.9189 110.547ZM26.4057 110.712L27.8097 104.052L26.2441 103.722L24.8401 110.382L26.4057 110.712ZM27.0269 103.087H23.3729V104.687H27.0269V103.087ZM22.5901 103.722L21.1861 110.382L22.7517 110.712L24.1557 104.052L22.5901 103.722ZM21.9689 109.747H20.6549V111.347H21.9689V109.747ZM21.4378 110.711L24.4618 96.3113L22.8959 95.9825L19.8719 110.382L21.4378 110.711ZM23.6789 96.9469H24.9929V95.3469H23.6789V96.9469ZM24.2101 95.9819L22.8061 102.642L24.3717 102.972L25.7757 96.3119L24.2101 95.9819ZM23.5889 103.607H27.2429V102.007H23.5889V103.607ZM28.0257 102.972L29.4297 96.3119L27.8641 95.9819L26.4601 102.642L28.0257 102.972ZM28.6469 96.9469H29.9609V95.3469H28.6469V96.9469ZM29.1781 95.9815L26.1361 110.382L27.7016 110.712L30.7436 96.3122L29.1781 95.9815ZM26.9189 109.747H25.6229V111.347H26.9189V109.747ZM32.9528 110.547L32.1706 110.379L31.9632 111.347H32.9528V110.547ZM34.0328 105.507L34.815 105.674L34.8384 105.566L34.8311 105.455L34.0328 105.507ZM33.4208 96.1469V95.3469H32.5668L32.6225 96.1991L33.4208 96.1469ZM34.7168 96.1469L35.5161 96.1129L35.4835 95.3469H34.7168V96.1469ZM35.0408 103.761L34.2415 103.795L35.7673 104.096L35.0408 103.761ZM38.5508 96.1469V95.3469H38.0387L37.8243 95.812L38.5508 96.1469ZM39.9368 96.1469L40.6551 96.4991L41.2201 95.3469H39.9368V96.1469ZM35.3468 105.507L34.6285 105.155L34.5852 105.243L34.5646 105.339L35.3468 105.507ZM34.2668 110.547V111.347H34.9135L35.049 110.714L34.2668 110.547ZM33.735 110.714L34.815 105.674L33.2506 105.339L32.1706 110.379L33.735 110.714ZM34.8311 105.455L34.2191 96.0947L32.6225 96.1991L33.2345 105.559L34.8311 105.455ZM33.4208 96.9469H34.7168V95.3469H33.4208V96.9469ZM33.9175 96.1809L34.2415 103.795L35.8401 103.727L35.5161 96.1129L33.9175 96.1809ZM35.7673 104.096L39.2773 96.4818L37.8243 95.812L34.3143 103.426L35.7673 104.096ZM38.5508 96.9469H39.9368V95.3469H38.5508V96.9469ZM39.2185 95.7946L34.6285 105.155L36.0651 105.859L40.6551 96.4991L39.2185 95.7946ZM34.5646 105.339L33.4846 110.379L35.049 110.714L36.129 105.674L34.5646 105.339ZM34.2668 109.747H32.9528V111.347H34.2668V109.747ZM40.311 110.547L39.5285 110.381L39.3231 111.347H40.311V110.547ZM43.371 96.1469V95.3469H42.7231L42.5885 95.9806L43.371 96.1469ZM48.843 100.269L48.0611 100.1L48.0606 100.102L48.843 100.269ZM47.367 107.199L46.5846 107.032L46.5845 107.032L47.367 107.199ZM41.841 109.521L41.0585 109.354L40.8528 110.321H41.841V109.521ZM46.053 107.199L46.8343 107.371L46.8355 107.365L46.053 107.199ZM47.529 100.251L48.3115 100.417L48.3118 100.416L47.529 100.251ZM44.469 97.1729V96.3729H43.8214L43.6865 97.0063L44.469 97.1729ZM41.0935 110.713L44.1535 96.3132L42.5885 95.9806L39.5285 110.381L41.0935 110.713ZM43.371 96.9469H45.891V95.3469H43.371V96.9469ZM45.891 96.9469C46.9494 96.9469 47.5511 97.1939 47.8582 97.5643C48.1608 97.9292 48.3741 98.6532 48.0611 100.1L49.6249 100.438C49.9779 98.8065 49.8582 97.4696 49.0898 96.543C48.3259 95.6218 47.1187 95.3469 45.891 95.3469V96.9469ZM48.0606 100.102L46.5846 107.032L48.1495 107.366L49.6255 100.436L48.0606 100.102ZM46.5845 107.032C46.2661 108.53 45.8464 109.112 45.4417 109.382C45.0044 109.675 44.3953 109.747 43.299 109.747V111.347C44.3447 111.347 45.4367 111.311 46.3313 110.712C47.2587 110.092 47.8019 109 48.1495 107.365L46.5845 107.032ZM43.299 109.747H40.311V111.347H43.299V109.747ZM41.841 110.321H43.083V108.721H41.841V110.321ZM43.083 110.321C43.5354 110.321 43.9713 110.32 44.3536 110.274C44.7455 110.227 45.1475 110.127 45.5141 109.885C46.2543 109.398 46.582 108.515 46.8342 107.371L45.2718 107.027C45.02 108.168 44.7898 108.447 44.6344 108.549C44.5533 108.602 44.4231 108.654 44.1631 108.685C43.8935 108.718 43.5576 108.721 43.083 108.721V110.321ZM46.8355 107.365L48.3115 100.417L46.7465 100.085L45.2705 107.033L46.8355 107.365ZM48.3118 100.416C48.439 99.8128 48.5133 99.2682 48.5078 98.7889C48.5024 98.3101 48.4171 97.8419 48.1751 97.4372C47.6541 96.5663 46.6699 96.3729 45.693 96.3729V97.9729C46.5701 97.9729 46.7469 98.1665 46.8019 98.2585C46.8479 98.3354 46.9044 98.4926 46.9079 98.807C46.9115 99.1208 46.862 99.537 46.7462 100.086L48.3118 100.416ZM45.693 96.3729H44.469V97.9729H45.693V96.3729ZM43.6865 97.0063L41.0585 109.354L42.6235 109.687L45.2515 97.3394L43.6865 97.0063ZM50.6666 110.547L49.8841 110.381L49.6788 111.347H50.6666V110.547ZM53.7266 96.1469V95.3469H53.0788L52.9441 95.9806L53.7266 96.1469ZM58.8386 96.1469L59.6231 96.3038L59.8145 95.3469H58.8386V96.1469ZM58.6226 97.2269V98.0269H59.2785L59.4071 97.3838L58.6226 97.2269ZM54.8066 97.2269V96.4269H54.159L54.0242 97.0603L54.8066 97.2269ZM53.6186 102.807L52.8362 102.64L52.6304 103.607H53.6186V102.807ZM57.2726 102.807L58.0571 102.964L58.2485 102.007H57.2726V102.807ZM57.0566 103.887V104.687H57.7125L57.8411 104.044L57.0566 103.887ZM53.4026 103.887V103.087H52.755L52.6202 103.72L53.4026 103.887ZM52.2146 109.467L51.4322 109.3L51.2264 110.267H52.2146V109.467ZM56.0126 109.467L56.7945 109.636L57.0045 108.667H56.0126V109.467ZM55.7786 110.547V111.347H56.4239L56.5605 110.716L55.7786 110.547ZM51.4492 110.713L54.5092 96.3132L52.9441 95.9806L49.8841 110.381L51.4492 110.713ZM53.7266 96.9469H58.8386V95.3469H53.7266V96.9469ZM58.0542 95.99L57.8382 97.07L59.4071 97.3838L59.6231 96.3038L58.0542 95.99ZM58.6226 96.4269H54.8066V98.0269H58.6226V96.4269ZM54.0242 97.0603L52.8362 102.64L54.4011 102.973L55.5891 97.3935L54.0242 97.0603ZM53.6186 103.607H57.2726V102.007H53.6186V103.607ZM56.4882 102.65L56.2722 103.73L57.8411 104.044L58.0571 102.964L56.4882 102.65ZM57.0566 103.087H53.4026V104.687H57.0566V103.087ZM52.6202 103.72L51.4322 109.3L52.9971 109.633L54.1851 104.053L52.6202 103.72ZM52.2146 110.267H56.0126V108.667H52.2146V110.267ZM55.2308 109.297L54.9968 110.377L56.5605 110.716L56.7945 109.636L55.2308 109.297ZM55.7786 109.747H50.6666V111.347H55.7786V109.747ZM64.6041 110.547L63.8997 110.926L64.1263 111.347H64.6041V110.547ZM64.6761 109.251L65.4566 109.427L65.4591 109.415L64.6761 109.251ZM65.2161 106.677L64.4341 106.508L64.4332 106.513L65.2161 106.677ZM62.2281 103.995V103.195H61.5796L61.4454 103.829L62.2281 103.995ZM60.8421 110.547V111.347H61.4906L61.6248 110.712L60.8421 110.547ZM59.5281 110.547L58.7456 110.381L58.5403 111.347H59.5281V110.547ZM62.5881 96.1469V95.3469H61.9403L61.8056 95.9806L62.5881 96.1469ZM67.9881 99.9449L67.2059 99.7773L67.2055 99.7789L67.9881 99.9449ZM67.8621 100.539L67.0795 100.373L67.079 100.375L67.8621 100.539ZM65.1981 103.491L65.0061 102.714L62.4559 103.345L64.9247 104.243L65.1981 103.491ZM66.5121 106.821L65.73 106.653L65.7295 106.655L66.5121 106.821ZM65.9901 109.287L66.7727 109.453L66.7728 109.453L65.9901 109.287ZM65.9001 110.547V111.347H67.1945L66.6157 110.189L65.9001 110.547ZM62.4441 102.969L61.6619 102.801L61.4545 103.769H62.4441V102.969ZM66.4761 100.755L65.6939 100.587L65.6928 100.592L66.4761 100.755ZM66.6381 99.9989L67.4204 100.166L67.4207 100.165L66.6381 99.9989ZM63.6861 97.1729V96.3729H63.0394L62.9039 97.0053L63.6861 97.1729ZM65.3085 110.168C65.3451 110.235 65.3435 110.274 65.3404 110.244C65.3379 110.218 65.3364 110.167 65.3431 110.084C65.3565 109.916 65.3961 109.695 65.4565 109.427L63.8958 109.075C63.8302 109.365 63.7707 109.674 63.7482 109.957C63.729 110.197 63.7179 110.588 63.8997 110.926L65.3085 110.168ZM65.4591 109.415L65.9991 106.841L64.4332 106.513L63.8932 109.087L65.4591 109.415ZM65.9981 106.846C66.2994 105.45 66.0701 104.416 65.3316 103.788C64.6724 103.228 63.8156 103.195 63.3981 103.195V104.795C63.7906 104.795 64.1129 104.852 64.2952 105.007C64.3981 105.095 64.6729 105.402 64.4341 106.508L65.9981 106.846ZM63.3981 103.195H62.2281V104.795H63.3981V103.195ZM61.4454 103.829L60.0594 110.381L61.6248 110.712L63.0108 104.16L61.4454 103.829ZM60.8421 109.747H59.5281V111.347H60.8421V109.747ZM60.3106 110.713L63.3706 96.3132L61.8056 95.9806L58.7456 110.381L60.3106 110.713ZM62.5881 96.9469H65.1441V95.3469H62.5881V96.9469ZM65.1441 96.9469C66.189 96.9469 66.7385 97.2315 67.011 97.5873C67.2918 97.9539 67.4536 98.6212 67.2059 99.7773L68.7704 100.112C69.0626 98.7485 68.9724 97.5168 68.2812 96.6144C67.5818 95.7012 66.4392 95.3469 65.1441 95.3469V96.9469ZM67.2055 99.7789L67.0795 100.373L68.6447 100.705L68.7707 100.111L67.2055 99.7789ZM67.079 100.375C66.9205 101.134 66.7108 101.618 66.423 101.952C66.1464 102.274 65.7312 102.535 65.0061 102.714L65.3902 104.267C66.339 104.033 67.0848 103.637 67.6362 102.995C68.1765 102.367 68.4617 101.581 68.6452 100.702L67.079 100.375ZM64.9247 104.243C65.3028 104.38 65.5505 104.627 65.6916 104.984C65.8417 105.364 65.888 105.918 65.73 106.653L67.2942 106.989C67.4963 106.05 67.4796 105.155 67.1796 104.396C66.8708 103.615 66.2815 103.034 65.4715 102.739L64.9247 104.243ZM65.7295 106.655L65.2075 109.121L66.7728 109.453L67.2948 106.987L65.7295 106.655ZM65.2075 109.121C65.1443 109.419 65.0859 109.719 65.0609 109.983C65.0396 110.208 65.0209 110.577 65.1846 110.905L66.6157 110.189C66.6512 110.26 66.6503 110.303 66.6484 110.279C66.6469 110.26 66.6462 110.214 66.6538 110.134C66.6693 109.97 66.7099 109.749 66.7727 109.453L65.2075 109.121ZM65.9001 109.747H64.6041V111.347H65.9001V109.747ZM62.4441 103.769H63.5421V102.169H62.4441V103.769ZM63.5421 103.769C64.6825 103.769 65.5738 103.548 66.2179 102.983C66.8556 102.425 67.1066 101.653 67.2594 100.918L65.6928 100.592C65.5576 101.243 65.3947 101.578 65.1638 101.78C64.9394 101.976 64.5078 102.169 63.5421 102.169V103.769ZM67.2584 100.922L67.4204 100.166L65.8559 99.8313L65.6939 100.587L67.2584 100.922ZM67.4207 100.165C67.5527 99.5425 67.6232 98.9966 67.6067 98.5269C67.5901 98.0544 67.4833 97.5976 67.2019 97.2183C66.9137 96.8297 66.5154 96.6202 66.1075 96.5087C65.7139 96.401 65.2704 96.3729 64.8201 96.3729V97.9729C65.2248 97.9729 65.499 98.001 65.6854 98.052C65.8575 98.099 65.9013 98.1505 65.9168 98.1715C65.9392 98.2016 65.9978 98.3028 66.0076 98.583C66.0176 98.8659 65.9755 99.2673 65.8555 99.8329L67.4207 100.165ZM64.8201 96.3729H63.6861V97.9729H64.8201V96.3729ZM62.9039 97.0053L61.6619 102.801L63.2264 103.136L64.4684 97.3405L62.9039 97.0053ZM68.9729 110.547L68.2226 110.269L67.8239 111.347H68.9729V110.547ZM74.3009 96.1469V95.3469H73.7439L73.5506 95.8693L74.3009 96.1469ZM76.1729 96.1469L76.9718 96.1898L77.0171 95.3469H76.1729V96.1469ZM75.3989 110.547V111.347H76.1571L76.1978 110.59L75.3989 110.547ZM74.0849 110.547L73.2868 110.492L73.2285 111.347H74.0849V110.547ZM74.3009 107.379L75.0991 107.433L75.1573 106.579H74.3009V107.379ZM71.4389 107.379V106.579H70.8756L70.6857 107.109L71.4389 107.379ZM70.3049 110.547V111.347H70.8683L71.0581 110.816L70.3049 110.547ZM71.8349 106.299L71.0817 106.029L70.6988 107.099H71.8349V106.299ZM74.3729 106.299V107.099H75.119L75.171 106.355L74.3729 106.299ZM74.9849 97.5329L75.783 97.5886L75.7849 97.5608V97.5329H74.9849ZM74.9849 97.4969H75.7849L74.226 97.2439L74.9849 97.4969ZM74.9669 97.5509L75.7201 97.8205L75.7231 97.8122L75.7259 97.8039L74.9669 97.5509ZM69.7232 110.824L75.0512 96.4245L73.5506 95.8693L68.2226 110.269L69.7232 110.824ZM74.3009 96.9469H76.1729V95.3469H74.3009V96.9469ZM75.3741 96.1039L74.6001 110.504L76.1978 110.59L76.9718 96.1898L75.3741 96.1039ZM75.3989 109.747H74.0849V111.347H75.3989V109.747ZM74.8831 110.601L75.0991 107.433L73.5028 107.324L73.2868 110.492L74.8831 110.601ZM74.3009 106.579H71.4389V108.179H74.3009V106.579ZM70.6857 107.109L69.5517 110.277L71.0581 110.816L72.1921 107.648L70.6857 107.109ZM70.3049 109.747H68.9729V111.347H70.3049V109.747ZM71.8349 107.099H74.3729V105.499H71.8349V107.099ZM75.171 106.355L75.783 97.5886L74.1869 97.4772L73.5749 106.243L75.171 106.355ZM75.7849 97.5329V97.4969H74.1849V97.5329H75.7849ZM74.226 97.2439L74.208 97.2979L75.7259 97.8039L75.7439 97.7499L74.226 97.2439ZM74.2137 97.2812L71.0817 106.029L72.5881 106.569L75.7201 97.8205L74.2137 97.2812ZM78.9034 110.547L78.1209 110.381L77.9156 111.347H78.9034V110.547ZM81.9634 96.1469V95.3469H81.3156L81.1809 95.9806L81.9634 96.1469ZM87.1834 99.8009L87.9612 99.9886L87.9642 99.9751L87.1834 99.8009ZM87.0574 100.323L86.2797 100.135L86.2767 100.148L87.0574 100.323ZM84.8794 102.825L84.6496 102.059L82.612 102.67L84.5474 103.553L84.8794 102.825ZM86.1214 106.245L86.902 106.42L86.9036 106.413L86.1214 106.245ZM85.9594 106.965L85.1789 106.789L85.1776 106.795L85.9594 106.965ZM80.4514 109.467L79.669 109.3L79.4631 110.267H80.4514V109.467ZM84.6094 107.091L85.3899 107.267L85.3904 107.264L84.6094 107.091ZM84.8254 106.119L85.6064 106.292L85.6067 106.291L84.8254 106.119ZM81.7474 103.383V102.583H81.0999L80.965 103.216L81.7474 103.383ZM81.9634 102.303L81.1809 102.136L80.9753 103.103H81.9634V102.303ZM85.7074 100.449L84.9279 100.269L84.9263 100.276L85.7074 100.449ZM85.8694 99.7469L86.649 99.9268L86.6502 99.9212L85.8694 99.7469ZM83.0434 97.2269V96.4269H82.3957L82.2609 97.0604L83.0434 97.2269ZM79.686 110.713L82.746 96.3132L81.1809 95.9806L78.1209 110.381L79.686 110.713ZM81.9634 96.9469H84.5194V95.3469H81.9634V96.9469ZM84.5194 96.9469C85.6029 96.9469 86.0786 97.2406 86.2938 97.5516C86.5322 97.8961 86.6469 98.5317 86.4026 99.6267L87.9642 99.9751C88.242 98.7301 88.2306 97.5387 87.6095 96.6411C86.9653 95.7102 85.8479 95.3469 84.5194 95.3469V96.9469ZM86.4058 99.6132L86.2798 100.135L87.8351 100.511L87.9611 99.9886L86.4058 99.6132ZM86.2767 100.148C86.1407 100.756 85.9533 101.151 85.7185 101.425C85.4908 101.691 85.1675 101.903 84.6496 102.059L85.1093 103.591C85.8513 103.369 86.464 103.014 86.9338 102.465C87.3966 101.925 87.6682 101.257 87.8381 100.498L86.2767 100.148ZM84.5474 103.553C84.9068 103.717 85.1586 103.955 85.3031 104.299C85.4541 104.657 85.5241 105.217 85.3393 106.077L86.9036 106.413C87.1328 105.347 87.0947 104.431 86.7777 103.678C86.4542 102.909 85.878 102.401 85.2114 102.097L84.5474 103.553ZM85.3409 106.069L85.1789 106.789L86.7399 107.14L86.9019 106.42L85.3409 106.069ZM85.1776 106.795C84.8893 108.123 84.5441 108.82 84.1417 109.202C83.7711 109.554 83.2348 109.747 82.2514 109.747V111.347C83.4281 111.347 84.4488 111.117 85.2436 110.362C86.0068 109.637 86.4356 108.542 86.7412 107.135L85.1776 106.795ZM82.2514 109.747H78.9034V111.347H82.2514V109.747ZM80.4514 110.267H81.6214V108.667H80.4514V110.267ZM81.6214 110.267C82.67 110.267 83.5853 110.194 84.2549 109.649C84.9215 109.106 85.1721 108.233 85.3899 107.267L83.829 106.915C83.5967 107.946 83.4244 108.262 83.245 108.408C83.0686 108.551 82.7149 108.667 81.6214 108.667V110.267ZM85.3904 107.264L85.6064 106.292L84.0445 105.945L83.8285 106.917L85.3904 107.264ZM85.6067 106.291C85.8155 105.342 85.8512 104.377 85.3598 103.634C84.8365 102.844 83.9145 102.583 82.8994 102.583V104.183C83.7023 104.183 83.9414 104.39 84.0255 104.517C84.1416 104.693 84.2314 105.096 84.0441 105.947L85.6067 106.291ZM82.8994 102.583H81.7474V104.183H82.8994V102.583ZM80.965 103.216L79.669 109.3L81.2339 109.634L82.5299 103.55L80.965 103.216ZM81.9634 103.103H83.1334V101.503H81.9634V103.103ZM83.1334 103.103C83.732 103.103 84.4757 103.077 85.1221 102.715C85.8262 102.32 86.2674 101.622 86.4886 100.622L84.9263 100.276C84.7695 100.986 84.5266 101.215 84.3397 101.319C84.0952 101.456 83.7408 101.503 83.1334 101.503V103.103ZM86.4869 100.629L86.6489 99.9268L85.0899 99.567L84.9279 100.269L86.4869 100.629ZM86.6502 99.9212C86.7699 99.3852 86.8355 98.9011 86.8202 98.4741C86.8048 98.0433 86.705 97.6192 86.4448 97.2608C85.9155 96.532 84.9983 96.4269 84.2134 96.4269V98.0269C84.9946 98.0269 85.1303 98.1737 85.1501 98.201C85.1643 98.2205 85.213 98.3005 85.2213 98.5312C85.2296 98.7657 85.194 99.1006 85.0886 99.5726L86.6502 99.9212ZM84.2134 96.4269H83.0434V98.0269H84.2134V96.4269ZM82.2609 97.0604L81.1809 102.136L82.7459 102.469L83.8259 97.3934L82.2609 97.0604ZM88.2252 110.547L87.4749 110.269L87.0762 111.347H88.2252V110.547ZM93.5532 96.1469V95.3469H92.9962L92.8029 95.8693L93.5532 96.1469ZM95.4252 96.1469L96.224 96.1898L96.2693 95.3469H95.4252V96.1469ZM94.6512 110.547V111.347H95.4093L95.45 110.59L94.6512 110.547ZM93.3372 110.547L92.539 110.492L92.4808 111.347H93.3372V110.547ZM93.5532 107.379L94.3513 107.433L94.4096 106.579H93.5532V107.379ZM90.6912 107.379V106.579H90.1278L89.938 107.109L90.6912 107.379ZM89.5572 110.547V111.347H90.1205L90.3104 110.816L89.5572 110.547ZM91.0872 106.299L90.334 106.029L89.951 107.099H91.0872V106.299ZM93.6252 106.299V107.099H94.3713L94.4232 106.355L93.6252 106.299ZM94.2372 97.5329L95.0352 97.5886L95.0372 97.5608V97.5329H94.2372ZM94.2372 97.4969H95.0372L93.4782 97.2439L94.2372 97.4969ZM94.2192 97.5509L94.9724 97.8205L94.9753 97.8122L94.9781 97.8039L94.2192 97.5509ZM88.9755 110.824L94.3035 96.4245L92.8029 95.8693L87.4749 110.269L88.9755 110.824ZM93.5532 96.9469H95.4252V95.3469H93.5532V96.9469ZM94.6263 96.1039L93.8523 110.504L95.45 110.59L96.224 96.1898L94.6263 96.1039ZM94.6512 109.747H93.3372V111.347H94.6512V109.747ZM94.1353 110.601L94.3513 107.433L92.755 107.324L92.539 110.492L94.1353 110.601ZM93.5532 106.579H90.6912V108.179H93.5532V106.579ZM89.938 107.109L88.804 110.277L90.3104 110.816L91.4444 107.648L89.938 107.109ZM89.5572 109.747H88.2252V111.347H89.5572V109.747ZM91.0872 107.099H93.6252V105.499H91.0872V107.099ZM94.4232 106.355L95.0352 97.5886L93.4391 97.4772L92.8271 106.243L94.4232 106.355ZM95.0372 97.5329V97.4969H93.4372V97.5329H95.0372ZM93.4782 97.2439L93.4602 97.2979L94.9781 97.8039L94.9961 97.7499L93.4782 97.2439ZM93.466 97.2812L90.334 106.029L91.8404 106.569L94.9724 97.8205L93.466 97.2812ZM98.1557 110.547L97.3732 110.381L97.1678 111.347H98.1557V110.547ZM101.216 96.1469V95.3469H100.568L100.433 95.9806L101.216 96.1469ZM106.688 100.269L105.906 100.1L105.905 100.102L106.688 100.269ZM105.212 107.199L104.429 107.032L104.429 107.032L105.212 107.199ZM99.6857 109.521L98.9032 109.354L98.6975 110.321H99.6857V109.521ZM103.898 107.199L104.679 107.371L104.68 107.365L103.898 107.199ZM105.374 100.251L106.156 100.417L106.156 100.416L105.374 100.251ZM102.314 97.1729V96.3729H101.666L101.531 97.0063L102.314 97.1729ZM98.9382 110.713L101.998 96.3132L100.433 95.9806L97.3732 110.381L98.9382 110.713ZM101.216 96.9469H103.736V95.3469H101.216V96.9469ZM103.736 96.9469C104.794 96.9469 105.396 97.1939 105.703 97.5643C106.005 97.9292 106.219 98.6532 105.906 100.1L107.47 100.438C107.823 98.8065 107.703 97.4696 106.935 96.543C106.171 95.6218 104.963 95.3469 103.736 95.3469V96.9469ZM105.905 100.102L104.429 107.032L105.994 107.366L107.47 100.436L105.905 100.102ZM104.429 107.032C104.111 108.53 103.691 109.112 103.286 109.382C102.849 109.675 102.24 109.747 101.144 109.747V111.347C102.189 111.347 103.281 111.311 104.176 110.712C105.103 110.092 105.647 109 105.994 107.365L104.429 107.032ZM101.144 109.747H98.1557V111.347H101.144V109.747ZM99.6857 110.321H100.928V108.721H99.6857V110.321ZM100.928 110.321C101.38 110.321 101.816 110.32 102.198 110.274C102.59 110.227 102.992 110.127 103.359 109.885C104.099 109.398 104.427 108.515 104.679 107.371L103.116 107.027C102.865 108.168 102.634 108.447 102.479 108.549C102.398 108.602 102.268 108.654 102.008 108.685C101.738 108.718 101.402 108.721 100.928 108.721V110.321ZM104.68 107.365L106.156 100.417L104.591 100.085L103.115 107.033L104.68 107.365ZM106.156 100.416C106.284 99.8128 106.358 99.2682 106.353 98.7889C106.347 98.3101 106.262 97.8419 106.02 97.4372C105.499 96.5663 104.515 96.3729 103.538 96.3729V97.9729C104.415 97.9729 104.592 98.1665 104.647 98.2585C104.693 98.3354 104.749 98.4926 104.753 98.807C104.756 99.1208 104.707 99.537 104.591 100.086L106.156 100.416ZM103.538 96.3729H102.314V97.9729H103.538V96.3729ZM101.531 97.0063L98.9032 109.354L100.468 109.687L103.096 97.3394L101.531 97.0063Z" fill="#EA337D"/>
</svg>
