<svg width="51" height="51" viewBox="0 0 51 51" fill="none" xmlns="http://www.w3.org/2000/svg">
<path d="M25.665 50.4766C39.477 50.4766 50.6738 39.2837 50.6738 25.4766C50.6738 11.6694 39.477 0.476562 25.665 0.476562C11.8531 0.476562 0.65625 11.6694 0.65625 25.4766C0.65625 39.2837 11.8531 50.4766 25.665 50.4766Z" fill="#B4B4B4" fill-opacity="0.2"/>
<path d="M25.9491 18.8796C28.4449 18.8796 28.7409 18.889 29.727 18.9341C32.2602 19.0494 33.4435 20.2509 33.5587 22.7645C33.6039 23.7495 33.6125 24.0454 33.6125 26.5403C33.6125 29.036 33.6031 29.3311 33.5587 30.3162C33.4427 32.8275 32.2625 34.0313 29.727 34.1465C28.7409 34.1917 28.4464 34.2011 25.9491 34.2011C23.4533 34.2011 23.1573 34.1917 22.1719 34.1465C19.6325 34.0305 18.4555 32.8236 18.3402 30.3154C18.295 29.3304 18.2857 29.0352 18.2857 26.5396C18.2857 24.0446 18.2958 23.7495 18.3402 22.7637C18.4563 20.2509 19.6364 19.0486 22.1719 18.9333C23.1581 18.889 23.4533 18.8796 25.9491 18.8796ZM25.9491 17.1953C23.4104 17.1953 23.0926 17.2062 22.0956 17.2514C18.7009 17.4071 16.8142 19.29 16.6584 22.6866C16.6125 23.6841 16.6016 24.0018 16.6016 26.5396C16.6016 29.0773 16.6125 29.3958 16.6576 30.3925C16.8134 33.786 18.697 35.672 22.0948 35.8277C23.0926 35.8729 23.4104 35.8838 25.9491 35.8838C28.4877 35.8838 28.8063 35.8729 29.8034 35.8277C33.195 35.672 35.0863 33.7891 35.2397 30.3925C35.2857 29.3958 35.2966 29.0773 35.2966 26.5396C35.2966 24.0018 35.2857 23.6841 35.2405 22.6874C35.0878 19.297 33.202 17.4079 29.8042 17.2522C28.8063 17.2062 28.4877 17.1953 25.9491 17.1953ZM25.9491 21.7413C23.2983 21.7413 21.1491 23.8897 21.1491 26.5396C21.1491 29.1894 23.2983 31.3386 25.9491 31.3386C28.5999 31.3386 30.749 29.1902 30.749 26.5396C30.749 23.8897 28.5999 21.7413 25.9491 21.7413ZM25.9491 29.6543C24.2284 29.6543 22.8332 28.2605 22.8332 26.5396C22.8332 24.8194 24.2284 23.4248 25.9491 23.4248C27.6698 23.4248 29.0649 24.8194 29.0649 26.5396C29.0649 28.2605 27.6698 29.6543 25.9491 29.6543ZM30.9391 20.4308C30.319 20.4308 29.8166 20.933 29.8166 21.5521C29.8166 22.1711 30.319 22.6734 30.9391 22.6734C31.5584 22.6734 32.06 22.1711 32.06 21.5521C32.06 20.933 31.5584 20.4308 30.9391 20.4308Z" fill="#EA337D"/>
</svg>
