<svg width="51" height="50" viewBox="0 0 51 50" fill="none" xmlns="http://www.w3.org/2000/svg">
<path d="M25.665 50C39.477 50 50.6738 38.8071 50.6738 25C50.6738 11.1929 39.477 0 25.665 0C11.8531 0 0.65625 11.1929 0.65625 25C0.65625 38.8071 11.8531 50 25.665 50Z" fill="#1E1F20"/>
<path d="M25.9491 18.405C28.4449 18.405 28.7409 18.4143 29.727 18.4595C32.2602 18.5748 33.4435 19.7763 33.5587 22.2899C33.6039 23.2749 33.6125 23.5708 33.6125 26.0657C33.6125 28.5614 33.6031 28.8565 33.5587 29.8416C33.4427 32.3528 32.2625 33.5567 29.727 33.6719C28.7409 33.7171 28.4464 33.7264 25.9491 33.7264C23.4533 33.7264 23.1573 33.7171 22.1719 33.6719C19.6325 33.5559 18.4555 32.3489 18.3402 29.8408C18.295 28.8558 18.2857 28.5606 18.2857 26.0649C18.2857 23.57 18.2958 23.2749 18.3402 22.2891C18.4563 19.7763 19.6364 18.574 22.1719 18.4587C23.1581 18.4143 23.4533 18.405 25.9491 18.405ZM25.9491 16.7207C23.4104 16.7207 23.0926 16.7316 22.0956 16.7768C18.7009 16.9325 16.8142 18.8154 16.6584 22.212C16.6125 23.2095 16.6016 23.5272 16.6016 26.0649C16.6016 28.6027 16.6125 28.9212 16.6576 29.9179C16.8134 33.3114 18.697 35.1974 22.0948 35.3531C23.0926 35.3983 23.4104 35.4092 25.9491 35.4092C28.4877 35.4092 28.8063 35.3983 29.8034 35.3531C33.195 35.1974 35.0863 33.3145 35.2397 29.9179C35.2857 28.9212 35.2966 28.6027 35.2966 26.0649C35.2966 23.5272 35.2857 23.2095 35.2405 22.2128C35.0878 18.8224 33.202 16.9333 29.8042 16.7775C28.8063 16.7316 28.4877 16.7207 25.9491 16.7207ZM25.9491 21.2667C23.2983 21.2667 21.1491 23.4151 21.1491 26.0649C21.1491 28.7148 23.2983 30.864 25.9491 30.864C28.5999 30.864 30.749 28.7156 30.749 26.0649C30.749 23.4151 28.5999 21.2667 25.9491 21.2667ZM25.9491 29.1797C24.2284 29.1797 22.8332 27.7858 22.8332 26.0649C22.8332 24.3448 24.2284 22.9502 25.9491 22.9502C27.6698 22.9502 29.0649 24.3448 29.0649 26.0649C29.0649 27.7858 27.6698 29.1797 25.9491 29.1797ZM30.9391 19.9561C30.319 19.9561 29.8166 20.4584 29.8166 21.0775C29.8166 21.6965 30.319 22.1988 30.9391 22.1988C31.5584 22.1988 32.06 21.6965 32.06 21.0775C32.06 20.4584 31.5584 19.9561 30.9391 19.9561Z" fill="white"/>
</svg>
