<svg width="51" height="51" viewBox="0 0 51 51" fill="none" xmlns="http://www.w3.org/2000/svg">
<path d="M25.3369 50.4766C39.1488 50.4766 50.3456 39.2837 50.3456 25.4766C50.3456 11.6694 39.1488 0.476562 25.3369 0.476562C11.5249 0.476562 0.328125 11.6694 0.328125 25.4766C0.328125 39.2837 11.5249 50.4766 25.3369 50.4766Z" fill="#B4B4B4" fill-opacity="0.2"/>
<path d="M34.1298 25.4726V30.9526C34.1396 31.6427 33.9295 32.3179 33.5297 32.8805C33.13 33.4432 32.5614 33.864 31.9065 34.0819C31.5658 34.2038 31.2067 34.2658 30.8449 34.2651H19.8589C19.4247 34.2703 18.9937 34.1891 18.5912 34.0262C18.1887 33.8633 17.8226 33.6219 17.5143 33.3161C17.2061 33.0103 16.9618 32.6462 16.7957 32.2451C16.6296 31.844 16.545 31.4138 16.5469 30.9797V19.9688C16.5448 19.2002 16.8139 18.4555 17.3068 17.8655C17.7997 17.2756 18.4849 16.8783 19.2419 16.7434C19.473 16.6988 19.7081 16.6776 19.9435 16.6802H30.7406C31.4895 16.6674 32.221 16.907 32.8172 17.3604C33.4134 17.8138 33.8395 18.4545 34.0271 19.1795C34.0974 19.4849 34.1305 19.7976 34.1257 20.1109C34.1284 21.8982 34.1298 23.6854 34.1298 25.4726ZM26.0351 24.4747V23.6435C26.0351 23.4727 25.9956 23.4152 25.8149 23.4168C25.0365 23.4261 24.2601 23.4261 23.4856 23.4168C23.3065 23.4168 23.2588 23.4718 23.2588 23.6452C23.2681 26.2313 23.2728 28.8182 23.2728 31.406C23.2728 31.5612 23.3221 31.6031 23.47 31.6031H25.8313C26.0162 31.6031 26.0515 31.5399 26.0499 31.3732V28.9502C26.0499 28.211 26.0499 27.4759 26.068 26.74C26.0743 26.543 26.1214 26.3496 26.2062 26.1717C26.2911 25.9939 26.4118 25.8356 26.5609 25.7067C26.7121 25.5533 26.9013 25.4428 27.1092 25.3866C27.3171 25.3303 27.5362 25.3303 27.7441 25.3866C27.952 25.4428 28.1412 25.5533 28.2924 25.7067C28.4435 25.86 28.5512 26.0508 28.6043 26.2595C28.6881 26.5866 28.7252 26.924 28.7144 27.2615C28.7144 28.6389 28.7144 30.0056 28.7144 31.3773C28.7144 31.5547 28.7637 31.604 28.9387 31.6015C29.6905 31.6015 30.4448 31.59 31.1974 31.6015C31.4077 31.6015 31.4767 31.558 31.4751 31.3337C31.4636 29.9851 31.4751 28.6373 31.4751 27.2886C31.4855 26.8496 31.4643 26.4104 31.4118 25.9745C31.3745 25.3217 31.1148 24.7013 30.676 24.2165C30.2371 23.7316 29.6456 23.4115 28.9995 23.3092C28.4841 23.1856 27.9433 23.2195 27.4474 23.4065C26.9514 23.5935 26.5229 23.925 26.2175 24.3581C26.2018 24.3928 26.1763 24.4222 26.1443 24.4427C26.1122 24.4633 26.0748 24.4741 26.0367 24.4739L26.0351 24.4747ZM21.9828 27.5137V23.6558C21.9828 23.4727 21.9335 23.416 21.7462 23.4176C20.9859 23.4269 20.2259 23.4269 19.4662 23.4176C19.2928 23.4176 19.2377 23.4653 19.2377 23.6419C19.2471 26.2203 19.2517 28.7974 19.2517 31.3732C19.2517 31.5465 19.301 31.6056 19.4785 31.6031C20.2388 31.5938 20.9988 31.5938 21.7585 31.6031C21.9557 31.6031 21.9927 31.544 21.991 31.3633C21.9771 30.0804 21.9812 28.795 21.9812 27.5096L21.9828 27.5137ZM19.0751 20.9824C19.0738 21.1715 19.1117 21.3588 19.1862 21.5326C19.2608 21.7063 19.3705 21.8628 19.5084 21.9923C19.6464 22.1217 19.8096 22.2212 19.9878 22.2846C20.166 22.3479 20.3554 22.3738 20.5441 22.3606C20.7349 22.3745 20.9264 22.3493 21.1071 22.2866C21.2878 22.2239 21.4538 22.1251 21.5949 21.996C21.736 21.867 21.8493 21.7106 21.9279 21.5363C22.0065 21.362 22.0486 21.1735 22.0518 20.9824C22.0532 20.7916 22.0147 20.6026 21.9389 20.4275C21.8631 20.2524 21.7516 20.0951 21.6114 19.9655C21.4713 19.836 21.3057 19.7371 21.1252 19.6751C20.9447 19.6132 20.7532 19.5896 20.563 19.6058C20.3734 19.5921 20.183 19.6174 20.0037 19.6803C19.8243 19.7432 19.6597 19.8422 19.5202 19.9713C19.3807 20.1003 19.2692 20.2567 19.1926 20.4306C19.116 20.6045 19.076 20.7923 19.0751 20.9824Z" fill="#EA337D"/>
</svg>
