<svg width="51" height="50" viewBox="0 0 51 50" fill="none" xmlns="http://www.w3.org/2000/svg">
<path d="M25.3369 50C39.1488 50 50.3456 38.8071 50.3456 25C50.3456 11.1929 39.1488 0 25.3369 0C11.5249 0 0.328125 11.1929 0.328125 25C0.328125 38.8071 11.5249 50 25.3369 50Z" fill="#1E1F20"/>
<path d="M34.1298 25V30.48C34.1396 31.17 33.9295 31.8452 33.5297 32.4079C33.13 32.9705 32.5614 33.3913 31.9065 33.6093C31.5658 33.7311 31.2067 33.7931 30.8449 33.7924H19.8589C19.4247 33.7977 18.9937 33.7165 18.5912 33.5535C18.1887 33.3906 17.8226 33.1492 17.5143 32.8434C17.2061 32.5376 16.9618 32.1736 16.7957 31.7725C16.6296 31.3713 16.545 30.9412 16.5469 30.5071V19.4962C16.5448 18.7275 16.8139 17.9828 17.3068 17.3929C17.7997 16.8029 18.4849 16.4056 19.2419 16.2708C19.473 16.2262 19.7081 16.205 19.9435 16.2075H30.7406C31.4895 16.1947 32.221 16.4343 32.8172 16.8877C33.4134 17.3411 33.8395 17.9819 34.0271 18.7069C34.0974 19.0122 34.1305 19.325 34.1257 19.6383C34.1284 21.4255 34.1298 23.2127 34.1298 25ZM26.0351 24.002V23.1709C26.0351 23 25.9956 22.9425 25.8149 22.9442C25.0365 22.9535 24.2601 22.9535 23.4856 22.9442C23.3065 22.9442 23.2588 22.9992 23.2588 23.1725C23.2681 25.7586 23.2728 28.3456 23.2728 30.9334C23.2728 31.0886 23.3221 31.1305 23.47 31.1305H25.8313C26.0162 31.1305 26.0515 31.0672 26.0499 30.9005V28.4775C26.0499 27.7383 26.0499 27.0032 26.068 26.2673C26.0743 26.0704 26.1214 25.8769 26.2062 25.6991C26.2911 25.5213 26.4118 25.3629 26.5609 25.2341C26.7121 25.0807 26.9013 24.9702 27.1092 24.9139C27.3171 24.8577 27.5362 24.8577 27.7441 24.9139C27.952 24.9701 28.1412 25.0806 28.2924 25.234C28.4435 25.3874 28.5512 25.5782 28.6043 25.7868C28.6881 26.114 28.7252 26.4513 28.7144 26.7889C28.7144 28.1663 28.7144 29.533 28.7144 30.9046C28.7144 31.082 28.7637 31.1313 28.9387 31.1288C29.6905 31.1288 30.4448 31.1173 31.1974 31.1288C31.4077 31.1288 31.4767 31.0853 31.4751 30.8611C31.4636 29.5124 31.4751 28.1646 31.4751 26.816C31.4855 26.377 31.4643 25.9378 31.4118 25.5018C31.3745 24.849 31.1148 24.2287 30.676 23.7438C30.2371 23.259 29.6456 22.9388 28.9995 22.8366C28.4841 22.713 27.9433 22.7468 27.4474 22.9338C26.9514 23.1208 26.5229 23.4523 26.2175 23.8854C26.2018 23.9201 26.1763 23.9495 26.1443 23.9701C26.1122 23.9906 26.0748 24.0014 26.0367 24.0012L26.0351 24.002ZM21.9828 27.041V23.1832C21.9828 23 21.9335 22.9433 21.7462 22.945C20.9859 22.9543 20.2259 22.9543 19.4662 22.945C19.2928 22.945 19.2377 22.9926 19.2377 23.1692C19.2471 25.7477 19.2517 28.3248 19.2517 30.9005C19.2517 31.0738 19.301 31.1329 19.4785 31.1305C20.2388 31.1212 20.9988 31.1212 21.7585 31.1305C21.9557 31.1305 21.9927 31.0713 21.991 30.8906C21.9771 29.6077 21.9812 28.3223 21.9812 27.0369L21.9828 27.041ZM19.0751 20.5097C19.0738 20.6988 19.1117 20.8861 19.1862 21.0599C19.2608 21.2337 19.3705 21.3902 19.5084 21.5196C19.6464 21.649 19.8096 21.7485 19.9878 21.8119C20.166 21.8753 20.3554 21.9012 20.5441 21.8879C20.7349 21.9018 20.9264 21.8766 21.1071 21.814C21.2878 21.7513 21.4538 21.6524 21.5949 21.5234C21.736 21.3944 21.8493 21.2379 21.9279 21.0636C22.0065 20.8893 22.0486 20.7009 22.0518 20.5097C22.0532 20.3189 22.0147 20.1299 21.9389 19.9548C21.8631 19.7798 21.7516 19.6224 21.6114 19.4929C21.4713 19.3633 21.3057 19.2644 21.1252 19.2025C20.9447 19.1405 20.7532 19.1169 20.563 19.1331C20.3734 19.1194 20.183 19.1448 20.0037 19.2076C19.8243 19.2705 19.6597 19.3695 19.5202 19.4986C19.3807 19.6277 19.2692 19.784 19.1926 19.958C19.116 20.1319 19.076 20.3197 19.0751 20.5097Z" fill="white"/>
</svg>
