<svg width="209" height="55" viewBox="0 0 209 55" fill="none" xmlns="http://www.w3.org/2000/svg">
<path d="M5.36268 28.1866V7.94407C5.36268 7.75713 5.36268 7.5969 5.36268 7.40997C5.36268 6.87586 5.79052 6.42188 6.35207 6.42188C6.48577 6.42188 6.64621 6.42188 6.77991 6.42188C20.3907 6.42188 34.0015 6.42188 47.639 6.42188C48.5482 6.42188 49.083 6.68893 49.083 7.86395C49.083 11.6561 49.083 15.4482 49.083 19.2404C49.083 19.3472 49.083 19.4273 49.083 19.5341C49.083 19.7745 48.976 19.8546 48.7621 19.8546C48.6017 19.8546 48.4412 19.8546 48.2808 19.8546H20.3105C20.1233 19.8546 19.9361 19.8546 19.7222 19.8546C19.2944 19.8813 18.92 20.175 18.8398 20.6023C18.7863 20.7893 18.7596 20.9762 18.7596 21.1631C18.7596 25.8633 18.7596 30.5367 18.7596 35.2368C18.7596 35.3436 18.7596 35.4504 18.7596 35.5839C18.8665 36.4385 19.3478 36.5987 19.9361 36.5987C24.2413 36.572 28.5732 36.5987 32.8784 36.5987C33.8143 36.5987 33.8411 36.6254 33.8411 37.5601V49.4172C33.8411 50.0582 33.8411 50.0582 33.226 50.0582H6.59273C5.68356 50.0582 5.33594 49.7377 5.33594 48.8297C5.36268 41.9398 5.36268 35.0765 5.36268 28.1866Z" fill="#005FEC"/>
<path d="M34.883 21.59H48.4135C49.1355 21.59 49.082 21.5633 49.082 22.2309C49.082 31.0169 49.082 39.8296 49.082 48.6156C49.082 48.8293 49.082 49.0696 49.0286 49.2833C48.9483 49.7373 48.5205 50.0844 48.0659 50.0577C47.4776 50.0577 46.8893 50.0577 46.2743 50.0577H36.3537C36.22 50.0577 36.0863 50.0577 35.9793 50.0577C35.6317 50.031 35.6317 50.031 35.6049 49.7106C35.6049 49.577 35.6049 49.4168 35.6049 49.2833V36.3046C35.6049 36.1443 35.6049 35.9841 35.6049 35.8239C35.5782 35.3432 35.2038 34.9693 34.7225 34.9693C34.5621 34.9693 34.4016 34.9693 34.2412 34.9693H21.1919C20.6571 34.9426 20.5234 34.8091 20.5234 34.275C20.5234 30.2959 20.5234 26.2901 20.5234 22.311C20.5234 21.7235 20.6304 21.6167 21.2187 21.6167L34.883 21.59Z" fill="#005FEC"/>
<path d="M110.371 45.091C110.504 44.9308 110.585 44.7438 110.638 44.5569C111.788 41.5392 112.964 38.5215 114.114 35.5038C114.301 34.9697 114.301 34.9697 114.863 34.9697C116.013 34.9697 117.136 34.9697 118.286 34.9697C118.794 34.9697 118.821 34.9964 118.821 35.5305V49.4706C118.821 49.5775 118.821 49.6576 118.821 49.7644C118.821 49.9246 118.74 50.0315 118.553 50.0315H116.494C116.334 50.0582 116.2 49.9246 116.173 49.7644V49.7377C116.173 49.5775 116.173 49.4172 116.173 49.257V38.388C116.173 38.2545 116.173 38.0942 116.173 37.9607C116.173 37.8539 116.173 37.7471 116.04 37.7471C115.933 37.7204 115.799 37.7738 115.772 37.8806C115.745 37.9607 115.692 38.0675 115.665 38.1476C114.515 41.1653 113.339 44.183 112.189 47.2007C112.002 47.7081 112.002 47.7081 111.467 47.7081C110.665 47.7081 109.863 47.7081 109.06 47.7081C108.793 47.7348 108.552 47.5746 108.499 47.3075C107.376 44.3433 106.226 41.3523 105.103 38.388C105.023 38.2011 104.942 38.0141 104.862 37.8272C104.835 37.7471 104.728 37.7204 104.648 37.7471C104.541 37.7471 104.514 37.8272 104.514 37.9073C104.514 38.0675 104.514 38.2278 104.514 38.388V49.0701C104.514 49.2036 104.514 49.3638 104.514 49.4973C104.514 50.0582 104.488 50.0849 103.926 50.0849C103.365 50.0849 102.83 50.0849 102.295 50.0849C101.921 50.0849 101.894 50.0315 101.867 49.6843C101.867 49.5775 101.867 49.4973 101.867 49.3905V35.7442C101.867 35.0498 101.867 35.0498 102.589 35.0498C103.712 35.0498 104.835 35.0498 105.958 35.0498C106.467 35.0498 106.467 35.0498 106.654 35.5305C107.536 37.8539 108.445 40.1505 109.328 42.4739L110.183 44.7171C110.21 44.8239 110.29 44.9842 110.371 45.091Z" fill="#005FEC"/>
<path d="M143.69 13.6057C143.824 13.7125 143.985 13.7927 144.172 13.8194C146.258 14.5404 147.06 16.1694 146.712 18.2257C146.418 19.8814 145.268 20.7627 143.744 21.2167C142.968 21.4303 142.14 21.5372 141.337 21.5372C138.957 21.5372 136.551 21.5372 134.171 21.5372C134.064 21.5372 133.957 21.5372 133.85 21.5372C133.716 21.5372 133.609 21.4303 133.609 21.2968C133.609 21.2968 133.609 21.2968 133.609 21.2701C133.609 21.1366 133.609 21.0031 133.609 20.8962V7.08966C133.609 6.44873 133.609 6.42203 134.251 6.42203C136.39 6.42203 138.556 6.39532 140.696 6.42203C141.872 6.44873 143.022 6.58226 144.092 7.14306C145.027 7.59705 145.696 8.47832 145.883 9.49312C145.99 10.0539 145.99 10.6147 145.883 11.1488C145.696 12.1102 145.054 12.9114 144.145 13.312C143.958 13.3921 143.824 13.4722 143.69 13.6057ZM139.171 19.1337H141.337C141.712 19.1337 142.113 19.107 142.487 19.0269C143.53 18.8132 144.065 18.2791 144.118 17.2643C144.172 16.4365 143.878 15.7955 143.049 15.4751C142.567 15.2881 142.059 15.1813 141.551 15.1813C139.893 15.1813 138.262 15.1813 136.604 15.1813C136.203 15.1813 136.203 15.1813 136.176 15.5819C136.176 16.6501 136.176 17.6916 136.176 18.7598C136.176 19.1337 136.203 19.1604 136.604 19.1604C137.46 19.1337 138.316 19.1337 139.171 19.1337ZM138.69 8.8522C137.995 8.8522 137.3 8.8522 136.631 8.8522C136.176 8.8522 136.176 8.8522 136.176 9.30619C136.176 10.321 136.176 11.3625 136.176 12.3773C136.176 12.8313 136.176 12.858 136.685 12.858C137.968 12.858 139.252 12.8847 140.535 12.858C141.123 12.8847 141.685 12.7779 142.22 12.5642C142.968 12.2438 143.316 11.6562 143.289 10.8017C143.343 10.0539 142.888 9.3596 142.166 9.11925C141.685 8.93231 141.177 8.8522 140.669 8.8522C140 8.8522 139.359 8.8522 138.69 8.8522Z" fill="#005FEC"/>
<path d="M149.196 42.5546V49.578C149.196 50.0587 149.196 50.0587 148.714 50.0587C147.645 50.0587 146.602 50.0587 145.532 50.0587C145.265 50.0854 144.998 49.9252 144.891 49.6582C143.661 47.4683 142.431 45.2785 141.2 43.0887C140.318 41.5131 139.436 39.9642 138.58 38.3886C138.5 38.255 138.446 38.1482 138.339 38.0147C138.286 37.9346 138.206 37.9079 138.125 37.9346C138.018 37.9613 138.018 38.0414 138.018 38.1215C138.018 38.2818 138.018 38.442 138.018 38.6022C138.018 42.154 138.018 45.6791 138.018 49.2309C138.018 50.1656 137.938 50.032 137.189 50.032C136.735 50.032 136.254 50.032 135.799 50.032C135.398 50.032 135.371 50.0053 135.371 49.578C135.371 49.4712 135.371 49.3911 135.371 49.2843V35.6913C135.371 34.9703 135.371 34.9703 136.066 34.9703C137.029 34.9703 137.992 34.9703 138.954 34.9703C139.275 34.9436 139.596 35.1305 139.703 35.4243C141.521 38.6556 143.34 41.9137 145.158 45.145C145.452 45.6791 145.773 46.2399 146.067 46.774C146.121 46.8541 146.174 46.9342 146.228 47.0143C146.308 47.0945 146.415 47.1212 146.495 47.0678C146.602 47.0411 146.602 46.9609 146.602 46.8808C146.602 46.7206 146.602 46.5604 146.602 46.4001V35.6379C146.602 34.997 146.602 34.997 147.271 34.997C147.779 34.997 148.26 34.997 148.768 34.997C149.169 34.997 149.196 35.0504 149.196 35.451C149.196 36.6794 149.196 37.8812 149.196 39.1096V42.5546Z" fill="#005FEC"/>
<path d="M187.196 13.9526C187.25 15.3146 186.956 16.6498 186.341 17.8783C185.485 19.6408 183.907 20.9227 182.036 21.4568C180.271 21.9909 178.399 21.9909 176.634 21.4835C173.907 20.6823 172.249 18.813 171.607 16.0623C171.179 14.3265 171.313 12.4838 171.955 10.8281C172.73 8.6917 174.495 7.06268 176.714 6.52858C177.811 6.23482 178.96 6.128 180.084 6.23482C181.367 6.28823 182.624 6.6621 183.747 7.30303C185.646 8.45135 186.688 10.1872 187.09 12.3236C187.196 12.8577 187.223 13.4185 187.196 13.9526ZM174.147 13.9526C174.147 14.4333 174.201 14.9407 174.281 15.4214C174.682 17.1572 175.645 18.4658 177.383 19.0266C178.613 19.4272 179.923 19.4272 181.18 19.0533C182.463 18.6794 183.506 17.7448 183.988 16.4896C184.656 14.9407 184.656 13.1782 184.041 11.6293C183.56 10.294 182.463 9.30592 181.126 8.93204C180.164 8.63829 179.174 8.58488 178.185 8.77181C176.714 8.95875 175.457 9.86673 174.789 11.1753C174.334 12.0298 174.12 12.9912 174.147 13.9526Z" fill="#005FEC"/>
<path d="M151.282 14.0603C151.202 12.5915 151.549 11.1227 152.271 9.84087C153.18 8.15845 154.785 6.95671 156.657 6.50272C158.448 6.02203 160.347 6.07544 162.112 6.63625C164.01 7.19706 165.561 8.55902 166.337 10.375C167.433 12.6983 167.433 15.3689 166.337 17.6922C165.267 20.0957 163.288 21.3775 160.721 21.7514C159.331 21.9917 157.887 21.9116 156.523 21.511C153.795 20.7099 152.164 18.8939 151.496 16.17C151.309 15.449 151.228 14.7546 151.282 14.0603ZM164.304 14.0336C164.331 13.5262 164.304 13.0455 164.197 12.5381C163.743 10.5619 162.593 9.25336 160.587 8.79937C159.839 8.63914 159.063 8.61244 158.288 8.71926C156.523 8.9596 155.213 9.84087 154.491 11.4966C153.929 12.8586 153.822 14.354 154.25 15.7694C154.705 17.4519 155.774 18.6002 157.459 19.0809C158.582 19.4013 159.759 19.4013 160.882 19.0809C162.272 18.7337 163.395 17.6922 163.903 16.3569C164.197 15.6359 164.331 14.8347 164.304 14.0336Z" fill="#005FEC"/>
<path d="M77.5845 45.4378C77.5845 46.4526 77.5845 47.4941 77.5845 48.5089C77.6113 48.8026 77.4241 49.0697 77.1567 49.1498C75.7394 49.764 74.242 50.1379 72.7178 50.2714C71.354 50.3516 69.9903 50.405 68.6533 50.0578C66.7012 49.5771 65.0701 48.589 63.9737 46.8532C63.4657 46.0253 63.118 45.0906 62.9843 44.1292C62.7437 42.6605 62.8506 41.165 63.3052 39.7763C64.2411 37.0791 66.1397 35.4501 68.9207 34.8892C70.5786 34.5154 72.3167 34.5955 73.9478 35.1563C75.1512 35.5569 76.194 36.3046 76.9428 37.3194C76.9962 37.3995 77.0764 37.5064 77.1299 37.5865C77.2369 37.6933 77.2369 37.8535 77.1299 37.9603C77.1032 37.987 77.0497 38.0137 77.023 38.0405C76.4079 38.3609 75.8197 38.6814 75.2046 39.0018C75.0175 39.1087 74.9105 38.9751 74.8035 38.8683C74.5361 38.5746 74.2687 38.2808 73.9478 38.0137C73.2526 37.5063 72.4236 37.2126 71.568 37.1859C70.7123 37.1058 69.8566 37.1859 69.0544 37.4262C67.1558 38.0138 66.1397 39.349 65.7653 41.2451C65.5781 42.1531 65.5781 43.0877 65.7921 43.9957C66.2199 45.9719 67.5034 47.1469 69.4287 47.6009C71.1669 48.0015 72.9317 47.8413 74.6431 47.3873C75.0442 47.2804 75.0442 47.2537 75.0442 46.8265C75.0442 46.0787 75.0442 45.3577 75.0442 44.6099C75.0442 44.2094 75.0175 44.1826 74.6163 44.1826C73.7072 44.1826 72.798 44.1826 71.8621 44.1826H71.4877C71.3273 44.1826 71.2203 44.1025 71.2203 43.9156V42.0462C71.1936 41.9127 71.3006 41.7792 71.461 41.7525C71.4877 41.7525 71.5145 41.7525 71.5145 41.7525H71.8621C73.5735 41.7525 75.2581 41.7525 76.9695 41.7525C76.9962 41.7525 77.023 41.7525 77.0765 41.7525C77.6113 41.7525 77.6113 41.7792 77.638 42.2866C77.638 43.0343 77.638 43.7554 77.638 44.5031L77.5845 45.4378Z" fill="#005FEC"/>
<path d="M169.679 45.4115C169.679 46.4263 169.679 47.4678 169.679 48.4826C169.732 48.8031 169.545 49.0701 169.224 49.177C167.914 49.7378 166.55 50.0849 165.159 50.2452C164.036 50.3787 162.913 50.3787 161.817 50.2452C159.303 49.9247 157.244 48.8298 155.934 46.5865C155.453 45.7587 155.159 44.8507 155.078 43.916C154.918 42.7143 154.998 41.4859 155.266 40.2841C156.095 37.0528 158.742 35.0232 161.924 34.7294C163.074 34.5959 164.25 34.676 165.4 34.9431C166.764 35.2635 167.967 36.0113 168.876 37.0528C168.983 37.1863 169.09 37.3198 169.197 37.4801C169.384 37.8005 169.358 37.9074 169.037 38.0943C168.529 38.3881 167.994 38.6551 167.459 38.9222C167.138 39.0824 167.112 39.0824 166.898 38.8153C166.122 37.8005 164.919 37.1863 163.609 37.1596C162.592 37.0795 161.55 37.213 160.614 37.6136C159.116 38.2812 158.287 39.4563 157.94 41.0319C157.726 41.9666 157.726 42.9012 157.886 43.8359C158.234 45.732 159.384 46.9337 161.202 47.5212C162.325 47.8684 163.475 47.8684 164.625 47.7616C165.347 47.7082 166.095 47.5746 166.791 47.361C167.192 47.2275 167.192 47.2275 167.192 46.8269C167.192 46.0791 167.192 45.3314 167.192 44.557C167.192 44.1564 167.192 44.1564 166.791 44.1564C165.828 44.1564 164.865 44.1564 163.903 44.1564C163.314 44.1564 163.314 44.1564 163.314 43.5689C163.314 43.0882 163.314 42.6075 163.314 42.1268C163.314 41.7529 163.368 41.7262 163.742 41.7262C164.197 41.7262 164.651 41.7262 165.079 41.7262C166.443 41.7262 167.807 41.7262 169.171 41.7262C169.679 41.7262 169.679 41.7529 169.705 42.2336C169.679 43.3285 169.679 44.37 169.679 45.4115Z" fill="#005FEC"/>
<path d="M115.586 13.9797V7.22333C115.586 7.08981 115.586 6.92957 115.586 6.79605C115.586 6.60911 115.72 6.47559 115.88 6.47559H115.907C116.041 6.47559 116.174 6.47559 116.281 6.47559H126.63C127.084 6.47559 127.111 6.50229 127.111 6.98299C127.111 7.46368 127.111 7.97108 127.111 8.47848C127.111 8.98587 127.111 8.95917 126.603 8.95917H119.009C118.875 8.95917 118.741 8.95917 118.634 8.95917C118.233 8.95917 118.233 8.95917 118.206 9.35975C118.206 10.3745 118.206 11.3626 118.206 12.3774C118.206 12.7513 118.233 12.778 118.608 12.778C119.784 12.778 120.961 12.778 122.111 12.778C123.073 12.778 124.036 12.778 124.999 12.778C125.507 12.778 125.56 12.8314 125.56 13.3388C125.56 13.7661 125.56 14.1667 125.56 14.594C125.56 15.1815 125.533 15.2349 124.945 15.2349H118.875C118.126 15.2349 118.18 15.1815 118.18 15.9292C118.18 16.8372 118.18 17.7185 118.18 18.6265C118.18 19.1339 118.18 19.1338 118.688 19.1338H126.683C127.405 19.1338 127.405 19.1338 127.405 19.8549C127.405 20.2555 127.405 20.656 127.405 21.0566C127.405 21.4572 127.325 21.564 126.897 21.564C126.416 21.564 125.934 21.564 125.453 21.564H116.468C116.335 21.564 116.174 21.564 116.041 21.564C115.693 21.5373 115.639 21.4839 115.613 21.1367C115.613 21.0032 115.613 20.8697 115.613 20.7629L115.586 13.9797Z" fill="#005FEC"/>
<path d="M95.3963 50.0581C95.0754 50.0581 94.7546 50.0581 94.4337 50.0581C94.0326 50.0581 94.0326 50.0314 93.8989 49.6575C93.6047 48.5893 93.3106 47.5211 92.963 46.4796C92.8293 46.0523 92.8293 46.0256 92.3747 46.0256H86.1709C85.6896 46.0256 85.6896 46.0256 85.5559 46.5063C85.235 47.5211 84.9409 48.5359 84.6735 49.5507C84.5398 50.0581 84.5398 50.0581 84.005 50.0581C83.3899 50.0581 82.8017 50.0581 82.1866 50.0581C81.8657 50.0581 81.8123 50.0047 81.8925 49.6843C82.0797 49.0166 82.2669 48.349 82.4808 47.7081C83.6841 43.996 85.0746 40.3374 86.679 36.7856C86.8929 36.3317 87.1068 35.8777 87.294 35.4237C87.401 35.1299 87.6951 34.943 88.016 34.9964C88.8984 35.0231 89.7809 35.0231 90.6633 34.9964C90.9842 34.9697 91.3051 35.1566 91.3853 35.4771C92.5886 38.0675 93.7117 40.7113 94.7011 43.4085C95.4231 45.3847 96.0916 47.3876 96.6799 49.4172C96.6799 49.4706 96.7066 49.4973 96.7333 49.5507C96.867 50.0047 96.8136 50.0581 96.359 50.0581C96.0381 50.0581 95.7172 50.0581 95.3963 50.0581ZM91.9201 43.6222C91.9468 43.4886 91.9201 43.3551 91.8666 43.2216C91.3853 41.8863 90.8772 40.5778 90.3157 39.2959C90.1018 38.7618 89.8611 38.2277 89.6204 37.7203C89.5402 37.5601 89.4867 37.3999 89.2461 37.3999C89.0054 37.3999 88.9519 37.5601 88.8984 37.7203L88.845 37.8004C88.0428 39.5897 87.3208 41.3789 86.6523 43.2216C86.5988 43.3284 86.572 43.4886 86.6255 43.6222H91.9201Z" fill="#005FEC"/>
<path d="M91.4346 21.5373H90.5789C90.0976 21.5373 90.0708 21.5105 89.9371 21.0566C89.6697 20.015 89.3756 19.0003 89.028 17.9588C88.8675 17.4781 88.8943 17.4781 88.413 17.4781H82.2092C81.7546 17.4781 81.7546 17.4781 81.6209 17.9053C81.3 18.9201 81.0059 19.9349 80.7385 20.9497C80.6048 21.5105 80.6048 21.5105 80.0432 21.5105H78.4656C77.8773 21.5105 77.8238 21.4571 77.9843 20.923C78.5191 19.0537 79.1341 17.2377 79.8026 15.4218C80.8722 12.5376 82.022 9.70685 83.3323 6.90281C83.4393 6.60905 83.7067 6.42211 84.0276 6.44882C84.9367 6.44882 85.8191 6.44882 86.7283 6.44882C87.0492 6.42211 87.3701 6.63575 87.477 6.92951C89.5895 11.4427 91.3544 16.0894 92.7716 20.8696C92.9588 21.5105 92.9321 21.5373 92.2903 21.5373H91.4346ZM85.3111 15.1814C86.0865 15.1814 86.8888 15.1814 87.6642 15.1814C88.0386 15.1814 88.0653 15.128 87.9316 14.7808C87.7177 14.1933 87.5038 13.6058 87.2631 13.045C86.7818 11.7632 86.2202 10.508 85.6854 9.22616C85.6052 9.06593 85.5517 8.85229 85.2843 8.85229C85.0169 8.85229 84.9902 9.03922 84.91 9.22616C84.7228 9.65344 84.5089 10.1074 84.3484 10.5347C83.7601 11.9234 83.1986 13.3121 82.6905 14.7274C82.5301 15.128 82.5568 15.1547 82.9847 15.1547C83.7601 15.1814 84.5356 15.1814 85.3111 15.1814Z" fill="#005FEC"/>
<path d="M198.476 13.7926C198.85 14.1398 199.251 14.487 199.653 14.8341C201.123 16.116 202.487 17.5046 203.851 18.92C204.466 19.5876 205.081 20.2553 205.669 20.9496C205.776 21.0831 205.963 21.2167 205.883 21.4036C205.803 21.5905 205.562 21.5104 205.402 21.5104C204.68 21.5104 203.958 21.5104 203.236 21.5104C202.888 21.5371 202.567 21.3769 202.38 21.1098C201.284 19.828 200.134 18.5996 198.931 17.4245C198.155 16.6768 197.38 15.9557 196.577 15.2347C196.176 14.8875 195.722 15.0745 195.294 15.0745C195.214 15.0745 195.187 15.1813 195.187 15.2614C195.187 15.3949 195.187 15.5552 195.187 15.6887V20.8428C195.187 20.9763 195.187 21.1098 195.187 21.2167C195.214 21.3502 195.107 21.4837 194.946 21.5104C194.92 21.5104 194.893 21.5104 194.866 21.5104H192.887C192.673 21.5104 192.566 21.3769 192.566 21.19C192.566 21.0564 192.566 20.9229 192.566 20.8161V7.16974C192.566 6.4487 192.566 6.4487 193.288 6.4487H194.492C195.16 6.4487 195.187 6.4487 195.187 7.14303C195.187 8.74534 195.187 10.3477 195.187 11.95C195.187 12.6443 195.133 12.5642 195.855 12.5909C196.23 12.6176 196.604 12.4574 196.872 12.1903C198.69 10.5079 200.375 8.71864 201.899 6.76916C202.032 6.55552 202.273 6.42199 202.541 6.4487C203.289 6.4487 204.011 6.4487 204.76 6.4487C204.813 6.4487 204.867 6.4487 204.894 6.4487C205.188 6.4754 205.268 6.63563 205.081 6.84928C204.733 7.30326 204.386 7.73055 204.011 8.15783C203.075 9.25274 202.086 10.3209 201.07 11.3357C200.348 12.0835 199.599 12.8045 198.797 13.4722C198.663 13.5523 198.556 13.6591 198.476 13.7926Z" fill="#005FEC"/>
<path d="M104.404 21.8037C102.933 21.8037 101.863 21.6702 100.821 21.2429C99.1359 20.6287 97.7989 19.3201 97.1304 17.6644C96.0073 14.8604 96.1143 12.083 97.6919 9.46592C98.922 7.43633 100.847 6.39483 103.227 6.20789C104.243 6.10107 105.233 6.18119 106.222 6.44824C107.773 6.84882 109.11 7.8102 109.992 9.17217C110.073 9.30569 110.126 9.41251 110.206 9.54604C110.313 9.75968 110.313 9.91991 110.073 10.0267C109.484 10.3205 108.896 10.5875 108.308 10.8813C108.067 11.0148 107.907 10.8813 107.8 10.6944C107.559 10.2938 107.265 9.91991 106.917 9.62615C106.302 9.11876 105.554 8.825 104.778 8.74488C104.029 8.63806 103.227 8.69147 102.505 8.90511C101.061 9.3324 100.125 10.3205 99.6172 11.7092C99.0557 13.1512 99.0557 14.7536 99.5638 16.2223C100.206 18.1718 101.73 19.2667 103.842 19.3468C105.072 19.3735 106.249 19.1866 107.238 18.3855C107.425 18.2252 107.586 18.065 107.773 17.8781C107.907 17.6911 108.174 17.6377 108.361 17.7712C108.896 18.0383 109.431 18.2786 109.966 18.5457C110.34 18.7326 110.367 18.8127 110.126 19.1599C109.484 20.0412 108.629 20.7088 107.639 21.1361C106.57 21.5634 105.5 21.8037 104.404 21.8037Z" fill="#005FEC"/>
<path d="M64.0034 13.9534V7.17026C64.0034 7.03673 64.0034 6.9032 64.0034 6.79638C63.9767 6.63615 64.1104 6.47592 64.2708 6.44922C64.2976 6.44922 64.2976 6.44922 64.3243 6.44922C64.4313 6.44922 64.5382 6.44922 64.6719 6.44922H74.6728C74.7798 6.44922 74.86 6.44922 74.9669 6.44922C75.2611 6.47592 75.3413 6.55604 75.3413 6.8498C75.3413 7.41061 75.3413 7.99812 75.3413 8.58563C75.3413 8.82598 75.2076 8.9328 74.9669 8.9328H67.0518C66.624 8.9328 66.624 8.9328 66.624 9.36008C66.624 10.3749 66.624 11.4164 66.624 12.4312C66.624 12.8852 66.624 12.8852 67.0786 12.8852H73.0951C73.8973 12.8852 73.8438 12.8852 73.8438 13.6062C73.8438 14.0335 73.8438 14.4608 73.8438 14.9148C73.8438 15.3687 73.7904 15.342 73.3893 15.342C72.2662 15.342 71.1163 15.342 69.9665 15.342H67.1855C66.624 15.342 66.624 15.342 66.624 15.9296C66.624 17.5853 66.624 19.2143 66.624 20.87C66.624 21.5109 66.624 21.5109 65.9822 21.5109C65.5009 21.5109 64.9928 21.5109 64.4848 21.5109C64.0836 21.5109 64.0034 21.4575 64.0034 21.0303C64.0034 20.1223 64.0034 19.241 64.0034 18.333V13.9534Z" fill="#005FEC"/>
<path d="M125.773 42.5003C125.773 40.1769 125.773 37.8803 125.773 35.5836C125.773 34.9961 125.773 34.9961 126.362 34.9961C126.95 34.9961 127.485 34.9961 128.046 34.9961C128.367 34.9961 128.394 35.0228 128.394 35.37C128.394 35.4768 128.394 35.5836 128.394 35.7171V49.3902C128.394 50.1379 128.447 50.0845 127.699 50.0845C127.164 50.0845 126.629 50.0845 126.121 50.0845C125.88 50.0845 125.773 49.9777 125.773 49.7374C125.773 49.6038 125.773 49.4703 125.773 49.3635V42.5003Z" fill="#005FEC"/>
</svg>
