<svg width="192" height="76" viewBox="0 0 192 76" fill="none" xmlns="http://www.w3.org/2000/svg">
<path d="M44.8895 49.2216C44.6986 49.2216 44.5349 49.1393 44.3986 49.0021C44.344 48.9472 44.2622 48.8649 44.2077 48.7826C44.1259 48.6728 44.0986 48.5631 44.0986 48.4533C44.0713 33.857 44.0713 19.288 44.0986 4.69161C44.0986 4.6093 44.1259 4.52699 44.1531 4.47211C44.2622 4.17031 44.5349 3.92338 44.8622 3.89594C47.5895 3.84107 50.3713 3.8685 53.1259 3.89594C53.2622 3.92338 53.3986 3.97825 53.5077 4.06056C53.5895 4.14287 53.6713 4.22518 53.7531 4.30749C53.8077 4.41724 53.8349 4.49955 53.8895 4.6093C53.8895 4.66417 53.9168 4.71904 53.9168 4.77392C53.9713 19.288 53.9168 33.8295 53.9168 48.3436C53.9168 48.4533 53.8895 48.5631 53.8349 48.6728C53.7259 48.9746 53.4531 49.1941 53.1259 49.2216C50.344 49.2216 47.6168 49.249 44.8895 49.2216Z" fill="#E50942"/>
<path d="M27.3258 70.7873C27.2713 70.7873 27.1895 70.7599 27.1349 70.7599C27.0259 70.7325 26.9168 70.6776 26.8349 70.6227C26.8349 70.6227 26.6713 70.4581 26.644 70.4307C26.5622 70.3209 26.5077 70.1563 26.4804 70.0191C26.4804 69.0588 26.5077 68.0985 26.4804 67.1382C26.4531 66.8639 26.3986 66.5895 26.3168 66.3426C26.2622 66.2054 26.2077 66.0956 26.1531 65.9585C25.8531 65.4372 25.3349 65.1079 24.7349 65.0256C24.4895 64.9982 24.244 64.9707 24.0259 64.9707L23.9986 64.9433C20.2349 64.9707 16.4713 65.0256 12.7077 65.053L12.6259 65.0256C12.2986 65.0256 11.9713 64.9982 11.644 64.9707C11.2349 64.9433 10.8259 64.861 10.444 64.7512C10.0895 64.6689 9.70767 64.5592 9.35313 64.4494C8.42585 64.1476 7.55312 63.7086 6.73494 63.1599C6.48949 62.9678 6.24403 62.7758 5.99858 62.5837C5.75312 62.3642 5.53494 62.1447 5.31676 61.8978C5.09858 61.6234 4.8804 61.3491 4.68949 61.0747C4.55312 60.8552 4.41676 60.6632 4.30767 60.4162C4.17131 60.1419 4.00767 59.84 3.89858 59.5382C3.78949 59.2639 3.6804 58.9895 3.59858 58.6877C3.48949 58.3585 3.40767 58.0018 3.32585 57.6451C3.24403 57.2884 3.18949 56.9043 3.16222 56.5476C3.10767 56.0538 3.10767 55.5599 3.13494 55.066L3.16222 55.0386C3.18949 54.8465 3.18949 54.5996 3.18949 54.3801L3.21676 54.3527C3.27131 54.0509 3.27131 53.7765 3.35313 53.4747C3.43494 53.118 3.51676 52.7613 3.62585 52.4047C3.73494 52.1029 3.87131 51.7736 3.9804 51.4444C4.22585 50.8956 4.49858 50.3743 4.85313 49.8805C5.07131 49.6061 5.26222 49.3043 5.4804 49.0574C5.69858 48.8104 5.91676 48.5635 6.16222 48.344C6.35312 48.152 6.57131 47.9873 6.76222 47.8227C7.38949 47.3014 8.12585 46.8624 8.80767 46.396C8.83494 46.3686 8.83494 46.3137 8.83494 46.2863C8.80767 46.2039 8.75313 46.1216 8.67131 46.0668C8.37131 45.8747 8.07131 45.7101 7.79858 45.4906C7.44403 45.2437 7.08949 44.9693 6.73494 44.6675C6.32585 44.3108 5.94403 43.9267 5.58949 43.5151C5.1804 43.0487 4.82585 42.5823 4.49858 42.061C4.11676 41.5122 3.81676 40.9361 3.54403 40.305C3.32585 39.7563 3.13494 39.2076 2.97131 38.6588C2.86222 38.2747 2.7804 37.8632 2.69858 37.479C2.64403 37.1224 2.58949 36.7382 2.53494 36.3816C2.50767 36.0249 2.4804 35.6682 2.4804 35.3115C2.4804 35.2841 2.45312 35.2567 2.45312 35.2292C2.45312 34.8451 2.45312 34.4336 2.45312 34.0494L2.4804 34.022C2.4804 33.6379 2.50767 33.2263 2.53494 32.8422L2.56222 32.8148C2.58949 32.4581 2.61676 32.074 2.67131 31.7173C2.75313 31.1137 2.88949 30.5375 3.02585 29.9614C3.13494 29.5224 3.29858 29.0834 3.43494 28.6718C3.65312 28.1231 3.89858 27.6018 4.17131 27.0805C4.38949 26.6689 4.63494 26.2848 4.8804 25.9007C5.1804 25.4617 5.50767 25.0502 5.86222 24.6386C6.18949 24.2545 6.57131 23.8704 6.95312 23.5411C7.38949 23.157 7.85312 22.8003 8.31676 22.4711C8.7804 22.1419 9.27131 21.84 9.76222 21.5382C10.3895 21.1816 11.0168 20.8798 11.644 20.6054C12.244 20.331 12.844 20.1115 13.4713 19.9195C14.1259 19.7 14.8077 19.5354 15.4895 19.3982C15.8168 19.3433 16.144 19.2884 16.4713 19.261C16.4986 19.261 16.4986 19.2336 16.4986 19.2336C16.8804 19.1787 17.2895 19.1238 17.6713 19.1238L17.6986 19.0964C17.8077 19.0964 17.8895 19.0689 17.9986 19.0689C19.8804 19.0415 21.7622 19.0689 23.644 19.0689C23.6713 19.0689 23.6986 19.0415 23.7259 19.0415C28.9622 19.0415 34.1986 19.0141 39.4349 19.0415C39.5986 19.0689 39.7349 19.1238 39.844 19.2336C39.9258 19.3159 40.0077 19.3982 40.0622 19.4805C40.1713 19.7274 40.1986 20.0018 40.1713 20.2761L40.1986 20.3036C40.2258 23.2942 40.2258 26.2848 40.1713 29.248L40.1168 29.4675C40.0349 29.7419 39.7895 29.9613 39.5168 30.0162C38.3168 30.0985 36.9531 30.0437 35.7258 30.0437C35.9986 30.565 36.244 31.1137 36.4349 31.6899C36.544 31.9917 36.6531 32.3758 36.7349 32.6776C36.7895 32.952 36.844 33.1989 36.8986 33.4733L36.9258 33.5007C36.9804 33.8299 37.0349 34.1592 37.0622 34.4884L37.0895 34.5159C37.1168 34.7628 37.1168 35.0097 37.1168 35.2292L37.144 35.2567C37.1713 35.8877 37.144 36.5187 37.0895 37.1498L37.0622 37.1772C37.0349 37.5613 36.9804 37.9455 36.8986 38.3296L36.8713 38.357C36.7895 38.9057 36.6531 39.4545 36.4895 40.0032C36.3259 40.5245 36.1077 41.0458 35.8895 41.5671C35.7259 41.9238 35.5349 42.2805 35.344 42.6372C35.044 43.1585 34.6895 43.6523 34.3077 44.1187C33.9258 44.5852 33.5168 45.0242 33.0531 45.4357C32.344 46.0668 31.5804 46.6429 30.7349 47.1094C29.9986 47.5484 29.2077 47.905 28.3895 48.1794C28.0895 48.2891 27.7895 48.3715 27.4895 48.4538C27.0804 48.591 26.6168 48.6733 26.2077 48.7556C25.9349 48.8104 25.6077 48.8653 25.3349 48.8928L25.3077 48.9202C24.8986 48.9751 24.4077 49.0299 23.9713 49.0574L23.944 49.0848C23.3168 49.1122 22.7168 49.1397 22.0895 49.1671L22.0622 49.1946C20.4804 49.1946 18.8986 49.1946 17.3168 49.1946C17.0713 49.1946 16.8259 49.222 16.6077 49.2494C16.3895 49.3043 16.1713 49.3592 15.9531 49.4689C15.4622 49.6884 15.0531 50.1274 14.8622 50.6487C14.7259 51.0328 14.6986 51.4444 14.7804 51.8285C14.8077 51.9657 14.8622 52.0754 14.9168 52.2126C14.9713 52.3224 15.0531 52.4321 15.1349 52.5144C15.2986 52.679 15.4895 52.8162 15.7077 52.926C15.8986 53.0083 16.0895 53.0632 16.2804 53.0906C16.3895 53.118 16.4986 53.118 16.6349 53.118C17.1259 53.118 17.644 53.118 18.1622 53.118L18.1895 53.1455C20.0986 53.1729 22.0077 53.118 23.9168 53.118L23.9986 53.1455C25.2259 53.1455 26.4531 53.1729 27.6804 53.1729L27.7077 53.2003C28.5259 53.2003 29.3168 53.2278 30.1349 53.2552C30.1622 53.2552 30.1622 53.2826 30.1622 53.2826C30.5713 53.2826 30.9531 53.3375 31.3622 53.365C31.3895 53.365 31.3895 53.3924 31.3895 53.3924C31.6077 53.4198 31.8531 53.4473 32.0713 53.4747C32.3986 53.557 32.7531 53.6119 33.0531 53.6942C33.544 53.8314 34.0077 53.996 34.444 54.1881C35.2077 54.5173 35.944 54.9289 36.5986 55.4502C37.0349 55.8068 37.4713 56.1909 37.8531 56.6025C38.0986 56.8769 38.3168 57.1512 38.5077 57.453C39.2168 58.4682 39.7077 59.5931 39.9804 60.8003C40.0349 61.0747 40.0895 61.3216 40.1168 61.596C40.144 61.8978 40.144 62.1996 40.144 62.5014C40.144 62.913 40.0622 63.3794 40.0077 63.791C40.0077 63.8184 40.0077 63.8184 39.9804 63.8184V63.9007L39.9531 63.9281C39.8986 64.2025 39.8713 64.4494 39.7895 64.7238C39.6804 65.1628 39.544 65.5743 39.4349 66.0133C39.2986 66.4523 39.1349 66.9188 38.9713 67.3577C38.7531 67.9065 38.5077 68.4827 38.2349 69.0314C38.044 69.4429 37.8258 69.8545 37.6077 70.2386C37.5531 70.3484 37.4713 70.4307 37.3622 70.513C37.2258 70.6227 37.0622 70.6776 36.8986 70.6776L27.3258 70.7873ZM19.5259 41.0184C19.9895 41.0733 20.4259 41.1007 20.8895 41.0733C21.0804 41.0733 21.2713 41.0458 21.4622 41.0184C21.7349 40.9909 22.0349 40.9361 22.3077 40.8538C22.7168 40.744 23.1259 40.5794 23.5077 40.3873C24.3258 39.9758 25.0622 39.3996 25.6895 38.7137C25.8531 38.5216 26.0168 38.3296 26.1531 38.1101C26.4258 37.6985 26.6713 37.2595 26.8622 36.8206C26.9713 36.6011 27.0531 36.3816 27.1077 36.1346C27.1622 35.9426 27.2168 35.7231 27.2713 35.531C27.3258 35.339 27.3259 35.1469 27.3531 34.9548L27.3804 34.9274C27.4349 34.4884 27.4349 34.0494 27.4077 33.6104C27.4077 33.583 27.3804 33.583 27.3804 33.583C27.3531 33.3361 27.3259 33.0617 27.2986 32.8148C27.244 32.6227 27.2168 32.4032 27.1349 32.2112C26.7531 30.9491 26.0168 29.7967 25.0349 28.9462C24.5168 28.4798 23.944 28.1231 23.2895 27.8487C22.8804 27.6841 22.4713 27.5469 22.0349 27.4372C21.7895 27.3823 21.544 27.3549 21.2713 27.3274C21.244 27.3274 21.244 27.3 21.244 27.3C20.8077 27.2725 20.3986 27.2451 19.9622 27.2725C19.9349 27.2725 19.9349 27.3 19.9349 27.3C19.6895 27.3274 19.444 27.3548 19.1713 27.4097C18.8986 27.4646 18.6258 27.5195 18.3804 27.6292C17.9713 27.7664 17.5895 27.9585 17.2077 28.1505C16.8531 28.3426 16.5259 28.5621 16.2259 28.809C15.1895 29.6321 14.4259 30.757 13.9895 31.9917C13.8531 32.4032 13.744 32.8148 13.6895 33.2538C13.6622 33.391 13.6622 33.6104 13.6622 33.7476L13.6349 33.7751C13.6349 34.0769 13.6077 34.3512 13.6349 34.653C13.6622 34.9823 13.6895 35.3115 13.7713 35.6408C13.8804 36.1346 14.0168 36.6011 14.2349 37.04C14.3986 37.4242 14.6168 37.7808 14.8622 38.1375C15.0259 38.3845 15.2168 38.6314 15.4349 38.8783C15.5986 39.0704 15.7622 39.235 15.9531 39.3996C16.2804 39.674 16.6077 39.9483 16.9622 40.1678C17.344 40.4148 17.7804 40.6068 18.2168 40.7715C18.4622 40.8538 18.7077 40.9361 18.9804 40.9909C19.1713 41.0458 19.3622 41.0458 19.5531 41.1007C19.5259 41.0184 19.5259 41.0184 19.5259 41.0184Z" fill="#E50942"/>
<path d="M87.0016 49.2769H80.538C80.5107 49.2769 80.4562 49.2769 80.4289 49.2495C80.1562 49.1946 79.938 49.03 79.8289 48.7831C79.6653 48.5087 79.7198 47.9325 79.7198 47.6033C79.2835 47.8228 78.8198 48.0423 78.3562 48.2343C77.9744 48.3715 77.5926 48.5087 77.2107 48.6459C76.9107 48.7282 76.5835 48.8379 76.3107 48.8928C75.8744 48.9751 75.4653 49.0849 75.0289 49.1397C74.5926 49.1946 74.1835 49.2495 73.7471 49.2769C73.2562 49.3044 72.7926 49.3044 72.3016 49.3044C72.2744 49.3044 72.2744 49.2769 72.2744 49.2769C71.8653 49.2769 71.4562 49.2221 71.0471 49.1946L71.0198 49.1672C70.6925 49.1398 70.3925 49.0849 70.0653 49.03C69.6562 48.9477 69.2744 48.8654 68.8926 48.7556C68.4835 48.6185 68.0471 48.5087 67.638 48.3441C67.2289 48.1795 66.9016 48.0697 66.5471 47.8777C65.4835 47.3838 64.4744 46.7527 63.5471 46.0394C63.3016 45.8473 63.0835 45.6553 62.8653 45.4632C62.5653 45.2163 62.2653 44.9145 61.9925 44.6401C61.638 44.256 61.3107 43.8719 60.9835 43.4603C60.6835 43.0762 60.4107 42.6921 60.1653 42.2805C59.5925 41.4026 59.1289 40.4697 58.7744 39.5094C58.6107 39.0704 58.4744 38.6314 58.338 38.165C58.1744 37.6163 58.0653 37.0675 57.9835 36.4914C57.9016 36.0249 57.8744 35.586 57.8198 35.1195C57.7925 34.5982 57.7653 34.0495 57.7925 33.5282C57.8198 33.0343 57.8471 32.5405 57.9289 32.0466C57.9835 31.5802 58.0925 31.1138 58.2016 30.6473C58.3107 30.1809 58.4471 29.7145 58.6107 29.2755C58.9107 28.3975 59.2925 27.547 59.7562 26.7239C59.9744 26.3123 60.2198 25.9282 60.4925 25.5441C60.738 25.1874 61.0107 24.8582 61.2562 24.5289C61.5562 24.1448 61.8835 23.7881 62.238 23.4589C62.5653 23.1296 62.9198 22.8004 63.2744 22.526C63.738 22.1419 64.2289 21.7852 64.7471 21.4286C65.1016 21.2091 65.4562 20.9896 65.838 20.7701C66.3562 20.4957 66.9016 20.2488 67.4198 20.0293C67.8289 19.8647 68.2653 19.7275 68.7016 19.5903C69.138 19.4531 69.6016 19.3434 70.0653 19.261C70.5835 19.1513 71.1016 19.0964 71.6198 19.0416C72.1925 18.9867 72.7925 18.9867 73.3653 19.0141C73.9107 19.0416 74.4835 19.0964 75.0289 19.1787C75.5198 19.2336 75.9835 19.3434 76.4744 19.4531C76.9107 19.5629 77.3744 19.7 77.8107 19.8647C78.6835 20.1665 79.5562 20.5506 80.3471 21.0444C80.7835 21.3188 81.2198 21.5932 81.6289 21.8675C82.038 22.1419 82.3653 22.4437 82.7198 22.7455C83.0744 23.0473 83.4289 23.4314 83.7835 23.7881C84.0562 24.0625 84.3016 24.3643 84.5471 24.6661C84.7653 24.9405 84.9835 25.2148 85.1744 25.5166C85.4471 25.9008 85.6925 26.2849 85.9107 26.6964C86.1016 27.0531 86.2925 27.4098 86.4562 27.7665C86.5925 28.0683 86.7289 28.3701 86.838 28.6719C87.0016 29.0834 87.138 29.5224 87.2744 29.9614C87.3835 30.3181 87.4653 30.6748 87.5471 31.0314C87.6289 31.3881 87.6835 31.8546 87.738 32.2661L87.7653 32.2935C87.8471 32.8423 87.8744 33.4184 87.8744 33.9672C87.9016 38.7961 87.8744 43.6249 87.8744 48.4538C87.8471 48.5636 87.8198 48.6733 87.7925 48.7556C87.6562 49.0026 87.438 49.1946 87.1653 49.2769C87.0835 49.2495 87.0562 49.2769 87.0016 49.2769ZM71.9744 41.0459C72.4107 41.0733 72.7925 41.1008 73.2289 41.0733C73.5289 41.0459 73.8016 41.0184 74.1016 40.9636L74.1289 40.9361C74.2925 40.8813 74.4835 40.8813 74.6471 40.8264C74.9744 40.7441 75.3016 40.6069 75.6289 40.4697C76.2289 40.1953 76.8016 39.8387 77.2925 39.3997C78.2198 38.604 78.9016 37.5888 79.3107 36.4365C79.3925 36.1621 79.4744 35.9152 79.5289 35.6408C79.5562 35.4762 79.5835 35.3116 79.6107 35.147L79.638 35.1195C79.6925 34.6805 79.7198 34.2416 79.6926 33.7751C79.6653 33.4184 79.638 33.0892 79.5562 32.7325C79.4471 32.2387 79.3107 31.7722 79.0925 31.3333C78.9016 30.8943 78.6835 30.4827 78.4107 30.0986C78.1653 29.7419 77.8653 29.4401 77.5653 29.1109C77.4289 28.9737 77.2653 28.8365 77.1016 28.6993C76.9107 28.5621 76.6925 28.3975 76.5016 28.2603C76.1198 28.0134 75.7107 27.8213 75.3016 27.6567C75.1107 27.5744 74.8925 27.4921 74.7016 27.4372C74.5107 27.3823 74.2926 27.3275 74.1016 27.3L74.0744 27.2726C73.8289 27.2177 73.5835 27.1903 73.3653 27.1629C73.1198 27.1354 72.8744 27.1354 72.6016 27.1354C72.5744 27.1354 72.5744 27.1629 72.5744 27.1629C72.4107 27.1629 72.2471 27.1629 72.0835 27.1903L72.0562 27.2177C71.8653 27.2452 71.6744 27.2452 71.4835 27.3C71.1562 27.3823 70.8562 27.4647 70.5289 27.5744C70.1198 27.739 69.7107 27.9311 69.3289 28.1506C68.7289 28.5073 68.1835 28.9737 67.7198 29.495C67.4471 29.7968 67.2016 30.126 66.9835 30.4827C66.738 30.8668 66.5471 31.2784 66.3835 31.6899C66.2744 32.0192 66.1653 32.3484 66.1107 32.6777C66.0835 32.8423 66.0562 33.0069 66.0289 33.1715L66.0016 33.199C65.9744 33.6105 65.9471 33.9672 65.9471 34.3787L65.9744 34.4062C66.0016 34.6257 66.0016 34.8177 66.0016 35.0098L66.0289 35.0372C66.0562 35.2018 66.0562 35.3665 66.1107 35.5311C66.3016 36.4365 66.6835 37.287 67.2016 38.0553C67.338 38.2748 67.5016 38.4668 67.6653 38.6589C67.8016 38.8235 67.9653 38.9881 68.1289 39.1527C68.838 39.8112 69.7107 40.3325 70.638 40.6618C70.9107 40.7441 71.1835 40.8264 71.4562 40.8813C71.5925 40.991 71.7835 40.991 71.9744 41.0459Z" fill="#E50942"/>
<path d="M113.019 49.3042C112.855 49.3042 112.691 49.2493 112.555 49.167C112.473 49.1122 112.391 49.0298 112.31 48.9475C112.201 48.8378 112.146 48.6732 112.119 48.536C112.091 43.7071 112.119 38.8508 112.119 34.0219C112.119 33.8847 112.091 33.6927 112.091 33.528L112.064 33.5006C112.01 33.0067 111.873 32.5403 111.682 32.1013C111.464 31.58 111.137 31.0862 110.755 30.6472C110.591 30.4551 110.401 30.2905 110.21 30.1259C109.964 29.9338 109.719 29.7418 109.446 29.6046C109.228 29.4674 109.01 29.3576 108.764 29.2753C108.464 29.1656 108.137 29.0833 107.81 29.001C107.564 28.9461 107.319 28.9187 107.046 28.8912C106.801 28.8638 106.528 28.8912 106.282 28.9187C105.955 28.9735 105.655 29.0284 105.328 29.1107C105.082 29.193 104.837 29.2753 104.619 29.3851C104.319 29.5223 104.019 29.7143 103.746 29.9064C103.473 30.0984 103.228 30.3179 103.01 30.5649C102.819 30.7844 102.628 31.0039 102.464 31.2508C102.137 31.7172 101.891 32.2385 101.728 32.7598C101.673 32.9244 101.646 33.1165 101.591 33.3085C101.537 33.528 101.51 33.775 101.51 33.9945L101.482 34.0219C101.482 38.8508 101.482 43.7071 101.482 48.536C101.455 48.6183 101.428 48.728 101.401 48.8104C101.291 49.0847 101.046 49.3042 100.746 49.3316C97.9915 49.3316 95.2369 49.3316 92.4824 49.3316C92.2915 49.3042 92.1006 49.1945 91.9642 49.0573C91.8824 48.975 91.8278 48.8652 91.7733 48.7555C91.746 48.6732 91.7188 48.5634 91.7188 48.4811C91.7188 43.5974 91.7188 38.741 91.7188 33.8573L91.746 33.8298C91.746 33.4183 91.7733 33.0616 91.8006 32.6501L91.8278 32.6226C91.8551 32.2385 91.9097 31.8544 91.9642 31.4703C92.0188 31.1136 92.1006 30.7295 92.2097 30.3728C92.346 29.9613 92.4551 29.5497 92.5915 29.1382C92.7278 28.7266 92.9188 28.2876 93.1097 27.8761C93.4097 27.2724 93.7097 26.6688 94.0915 26.0927C94.3642 25.6537 94.6642 25.2421 94.9915 24.8306C95.2369 24.5013 95.5369 24.1721 95.8097 23.8703C96.0551 23.6233 96.2733 23.3764 96.5188 23.1569C96.8733 22.8277 97.2551 22.5259 97.6097 22.2241C98.4551 21.5656 99.3824 20.9894 100.337 20.5504C100.773 20.3309 101.237 20.1663 101.701 19.9743C102.191 19.7822 102.71 19.645 103.201 19.5078C103.637 19.3981 104.073 19.3158 104.51 19.2335C105.028 19.1786 105.546 19.0963 106.064 19.0688C106.528 19.0414 107.046 19.0688 107.537 19.0688L107.564 19.0963C107.973 19.0963 108.382 19.1237 108.764 19.206C109.201 19.2883 109.691 19.3432 110.128 19.4529C110.673 19.5901 111.191 19.7273 111.71 19.9194C112.201 20.084 112.719 20.3035 113.182 20.523C114.082 20.962 114.955 21.4833 115.746 22.0869C116.101 22.3338 116.455 22.6356 116.782 22.91C117.137 23.2392 117.491 23.5959 117.846 23.9526C118.146 24.2544 118.419 24.6111 118.691 24.9403C118.882 25.1872 119.073 25.4616 119.237 25.7085C119.482 26.0652 119.701 26.4219 119.919 26.806C120.082 27.1353 120.273 27.4645 120.41 27.7937C120.737 28.5345 121.01 29.2753 121.228 30.0436C121.31 30.3728 121.391 30.7021 121.473 31.0313C121.555 31.4703 121.637 31.9093 121.691 32.3483C121.691 32.3757 121.719 32.3757 121.719 32.3757C121.746 32.7598 121.773 33.1165 121.801 33.4732C121.801 33.5006 121.828 33.528 121.828 33.5555C121.855 38.549 121.855 43.5425 121.828 48.536C121.828 48.6457 121.773 48.7555 121.719 48.8378C121.61 49.0298 121.446 49.167 121.228 49.2493C121.146 49.2768 121.037 49.3042 120.955 49.3042C118.364 49.3042 115.691 49.3317 113.019 49.3042Z" fill="#E50942"/>
<path d="M171.597 50.1546C171.133 50.0997 170.642 50.0723 170.206 50.0174C169.688 49.9351 169.115 49.7979 168.624 49.6882C168.242 49.6058 167.861 49.4687 167.479 49.3315C166.497 48.9748 165.542 48.5084 164.642 47.9596C163.852 47.4383 163.088 46.8622 162.406 46.2311C162.406 46.2311 162.379 46.2311 162.379 46.2037C161.997 45.8744 161.642 45.4903 161.315 45.1062C160.988 44.7221 160.661 44.338 160.361 43.9264C160.061 43.5423 159.815 43.1308 159.57 42.6918C159.352 42.3351 159.161 41.9784 158.97 41.5943C158.752 41.1279 158.561 40.6889 158.397 40.2225C158.233 39.8109 158.124 39.3993 157.988 38.9604C157.824 38.3842 157.715 37.808 157.633 37.2044C157.552 36.7654 157.524 36.3264 157.497 35.8874C157.47 35.3387 157.47 34.79 157.497 34.2412C157.497 34.2138 157.524 34.2138 157.524 34.2138C157.524 33.8297 157.552 33.4181 157.606 33.034C157.688 32.5676 157.742 32.1286 157.852 31.6622C157.988 31.1134 158.124 30.5647 158.315 30.016C158.479 29.5495 158.642 29.1105 158.861 28.6716C159.079 28.2051 159.324 27.7387 159.57 27.2997C160.061 26.4766 160.661 25.6809 161.288 24.9401C161.615 24.5835 161.942 24.2268 162.297 23.8975C162.679 23.5409 163.115 23.2116 163.524 22.8824C163.988 22.5531 164.452 22.2239 164.915 21.9495C165.324 21.7026 165.761 21.4831 166.197 21.2636C166.606 21.0715 167.015 20.9069 167.452 20.7423C168.024 20.5503 168.624 20.3582 169.224 20.221C169.579 20.1387 169.961 20.0564 170.315 20.029L170.342 20.0015C170.806 19.9466 171.27 19.8918 171.733 19.8643C172.197 19.8369 172.715 19.8369 173.206 19.8643C173.697 19.8918 174.215 19.9466 174.706 20.0015C175.224 20.0838 175.742 20.1936 176.261 20.3308C176.697 20.4679 177.133 20.6051 177.57 20.7423C178.033 20.9069 178.497 21.099 178.933 21.3185C179.37 21.538 179.806 21.7849 180.215 22.0318C180.542 22.2239 180.87 22.4434 181.17 22.6629C181.661 23.0196 182.097 23.3762 182.533 23.7604C182.915 24.0896 183.27 24.4463 183.597 24.8304C183.87 25.1596 184.142 25.4889 184.415 25.8181C184.742 26.2297 185.042 26.6961 185.315 27.1351C185.561 27.5741 185.806 28.0131 186.024 28.4795C186.433 29.3575 186.761 30.2903 187.006 31.2232C187.115 31.6622 187.224 32.1286 187.279 32.595C187.361 33.1712 187.415 33.7474 187.442 34.2961C187.47 34.8174 187.47 35.3661 187.415 35.8874C187.361 36.3539 187.333 36.7928 187.252 37.2593C187.197 37.616 186.924 37.9178 186.542 38.0001L186.433 38.0275C179.697 38.1098 172.933 38.0275 166.197 38.0275C166.279 38.1647 166.361 38.3293 166.442 38.4939C166.633 38.8232 166.852 39.125 167.097 39.3993C167.233 39.564 167.37 39.7286 167.533 39.8932C167.779 40.1127 168.024 40.3322 168.297 40.5517C168.761 40.9084 169.279 41.1827 169.797 41.4022C170.07 41.512 170.315 41.5943 170.588 41.6766C170.915 41.7589 171.242 41.8412 171.57 41.8687C172.061 41.9235 172.552 41.9235 173.042 41.8961C173.233 41.8961 173.506 41.8412 173.697 41.8138C173.915 41.7589 174.161 41.704 174.379 41.6492C174.842 41.512 175.279 41.3199 175.715 41.073C175.906 40.9633 176.097 40.8535 176.288 40.7163C176.533 40.5517 176.779 40.3596 176.997 40.1676C179.724 40.1676 182.479 40.1127 185.206 40.1676C185.342 40.195 185.506 40.2225 185.615 40.3048C185.724 40.3871 185.806 40.4694 185.888 40.5791C186.052 40.8261 186.079 41.1279 185.97 41.4022C185.779 41.8412 185.561 42.2528 185.315 42.6643C184.933 43.2954 184.524 43.899 184.088 44.4477C183.87 44.7221 183.624 45.0239 183.379 45.2708C182.997 45.6549 182.642 46.0116 182.233 46.3683C181.879 46.6701 181.524 46.9719 181.142 47.2463C179.97 48.0968 178.688 48.7827 177.324 49.2492C176.915 49.3864 176.479 49.5235 176.07 49.6333C175.797 49.6882 175.442 49.7705 175.17 49.8253L175.142 49.8528C174.842 49.9077 174.515 49.9351 174.188 49.99C174.161 49.99 174.161 50.0174 174.161 50.0174C173.752 50.0448 173.397 50.0723 172.988 50.0997L172.961 50.1271C172.579 50.1546 172.088 50.1546 171.597 50.1546ZM166.333 31.1409H178.688C178.579 30.9214 178.47 30.7293 178.361 30.5373C178.17 30.208 177.924 29.9062 177.679 29.6318C177.461 29.3849 177.215 29.138 176.942 28.9185C176.642 28.6715 176.342 28.4795 176.042 28.2874C175.77 28.1228 175.497 27.9856 175.224 27.8484C174.952 27.7387 174.706 27.6564 174.433 27.5741C174.052 27.4643 173.67 27.382 173.288 27.3546C172.988 27.3271 172.688 27.2997 172.388 27.3271C172.061 27.3546 171.733 27.382 171.406 27.4369C171.079 27.4918 170.752 27.5741 170.424 27.6838C170.124 27.7936 169.824 27.9033 169.552 28.0405C169.252 28.1777 168.979 28.3423 168.706 28.5069C168.461 28.6715 168.215 28.8636 167.97 29.0557C167.315 29.6044 166.742 30.3178 166.333 31.1409Z" fill="#E50942"/>
<path d="M139.256 50.045C138.71 50.0175 138.192 49.9626 137.674 49.8803C137.647 49.8803 137.647 49.8529 137.647 49.8529C137.292 49.798 136.937 49.7431 136.583 49.6608C136.01 49.5237 135.437 49.359 134.892 49.167C134.483 49.0298 134.074 48.8652 133.692 48.6731C132.819 48.2616 131.974 47.7677 131.183 47.219C130.692 46.8897 130.256 46.5056 129.819 46.1215C129.465 45.7922 129.11 45.463 128.81 45.1063C128.51 44.7496 128.156 44.3381 127.856 43.9265C127.556 43.515 127.283 43.1034 127.01 42.6644C126.519 41.8413 126.11 40.9634 125.783 40.0854C125.647 39.7013 125.537 39.3172 125.428 38.933C125.292 38.4117 125.156 37.8904 125.101 37.3691C125.019 36.8478 124.965 36.2991 124.937 35.7778C124.937 35.3663 124.91 34.9547 124.91 34.5157C124.937 33.967 124.965 33.4182 125.047 32.8695L125.074 32.8421C125.128 32.458 125.183 32.0738 125.265 31.6897C125.401 31.0861 125.565 30.4825 125.783 29.9063C125.947 29.4125 126.137 28.9735 126.356 28.507C126.547 28.0955 126.765 27.6839 127.01 27.2998C127.228 26.9157 127.474 26.5316 127.747 26.1475C128.047 25.7359 128.374 25.3244 128.728 24.9128C129.083 24.5013 129.437 24.1446 129.847 23.7879C130.147 23.5135 130.474 23.2392 130.801 22.9922C131.674 22.3063 132.601 21.7301 133.583 21.2637C134.047 21.0442 134.483 20.8522 134.947 20.6875C135.356 20.5504 135.819 20.3857 136.228 20.276C136.719 20.1662 137.21 20.0565 137.701 19.9742C138.192 19.8919 138.683 19.837 139.174 19.837C139.528 19.8096 139.91 19.8096 140.265 19.8096L140.347 19.837C140.728 19.8644 141.137 19.8644 141.519 19.8919C141.956 19.9193 142.392 20.0016 142.801 20.0839C143.292 20.1937 143.783 20.3034 144.274 20.4406C144.683 20.5778 145.119 20.715 145.528 20.8796C145.828 20.9894 146.128 21.1265 146.428 21.2912C147.274 21.7027 148.092 22.1966 148.856 22.7453C149.183 22.9648 149.51 23.2392 149.81 23.5135C150.11 23.7879 150.41 24.0623 150.683 24.3366C151.01 24.6659 151.31 25.05 151.637 25.4067C151.937 25.7634 152.21 26.12 152.456 26.5042C152.701 26.8608 152.919 27.2175 153.137 27.6016C153.356 27.9857 153.547 28.3699 153.737 28.7814C154.119 29.6045 154.392 30.4825 154.61 31.3605C154.637 31.4977 154.61 31.6074 154.583 31.7446C154.501 32.1013 154.201 32.3482 153.819 32.4031C150.819 32.4579 147.765 32.4031 144.737 32.4031C144.683 32.4031 144.628 32.3756 144.601 32.3208C144.465 32.1013 144.328 31.8818 144.165 31.6623C143.865 31.2782 143.51 30.9215 143.101 30.6197C142.528 30.2081 141.874 29.9063 141.165 29.7417C140.947 29.6868 140.701 29.6594 140.483 29.6594L140.456 29.632C140.265 29.6045 140.047 29.6045 139.856 29.632C139.856 29.632 139.828 29.632 139.828 29.6594C139.637 29.6594 139.447 29.6594 139.256 29.6868C139.065 29.7143 138.874 29.7417 138.683 29.7966C137.892 30.0161 137.156 30.4002 136.528 30.9489C136.092 31.333 135.737 31.7995 135.437 32.2933C135.328 32.4854 135.219 32.7049 135.137 32.8969C135.001 33.2536 134.892 33.6103 134.81 33.967C134.756 34.3236 134.728 34.6803 134.728 35.037C134.728 35.2565 134.756 35.5034 134.783 35.7229C134.892 36.5186 135.192 37.2868 135.656 37.9727C135.928 38.3843 136.283 38.741 136.637 39.0702C136.801 39.2074 136.965 39.3172 137.128 39.4269C137.565 39.7013 138.001 39.9208 138.492 40.0579C138.792 40.1403 139.092 40.2226 139.392 40.25C139.719 40.2774 140.074 40.3049 140.428 40.2774C140.619 40.2774 140.81 40.25 141.001 40.1951C141.956 40.0031 142.828 39.5641 143.537 38.933C144.001 38.494 144.383 38.0002 144.71 37.424C144.765 37.3691 144.819 37.3691 144.874 37.3417C147.847 37.3417 150.819 37.3417 153.765 37.3417C153.874 37.3417 154.01 37.3691 154.092 37.424C154.337 37.5338 154.528 37.7258 154.61 38.0002C154.665 38.1374 154.665 38.2746 154.637 38.4117C154.501 38.9879 154.337 39.5366 154.147 40.0854C154.01 40.4969 153.819 40.9085 153.656 41.32C153.465 41.7042 153.274 42.0883 153.056 42.4724C152.837 42.8291 152.592 43.2406 152.347 43.6247C152.128 43.954 151.883 44.2558 151.637 44.585C151.092 45.2435 150.492 45.8746 149.837 46.4507C149.51 46.7525 149.156 47.0269 148.774 47.2738C147.765 47.9872 146.674 48.5908 145.528 49.0572C144.792 49.359 144.056 49.5785 143.292 49.7431C142.965 49.798 142.637 49.8529 142.31 49.9078C142.283 49.9078 142.283 49.9352 142.283 49.9352C141.737 50.0175 141.219 50.045 140.701 50.0998C140.101 50.0724 139.692 50.0724 139.256 50.045Z" fill="#E50942"/>
</svg>
