<svg width="169" height="100" viewBox="0 0 169 100" fill="none" xmlns="http://www.w3.org/2000/svg">
<rect width="169" height="100" rx="10" fill="white"/>
<rect x="0.5" y="0.5" width="168" height="99" rx="9.5" stroke="black" stroke-opacity="0.2"/>
<mask id="mask0_4164_9482" style="mask-type:alpha" maskUnits="userSpaceOnUse" x="0" y="0" width="169" height="100">
<rect width="169" height="100" rx="6" fill="#171819"/>
</mask>
<g mask="url(#mask0_4164_9482)">
<path d="M101.715 48.475V57.6004C101.715 57.761 101.647 57.909 101.541 58.0135C101.432 58.1206 101.284 58.1844 101.12 58.1844H95.8894C95.7256 58.1844 95.5749 58.1181 95.4683 58.0135C95.3617 57.9064 95.2941 57.761 95.2941 57.6004V48.4699C95.2941 48.1664 95.2551 47.8731 95.1797 47.5925C95.1044 47.312 94.9926 47.0467 94.8522 46.7993C94.5896 46.3377 94.2205 45.9424 93.7786 45.644C93.3366 45.3456 92.8193 45.1441 92.263 45.0727C92.2448 45.0702 92.224 45.0676 92.2058 45.0651C92.1876 45.0625 92.1668 45.0625 92.146 45.06C92.0966 45.0549 92.0472 45.0498 91.9978 45.0472C91.9485 45.0447 91.8991 45.0421 91.8471 45.0421C90.8722 45.0294 89.9884 45.4272 89.3463 46.0674C88.7042 46.7075 88.3091 47.59 88.3091 48.5464V57.5978C88.3091 57.7585 88.2415 57.9064 88.1349 58.011C88.0257 58.1181 87.8775 58.1818 87.7137 58.1818H82.4834C82.3196 58.1818 82.1688 58.1155 82.0623 58.011C81.9557 57.9039 81.8881 57.7585 81.8881 57.5978V48.3423C81.8881 48.3041 81.8881 48.2633 81.8907 48.225C81.9427 46.0266 82.7537 44.0015 84.0743 42.3897C85.3949 40.7778 87.225 39.5868 89.3203 39.0537C89.3255 39.0512 89.3333 39.0512 89.3385 39.0486C89.3437 39.0461 89.3515 39.0461 89.3567 39.0435C90.5291 38.7681 91.6807 38.6967 92.7777 38.8012C93.8747 38.9058 94.9224 39.1864 95.8868 39.6148C95.9466 39.6403 96.0038 39.6684 96.061 39.6939C96.1182 39.7219 96.1754 39.7474 96.2352 39.7755C96.2638 39.7908 96.2924 39.8036 96.321 39.8189C96.3495 39.8342 96.3782 39.8469 96.4067 39.8622C96.4353 39.8775 96.4665 39.8928 96.4951 39.9081C96.5237 39.9234 96.5549 39.9387 96.5835 39.9566C98.1147 40.7829 99.3989 41.9944 100.301 43.4583C101.193 44.9222 101.712 46.6387 101.715 48.475ZM56.277 58.141H51.0466C50.8829 58.141 50.7321 58.0747 50.6255 57.9702C50.5163 57.863 50.4513 57.7177 50.4513 57.557V29.584C50.4513 29.4234 50.5189 29.2754 50.6255 29.1709C50.7347 29.0638 50.8829 29 51.0466 29H56.277C56.4408 29 56.5916 29.0663 56.6981 29.1709C56.8073 29.278 56.8723 29.4234 56.8723 29.584V57.557C56.8723 57.7177 56.8047 57.8656 56.6981 57.9702C56.5916 58.0747 56.4408 58.141 56.277 58.141ZM47.8674 44.254V44.3611L47.8622 44.8075L47.857 45.2538C47.8544 45.417 47.7946 45.5547 47.6984 45.6542C47.6022 45.7537 47.4644 45.8149 47.3007 45.8251H44.9272C45.351 46.6565 45.6239 47.4778 45.7591 48.3041C45.8943 49.1304 45.8943 49.9593 45.7721 50.8035C45.4965 52.7163 44.6543 54.3613 43.3545 55.6034C42.0521 56.848 40.2896 57.6896 38.1683 57.9982C37.5028 58.0951 36.8295 58.1436 36.1536 58.164C35.4778 58.187 34.7967 58.1844 34.1156 58.1818C33.8686 58.1818 33.6217 58.1793 33.3747 58.1793C33.1277 58.1793 32.8834 58.1819 32.6364 58.1844C32.2179 58.1921 31.8383 58.3374 31.5602 58.5772C31.282 58.8169 31.1105 59.1561 31.1053 59.5489C31.1001 59.9034 31.217 60.1916 31.4484 60.3931C31.6798 60.592 32.0281 60.7068 32.4856 60.7119C32.6988 60.7144 32.9952 60.7144 33.3539 60.717C33.7126 60.7195 34.1338 60.717 34.5939 60.717C35.8703 60.7144 37.4508 60.7119 38.8572 60.7297C40.2636 60.7476 41.4906 60.7807 42.0651 60.8521C43.695 61.0562 45.0416 61.7014 46.0269 62.6272C47.0121 63.553 47.636 64.7619 47.8232 66.0932C47.9324 67.2945 47.5502 68.6488 47.1317 69.725C46.7131 70.8013 46.253 71.5945 46.2062 71.6761L46.2088 71.6735L46.2114 71.671C46.2088 71.6735 46.2088 71.6761 46.2062 71.6761C46.2045 71.6778 46.2028 71.6795 46.201 71.6812C46.1542 71.7756 46.084 71.8546 45.9957 71.9082C45.9073 71.9617 45.7981 71.9949 45.6759 71.9949C45.6707 71.9949 45.6681 71.9949 45.6629 71.9974C45.6603 71.9974 45.6551 72 45.6499 72L45.4575 71.9974L45.2652 71.9949H39.8762L39.6709 71.9974L39.4655 72C39.4603 72 39.4577 72 39.4525 71.9974C39.4473 71.9949 39.4447 71.9949 39.4395 71.9949C39.2653 71.9923 39.1198 71.9311 39.0132 71.8291C38.9066 71.7271 38.8468 71.5843 38.8416 71.4134C38.8416 71.4134 38.8442 71.0768 38.8468 70.7197C38.8494 70.3626 38.852 69.9826 38.852 69.8985C38.8546 69.3246 38.7246 68.9089 38.4465 68.636C38.1683 68.3631 37.742 68.233 37.1519 68.233C35.9665 68.233 34.7837 68.2483 33.5983 68.2611C32.4129 68.2738 31.2274 68.2866 30.0446 68.2866C29.7847 68.2866 29.5247 68.2789 29.2674 68.256C29.0074 68.2356 28.75 68.1999 28.4953 68.1489C27.2267 67.8964 26.1557 67.4246 25.3264 66.6951C24.4971 65.9657 23.9096 64.9787 23.6081 63.6984C23.3065 62.4155 23.4079 61.1174 23.8524 59.9544C24.297 58.7914 25.0846 57.7636 26.1505 57.0163C26.3194 56.8964 26.4936 56.7842 26.6652 56.6695C26.8393 56.5572 27.0109 56.445 27.1825 56.3302C27.2189 56.2843 27.2059 56.2282 27.1799 56.1874C27.1539 56.1441 27.1175 56.1135 27.1123 56.1084C25.3576 55.0729 24.2372 53.7518 23.6185 52.2241C22.9972 50.6964 22.875 48.9647 23.1141 47.1054C23.3481 45.2844 24.0318 43.7771 25.0768 42.5529C26.1219 41.3287 27.5308 40.3851 29.2232 39.6888C29.9043 39.4082 30.5931 39.1966 31.2872 39.0461C31.9813 38.8956 32.6806 38.8063 33.3825 38.7706C33.3825 38.7706 36.7126 38.7681 40.1128 38.763C43.5131 38.7604 46.9809 38.7553 47.2591 38.7553H47.2773C47.4462 38.7604 47.5892 38.8216 47.6932 38.9211C47.7946 39.0231 47.857 39.1634 47.8596 39.3292L47.8648 39.7296L47.87 40.13V40.3238C47.87 40.89 47.87 41.5582 47.8726 42.2418C47.8648 42.9202 47.8648 43.619 47.8674 44.254ZM39.4447 48.4622C39.4447 47.2278 38.9352 46.1107 38.1111 45.3023C37.2845 44.4938 36.1458 43.9913 34.8877 43.9913C33.6295 43.9913 32.4908 44.4912 31.6668 45.2997C30.8427 46.1082 30.3332 47.2253 30.3332 48.4597C30.3332 49.6941 30.8427 50.8112 31.6668 51.6196C32.4908 52.4281 33.6295 52.928 34.8877 52.928C36.1458 52.928 37.2845 52.4281 38.1085 51.6196C38.9352 50.8137 39.4447 49.6966 39.4447 48.4622ZM116.78 50.5306H122.629C122.821 50.5306 122.99 50.6199 123.097 50.7525C123.206 50.8877 123.253 51.0687 123.208 51.2524C122.686 53.3845 121.446 55.2412 119.754 56.5649C118.061 57.8886 115.917 58.6817 113.585 58.6817C110.811 58.6817 108.302 57.5621 106.506 55.759C104.707 53.9558 103.621 51.4692 103.688 48.7326C103.751 46.1745 104.837 43.8485 106.561 42.1423C108.284 40.4361 110.642 39.3445 113.249 39.2603C115.641 39.1813 117.853 39.9362 119.603 41.2522C121.352 42.5682 122.642 44.4428 123.193 46.6055C123.24 46.7891 123.193 46.9702 123.084 47.1054C122.974 47.2406 122.805 47.3298 122.613 47.3298H116.728C116.704 47.3298 116.681 47.3247 116.663 47.312C116.642 47.3018 116.626 47.2839 116.613 47.2635C116.312 46.7509 115.878 46.3224 115.358 46.0215C114.838 45.7205 114.232 45.5471 113.585 45.5471C112.555 45.5471 111.627 45.9858 110.988 46.682C110.348 47.3783 109.995 48.3321 110.112 49.3676C110.203 50.1659 110.58 50.8851 111.139 51.4233C111.697 51.9614 112.436 52.3159 113.252 52.3899C113.988 52.4562 114.679 52.3006 115.269 51.9792C115.859 51.6604 116.343 51.1784 116.663 50.5969C116.673 50.5765 116.691 50.5587 116.712 50.5459C116.733 50.5332 116.756 50.5306 116.78 50.5306ZM144.998 48.8193C145.003 49.1075 144.998 49.3931 144.977 49.6762C144.957 49.9593 144.925 50.2373 144.884 50.5128C144.86 50.6556 144.788 50.778 144.681 50.8647C144.577 50.9514 144.439 51.0024 144.294 51.0024H131.01C131.259 51.4972 131.6 51.9384 132.008 52.3082C132.416 52.6781 132.894 52.9739 133.422 53.1779C133.526 53.2187 133.63 53.2544 133.739 53.2876C133.849 53.3208 133.955 53.3488 134.067 53.3743C134.085 53.3794 134.103 53.382 134.121 53.3871C134.14 53.3922 134.158 53.3947 134.176 53.3973C134.194 53.4024 134.212 53.4049 134.231 53.4075C134.249 53.41 134.267 53.4151 134.288 53.4177C134.329 53.4253 134.374 53.433 134.415 53.4381C134.459 53.4432 134.501 53.4508 134.545 53.4559C134.558 53.4585 134.574 53.4585 134.587 53.461C134.6 53.4636 134.615 53.4636 134.628 53.4661C134.652 53.4687 134.675 53.4712 134.699 53.4738C134.722 53.4763 134.745 53.4763 134.769 53.4789C134.795 53.4814 134.818 53.4814 134.844 53.484C134.87 53.4865 134.894 53.4865 134.92 53.4891C134.948 53.4891 134.979 53.4916 135.008 53.4916H135.19C135.221 53.4916 135.252 53.4891 135.283 53.4891C135.302 53.4891 135.322 53.4865 135.341 53.4865C135.359 53.4865 135.38 53.484 135.398 53.484C135.424 53.4814 135.45 53.4814 135.478 53.4789C135.504 53.4763 135.53 53.4738 135.559 53.4712C135.577 53.4687 135.598 53.4661 135.616 53.4661C135.634 53.4636 135.655 53.461 135.673 53.4585C135.692 53.4559 135.71 53.4534 135.731 53.4508C135.749 53.4483 135.77 53.4457 135.788 53.4432C136.225 53.3769 136.638 53.2519 137.025 53.0734C137.41 52.8948 137.766 52.6653 138.086 52.395C138.099 52.3848 138.112 52.3771 138.125 52.372C138.14 52.3669 138.156 52.3644 138.172 52.3644H143.503C143.724 52.3644 143.906 52.4766 144.008 52.6398C144.112 52.8005 144.135 53.0122 144.039 53.2085C143.236 54.8612 141.972 56.2563 140.41 57.2331C138.848 58.2099 136.989 58.771 134.992 58.7531C132.328 58.7302 129.902 57.6565 128.127 55.9375C126.354 54.2185 125.231 51.8492 125.176 49.2375C125.119 46.4882 126.224 43.9913 128.041 42.1882C129.861 40.3851 132.393 39.2782 135.187 39.3062C137.849 39.3317 140.275 40.408 142.048 42.1295C143.821 43.8511 144.944 46.2077 144.998 48.8193ZM139.172 46.5239C138.85 45.8837 138.374 45.3329 137.795 44.912C137.215 44.4912 136.529 44.203 135.783 44.0908C135.764 44.0883 135.746 44.0857 135.725 44.0832C135.707 44.0806 135.686 44.0781 135.668 44.0755C135.65 44.073 135.629 44.0704 135.611 44.0679C135.593 44.0653 135.572 44.0628 135.554 44.0628C135.528 44.0602 135.502 44.0577 135.473 44.0551C135.447 44.0525 135.421 44.0525 135.393 44.05C135.374 44.0474 135.354 44.0474 135.335 44.0474C135.315 44.0474 135.296 44.0449 135.278 44.0449C135.247 44.0423 135.216 44.0423 135.185 44.0423H135.003C134.974 44.0423 134.943 44.0449 134.914 44.0449C134.888 44.0449 134.865 44.0474 134.839 44.0474C134.813 44.05 134.79 44.05 134.764 44.0526C134.74 44.0551 134.717 44.0551 134.693 44.0577C134.67 44.0602 134.647 44.0628 134.623 44.0653C134.61 44.0679 134.595 44.0679 134.582 44.0704C134.569 44.073 134.553 44.073 134.54 44.0755C134.496 44.0806 134.454 44.0857 134.41 44.0934C134.366 44.0985 134.324 44.1061 134.283 44.1138C134.264 44.1163 134.244 44.1214 134.225 44.124C134.207 44.1265 134.189 44.1316 134.171 44.1342C134.153 44.1393 134.134 44.1418 134.116 44.1469C134.098 44.152 134.08 44.1546 134.062 44.1597C134.023 44.1673 133.984 44.1775 133.947 44.1877C133.908 44.1979 133.872 44.2081 133.833 44.2183C133.745 44.2438 133.659 44.2719 133.57 44.3025C133.485 44.3331 133.399 44.3637 133.316 44.3994C132.814 44.6085 132.356 44.9018 131.964 45.264C131.571 45.6262 131.246 46.0546 131.005 46.5341H139.172V46.5239ZM79.2599 48.4597V57.5902C79.2599 57.7508 79.1923 57.8962 79.0857 58.0033C78.9791 58.1104 78.8284 58.1742 78.6646 58.1742H74.5105C74.3467 58.1742 74.1959 58.1079 74.0893 58.0033C73.9828 57.8988 73.9152 57.7508 73.9152 57.5902V57.0903C73.2341 57.4371 72.5062 57.71 71.7419 57.8937C70.9802 58.0798 70.1822 58.1767 69.3607 58.1767C66.5843 58.1767 64.0757 57.0571 62.2794 55.2514C60.4805 53.4457 59.3939 50.9565 59.4615 48.2199C59.5265 45.6593 60.6157 43.3308 62.3444 41.6246C64.0732 39.9183 66.4362 38.8319 69.0462 38.7528C69.956 38.7247 70.8399 38.8191 71.6821 39.018C72.5244 39.217 73.3225 39.5205 74.0659 39.9158C75.5425 40.7013 76.7903 41.8413 77.695 43.2237C78.5996 44.606 79.1559 46.2255 79.2443 47.9674C79.2469 48.0082 79.2469 48.0491 79.2495 48.0899C79.2521 48.1307 79.2521 48.1715 79.2547 48.2123C79.2547 48.2556 79.2573 48.2964 79.2573 48.3398C79.2599 48.373 79.2599 48.4163 79.2599 48.4597ZM73.9126 48.4597C73.9126 47.2253 73.403 46.1082 72.579 45.2997C71.7549 44.4912 70.6163 43.9913 69.3581 43.9913C68.0999 43.9913 66.9613 44.4912 66.1372 45.2997C65.3132 46.1082 64.8036 47.2253 64.8036 48.4597C64.8036 49.6941 65.3132 50.8112 66.1372 51.6196C66.9613 52.4281 68.0999 52.928 69.3581 52.928C70.6163 52.928 71.7549 52.4281 72.579 51.6196C73.403 50.8112 73.9126 49.6941 73.9126 48.4597Z" fill="#FC024D"/>
</g>
</svg>
