<svg width="156" height="56" viewBox="0 0 156 56" fill="none" xmlns="http://www.w3.org/2000/svg">
<path d="M70.8338 21.5604H72.5497V31.6525C72.5497 32.5533 72.3837 33.3185 72.0517 33.9481C71.7195 34.5778 71.2514 35.0557 70.6471 35.382C70.0428 35.7083 69.3301 35.8714 68.5091 35.8714C67.7342 35.8714 67.0446 35.7313 66.4404 35.4509C65.8361 35.166 65.361 34.7615 65.015 34.2377C64.6691 33.7138 64.4961 33.091 64.4961 32.3694H66.1843C66.1843 32.7693 66.2836 33.1186 66.4819 33.4173C66.6848 33.7115 66.9616 33.9412 67.3121 34.1067C67.6627 34.2721 68.0617 34.3548 68.5091 34.3548C69.0027 34.3548 69.4224 34.2515 69.7683 34.0446C70.1143 33.8378 70.3772 33.5345 70.5572 33.1347C70.7416 32.7302 70.8338 32.2362 70.8338 31.6525V21.5604ZM75.7671 35.6785V25.0899H77.3999V35.6785H75.7671ZM76.5973 23.3251C76.279 23.3251 76.0046 23.2171 75.774 23.0011C75.548 22.7851 75.4349 22.5254 75.4349 22.2221C75.4349 21.9188 75.548 21.6591 75.774 21.4431C76.0046 21.2271 76.279 21.1191 76.5973 21.1191C76.9156 21.1191 77.1877 21.2271 77.4138 21.4431C77.6444 21.6591 77.7598 21.9188 77.7598 22.2221C77.7598 22.5254 77.6444 22.7851 77.4138 23.0011C77.1877 23.2171 76.9156 23.3251 76.5973 23.3251ZM84.7081 35.899C83.7486 35.899 82.9068 35.6715 82.1826 35.2165C81.463 34.7615 80.9003 34.1251 80.4945 33.307C80.0931 32.489 79.8925 31.5331 79.8925 30.4393C79.8925 29.3363 80.0931 28.3735 80.4945 27.5509C80.9003 26.7283 81.463 26.0894 82.1826 25.6345C82.9068 25.1795 83.7486 24.9519 84.7081 24.9519C85.6675 24.9519 86.507 25.1795 87.2265 25.6345C87.9507 26.0894 88.5134 26.7283 88.9147 27.5509C89.3206 28.3735 89.5237 29.3363 89.5237 30.4393C89.5237 31.5331 89.3206 32.489 88.9147 33.307C88.5134 34.1251 87.9507 34.7615 87.2265 35.2165C86.507 35.6715 85.6675 35.899 84.7081 35.899ZM84.7081 34.4375C85.4368 34.4375 86.0365 34.2515 86.507 33.8791C86.9774 33.5069 87.3257 33.0174 87.5517 32.4108C87.7777 31.8042 87.8907 31.147 87.8907 30.4393C87.8907 29.7315 87.7777 29.0721 87.5517 28.4609C87.3257 27.8495 86.9774 27.3556 86.507 26.9787C86.0365 26.6019 85.4368 26.4134 84.7081 26.4134C83.9792 26.4134 83.3796 26.6019 82.9091 26.9787C82.4386 27.3556 82.0904 27.8495 81.8644 28.4609C81.6383 29.0721 81.5253 29.7315 81.5253 30.4393C81.5253 31.147 81.6383 31.8042 81.8644 32.4108C82.0904 33.0174 82.4386 33.5069 82.9091 33.8791C83.3796 34.2515 83.9792 34.4375 84.7081 34.4375ZM101.924 25.9723C101.772 25.5081 101.571 25.0922 101.322 24.7245C101.078 24.3523 100.785 24.0351 100.443 23.7732C100.107 23.5113 99.7238 23.3114 99.2949 23.1734C98.8659 23.0356 98.3953 22.9667 97.8834 22.9667C97.0439 22.9667 96.2805 23.1827 95.5932 23.6147C94.906 24.0467 94.3593 24.6831 93.9535 25.5242C93.5475 26.3652 93.3446 27.397 93.3446 28.6194C93.3446 29.8419 93.5498 30.8735 93.9604 31.7146C94.3709 32.5556 94.9266 33.1922 95.6278 33.6242C96.3289 34.0561 97.1176 34.2721 97.9941 34.2721C98.8059 34.2721 99.5208 34.0997 100.139 33.7551C100.762 33.4058 101.246 32.9141 101.592 32.2798C101.943 31.6411 102.118 30.8897 102.118 30.0257L102.644 30.1359H98.3816V28.6194H103.778V30.1359C103.778 31.2987 103.529 32.3098 103.031 33.1691C102.537 34.0285 101.855 34.6949 100.983 35.1683C100.116 35.6371 99.1196 35.8714 97.9941 35.8714C96.7395 35.8714 95.637 35.5773 94.6868 34.9891C93.7413 34.4007 93.0033 33.5644 92.4727 32.4798C91.9469 31.3951 91.684 30.1084 91.684 28.6194C91.684 27.5026 91.8339 26.4985 92.1338 25.6069C92.4382 24.7107 92.8672 23.9478 93.4207 23.3182C93.9742 22.6886 94.6292 22.206 95.3857 21.8706C96.1421 21.535 96.9747 21.3674 97.8834 21.3674C98.6306 21.3674 99.3271 21.4799 99.9729 21.7051C100.623 21.9258 101.202 22.2405 101.71 22.6495C102.222 23.054 102.648 23.5388 102.99 24.1041C103.331 24.6647 103.566 25.2875 103.695 25.9723H101.924ZM109.623 35.9266C108.95 35.9266 108.338 35.8002 107.79 35.5474C107.241 35.2901 106.805 34.9201 106.482 34.4375C106.159 33.9505 105.998 33.3621 105.998 32.6729C105.998 32.0661 106.117 31.5745 106.357 31.1975C106.597 30.8162 106.918 30.5174 107.319 30.3014C107.72 30.0854 108.163 29.9245 108.648 29.8189C109.136 29.7085 109.628 29.6212 110.121 29.5569C110.767 29.4742 111.29 29.4122 111.692 29.3708C112.098 29.3249 112.393 29.249 112.577 29.1433C112.766 29.0375 112.861 28.8538 112.861 28.5918V28.5366C112.861 27.8565 112.674 27.3279 112.301 26.9511C111.932 26.5742 111.371 26.3859 110.619 26.3859C109.84 26.3859 109.229 26.5559 108.786 26.8959C108.343 27.2361 108.032 27.5991 107.852 27.9852L106.302 27.4337C106.579 26.7902 106.948 26.2893 107.409 25.9309C107.875 25.5678 108.382 25.315 108.931 25.1726C109.485 25.0255 110.029 24.9519 110.564 24.9519C110.905 24.9519 111.297 24.9933 111.74 25.0761C112.188 25.1542 112.619 25.3173 113.034 25.5655C113.454 25.8137 113.802 26.1883 114.079 26.6892C114.356 27.1901 114.494 27.8611 114.494 28.7021V35.6785H112.861V34.2445H112.778C112.667 34.4743 112.483 34.7202 112.225 34.9821C111.966 35.2441 111.623 35.467 111.194 35.6508C110.765 35.8347 110.241 35.9266 109.623 35.9266ZM109.872 34.4651C110.518 34.4651 111.062 34.3388 111.505 34.086C111.952 33.8332 112.289 33.5069 112.515 33.1071C112.746 32.7073 112.861 32.2868 112.861 31.8455V30.3565C112.792 30.4393 112.64 30.5151 112.404 30.5841C112.174 30.6484 111.906 30.7059 111.602 30.7564C111.302 30.8023 111.009 30.8437 110.723 30.8805C110.442 30.9126 110.213 30.9402 110.038 30.9631C109.614 31.0183 109.217 31.1079 108.848 31.2321C108.484 31.3515 108.189 31.5331 107.963 31.7766C107.741 32.0156 107.63 32.3419 107.63 32.7555C107.63 33.3207 107.84 33.7482 108.26 34.0378C108.684 34.3227 109.222 34.4651 109.872 34.4651ZM117.474 35.6785V25.0899H119.051V26.7443H119.19C119.412 26.179 119.769 25.7402 120.263 25.4276C120.756 25.1106 121.349 24.9519 122.041 24.9519C122.741 24.9519 123.325 25.1106 123.791 25.4276C124.261 25.7402 124.628 26.179 124.891 26.7443H125.002C125.274 26.1974 125.682 25.7631 126.226 25.4414C126.771 25.1151 127.424 24.9519 128.184 24.9519C129.135 24.9519 129.912 25.2484 130.516 25.8413C131.121 26.4295 131.422 27.3463 131.422 28.5918V35.6785H129.79V28.5918C129.79 27.8106 129.576 27.2522 129.147 26.9166C128.718 26.5812 128.213 26.4134 127.631 26.4134C126.883 26.4134 126.305 26.6386 125.895 27.089C125.484 27.5348 125.279 28.1001 125.279 28.7849V35.6785H123.618V28.4263C123.618 27.8243 123.423 27.3395 123.031 26.9718C122.638 26.5996 122.133 26.4134 121.515 26.4134C121.091 26.4134 120.694 26.526 120.325 26.7513C119.961 26.9764 119.665 27.289 119.439 27.6887C119.218 28.0839 119.108 28.5412 119.108 29.0605V35.6785H117.474ZM138.865 35.899C137.84 35.899 136.957 35.6738 136.214 35.2234C135.476 34.7684 134.906 34.1342 134.506 33.3207C134.109 32.5028 133.91 31.5515 133.91 30.4669C133.91 29.3822 134.109 28.4263 134.506 27.5991C134.906 26.7673 135.465 26.1193 136.179 25.6551C136.9 25.1863 137.739 24.9519 138.698 24.9519C139.251 24.9519 139.798 25.0439 140.337 25.2277C140.878 25.4116 141.369 25.7103 141.811 26.1239C142.254 26.533 142.607 27.0753 142.87 27.7508C143.133 28.4263 143.265 29.2582 143.265 30.2462V30.9356H135.072V29.5293H141.604C141.604 28.9319 141.484 28.3988 141.245 27.93C141.009 27.4613 140.672 27.0913 140.234 26.8202C139.8 26.549 139.289 26.4134 138.698 26.4134C138.048 26.4134 137.485 26.5742 137.01 26.8959C136.539 27.2131 136.177 27.6267 135.923 28.1369C135.67 28.6469 135.543 29.1939 135.543 29.7775V30.715C135.543 31.5147 135.681 32.1925 135.958 32.7486C136.24 33.3002 136.629 33.7206 137.128 34.0101C137.626 34.2951 138.205 34.4375 138.865 34.4375C139.293 34.4375 139.68 34.3778 140.026 34.2583C140.377 34.1342 140.679 33.9505 140.933 33.7068C141.186 33.4587 141.382 33.1508 141.521 32.7831L143.098 33.2243C142.932 33.7574 142.653 34.2261 142.261 34.6306C141.87 35.0305 141.385 35.3429 140.809 35.5681C140.232 35.7887 139.584 35.899 138.865 35.899ZM153.276 27.4613L151.809 27.8749C151.717 27.6313 151.581 27.3946 151.401 27.1649C151.226 26.9305 150.987 26.7374 150.682 26.5858C150.378 26.4341 149.988 26.3583 149.513 26.3583C148.862 26.3583 148.32 26.5076 147.886 26.8063C147.457 27.1005 147.243 27.475 147.243 27.93C147.243 28.3345 147.391 28.6539 147.685 28.8882C147.981 29.1226 148.442 29.3179 149.07 29.4742L150.647 29.8602C151.597 30.09 152.306 30.4415 152.771 30.9149C153.237 31.3837 153.47 31.9881 153.47 32.7279C153.47 33.3346 153.294 33.8769 152.945 34.3548C152.598 34.8327 152.114 35.2097 151.491 35.4854C150.868 35.7611 150.145 35.899 149.319 35.899C148.235 35.899 147.338 35.6646 146.627 35.1958C145.917 34.7271 145.467 34.0423 145.278 33.1415L146.827 32.7555C146.975 33.3254 147.254 33.7527 147.665 34.0378C148.08 34.3227 148.623 34.4651 149.291 34.4651C150.052 34.4651 150.656 34.3043 151.104 33.9826C151.556 33.6563 151.782 33.2657 151.782 32.8107C151.782 32.443 151.653 32.1351 151.394 31.8869C151.136 31.6341 150.739 31.4458 150.204 31.3217L148.433 30.9081C147.459 30.6782 146.745 30.3221 146.288 29.8395C145.836 29.3524 145.61 28.7435 145.61 28.0127C145.61 27.4153 145.779 26.8868 146.115 26.4273C146.457 25.9676 146.92 25.6069 147.506 25.345C148.096 25.083 148.765 24.9519 149.513 24.9519C150.564 24.9519 151.389 25.1818 151.989 25.6413C152.594 26.101 153.023 26.7076 153.276 27.4613Z" fill="white"/>
<path d="M28.9311 56C44.4519 56 57.034 43.464 57.034 28C57.034 12.536 44.4519 0 28.9311 0C13.4102 0 0.828125 12.536 0.828125 28C0.828125 43.464 13.4102 56 28.9311 56Z" fill="black"/>
<path d="M28.9272 56C44.448 56 57.0302 43.464 57.0302 28C57.0302 12.536 44.448 0 28.9272 0C13.4064 0 0.824219 12.536 0.824219 28C0.824219 43.464 13.4064 56 28.9272 56Z" fill="#4CA354"/>
<path d="M38.9547 18.0088H18.9012C13.3643 18.0055 8.87172 22.4747 8.86719 27.9914C8.86379 33.5082 13.3496 37.9843 18.8866 37.9888C21.5938 37.9911 24.1868 36.9019 26.0763 34.9687H31.7787C35.6437 38.9188 41.9906 39.0001 45.9553 35.1503C49.92 31.2994 50.0016 24.9758 46.1377 21.0256C44.2504 19.0956 41.6598 18.0076 38.9547 18.0088ZM22.6735 29.6132H20.5959V31.6832C20.5959 32.6154 19.8359 33.3716 18.9002 33.3705C17.9644 33.3705 17.2067 32.6143 17.2067 31.6832V29.6132H15.1291C14.1935 29.6132 13.4346 28.8571 13.4346 27.9249C13.4346 26.9927 14.1935 26.2364 15.1291 26.2364H17.2067V24.1666C17.2067 23.2343 17.9644 22.477 18.9002 22.477C19.8359 22.477 20.5959 23.2321 20.5959 24.1643V26.2364H22.6735C23.6091 26.2364 24.368 26.9927 24.368 27.9249C24.368 28.8571 23.6091 29.6132 22.6735 29.6132ZM35.4692 29.6132C34.5336 29.6132 33.7746 28.8571 33.7746 27.9249C33.7746 26.9927 34.5336 26.2364 35.4692 26.2364C36.4049 26.2364 37.1638 26.9927 37.1638 27.9249C37.1638 28.8571 36.4049 29.6132 35.4692 29.6132ZM39.2413 33.3716C38.3057 33.3716 37.5467 32.6154 37.5467 31.6832C37.5467 30.751 38.3057 29.9947 39.2413 29.9947C40.177 29.9947 40.936 30.751 40.936 31.6832C40.936 32.6154 40.177 33.3716 39.2413 33.3716ZM39.2413 25.8538C38.3057 25.8538 37.5467 25.0977 37.5467 24.1655C37.5467 23.2332 38.3057 22.477 39.2413 22.477C40.177 22.477 40.936 23.2332 40.936 24.1655C40.936 25.0977 40.1781 25.8538 39.2413 25.8538ZM43.0134 29.6122C42.0778 29.6122 41.3189 28.856 41.3189 27.9238C41.3189 26.9915 42.0778 26.2353 43.0134 26.2353C43.9491 26.2353 44.7081 26.9915 44.7081 27.9238C44.7081 28.856 43.9491 29.6112 43.0134 29.6122Z" fill="white"/>
</svg>
