<svg width="192" height="44" viewBox="0 0 192 44" fill="none" xmlns="http://www.w3.org/2000/svg">
<g clip-path="url(#clip0_1118_10573)">
<path d="M59.9587 6.80103C59.607 5.48641 58.9209 4.28794 57.9688 3.32495C57.0167 2.36197 55.8318 1.66809 54.5321 1.31241C49.7737 0 30.6247 0 30.6247 0C30.6247 0 11.475 0.0398276 6.71733 1.35224C5.4177 1.70798 4.23287 2.40188 3.28083 3.36486C2.3288 4.32784 1.64278 5.52629 1.29108 6.84086C-0.148166 15.3924 -0.706541 28.4221 1.33046 36.6311C1.68215 37.9457 2.36817 39.1442 3.32021 40.1071C4.27224 41.0701 5.45707 41.764 6.75671 42.1198C11.5147 43.4322 30.6641 43.4322 30.6641 43.4322C30.6641 43.4322 49.8135 43.4322 54.5715 42.1198C55.8711 41.764 57.0559 41.0701 58.008 40.1071C58.96 39.1442 59.646 37.9457 59.9977 36.6311C61.5153 28.0678 61.9833 15.0461 59.9583 6.80141" fill="#FF0000"/>
<path d="M24.5312 31.0231L40.417 21.7163L24.5312 12.4092V31.0231Z" fill="white"/>
<path d="M184.215 12.6079C186.299 12.6079 187.872 13.0054 188.973 13.761C190.074 14.517 190.86 15.7099 191.332 17.341C191.804 18.9716 192 21.1985 192 24.0623V28.7161H181.895V30.1476L182.052 34.0852C182.17 34.9603 182.367 35.5968 182.681 35.9943C182.996 36.3922 183.507 36.591 184.176 36.591C185.08 36.591 185.709 36.2333 186.024 35.5175C186.378 34.8014 186.535 33.6081 186.574 31.9774L191.804 32.2957C191.843 32.5342 191.843 32.8525 191.843 33.25C191.843 35.7557 191.175 37.6253 189.798 38.8581C188.422 40.0909 186.535 40.7273 184.058 40.7273C181.069 40.7273 178.985 39.773 177.806 37.9038C176.626 36.0341 175.997 33.0907 175.997 29.1534V24.3408C176.13 17.5795 177.306 12.6277 184.215 12.6079ZM111.51 13.1249V33.0512C111.51 34.2445 111.628 35.1196 111.903 35.6366C112.461 36.7423 113.909 36.4597 114.695 35.915C115.149 35.6046 115.515 35.1797 115.757 34.6823V13.1245H121.773V40.2896H117.054L116.543 36.9487H116.425C115.128 39.4544 113.2 40.727 110.645 40.727C106.711 40.7171 105.748 37.8503 105.519 34.9387L105.504 34.7335C105.476 34.2925 105.459 33.8508 105.455 33.4089V13.1249H111.51ZM142.535 13.1249V33.0512C142.535 34.2445 142.652 35.1196 142.927 35.6366C143.486 36.7423 144.933 36.4597 145.719 35.915C146.173 35.6046 146.539 35.1797 146.781 34.6823V13.1245H152.797V40.2896H148.078L147.567 36.9487H147.45C146.152 39.4544 144.225 40.727 141.669 40.727C137.736 40.7171 136.773 37.8503 136.544 34.9387L136.529 34.7335C136.501 34.2925 136.484 33.8508 136.479 33.4089V13.1249H142.535ZM94.0511 12.6079C96.0173 12.6079 97.6294 13.0054 98.8091 13.8407C99.9885 14.6759 100.893 15.9489 101.444 17.6987C101.994 19.4488 102.269 21.7952 102.269 24.6988V28.6361C102.269 31.5397 101.994 33.8467 101.444 35.5964C100.893 37.3469 100.028 38.6195 98.8091 39.4548C97.5904 40.2502 95.9385 40.6875 93.894 40.6875C91.7704 40.7273 90.1189 40.29 88.9001 39.4946C87.6814 38.6593 86.8159 37.3864 86.3051 35.6366C85.7936 33.8865 85.5578 31.5795 85.5578 28.6763V24.7383C85.5578 21.8347 85.833 19.4484 86.4229 17.6983C87.0127 15.9087 87.9169 14.6357 89.1754 13.8407C90.4335 13.0449 92.0456 12.6075 94.0511 12.6075M162.234 1.70996V16.0282H162.274C162.824 14.9942 163.532 14.1589 164.515 13.5224C165.433 12.898 166.515 12.5656 167.621 12.5681C169.076 12.5681 170.177 12.9656 171.003 13.7212C171.829 14.517 172.419 15.7498 172.772 17.4601C173.115 19.1169 173.31 21.4083 173.322 24.2979L173.323 24.5797V28.875C173.323 32.8919 172.812 35.8752 171.868 37.7843C170.885 39.6933 169.391 40.6481 167.346 40.6481C166.206 40.6481 165.183 40.3697 164.24 39.8527C163.405 39.3607 162.713 38.6554 162.234 37.8074L162.156 37.6648H162.038L161.409 40.2502H156.415V1.71034L162.234 1.70996ZM138.17 3.10203V8.03344H132.193V40.2896H126.295V8.03382H120.279V3.10241L138.17 3.10203ZM73.3286 3.10203L73.3324 3.1172C73.3898 3.37551 74.1848 6.95051 75.0593 11.1157L75.1283 11.4457L75.2325 11.9445L75.3022 12.2794L75.3371 12.4475L75.4069 12.7843L75.4418 12.9531L75.5111 13.2911L75.6124 13.7853C76.203 16.6696 76.7666 19.5622 77.1038 21.6363H77.2612C77.5841 19.7758 78.0533 17.3948 78.5535 14.9638L78.6848 14.3289C78.7508 14.011 78.8168 13.6931 78.8835 13.376L78.9863 12.8841C79.6656 9.66252 80.3652 6.4454 81.0851 3.23289L81.0964 3.18169L81.1144 3.10203H87.1305L80.1705 28.1991V40.2502H74.2331V28.2385H74.1938L67.3125 3.10165L73.3286 3.10203ZM93.933 16.8236C93.1073 16.8236 92.5567 17.2613 92.2031 18.1762C91.8491 19.0907 91.692 20.4828 91.692 22.4321V30.9036C91.692 32.8923 91.8491 34.3637 92.1638 35.2391C92.4784 36.1138 93.0683 36.5515 93.933 36.5515C94.7588 36.5515 95.3486 36.1138 95.7026 35.2391C96.0566 34.3637 96.2137 32.8923 96.2137 30.9036V22.4317C96.2137 20.4828 96.0562 19.0509 95.7026 18.1758C95.3486 17.2613 94.7588 16.8236 93.933 16.8236ZM163.296 17.6194C162.817 18.067 162.476 18.6189 162.273 19.3088L162.234 19.4488V34.8807C162.722 35.7159 163.414 36.2727 164.633 36.3125C165.262 36.3125 165.773 36.074 166.167 35.5968C166.56 35.1196 166.835 34.3238 166.992 33.2102C167.143 32.1413 167.222 30.6688 167.228 28.7935V25.0171C167.228 22.8694 167.149 21.2388 167.031 20.0853C166.874 18.9318 166.678 18.0965 166.324 17.6194C165.639 16.6248 164.161 16.637 163.296 17.6194ZM184.097 16.7045C183.429 16.7443 182.957 16.9431 182.681 17.3011C182.367 17.6987 182.17 18.2953 182.052 19.1704C181.937 20.0276 181.897 23.0242 181.895 23.144V25.0967H186.299V23.3747V23.4077C186.296 24.0096 186.284 23.0583 186.257 21.8904L186.253 21.7334C186.228 20.707 186.192 19.5626 186.142 19.1704C186.024 18.2555 185.827 17.619 185.513 17.2613C185.198 16.9032 184.726 16.7045 184.097 16.7045" fill="white"/>
</g>
<defs>
<clipPath id="clip0_1118_10573">
<rect width="192" height="44" fill="white"/>
</clipPath>
</defs>
</svg>
