<svg width="9" height="9" viewBox="0 0 9 9" fill="none" xmlns="http://www.w3.org/2000/svg">
<path d="M8.76009 1.3646C8.8351 1.292 8.89494 1.20514 8.93613 1.10908C8.97731 1.01303 8.99901 0.909714 8.99997 0.805158C9.00092 0.700602 8.98111 0.596902 8.94168 0.50011C8.90226 0.403317 8.84402 0.31537 8.77035 0.2414C8.69668 0.16743 8.60906 0.108918 8.51261 0.0692787C8.41616 0.0296396 8.3128 0.00966703 8.20857 0.010526C8.10434 0.0113849 8.00133 0.0330583 7.90554 0.0742817C7.80975 0.115505 7.7231 0.175453 7.65065 0.250627L4.50444 3.40567L1.35928 0.250627C1.28742 0.173261 1.20076 0.111208 1.10447 0.0681693C1.00818 0.0251306 0.90423 0.00198805 0.79883 0.000122548C0.69343 -0.00174295 0.588735 0.0177069 0.490991 0.0573113C0.393247 0.0969157 0.304457 0.155864 0.229916 0.230638C0.155376 0.305413 0.0966123 0.394482 0.0571319 0.492533C0.0176514 0.590584 -0.00173749 0.695608 0.000122164 0.801339C0.00198182 0.90707 0.0250519 1.01134 0.0679559 1.10793C0.11086 1.20453 0.172719 1.29146 0.249842 1.36355L3.39291 4.51964L0.247749 7.67468C0.10909 7.82396 0.0336026 8.02139 0.0371907 8.22539C0.0407788 8.4294 0.123162 8.62404 0.266985 8.76831C0.410807 8.91259 0.604839 8.99523 0.808202 8.99883C1.01157 9.00243 1.20838 8.9267 1.35719 8.78761L4.50444 5.63257L7.64961 8.78866C7.79841 8.92775 7.99523 9.00348 8.19859 8.99988C8.40196 8.99628 8.59599 8.91364 8.73981 8.76936C8.88363 8.62509 8.96602 8.43045 8.9696 8.22644C8.97319 8.02244 8.89771 7.82501 8.75905 7.67573L5.61598 4.51964L8.76009 1.3646Z" fill="#3E3E3E"/>
</svg>
