<svg width="71" height="40" viewBox="0 0 71 40" fill="none" xmlns="http://www.w3.org/2000/svg">
<path d="M18.2302 18.4844L13.8203 39.1602L17.364 39.916L21.7738 19.2402L18.2302 18.4844Z" fill="white"/>
<path d="M8.8642 30.1587L5.60938 31.749L9.64083 40.0001L12.8957 38.4098L8.8642 30.1587Z" fill="white"/>
<path d="M10.8148 22.388L9.20281 30.0406L12.7481 30.7881L14.8205 20.9501L13.0482 18.7646L4.35049 18.7663L0 39.1605L3.54367 39.9161L7.28254 22.388H10.8148Z" fill="white"/>
<path d="M39.9629 20.7971L37.1911 18.4629L25.5979 32.2309L28.3673 19.2518L24.8236 18.4954L20.4219 39.1304L23.9647 39.8868L39.9629 20.7971Z" fill="white"/>
<path d="M45.1232 18.4951L29.125 37.5847L31.8968 39.919L43.49 26.151L40.7206 39.1301L44.2643 39.8865L48.666 19.2515L45.1232 18.4951Z" fill="white"/>
<path d="M55.1234 19.1638L51.5797 18.4082L47.6172 36.9822L49.3886 39.1717H57.199V35.5491H51.6277L55.1234 19.1638Z" fill="white"/>
<path d="M66.81 27.2368H60.4799L65.8633 20.2072L62.9866 18.0039L55.3438 27.9834L56.8004 30.8968H63.133L57.883 37.6962L60.7605 39.8979L68.2667 30.0867L66.81 27.2368Z" fill="white"/>
<path d="M31.8233 0.201172H28.6261L25.25 16.0895H27.3346H28.4472H31.585L32.1608 13.4283H29.0125L31.8233 0.201172Z" fill="white"/>
<path d="M40.3038 0.201172H37.1066L33.7305 16.0895H35.815H36.9277H40.0655L40.6413 13.4283H37.4929L40.3038 0.201172Z" fill="white"/>
<path d="M51.2674 2.86238L51.8424 0.201172H48.7843H47.6521H45.5871L42.2109 16.0895H44.276H45.4081H48.4662L49.0429 13.4283H45.9742L46.8176 9.45603H49.6976L50.2539 6.83468H47.3748L48.219 2.86238H51.2674Z" fill="white"/>
<path d="M70.1541 2.86238L70.7299 0.201172H67.671H66.5388H64.4738L61.0977 16.0895H63.1627H64.2948H67.353L67.9296 13.4283H64.8609L65.7043 9.45603H68.5843L69.1407 6.83468H66.2615L67.1057 2.86238H70.1541Z" fill="white"/>
<path d="M13.8921 0.518416C13.2829 0.174379 12.5143 0.00195312 11.5879 0.00195312C10.7673 0.00195312 10.0751 0.160552 9.51313 0.478563C8.95031 0.796575 8.48021 1.28945 8.10282 1.95801C7.72544 2.62656 7.41719 3.51065 7.1797 4.60946L5.65064 11.8578C5.42535 12.8778 5.42941 13.7187 5.6604 14.38C5.8922 15.042 6.31269 15.5251 6.92187 15.8301C7.53024 16.1343 8.29883 16.2872 9.22522 16.2872C10.0597 16.2872 10.7575 16.1384 11.3203 15.8407C11.8832 15.543 12.346 15.0632 12.7103 14.4011C13.0739 13.7391 13.3756 12.8322 13.6139 11.6805L14.0507 9.63501H10.7933L10.1386 12.6931C10.0849 12.9583 10.0255 13.1665 9.95965 13.3186C9.89296 13.4715 9.80675 13.5772 9.70183 13.6358C9.59609 13.696 9.47003 13.7252 9.32444 13.7252C9.139 13.7252 8.99342 13.6886 8.88768 13.6163C8.78195 13.5439 8.71526 13.4211 8.68923 13.2486C8.66239 13.077 8.67622 12.8582 8.72909 12.5931L10.6559 3.6172C10.7217 3.33904 10.7909 3.12351 10.8641 2.97141C10.9373 2.81932 11.0259 2.71359 11.1325 2.6534C11.2382 2.59403 11.3708 2.56394 11.5302 2.56394C11.7018 2.56394 11.8409 2.60379 11.9474 2.68268C12.0532 2.76239 12.1158 2.88439 12.1361 3.05031C12.1556 3.21623 12.1329 3.44477 12.067 3.73513L11.4318 6.65498H14.6883L15.1056 4.68916C15.3309 3.6294 15.3366 2.75588 15.1251 2.06781C14.9136 1.37973 14.5029 0.863268 13.8937 0.518416" fill="white"/>
<path d="M22.2329 3.65672L20.2867 12.6928C20.22 12.971 20.1476 13.1857 20.0679 13.3378C19.9882 13.4907 19.8995 13.5932 19.7995 13.6452C19.7002 13.6981 19.5709 13.7249 19.4123 13.7249C19.2269 13.7249 19.0846 13.6916 18.9853 13.6257C18.8861 13.559 18.8267 13.4468 18.8064 13.2882C18.7869 13.1296 18.8031 12.9246 18.856 12.6725L20.8023 3.61606C20.8552 3.35172 20.9178 3.1427 20.991 2.98979C21.0634 2.8377 21.1528 2.72872 21.2594 2.66202C21.3651 2.59614 21.5042 2.5628 21.6766 2.5628C21.8491 2.5628 21.9841 2.5994 22.0841 2.67178C22.1833 2.74498 22.246 2.86373 22.2728 3.02883C22.2988 3.19475 22.2858 3.40296 22.2329 3.65428M25.2715 2.15532C25.0731 1.44691 24.6721 0.910927 24.0703 0.546556C23.4676 0.182999 22.69 0 21.7368 0C20.8893 0 20.1842 0.158599 19.6214 0.47661C19.0585 0.794622 18.5957 1.28424 18.2314 1.94629C17.867 2.60834 17.5661 3.49568 17.3278 4.6075L15.8182 11.7371C15.5938 12.7831 15.5864 13.6403 15.7987 14.3089C16.0102 14.9774 16.4144 15.4744 17.0106 15.7981C17.6059 16.1226 18.3875 16.2845 19.3538 16.2845C20.2143 16.2845 20.9259 16.125 21.4888 15.8078C22.0516 15.4898 22.5144 15.001 22.8787 14.3382C23.2423 13.6761 23.5375 12.7896 23.762 11.6769L25.2317 4.74658C25.457 3.72748 25.47 2.86291 25.2715 2.15451" fill="white"/>
<path d="M61.0676 2.17679C60.8619 1.46838 60.4617 0.929147 59.8663 0.55827C59.2702 0.187392 58.5089 0.00195312 57.5825 0.00195312C56.7611 0.00195312 56.0665 0.160552 55.4971 0.478563C54.9278 0.796575 54.4512 1.28945 54.0673 1.95801C53.6834 2.62656 53.3719 3.51065 53.1344 4.60946L51.6249 11.7594C51.4134 12.7395 51.4061 13.5666 51.6054 14.2417C51.8038 14.9168 52.1682 15.4267 52.6977 15.7708C53.2271 16.1148 53.8697 16.2872 54.6244 16.2872C55.1271 16.2872 55.5907 16.1978 56.0144 16.0188C56.4382 15.8399 56.8286 15.5788 57.1864 15.234L57.3849 16.088H58.6358L60.4031 7.82617H56.5301L56.0136 10.2686H56.609L56.1128 12.672C56.06 12.9371 55.9965 13.1421 55.9241 13.2877C55.8509 13.4341 55.7582 13.5431 55.646 13.6154C55.5329 13.6886 55.3906 13.7244 55.219 13.7244C55.0474 13.7244 54.9107 13.6846 54.8123 13.6049C54.7131 13.5252 54.6529 13.4097 54.6334 13.2576C54.6131 13.1055 54.6301 12.9038 54.683 12.6516L56.609 3.61557C56.6618 3.35043 56.7245 3.14221 56.7977 2.98931C56.87 2.83721 56.9595 2.72823 57.0661 2.66154C57.1718 2.59566 57.3109 2.56231 57.4833 2.56231C57.6557 2.56231 57.794 2.60216 57.9005 2.68106C58.0063 2.76076 58.0689 2.87951 58.0892 3.03811C58.1087 3.19671 58.0925 3.40248 58.0396 3.6538L57.3645 6.67287H60.6211L61.0383 4.7461C61.2636 3.74001 61.2734 2.88276 61.0684 2.17435" fill="white"/>
</svg>
