<svg width="14" height="15" viewBox="0 0 14 15" fill="none" xmlns="http://www.w3.org/2000/svg">
<path fill-rule="evenodd" clip-rule="evenodd" d="M7.34435 4.34111C7.34435 4.64593 7.09835 4.89193 6.79353 4.89193L6.79353 4.89168C6.4887 4.89168 6.2427 4.64568 6.2427 4.34085V3.09074C6.2427 2.67187 5.96011 2.30466 5.55632 2.19851C5.55187 2.19703 5.54766 2.19579 5.5436 2.19459C5.53785 2.1929 5.53238 2.19129 5.52691 2.18919L2.24564 1.13344C1.97238 1.06531 1.68551 1.12555 1.46173 1.2984C1.23222 1.47485 1.10169 1.74093 1.10169 2.02925V12.1608C1.10169 12.4491 1.23222 12.7152 1.45958 12.8938C1.68334 13.0681 1.96808 13.1269 2.2435 13.0587L5.52476 12.003C5.52753 12.0021 5.5302 12.0011 5.5328 12.0002C5.54032 11.9977 5.54724 11.9953 5.55417 11.9937C5.95796 11.8875 6.24055 11.5203 6.24055 11.1014V9.84917C6.24055 9.54434 6.48655 9.29834 6.79138 9.29834C7.09621 9.29834 7.34221 9.54434 7.34221 9.84917L7.34149 11.0993C7.34149 12.0138 6.72827 12.8142 5.84895 13.0531L2.56622 14.111C2.56345 14.1119 2.56078 14.1128 2.55818 14.1137C2.55066 14.1163 2.54374 14.1187 2.53681 14.1203C2.36468 14.1662 2.1904 14.1884 2.01755 14.1884C1.57718 14.1884 1.14755 14.0435 0.787515 13.766C0.286172 13.3801 0 12.7949 0 12.163V2.02944C0 1.39614 0.289752 0.808738 0.789663 0.42215C1.28956 0.0362842 1.92861 -0.0935343 2.53967 0.067841C2.54412 0.0693244 2.54833 0.0705622 2.55239 0.0717577C2.55815 0.0734526 2.56361 0.0750622 2.56908 0.0771651L5.85182 1.13506C6.73114 1.37612 7.34435 2.17653 7.34435 3.08884V4.34111ZM9.2712 3.32935C9.48565 3.11418 9.83421 3.11418 10.0494 3.32935L13.4226 6.7067C13.6378 6.92115 13.6378 7.26971 13.4226 7.48489L10.0481 10.8594C9.94122 10.9677 9.79992 11.0208 9.65863 11.0208C9.51734 11.0208 9.37748 10.9677 9.26918 10.8594C9.054 10.645 9.054 10.2964 9.26918 10.0812L11.7062 7.64622H4.33598C4.03116 7.64622 3.78516 7.40022 3.78516 7.0954C3.78516 6.79057 4.03116 6.54457 4.33598 6.54457H11.7062L9.2712 4.10753C9.05603 3.89308 9.05603 3.54452 9.2712 3.32935Z" fill="#B4B4B4"/>
</svg>
