<svg width="85" height="49" viewBox="0 0 85 49" fill="none" xmlns="http://www.w3.org/2000/svg">
<path d="M21.91 22.2151L16.6104 47.0625L20.869 47.9708L26.1686 23.1234L21.91 22.2151Z" fill="white"/>
<path d="M10.6542 36.2451L6.74268 38.1562L11.5875 48.0721L15.4991 46.1609L10.6542 36.2451Z" fill="white"/>
<path d="M12.9969 26.9091L11.0596 36.1057L15.3202 37.004L17.8107 25.181L15.6809 22.5547L5.22826 22.5566L0 47.0656L4.25865 47.9737L8.75188 26.9091H12.9969Z" fill="white"/>
<path d="M48.0266 24.9927L44.6956 22.1875L30.7633 38.7334L34.0915 23.1356L29.8328 22.2266L24.543 47.0249L28.8006 47.9339L48.0266 24.9927Z" fill="white"/>
<path d="M54.2275 22.2266L35.0015 45.1678L38.3325 47.973L52.2648 31.4271L48.9366 47.0249L53.1953 47.9339L58.4851 23.1356L54.2275 22.2266Z" fill="white"/>
<path d="M66.2482 23.033L61.9896 22.125L57.2275 44.4465L59.3564 47.0777H68.7426V42.7243H62.0472L66.2482 23.033Z" fill="white"/>
<path d="M80.2866 32.7286H72.6793L79.1489 24.2807L75.6917 21.6328L66.5068 33.6258L68.2574 37.127H75.8677L69.5584 45.2983L73.0165 47.9442L82.0372 36.1535L80.2866 32.7286Z" fill="white"/>
<path d="M38.2458 0.242188H34.4035L30.3462 19.3362H32.8513H34.1885H37.9594L38.6514 16.1381H34.8678L38.2458 0.242188Z" fill="white"/>
<path d="M48.4362 0.242188H44.5939L40.5366 19.3362H43.0418H44.3789H48.1498L48.8418 16.1381H45.0582L48.4362 0.242188Z" fill="white"/>
<path d="M61.6112 3.44033L62.3022 0.242188H58.6271H57.2665H54.7848L50.7275 19.3362H53.2092H54.5698H58.2449L58.9379 16.1381H55.2501L56.2637 11.3643H59.7248L60.3933 8.21408H56.9332L57.9478 3.44033H61.6112Z" fill="white"/>
<path d="M84.308 3.44033L85 0.242188H81.3239H79.9633H77.4816L73.4243 19.3362H75.906H77.2666H80.9417L81.6347 16.1381H77.9469L78.9605 11.3643H82.4215L83.0901 8.21408H79.63L80.6446 3.44033H84.308Z" fill="white"/>
<path d="M16.6944 0.620666C15.9623 0.207215 15.0387 0 13.9254 0C12.9391 0 12.1073 0.190598 11.4319 0.572772C10.7556 0.954946 10.1906 1.54727 9.73708 2.35071C9.28356 3.15416 8.91311 4.21662 8.6277 5.53713L6.79014 14.248C6.51939 15.4737 6.52428 16.4843 6.80187 17.279C7.08044 18.0746 7.58577 18.6552 8.31786 19.0217C9.04898 19.3873 9.97264 19.571 11.0859 19.571C12.0888 19.571 12.9274 19.3922 13.6038 19.0344C14.2802 18.6767 14.8363 18.1 15.2742 17.3044C15.7111 16.5087 16.0737 15.4189 16.3601 14.0349L16.885 11.5766H12.9704L12.1836 15.2518C12.1191 15.5704 12.0477 15.8206 11.9686 16.0034C11.8884 16.1872 11.7848 16.3142 11.6587 16.3846C11.5316 16.4569 11.3801 16.4921 11.2052 16.4921C10.9823 16.4921 10.8074 16.4481 10.6803 16.3612C10.5532 16.2742 10.4731 16.1266 10.4418 15.9194C10.4096 15.7131 10.4262 15.4502 10.4897 15.1316L12.8052 4.34466C12.8844 4.01038 12.9675 3.75137 13.0555 3.56859C13.1434 3.38581 13.25 3.25874 13.378 3.18641C13.5051 3.11506 13.6644 3.0789 13.856 3.0789C14.0622 3.0789 14.2293 3.12679 14.3574 3.2216C14.4844 3.31739 14.5597 3.464 14.5841 3.6634C14.6076 3.86279 14.5802 4.13745 14.5011 4.48639L13.7377 7.99536H17.6513L18.1527 5.63291C18.4235 4.35933 18.4303 3.30957 18.1762 2.48267C17.9221 1.65576 17.4285 1.0351 16.6964 0.620666" fill="white"/>
<path d="M26.718 4.39451L24.379 15.2537C24.2989 15.588 24.2119 15.8461 24.1161 16.0288C24.0203 16.2126 23.9138 16.3357 23.7935 16.3983C23.6743 16.4618 23.5189 16.4941 23.3283 16.4941C23.1054 16.4941 22.9344 16.454 22.8151 16.3748C22.6959 16.2947 22.6245 16.1598 22.6001 15.9692C22.5766 15.7786 22.5962 15.5323 22.6597 15.2293L24.9987 4.34564C25.0622 4.02798 25.1375 3.77678 25.2255 3.59302C25.3125 3.41024 25.42 3.27927 25.548 3.19912C25.6751 3.11995 25.8422 3.07987 26.0494 3.07987C26.2567 3.07987 26.4189 3.12386 26.5391 3.21085C26.6584 3.29882 26.7336 3.44152 26.7659 3.63994C26.7972 3.83933 26.7815 4.08956 26.718 4.39158M30.3697 2.59018C30.1312 1.73884 29.6493 1.09472 28.926 0.656831C28.2017 0.219921 27.2673 0 26.1218 0C25.1033 0 24.2559 0.190598 23.5795 0.572772C22.9031 0.954946 22.347 1.54336 21.9091 2.33898C21.4712 3.13461 21.1095 4.20098 20.8231 5.53713L19.009 14.1053C18.7393 15.3622 18.7305 16.3924 18.9856 17.1959C19.2397 17.9993 19.7255 18.5965 20.4419 18.9855C21.1574 19.3755 22.0967 19.57 23.2579 19.57C24.292 19.57 25.1473 19.3785 25.8237 18.9973C26.5 18.6151 27.0562 18.0277 27.4941 17.2311C27.931 16.4354 28.2858 15.37 28.5556 14.0329L30.3218 5.70427C30.5925 4.47955 30.6082 3.44054 30.3697 2.5892" fill="white"/>
<path d="M73.3882 2.61364C73.1409 1.7623 72.66 1.11427 71.9446 0.66856C71.2281 0.222853 70.3132 0 69.1999 0C68.2127 0 67.378 0.190598 66.6938 0.572772C66.0096 0.954946 65.4369 1.54727 64.9755 2.35071C64.5142 3.15416 64.1398 4.21662 63.8544 5.53713L62.0403 14.1297C61.7862 15.3075 61.7774 16.3015 62.0168 17.1128C62.2553 17.9241 62.6932 18.5369 63.3295 18.9504C63.9658 19.3638 64.738 19.571 65.645 19.571C66.2491 19.571 66.8062 19.4635 67.3155 19.2485C67.8247 19.0334 68.2939 18.7197 68.7239 18.3053L68.9624 19.3316H70.4657L72.5897 9.40285H67.9352L67.3145 12.3381H68.03L67.4337 15.2264C67.3702 15.545 67.294 15.7913 67.207 15.9663C67.119 16.1422 67.0076 16.2732 66.8727 16.3602C66.7368 16.4481 66.5658 16.4912 66.3595 16.4912C66.1533 16.4912 65.9891 16.4433 65.8708 16.3475C65.7516 16.2517 65.6792 16.1129 65.6558 15.9301C65.6314 15.7473 65.6519 15.5049 65.7154 15.2019L68.03 4.34271C68.0935 4.02407 68.1688 3.77385 68.2567 3.59009C68.3437 3.40731 68.4512 3.27634 68.5793 3.19619C68.7063 3.11702 68.8735 3.07694 69.0807 3.07694C69.2879 3.07694 69.4541 3.12484 69.5821 3.21965C69.7092 3.31543 69.7844 3.45814 69.8089 3.64874C69.8323 3.83933 69.8128 4.08662 69.7493 4.38865L68.938 8.01686H72.8516L73.353 5.70133C73.6238 4.49226 73.6355 3.46205 73.3892 2.61071" fill="white"/>
</svg>
