<svg width="75" height="75" viewBox="0 0 75 75" fill="none" xmlns="http://www.w3.org/2000/svg">
<rect x="0.144531" width="74.2863" height="74.2863" rx="6" fill="#333333"/>
<path d="M56.1445 25.398V26.8305L37.1445 41.0492L18.1445 26.8305V25.398C18.1452 24.7623 18.4015 24.1528 18.8573 23.7032C19.3131 23.2536 19.9311 23.0007 20.5757 23H53.7133C54.358 23.0007 54.976 23.2536 55.4318 23.7032C55.8875 24.1528 56.1439 24.7623 56.1445 25.398ZM18.1445 28.1857V49.6008C18.1442 50.1488 18.3351 50.6802 18.6851 51.1058L31.666 38.3051L18.1445 28.1857ZM37.4755 42.1566C37.3803 42.2279 37.2641 42.2666 37.1445 42.2666C37.025 42.2666 36.9087 42.2279 36.8136 42.1566L32.5461 38.9631L19.5526 51.7772C19.8725 51.9241 20.2212 52.0002 20.5741 52H53.7117C54.0646 52.0002 54.4133 51.9241 54.7332 51.7772L41.7397 38.9631L37.4755 42.1566ZM55.604 51.1058C55.954 50.6802 56.1449 50.1488 56.1445 49.6008V28.1857L42.6231 38.3051L55.604 51.1058Z" fill="white"/>
</svg>
