<svg width="324" height="670" viewBox="0 0 324 670" fill="none" xmlns="http://www.w3.org/2000/svg">
<g filter="url(#filter0_b_1107_8659)">
<mask id="path-1-inside-1_1107_8659" fill="white">
<path fill-rule="evenodd" clip-rule="evenodd" d="M278 5C278 2.23858 275.761 0 273 0H48C45.2386 0 43 2.23858 43 5V40.6945C43 43.4559 40.7614 45.6945 38 45.6945H5C2.23858 45.6945 0 47.933 0 50.6945V661.825C0 666.34 3.66003 670 8.17492 670H315.825C320.34 670 324 666.34 324 661.825V50.6945C324 47.933 321.761 45.6945 319 45.6945H283C280.239 45.6945 278 43.4559 278 40.6945V5Z"/>
</mask>
<path fill-rule="evenodd" clip-rule="evenodd" d="M278 5C278 2.23858 275.761 0 273 0H48C45.2386 0 43 2.23858 43 5V40.6945C43 43.4559 40.7614 45.6945 38 45.6945H5C2.23858 45.6945 0 47.933 0 50.6945V661.825C0 666.34 3.66003 670 8.17492 670H315.825C320.34 670 324 666.34 324 661.825V50.6945C324 47.933 321.761 45.6945 319 45.6945H283C280.239 45.6945 278 43.4559 278 40.6945V5Z" fill="#050607" fill-opacity="0.53"/>
<path d="M273 -0.681245H48V0.681245H273V-0.681245ZM42.3188 5V40.6945H43.6812V5H42.3188ZM42.3188 40.6945C42.3188 43.0796 40.3852 45.0132 38 45.0132V46.3757C41.1377 46.3757 43.6812 43.8321 43.6812 40.6945H42.3188ZM38 45.0132H5V46.3757H38V45.0132ZM-0.681245 50.6945V661.825H0.681245V50.6945H-0.681245ZM-0.681245 661.825C-0.681245 666.716 3.28379 670.681 8.17492 670.681V669.319C4.03627 669.319 0.681245 665.964 0.681245 661.825H-0.681245ZM8.17492 670.681H315.825V669.319H8.17492V670.681ZM315.825 670.681C320.716 670.681 324.681 666.716 324.681 661.825H323.319C323.319 665.964 319.964 669.319 315.825 669.319V670.681ZM324.681 661.825V50.6945H323.319V661.825H324.681ZM319 45.0132H283V46.3757H319V45.0132ZM283 45.0132C280.615 45.0132 278.681 43.0796 278.681 40.6945H277.319C277.319 43.8321 279.862 46.3757 283 46.3757V45.0132ZM278.681 40.6945V5H277.319V40.6945H278.681ZM324.681 50.6945C324.681 47.5568 322.138 45.0132 319 45.0132V46.3757C321.385 46.3757 323.319 48.3093 323.319 50.6945H324.681ZM5 45.0132C1.86233 45.0132 -0.681245 47.5568 -0.681245 50.6945H0.681245C0.681245 48.3093 2.61482 46.3757 5 46.3757V45.0132ZM48 -0.681245C44.8623 -0.681245 42.3188 1.86234 42.3188 5H43.6812C43.6812 2.61482 45.6148 0.681245 48 0.681245V-0.681245ZM273 0.681245C275.385 0.681245 277.319 2.61482 277.319 5H278.681C278.681 1.86234 276.138 -0.681245 273 -0.681245V0.681245Z" fill="url(#paint0_linear_1107_8659)" mask="url(#path-1-inside-1_1107_8659)"/>
</g>
<defs>
<filter id="filter0_b_1107_8659" x="-62.1976" y="-62.1976" width="448.395" height="794.395" filterUnits="userSpaceOnUse" color-interpolation-filters="sRGB">
<feFlood flood-opacity="0" result="BackgroundImageFix"/>
<feGaussianBlur in="BackgroundImageFix" stdDeviation="31.0988"/>
<feComposite in2="SourceAlpha" operator="in" result="effect1_backgroundBlur_1107_8659"/>
<feBlend mode="normal" in="SourceGraphic" in2="effect1_backgroundBlur_1107_8659" result="shape"/>
</filter>
<linearGradient id="paint0_linear_1107_8659" x1="0" y1="0" x2="515.763" y2="450.417" gradientUnits="userSpaceOnUse">
<stop stop-color="white" stop-opacity="0.16"/>
<stop offset="1" stop-color="white" stop-opacity="0.02"/>
</linearGradient>
</defs>
</svg>
