<svg width="31" height="29" viewBox="0 0 31 29" fill="none" xmlns="http://www.w3.org/2000/svg">
<path fill-rule="evenodd" clip-rule="evenodd" d="M6.85055 0C7.19464 0 7.52464 0.132692 7.76796 0.368887C8.01127 0.605081 8.14796 0.92543 8.14796 1.25946V4.0605C13.0396 3.6376 17.9603 3.6376 22.852 4.0605V1.25946C22.852 0.92543 22.9887 0.605081 23.232 0.368887C23.4753 0.132692 23.8053 0 24.1494 0C24.4935 0 24.8235 0.132692 25.0668 0.368887C25.3101 0.605081 25.4468 0.92543 25.4468 1.25946V4.30903C26.7089 4.48276 27.8776 5.05264 28.7747 5.93167C29.6718 6.81071 30.2479 7.95058 30.4151 9.17726L30.5656 10.2738C31.1952 14.8851 31.1399 19.5602 30.403 24.1581C30.2253 25.265 29.6739 26.2832 28.8354 27.0528C27.9968 27.8224 26.9187 28.2998 25.7703 28.41L23.7066 28.6082C18.2487 29.1306 12.7512 29.1306 7.2934 28.6082L5.22964 28.41C4.08126 28.2998 3.00312 27.8224 2.16459 27.0528C1.32607 26.2832 0.774663 25.265 0.597004 24.1581C-0.140198 19.5613 -0.194958 14.8857 0.434394 10.2738L0.584895 9.17726C0.752042 7.95058 1.32814 6.81071 2.22523 5.93167C3.12232 5.05264 4.2911 4.48276 5.55313 4.30903V1.25946C5.55313 0.92543 5.68982 0.605081 5.93313 0.368887C6.17645 0.132692 6.50645 0 6.85055 0ZM7.62035 6.63819C12.8619 6.13608 18.1381 6.13608 23.3796 6.63819L24.9452 6.78932C26.445 6.93206 27.6438 8.05886 27.8427 9.50807L27.9932 10.6046C28.0451 10.9875 28.0918 11.3704 28.1351 11.7549H2.86489C2.90813 11.3704 2.95484 10.9875 3.00674 10.6046L3.15724 9.50807C3.25324 8.8038 3.59177 8.15173 4.11781 7.65785C4.64386 7.16396 5.3265 6.85728 6.0548 6.78764L7.62035 6.63819ZM2.65903 14.2739C2.48914 17.4476 2.65725 20.6299 3.1607 23.7702C3.24986 24.3253 3.52639 24.8359 3.94689 25.2219C4.36738 25.6079 4.90803 25.8474 5.48393 25.9029L7.54769 26.101C12.836 26.6082 18.164 26.6082 23.4523 26.101L25.516 25.9029C26.0919 25.8474 26.6326 25.6079 27.0531 25.2219C27.4736 24.8359 27.7501 24.3253 27.8393 23.7702C28.3444 20.6266 28.5105 17.4443 28.3409 14.2739H2.65903Z" fill="black"/>
</svg>
