<svg width="273" height="130" viewBox="0 0 273 130" fill="none" xmlns="http://www.w3.org/2000/svg">
<path d="M171.111 71.4524L169.84 71.6734L169.845 71.706L169.853 71.7383L171.111 71.4524ZM172.803 75.5778L171.72 76.2786L171.73 76.2938L171.74 76.3086L172.803 75.5778ZM175.976 78.3281L175.376 79.4697V79.4697L175.976 78.3281ZM187.718 77.2703L188.486 78.3069L188.492 78.3023L187.718 77.2703ZM192.796 71.5582L191.692 70.8896L192.796 71.5582ZM196.392 63.7305L195.171 63.3136L196.392 63.7305ZM198.719 55.0565L197.459 54.7799L197.456 54.7947L197.453 54.8095L198.719 55.0565ZM199.989 46.9114L198.706 46.7728L198.704 46.7885L198.703 46.8043L199.989 46.9114ZM199.777 35.2756L198.516 35.5497L198.522 35.5756L198.529 35.6013L199.777 35.2756ZM197.873 31.0445L196.819 31.7884L196.833 31.8085L196.848 31.8281L197.873 31.0445ZM194.488 28.1884L193.887 29.3299L193.899 29.3362L193.911 29.3422L194.488 28.1884ZM183.064 29.352L183.832 30.3886L183.844 30.3795L183.856 30.3702L183.064 29.352ZM178.092 34.9583L179.195 35.6269L178.092 34.9583ZM174.496 42.8918L173.272 42.4839L173.269 42.4929L173.266 42.5019L174.496 42.8918ZM172.274 51.5658L171.008 51.3187L172.274 51.5658ZM171.005 59.8166L169.722 59.678L169.72 59.6951L169.719 59.7124L171.005 59.8166ZM156.725 52.412L155.453 52.196L156.725 52.412ZM159.475 41.4109L158.258 40.9816L158.255 40.9922L158.251 41.003L159.475 41.4109ZM164.235 31.1502L163.133 30.4795L163.128 30.4883L163.122 30.4972L164.235 31.1502ZM171.005 22.6878L171.891 23.6257L171.891 23.625L171.005 22.6878ZM179.785 16.8699L179.279 15.6829L179.27 15.6869L179.785 16.8699ZM201.575 16.8699L201.041 18.0443L201.053 18.0494L201.064 18.0542L201.575 16.8699ZM209.297 22.582L210.291 21.759V21.759L209.297 22.582ZM213.846 31.4676L212.605 31.822L212.61 31.8372L212.614 31.8523L213.846 31.4676ZM214.48 53.9987L215.753 54.2108L215.753 54.207L214.48 53.9987ZM211.519 65.1056L210.31 64.6553L210.306 64.6657L210.302 64.6763L211.519 65.1056ZM206.547 75.3663L205.456 74.6783L205.45 74.6869L205.445 74.6955L206.547 75.3663ZM199.565 83.8287L198.705 82.8673H198.705L199.565 83.8287ZM168.255 89.435L167.656 90.5777L167.672 90.5862L167.688 90.5942L168.255 89.435ZM161.062 83.194L160.006 83.9357L161.062 83.194ZM157.042 74.2027L155.789 74.5095L155.79 74.5156L157.042 74.2027ZM169.397 66.375C169.397 68.2069 169.544 69.9735 169.84 71.6734L172.382 71.2314C172.113 69.6874 171.977 68.0691 171.977 66.375H169.397ZM169.853 71.7383C170.235 73.4205 170.853 74.9391 171.72 76.2786L173.886 74.877C173.201 73.8188 172.691 72.5872 172.369 71.1665L169.853 71.7383ZM171.74 76.3086C172.646 77.627 173.871 78.6775 175.376 79.4697L176.577 77.1866C175.403 76.5683 174.511 75.7853 173.866 74.847L171.74 76.3086ZM175.376 79.4697C176.954 80.3005 178.87 80.6759 181.054 80.6759V78.0959C179.148 78.0959 177.678 77.7661 176.577 77.1866L175.376 79.4697ZM181.054 80.6759C183.848 80.6759 186.343 79.8939 188.486 78.3069L186.95 76.2337C185.285 77.4675 183.337 78.0959 181.054 78.0959V80.6759ZM188.492 78.3023C190.611 76.7127 192.412 74.6805 193.899 72.2268L191.692 70.8896C190.359 73.0902 188.774 74.866 186.944 76.2383L188.492 78.3023ZM193.899 72.2268C195.363 69.8112 196.599 67.116 197.613 64.1473L195.171 63.3136C194.21 66.1276 193.049 68.6509 191.692 70.8896L193.899 72.2268ZM197.613 64.1473C198.618 61.2025 199.41 58.2545 199.985 55.3036L197.453 54.8095C196.901 57.6411 196.14 60.4757 195.171 63.3136L197.613 64.1473ZM199.979 55.3331C200.624 52.3946 201.057 49.6225 201.274 47.0186L198.703 46.8043C198.497 49.2778 198.084 51.9357 197.459 54.7799L199.979 55.3331ZM201.271 47.0501C201.556 44.4169 201.702 42.2155 201.702 40.4589H199.122C199.122 42.0872 198.986 44.1875 198.706 46.7728L201.271 47.0501ZM201.702 40.4589C201.702 38.5257 201.479 36.6877 201.025 34.95L198.529 35.6013C198.922 37.1075 199.122 38.725 199.122 40.4589H201.702ZM201.038 35.0016C200.649 33.2132 199.941 31.6246 198.898 30.2608L196.848 31.8281C197.639 32.8619 198.2 34.0941 198.516 35.5497L201.038 35.0016ZM198.927 30.3005C197.949 28.9149 196.651 27.8277 195.065 27.0346L193.911 29.3422C195.146 29.9595 196.105 30.7763 196.819 31.7884L198.927 30.3005ZM195.089 27.0468C193.522 26.2222 191.683 25.8406 189.622 25.8406V28.4206C191.37 28.4206 192.774 28.7442 193.887 29.3299L195.089 27.0468ZM189.622 25.8406C186.874 25.8406 184.408 26.6723 182.272 28.3337L183.856 30.3702C185.528 29.0698 187.434 28.4206 189.622 28.4206V25.8406ZM182.296 28.3154C180.239 29.8392 178.473 31.8403 176.989 34.2897L179.195 35.6269C180.532 33.422 182.081 31.6855 183.832 30.3886L182.296 28.3154ZM176.989 34.2897C175.522 36.71 174.285 39.444 173.272 42.4839L175.719 43.2997C176.681 40.416 177.841 37.861 179.195 35.6269L176.989 34.2897ZM173.266 42.5019C172.335 45.4387 171.582 48.3777 171.008 51.3187L173.54 51.8128C174.095 48.9712 174.823 46.1275 175.725 43.2817L173.266 42.5019ZM171.008 51.3187C170.438 54.2417 170.009 57.0283 169.722 59.678L172.287 59.9553C172.565 57.3864 172.982 54.6725 173.54 51.8128L171.008 51.3187ZM169.719 59.7124C169.506 62.3414 169.397 64.5649 169.397 66.375H171.977C171.977 64.659 172.081 62.5103 172.291 59.9209L169.719 59.7124ZM157.063 63.3073C157.063 59.8589 157.373 56.2995 157.996 52.628L155.453 52.196C154.807 55.9997 154.483 59.7038 154.483 63.3073H157.063ZM157.996 52.628C158.62 48.9555 159.521 45.3527 160.699 41.8188L158.251 41.003C157.031 44.6621 156.098 48.3934 155.453 52.196L157.996 52.628ZM160.691 41.8402C161.934 38.3203 163.486 34.9751 165.347 31.8032L163.122 30.4972C161.176 33.8132 159.555 37.3084 158.258 40.9816L160.691 41.8402ZM165.337 31.821C167.257 28.6668 169.442 25.9378 171.891 23.6257L170.119 21.75C167.49 24.2332 165.162 27.1458 163.133 30.4795L165.337 31.821ZM171.891 23.625C174.393 21.2581 177.195 19.4027 180.299 18.053L179.27 15.6869C175.887 17.158 172.835 19.1812 170.118 21.7507L171.891 23.625ZM180.29 18.0569C183.43 16.7208 186.888 16.0443 190.68 16.0443V13.4643C186.574 13.4643 182.768 14.1983 179.279 15.6829L180.29 18.0569ZM190.68 16.0443C194.696 16.0443 198.139 16.725 201.041 18.0443L202.109 15.6956C198.806 14.1941 194.985 13.4643 190.68 13.4643V16.0443ZM201.064 18.0542C203.99 19.3179 206.396 21.1022 208.304 23.4051L210.291 21.759C208.108 19.1255 205.366 17.1017 202.087 15.6856L201.064 18.0542ZM208.304 23.4051C210.222 25.7201 211.661 28.5173 212.605 31.822L215.086 31.1132C214.056 27.5069 212.463 24.3804 210.291 21.759L208.304 23.4051ZM212.614 31.8523C213.627 35.0934 214.142 38.7338 214.142 42.786H216.722C216.722 38.5169 216.18 34.6117 215.077 31.0828L212.614 31.8523ZM214.142 42.786C214.142 46.3067 213.832 49.9744 213.207 53.7904L215.753 54.207C216.398 50.2658 216.722 46.4584 216.722 42.786H214.142ZM213.208 53.7866C212.587 57.5139 211.621 61.1364 210.31 64.6553L212.727 65.556C214.096 61.8818 215.105 58.0997 215.753 54.2108L213.208 53.7866ZM210.302 64.6763C209.065 68.1817 207.45 71.5152 205.456 74.6783L207.638 76.0542C209.734 72.7295 211.434 69.2226 212.735 65.5349L210.302 64.6763ZM205.445 74.6955C203.533 77.8373 201.285 80.5587 198.705 82.8673L200.426 84.79C203.205 82.3032 205.612 79.3831 207.649 76.037L205.445 74.6955ZM198.705 82.8673C196.135 85.1668 193.227 86.9941 189.972 88.35L190.965 90.7316C194.48 89.2667 197.636 87.2859 200.426 84.79L198.705 82.8673ZM189.972 88.35C186.764 89.6867 183.163 90.3664 179.15 90.3664V92.9464C183.458 92.9464 187.403 92.2157 190.965 90.7316L189.972 88.35ZM179.15 90.3664C175.066 90.3664 171.638 89.6517 168.821 88.2759L167.688 90.5942C170.936 92.1802 174.771 92.9464 179.15 92.9464V90.3664ZM168.853 88.2923C166.064 86.8315 163.827 84.8852 162.117 82.4523L160.006 83.9357C161.963 86.7213 164.521 88.9357 167.656 90.5777L168.853 88.2923ZM162.117 82.4523C160.383 79.9844 159.105 77.1355 158.293 73.8898L155.79 74.5156C156.671 78.0398 158.073 81.1851 160.006 83.9357L162.117 82.4523ZM158.295 73.8958C157.475 70.5476 157.063 67.0193 157.063 63.3073H154.483C154.483 67.2116 154.916 70.9468 155.789 74.5095L158.295 73.8958ZM237.611 46.171V44.881H236.543L236.343 45.9302L237.611 46.171ZM247.025 45.7479L246.813 44.4754L246.804 44.4769L247.025 45.7479ZM251.574 44.2669L252.174 45.4085L252.185 45.403L252.195 45.3973L251.574 44.2669ZM254.959 41.1993L253.913 40.444L253.899 40.4636L253.885 40.4838L254.959 41.1993ZM255.488 32.208L254.334 32.7849L254.334 32.7849L255.488 32.208ZM253.266 29.352L254.099 28.3672V28.3672L253.266 29.352ZM249.987 27.6595L249.623 28.8971L249.632 28.8998L249.642 28.9024L249.987 27.6595ZM236.553 30.304L235.656 29.377L235.648 29.3843L235.641 29.3918L236.553 30.304ZM232.004 39.8242V41.1142H233.045L233.265 40.0974L232.004 39.8242ZM217.724 39.8242L216.446 39.6464L216.242 41.1142H217.724V39.8242ZM226.927 21.2069L226.093 20.2226L226.086 20.2284L226.927 21.2069ZM255.17 15.8121L254.864 17.0654L254.882 17.0697L254.9 17.0735L255.17 15.8121ZM262.998 19.0913L262.267 20.1543L262.286 20.1673L262.305 20.1796L262.998 19.0913ZM268.604 25.015L267.484 25.655L267.491 25.6669L267.498 25.6787L268.604 25.015ZM266.912 45.3247L267.89 46.1661L266.912 45.3247ZM256.863 51.1427L256.601 49.8794L255.573 50.0922V51.1427H256.863ZM256.863 51.3542H255.573V52.3005L256.475 52.5847L256.863 51.3542ZM264.902 56.9605L266.003 56.2879L264.902 56.9605ZM264.796 77.7992L263.647 77.2121L264.796 77.7992ZM258.132 85.6269L257.375 84.5825L257.369 84.5871L257.362 84.5918L258.132 85.6269ZM248.506 90.1755L248.841 91.4211L248.506 90.1755ZM216.56 84.9922L215.627 85.8823L215.634 85.8897L215.641 85.8971L216.56 84.9922ZM210.954 64.8941V63.604H209.743L209.667 64.8123L210.954 64.8941ZM225.129 64.8941L226.411 65.0365L226.57 63.604H225.129V64.8941ZM227.456 75.4721L228.471 74.6763L227.456 75.4721ZM247.342 75.8952L248.176 76.8799L247.342 75.8952ZM248.4 58.9704L247.626 60.0024L247.647 60.0178L247.668 60.0323L248.4 58.9704ZM235.601 56.749L234.334 56.5082L234.043 58.039H235.601V56.749ZM237.611 47.461H242.159V44.881H237.611V47.461ZM242.159 47.461C243.856 47.461 245.552 47.3134 247.246 47.0188L246.804 44.4769C245.254 44.7465 243.706 44.881 242.159 44.881V47.461ZM247.237 47.0203C249.048 46.7186 250.698 46.1857 252.174 45.4085L250.973 43.1254C249.77 43.7586 248.388 44.213 246.813 44.4754L247.237 47.0203ZM252.195 45.3973C253.777 44.5273 255.064 43.3663 256.032 41.9149L253.885 40.4838C253.16 41.571 252.191 42.4552 250.952 43.1366L252.195 45.3973ZM256.004 41.9546C257.117 40.4139 257.624 38.5078 257.624 36.3334H255.044C255.044 38.1082 254.634 39.446 253.913 40.444L256.004 41.9546ZM257.624 36.3334C257.624 34.5666 257.317 32.9823 256.641 31.6311L254.334 32.7849C254.786 33.6904 255.044 34.8564 255.044 36.3334H257.624ZM256.641 31.6311C256.003 30.3546 255.156 29.2614 254.099 28.3672L252.433 30.3367C253.21 30.994 253.844 31.8048 254.334 32.7849L256.641 31.6311ZM254.099 28.3672C253.027 27.46 251.763 26.8141 250.332 26.4166L249.642 28.9024C250.749 29.2101 251.672 29.6925 252.433 30.3367L254.099 28.3672ZM250.351 26.4219C249.026 26.0321 247.633 25.8406 246.179 25.8406V28.4206C247.404 28.4206 248.551 28.5817 249.623 28.8971L250.351 26.4219ZM246.179 25.8406C241.745 25.8406 238.163 26.9503 235.656 29.377L237.45 31.231C239.315 29.4264 242.15 28.4206 246.179 28.4206V25.8406ZM235.641 29.3918C233.288 31.7443 231.691 35.1804 230.744 39.551L233.265 40.0974C234.152 36.0056 235.586 33.0948 237.465 31.2162L235.641 29.3918ZM232.004 38.5342H217.724V41.1142H232.004V38.5342ZM219.002 40.002C220.098 32.1256 223.052 26.2364 227.768 22.1854L226.086 20.2284C220.788 24.7809 217.607 31.3032 216.446 39.6464L219.002 40.002ZM227.761 22.1912C232.563 18.1223 238.738 16.0443 246.39 16.0443V13.4643C238.247 13.4643 231.445 15.688 226.093 20.2227L227.761 22.1912ZM246.39 16.0443C249.249 16.0443 252.073 16.3845 254.864 17.0654L255.476 14.5589C252.485 13.8294 249.456 13.4643 246.39 13.4643V16.0443ZM254.9 17.0735C257.714 17.6766 260.164 18.7081 262.267 20.1543L263.729 18.0283C261.319 16.3716 258.55 15.217 255.44 14.5508L254.9 17.0735ZM262.305 20.1796C264.45 21.5445 266.174 23.363 267.484 25.655L269.724 24.375C268.213 21.7306 266.2 19.5999 263.69 18.003L262.305 20.1796ZM267.498 25.6787C268.832 27.902 269.536 30.6915 269.536 34.1121H272.116C272.116 30.3396 271.338 27.0644 269.71 24.3513L267.498 25.6787ZM269.536 34.1121C269.536 38.2826 268.319 41.7114 265.934 44.4834L267.89 46.1661C270.723 42.8734 272.116 38.827 272.116 34.1121H269.536ZM265.934 44.4834C263.519 47.2899 260.426 49.0881 256.601 49.8794L257.124 52.4059C261.48 51.5047 265.086 49.4243 267.89 46.1661L265.934 44.4834ZM255.573 51.1427V51.3542H258.153V51.1427H255.573ZM256.475 52.5847C260.089 53.7222 262.461 55.4399 263.801 57.6332L266.003 56.2879C264.24 53.4037 261.253 51.3839 257.25 50.1237L256.475 52.5847ZM263.801 57.6332C265.199 59.92 265.939 62.8446 265.939 66.4808H268.519C268.519 62.5008 267.708 59.0785 266.003 56.2879L263.801 57.6332ZM265.939 66.4808C265.939 70.6944 265.158 74.2571 263.647 77.2121L265.945 78.3863C267.678 74.9945 268.519 71.0115 268.519 66.4808H265.939ZM263.647 77.2121C262.116 80.2086 260.027 82.6597 257.375 84.5825L258.889 86.6713C261.879 84.504 264.232 81.7366 265.945 78.3863L263.647 77.2121ZM257.362 84.5918C254.756 86.53 251.698 87.9802 248.171 88.9298L248.841 91.4211C252.648 90.3962 256.008 88.814 258.902 86.6621L257.362 84.5918ZM248.171 88.9298C244.623 89.885 240.823 90.3664 236.764 90.3664V92.9464C241.028 92.9464 245.055 92.4405 248.841 91.4211L248.171 88.9298ZM236.764 90.3664C227.854 90.3664 221.517 88.1898 217.48 84.0874L215.641 85.8971C220.348 90.6803 227.481 92.9464 236.764 92.9464V90.3664ZM217.494 84.1022C213.532 79.9447 211.69 73.659 212.242 64.9758L209.667 64.8123C209.09 73.9001 210.986 81.0133 215.627 85.8823L217.494 84.1022ZM210.954 66.184H225.129V63.604H210.954V66.184ZM223.847 64.7516C223.329 69.41 224.123 73.3109 226.441 76.2678L228.471 74.6763C226.699 72.4147 225.941 69.2636 226.411 65.0365L223.847 64.7516ZM226.441 76.2678C228.807 79.2876 232.493 80.6759 237.188 80.6759V78.0959C232.996 78.0959 230.194 76.875 228.471 74.6763L226.441 76.2678ZM237.188 80.6759C241.475 80.6759 245.165 79.4272 248.176 76.8799L246.509 74.9104C244.019 77.0174 240.94 78.0959 237.188 78.0959V80.6759ZM248.176 76.8799C251.272 74.2597 252.758 70.5519 252.758 65.9519H250.178C250.178 69.9552 248.913 72.8763 246.509 74.9104L248.176 76.8799ZM252.758 65.9519C252.758 62.4277 251.631 59.6312 249.133 57.9084L247.668 60.0323C249.26 61.1304 250.178 62.9882 250.178 65.9519H252.758ZM249.174 57.9384C246.934 56.2585 244.179 55.459 240.996 55.459V58.039C243.736 58.039 245.917 58.7204 247.626 60.0024L249.174 57.9384ZM240.996 55.459H235.601V58.039H240.996V55.459ZM236.868 56.9898L238.878 46.4118L236.343 45.9302L234.334 56.5082L236.868 56.9898Z" fill="white"/>
<path d="M171.569 118.151C171.569 119.322 171.396 120.232 171.049 120.881C170.407 122.065 169.185 122.658 167.383 122.658C166.344 122.658 165.456 122.377 164.719 121.817C163.982 121.25 163.614 120.245 163.614 118.803V117.811H165.38V118.803C165.38 119.559 165.547 120.129 165.881 120.513C166.221 120.891 166.747 121.08 167.459 121.08C168.461 121.08 169.116 120.736 169.424 120.05C169.613 119.628 169.708 118.831 169.708 117.659V108.41H171.569V118.151ZM183.491 116.601L181.384 110.469L179.145 116.601H183.491ZM180.401 108.41H182.527L187.563 122.289H185.503L184.095 118.132H178.606L177.104 122.289H175.176L180.401 108.41ZM191.208 108.41H193.428L200.439 119.653V108.41H202.225V122.289H200.118L193.003 111.055V122.289H191.208V108.41ZM209.167 108.41V116.989C209.167 117.996 209.356 118.834 209.734 119.502C210.295 120.51 211.24 121.014 212.569 121.014C214.162 121.014 215.246 120.469 215.819 119.379C216.128 118.787 216.282 117.99 216.282 116.989V108.41H218.19V116.204C218.19 117.911 217.96 119.225 217.501 120.144C216.657 121.82 215.063 122.658 212.72 122.658C210.377 122.658 208.786 121.82 207.948 120.144C207.489 119.225 207.259 117.911 207.259 116.204V108.41H209.167ZM230.169 116.601L228.062 110.469L225.823 116.601H230.169ZM227.079 108.41H229.205L234.241 122.289H232.181L230.774 118.132H225.284L223.782 122.289H221.854L227.079 108.41ZM244.339 114.768C245.221 114.768 245.917 114.592 246.427 114.239C246.944 113.886 247.202 113.25 247.202 112.331C247.202 111.342 246.843 110.668 246.125 110.309C245.741 110.12 245.227 110.025 244.585 110.025H239.993V114.768H244.339ZM238.113 108.41H244.538C245.596 108.41 246.468 108.564 247.155 108.873C248.459 109.465 249.111 110.557 249.111 112.151C249.111 112.983 248.937 113.663 248.591 114.192C248.251 114.721 247.772 115.146 247.155 115.467C247.697 115.688 248.103 115.978 248.374 116.337C248.651 116.696 248.805 117.278 248.837 118.085L248.903 119.946C248.922 120.475 248.966 120.869 249.035 121.127C249.148 121.568 249.35 121.851 249.64 121.977V122.289H247.334C247.271 122.169 247.221 122.015 247.183 121.826C247.145 121.637 247.114 121.272 247.089 120.73L246.975 118.415C246.931 117.508 246.594 116.9 245.964 116.592C245.605 116.422 245.042 116.337 244.273 116.337H239.993V122.289H238.113V108.41ZM252.387 108.41H254.579L258.567 115.08L262.554 108.41H264.755L259.511 116.696V122.289H257.631V116.696L252.387 108.41Z" fill="white"/>
<path d="M171.049 120.881L171.364 121.052L171.365 121.05L171.049 120.881ZM164.719 121.817L164.501 122.1L164.502 122.101L164.719 121.817ZM163.614 117.811V117.453H163.256V117.811H163.614ZM165.38 117.811H165.738V117.453H165.38V117.811ZM165.881 120.513L165.611 120.747L165.615 120.752L165.881 120.513ZM169.424 120.05L169.75 120.196L169.751 120.196L169.424 120.05ZM169.708 108.41V108.052H169.35V108.41H169.708ZM171.569 108.41H171.927V108.052H171.569V108.41ZM171.211 118.151C171.211 119.295 171.041 120.138 170.734 120.713L171.365 121.05C171.751 120.327 171.927 119.35 171.927 118.151H171.211ZM170.735 120.711C170.176 121.741 169.105 122.3 167.383 122.3V123.015C169.265 123.015 170.638 122.39 171.364 121.052L170.735 120.711ZM167.383 122.3C166.412 122.3 165.603 122.04 164.936 121.532L164.502 122.101C165.309 122.715 166.276 123.015 167.383 123.015V122.3ZM164.937 121.533C164.328 121.065 163.971 120.196 163.971 118.803H163.256C163.256 120.294 163.636 121.435 164.501 122.1L164.937 121.533ZM163.971 118.803V117.811H163.256V118.803H163.971ZM163.614 118.168H165.38V117.453H163.614V118.168ZM165.023 117.811V118.803H165.738V117.811H165.023ZM165.023 118.803C165.023 119.604 165.199 120.273 165.611 120.747L166.151 120.278C165.896 119.984 165.738 119.513 165.738 118.803H165.023ZM165.615 120.752C166.047 121.232 166.688 121.437 167.459 121.437V120.722C166.807 120.722 166.396 120.55 166.147 120.274L165.615 120.752ZM167.459 121.437C168.546 121.437 169.364 121.055 169.75 120.196L169.098 119.903C168.867 120.417 168.375 120.722 167.459 120.722V121.437ZM169.751 120.196C169.867 119.936 169.943 119.59 169.992 119.178C170.041 118.761 170.065 118.254 170.065 117.659H169.35C169.35 118.237 169.327 118.714 169.282 119.094C169.236 119.478 169.171 119.741 169.098 119.904L169.751 120.196ZM170.065 117.659V108.41H169.35V117.659H170.065ZM169.708 108.767H171.569V108.052H169.708V108.767ZM171.211 108.41V118.151H171.927V108.41H171.211ZM183.491 116.601V116.959H183.992L183.829 116.485L183.491 116.601ZM181.384 110.469L181.722 110.353L181.394 109.399L181.048 110.347L181.384 110.469ZM179.145 116.601L178.809 116.479L178.633 116.959H179.145V116.601ZM180.401 108.41V108.052H180.154L180.067 108.284L180.401 108.41ZM182.527 108.41L182.863 108.288L182.778 108.052H182.527V108.41ZM187.563 122.289V122.647H188.073L187.899 122.167L187.563 122.289ZM185.503 122.289L185.165 122.404L185.247 122.647H185.503V122.289ZM184.095 118.132L184.434 118.017L184.352 117.774H184.095V118.132ZM178.606 118.132V117.774H178.355L178.27 118.01L178.606 118.132ZM177.104 122.289V122.647H177.355L177.44 122.411L177.104 122.289ZM175.176 122.289L174.842 122.163L174.66 122.647H175.176V122.289ZM183.829 116.485L181.722 110.353L181.046 110.586L183.153 116.717L183.829 116.485ZM181.048 110.347L178.809 116.479L179.48 116.724L181.72 110.592L181.048 110.347ZM179.145 116.959H183.491V116.244H179.145V116.959ZM180.401 108.767H182.527V108.052H180.401V108.767ZM182.191 108.532L187.227 122.411L187.899 122.167L182.863 108.288L182.191 108.532ZM187.563 121.931H185.503V122.647H187.563V121.931ZM185.842 122.174L184.434 118.017L183.757 118.247L185.165 122.404L185.842 122.174ZM184.095 117.774H178.606V118.489H184.095V117.774ZM178.27 118.01L176.767 122.168L177.44 122.411L178.942 118.253L178.27 118.01ZM177.104 121.931H175.176V122.647H177.104V121.931ZM175.511 122.415L180.736 108.536L180.067 108.284L174.842 122.163L175.511 122.415ZM191.208 108.41V108.052H190.85V108.41H191.208ZM193.428 108.41L193.732 108.22L193.627 108.052H193.428V108.41ZM200.439 119.653L200.136 119.842L200.797 120.902V119.653H200.439ZM200.439 108.41V108.052H200.081V108.41H200.439ZM202.225 108.41H202.582V108.052H202.225V108.41ZM202.225 122.289V122.647H202.582V122.289H202.225ZM200.118 122.289L199.816 122.48L199.921 122.647H200.118V122.289ZM193.003 111.055L193.305 110.864L192.646 109.822V111.055H193.003ZM193.003 122.289V122.647H193.361V122.289H193.003ZM191.208 122.289H190.85V122.647H191.208V122.289ZM191.208 108.767H193.428V108.052H191.208V108.767ZM193.125 108.599L200.136 119.842L200.742 119.464L193.732 108.22L193.125 108.599ZM200.797 119.653V108.41H200.081V119.653H200.797ZM200.439 108.767H202.225V108.052H200.439V108.767ZM201.867 108.41V122.289H202.582V108.41H201.867ZM202.225 121.931H200.118V122.647H202.225V121.931ZM200.42 122.098L193.305 110.864L192.701 111.246L199.816 122.48L200.42 122.098ZM192.646 111.055V122.289H193.361V111.055H192.646ZM193.003 121.931H191.208V122.647H193.003V121.931ZM191.566 122.289V108.41H190.85V122.289H191.566ZM209.167 108.41H209.525V108.052H209.167V108.41ZM209.734 119.502L210.047 119.328L210.045 119.326L209.734 119.502ZM215.819 119.379L216.135 119.545L216.136 119.544L215.819 119.379ZM216.282 108.41V108.052H215.924V108.41H216.282ZM218.19 108.41H218.548V108.052H218.19V108.41ZM217.501 120.144L217.82 120.305L217.821 120.304L217.501 120.144ZM207.259 108.41V108.052H206.901V108.41H207.259ZM208.81 108.41V116.989H209.525V108.41H208.81ZM208.81 116.989C208.81 118.039 209.007 118.942 209.423 119.678L210.045 119.326C209.706 118.726 209.525 117.953 209.525 116.989H208.81ZM209.422 119.676C210.056 120.816 211.134 121.371 212.569 121.371V120.656C211.346 120.656 210.533 120.203 210.047 119.328L209.422 119.676ZM212.569 121.371C214.249 121.371 215.482 120.788 216.135 119.545L215.502 119.213C215.01 120.149 214.075 120.656 212.569 120.656V121.371ZM216.136 119.544C216.481 118.882 216.639 118.021 216.639 116.989H215.924C215.924 117.959 215.774 118.692 215.502 119.214L216.136 119.544ZM216.639 116.989V108.41H215.924V116.989H216.639ZM216.282 108.767H218.19V108.052H216.282V108.767ZM217.833 108.41V116.204H218.548V108.41H217.833ZM217.833 116.204C217.833 117.888 217.605 119.137 217.181 119.984L217.821 120.304C218.316 119.313 218.548 117.935 218.548 116.204H217.833ZM217.181 119.983C216.414 121.506 214.968 122.3 212.72 122.3V123.015C215.158 123.015 216.899 122.133 217.82 120.305L217.181 119.983ZM212.72 122.3C210.471 122.3 209.029 121.506 208.268 119.984L207.629 120.304C208.543 122.133 210.282 123.015 212.72 123.015V122.3ZM208.268 119.984C207.845 119.137 207.616 117.888 207.616 116.204H206.901C206.901 117.935 207.133 119.313 207.629 120.304L208.268 119.984ZM207.616 116.204V108.41H206.901V116.204H207.616ZM207.259 108.767H209.167V108.052H207.259V108.767ZM230.169 116.601V116.959H230.67L230.507 116.485L230.169 116.601ZM228.062 110.469L228.4 110.353L228.072 109.399L227.726 110.347L228.062 110.469ZM225.823 116.601L225.487 116.479L225.311 116.959H225.823V116.601ZM227.079 108.41V108.052H226.832L226.745 108.284L227.079 108.41ZM229.205 108.41L229.541 108.288L229.456 108.052H229.205V108.41ZM234.241 122.289V122.647H234.751L234.577 122.167L234.241 122.289ZM232.181 122.289L231.843 122.404L231.925 122.647H232.181V122.289ZM230.774 118.132L231.112 118.017L231.03 117.774H230.774V118.132ZM225.284 118.132V117.774H225.033L224.948 118.01L225.284 118.132ZM223.782 122.289V122.647H224.033L224.118 122.411L223.782 122.289ZM221.854 122.289L221.52 122.163L221.338 122.647H221.854V122.289ZM230.507 116.485L228.4 110.353L227.724 110.586L229.831 116.717L230.507 116.485ZM227.726 110.347L225.487 116.479L226.159 116.724L228.398 110.592L227.726 110.347ZM225.823 116.959H230.169V116.244H225.823V116.959ZM227.079 108.767H229.205V108.052H227.079V108.767ZM228.869 108.532L233.905 122.411L234.577 122.167L229.541 108.288L228.869 108.532ZM234.241 121.931H232.181V122.647H234.241V121.931ZM232.52 122.174L231.112 118.017L230.435 118.247L231.843 122.404L232.52 122.174ZM230.774 117.774H225.284V118.489H230.774V117.774ZM224.948 118.01L223.446 122.168L224.118 122.411L225.62 118.253L224.948 118.01ZM223.782 121.931H221.854V122.647H223.782V121.931ZM222.189 122.415L227.414 108.536L226.745 108.284L221.52 122.163L222.189 122.415ZM246.427 114.239L246.226 113.944L246.224 113.945L246.427 114.239ZM246.125 110.309L246.285 109.989L246.283 109.988L246.125 110.309ZM239.993 110.025V109.668H239.636V110.025H239.993ZM239.993 114.768H239.636V115.126H239.993V114.768ZM238.113 108.41V108.052H237.755V108.41H238.113ZM247.155 108.873L247.303 108.547L247.302 108.546L247.155 108.873ZM248.591 114.192L248.292 113.996L248.29 113.999L248.591 114.192ZM247.155 115.467L246.99 115.15L246.304 115.507L247.02 115.799L247.155 115.467ZM248.374 116.337L248.088 116.552L248.091 116.555L248.374 116.337ZM248.837 118.085L249.194 118.072L249.194 118.071L248.837 118.085ZM248.903 119.946L248.545 119.959V119.959L248.903 119.946ZM249.035 121.127L249.381 121.038L249.381 121.034L249.035 121.127ZM249.64 121.977H249.997V121.743L249.782 121.649L249.64 121.977ZM249.64 122.289V122.647H249.997V122.289H249.64ZM247.334 122.289L247.018 122.456L247.119 122.647H247.334V122.289ZM247.089 120.73L247.446 120.713L247.446 120.713L247.089 120.73ZM246.975 118.415L246.618 118.433L246.618 118.433L246.975 118.415ZM245.964 116.592L246.122 116.271L246.118 116.269L245.964 116.592ZM239.993 116.337V115.979H239.636V116.337H239.993ZM239.993 122.289V122.647H240.351V122.289H239.993ZM238.113 122.289H237.755V122.647H238.113V122.289ZM244.339 115.126C245.264 115.126 246.04 114.941 246.631 114.533L246.224 113.945C245.794 114.242 245.178 114.411 244.339 114.411V115.126ZM246.629 114.534C247.283 114.088 247.56 113.309 247.56 112.331H246.845C246.845 113.191 246.604 113.685 246.226 113.944L246.629 114.534ZM247.56 112.331C247.56 111.244 247.155 110.424 246.285 109.989L245.965 110.629C246.532 110.912 246.845 111.439 246.845 112.331H247.56ZM246.283 109.988C245.831 109.766 245.257 109.668 244.585 109.668V110.383C245.198 110.383 245.65 110.474 245.967 110.63L246.283 109.988ZM244.585 109.668H239.993V110.383H244.585V109.668ZM239.636 110.025V114.768H240.351V110.025H239.636ZM239.993 115.126H244.339V114.411H239.993V115.126ZM238.113 108.767H244.538V108.052H238.113V108.767ZM244.538 108.767C245.565 108.767 246.383 108.917 247.008 109.199L247.302 108.546C246.554 108.21 245.627 108.052 244.538 108.052V108.767ZM247.007 109.198C247.601 109.468 248.031 109.843 248.315 110.319C248.6 110.798 248.753 111.403 248.753 112.151H249.468C249.468 111.306 249.295 110.567 248.929 109.953C248.561 109.336 248.012 108.869 247.303 108.547L247.007 109.198ZM248.753 112.151C248.753 112.934 248.59 113.541 248.292 113.996L248.89 114.388C249.285 113.785 249.468 113.031 249.468 112.151H248.753ZM248.29 113.999C247.987 114.47 247.558 114.855 246.99 115.15L247.32 115.785C247.987 115.438 248.515 114.972 248.892 114.385L248.29 113.999ZM247.02 115.799C247.52 116.002 247.866 116.258 248.088 116.552L248.659 116.121C248.34 115.697 247.874 115.374 247.29 115.136L247.02 115.799ZM248.091 116.555C248.299 116.825 248.449 117.316 248.479 118.099L249.194 118.071C249.162 117.241 249.003 116.566 248.657 116.118L248.091 116.555ZM248.479 118.097L248.545 119.959L249.26 119.933L249.194 118.072L248.479 118.097ZM248.545 119.959C248.565 120.494 248.61 120.921 248.69 121.22L249.381 121.034C249.322 120.817 249.279 120.456 249.26 119.933L248.545 119.959ZM248.689 121.216C248.817 121.714 249.067 122.118 249.497 122.305L249.782 121.649C249.633 121.584 249.48 121.421 249.381 121.038L248.689 121.216ZM249.282 121.977V122.289H249.997V121.977H249.282ZM249.64 121.931H247.334V122.647H249.64V121.931ZM247.651 122.123C247.609 122.043 247.568 121.924 247.534 121.756L246.833 121.896C246.874 122.106 246.934 122.296 247.018 122.456L247.651 122.123ZM247.534 121.756C247.502 121.597 247.471 121.258 247.446 120.713L246.732 120.747C246.757 121.285 246.789 121.677 246.833 121.896L247.534 121.756ZM247.446 120.713L247.333 118.398L246.618 118.433L246.732 120.748L247.446 120.713ZM247.333 118.398C247.284 117.405 246.904 116.654 246.122 116.271L245.807 116.913C246.285 117.147 246.578 117.611 246.618 118.433L247.333 118.398ZM246.118 116.269C245.684 116.063 245.054 115.979 244.273 115.979V116.694C245.029 116.694 245.527 116.78 245.811 116.915L246.118 116.269ZM244.273 115.979H239.993V116.694H244.273V115.979ZM239.636 116.337V122.289H240.351V116.337H239.636ZM239.993 121.931H238.113V122.647H239.993V121.931ZM238.471 122.289V108.41H237.755V122.289H238.471ZM252.387 108.41V108.052H251.738L252.085 108.601L252.387 108.41ZM254.579 108.41L254.886 108.226L254.782 108.052H254.579V108.41ZM258.566 115.08L258.26 115.264L258.566 115.777L258.873 115.264L258.566 115.08ZM262.554 108.41V108.052H262.351L262.247 108.226L262.554 108.41ZM264.755 108.41L265.057 108.601L265.405 108.052H264.755V108.41ZM259.511 116.696L259.209 116.504L259.154 116.592V116.696H259.511ZM259.511 122.289V122.647H259.869V122.289H259.511ZM257.631 122.289H257.274V122.647H257.631V122.289ZM257.631 116.696H257.989V116.592L257.933 116.504L257.631 116.696ZM252.387 108.767H254.579V108.052H252.387V108.767ZM254.272 108.593L258.26 115.264L258.873 114.897L254.886 108.226L254.272 108.593ZM258.873 115.264L262.861 108.593L262.247 108.226L258.26 114.897L258.873 115.264ZM262.554 108.767H264.755V108.052H262.554V108.767ZM264.453 108.218L259.209 116.504L259.814 116.887L265.057 108.601L264.453 108.218ZM259.154 116.696V122.289H259.869V116.696H259.154ZM259.511 121.931H257.631V122.647H259.511V121.931ZM257.989 122.289V116.696H257.274V122.289H257.989ZM257.933 116.504L252.69 108.218L252.085 108.601L257.329 116.887L257.933 116.504Z" fill="white"/>
<rect y="0.828125" width="129" height="129" rx="16.77" fill="#B4B4B4" fill-opacity="0.2"/>
<path d="M110.099 75.2445H104.444V56.3609C104.444 56.3609 104.444 56.2814 104.444 56.2549L107.105 53.2733C107.206 53.1589 107.271 53.0177 107.292 52.867C107.313 52.7164 107.29 52.5628 107.225 52.4252C107.16 52.2889 107.059 52.1732 106.932 52.0913C106.805 52.0093 106.658 51.9643 106.506 51.9614H104.457V48.3172H105.322C105.534 48.3172 105.737 48.2334 105.887 48.0843C106.036 47.9352 106.12 47.733 106.12 47.5221C106.12 47.3112 106.036 47.109 105.887 46.9599C105.737 46.8108 105.534 46.727 105.322 46.727H104.457V43.7056C104.457 43.4947 104.373 43.2925 104.223 43.1434C104.074 42.9943 103.871 42.9105 103.659 42.9105H84.9648V32.3092C84.9648 30.0564 82.796 27.4591 82.1041 26.6905V24.6232C82.1041 24.4123 82.02 24.2101 81.8703 24.061C81.7206 23.9119 81.5176 23.8281 81.3058 23.8281C81.0941 23.8281 80.891 23.9119 80.7413 24.061C80.5916 24.2101 80.5075 24.4123 80.5075 24.6232V26.6507C79.7624 27.5121 77.6601 30.1227 77.6601 32.2032V35.8739C77.3071 35.7026 76.9217 35.6078 76.5292 35.5956C76.177 35.6029 75.8301 35.6819 75.5097 35.8278C75.1894 35.9736 74.9024 36.1832 74.6664 36.4437C74.429 36.1781 74.138 35.9653 73.8125 35.8191C73.4869 35.673 73.1341 35.5968 72.777 35.5956C72.4246 35.6013 72.0771 35.6796 71.7566 35.8256C71.436 35.9715 71.1492 36.182 70.9143 36.4437C70.6592 36.202 70.3585 36.0132 70.0296 35.8881C69.7007 35.7629 69.3502 35.7041 68.9983 35.7149C68.6461 35.7222 68.2992 35.8012 67.9788 35.947C67.6585 36.0929 67.3715 36.3025 67.1355 36.563C66.8981 36.2973 66.6071 36.0845 66.2816 35.9384C65.956 35.7923 65.6032 35.7161 65.2461 35.7149C64.894 35.7222 64.547 35.8012 64.2267 35.947C63.9063 36.0929 63.6193 36.3025 63.3834 36.563C63.1383 36.2997 62.8421 36.0888 62.5128 35.9431C62.1834 35.7973 61.8278 35.7196 61.4674 35.7149C61.1152 35.7222 60.7683 35.8012 60.4479 35.947C60.1276 36.0929 59.8406 36.3025 59.6046 36.563C59.3672 36.2973 59.0762 36.0845 58.7507 35.9384C58.4252 35.7923 58.0723 35.7161 57.7153 35.7149C57.3628 35.7206 57.0154 35.7989 56.6948 35.9448C56.3742 36.0908 56.0874 36.3013 55.8525 36.563C55.6105 36.296 55.3149 36.0825 54.9849 35.9364C54.6548 35.7903 54.2977 35.7149 53.9365 35.7149C53.5711 35.7273 53.2127 35.8177 52.8854 35.9799V32.3224C52.8854 30.0697 50.7166 27.4723 50.0247 26.7037V24.6232C50.0247 24.4123 49.9406 24.2101 49.7909 24.061C49.6412 23.9119 49.4381 23.8281 49.2264 23.8281C49.0147 23.8281 48.8116 23.9119 48.6619 24.061C48.5122 24.2101 48.4281 24.4123 48.4281 24.6232V26.6507C47.6696 27.5121 45.5674 30.1227 45.5674 32.2032V42.8045H26.4208C26.2091 42.8045 26.0061 42.8883 25.8563 43.0374C25.7066 43.1865 25.6225 43.3887 25.6225 43.5996V46.5415H24.9439C24.7322 46.5415 24.5292 46.6252 24.3794 46.7743C24.2297 46.9235 24.1456 47.1257 24.1456 47.3366C24.1456 47.5474 24.2297 47.7497 24.3794 47.8988C24.5292 48.0479 24.7322 48.1317 24.9439 48.1317H25.6225V51.7494H23.7598C23.6019 51.7405 23.445 51.7786 23.309 51.8586C23.1729 51.9387 23.0637 52.0572 22.9953 52.1991C22.9269 52.3411 22.9023 52.5 22.9247 52.6559C22.9471 52.8117 23.0155 52.9574 23.1211 53.0745L25.556 56.3609V75.2445H19.9012C19.7886 75.23 19.6742 75.2395 19.5656 75.2725C19.457 75.3054 19.3567 75.3611 19.2714 75.4357C19.1862 75.5103 19.1178 75.6022 19.071 75.7052C19.0242 75.8082 19 75.92 19 76.033C19 76.1461 19.0242 76.2579 19.071 76.3609C19.1178 76.4639 19.1862 76.5557 19.2714 76.6304C19.3567 76.705 19.457 76.7606 19.5656 76.7936C19.6742 76.8265 19.7886 76.8361 19.9012 76.8215H110.099C110.211 76.8361 110.326 76.8265 110.434 76.7936C110.543 76.7606 110.643 76.705 110.729 76.6304C110.814 76.5557 110.882 76.4639 110.929 76.3609C110.976 76.2579 111 76.1461 111 76.033C111 75.92 110.976 75.8082 110.929 75.7052C110.882 75.6022 110.814 75.5103 110.729 75.4357C110.643 75.3611 110.543 75.3054 110.434 75.2725C110.326 75.2395 110.211 75.23 110.099 75.2445ZM39.8327 74.9133H32.5147V68.2874H39.8327V74.9133ZM32.6079 66.684C32.826 65.7106 33.2528 64.7958 33.8591 64.0021C34.4654 63.2084 35.2368 62.5546 36.1205 62.0857C37.0158 62.5653 37.7996 63.2274 38.4209 64.0288C39.0421 64.8302 39.4869 65.753 39.7263 66.737H32.6079V66.684ZM45.5408 75.1915H41.4294V67.5321C41.4357 67.4837 41.4357 67.4347 41.4294 67.3863C41.2431 62.7747 36.6793 60.6015 36.4798 60.5087C36.375 60.4627 36.2617 60.439 36.1471 60.439C36.0326 60.439 35.9193 60.4627 35.8145 60.5087C35.6149 60.6015 31.1443 62.735 30.958 67.3996C30.9506 67.4434 30.9506 67.4882 30.958 67.5321V75.2445H27.1526V57.3151H45.5408V75.1915ZM45.5408 55.6719H27.0196L25.383 53.4721H45.5408V55.6719ZM45.5408 51.8819H27.1526V48.3172H45.5408V51.8819ZM45.5408 46.674H27.1526V44.5802H45.5408V46.674ZM49.2264 28.1217C50.0819 29.1188 50.7369 30.2706 51.1557 31.5141H47.2572C47.7061 30.2798 48.373 29.1354 49.2264 28.1349V28.1217ZM51.2621 75.2313H47.1374V70.2487H51.2621V75.2313ZM51.2621 68.6055H47.1374V57.3151H51.2621V68.6055ZM51.2621 55.6719H47.1374V53.5251H51.2621V55.6719ZM51.2621 51.8819H47.1374V44.5007H51.2621V51.8819ZM51.2621 38.4315V42.8575H47.1374V38.2989H51.2621V38.4315ZM51.2621 36.6557H49.9316V35.6751C49.9316 35.4642 49.8475 35.262 49.6977 35.1129C49.548 34.9638 49.345 34.88 49.1332 34.88C48.9215 34.88 48.7185 34.9638 48.5687 35.1129C48.419 35.262 48.3349 35.4642 48.3349 35.6751V36.6557H47.0044V33.1175H51.1291L51.2621 36.6557ZM71.7525 38.4315C71.769 38.1804 71.8516 37.9382 71.992 37.7291C72.0763 37.5863 72.197 37.4682 72.3419 37.3868C72.4867 37.3053 72.6506 37.2634 72.8169 37.2653C72.9845 37.2684 73.1489 37.3107 73.2969 37.389C73.4449 37.4673 73.5722 37.5793 73.6685 37.7159C73.8178 37.9275 73.9094 38.174 73.9346 38.4315V39.1735H71.7525V38.4315ZM67.9738 38.4315C67.9902 38.1804 68.0728 37.9382 68.2133 37.7291C68.2976 37.5863 68.4183 37.4682 68.5631 37.3868C68.708 37.3053 68.8719 37.2634 69.0382 37.2653C69.209 37.2477 69.3812 37.2812 69.5329 37.3614C69.6845 37.4417 69.8088 37.565 69.8897 37.7159C70.039 37.9275 70.1307 38.174 70.1559 38.4315V39.1735H67.9738V38.4315ZM64.195 38.4315C64.2115 38.1804 64.2941 37.9382 64.4345 37.7291C64.5188 37.5863 64.6395 37.4682 64.7844 37.3868C64.9292 37.3053 65.0931 37.2634 65.2594 37.2653C65.4281 37.2626 65.5946 37.3026 65.7435 37.3813C65.8924 37.4601 66.0188 37.5752 66.111 37.7159C66.2603 37.9275 66.3519 38.174 66.3771 38.4315V39.1735H64.195V38.4315ZM60.4163 38.4315C60.4327 38.1804 60.5154 37.9382 60.6558 37.7291C60.7433 37.5862 60.8665 37.4683 61.0134 37.387C61.1603 37.3057 61.3259 37.2638 61.494 37.2653C61.672 37.2707 61.8452 37.3241 61.9952 37.4198C62.1451 37.5154 62.2662 37.6498 62.3456 37.8086C62.4948 38.0203 62.5865 38.2668 62.6117 38.5242V39.2663H60.4163V38.4315ZM56.6375 38.4315C56.654 38.1804 56.7366 37.9382 56.877 37.7291C56.9613 37.5863 57.082 37.4682 57.2269 37.3868C57.3717 37.3053 57.5356 37.2634 57.702 37.2653C57.8701 37.265 58.0358 37.306 58.1843 37.3846C58.3328 37.4631 58.4596 37.5769 58.5535 37.7159C58.7028 37.9275 58.7944 38.174 58.8196 38.4315V39.1735H56.6375V38.4315ZM52.8588 38.4315C52.8752 38.1804 52.9579 37.9382 53.0983 37.7291C53.1887 37.5896 53.3129 37.4749 53.4593 37.3955C53.6057 37.3161 53.7698 37.2745 53.9365 37.2745C54.1032 37.2745 54.2673 37.3161 54.4137 37.3955C54.5602 37.4749 54.6843 37.5896 54.7748 37.7291C54.924 37.9407 55.0157 38.1873 55.0409 38.4447V39.1868H52.8588V38.4315ZM57.3028 75.1915H52.8588V73.3231H57.3028V75.1915ZM71.9388 75.1915H58.8994V64.5902C58.8994 60.469 64.2216 58.468 65.4058 58.0704C66.59 58.4812 71.9255 60.575 71.9255 64.5902L71.9388 75.1915ZM77.7267 75.1915H73.5221V73.3231H77.7134L77.7267 75.1915ZM77.7267 71.6799H73.5221V64.5902C73.5221 58.9318 65.9646 56.573 65.6453 56.4802C65.4982 56.4335 65.3401 56.4335 65.1929 56.4802C64.8736 56.5597 57.3028 58.786 57.3028 64.5902V71.7461H52.8588V53.5251H77.7134L77.7267 71.6799ZM77.7267 51.8819H52.8588V48.3172H54.3623V50.0664C54.3623 50.2773 54.4464 50.4795 54.5961 50.6286C54.7458 50.7777 54.9489 50.8615 55.1606 50.8615C55.3723 50.8615 55.5754 50.7777 55.7251 50.6286C55.8748 50.4795 55.9589 50.2773 55.9589 50.0664V48.3172H59.1123V50.0664C59.1105 50.1713 59.13 50.2755 59.1694 50.3728C59.2089 50.4701 59.2677 50.5584 59.3421 50.6326C59.4166 50.7068 59.5054 50.7653 59.603 50.8046C59.7007 50.844 59.8053 50.8633 59.9107 50.8615C60.1224 50.8615 60.3255 50.7777 60.4752 50.6286C60.6249 50.4795 60.709 50.2773 60.709 50.0664V48.3172H63.8491V50.0664C63.8491 50.2773 63.9332 50.4795 64.0829 50.6286C64.2326 50.7777 64.4357 50.8615 64.6474 50.8615C64.8591 50.8615 65.0622 50.7777 65.2119 50.6286C65.3616 50.4795 65.4457 50.2773 65.4457 50.0664V48.3172H68.5858V50.0664C68.5858 50.2773 68.6699 50.4795 68.8196 50.6286C68.9694 50.7777 69.1724 50.8615 69.3841 50.8615C69.5959 50.8615 69.7989 50.7777 69.9486 50.6286C70.0984 50.4795 70.1825 50.2773 70.1825 50.0664V48.3172H73.3226V50.0664C73.3226 50.2773 73.4067 50.4795 73.5564 50.6286C73.7061 50.7777 73.9091 50.8615 74.1209 50.8615C74.2262 50.8633 74.3308 50.844 74.4285 50.8046C74.5262 50.7653 74.6149 50.7068 74.6894 50.6326C74.7639 50.5584 74.8226 50.4701 74.8621 50.3728C74.9016 50.2755 74.921 50.1713 74.9192 50.0664V48.3172H77.6601L77.7267 51.8819ZM77.7267 46.674H52.8588V44.5007H77.7134L77.7267 46.674ZM77.7267 42.8575H52.8588V40.8167H77.7134L77.7267 42.8575ZM77.7267 39.1735H75.5313V38.4315C75.5477 38.1804 75.6303 37.9382 75.7708 37.7291C75.8551 37.5863 75.9758 37.4682 76.1206 37.3868C76.2655 37.3053 76.4294 37.2634 76.5957 37.2653C76.7661 37.2512 76.9369 37.2861 77.0879 37.366C77.2389 37.4459 77.3636 37.5673 77.4472 37.7159C77.5965 37.9275 77.6882 38.174 77.7134 38.4315L77.7267 39.1735ZM81.399 28.0819C82.2545 29.0791 82.9095 30.2308 83.3283 31.4743H79.4165C79.8696 30.2541 80.5363 29.1235 81.3857 28.1349L81.399 28.0819ZM83.4347 75.1915H79.31V70.2487H83.4214L83.4347 75.1915ZM83.4347 68.5657H79.31V57.3151H83.4214L83.4347 68.5657ZM83.4347 55.6321H79.31V53.5251H83.4214L83.4347 55.6321ZM83.4347 51.8421H79.31V44.5007H83.4214L83.4347 51.8421ZM83.4347 42.8177H79.31V38.2989H83.4214L83.4347 42.8177ZM83.4347 36.616H82.1041V35.6354C82.1041 35.4245 82.02 35.2222 81.8703 35.0731C81.7206 34.924 81.5176 34.8402 81.3058 34.8402C81.0941 34.8402 80.891 34.924 80.7413 35.0731C80.5916 35.2222 80.5075 35.4245 80.5075 35.6354V36.616H79.2568V33.1175H83.3682L83.4347 36.616ZM84.9648 44.5007H102.861V46.727H84.9648V44.5007ZM84.9648 48.3172H102.861V51.9349H84.9648V48.3172ZM97.4187 74.9133H90.1007V68.2874H97.4187V74.9133ZM90.1939 66.684C90.4119 65.7106 90.8387 64.7958 91.445 64.0021C92.0513 63.2084 92.8228 62.5546 93.7065 62.0857C94.5961 62.5595 95.3764 63.2134 95.9974 64.0053C96.6183 64.7972 97.0662 65.7096 97.3123 66.684H90.1939ZM102.847 75.1915H99.0287V67.5321C99.0363 67.466 99.0363 67.3994 99.0287 67.3333C98.8025 62.7615 94.2786 60.6015 94.0924 60.5087C93.9851 60.4631 93.8697 60.4397 93.7531 60.4397C93.6365 60.4397 93.521 60.4631 93.4138 60.5087C93.2142 60.6015 88.7037 62.7482 88.5573 67.4658C88.556 67.4879 88.556 67.51 88.5573 67.5321V75.2445H84.9648V57.3151H102.794L102.847 75.1915ZM102.754 55.6719H84.9648V53.5251H104.67L102.754 55.6719Z" fill="white"/>
<path d="M35.8617 102.547L38.9217 88.1469H40.7037L40.1637 99.9009L44.6637 88.1469H46.4457L43.3857 102.547H42.1617L44.5917 91.1349L40.1817 102.547H39.0657L39.5157 91.1349L37.0857 102.547H35.8617ZM50.9381 102.727C48.5261 102.727 47.7881 101.125 48.2561 98.8569L50.5421 88.1469H51.8561L49.5341 99.0549C49.1201 101.035 49.6781 101.665 50.9381 101.665C51.8741 101.665 52.7381 101.341 53.1521 99.3609L55.5461 88.1469H56.8781L54.5201 99.1629C54.0521 101.449 53.0801 102.727 50.9381 102.727ZM57.9265 102.547L60.9865 88.1469H62.7685L62.2285 99.9009L66.7285 88.1469H68.5105L65.4505 102.547H64.2265L66.6565 91.1349L62.2465 102.547H61.1305L61.5805 91.1349L59.1505 102.547H57.9265ZM69.5829 102.547L72.6429 88.1469H75.1989C77.6109 88.1469 78.3849 89.4609 77.8629 91.8009L77.7369 92.3229C77.4309 93.6909 76.8189 94.4469 75.5589 94.8249C76.5849 95.2929 77.2149 96.3189 76.8009 98.2449L76.6389 98.9649C76.0449 101.701 75.0909 102.547 72.9309 102.547H69.5829ZM71.1309 101.467H72.3009C74.4429 101.467 74.8389 101.089 75.2889 99.0909L75.5049 98.1189C75.9009 96.3189 75.3969 95.3829 73.5789 95.3829H72.4269L71.1309 101.467ZM72.6429 94.3029H73.8129C75.0189 94.3029 76.0089 94.1589 76.3869 92.4489L76.5489 91.7469C76.9989 89.7309 76.4589 89.2269 74.8929 89.2269H73.7229L72.6429 94.3029ZM78.9046 102.547L84.2326 88.1469H86.1046L85.3306 102.547H84.0166L84.2326 99.3789H81.3706L80.2366 102.547H78.9046ZM81.7666 98.2989H84.3046L84.9166 89.5329V89.4969L84.8986 89.5509L81.7666 98.2989ZM88.8531 102.547L91.6251 89.3169L91.8771 88.1469H93.1911L90.4191 101.377L90.1671 102.547H88.8531Z" fill="#EA337D"/>
<path d="M35.8617 102.547L35.0792 102.381L34.8738 103.347H35.8617V102.547ZM38.9217 88.1469V87.3469H38.2738L38.1392 87.9806L38.9217 88.1469ZM40.7037 88.1469L41.5029 88.1836L41.5413 87.3469H40.7037V88.1469ZM40.1637 99.9009L39.3646 99.8642L40.9108 100.187L40.1637 99.9009ZM44.6637 88.1469V87.3469H44.1134L43.9166 87.8608L44.6637 88.1469ZM46.4457 88.1469L47.2282 88.3132L47.4336 87.3469H46.4457V88.1469ZM43.3857 102.547V103.347H44.0336L44.1682 102.713L43.3857 102.547ZM42.1617 102.547L41.3793 102.38L41.1734 103.347H42.1617V102.547ZM44.5917 91.1349L45.3742 91.3015L43.8455 90.8465L44.5917 91.1349ZM40.1817 102.547V103.347H40.7302L40.9279 102.835L40.1817 102.547ZM39.0657 102.547L38.2663 102.515L38.2335 103.347H39.0657V102.547ZM39.5157 91.1349L40.3151 91.1664L38.7333 90.9683L39.5157 91.1349ZM37.0857 102.547V103.347H37.7333L37.8682 102.713L37.0857 102.547ZM36.6442 102.713L39.7042 88.3132L38.1392 87.9806L35.0792 102.381L36.6442 102.713ZM38.9217 88.9469H40.7037V87.3469H38.9217V88.9469ZM39.9046 88.1102L39.3646 99.8642L40.9629 99.9376L41.5029 88.1836L39.9046 88.1102ZM40.9108 100.187L45.4108 88.4329L43.9166 87.8608L39.4166 99.6148L40.9108 100.187ZM44.6637 88.9469H46.4457V87.3469H44.6637V88.9469ZM45.6632 87.9806L42.6032 102.381L44.1682 102.713L47.2282 88.3132L45.6632 87.9806ZM43.3857 101.747H42.1617V103.347H43.3857V101.747ZM42.9442 102.713L45.3742 91.3015L43.8093 90.9683L41.3793 102.38L42.9442 102.713ZM43.8455 90.8465L39.4355 102.259L40.9279 102.835L45.3379 91.4232L43.8455 90.8465ZM40.1817 101.747H39.0657V103.347H40.1817V101.747ZM39.8651 102.578L40.3151 91.1664L38.7163 91.1034L38.2663 102.515L39.8651 102.578ZM38.7333 90.9683L36.3033 102.38L37.8682 102.713L40.2982 91.3015L38.7333 90.9683ZM37.0857 101.747H35.8617V103.347H37.0857V101.747ZM48.2561 98.8569L47.4737 98.6899L47.4726 98.6952L48.2561 98.8569ZM50.5421 88.1469V87.3469H49.8949L49.7597 87.9799L50.5421 88.1469ZM51.8561 88.1469L52.6386 88.3134L52.8443 87.3469H51.8561V88.1469ZM49.5341 99.0549L48.7516 98.8883L48.7511 98.8911L49.5341 99.0549ZM53.1521 99.3609L52.3697 99.1939L52.3691 99.1971L53.1521 99.3609ZM55.5461 88.1469V87.3469H54.8989L54.7637 87.9799L55.5461 88.1469ZM56.8781 88.1469L57.6604 88.3143L57.8675 87.3469H56.8781V88.1469ZM54.5201 99.1629L53.7378 98.9954L53.7364 99.0024L54.5201 99.1629ZM50.9381 101.927C49.9137 101.927 49.433 101.598 49.1955 101.218C48.9257 100.787 48.8239 100.064 49.0396 99.0185L47.4726 98.6952C47.2203 99.9178 47.2535 101.13 47.8387 102.066C48.4562 103.054 49.5506 103.527 50.9381 103.527V101.927ZM49.0385 99.0239L51.3245 88.3139L49.7597 87.9799L47.4737 98.6899L49.0385 99.0239ZM50.5421 88.9469H51.8561V87.3469H50.5421V88.9469ZM51.0736 87.9803L48.7516 98.8883L50.3166 99.2214L52.6386 88.3134L51.0736 87.9803ZM48.7511 98.8911C48.5375 99.9123 48.5103 100.833 48.9241 101.517C49.3868 102.281 50.2047 102.465 50.9381 102.465V100.865C50.4115 100.865 50.3204 100.734 50.2927 100.688C50.216 100.561 50.1167 100.177 50.3172 99.2186L48.7511 98.8911ZM50.9381 102.465C51.4952 102.465 52.1688 102.369 52.7603 101.864C53.3355 101.373 53.7105 100.599 53.9352 99.5246L52.3691 99.1971C52.1797 100.103 51.9157 100.481 51.7214 100.647C51.5434 100.799 51.3171 100.865 50.9381 100.865V102.465ZM53.9345 99.5279L56.3285 88.3139L54.7637 87.9799L52.3697 99.1939L53.9345 99.5279ZM55.5461 88.9469H56.8781V87.3469H55.5461V88.9469ZM56.0958 87.9794L53.7378 98.9954L55.3024 99.3303L57.6604 88.3143L56.0958 87.9794ZM53.7364 99.0024C53.5144 100.087 53.1946 100.807 52.7741 101.254C52.3842 101.669 51.8331 101.927 50.9381 101.927V103.527C52.1851 103.527 53.1911 103.146 53.9396 102.35C54.6577 101.587 55.0579 100.525 55.3039 99.3233L53.7364 99.0024ZM57.9265 102.547L57.1439 102.381L56.9386 103.347H57.9265V102.547ZM60.9865 88.1469V87.3469H60.3386L60.2039 87.9806L60.9865 88.1469ZM62.7685 88.1469L63.5676 88.1836L63.6061 87.3469H62.7685V88.1469ZM62.2285 99.9009L61.4293 99.8642L62.9756 100.187L62.2285 99.9009ZM66.7285 88.1469V87.3469H66.1781L65.9814 87.8608L66.7285 88.1469ZM68.5105 88.1469L69.293 88.3132L69.4983 87.3469H68.5105V88.1469ZM65.4505 102.547V103.347H66.0983L66.233 102.713L65.4505 102.547ZM64.2265 102.547L63.444 102.38L63.2382 103.347H64.2265V102.547ZM66.6565 91.1349L67.4389 91.3015L65.9103 90.8465L66.6565 91.1349ZM62.2465 102.547V103.347H62.795L62.9927 102.835L62.2465 102.547ZM61.1305 102.547L60.3311 102.515L60.2983 103.347H61.1305V102.547ZM61.5805 91.1349L62.3799 91.1664L60.798 90.9683L61.5805 91.1349ZM59.1505 102.547V103.347H59.7981L59.9329 102.713L59.1505 102.547ZM58.709 102.713L61.769 88.3132L60.2039 87.9806L57.1439 102.381L58.709 102.713ZM60.9865 88.9469H62.7685V87.3469H60.9865V88.9469ZM61.9693 88.1102L61.4293 99.8642L63.0276 99.9376L63.5676 88.1836L61.9693 88.1102ZM62.9756 100.187L67.4756 88.4329L65.9814 87.8608L61.4814 99.6148L62.9756 100.187ZM66.7285 88.9469H68.5105V87.3469H66.7285V88.9469ZM67.7279 87.9806L64.6679 102.381L66.233 102.713L69.293 88.3132L67.7279 87.9806ZM65.4505 101.747H64.2265V103.347H65.4505V101.747ZM65.0089 102.713L67.4389 91.3015L65.874 90.9683L63.444 102.38L65.0089 102.713ZM65.9103 90.8465L61.5003 102.259L62.9927 102.835L67.4027 91.4232L65.9103 90.8465ZM62.2465 101.747H61.1305V103.347H62.2465V101.747ZM61.9299 102.578L62.3799 91.1664L60.7811 91.1034L60.3311 102.515L61.9299 102.578ZM60.798 90.9683L58.368 102.38L59.9329 102.713L62.3629 91.3015L60.798 90.9683ZM59.1505 101.747H57.9265V103.347H59.1505V101.747ZM69.5829 102.547L68.8004 102.381L68.595 103.347H69.5829V102.547ZM72.6429 88.1469V87.3469H71.995L71.8604 87.9806L72.6429 88.1469ZM77.8629 91.8009L78.6407 91.9886L78.6437 91.9751L77.8629 91.8009ZM77.7369 92.3229L76.9591 92.1351L76.9562 92.1482L77.7369 92.3229ZM75.5589 94.8249L75.329 94.0586L73.2914 94.6699L75.2269 95.5527L75.5589 94.8249ZM76.8009 98.2449L77.5814 98.4205L77.583 98.413L76.8009 98.2449ZM76.6389 98.9649L75.8584 98.7893L75.8571 98.7951L76.6389 98.9649ZM71.1309 101.467L70.3484 101.3L70.1425 102.267H71.1309V101.467ZM75.2889 99.0909L76.0693 99.2667L76.0698 99.2644L75.2889 99.0909ZM75.5049 98.1189L76.2858 98.2924L76.2862 98.2908L75.5049 98.1189ZM72.4269 95.3829V94.5829H71.7793L71.6444 95.2162L72.4269 95.3829ZM72.6429 94.3029L71.8604 94.1364L71.6548 95.1029H72.6429V94.3029ZM76.3869 92.4489L75.6073 92.269L75.6057 92.2762L76.3869 92.4489ZM76.5489 91.7469L77.3284 91.9268L77.3297 91.9212L76.5489 91.7469ZM73.7229 89.2269V88.4269H73.0752L72.9404 89.0604L73.7229 89.2269ZM70.3654 102.713L73.4254 88.3132L71.8604 87.9806L68.8004 102.381L70.3654 102.713ZM72.6429 88.9469H75.1989V87.3469H72.6429V88.9469ZM75.1989 88.9469C76.2824 88.9469 76.758 89.2406 76.9733 89.5516C77.2117 89.8961 77.3263 90.5317 77.0821 91.6267L78.6437 91.9751C78.9214 90.7301 78.9101 89.5387 78.289 88.6411C77.6447 87.7102 76.5274 87.3469 75.1989 87.3469V88.9469ZM77.0852 91.6132L76.9592 92.1352L78.5145 92.5106L78.6405 91.9886L77.0852 91.6132ZM76.9562 92.1482C76.8201 92.7565 76.6327 93.1507 76.398 93.4248C76.1703 93.6907 75.847 93.9032 75.329 94.0586L75.7888 95.5911C76.5308 95.3685 77.1435 95.0141 77.6133 94.4655C78.076 93.9251 78.3476 93.2573 78.5176 92.4975L76.9562 92.1482ZM75.2269 95.5527C75.5863 95.7167 75.8381 95.9554 75.9826 96.2986C76.1336 96.6572 76.2035 97.2172 76.0187 98.0768L77.583 98.413C77.8123 97.3465 77.7742 96.4306 77.4572 95.6777C77.1337 94.9093 76.5575 94.4011 75.8909 94.097L75.2269 95.5527ZM76.0204 98.0693L75.8584 98.7893L77.4194 99.1405L77.5814 98.4205L76.0204 98.0693ZM75.8571 98.7951C75.5687 100.123 75.2236 100.82 74.8212 101.202C74.4505 101.554 73.9142 101.747 72.9309 101.747V103.347C74.1075 103.347 75.1282 103.117 75.9231 102.362C76.6862 101.637 77.1151 100.542 77.4207 99.1346L75.8571 98.7951ZM72.9309 101.747H69.5829V103.347H72.9309V101.747ZM71.1309 102.267H72.3009V100.667H71.1309V102.267ZM72.3009 102.267C73.3495 102.267 74.2647 102.194 74.9344 101.649C75.6009 101.106 75.8516 100.233 76.0693 99.2667L74.5084 98.9151C74.2762 99.9463 74.1038 100.262 73.9244 100.408C73.748 100.551 73.3943 100.667 72.3009 100.667V102.267ZM76.0698 99.2644L76.2858 98.2924L74.7239 97.9453L74.5079 98.9173L76.0698 99.2644ZM76.2862 98.2908C76.4949 97.3419 76.5307 96.3769 76.0393 95.6344C75.5159 94.8435 74.594 94.5829 73.5789 94.5829V96.1829C74.3818 96.1829 74.6208 96.3902 74.705 96.5174C74.8211 96.6928 74.9108 97.0958 74.7236 97.947L76.2862 98.2908ZM73.5789 94.5829H72.4269V96.1829H73.5789V94.5829ZM71.6444 95.2162L70.3484 101.3L71.9133 101.634L73.2093 95.5495L71.6444 95.2162ZM72.6429 95.1029H73.8129V93.5029H72.6429V95.1029ZM73.8129 95.1029C74.4115 95.1029 75.1551 95.0774 75.8016 94.7149C76.5057 94.3202 76.9468 93.6222 77.168 92.6215L75.6057 92.2762C75.4489 92.9856 75.2061 93.2145 75.0192 93.3193C74.7746 93.4564 74.4203 93.5029 73.8129 93.5029V95.1029ZM77.1664 92.6288L77.3284 91.9268L75.7694 91.567L75.6074 92.269L77.1664 92.6288ZM77.3297 91.9212C77.4493 91.3852 77.5149 90.9011 77.4997 90.4741C77.4843 90.0433 77.3845 89.6192 77.1242 89.2608C76.595 88.532 75.6777 88.4269 74.8929 88.4269V90.0269C75.674 90.0269 75.8098 90.1737 75.8296 90.201C75.8438 90.2205 75.8925 90.3005 75.9007 90.5312C75.9091 90.7657 75.8735 91.1006 75.7681 91.5726L77.3297 91.9212ZM74.8929 88.4269H73.7229V90.0269H74.8929V88.4269ZM72.9404 89.0604L71.8604 94.1364L73.4254 94.4694L74.5054 89.3934L72.9404 89.0604ZM78.9046 102.547L78.1543 102.269L77.7556 103.347H78.9046V102.547ZM84.2326 88.1469V87.3469H83.6756L83.4823 87.8693L84.2326 88.1469ZM86.1046 88.1469L86.9035 88.1898L86.9488 87.3469H86.1046V88.1469ZM85.3306 102.547V103.347H86.0888L86.1295 102.59L85.3306 102.547ZM84.0166 102.547L83.2185 102.492L83.1602 103.347H84.0166V102.547ZM84.2326 99.3789L85.0308 99.4333L85.089 98.5789H84.2326V99.3789ZM81.3706 99.3789V98.5789H80.8073L80.6174 99.1093L81.3706 99.3789ZM80.2366 102.547V103.347H80.8L80.9898 102.816L80.2366 102.547ZM81.7666 98.2989L81.0135 98.0292L80.6305 99.0989H81.7666V98.2989ZM84.3046 98.2989V99.0989H85.0507L85.1027 98.3546L84.3046 98.2989ZM84.9166 89.5329L85.7147 89.5886L85.7166 89.5608V89.5329H84.9166ZM84.9166 89.4969H85.7166L84.1577 89.2439L84.9166 89.4969ZM84.8986 89.5509L85.6518 89.8205L85.6548 89.8122L85.6576 89.8039L84.8986 89.5509ZM79.6549 102.824L84.9829 88.4245L83.4823 87.8693L78.1543 102.269L79.6549 102.824ZM84.2326 88.9469H86.1046V87.3469H84.2326V88.9469ZM85.3058 88.1039L84.5318 102.504L86.1295 102.59L86.9035 88.1898L85.3058 88.1039ZM85.3306 101.747H84.0166V103.347H85.3306V101.747ZM84.8148 102.601L85.0308 99.4333L83.4345 99.3245L83.2185 102.492L84.8148 102.601ZM84.2326 98.5789H81.3706V100.179H84.2326V98.5789ZM80.6174 99.1093L79.4834 102.277L80.9898 102.816L82.1238 99.6485L80.6174 99.1093ZM80.2366 101.747H78.9046V103.347H80.2366V101.747ZM81.7666 99.0989H84.3046V97.4989H81.7666V99.0989ZM85.1027 98.3546L85.7147 89.5886L84.1186 89.4772L83.5066 98.2432L85.1027 98.3546ZM85.7166 89.5329V89.4969H84.1166V89.5329H85.7166ZM84.1577 89.2439L84.1397 89.2979L85.6576 89.8039L85.6756 89.7499L84.1577 89.2439ZM84.1455 89.2812L81.0135 98.0292L82.5198 98.5685L85.6518 89.8205L84.1455 89.2812ZM88.8531 102.547L88.0701 102.383L87.8682 103.347H88.8531V102.547ZM91.6251 89.3169L90.8431 89.1484L90.8421 89.1528L91.6251 89.3169ZM91.8771 88.1469V87.3469H91.2311L91.0951 87.9784L91.8771 88.1469ZM93.1911 88.1469L93.9741 88.3109L94.1761 87.3469H93.1911V88.1469ZM90.4191 101.377L91.2012 101.545L91.2021 101.541L90.4191 101.377ZM90.1671 102.547V103.347H90.8132L90.9492 102.715L90.1671 102.547ZM89.6361 102.711L92.4081 89.4809L90.8421 89.1528L88.0701 102.383L89.6361 102.711ZM92.4072 89.4853L92.6592 88.3153L91.0951 87.9784L90.8431 89.1484L92.4072 89.4853ZM91.8771 88.9469H93.1911V87.3469H91.8771V88.9469ZM92.4081 87.9828L89.6362 101.213L91.2021 101.541L93.9741 88.3109L92.4081 87.9828ZM89.6371 101.208L89.3851 102.378L90.9492 102.715L91.2012 101.545L89.6371 101.208ZM90.1671 101.747H88.8531V103.347H90.1671V101.747Z" fill="#EA337D"/>
</svg>
