<svg width="152" height="84" viewBox="0 0 152 84" fill="none" xmlns="http://www.w3.org/2000/svg">
<path d="M97.3253 43.071L96.7902 43.1641L96.7925 43.1779L96.7956 43.1914L97.3253 43.071ZM98.0381 44.8083L97.582 45.1034L97.5861 45.1098L97.5904 45.116L98.0381 44.8083ZM99.3744 45.9665L99.1214 46.4472L99.3744 45.9665ZM104.319 45.521L104.642 45.9575L104.645 45.9556L104.319 45.521ZM106.457 43.1156L105.992 42.834L106.457 43.1156ZM107.972 39.8193L107.457 39.6437L107.972 39.8193ZM108.952 36.1666L108.421 36.0501L108.418 36.0626L108.952 36.1666ZM109.486 32.7367L108.946 32.6783L108.945 32.6916L109.486 32.7367ZM109.397 27.8368L108.866 27.9522L108.868 27.9631L108.871 27.9739L109.397 27.8368ZM108.595 26.055L108.151 26.3682L108.157 26.3767L108.164 26.385L108.595 26.055ZM107.17 24.8523L106.917 25.3331L106.927 25.3381L107.17 24.8523ZM102.359 25.3423L102.682 25.7789L102.692 25.7711L102.359 25.3423ZM100.265 27.7031L100.73 27.9847V27.9847L100.265 27.7031ZM98.7508 31.044L98.2354 30.8722L98.233 30.8798L98.7508 31.044ZM97.8153 34.6966L97.2822 34.5926H97.2822L97.8153 34.6966ZM97.2808 38.1711L96.7407 38.1127L96.7399 38.12L96.7393 38.1272L97.2808 38.1711ZM91.2673 35.053L90.7317 34.9621L91.2673 35.053ZM92.4254 30.4204L91.9131 30.2395L91.9101 30.2486L92.4254 30.4204ZM94.4299 26.0995L93.9659 25.817L93.9615 25.8245L94.4299 26.0995ZM97.2808 22.5359L97.6538 22.9309L97.6541 22.9306L97.2808 22.5359ZM100.978 20.086L100.765 19.5861L100.761 19.5878L100.978 20.086ZM110.154 20.086L109.929 20.5806L109.939 20.5847L110.154 20.086ZM113.406 22.4914L113.824 22.1448V22.1448L113.406 22.4914ZM115.321 26.2332L114.799 26.3824L114.803 26.3952L115.321 26.2332ZM115.589 35.7212L116.125 35.8105L116.125 35.8089L115.589 35.7212ZM114.341 40.3984L113.832 40.2087L113.829 40.2176L114.341 40.3984ZM112.248 44.7192L111.788 44.4295L111.784 44.4368L112.248 44.7192ZM109.308 48.2828L108.946 47.8779L109.308 48.2828ZM96.1226 50.6436L95.8706 51.1249L95.8774 51.1284L95.8843 51.1318L96.1226 50.6436ZM93.0936 48.0155L92.6491 48.3278L93.0936 48.0155ZM91.4009 44.2292L90.8733 44.3584L90.8739 44.361L91.4009 44.2292ZM96.6039 40.9329C96.6039 41.7043 96.6657 42.4483 96.7902 43.1641L97.8605 42.978C97.7475 42.3278 97.6904 41.6463 97.6904 40.9329H96.6039ZM96.7956 43.1914C96.9566 43.8998 97.217 44.5393 97.582 45.1034L98.4941 44.5132C98.2058 44.0676 97.991 43.5489 97.8551 42.9507L96.7956 43.1914ZM97.5904 45.116C97.9721 45.6712 98.4876 46.1136 99.1214 46.4472L99.6274 45.4857C99.1327 45.2254 98.7574 44.8957 98.4857 44.5005L97.5904 45.116ZM99.1214 46.4472C99.7861 46.797 100.593 46.9551 101.513 46.9551V45.8687C100.71 45.8687 100.091 45.7298 99.6274 45.4857L99.1214 46.4472ZM101.513 46.9551C102.689 46.9551 103.74 46.6258 104.642 45.9575L103.996 45.0845C103.294 45.604 102.474 45.8687 101.513 45.8687V46.9551ZM104.645 45.9556C105.537 45.2862 106.295 44.4304 106.922 43.3971L105.992 42.834C105.431 43.7607 104.763 44.5085 103.993 45.0864L104.645 45.9556ZM106.922 43.3971C107.538 42.3799 108.059 41.245 108.486 39.9948L107.457 39.6437C107.053 40.8287 106.564 41.8913 105.992 42.834L106.922 43.3971ZM108.486 39.9948C108.909 38.7548 109.242 37.5133 109.485 36.2707L108.418 36.0626C108.186 37.255 107.866 38.4487 107.457 39.6437L108.486 39.9948ZM109.482 36.2831C109.754 35.0457 109.936 33.8783 110.027 32.7818L108.945 32.6916C108.858 33.7332 108.684 34.8524 108.421 36.0501L109.482 36.2831ZM110.026 32.7951C110.146 31.6862 110.207 30.7592 110.207 30.0195H109.121C109.121 30.7051 109.064 31.5896 108.946 32.6783L110.026 32.7951ZM110.207 30.0195C110.207 29.2054 110.113 28.4314 109.923 27.6996L108.871 27.9739C109.037 28.6082 109.121 29.2893 109.121 30.0195H110.207ZM109.928 27.7214C109.764 26.9683 109.466 26.2993 109.027 25.725L108.164 26.385C108.497 26.8203 108.733 27.3392 108.866 27.9522L109.928 27.7214ZM109.039 25.7417C108.627 25.1582 108.081 24.7004 107.413 24.3664L106.927 25.3381C107.447 25.5981 107.851 25.942 108.151 26.3682L109.039 25.7417ZM107.423 24.3716C106.763 24.0243 105.988 23.8636 105.121 23.8636V24.9501C105.857 24.9501 106.448 25.0863 106.917 25.333L107.423 24.3716ZM105.121 23.8636C103.964 23.8636 102.925 24.2138 102.025 24.9135L102.692 25.7711C103.396 25.2234 104.199 24.9501 105.121 24.9501V23.8636ZM102.036 24.9057C101.169 25.5474 100.426 26.3901 99.8007 27.4216L100.73 27.9847C101.293 27.0562 101.945 26.3249 102.682 25.7788L102.036 24.9057ZM99.8007 27.4216C99.183 28.4408 98.6621 29.5921 98.2354 30.8722L99.2661 31.2158C99.6709 30.0014 100.16 28.9255 100.73 27.9847L99.8007 27.4216ZM98.233 30.8798C97.8408 32.1165 97.5238 33.3541 97.2822 34.5926L98.3485 34.8007C98.582 33.604 98.8886 32.4066 99.2686 31.2082L98.233 30.8798ZM97.2822 34.5926C97.042 35.8235 96.8613 36.997 96.7407 38.1127L97.8209 38.2295C97.9378 37.1478 98.1135 36.0049 98.3485 34.8007L97.2822 34.5926ZM96.7393 38.1272C96.6496 39.2343 96.6039 40.1707 96.6039 40.9329H97.6904C97.6904 40.2103 97.7338 39.3055 97.8223 38.215L96.7393 38.1272ZM91.4096 39.6411C91.4096 38.1889 91.5403 36.69 91.8028 35.1439L90.7317 34.9621C90.4597 36.5638 90.3231 38.1236 90.3231 39.6411H91.4096ZM91.8028 35.1439C92.0654 33.5975 92.4447 32.0803 92.9408 30.5921L91.9101 30.2486C91.3964 31.7895 91.0036 33.3607 90.7317 34.9621L91.8028 35.1439ZM92.9377 30.6012C93.4608 29.1189 94.1144 27.7102 94.8984 26.3745L93.9615 25.8245C93.1418 27.2209 92.4591 28.6928 91.9132 30.2396L92.9377 30.6012ZM94.894 26.382C95.7025 25.0537 96.6229 23.9045 97.6538 22.9309L96.9078 22.141C95.8006 23.1867 94.8204 24.4132 93.9659 25.8171L94.894 26.382ZM97.6541 22.9306C98.7078 21.9339 99.8873 21.1526 101.195 20.5842L100.761 19.5878C99.3366 20.2073 98.0514 21.0593 96.9075 22.1413L97.6541 22.9306ZM101.191 20.5858C102.513 20.0232 103.969 19.7383 105.566 19.7383V18.6519C103.837 18.6519 102.235 18.9609 100.765 19.5861L101.191 20.5858ZM105.566 19.7383C107.257 19.7383 108.707 20.025 109.929 20.5805L110.379 19.5915C108.988 18.9592 107.379 18.6519 105.566 18.6519V19.7383ZM109.939 20.5847C111.171 21.1169 112.184 21.8682 112.988 22.838L113.824 22.1448C112.905 21.0358 111.751 20.1836 110.37 19.5873L109.939 20.5847ZM112.988 22.838C113.795 23.8129 114.401 24.9908 114.799 26.3824L115.844 26.0839C115.41 24.5653 114.739 23.2487 113.824 22.1448L112.988 22.838ZM114.803 26.3952C115.229 27.76 115.446 29.293 115.446 30.9994H116.533C116.533 29.2017 116.304 27.5572 115.84 26.0711L114.803 26.3952ZM115.446 30.9994C115.446 32.482 115.316 34.0265 115.053 35.6334L116.125 35.8089C116.396 34.1492 116.533 32.5459 116.533 30.9994H115.446ZM115.053 35.6319C114.791 37.2015 114.384 38.7269 113.832 40.2087L114.85 40.588C115.427 39.0408 115.852 37.4481 116.125 35.8105L115.053 35.6319ZM113.829 40.2176C113.308 41.6937 112.628 43.0975 111.788 44.4295L112.707 45.0089C113.59 43.6088 114.306 42.132 114.854 40.5792L113.829 40.2176ZM111.784 44.4368C110.978 45.7598 110.032 46.9058 108.946 47.8779L109.67 48.6876C110.84 47.6404 111.854 46.4107 112.712 45.0016L111.784 44.4368ZM108.946 47.8779C107.863 48.8463 106.639 49.6157 105.268 50.1867L105.686 51.1896C107.166 50.5728 108.495 49.7387 109.67 48.6876L108.946 47.8779ZM105.268 50.1867C103.917 50.7496 102.401 51.0359 100.711 51.0359V52.1223C102.525 52.1223 104.186 51.8146 105.686 51.1896L105.268 50.1867ZM100.711 51.0359C98.9911 51.0359 97.5473 50.7349 96.361 50.1555L95.8843 51.1318C97.2518 51.7997 98.8668 52.1223 100.711 52.1223V51.0359ZM96.3747 50.1624C95.2003 49.5473 94.258 48.7277 93.5381 47.7032L92.6491 48.3278C93.4734 49.5009 94.5505 50.4334 95.8706 51.1249L96.3747 50.1624ZM93.5381 47.7032C92.8078 46.6639 92.2696 45.4642 91.9279 44.0975L90.8739 44.361C91.2449 45.845 91.8352 47.1695 92.6491 48.3278L93.5381 47.7032ZM91.9285 44.1C91.5832 42.69 91.4096 41.2042 91.4096 39.6411H90.3231C90.3231 41.2852 90.5059 42.8581 90.8733 44.3584L91.9285 44.1ZM125.329 32.4249V31.8816H124.879L124.795 32.3235L125.329 32.4249ZM129.293 32.2467L129.204 31.7108L129.2 31.7115L129.293 32.2467ZM131.209 31.6231L131.462 32.1039L131.471 32.099L131.209 31.6231ZM132.634 30.3313L132.194 30.0132L132.188 30.0215L132.182 30.0299L132.634 30.3313ZM132.857 26.545L132.371 26.7879V26.7879L132.857 26.545ZM131.922 25.3423L132.272 24.9276V24.9276L131.922 25.3423ZM130.541 24.6295L130.387 25.1508L130.395 25.153L130.541 24.6295ZM124.884 25.7432L124.506 25.3527L124.499 25.359L124.884 25.7432ZM122.968 29.7522V30.2954H123.406L123.499 29.8672L122.968 29.7522ZM116.955 29.7522L116.417 29.6773L116.331 30.2954H116.955V29.7522ZM120.83 21.9123L120.479 21.4978L120.476 21.5003L120.83 21.9123ZM132.723 19.6405L132.595 20.1683L132.602 20.1701L132.61 20.1717L132.723 19.6405ZM136.02 21.0214L135.712 21.4691L135.72 21.4745L135.728 21.4797L136.02 21.0214ZM138.381 23.5159L137.909 23.7855L137.915 23.7954L138.381 23.5159ZM137.668 32.0685L138.08 32.4228V32.4228L137.668 32.0685ZM133.436 34.5185L133.326 33.9865L132.893 34.0761V34.5185H133.436ZM133.436 34.6076H132.893V35.0061L133.273 35.1257L133.436 34.6076ZM136.822 36.9684L137.285 36.6852L136.822 36.9684ZM136.777 45.7437L136.293 45.4965L136.777 45.7437ZM133.971 49.04L133.652 48.6002L133.647 48.6041L133.971 49.04ZM129.917 50.9555L130.058 51.48L129.917 50.9555ZM116.465 48.7728L116.071 49.1476L116.077 49.1538L116.465 48.7728ZM114.104 40.3093V39.766H113.594L113.562 40.2749L114.104 40.3093ZM120.073 40.3093L120.613 40.3693L120.68 39.766H120.073V40.3093ZM121.053 44.7637L121.48 44.4286L121.053 44.7637ZM129.427 44.9419L129.778 45.3566L129.427 44.9419ZM129.873 37.8148L129.547 38.2494L129.555 38.2558L129.564 38.262L129.873 37.8148ZM124.483 36.8793L123.949 36.7779L123.826 37.4226H124.483V36.8793ZM125.329 32.9681H127.244V31.8816H125.329V32.9681ZM127.244 32.9681C127.959 32.9681 128.673 32.9059 129.387 32.7819L129.2 31.7115C128.548 31.825 127.896 31.8816 127.244 31.8816V32.9681ZM129.383 32.7825C130.145 32.6555 130.84 32.4311 131.462 32.1038L130.956 31.1424C130.449 31.409 129.867 31.6003 129.204 31.7109L129.383 32.7825ZM131.471 32.099C132.137 31.7327 132.679 31.2438 133.086 30.6326L132.182 30.0299C131.877 30.4878 131.469 30.8601 130.947 31.1471L131.471 32.099ZM133.075 30.6493C133.543 30.0005 133.757 29.1979 133.757 28.2822H132.67C132.67 29.0296 132.497 29.5929 132.194 30.0132L133.075 30.6493ZM133.757 28.2822C133.757 27.5382 133.627 26.871 133.343 26.302L132.371 26.7879C132.562 27.1692 132.67 27.6602 132.67 28.2822H133.757ZM133.343 26.302C133.074 25.7645 132.718 25.3041 132.272 24.9276L131.571 25.757C131.898 26.0337 132.165 26.3752 132.371 26.7879L133.343 26.302ZM132.272 24.9276C131.821 24.5455 131.289 24.2735 130.686 24.1061L130.395 25.153C130.862 25.2825 131.25 25.4857 131.571 25.757L132.272 24.9276ZM130.694 24.1084C130.136 23.9443 129.549 23.8636 128.937 23.8636V24.9501C129.453 24.9501 129.936 25.0179 130.387 25.1507L130.694 24.1084ZM128.937 23.8636C127.07 23.8636 125.562 24.3309 124.506 25.3528L125.261 26.1335C126.047 25.3736 127.241 24.9501 128.937 24.9501V23.8636ZM124.499 25.359C123.509 26.3497 122.836 27.7966 122.437 29.6372L123.499 29.8672C123.872 28.1442 124.477 26.9184 125.268 26.1273L124.499 25.359ZM122.968 29.209H116.955V30.2954H122.968V29.209ZM117.493 29.827C117.954 26.5103 119.198 24.0303 121.184 22.3244L120.476 21.5003C118.245 23.4173 116.905 26.1639 116.417 29.6773L117.493 29.827ZM121.181 22.3268C123.204 20.6134 125.804 19.7383 129.026 19.7383V18.6519C125.597 18.6519 122.733 19.5883 120.479 21.4978L121.181 22.3268ZM129.026 19.7383C130.23 19.7383 131.419 19.8816 132.595 20.1683L132.852 19.1128C131.593 18.8056 130.317 18.6519 129.026 18.6519V19.7383ZM132.61 20.1717C133.795 20.4257 134.826 20.8601 135.712 21.4691L136.327 20.5738C135.313 19.8761 134.147 19.3899 132.837 19.1094L132.61 20.1717ZM135.728 21.4797C136.631 22.0545 137.357 22.8203 137.909 23.7854L138.852 23.2464C138.216 22.1329 137.368 21.2356 136.311 20.5631L135.728 21.4797ZM137.915 23.7954C138.477 24.7317 138.773 25.9064 138.773 27.3468H139.859C139.859 25.7582 139.532 24.3789 138.846 23.2364L137.915 23.7954ZM138.773 27.3468C138.773 29.103 138.261 30.5469 137.256 31.7142L138.08 32.4228C139.273 31.0362 139.859 29.3323 139.859 27.3468H138.773ZM137.256 31.7142C136.239 32.896 134.937 33.6533 133.326 33.9865L133.546 35.0504C135.38 34.6709 136.899 33.7949 138.08 32.4228L137.256 31.7142ZM132.893 34.5185V34.6076H133.979V34.5185H132.893ZM133.273 35.1257C134.795 35.6047 135.794 36.3281 136.358 37.2517L137.285 36.6852C136.543 35.4706 135.285 34.62 133.599 34.0894L133.273 35.1257ZM136.358 37.2517C136.946 38.2147 137.258 39.4462 137.258 40.9774H138.345C138.345 39.3015 138.003 37.8603 137.285 36.6852L136.358 37.2517ZM137.258 40.9774C137.258 42.7519 136.929 44.2521 136.293 45.4965L137.261 45.991C137.991 44.5626 138.345 42.8854 138.345 40.9774H137.258ZM136.293 45.4965C135.648 46.7584 134.769 47.7905 133.652 48.6002L134.29 49.4798C135.548 48.5672 136.54 47.4018 137.261 45.991L136.293 45.4965ZM133.647 48.6041C132.549 49.4203 131.261 50.031 129.776 50.4309L130.058 51.48C131.661 51.0484 133.076 50.3821 134.295 49.476L133.647 48.6041ZM129.776 50.4309C128.282 50.8331 126.682 51.0359 124.973 51.0359V52.1223C126.768 52.1223 128.464 51.9093 130.058 51.48L129.776 50.4309ZM124.973 51.0359C121.22 51.0359 118.552 50.1193 116.852 48.3917L116.077 49.1538C118.06 51.168 121.063 52.1223 124.973 52.1223V51.0359ZM116.858 48.398C115.189 46.6472 114.414 44.0003 114.646 40.3437L113.562 40.2749C113.319 44.1018 114.117 47.0972 116.071 49.1476L116.858 48.398ZM114.104 40.8525H120.073V39.766H114.104V40.8525ZM119.533 40.2493C119.315 42.211 119.649 43.8537 120.625 45.0989L121.48 44.4286C120.734 43.4763 120.415 42.1493 120.613 40.3693L119.533 40.2493ZM120.625 45.0989C121.622 46.3705 123.174 46.9551 125.151 46.9551V45.8687C123.386 45.8687 122.206 45.3545 121.48 44.4286L120.625 45.0989ZM125.151 46.9551C126.956 46.9551 128.51 46.4293 129.778 45.3566L129.076 44.5272C128.028 45.4145 126.731 45.8687 125.151 45.8687V46.9551ZM129.778 45.3566C131.082 44.2532 131.708 42.6918 131.708 40.7547H130.621C130.621 42.4406 130.089 43.6707 129.076 44.5272L129.778 45.3566ZM131.708 40.7547C131.708 39.2707 131.233 38.093 130.181 37.3676L129.564 38.262C130.235 38.7244 130.621 39.5067 130.621 40.7547H131.708ZM130.198 37.3802C129.255 36.6728 128.095 36.3361 126.754 36.3361V37.4226C127.908 37.4226 128.827 37.7095 129.547 38.2494L130.198 37.3802ZM126.754 36.3361H124.483V37.4226H126.754V36.3361ZM125.016 36.9807L125.863 32.5263L124.795 32.3235L123.949 36.7779L125.016 36.9807Z" fill="#B4B4B4"/>
<path d="M95.32 59.5414H96.136V65.7214C96.136 66.1614 96.092 66.5414 96.004 66.8614C95.916 67.1814 95.772 67.4454 95.572 67.6534C95.38 67.8614 95.124 68.0174 94.804 68.1214C94.492 68.2254 94.104 68.2774 93.64 68.2774C93.152 68.2774 92.752 68.1974 92.44 68.0374C92.128 67.8694 91.884 67.6534 91.708 67.3894C91.532 67.1174 91.412 66.8054 91.348 66.4534C91.284 66.1014 91.252 65.7374 91.252 65.3614H92.068C92.076 65.5454 92.088 65.7654 92.104 66.0214C92.12 66.2774 92.176 66.5214 92.272 66.7534C92.368 66.9854 92.524 67.1854 92.74 67.3534C92.964 67.5134 93.288 67.5934 93.712 67.5934C94.032 67.5934 94.296 67.5534 94.504 67.4734C94.712 67.3854 94.876 67.2534 94.996 67.0774C95.116 66.8934 95.2 66.6614 95.248 66.3814C95.296 66.1014 95.32 65.7654 95.32 65.3734V59.5414ZM100.276 64.7494H103.648L101.992 60.3574L100.276 64.7494ZM101.572 59.5414H102.484L105.844 68.1094H104.968L103.924 65.4454H100.024L98.992 68.1094H98.128L101.572 59.5414ZM107.811 59.5414H108.723L113.715 66.7894H113.739V59.5414H114.555V68.1094H113.643L108.651 60.8614H108.627V68.1094H107.811V59.5414ZM117.388 59.5414H118.204V64.8454C118.204 65.3414 118.26 65.7654 118.372 66.1174C118.484 66.4614 118.648 66.7454 118.864 66.9694C119.08 67.1854 119.344 67.3454 119.656 67.4494C119.968 67.5454 120.32 67.5934 120.712 67.5934C121.112 67.5934 121.468 67.5454 121.78 67.4494C122.092 67.3454 122.356 67.1854 122.572 66.9694C122.788 66.7454 122.952 66.4614 123.064 66.1174C123.176 65.7654 123.232 65.3414 123.232 64.8454V59.5414H124.048V65.0254C124.048 65.4654 123.984 65.8854 123.856 66.2854C123.736 66.6774 123.54 67.0214 123.268 67.3174C123.004 67.6134 122.66 67.8494 122.236 68.0254C121.82 68.1934 121.312 68.2774 120.712 68.2774C120.12 68.2774 119.612 68.1934 119.188 68.0254C118.772 67.8494 118.428 67.6134 118.156 67.3174C117.892 67.0214 117.696 66.6774 117.568 66.2854C117.448 65.8854 117.388 65.4654 117.388 65.0254V59.5414ZM128.099 64.7494H131.471L129.815 60.3574L128.099 64.7494ZM129.395 59.5414H130.307L133.667 68.1094H132.791L131.747 65.4454H127.847L126.815 68.1094H125.951L129.395 59.5414ZM136.461 63.6094H139.509C139.757 63.6094 139.993 63.5734 140.217 63.5014C140.441 63.4214 140.637 63.3094 140.805 63.1654C140.973 63.0214 141.105 62.8494 141.201 62.6494C141.305 62.4414 141.357 62.2054 141.357 61.9414C141.357 61.4134 141.205 60.9974 140.901 60.6934C140.597 60.3894 140.133 60.2374 139.509 60.2374H136.461V63.6094ZM135.645 59.5414H139.569C139.921 59.5414 140.253 59.5854 140.565 59.6734C140.885 59.7614 141.161 59.8974 141.393 60.0814C141.633 60.2574 141.821 60.4894 141.957 60.7774C142.101 61.0574 142.173 61.3894 142.173 61.7734C142.173 62.3174 142.033 62.7894 141.753 63.1894C141.473 63.5894 141.057 63.8454 140.505 63.9574V63.9814C140.785 64.0214 141.017 64.0974 141.201 64.2094C141.385 64.3134 141.533 64.4494 141.645 64.6174C141.765 64.7854 141.849 64.9814 141.897 65.2054C141.953 65.4214 141.989 65.6574 142.005 65.9134C142.013 66.0574 142.021 66.2334 142.029 66.4414C142.037 66.6494 142.053 66.8614 142.077 67.0774C142.101 67.2854 142.137 67.4854 142.185 67.6774C142.241 67.8614 142.313 68.0054 142.401 68.1094H141.501C141.453 68.0294 141.413 67.9334 141.381 67.8214C141.357 67.7014 141.337 67.5814 141.321 67.4614C141.313 67.3334 141.305 67.2094 141.297 67.0894C141.289 66.9694 141.281 66.8654 141.273 66.7774C141.257 66.4734 141.229 66.1734 141.189 65.8774C141.157 65.5734 141.081 65.3054 140.961 65.0734C140.849 64.8334 140.681 64.6414 140.457 64.4974C140.241 64.3534 139.941 64.2894 139.557 64.3054H136.461V68.1094H135.645V59.5414ZM147.085 64.5814L143.725 59.5414H144.685L147.505 63.8854L150.313 59.5414H151.285L147.901 64.5814V68.1094H147.085V64.5814Z" fill="white"/>
<path d="M95.32 59.5414V59.3908H95.1694V59.5414H95.32ZM96.136 59.5414H96.2866V59.3908H96.136V59.5414ZM96.004 66.8614L96.1492 66.9013L96.004 66.8614ZM95.572 67.6534L95.4634 67.549L95.4613 67.5512L95.572 67.6534ZM94.804 68.1214L94.7575 67.9782L94.7564 67.9785L94.804 68.1214ZM92.44 68.0374L92.3686 68.17L92.3713 68.1714L92.44 68.0374ZM91.708 67.3894L91.5816 67.4712L91.5827 67.4729L91.708 67.3894ZM91.348 66.4534L91.4962 66.4264L91.348 66.4534ZM91.252 65.3614V65.2108H91.1014V65.3614H91.252ZM92.068 65.3614L92.2185 65.3548L92.2122 65.2108H92.068V65.3614ZM92.104 66.0214L92.2543 66.012L92.104 66.0214ZM92.74 67.3534L92.6475 67.4723L92.6525 67.4759L92.74 67.3534ZM94.504 67.4734L94.5581 67.614L94.5627 67.6121L94.504 67.4734ZM94.996 67.0774L95.1205 67.1622L95.1221 67.1596L94.996 67.0774ZM95.248 66.3814L95.0996 66.3559V66.3559L95.248 66.3814ZM95.32 59.692H96.136V59.3908H95.32V59.692ZM95.9854 59.5414V65.7214H96.2866V59.5414H95.9854ZM95.9854 65.7214C95.9854 66.152 95.9423 66.5179 95.8588 66.8214L96.1492 66.9013C96.2417 66.5649 96.2866 66.1708 96.2866 65.7214H95.9854ZM95.8588 66.8214C95.7764 67.1209 95.6436 67.3616 95.4634 67.549L95.6806 67.7578C95.9004 67.5291 96.0556 67.2418 96.1492 66.9013L95.8588 66.8214ZM95.4613 67.5512C95.2899 67.737 95.0576 67.8806 94.7575 67.9782L94.8505 68.2646C95.1904 68.1541 95.4701 67.9858 95.6827 67.7555L95.4613 67.5512ZM94.7564 67.9785C94.4646 68.0758 94.0939 68.1268 93.64 68.1268V68.428C94.1141 68.428 94.5194 68.375 94.8516 68.2642L94.7564 67.9785ZM93.64 68.1268C93.1671 68.1268 92.7928 68.049 92.5087 67.9034L92.3713 68.1714C92.7112 68.3457 93.1369 68.428 93.64 68.428V68.1268ZM92.5114 67.9048C92.2185 67.7471 91.9941 67.547 91.8333 67.3058L91.5827 67.4729C91.7739 67.7597 92.0375 67.9917 92.3686 68.17L92.5114 67.9048ZM91.8344 67.3076C91.6703 67.0539 91.557 66.7609 91.4962 66.4264L91.1998 66.4803C91.267 66.8498 91.3937 67.1808 91.5816 67.4712L91.8344 67.3076ZM91.4962 66.4264C91.4339 66.0838 91.4026 65.7288 91.4026 65.3614H91.1014C91.1014 65.746 91.1341 66.119 91.1998 66.4803L91.4962 66.4264ZM91.252 65.512H92.068V65.2108H91.252V65.512ZM91.9175 65.3679C91.9256 65.5532 91.9377 65.7742 91.9537 66.0308L92.2543 66.012C92.2383 65.7566 92.2264 65.5376 92.2185 65.3548L91.9175 65.3679ZM91.9537 66.0308C91.9707 66.303 92.0304 66.5633 92.1328 66.811L92.4112 66.6958C92.3216 66.4795 92.2693 66.2518 92.2543 66.012L91.9537 66.0308ZM92.1328 66.811C92.2397 67.0692 92.4128 67.2897 92.6475 67.4722L92.8325 67.2345C92.6352 67.0811 92.4963 66.9015 92.4112 66.6958L92.1328 66.811ZM92.6525 67.4759C92.9124 67.6616 93.2725 67.744 93.712 67.744V67.4428C93.3035 67.4428 93.0156 67.3651 92.8275 67.2308L92.6525 67.4759ZM93.712 67.744C94.0431 67.744 94.327 67.7028 94.5581 67.6139L94.4499 67.3328C94.265 67.404 94.0209 67.4428 93.712 67.4428V67.744ZM94.5627 67.6121C94.7956 67.5135 94.9831 67.3636 95.1204 67.1622L94.8716 66.9925C94.7689 67.1432 94.6284 67.2572 94.4453 67.3347L94.5627 67.6121ZM95.1221 67.1596C95.2561 66.9542 95.3459 66.7014 95.3964 66.4068L95.0996 66.3559C95.0541 66.6214 94.9759 66.8326 94.8699 66.9951L95.1221 67.1596ZM95.3964 66.4068C95.4463 66.1159 95.4706 65.7709 95.4706 65.3734H95.1694C95.1694 65.7598 95.1457 66.0868 95.0996 66.3559L95.3964 66.4068ZM95.4706 65.3734V59.5414H95.1694V65.3734H95.4706ZM100.276 64.7494L100.136 64.6946L100.055 64.9H100.276V64.7494ZM103.648 64.7494V64.9H103.866L103.789 64.6962L103.648 64.7494ZM101.992 60.3574L102.133 60.3042L101.995 59.9372L101.852 60.3026L101.992 60.3574ZM101.572 59.5414V59.3908H101.47L101.432 59.4852L101.572 59.5414ZM102.484 59.5414L102.624 59.4864L102.587 59.3908H102.484V59.5414ZM105.844 68.1094V68.26H106.065L105.984 68.0544L105.844 68.1094ZM104.968 68.1094L104.828 68.1643L104.865 68.26H104.968V68.1094ZM103.924 65.4454L104.064 65.3904L104.027 65.2948H103.924V65.4454ZM100.024 65.4454V65.2948H99.9208L99.8836 65.391L100.024 65.4454ZM98.992 68.1094V68.26H99.0952L99.1324 68.1638L98.992 68.1094ZM98.128 68.1094L97.9883 68.0532L97.9052 68.26H98.128V68.1094ZM100.276 64.9H103.648V64.5988H100.276V64.9ZM103.789 64.6962L102.133 60.3042L101.851 60.4105L103.507 64.8025L103.789 64.6962ZM101.852 60.3026L100.136 64.6946L100.416 64.8042L102.132 60.4122L101.852 60.3026ZM101.572 59.692H102.484V59.3908H101.572V59.692ZM102.344 59.5964L105.704 68.1644L105.984 68.0544L102.624 59.4864L102.344 59.5964ZM105.844 67.9588H104.968V68.26H105.844V67.9588ZM105.108 68.0544L104.064 65.3904L103.784 65.5003L104.828 68.1643L105.108 68.0544ZM103.924 65.2948H100.024V65.596H103.924V65.2948ZM99.8836 65.391L98.8516 68.055L99.1324 68.1638L100.164 65.4998L99.8836 65.391ZM98.992 67.9588H98.128V68.26H98.992V67.9588ZM98.2677 68.1655L101.712 59.5975L101.432 59.4852L97.9883 68.0532L98.2677 68.1655ZM107.811 59.5414V59.3908H107.66V59.5414H107.811ZM108.723 59.5414L108.847 59.456L108.802 59.3908H108.723V59.5414ZM113.715 66.7894L113.591 66.8748L113.635 66.94H113.715V66.7894ZM113.739 66.7894V66.94H113.889V66.7894H113.739ZM113.739 59.5414V59.3908H113.588V59.5414H113.739ZM114.555 59.5414H114.705V59.3908H114.555V59.5414ZM114.555 68.1094V68.26H114.705V68.1094H114.555ZM113.643 68.1094L113.519 68.1948L113.563 68.26H113.643V68.1094ZM108.651 60.8614L108.775 60.776L108.73 60.7108H108.651V60.8614ZM108.627 60.8614V60.7108H108.476V60.8614H108.627ZM108.627 68.1094V68.26H108.777V68.1094H108.627ZM107.811 68.1094H107.66V68.26H107.811V68.1094ZM107.811 59.692H108.723V59.3908H107.811V59.692ZM108.599 59.6268L113.591 66.8748L113.839 66.704L108.847 59.456L108.599 59.6268ZM113.715 66.94H113.739V66.6388H113.715V66.94ZM113.889 66.7894V59.5414H113.588V66.7894H113.889ZM113.739 59.692H114.555V59.3908H113.739V59.692ZM114.404 59.5414V68.1094H114.705V59.5414H114.404ZM114.555 67.9588H113.643V68.26H114.555V67.9588ZM113.767 68.024L108.775 60.776L108.527 60.9468L113.519 68.1948L113.767 68.024ZM108.651 60.7108H108.627V61.012H108.651V60.7108ZM108.476 60.8614V68.1094H108.777V60.8614H108.476ZM108.627 67.9588H107.811V68.26H108.627V67.9588ZM107.961 68.1094V59.5414H107.66V68.1094H107.961ZM117.388 59.5414V59.3908H117.237V59.5414H117.388ZM118.204 59.5414H118.354V59.3908H118.204V59.5414ZM118.372 66.1174L118.228 66.163L118.229 66.164L118.372 66.1174ZM118.864 66.9694L118.755 67.0739L118.757 67.0759L118.864 66.9694ZM119.656 67.4494L119.608 67.5923L119.612 67.5933L119.656 67.4494ZM121.78 67.4494L121.824 67.5933L121.827 67.5922L121.78 67.4494ZM122.572 66.9694L122.678 67.0759L122.68 67.0739L122.572 66.9694ZM123.064 66.1174L123.207 66.164L123.207 66.163L123.064 66.1174ZM123.232 59.5414V59.3908H123.081V59.5414H123.232ZM124.048 59.5414H124.198V59.3908H124.048V59.5414ZM123.856 66.2854L123.712 66.2395L123.712 66.2413L123.856 66.2854ZM123.268 67.3174L123.157 67.2155L123.155 67.2171L123.268 67.3174ZM122.236 68.0254L122.292 68.165L122.294 68.1645L122.236 68.0254ZM119.188 68.0254L119.129 68.1641L119.132 68.1654L119.188 68.0254ZM118.156 67.3174L118.043 67.4176L118.045 67.4193L118.156 67.3174ZM117.568 66.2854L117.424 66.3287L117.425 66.3321L117.568 66.2854ZM117.388 59.692H118.204V59.3908H117.388V59.692ZM118.053 59.5414V64.8454H118.354V59.5414H118.053ZM118.053 64.8454C118.053 65.3519 118.11 65.7922 118.228 66.163L118.515 66.0717C118.409 65.7386 118.354 65.3308 118.354 64.8454H118.053ZM118.229 66.164C118.347 66.5262 118.521 66.831 118.755 67.0739L118.972 66.8648C118.774 66.6597 118.621 66.3966 118.515 66.0708L118.229 66.164ZM118.757 67.0759C118.991 67.3096 119.276 67.4814 119.608 67.5922L119.703 67.3065C119.412 67.2093 119.169 67.0611 118.97 66.8629L118.757 67.0759ZM119.612 67.5933C119.94 67.6945 120.308 67.744 120.712 67.744V67.4428C120.332 67.4428 119.995 67.3962 119.7 67.3054L119.612 67.5933ZM120.712 67.744C121.124 67.744 121.495 67.6946 121.824 67.5933L121.736 67.3054C121.441 67.3962 121.1 67.4428 120.712 67.4428V67.744ZM121.827 67.5922C122.16 67.4814 122.445 67.3096 122.678 67.0759L122.465 66.8629C122.267 67.0611 122.024 67.2093 121.732 67.3065L121.827 67.5922ZM122.68 67.0739C122.914 66.831 123.089 66.5262 123.207 66.164L122.921 66.0708C122.815 66.3966 122.661 66.6597 122.463 66.8648L122.68 67.0739ZM123.207 66.163C123.325 65.7922 123.382 65.3519 123.382 64.8454H123.081C123.081 65.3308 123.026 65.7386 122.92 66.0717L123.207 66.163ZM123.382 64.8454V59.5414H123.081V64.8454H123.382ZM123.232 59.692H124.048V59.3908H123.232V59.692ZM123.897 59.5414V65.0254H124.198V59.5414H123.897ZM123.897 65.0254C123.897 65.4505 123.835 65.855 123.712 66.2395L123.999 66.3313C124.132 65.9157 124.198 65.4802 124.198 65.0254H123.897ZM123.712 66.2413C123.598 66.6122 123.413 66.9364 123.157 67.2155L123.379 67.4193C123.666 67.1064 123.873 66.7425 124 66.3295L123.712 66.2413ZM123.155 67.2171C122.909 67.4938 122.584 67.7176 122.178 67.8863L122.294 68.1645C122.735 67.9811 123.099 67.733 123.38 67.4176L123.155 67.2171ZM122.179 67.8857C121.786 68.0445 121.299 68.1268 120.712 68.1268V68.428C121.325 68.428 121.853 68.3422 122.292 68.165L122.179 67.8857ZM120.712 68.1268C120.133 68.1268 119.645 68.0446 119.243 67.8854L119.132 68.1654C119.578 68.3421 120.106 68.428 120.712 68.428V68.1268ZM119.246 67.8867C118.848 67.718 118.522 67.4938 118.267 67.2155L118.045 67.4193C118.333 67.733 118.696 67.9807 119.129 68.1641L119.246 67.8867ZM118.268 67.2171C118.019 66.9373 117.833 66.6117 117.711 66.2386L117.425 66.3321C117.559 66.7431 117.765 67.1055 118.043 67.4176L118.268 67.2171ZM117.712 66.2421C117.596 65.8569 117.538 65.4515 117.538 65.0254H117.237C117.237 65.4792 117.299 65.9139 117.424 66.3286L117.712 66.2421ZM117.538 65.0254V59.5414H117.237V65.0254H117.538ZM128.099 64.7494L127.958 64.6946L127.878 64.9H128.099V64.7494ZM131.471 64.7494V64.9H131.688L131.612 64.6962L131.471 64.7494ZM129.815 60.3574L129.956 60.3042L129.817 59.9372L129.674 60.3026L129.815 60.3574ZM129.395 59.5414V59.3908H129.293L129.255 59.4852L129.395 59.5414ZM130.307 59.5414L130.447 59.4864L130.409 59.3908H130.307V59.5414ZM133.667 68.1094V68.26H133.887L133.807 68.0544L133.667 68.1094ZM132.791 68.1094L132.65 68.1643L132.688 68.26H132.791V68.1094ZM131.747 65.4454L131.887 65.3904L131.849 65.2948H131.747V65.4454ZM127.847 65.4454V65.2948H127.743L127.706 65.391L127.847 65.4454ZM126.815 68.1094V68.26H126.918L126.955 68.1638L126.815 68.1094ZM125.951 68.1094L125.811 68.0532L125.728 68.26H125.951V68.1094ZM128.099 64.9H131.471V64.5988H128.099V64.9ZM131.612 64.6962L129.956 60.3042L129.674 60.4105L131.33 64.8025L131.612 64.6962ZM129.674 60.3026L127.958 64.6946L128.239 64.8042L129.955 60.4122L129.674 60.3026ZM129.395 59.692H130.307V59.3908H129.395V59.692ZM130.166 59.5964L133.526 68.1644L133.807 68.0544L130.447 59.4864L130.166 59.5964ZM133.667 67.9588H132.791V68.26H133.667V67.9588ZM132.931 68.0544L131.887 65.3904L131.606 65.5003L132.65 68.1643L132.931 68.0544ZM131.747 65.2948H127.847V65.596H131.747V65.2948ZM127.706 65.391L126.674 68.055L126.955 68.1638L127.987 65.4998L127.706 65.391ZM126.815 67.9588H125.951V68.26H126.815V67.9588ZM126.09 68.1655L129.534 59.5975L129.255 59.4852L125.811 68.0532L126.09 68.1655ZM136.461 63.6094H136.311V63.76H136.461V63.6094ZM140.217 63.5014L140.263 63.6448L140.268 63.6432L140.217 63.5014ZM140.805 63.1654L140.707 63.051L140.805 63.1654ZM141.201 62.6494L141.067 62.582L141.065 62.5842L141.201 62.6494ZM140.901 60.6934L141.008 60.5869L140.901 60.6934ZM136.461 60.2374V60.0868H136.311V60.2374H136.461ZM135.645 59.5414V59.3908H135.495V59.5414H135.645ZM140.565 59.6734L140.524 59.8183L140.525 59.8186L140.565 59.6734ZM141.393 60.0814L141.3 60.1994L141.304 60.2028L141.393 60.0814ZM141.957 60.7774L141.821 60.8417L141.823 60.8462L141.957 60.7774ZM141.753 63.1894L141.63 63.103L141.753 63.1894ZM140.505 63.9574L140.475 63.8098L140.355 63.8343V63.9574H140.505ZM140.505 63.9814H140.355V64.112L140.484 64.1305L140.505 63.9814ZM141.201 64.2094L141.123 64.3381L141.127 64.3405L141.201 64.2094ZM141.645 64.6174L141.52 64.701L141.523 64.7049L141.645 64.6174ZM141.897 65.2054L141.75 65.237L141.751 65.2432L141.897 65.2054ZM142.005 65.9134L142.156 65.905L142.156 65.904L142.005 65.9134ZM142.029 66.4414L142.18 66.4356L142.029 66.4414ZM142.077 67.0774L141.928 67.094L141.928 67.0946L142.077 67.0774ZM142.185 67.6774L142.039 67.7139L142.041 67.7212L142.185 67.6774ZM142.401 68.1094V68.26H142.726L142.516 68.0121L142.401 68.1094ZM141.501 68.1094L141.372 68.1869L141.416 68.26H141.501V68.1094ZM141.381 67.8214L141.233 67.851L141.236 67.8627L141.381 67.8214ZM141.321 67.4614L141.171 67.4708L141.172 67.4813L141.321 67.4614ZM141.273 66.7774L141.123 66.7853L141.123 66.791L141.273 66.7774ZM141.189 65.8774L141.039 65.8931L141.04 65.8975L141.189 65.8774ZM140.961 65.0734L140.825 65.1371L140.827 65.1426L140.961 65.0734ZM140.457 64.4974L140.374 64.6227L140.376 64.6241L140.457 64.4974ZM139.557 64.3054V64.4561L139.564 64.4558L139.557 64.3054ZM136.461 64.3054V64.1548H136.311V64.3054H136.461ZM136.461 68.1094V68.26H136.612V68.1094H136.461ZM135.645 68.1094H135.495V68.26H135.645V68.1094ZM136.461 63.76H139.509V63.4588H136.461V63.76ZM139.509 63.76C139.772 63.76 140.024 63.7218 140.263 63.6447L140.171 63.358C139.963 63.425 139.742 63.4588 139.509 63.4588V63.76ZM140.268 63.6432C140.508 63.5575 140.72 63.4366 140.903 63.2797L140.707 63.051C140.554 63.1822 140.375 63.2853 140.167 63.3596L140.268 63.6432ZM140.903 63.2797C141.087 63.1221 141.232 62.9333 141.337 62.7145L141.065 62.5842C140.979 62.7654 140.859 62.9207 140.707 63.051L140.903 63.2797ZM141.336 62.7167C141.452 62.4851 141.508 62.2256 141.508 61.9414H141.207C141.207 62.1852 141.159 62.3976 141.067 62.582L141.336 62.7167ZM141.508 61.9414C141.508 61.3831 141.346 60.9253 141.008 60.5869L140.795 60.7999C141.064 61.0694 141.207 61.4436 141.207 61.9414H141.508ZM141.008 60.5869C140.665 60.244 140.155 60.0868 139.509 60.0868V60.388C140.111 60.388 140.53 60.5347 140.795 60.7999L141.008 60.5869ZM139.509 60.0868H136.461V60.388H139.509V60.0868ZM136.311 60.2374V63.6094H136.612V60.2374H136.311ZM135.645 59.692H139.569V59.3908H135.645V59.692ZM139.569 59.692C139.909 59.692 140.227 59.7344 140.524 59.8183L140.606 59.5284C140.28 59.4364 139.934 59.3908 139.569 59.3908V59.692ZM140.525 59.8186C140.828 59.9019 141.085 60.0294 141.3 60.1994L141.487 59.9634C141.237 59.7654 140.942 59.6209 140.605 59.5282L140.525 59.8186ZM141.304 60.2028C141.523 60.363 141.695 60.5747 141.821 60.8417L142.093 60.7131C141.947 60.404 141.744 60.1518 141.482 59.9599L141.304 60.2028ZM141.823 60.8462C141.954 61.1008 142.023 61.4081 142.023 61.7734H142.324C142.324 61.3706 142.248 61.014 142.091 60.7085L141.823 60.8462ZM142.023 61.7734C142.023 62.2902 141.89 62.7312 141.63 63.103L141.877 63.2757C142.176 62.8476 142.324 62.3446 142.324 61.7734H142.023ZM141.63 63.103C141.375 63.4665 140.996 63.7042 140.475 63.8098L140.535 64.105C141.119 63.9866 141.571 63.7122 141.877 63.2757L141.63 63.103ZM140.355 63.9574V63.9814H140.656V63.9574H140.355ZM140.484 64.1305C140.75 64.1684 140.961 64.2394 141.123 64.338L141.28 64.0807C141.074 63.9554 140.821 63.8743 140.527 63.8323L140.484 64.1305ZM141.127 64.3405C141.292 64.4334 141.422 64.5535 141.52 64.7009L141.771 64.5338C141.645 64.3453 141.479 64.1933 141.275 64.0783L141.127 64.3405ZM141.523 64.7049C141.629 64.8544 141.706 65.0309 141.75 65.2369L142.045 65.1738C141.993 64.9319 141.901 64.7164 141.768 64.5298L141.523 64.7049ZM141.751 65.2432C141.805 65.4486 141.839 65.675 141.855 65.9228L142.156 65.904C142.139 65.6398 142.102 65.3941 142.043 65.1676L141.751 65.2432ZM141.855 65.9217C141.863 66.0646 141.871 66.2397 141.879 66.4472L142.18 66.4356C142.172 66.2271 142.164 66.0502 142.156 65.905L141.855 65.9217ZM141.879 66.4472C141.887 66.6589 141.903 66.8746 141.928 67.094L142.227 67.0607C142.203 66.8482 142.188 66.6398 142.18 66.4356L141.879 66.4472ZM141.928 67.0946C141.952 67.3088 141.989 67.5152 142.039 67.7139L142.331 67.6409C142.285 67.4555 142.25 67.262 142.227 67.0601L141.928 67.0946ZM142.041 67.7212C142.101 67.9173 142.181 68.082 142.286 68.2067L142.516 68.0121C142.446 67.9288 142.382 67.8054 142.329 67.6335L142.041 67.7212ZM142.401 67.9588H141.501V68.26H142.401V67.9588ZM141.63 68.0319C141.591 67.9656 141.555 67.8823 141.526 67.78L141.236 67.8627C141.271 67.9844 141.316 68.0932 141.372 68.1869L141.63 68.0319ZM141.529 67.7918C141.506 67.675 141.486 67.5582 141.471 67.4415L141.172 67.4813C141.188 67.6045 141.209 67.7278 141.234 67.8509L141.529 67.7918ZM141.472 67.452C141.464 67.3238 141.456 67.1996 141.448 67.0794L141.147 67.0994C141.155 67.2192 141.163 67.343 141.171 67.4708L141.472 67.452ZM141.448 67.0794C141.439 66.9585 141.431 66.8533 141.423 66.7637L141.123 66.791C141.131 66.8775 141.139 66.9802 141.147 67.0994L141.448 67.0794ZM141.424 66.7695C141.407 66.4614 141.379 66.1574 141.338 65.8572L141.04 65.8975C141.079 66.1894 141.107 66.4853 141.123 66.7853L141.424 66.7695ZM141.339 65.8616C141.305 65.5421 141.225 65.2554 141.095 65.0042L140.827 65.1426C140.938 65.3553 141.009 65.6047 141.039 65.8931L141.339 65.8616ZM141.098 65.0097C140.974 64.7438 140.786 64.53 140.539 64.3707L140.376 64.6241C140.576 64.7528 140.725 64.923 140.825 65.1371L141.098 65.0097ZM140.541 64.3721C140.288 64.2037 139.952 64.1382 139.551 64.1549L139.564 64.4558C139.93 64.4406 140.194 64.503 140.374 64.6227L140.541 64.3721ZM139.557 64.1548H136.461V64.456H139.557V64.1548ZM136.311 64.3054V68.1094H136.612V64.3054H136.311ZM136.461 67.9588H135.645V68.26H136.461V67.9588ZM135.796 68.1094V59.5414H135.495V68.1094H135.796ZM147.085 64.5814H147.235V64.5358L147.21 64.4978L147.085 64.5814ZM143.725 59.5414V59.3908H143.443L143.6 59.6249L143.725 59.5414ZM144.685 59.5414L144.811 59.4594L144.767 59.3908H144.685V59.5414ZM147.505 63.8854L147.379 63.9674L147.505 64.1624L147.631 63.9671L147.505 63.8854ZM150.313 59.5414V59.3908H150.231L150.186 59.4596L150.313 59.5414ZM151.285 59.5414L151.41 59.6253L151.567 59.3908H151.285V59.5414ZM147.901 64.5814L147.776 64.4974L147.75 64.5355V64.5814H147.901ZM147.901 68.1094V68.26H148.051V68.1094H147.901ZM147.085 68.1094H146.934V68.26H147.085V68.1094ZM147.21 64.4978L143.85 59.4578L143.6 59.6249L146.96 64.6649L147.21 64.4978ZM143.725 59.692H144.685V59.3908H143.725V59.692ZM144.558 59.6234L147.379 63.9674L147.631 63.8034L144.811 59.4594L144.558 59.6234ZM147.631 63.9671L150.439 59.6231L150.186 59.4596L147.378 63.8036L147.631 63.9671ZM150.313 59.692H151.285V59.3908H150.313V59.692ZM151.16 59.4574L147.776 64.4974L148.026 64.6653L151.41 59.6253L151.16 59.4574ZM147.75 64.5814V68.1094H148.051V64.5814H147.75ZM147.901 67.9588H147.085V68.26H147.901V67.9588ZM147.235 68.1094V64.5814H146.934V68.1094H147.235Z" fill="#B4B4B4"/>
<rect width="84" height="84" rx="4" fill="#242424"/>
<path d="M71.6922 48.457H68.01V36.1607C68.01 36.1607 68.01 36.1089 68.01 36.0917L69.7428 34.1502C69.8084 34.0757 69.8506 33.9837 69.8645 33.8856C69.8783 33.7875 69.8632 33.6875 69.8208 33.5979C69.7788 33.5091 69.7128 33.4338 69.6301 33.3805C69.5474 33.3271 69.4514 33.2978 69.3529 33.2959H68.0187V30.9229H68.5819C68.7197 30.9229 68.8519 30.8684 68.9494 30.7713C69.0469 30.6742 69.1017 30.5425 69.1017 30.4052C69.1017 30.2679 69.0469 30.1362 68.9494 30.0391C68.8519 29.942 68.7197 29.8874 68.5819 29.8874H68.0187V27.92C68.0187 27.7827 67.9639 27.651 67.8664 27.5539C67.7689 27.4569 67.6367 27.4023 67.4988 27.4023H55.3259V20.4991C55.3259 19.0322 53.9137 17.3409 53.4631 16.8404V15.4943C53.4631 15.357 53.4084 15.2253 53.3109 15.1282C53.2134 15.0311 53.0812 14.9766 52.9433 14.9766C52.8054 14.9766 52.6732 15.0311 52.5757 15.1282C52.4782 15.2253 52.4235 15.357 52.4235 15.4943V16.8145C51.9383 17.3754 50.5694 19.0753 50.5694 20.4301V22.8203C50.3395 22.7088 50.0885 22.647 49.8329 22.6391C49.6036 22.6439 49.3777 22.6953 49.1691 22.7903C48.9605 22.8853 48.7736 23.0217 48.62 23.1914C48.4654 23.0184 48.2759 22.8798 48.0639 22.7847C47.8519 22.6895 47.6222 22.6399 47.3897 22.6391C47.1602 22.6428 46.9339 22.6938 46.7252 22.7889C46.5164 22.8839 46.3297 23.0209 46.1767 23.1914C46.0106 23.034 45.8148 22.911 45.6007 22.8295C45.3865 22.7481 45.1582 22.7097 44.9291 22.7168C44.6998 22.7215 44.4739 22.773 44.2653 22.8679C44.0567 22.9629 43.8698 23.0994 43.7161 23.269C43.5615 23.096 43.3721 22.9575 43.1601 22.8623C42.9481 22.7672 42.7184 22.7176 42.4858 22.7168C42.2565 22.7215 42.0306 22.773 41.822 22.8679C41.6134 22.9629 41.4265 23.0994 41.2729 23.269C41.1133 23.0976 40.9204 22.9603 40.706 22.8654C40.4915 22.7704 40.2599 22.7199 40.0253 22.7168C39.7959 22.7215 39.57 22.773 39.3614 22.8679C39.1528 22.9629 38.9659 23.0994 38.8123 23.269C38.6577 23.096 38.4682 22.9575 38.2562 22.8623C38.0443 22.7672 37.8145 22.7176 37.582 22.7168C37.3525 22.7205 37.1263 22.7715 36.9175 22.8665C36.7088 22.9616 36.522 23.0986 36.369 23.269C36.2115 23.0952 36.019 22.9562 35.8041 22.861C35.5892 22.7659 35.3566 22.7168 35.1214 22.7168C34.8835 22.7248 34.6501 22.7837 34.437 22.8893V20.5077C34.437 19.0408 33.0247 17.3495 32.5742 16.8491V15.4943C32.5742 15.357 32.5194 15.2253 32.4219 15.1282C32.3245 15.0311 32.1922 14.9766 32.0544 14.9766C31.9165 14.9766 31.7843 15.0311 31.6868 15.1282C31.5893 15.2253 31.5345 15.357 31.5345 15.4943V16.8145C31.0407 17.3754 29.6718 19.0753 29.6718 20.4301V27.3333H17.2042C17.0664 27.3333 16.9342 27.3878 16.8367 27.4849C16.7392 27.582 16.6844 27.7137 16.6844 27.851V29.7666H16.2425C16.1047 29.7666 15.9724 29.8212 15.875 29.9183C15.7775 30.0154 15.7227 30.1471 15.7227 30.2844C15.7227 30.4217 15.7775 30.5534 15.875 30.6505C15.9724 30.7476 16.1047 30.8021 16.2425 30.8021H16.6844V33.1578H15.4714C15.3687 33.1521 15.2665 33.1769 15.1779 33.229C15.0893 33.2811 15.0182 33.3583 14.9737 33.4507C14.9291 33.5431 14.9131 33.6466 14.9277 33.7481C14.9423 33.8496 14.9868 33.9445 15.0556 34.0207L16.6411 36.1607V48.457H12.9589C12.8856 48.4475 12.8111 48.4537 12.7404 48.4752C12.6697 48.4967 12.6044 48.5329 12.5488 48.5815C12.4933 48.6301 12.4488 48.6899 12.4183 48.757C12.3878 48.8241 12.3721 48.8968 12.3721 48.9705C12.3721 49.0441 12.3878 49.1169 12.4183 49.1839C12.4488 49.251 12.4933 49.3108 12.5488 49.3594C12.6044 49.408 12.6697 49.4442 12.7404 49.4657C12.8111 49.4872 12.8856 49.4934 12.9589 49.4839H71.6922C71.7655 49.4934 71.84 49.4872 71.9107 49.4657C71.9815 49.4442 72.0468 49.408 72.1023 49.3594C72.1578 49.3108 72.2023 49.251 72.2328 49.1839C72.2633 49.1169 72.279 49.0441 72.279 48.9705C72.279 48.8968 72.2633 48.8241 72.2328 48.757C72.2023 48.6899 72.1578 48.6301 72.1023 48.5815C72.0468 48.5329 71.9815 48.4967 71.9107 48.4752C71.84 48.4537 71.7655 48.4475 71.6922 48.457ZM25.9376 48.2413H21.1724V43.9268H25.9376V48.2413ZM21.233 42.8827C21.375 42.2489 21.6529 41.6532 22.0477 41.1363C22.4425 40.6195 22.9449 40.1938 23.5203 39.8884C24.1033 40.2008 24.6137 40.6319 25.0182 41.1537C25.4228 41.6756 25.7124 42.2765 25.8683 42.9172H21.233V42.8827ZM29.6544 48.4225H26.9773V43.435C26.9813 43.4034 26.9813 43.3715 26.9773 43.34C26.856 40.3372 23.8842 38.922 23.7542 38.8616C23.686 38.8316 23.6122 38.8162 23.5376 38.8162C23.4631 38.8162 23.3893 38.8316 23.321 38.8616C23.1911 38.922 20.28 40.3113 20.1587 43.3487C20.1538 43.3772 20.1538 43.4064 20.1587 43.435V48.457H17.6808V36.782H29.6544V48.4225ZM29.6544 35.712H17.5941L16.5285 34.2796H29.6544V35.712ZM29.6544 33.2441H17.6808V30.9229H29.6544V33.2441ZM29.6544 29.8529H17.6808V28.4896H29.6544V29.8529ZM32.0544 17.7724C32.6114 18.4217 33.0379 19.1716 33.3106 19.9814H30.7721C31.0644 19.1777 31.4987 18.4325 32.0544 17.781V17.7724ZM33.38 48.4484H30.6941V45.2039H33.38V48.4484ZM33.38 44.1339H30.6941V36.782H33.38V44.1339ZM33.38 35.712H30.6941V34.3141H33.38V35.712ZM33.38 33.2441H30.6941V28.4378H33.38V33.2441ZM33.38 24.4857V27.3678H30.6941V24.3994H33.38V24.4857ZM33.38 23.3294H32.5136V22.6909C32.5136 22.5536 32.4588 22.4219 32.3613 22.3248C32.2638 22.2277 32.1316 22.1731 31.9937 22.1731C31.8558 22.1731 31.7236 22.2277 31.6261 22.3248C31.5286 22.4219 31.4739 22.5536 31.4739 22.6909V23.3294H30.6075V21.0255H33.2933L33.38 23.3294ZM46.7225 24.4857C46.7333 24.3223 46.7871 24.1645 46.8785 24.0284C46.9334 23.9354 47.012 23.8585 47.1063 23.8055C47.2006 23.7524 47.3074 23.7251 47.4157 23.7264C47.5247 23.7283 47.6318 23.7559 47.7282 23.8069C47.8245 23.8579 47.9074 23.9308 47.9702 24.0197C48.0674 24.1576 48.1271 24.3181 48.1434 24.4857V24.9689H46.7225V24.4857ZM44.262 24.4857C44.2727 24.3223 44.3265 24.1645 44.4179 24.0284C44.4728 23.9354 44.5514 23.8585 44.6457 23.8055C44.7401 23.7524 44.8468 23.7251 44.9551 23.7264C45.0663 23.7149 45.1784 23.7367 45.2772 23.7889C45.3759 23.8412 45.4568 23.9215 45.5096 24.0197C45.6068 24.1576 45.6665 24.3181 45.6829 24.4857V24.9689H44.262V24.4857ZM41.8014 24.4857C41.8121 24.3223 41.8659 24.1645 41.9573 24.0284C42.0122 23.9354 42.0908 23.8585 42.1852 23.8055C42.2795 23.7524 42.3862 23.7251 42.4945 23.7264C42.6043 23.7246 42.7127 23.7506 42.8097 23.8019C42.9067 23.8532 42.989 23.9282 43.049 24.0197C43.1462 24.1576 43.2059 24.3181 43.2223 24.4857V24.9689H41.8014V24.4857ZM39.3408 24.4857C39.3515 24.3223 39.4053 24.1645 39.4968 24.0284C39.5537 23.9353 39.634 23.8585 39.7296 23.8056C39.8253 23.7527 39.9331 23.7254 40.0426 23.7264C40.1585 23.7299 40.2713 23.7646 40.3689 23.8269C40.4666 23.8892 40.5454 23.9767 40.5971 24.0801C40.6943 24.218 40.754 24.3785 40.7704 24.5461V25.0293H39.3408V24.4857ZM36.8802 24.4857C36.8909 24.3223 36.9447 24.1645 37.0362 24.0284C37.0911 23.9354 37.1697 23.8585 37.264 23.8055C37.3583 23.7524 37.465 23.7251 37.5733 23.7264C37.6828 23.7262 37.7907 23.7528 37.8874 23.804C37.9841 23.8552 38.0667 23.9293 38.1278 24.0197C38.225 24.1576 38.2847 24.3181 38.3011 24.4857V24.9689H36.8802V24.4857ZM34.4196 24.4857C34.4304 24.3223 34.4842 24.1645 34.5756 24.0284C34.6345 23.9375 34.7153 23.8629 34.8107 23.8111C34.906 23.7594 35.0129 23.7323 35.1214 23.7323C35.23 23.7323 35.3368 23.7594 35.4322 23.8111C35.5275 23.8629 35.6084 23.9375 35.6673 24.0284C35.7645 24.1662 35.8242 24.3267 35.8405 24.4943V24.9776H34.4196V24.4857ZM37.3134 48.4225H34.4196V47.2058H37.3134V48.4225ZM46.8438 48.4225H38.3531V41.5193C38.3531 38.8357 41.8187 37.5327 42.5898 37.2739C43.3609 37.5414 46.8352 38.9047 46.8352 41.5193L46.8438 48.4225ZM50.6127 48.4225H47.8749V47.2058H50.604L50.6127 48.4225ZM50.6127 46.1358H47.8749V41.5193C47.8749 37.8347 42.9537 36.2988 42.7458 36.2384C42.6499 36.208 42.547 36.208 42.4512 36.2384C42.2432 36.2902 37.3134 37.7398 37.3134 41.5193V46.179H34.4196V34.3141H50.604L50.6127 46.1358ZM50.6127 33.2441H34.4196V30.9229H35.3987V32.062C35.3987 32.1993 35.4534 32.331 35.5509 32.428C35.6484 32.5251 35.7806 32.5797 35.9185 32.5797C36.0564 32.5797 36.1886 32.5251 36.2861 32.428C36.3836 32.331 36.4384 32.1993 36.4384 32.062V30.9229H38.4917V32.062C38.4906 32.1303 38.5032 32.1981 38.5289 32.2615C38.5546 32.3248 38.5929 32.3823 38.6414 32.4307C38.6899 32.479 38.7477 32.5171 38.8113 32.5427C38.8749 32.5683 38.943 32.5809 39.0116 32.5797C39.1494 32.5797 39.2817 32.5251 39.3792 32.428C39.4766 32.331 39.5314 32.1993 39.5314 32.062V30.9229H41.5761V32.062C41.5761 32.1993 41.6309 32.331 41.7284 32.428C41.8259 32.5251 41.9581 32.5797 42.096 32.5797C42.2338 32.5797 42.3661 32.5251 42.4635 32.428C42.561 32.331 42.6158 32.1993 42.6158 32.062V30.9229H44.6605V32.062C44.6605 32.1993 44.7153 32.331 44.8128 32.428C44.9103 32.5251 45.0425 32.5797 45.1803 32.5797C45.3182 32.5797 45.4504 32.5251 45.5479 32.428C45.6454 32.331 45.7002 32.1993 45.7002 32.062V30.9229H47.7449V32.062C47.7449 32.1993 47.7997 32.331 47.8972 32.428C47.9946 32.5251 48.1269 32.5797 48.2647 32.5797C48.3333 32.5809 48.4015 32.5683 48.4651 32.5427C48.5286 32.5171 48.5864 32.479 48.6349 32.4307C48.6834 32.3823 48.7217 32.3248 48.7474 32.2615C48.7731 32.1981 48.7857 32.1303 48.7846 32.062V30.9229H50.5694L50.6127 33.2441ZM50.6127 29.8529H34.4196V28.4378H50.604L50.6127 29.8529ZM50.6127 27.3678H34.4196V26.0389H50.604L50.6127 27.3678ZM50.6127 24.9689H49.1831V24.4857C49.1938 24.3223 49.2476 24.1645 49.3391 24.0284C49.394 23.9354 49.4726 23.8585 49.5669 23.8055C49.6612 23.7524 49.7679 23.7251 49.8762 23.7264C49.9872 23.7172 50.0984 23.7399 50.1968 23.7919C50.2951 23.844 50.3763 23.923 50.4307 24.0197C50.5279 24.1576 50.5876 24.3181 50.604 24.4857L50.6127 24.9689ZM53.004 17.7465C53.561 18.3958 53.9875 19.1457 54.2602 19.9555H51.713C52.0081 19.1609 52.4422 18.4247 52.9953 17.781L53.004 17.7465ZM54.3295 48.4225H51.6437V45.2039H54.3209L54.3295 48.4225ZM54.3295 44.108H51.6437V36.782H54.3209L54.3295 44.108ZM54.3295 35.6861H51.6437V34.3141H54.3209L54.3295 35.6861ZM54.3295 33.2182H51.6437V28.4378H54.3209L54.3295 33.2182ZM54.3295 27.3419H51.6437V24.3994H54.3209L54.3295 27.3419ZM54.3295 23.3035H53.4631V22.665C53.4631 22.5277 53.4084 22.396 53.3109 22.2989C53.2134 22.2018 53.0812 22.1472 52.9433 22.1472C52.8054 22.1472 52.6732 22.2018 52.5757 22.2989C52.4782 22.396 52.4235 22.5277 52.4235 22.665V23.3035H51.609V21.0255H54.2862L54.3295 23.3035ZM55.3259 28.4378H66.979V29.8874H55.3259V28.4378ZM55.3259 30.9229H66.979V33.2786H55.3259V30.9229ZM63.4354 48.2413H58.6702V43.9268H63.4354V48.2413ZM58.7309 42.8827C58.8729 42.2489 59.1508 41.6532 59.5456 41.1363C59.9404 40.6195 60.4427 40.1938 61.0182 39.8884C61.5974 40.197 62.1055 40.6228 62.5099 41.1384C62.9142 41.6541 63.2059 42.2482 63.3661 42.8827H58.7309ZM66.9703 48.4225H64.4838V43.435C64.4887 43.392 64.4887 43.3485 64.4838 43.3055C64.3365 40.3285 61.3907 38.922 61.2694 38.8616C61.1996 38.8319 61.1244 38.8166 61.0485 38.8166C60.9726 38.8166 60.8974 38.8319 60.8276 38.8616C60.6976 38.922 57.7605 40.3199 57.6652 43.3918C57.6643 43.4062 57.6643 43.4206 57.6652 43.435V48.457H55.3259V36.782H66.9357L66.9703 48.4225ZM66.9097 35.712H55.3259V34.3141H68.1573L66.9097 35.712Z" fill="white"/>
<path d="M22.2818 67.1172H20.4458L22.7018 58.7172H25.3778L24.9578 63.9132L24.8498 64.4772H24.8978L25.1018 63.9132L27.4778 58.7172H30.2498L28.0058 67.1172H26.1818L27.5018 62.2692L27.6578 61.7532H27.6218L27.4178 62.1852L25.1258 67.1172H23.3618L23.6858 62.1852L23.7218 61.7532H23.6858L23.5418 62.2692L22.2818 67.1172ZM32.0667 67.2012C30.4467 67.2012 29.4867 66.3252 29.9547 64.5492L31.5267 58.7172H33.4707L31.8507 64.8132C31.6947 65.3772 31.8387 65.6412 32.2227 65.6412C32.6067 65.6412 32.8947 65.3772 33.0507 64.8132L34.6827 58.7172H36.6267L35.0667 64.5492C34.5987 66.3252 33.6867 67.2012 32.0667 67.2012ZM37.4388 67.1172H35.6028L37.8588 58.7172H40.5348L40.1148 63.9132L40.0068 64.4772H40.0548L40.2588 63.9132L42.6348 58.7172H45.4068L43.1628 67.1172H41.3388L42.6588 62.2692L42.8148 61.7532H42.7788L42.5748 62.1852L40.2828 67.1172H38.5188L38.8428 62.1852L38.8788 61.7532H38.8428L38.6988 62.2692L37.4388 67.1172ZM47.6797 67.1172H44.4997L46.7557 58.7172H49.4677C50.6677 58.7172 51.6037 59.2092 51.2077 60.6972L51.1117 61.0332C50.8477 61.9212 50.3797 62.4492 49.6357 62.6772L49.6237 62.7012C50.3317 62.9412 50.5717 63.5172 50.3437 64.3812L50.1997 64.9332C49.7917 66.4452 49.0237 67.1172 47.6797 67.1172ZM48.3037 60.2172L47.7997 62.1252H48.4357C48.7477 62.1252 48.9997 61.9212 49.1317 61.4292L49.2877 60.8772C49.4197 60.4092 49.2637 60.2172 48.9397 60.2172H48.3037ZM47.4277 63.4812L46.8637 65.6172H47.5237C47.8837 65.6172 48.1237 65.4132 48.2677 64.9092L48.4597 64.1892C48.6157 63.6732 48.4357 63.4692 48.0997 63.4812H47.4277ZM50.413 67.1172L54.193 58.7172H56.905L56.233 67.1172H54.325L54.481 65.8092H52.957L52.417 67.1172H50.413ZM55.021 60.8172L53.593 64.2732H54.661L55.081 60.8172H55.021ZM59.2104 67.1172H57.2544L59.5104 58.7172H61.4664L59.2104 67.1172Z" fill="#EA337D"/>
</svg>
