<?xml version="1.0" encoding="UTF-8"?>
<svg id="Layer_2" xmlns="http://www.w3.org/2000/svg" viewBox="0 0 985.84 422.65">
  <defs>
    <style>
      .cls-1 {
        fill: none;
        stroke: #fff;
        stroke-width: 12.72px;
      }

      .cls-2 {
        fill: #fff;
      }

      .cls-3 {
        fill: #ed3024;
      }
    </style>
  </defs>
  <g id="Layer_1-2" data-name="Layer_1">
    <g>
      <path class="cls-1" d="M6.36,6.36c0,74.44,58.68,134.34,130.51,134.34S266.73,80.8,266.73,6.36H6.36Z"/>
      <g>
        <path class="cls-2" d="M985.84,215.58c.01,6.9-2.41,12.8-7.29,17.7-4.88,4.89-10.77,7.34-17.68,7.36-6.92.01-12.81-2.41-17.7-7.29-4.89-4.88-7.34-10.77-7.36-17.68-.01-6.92,2.41-12.81,7.29-17.71,4.87-4.89,10.76-7.34,17.67-7.36s12.8,2.41,17.7,7.28c4.89,4.87,7.34,10.76,7.36,17.68ZM979.9,215.59c-.01-5.53-1.85-10.14-5.53-13.84-3.67-3.7-8.2-5.55-13.59-5.54s-9.91,1.87-13.57,5.59c-3.65,3.72-5.47,8.33-5.46,13.87.01,5.52,1.85,10.14,5.52,13.84,3.67,3.69,8.21,5.54,13.6,5.53s9.9-1.88,13.56-5.58c3.66-3.72,5.48-8.35,5.47-13.87ZM972.11,228.86h-6.77s-4.86-10.27-4.86-10.27h-2.83s.02,10.29.02,10.29h-5.94s-.05-26.58-.05-26.58l10.84-.02c2.63,0,4.76.81,6.4,2.44,1.63,1.63,2.46,3.61,2.46,5.9,0,3.36-1.63,5.72-4.89,7.06l5.61,11.18ZM965.44,210.64c0-.97-.34-1.78-1.04-2.45-.69-.66-1.57-1-2.62-1h-4.15s.01,6.92.01,6.92h4.15c1.06-.01,1.93-.35,2.62-1.03.7-.66,1.03-1.49,1.03-2.45Z"/>
        <g>
          <path class="cls-1" d="M917.44,285.59c2.65-1.87,5.07-3.98,7.03-6.52,3.41-4.82,5.24-10.35,5.23-16.2,0-2.32-.27-4.6-.82-6.92l-.16-.51-.09-.64c-.17-.23-.37-.84-.37-.84l-.09-.53-4.95-13.57c-3.63-7.59-9.42-19.7-9.8-20.67-8.6-22.09-25.18-23.26-36.2-24.01l-2.53-.18-.84-.12-6.09-.55c-19.51-2.3-31.85.97-40.12,3.14l-2.93.81-.82.4c-5.25,1.7-10.57,4.53-15.67,8.08-7.38-8.12-17.47-11.84-28.72-10.1l-2.37.38c-4.67.79-15.51,2.68-31.21,2.71l-52.23.11c.27-.91.61-2.54.69-5.27.2-3.99-1.26-6.3-1.76-7.14-.97-1.65-2.78-2.96-4.5-3.5-5.37-.85-7.53-3.14-8.24-6.11l.18-3.69v-.56s-.01-5.08-.01-5.08v-.18c18.49,2.54,38.93.3,58.65-14.39,19.92-14.89,33.97-36.16,33.21-62.92.04-18.25-8.15-36.12-22.56-49.1-20.61-18.59-47.21-17.98-57.21-17.74v-.35s-236.25.33-236.25.33c-8.4.02-15.7,3.38-20.75,8.83-2.52-1.68-4.99-3.09-7.43-4.22-11.55-5.41-23.52-10.92-48.78-10.87-57.2.12-101.85,46.63-101.73,105.94.06,27.88,12.44,55.88,33.46,76.48-16.18,1.68-31.72,7.02-45.54,15.6-1.31-2.41-2.85-4.69-4.91-6.67-5.33-5.26-12.67-8.3-20.2-8.28l-46.17.09c-8.66.02-16.64,4.01-21.95,10.52-8.18-6.78-19.64-10.36-34.48-10.41l-23.43.05c-16.12.03-21.87,7.46-26.63,21.18-.03.23-2.71,11.61-2.71,11.61-.24,1.27-.37,2.59-.37,3.85.02,8.82,5.73,16.65,15.97,22-.07-.02-.31-.2-.31-.2,0,0,.24.18.33.22.11.21.36,1.07.37,4.16,0,.31,0,.62-.03,1.01q0-.15-2.26,76.14c.02,12.11-2.02,12.86-2.74,13.16v.02c-12,3.87-13.84,8.74-17.96,20.11l-.47,1.32c-.09.36-1.71,9.46-1.71,9.46v.13c.01,7.28,2.28,12.5,7.57,17.68,4.82,4.69,13.24,7.82,21.32,7.8l47.71-.1c8.03-.02,15.38-2.91,20.69-8.17,4.49-4.44,7.06-10.33,7.74-16.76,12.86,20.58,25.3,24.6,43.19,24.17l4.72-.05c10.66.13,21.77-.96,30.1-9.46,0,0,1.4-1.69,2.54-3.08,17.87,12.33,38.75,18.93,60.59,18.89,19.47-.04,37.71-5.8,52.93-16.51,16.28,9.35,34.78,14.34,53.59,14.3,14.29-.03,28.12-2.89,41.24-8.42,4.22,2.4,8.96,3.81,14.01,3.8l60.31-.12c18.66-.04,35.65-4.52,50.66-13.23.97,1.56,2.01,3.1,3.3,4.43,5.43,5.35,12.58,8.23,20.2,8.22l168.36-.34c9.97.05,22.03-.21,29.07-6.27,13.42,6.47,29.62,9.52,48.61,8.94,44.75-.65,75.9-30.99,75.82-73.83-.04-18.65-8.07-36.81-22.27-51.68Z"/>
          <path class="cls-3" d="M917.44,285.59c2.65-1.87,5.07-3.98,7.03-6.52,3.41-4.82,5.24-10.35,5.23-16.2,0-2.32-.27-4.6-.82-6.92l-.16-.51-.09-.64c-.17-.23-.37-.84-.37-.84l-.09-.53-4.95-13.57c-3.63-7.59-9.42-19.7-9.8-20.67-8.6-22.09-25.18-23.26-36.2-24.01l-2.53-.18-.84-.12-6.09-.55c-19.51-2.3-31.85.97-40.12,3.14l-2.93.81-.82.4c-5.25,1.7-10.57,4.53-15.67,8.08-7.38-8.12-17.47-11.84-28.72-10.1l-2.37.38c-4.67.79-15.51,2.68-31.21,2.71l-52.23.11c.27-.91.61-2.54.69-5.27.2-3.99-1.26-6.3-1.76-7.14-.97-1.65-2.78-2.96-4.5-3.5-5.37-.85-7.53-3.14-8.24-6.11l.18-3.69v-.56s-.01-5.08-.01-5.08v-.18c18.49,2.54,38.93.3,58.65-14.39,19.92-14.89,33.97-36.16,33.21-62.92.04-18.25-8.15-36.12-22.56-49.1-20.61-18.59-47.21-17.98-57.21-17.74v-.35s-236.25.33-236.25.33c-8.4.02-15.7,3.38-20.75,8.83-2.52-1.68-4.99-3.09-7.43-4.22-11.55-5.41-23.52-10.92-48.78-10.87-57.2.12-101.85,46.63-101.73,105.94.06,27.88,12.44,55.88,33.46,76.48-16.18,1.68-31.72,7.02-45.54,15.6-1.31-2.41-2.85-4.69-4.91-6.67-5.33-5.26-12.67-8.3-20.2-8.28l-46.17.09c-8.66.02-16.64,4.01-21.95,10.52-8.18-6.78-19.64-10.36-34.48-10.41l-23.43.05c-16.12.03-21.87,7.46-26.63,21.18-.03.23-2.71,11.61-2.71,11.61-.24,1.27-.37,2.59-.37,3.85.02,8.82,5.73,16.65,15.97,22-.07-.02-.31-.2-.31-.2,0,0,.24.18.33.22.11.21.36,1.07.37,4.16,0,.31,0,.62-.03,1.01q0-.15-2.26,76.14c.02,12.11-2.02,12.86-2.74,13.16v.02c-12,3.87-13.84,8.74-17.96,20.11l-.47,1.32c-.09.36-1.71,9.46-1.71,9.46v.13c.01,7.28,2.28,12.5,7.57,17.68,4.82,4.69,13.24,7.82,21.32,7.8l47.71-.1c8.03-.02,15.38-2.91,20.69-8.17,4.49-4.44,7.06-10.33,7.74-16.76,12.86,20.58,25.3,24.6,43.19,24.17l4.72-.05c10.66.13,21.77-.96,30.1-9.46,0,0,1.4-1.69,2.54-3.08,17.87,12.33,38.75,18.93,60.59,18.89,19.47-.04,37.71-5.8,52.93-16.51,16.28,9.35,34.78,14.34,53.59,14.3,14.29-.03,28.12-2.89,41.24-8.42,4.22,2.4,8.96,3.81,14.01,3.8l60.31-.12c18.66-.04,35.65-4.52,50.66-13.23.97,1.56,2.01,3.1,3.3,4.43,5.43,5.35,12.58,8.23,20.2,8.22l168.36-.34c9.97.05,22.03-.21,29.07-6.27,13.42,6.47,29.62,9.52,48.61,8.94,44.75-.65,75.9-30.99,75.82-73.83-.04-18.65-8.07-36.81-22.27-51.68"/>
          <path class="cls-2" d="M243.63,377.28c0-4.34-3.5-6.18-6.54-7.81-1.76-.98-3.55-1.89-4.99-3.31-3.3-3.24-5.11-10.2-5-18.64.05-2.98.13-69.8.12-72.65-.05-26.76,7.29-33.9,14.45-37.33,2.17-1,3.71-3.39,3.7-5.66v-3.22c0-1.12-.5-2.12-1.34-3.01-1.09-1.05-2.58-1.7-3.98-1.69l-46.17.09c-2.4,0-5.27,2.11-5.26,4.72v3.71c.01,1.51.9,3.74,5.07,5.58,11.35,4.82,17.51,19.25,17.44,40.75l.09,47c0,.14-.15.27-.27.27-.15,0-.17-.07-.23-.13l-51.17-94.07c-.82-1.75-5.05-7.66-22.2-7.74l-24.06.05c-2.65,0-4.8,2.04-5.77,4.89l-.83,3.54c-1.21,4.52.71,5.92,2.88,7.01.18.09.4.22.68.32,12.62,7.08,13.48,19.11,13.38,25.54v1.3s-2.14,74.62-2.14,74.62c.03,13.27-1.71,27.67-17.18,33.37-.22.04-.44.13-.77.2-1.58.54-3.72.91-4.93,4.74l-.96,4.03c0,1.12.44,2.13,1.32,2.96.89.98,2.29,1.58,3.67,1.58l47.01-.09c1.94,0,3.3-.47,4.28-1.45.87-.84,1.35-2.12,1.34-3.6v-2.88c0-1.45-.71-3.48-3.9-4.68-11.39-3.99-12.65-25.49-12.67-34.51l2.23-71.17c0-.12.05-.13.05-.13.06-.06.22-.06.22-.06,0,0,.19.06.25.14.38.77,50.41,90.07,56.68,101.15,9.1,15.97,13.47,16.75,24.95,16.43,1.59-.02,3.48-.06,5.5-.07,7.7.04,11.55-.73,13.5-2.64,1.69-1.71,1.63-3.88,1.55-6.1,0-.43-.02-.86-.02-1.38"/>
          <path class="cls-2" d="M354.77,361.72l-1.37-1.86-1.35,1.87c-4.66,6.23-10.65,10.25-17.17,11.53-20.22,3.89-46.2-11.29-55.18-53.78-1.19-5.32-1.62-11.48-1.32-17.81v-.73s-.44-.51-.44-.51c-3.16-3.13-5.53-7-6.55-10.61-1.62-6.13-1.11-12.89,1.33-18.91.3,5.62,1.92,11.64,4.65,16.34l2.09,3.46.2-.65c7.31,8.48,20.15,10.7,29.45,8.25,6.6-1.74,13.83-9.39,15.29-16.09.72-3.45-.19-6.53-2.69-8.5-1.53-1.2-6.2-4.89-10.8-1.25-1.09.83-2.88,1.16-4.87.84-3.38-.51-6.53-2.58-8.57-5.71-2.19-3.15-2.81-7.62-1.63-11.71,1.18-4.34,4.24-7.82,8.52-9.85.59-.25,2.27-1.1,3.37-1.32,12.03-2.32,25.18,4.53,36.05,18.73l1.66,2.13,1.26-2.39c4.82-9.4,11.29-17.83,19.14-25.16l1.64-1.52-1.92-1.16c-13.33-8.32-28.61-12.68-44.35-12.65-46.56.09-84.38,38.54-84.29,85.68.05,23.27,9.18,44.99,25.65,61.24,15.88,15.59,36.86,24.14,58.98,24.09,16.79-.03,32.97-5.05,46.88-14.52l1.83-1.23-1.7-1.43c-5-4.3-9.66-9.33-13.77-14.83"/>
          <path class="cls-2" d="M895.77,296.53c-6.89-5.86-25.37-15.6-38.35-21.03-9.38-3.8-20.91-10.63-22.98-21.18-.19-.82-.29-1.69-.29-2.95,0-3.89.81-9.24,4.68-12.87,2.78-2.71,6.82-3.99,12.09-3.74,2.38.12,11.06,1.16,19.83,10.59,4.98,5.44,8.66,9.74,11.59,13.19,6.75,8.04,9.55,11.32,15.24,10.57.14,0,.33-.02.49-.05,1.69-.16,5.76-.49,7.57-3.07.68-.88,1.28-2.35.75-4.51v-.06s-.05-.14-.05-.14l-11.92-27.19c-.37-1.13-.82-2.14-1.29-3.07-.21-.74-.44-1.51-.82-2.25-4.49-9.61-9.54-10.06-19.57-10.88-2.24-.19-4.84-.41-7.77-.74-16.23-1.91-25.44,1.02-32.78,2.93,0,0-5.82,1.86-5,2.06-6.61,3.2-11.09,7.76-11.36,8-1.73,1.79-4.67,4.73-7.33,8.97l-.56.78.45.83,6.36,13.82s.12.4.17.56l.2.53c1.95,6.11.27,10.21-1.47,12.51-1.1,1.44-3.59,3.99-8.06,4.74l-1.98.28.61,1.88c3.41,10.71,13.41,19.1,19.1,23.07.05.1.13.13.32.25,3.64,2.54,6.19,3.95,6.24,3.99l1.95,1.05.04-.04c5.64,3.2,11.85,6.33,17.9,9.37,5.9,2.96,11.57,5.79,16.13,8.4,14.62,8.29,21.17,16.36,21.46,26.1.39,12.63-8.58,22.13-21.73,23.18-5.57.42-16.81-.59-23.6-7.1-3.98-3.79-5.81-8.85-5.48-15.17.1-3.31,1.85-5.89,5.41-8.24,3.38-2.2,4.42-5.27,3.12-9.66-2.4-8.23-10.81-8.21-17.84-7.26-4.94.62-12.48,4.37-17.44,11.17l-1.21,1.63,1.88.87c.13.04.25.11.48.2.18.12.38.19.61.26,6.76,3.43,9.57,10.03,6.96,16.86-.05.07-5.72,17.43-5.72,17.43l-.3.95.66.71c13.62,14.99,39.28,15.83,49.69,15.51h.49c32.4-.47,53.33-20.45,53.27-51-.03-14.81-7.65-29.77-20.86-41.02"/>
          <path class="cls-2" d="M781.79,385.91c.91,0,1.78,0,2.56.07,2.18.36,4.19.78,5.89,1.14,1.53.31,2.72.57,3.6.69,4.78.62,6.33-3.42,6.76-4.74l.13-.22c0-.13,10.15-31.23,10.15-31.23.07-.04.14-.19.16-.26,1.33-3.56.19-6.26-3.47-8.1-6.93-3.48-9.77-.32-12.79,3.02-.33.38-.62.82-1.04,1.21l-1.99,2.17c-1.88,2.11-3.52,3.88-6.05,6.2-16.18,14.8-35.43,13.13-39.15,12.6h-.13s-.25,0-.25,0c-2.53,0-4.13-.49-5.03-1.43-1.09-1-1.6-2.96-1.61-5.98l-.04-58.46c0-.84.38-1.67,1.08-2.35.68-.64,1.61-1.03,2.57-1.03,1.32,0,3.42.03,5.71.17.52.04,1.22.12,1.79.14l.36.04c.2.03.41.03.66.07l1.86.16v-.03c12.33,1.32,17.07,8.42,20.21,13.21.6,1,1.17,1.9,1.74,2.61,3.97,5.14,8.61,4.58,12.16,3.52,2.88-.88,4.94-2.41,5.94-4.36.75-1.7.71-3.69-.25-5.79-.81-1.99-2.51-7.11-4.3-12.54-2.28-6.99-4.89-14.85-6.7-19.34-3.41-7.99-4.35-9.48-11.77-8.83-6.85.59-8.1,4.14-9.05,6.76-.28.7-.56,1.36-.84,1.88-1.59,2.43-3.33,2.9-8.89,3.41l-8.94.02c-.94,0-1.73-.37-2.36-.97-.65-.67-1.04-1.51-1.04-2.48l-.25-27.11v-.65c0-2.85-.01-5.8,1.14-6.88.17-.2.6-.63,2.02-.63l2.21-.04c7.85-.13,19.67-.37,32.47,10l7.74,6.33c8.81,7.23,10.38,8.56,15.03,8.89.63.04,1.54-.2,2.88-.65.31-.08.56-.24.79-.26,1.98-.54,3.39-1.46,4.11-2.88,1.16-2.08.36-4.28-.01-5.26,0-.07-.07-.22-.07-.22v-.09s-.07-.12-.07-.12l-13.48-29.56c-2.58-6.68-6.16-9.42-11.62-8.53-.36,0-.79.08-1.33.18-4.73.8-17.31,2.9-35.69,2.94l-53.4.13c-2.72,0-4.78,2.87-4.77,5.33v3.71c.01,2.46,2.18,3.22,3.62,3.69.21.06.41.14.63.21,12.27,4.7,13.29,12.6,13.31,19.62l.1,78.31v2.09s2.15-.47,2.15-.47c3.56-.84,7.49-.22,11.85,1.89,6.72,3.45,9.39,9.61,6.82,16.43l-10.6,33.21,66.78-.55Z"/>
          <path class="cls-2" d="M484.17,356.45l-.1-48.02-.08-37.31v-1.64s-1.67-.05-1.67-.05c-3.59-.1-6.99-1.95-9.88-5.49-5.22-6.26-5.4-13.66-.51-19.72,1.21-1.54,2.98-3.39,4.91-5.42l1.42-1.35-1.62-1.15c-14.44-10.33-31.31-15.81-48.89-15.77-46.63.09-84.37,38.5-84.28,85.67.05,23.27,9.13,45.06,25.64,61.2,15.81,15.64,36.84,24.2,58.98,24.16,15.17-.03,30.14-4.27,43.3-12.34l.68-.35.13-.76c.69-4.11,2.71-7.15,6.41-9.27,5.44-3.34,5.57-4.06,5.55-12.38M384.43,298.26c-3.1-3.12-5.53-7.01-6.44-10.6-1.71-6.11-1.18-12.88,1.31-18.88.2,5.58,1.82,11.57,4.59,16.26l2.05,3.51.22-.67c7.33,8.49,20.08,10.7,29.48,8.26,6.57-1.78,13.8-9.41,15.26-16.07.7-3.51-.21-6.57-2.71-8.49-1.51-1.23-6.2-4.96-10.73-1.33-1.08.85-2.91,1.19-5,.88-3.34-.5-6.41-2.61-8.57-5.71-2.05-3.15-2.69-7.62-1.58-11.75,1.23-4.3,4.22-7.77,8.48-9.8.67-.29,2.39-1.08,3.4-1.29,21.66-4.22,45.4,21.24,52.92,56.64,4.83,22.72,2.04,44.71-7.45,58.78-4.81,7.16-11.13,11.66-18.28,13.02-20.26,3.98-46.15-11.25-55.17-53.69-1.15-5.35-1.62-11.53-1.29-17.81l.03-.78-.54-.48Z"/>
          <path class="cls-2" d="M598.06,243.99c-15.18-15.65-37.07-23.67-59.15-23.09-5.56.14-22.52.55-37.38,8.22-11.04,5.78-20.23,14.98-23.88,19.53-4.19,5.16-.76,9.38.42,10.74,3.21,3.92,5.65,3.16,7.29,2,.09-.04.2-.1.2-.14,1.55-.62,3.35-.86,4.45-.87.38,0,.75.13.95.34.18.14.29.49.29.88l.19,93.86v.98c.02,9.67.03,12.9-9.13,18.55-3.18,1.8-3.17,4.39-3.17,5.85v2.03c0,1.52.6,2.42,1.1,2.93.54.49,1.49,1.1,3.11,1.1l60.31-.12c44.65-.09,74.76-33.07,75.87-81.92.53-23.21-7.01-45.9-21.46-60.9M571.43,354.75c-10.69,12.71-23.69,18.41-31.74,18.42-.7,0-1.42-.06-2.24-.08-.72-.07-1.52-.09-2.27-.08-2.27,0-4.41-.85-6-2.44-1.65-1.56-2.54-3.7-2.54-5.97l-.23-115.89c-.02-7.8,5.36-9.33,8.59-9.59,1.57-.02,2.73-.11,4.09-.12,12.84-.03,26.52,8.93,35.77,23.43l1.9,3.95c3.86,7.77,21.8,48.18-4.04,86.32l-1.19,1.86-.09.18Z"/>
          <path class="cls-2" d="M718.84,351.31c1.36-3.53.19-6.25-3.43-8.09-7.56-3.85-10.45-.12-13.75,4.1l-.18.24c-.8,1.11-1.76,2.41-2.7,3.77-1.37,1.87-2.89,3.99-4.61,6.09l-.27.44c-2.19,2.77-8.11,10.31-28.27,10.35-2.18,0-3.77-.54-4.82-1.55-1.35-1.29-1.99-3.61-2-6.85l-.14-97.96c0-.81,0-1.67-.04-2.67-.29-7.21-.68-18.09,10.2-23.66.36-.19.63-.32.94-.4,1.16-.5,3.08-1.25,3.07-3.48v-4.47c-.01-1.08-.37-2.06-1.11-2.75-.89-.87-2.2-1.34-3.58-1.33l-54.84.11c-2.77,0-4.69,1.71-4.69,4.1v4.92c.02,4.38,2.62,5.26,4.23,5.78.2.08.33.11.49.16,10.15,3.81,10.02,15.26,9.97,22.03l-.02,1.73.21,92.54v1.77c.08,9.27-.34,15.02-7.37,17.02-2.08.69-3.39,2.47-3.39,4.87v3.42c0,1.19.4,2.3,1.24,3.05.9.94,2.23,1.39,3.79,1.39l71.51-.14h.41c.85,0,1.71,0,2.55.09,2.1.41,4.2.83,5.89,1.17,1.5.27,2.7.54,3.57.65,4.77.59,6.28-3.42,6.76-4.73l.09-.23c0-.09,10.27-31.24,10.27-31.24,0-.04,0-.13.02-.24"/>
          <path class="cls-2" d="M331.55,189.17c15.56,13.13,35.38,21.27,53,21.73,34.99.89,59.48-12.92,68.84-38.95,1.28-3.44.35-7.38-2.01-8.94-.97-.58-3.48-1.63-6.64,1.4-10.64,9.96-25.41,15.44-41.58,15.47-17,.03-33.08-6.55-45.25-18.53-12.55-12.29-19.46-28.73-19.5-46.29,0-.96,0-3.92.05-4.91,1.31-31.14,18.63-51.21,44.07-51.06,11.62.05,18.05,3.7,24.61,9.54,5.4,4.69,8.92,9.78,8.94,19.23.03,14.15-9.11,25.76-20.34,25.79-6.51.01-10.18-2.16-11.65-7.04-.13-.27-.15-.87-.16-1.17,0-1.15.26-1.51,1.68-1.52h.24c1.47.16,2.88.19,3.71.15,6.35-.54,9.82-5.05,9.29-11.73-.32-4.09-2.13-7.45-5.19-9.54-2.5-1.72-5.08-2.43-8.23-2.32-9.12.41-15.27,7.42-16.65,14.18-2.47,11.93,1.78,22.73,12.49,32.11,5.94,5.32,16.27,8.26,26.21,7.56,7.28-.49,17.74-3.19,25.97-12.96,9.98-11.65,13.62-24.94,10.7-38.29-3.56-15.9-15.81-29.08-26.21-33.92-10.91-5.09-18.84-8.75-38.99-8.71-44.49.09-79.16,36.77-79.07,83.56.05,24.14,11.88,48.44,31.63,65.15"/>
          <path class="cls-2" d="M614.44,206.89l51.72-.1c1.5,0,2.92-.52,3.85-1.45.75-.8,1.19-1.84,1.19-3v-4.26c-.01-2.58-2.66-5.01-5.03-5.75-8.72-4.28-8.64-10.55-8.66-18.62v-1.65s-.21-102.16-.21-102.16c0-1.86.28-3.05.73-3.57.2-.17.61-.58,2.37-.58,2.83,0,5.33-.01,7.6-.08,6.22-.15,10.79-.26,16.71.66,23.08,3.47,23.91,23.6,23.93,24.46,2.15,27.45-7.44,36.68-13.86,38.63-9.36,2.76-11.12.45-14.76-.89l-.64-.3c-1.57-.56-2.85-1.71-4.19-2.95-2.5-2.23-5.37-4.72-9.97-3.78-3.37.67-5.55,3.56-5.79,7.45-.32,6.93,4.57,12.45,15.34,17.67,9.58,4.57,26.83,3.56,40.03-3.29,12.18-6.38,33.46-23.6,34.61-51.61v-.26c0-5.76-1.39-20.41-15.29-32.9-13.91-12.58-32.56-12.13-41.42-11.95h-.91c-9.45.21-75.98.15-76.7.16-2.81,0-5.66,1.89-5.66,4.75v2.51c.01,2.83,3.66,5.73,6.1,6.12,6.26.54,7.47,8.1,7.48,14.35l.2,97.63c0,.43,0,.97,0,1.49.16,5.74.41,16.47-8.83,18.87l.43-.06c-2.95.03-5.54,3.32-5.54,5.81v4.22c.01,1.16.39,2.2,1.2,3,.98.93,2.37,1.44,3.93,1.43"/>
          <path class="cls-2" d="M457.65,63.16c.23.08.34.15.54.21,11.12,4.18,10.94,16.58,10.87,23.98v1.95s-3.6,49.68-3.6,49.68c.02,1.45-.03,3.3-.17,5.63-.54,11.66-1.48,33.4,12.57,48.57,9.49,10.19,25.75,15.78,45.46,16.62,22.42.97,40.4-2.68,52.77-14.93,13.22-13.12,13.27-29.28,13.05-36.86v-1.77c0-2.84-1.19-23.34-1.19-23.34l-3.58-43.83c0-.89-.02-1.87-.04-2.92-.27-7.87-.76-19.74,11.13-25.84.31-.22.67-.33,1.03-.44,1.26-.5,3.36-1.34,3.35-3.79v-4.89c-.01-1.14-.45-2.2-1.2-3-.94-.88-2.33-1.44-3.89-1.43l-46.76.09c-2.92,0-5.16,1.85-5.15,4.45v5.38c.02,4.76,2.96,5.77,4.67,6.3.17.08.33.15.51.21,12.14,4.5,13.72,9.3,13.75,25.92l2.11,53.18c.29,16.81.06,32.1-7.77,39.99-4.77,4.77-10.74,7.02-21.69,6.98-9.03-.02-15.64-1.72-21.03-6.08-8.61-7.08-8.8-20.39-8.6-40.77l1.05-56.23c.68-12.54,1.47-19.88,12.81-25.72.34-.22.68-.33,1.07-.44,1.26-.5,3.36-1.34,3.35-3.79v-4.89c-.01-1.14-.43-2.2-1.3-3.04-.92-.84-2.3-1.39-3.85-1.39l-59.79.12c-2.97,0-5.12,1.85-5.12,4.45v5.38c.02,4.76,2.89,5.77,4.61,6.3"/>
        </g>
      </g>
      <g>
        <path class="cls-3" d="M6.36,6.36c0,74.44,58.68,134.34,130.51,134.34S266.73,80.8,266.73,6.36H6.36Z"/>
        <g>
          <path class="cls-2" d="M79.36,80.99c-4.03,0-7.31-1.25-9.56-2.51-3.61-2.16-6.5-5.89-8.28-8.84l-8.26-13.49v24.23h-11.89v-45.67h11.89l14.19,23.25v-23.25h11.92v46.29Z"/>
          <rect class="cls-2" x="86.15" y="34.69" width="12.3" height="45.69"/>
          <path class="cls-2" d="M154.8,93.3h-19.45v-12.07h16.78c3.28,0,5.99-2.29,5.99-5.1,0-4.4-6.82-6.66-8.41-7.34-2.51-1.05-3.97-1.9-5.87-2.91-2.08-1.18-3.91-2.78-5.32-4.71.08.78.14,1.55.14,2.35,0,9.27-7.43,16.83-16.61,16.83h-19.45v-12.06h16.82c3.26,0,5.96-2.31,5.96-5.09,0-4.43-6.78-6.68-8.39-7.36-2.46-1.07-4-1.93-5.84-2.94-5.13-2.8-8.63-8.31-8.63-14.57,0-9.18,7.36-16.59,16.41-16.59h16.41v12.06h-13.76c-2.92,0-5.27,2.3-5.27,5.14,0,1.97,1.13,3.75,2.84,4.57,1.49.72,6.36,2.12,12.16,6.03,1.58,1.11,2.98,2.47,4.09,4.04-.08-.79-.12-1.51-.12-2.31,0-9.13,7.31-16.57,16.39-16.57h16.34v12.05h-13.67c-2.94,0-5.32,2.31-5.32,5.16,0,1.99,1.16,3.77,2.84,4.59,1.56.7,6.4,2.08,12.17,6.04,4.44,3,7.36,8.15,7.36,13.98,0,9.28-7.45,16.79-16.6,16.79Z"/>
          <rect class="cls-2" x="175.17" y="34.69" width="12.32" height="45.69"/>
          <path class="cls-2" d="M222.7,78.48c-3.63-2.16-6.5-5.89-8.27-8.84l-8.26-13.49v24.23h-11.93v-45.67h11.93l14.21,23.25v-23.25h11.89v46.29c-4.05,0-7.35-1.25-9.56-2.51Z"/>
        </g>
      </g>
    </g>
  </g>
</svg>