<svg width="65" height="78" viewBox="0 0 65 78" fill="none" xmlns="http://www.w3.org/2000/svg">
<path d="M2.128 66.288C2.128 66.864 2.20267 67.4347 2.352 68C2.50133 68.5547 2.736 69.056 3.056 69.504C3.376 69.952 3.78667 70.3147 4.288 70.592C4.78933 70.8587 5.38667 70.992 6.08 70.992C6.77333 70.992 7.37067 70.8587 7.872 70.592C8.37333 70.3147 8.784 69.952 9.104 69.504C9.424 69.056 9.65867 68.5547 9.808 68C9.95733 67.4347 10.032 66.864 10.032 66.288C10.032 65.712 9.95733 65.1467 9.808 64.592C9.65867 64.0267 9.424 63.52 9.104 63.072C8.784 62.624 8.37333 62.2667 7.872 62C7.37067 61.7227 6.77333 61.584 6.08 61.584C5.38667 61.584 4.78933 61.7227 4.288 62C3.78667 62.2667 3.376 62.624 3.056 63.072C2.736 63.52 2.50133 64.0267 2.352 64.592C2.20267 65.1467 2.128 65.712 2.128 66.288ZM0.608 66.288C0.608 65.5093 0.72 64.7627 0.944 64.048C1.17867 63.3227 1.52533 62.6827 1.984 62.128C2.44267 61.5733 3.01333 61.1307 3.696 60.8C4.37867 60.4693 5.17333 60.304 6.08 60.304C6.98667 60.304 7.78133 60.4693 8.464 60.8C9.14667 61.1307 9.71733 61.5733 10.176 62.128C10.6347 62.6827 10.976 63.3227 11.2 64.048C11.4347 64.7627 11.552 65.5093 11.552 66.288C11.552 67.0667 11.4347 67.8187 11.2 68.544C10.976 69.2587 10.6347 69.8933 10.176 70.448C9.71733 71.0027 9.14667 71.4453 8.464 71.776C7.78133 72.096 6.98667 72.256 6.08 72.256C5.17333 72.256 4.37867 72.096 3.696 71.776C3.01333 71.4453 2.44267 71.0027 1.984 70.448C1.52533 69.8933 1.17867 69.2587 0.944 68.544C0.72 67.8187 0.608 67.0667 0.608 66.288ZM13.4043 60.576H20.9083V61.856H14.9243V65.488H20.1723V66.768H14.9243V72H13.4043V60.576ZM22.5918 60.576H30.0958V61.856H24.1118V65.488H29.3598V66.768H24.1118V72H22.5918V60.576ZM31.7793 60.576H33.2993V70.72H39.3472V72H31.7793V60.576ZM40.7339 60.576H42.2539V72H40.7339V60.576ZM44.7945 60.576H46.4105L52.4265 69.84H52.4585V60.576H53.8985V72H52.2345L46.2665 62.832H46.2345V72H44.7945V60.576ZM56.3574 60.576H64.2454V61.856H57.8774V65.488H63.8134V66.768H57.8774V70.72H64.2934V72H56.3574V60.576Z" fill="#696A6A"/>
<path d="M18.1243 11.9314C14.0699 13.288 11 16.501 11 21.5335C11 27.5835 15.95 31.8001 22 31.8001H38.9006M52.4168 29.7596C54.0137 28.436 55 26.4477 55 23.7335C55 18.25 50.1417 15.8721 46.2 15.6668C45.3851 7.45896 39.6917 2.4668 33 2.4668C30.602 2.4668 28.5276 3.10205 26.8033 4.12963" stroke="#696A6A" stroke-width="2" stroke-linecap="round" stroke-linejoin="round"/>
<path d="M50.6004 36.2L15.4004 1" stroke="#696A6A" stroke-width="2" stroke-miterlimit="10" stroke-linecap="round"/>
</svg>
