<svg width="50" height="59" viewBox="0 0 50 59" fill="none" xmlns="http://www.w3.org/2000/svg">
<path d="M1.90227 49.7013C1.90227 50.1348 1.95846 50.5642 2.07084 50.9897C2.18323 51.4071 2.35983 51.7844 2.60066 52.1216C2.84148 52.4587 3.15054 52.7317 3.52783 52.9404C3.90513 53.1411 4.35466 53.2414 4.87645 53.2414C5.39824 53.2414 5.84778 53.1411 6.22507 52.9404C6.60236 52.7317 6.91142 52.4587 7.15225 52.1216C7.39307 51.7844 7.56968 51.4071 7.68206 50.9897C7.79444 50.5642 7.85064 50.1348 7.85064 49.7013C7.85064 49.2678 7.79444 48.8423 7.68206 48.4249C7.56968 47.9994 7.39307 47.6181 7.15225 47.281C6.91142 46.9438 6.60236 46.6749 6.22507 46.4742C5.84778 46.2655 5.39824 46.1612 4.87645 46.1612C4.35466 46.1612 3.90513 46.2655 3.52783 46.4742C3.15054 46.6749 2.84148 46.9438 2.60066 47.281C2.35983 47.6181 2.18323 47.9994 2.07084 48.4249C1.95846 48.8423 1.90227 49.2678 1.90227 49.7013ZM0.758348 49.7013C0.758348 49.1153 0.842637 48.5533 1.01121 48.0155C1.18782 47.4696 1.44871 46.988 1.79389 46.5706C2.13908 46.1531 2.56855 45.82 3.08231 45.5711C3.59607 45.3223 4.19411 45.1979 4.87645 45.1979C5.55879 45.1979 6.15684 45.3223 6.6706 45.5711C7.18436 45.82 7.61383 46.1531 7.95901 46.5706C8.30419 46.988 8.56107 47.4696 8.72965 48.0155C8.90625 48.5533 8.99456 49.1153 8.99456 49.7013C8.99456 50.2873 8.90625 50.8532 8.72965 51.3991C8.56107 51.9369 8.30419 52.4146 7.95901 52.832C7.61383 53.2494 7.18436 53.5826 6.6706 53.8314C6.15684 54.0722 5.55879 54.1927 4.87645 54.1927C4.19411 54.1927 3.59607 54.0722 3.08231 53.8314C2.56855 53.5826 2.13908 53.2494 1.79389 52.832C1.44871 52.4146 1.18782 51.9369 1.01121 51.3991C0.842637 50.8532 0.758348 50.2873 0.758348 49.7013ZM10.3885 45.4026H16.0359V46.3659H11.5324V49.0992H15.482V50.0625H11.5324V54H10.3885V45.4026ZM17.3028 45.4026H22.9502V46.3659H18.4467V49.0992H22.3963V50.0625H18.4467V54H17.3028V45.4026ZM24.2171 45.4026H25.361V53.0367H29.9126V54H24.2171V45.4026ZM30.9562 45.4026H32.1001V54H30.9562V45.4026ZM34.0121 45.4026H35.2283L39.7558 52.3744H39.7799V45.4026H40.8636V54H39.6113L35.1199 47.1004H35.0958V54H34.0121V45.4026ZM42.7141 45.4026H48.6504V46.3659H43.858V49.0992H48.3253V50.0625H43.858V53.0367H48.6865V54H42.7141V45.4026Z" fill="#333132"/>
<path d="M13.9397 9.33963C10.8885 10.3606 8.57812 12.7786 8.57812 16.5659C8.57812 21.119 12.3034 24.2924 16.8565 24.2924H29.5755M39.7475 22.7568C40.9492 21.7606 41.6915 20.2643 41.6915 18.2216C41.6915 14.0948 38.0353 12.3053 35.0688 12.1508C34.4556 5.97379 30.1708 2.2168 25.1348 2.2168C23.3301 2.2168 21.769 2.69487 20.4714 3.46821" stroke="#333132" stroke-width="1.50515" stroke-linecap="round" stroke-linejoin="round"/>
<path d="M38.3813 27.604L11.8906 1.11328" stroke="#333132" stroke-width="1.50515" stroke-miterlimit="10" stroke-linecap="round"/>
</svg>
