<svg width="59" height="84" viewBox="0 0 59 84" fill="none" xmlns="http://www.w3.org/2000/svg">
<path d="M2.128 72.288C2.128 72.864 2.20267 73.4347 2.352 74C2.50133 74.5547 2.736 75.056 3.056 75.504C3.376 75.952 3.78667 76.3147 4.288 76.592C4.78933 76.8587 5.38667 76.992 6.08 76.992C6.77333 76.992 7.37067 76.8587 7.872 76.592C8.37333 76.3147 8.784 75.952 9.104 75.504C9.424 75.056 9.65867 74.5547 9.808 74C9.95733 73.4347 10.032 72.864 10.032 72.288C10.032 71.712 9.95733 71.1467 9.808 70.592C9.65867 70.0267 9.424 69.52 9.104 69.072C8.784 68.624 8.37333 68.2667 7.872 68C7.37067 67.7227 6.77333 67.584 6.08 67.584C5.38667 67.584 4.78933 67.7227 4.288 68C3.78667 68.2667 3.376 68.624 3.056 69.072C2.736 69.52 2.50133 70.0267 2.352 70.592C2.20267 71.1467 2.128 71.712 2.128 72.288ZM0.608 72.288C0.608 71.5093 0.72 70.7627 0.944 70.048C1.17867 69.3227 1.52533 68.6827 1.984 68.128C2.44267 67.5733 3.01333 67.1307 3.696 66.8C4.37867 66.4693 5.17333 66.304 6.08 66.304C6.98667 66.304 7.78133 66.4693 8.464 66.8C9.14667 67.1307 9.71733 67.5733 10.176 68.128C10.6347 68.6827 10.976 69.3227 11.2 70.048C11.4347 70.7627 11.552 71.5093 11.552 72.288C11.552 73.0667 11.4347 73.8187 11.2 74.544C10.976 75.2587 10.6347 75.8933 10.176 76.448C9.71733 77.0027 9.14667 77.4453 8.464 77.776C7.78133 78.096 6.98667 78.256 6.08 78.256C5.17333 78.256 4.37867 78.096 3.696 77.776C3.01333 77.4453 2.44267 77.0027 1.984 76.448C1.52533 75.8933 1.17867 75.2587 0.944 74.544C0.72 73.8187 0.608 73.0667 0.608 72.288ZM13.3883 66.576H15.0043L21.0203 75.84H21.0523V66.576H22.4923V78H20.8283L14.8603 68.832H14.8283V78H13.3883V66.576ZM24.9511 66.576H26.4711V76.72H32.5191V78H24.9511V66.576ZM33.9058 66.576H35.4258V78H33.9058V66.576ZM37.9664 66.576H39.5824L45.5984 75.84H45.6304V66.576H47.0704V78H45.4064L39.4384 68.832H39.4064V78H37.9664V66.576ZM49.5293 66.576H57.4173V67.856H51.0493V71.488H56.9853V72.768H51.0493V76.72H57.4653V78H49.5293V66.576Z" fill="#696A6A"/>
<path d="M49 20.5C49 25.6717 46.9455 30.6316 43.2886 34.2886C39.6316 37.9455 34.6717 40 29.5 40C24.3283 40 19.3684 37.9455 15.7114 34.2886C12.0545 30.6316 10 25.6717 10 20.5M49 20.5C49 15.3283 46.9455 10.3684 43.2886 6.71142C39.6316 3.05446 34.6717 1 29.5 1C24.3283 1 19.3684 3.05446 15.7114 6.71142C12.0545 10.3684 10 15.3283 10 20.5M49 20.5H10" stroke="#696A6A" stroke-width="2" stroke-linecap="round" stroke-linejoin="round"/>
<path d="M37 20.5C36.6316 27.631 34.005 34.46 29.5 40C24.995 34.46 22.3684 27.631 22 20.5C22.3684 13.369 24.995 6.53996 29.5 1C34.005 6.53996 36.6316 13.369 37 20.5Z" stroke="#696A6A" stroke-width="2" stroke-linecap="round" stroke-linejoin="round"/>
</svg>
