<svg width="45" height="64" viewBox="0 0 45 64" fill="none" xmlns="http://www.w3.org/2000/svg">
<path d="M1.90227 54.464C1.90227 54.8975 1.95846 55.3269 2.07084 55.7524C2.18323 56.1698 2.35983 56.5471 2.60066 56.8843C2.84148 57.2214 3.15054 57.4944 3.52783 57.7031C3.90513 57.9038 4.35466 58.0041 4.87645 58.0041C5.39824 58.0041 5.84778 57.9038 6.22507 57.7031C6.60236 57.4944 6.91142 57.2214 7.15225 56.8843C7.39307 56.5471 7.56968 56.1698 7.68206 55.7524C7.79444 55.3269 7.85064 54.8975 7.85064 54.464C7.85064 54.0305 7.79444 53.605 7.68206 53.1876C7.56968 52.7621 7.39307 52.3808 7.15225 52.0437C6.91142 51.7065 6.60236 51.4376 6.22507 51.2369C5.84778 51.0282 5.39824 50.9238 4.87645 50.9238C4.35466 50.9238 3.90513 51.0282 3.52783 51.2369C3.15054 51.4376 2.84148 51.7065 2.60066 52.0437C2.35983 52.3808 2.18323 52.7621 2.07084 53.1876C1.95846 53.605 1.90227 54.0305 1.90227 54.464ZM0.758348 54.464C0.758348 53.878 0.842637 53.316 1.01121 52.7782C1.18782 52.2323 1.44871 51.7507 1.79389 51.3333C2.13908 50.9158 2.56855 50.5827 3.08231 50.3338C3.59607 50.085 4.19411 49.9606 4.87645 49.9606C5.55879 49.9606 6.15684 50.085 6.6706 50.3338C7.18436 50.5827 7.61383 50.9158 7.95901 51.3333C8.30419 51.7507 8.56107 52.2323 8.72965 52.7782C8.90625 53.316 8.99456 53.878 8.99456 54.464C8.99456 55.05 8.90625 55.6159 8.72965 56.1618C8.56107 56.6996 8.30419 57.1773 7.95901 57.5947C7.61383 58.0121 7.18436 58.3453 6.6706 58.5941C6.15684 58.8349 5.55879 58.9554 4.87645 58.9554C4.19411 58.9554 3.59607 58.8349 3.08231 58.5941C2.56855 58.3453 2.13908 58.0121 1.79389 57.5947C1.44871 57.1773 1.18782 56.6996 1.01121 56.1618C0.842637 55.6159 0.758348 55.05 0.758348 54.464ZM10.3765 50.1653H11.5926L16.1201 57.1371H16.1442V50.1653H17.2279V58.7627H15.9756L11.4843 51.8631H11.4602V58.7627H10.3765V50.1653ZM19.0784 50.1653H20.2223V57.7994H24.7739V58.7627H19.0784V50.1653ZM25.8175 50.1653H26.9614V58.7627H25.8175V50.1653ZM28.8734 50.1653H30.0896L34.6171 57.1371H34.6412V50.1653H35.7249V58.7627H34.4726L29.9812 51.8631H29.9571V58.7627H28.8734V50.1653ZM37.5754 50.1653H43.5117V51.1286H38.7193V53.8619H43.1866V54.8252H38.7193V57.7994H43.5478V58.7627H37.5754V50.1653Z" fill="#696A6A"/>
<path d="M37.1747 16.0366C37.1747 19.9287 35.6286 23.6614 32.8765 26.4136C30.1243 29.1657 26.3916 30.7118 22.4995 30.7118C18.6074 30.7118 14.8746 29.1657 12.1225 26.4136C9.37036 23.6614 7.82422 19.9287 7.82422 16.0366M37.1747 16.0366C37.1747 12.1445 35.6286 8.41176 32.8765 5.65961C30.1243 2.90747 26.3916 1.36133 22.4995 1.36133C18.6074 1.36133 14.8746 2.90747 12.1225 5.65961C9.37036 8.41176 7.82422 12.1445 7.82422 16.0366M37.1747 16.0366H7.82422" stroke="#696A6A" stroke-width="1.50515" stroke-linecap="round" stroke-linejoin="round"/>
<path d="M28.1441 16.0366C27.8669 21.4032 25.8902 26.5426 22.4998 30.7118C19.1094 26.5426 17.1327 21.4032 16.8555 16.0366C17.1327 10.67 19.1094 5.53057 22.4998 1.36133C25.8902 5.53057 27.8669 10.67 28.1441 16.0366Z" stroke="#696A6A" stroke-width="1.50515" stroke-linecap="round" stroke-linejoin="round"/>
</svg>
