<svg width="45" height="45" viewBox="0 0 45 45" fill="none" xmlns="http://www.w3.org/2000/svg">
<rect width="45" height="45" rx="3.71719" fill="#333333"/>
<path d="M15.1194 12.7972C15.048 12.8003 14.9797 12.8269 14.9249 12.8728C14.9249 12.8728 13.0687 14.4242 11.581 15.8916C10.7907 16.671 10.1223 17.4618 10.0226 18.2715C9.89222 19.3299 10.3259 20.7863 11.3364 22.5751C12.3469 24.3639 13.9512 26.4748 16.2347 28.7609C18.5184 31.0472 20.6297 32.6531 22.4178 33.6646C24.2059 34.676 25.6598 35.1103 26.7126 34.9803C27.2919 34.9088 27.8708 34.5453 28.4664 34.0708C29.0619 33.5963 29.6639 32.9975 30.2066 32.408C31.2921 31.229 32.1415 30.082 32.1415 30.082C32.2438 29.9438 32.2212 29.7499 32.0897 29.6392C32.0897 29.6392 30.8351 28.5818 29.5189 27.5386C28.8607 27.017 28.1877 26.4992 27.6419 26.1147C27.3691 25.9224 27.1292 25.7638 26.9298 25.651C26.8302 25.5946 26.7416 25.5493 26.6534 25.5157C26.5652 25.4821 26.4864 25.434 26.3134 25.4804C26.1388 25.5273 26.0471 25.6272 25.9582 25.7301C25.8693 25.8331 25.7896 25.9529 25.7095 26.0874C25.5493 26.3565 25.3913 26.6843 25.2423 27.0066C25.0934 27.3289 24.9542 27.6456 24.8435 27.8764C24.7978 27.9716 24.7617 28.0386 24.7301 28.0947C24.6548 28.0833 24.5537 28.064 24.423 28.0302C24.145 27.9584 23.7564 27.8301 23.292 27.6193C22.3632 27.1978 21.1295 26.4472 19.8382 25.1544C18.5444 23.8591 17.784 22.6524 17.3588 21.7392C17.1463 21.2826 17.0177 20.8988 16.9487 20.619C16.9142 20.4791 16.8947 20.3648 16.8866 20.2851C16.8831 20.2512 16.883 20.2645 16.8836 20.2446C16.9356 20.2133 17.0209 20.1705 17.1306 20.1233C17.3606 20.0243 17.6797 19.9078 18.0052 19.7809C18.3307 19.6539 18.6629 19.5173 18.9408 19.3606C19.2187 19.2038 19.4861 19.0491 19.5622 18.7031C19.5947 18.5553 19.5614 18.4615 19.5286 18.3652C19.4959 18.2688 19.4503 18.1723 19.3934 18.0661C19.2798 17.8537 19.12 17.6053 18.9264 17.3267C18.5393 16.7696 18.0182 16.0967 17.4935 15.4432C16.4439 14.1362 15.3797 12.9092 15.3797 12.9092C15.3145 12.8341 15.2187 12.7928 15.1194 12.7972Z" fill="white"/>
<path d="M22.7346 10.0526C22.8269 10.016 22.9256 9.99823 23.0249 10.0001C27.3407 10.0301 30.3152 11.3076 32.1878 13.4877C34.0603 15.6678 34.7971 18.6351 34.9966 21.9334C35.004 22.0325 34.9916 22.1322 34.9602 22.2265C34.9287 22.3208 34.8789 22.4079 34.8135 22.4828C34.7481 22.5577 34.6684 22.6188 34.5792 22.6627C34.49 22.7065 34.3929 22.7322 34.2937 22.7382C34.1944 22.7442 34.095 22.7304 34.0011 22.6976C33.9073 22.6649 33.8208 22.6138 33.7469 22.5473C33.673 22.4809 33.613 22.4004 33.5704 22.3105C33.5278 22.2207 33.5035 22.1233 33.4989 22.0239C33.3098 18.8962 32.6068 16.2783 31.0496 14.4653C29.4924 12.6523 27.0472 11.5286 23.0145 11.5005C22.9152 11.5011 22.8168 11.4819 22.725 11.4441C22.6331 11.4063 22.5497 11.3507 22.4795 11.2804C22.4094 11.2101 22.3538 11.1266 22.3162 11.0347C22.2785 10.9429 22.2595 10.8444 22.2602 10.7451C22.2609 10.6458 22.2813 10.5476 22.3202 10.4562C22.3591 10.3649 22.4158 10.2822 22.4869 10.2129C22.558 10.1436 22.6422 10.0891 22.7346 10.0526Z" fill="#DBFD67"/>
<path d="M22.6943 13.4435C22.7828 13.4426 22.8706 13.4425 22.9578 13.4431C25.6597 13.464 27.7382 14.2707 29.138 15.7724C30.5829 17.3225 31.2644 19.5179 31.4282 22.1238C31.4357 22.2228 31.4235 22.3224 31.3922 22.4167C31.3609 22.511 31.3112 22.5981 31.246 22.673C31.1808 22.7479 31.1014 22.8092 31.0123 22.8532C30.9232 22.8972 30.8263 22.923 30.7272 22.9292C30.628 22.9355 30.5287 22.922 30.4348 22.8895C30.3409 22.857 30.2544 22.8062 30.1803 22.74C30.1062 22.6739 30.046 22.5936 30.0032 22.504C29.9604 22.4144 29.9357 22.3172 29.9308 22.218C29.78 19.8203 29.1613 17.9977 28.0406 16.7954C26.9198 15.5931 25.2569 14.916 22.7107 14.9438C22.6113 14.9464 22.5124 14.9291 22.4197 14.8931C22.3271 14.857 22.2425 14.8029 22.1709 14.7339C22.0993 14.6649 22.0422 14.5823 22.0028 14.491C21.9634 14.3997 21.9425 14.3015 21.9415 14.202C21.9404 14.1026 21.9591 14.0039 21.9964 13.9118C22.0338 13.8196 22.0891 13.7358 22.1592 13.6653C22.2293 13.5947 22.3126 13.5387 22.4045 13.5007C22.4964 13.4626 22.5949 13.4432 22.6943 13.4435Z" fill="#DBFD67"/>
<path d="M22.9515 17.4906C23.0865 17.3506 23.2704 17.2685 23.4647 17.2615C23.4897 17.2607 23.5148 17.261 23.5397 17.2626C24.6728 17.3186 25.6933 17.6071 26.4403 18.2999C27.1872 18.9927 27.563 20.0443 27.5537 21.3182C27.5542 21.4175 27.535 21.5159 27.4971 21.6077C27.4593 21.6995 27.4036 21.7829 27.3333 21.853C27.263 21.9231 27.1795 21.9786 27.0876 22.0162C26.9957 22.0538 26.8973 22.0728 26.798 22.0721C26.6987 22.0713 26.6006 22.0509 26.5092 22.012C26.4179 21.973 26.3352 21.9164 26.2659 21.8452C26.1967 21.7741 26.1422 21.6899 26.1057 21.5975C26.0692 21.5052 26.0514 21.4065 26.0534 21.3073C26.0606 20.3132 25.8137 19.7652 25.42 19.4C25.0263 19.0348 24.3881 18.8068 23.4657 18.7612C23.2714 18.7544 23.0873 18.6726 22.9522 18.5328C22.8171 18.393 22.7415 18.2062 22.7414 18.0118C22.7413 17.8174 22.8166 17.6305 22.9515 17.4906Z" fill="#DBFD67"/>
</svg>
