<?xml version="1.0" encoding="UTF-8"?>
<svg id="Layer_2" xmlns="http://www.w3.org/2000/svg" viewBox="0 0 353.46 69.9">
  <defs>
    <style>
      .cls-1 {
        fill: #fff;
      }
    </style>
  </defs>
  <g id="Layer_1-2" data-name="Layer_1">
    <path id="PSFL_x5F_F_x5F_A_x5F_POS" class="cls-1" d="M21.86,0c7.4,0,12.14,6.29,12.14,15.99,0,5.01-1.35,9.18-3.91,12.08-2.16,2.44-5.16,3.86-8.22,3.86h-8.68c-.09,0-.15-.06-.15-.16v-5.26c0-.09.06-.16.15-.16h6.06c3.67,0,5.68-3.7,5.68-10.39s-2.01-10.39-5.68-10.39l-10.07.02s-.05.03-.05.08v45.23c-.01.08-.09.16-.17.16H.16c-.09,0-.16-.07-.16-.16V.15c0-.08.07-.15.16-.15h21.69M48.37,0h-8.8c-.1,0-.17.07-.17.15v50.74c0,.08.07.16.17.16h8.8c.08,0,.16-.07.16-.16V.15c0-.08-.08-.15-.16-.15M86.74,12.35c0-.09-.08-.16-.17-.16h-15.67c-14.05,0-15.84,10.31-15.84,19.37v7.84c0,6.75,4.2,11.64,9.97,11.64h8.55c.08,0,.15-.07.15-.16v-5.26c0-.09-.07-.16-.15-.16h-6.11c-1.41-.02-3.3-.61-3.3-5.45v-8.46c0-5.62.52-9.22,1.68-11.26,1.26-2.26,3.26-2.56,5.05-2.56h6.68s.05.04.06.08c0,0,0,33.08,0,33.08,0,.08.07.16.16.16h8.78c.09,0,.16-.07.16-.16V12.35ZM150.03,21.23l-4.33-.33c-3.25-.28-5.67-2.08-5.67-7.4,0-6.22,2.79-7.92,6.51-7.92h11.99c.07,0,.16-.07.16-.15V.15c0-.08-.08-.15-.16-.15h-13.24c-8.18,0-14,4.81-14,14.39v.42c0,7.56,4.65,13.02,11.58,13.55l4.31.32c3.29.25,5.34,3.19,5.34,7.65v1.26c0,2.79-.7,7.9-6.68,7.9h-12.46c-.08,0-.16.07-.16.16v5.25c0,.08.07.16.16.16h15.47c4.77,0,12.75-1.93,12.75-14.9,0-4.7-1.07-8.4-3.23-11.08-1.85-2.3-4.58-3.54-8.33-3.83M222.08,12.35c0-.09-.07-.16-.16-.16h-15.7c-14.02,0-15.83,10.31-15.83,19.37v7.84c.01,6.75,4.2,11.64,10,11.64h8.52c.08,0,.16-.07.16-.16v-5.26c0-.09-.08-.16-.16-.16h-6.11c-1.4-.02-3.28-.61-3.28-5.45v-8.46c0-5.62.53-9.22,1.67-11.26,1.27-2.26,3.27-2.56,5.03-2.56h6.71s.06.04.07.08v33.08c-.01.08.06.16.15.16h8.79c.09,0,.15-.07.15-.16V12.35ZM186.74,12.19h-9.54s-.05-.02-.05-.06v-6.39c0-.08-.07-.16-.15-.16h-8.79c-.09,0-.17.07-.17.16v33.67c0,6.74,4.2,11.64,9.99,11.64h6.3c.09,0,.16-.07.16-.16v-5.25c0-.08-.07-.17-.16-.17h-3.86c-.99-.01-3.31-.07-3.32-5.04v-22.67s.03-.05.05-.05c2.92.01,9.55,0,9.55,0,.08,0,.15-.07.15-.15v-5.22c0-.09-.07-.16-.15-.16M248.12,12.19h-9.49s-.06-.02-.06-.06v-6.39c0-.08-.06-.16-.15-.16h-8.81c-.09,0-.16.07-.16.16v33.67c0,6.74,4.2,11.64,9.98,11.64h6.29c.09,0,.16-.07.16-.16v-5.25c0-.08-.06-.17-.16-.17h-3.86c-.99-.01-3.3-.07-3.3-5.04v-22.67s.03-.05.05-.05c2.9.01,9.5,0,9.5,0,.08,0,.16-.07.16-.15v-5.22c0-.09-.08-.16-.16-.16M262.66,12.19h-8.79c-.08,0-.16.07-.16.16v38.54c0,.08.08.16.16.16h8.79c.1,0,.16-.07.16-.16V12.35c0-.09-.07-.16-.16-.16M262.66,0h-8.79c-.08,0-.16.07-.16.15v7.37c0,.09.08.15.16.15h8.79c.1,0,.16-.07.16-.15V.15c0-.08-.07-.15-.16-.15M323.47,12.19h-15.69c-.08,0-.15.07-.15.16v38.54c0,.08.07.16.14.16h8.8c.08,0,.15-.07.15-.16V17.81s0-.07.05-.07h6.69c1.81,0,3.79.29,5.06,2.38,1.16,1.89,1.69,5.21,1.69,10.43,0,.22,0,20.35,0,20.35,0,.08.07.16.16.16h8.77c.09,0,.16-.07.16-.16v-19.33c0-9.06-1.81-19.37-15.82-19.37M285.23,12.19c14.68,0,16.55,10.36,16.55,19.42s-1.87,19.46-16.55,19.46-16.56-10.39-16.56-19.46,1.88-19.42,16.56-19.42M290.81,42.92c1.26-2.04,1.85-5.64,1.85-11.31,0-6.71-.82-10.53-2.65-12.34-1.1-1.1-2.51-1.54-4.77-1.54s-3.66.44-4.76,1.54c-1.84,1.81-2.66,5.61-2.66,12.29v.05c0,5.66.58,9.26,1.85,11.31,1.4,2.28,3.6,2.58,5.57,2.58s4.19-.3,5.57-2.58M91.7,12.19c-.08,0-.13.07-.1.15l13.04,38.19c.02.09.02.22,0,.3l-7.34,18.91c-.03.09,0,.15.1.15h7.65c.09,0,.19-.07.22-.15l22.89-57.4c.03-.09,0-.15-.1-.15h-8.34c-.09,0-.19.07-.21.15l-9.69,25.09c-.03.08-.07.08-.11,0l-8.56-25.09c-.02-.09-.12-.15-.21-.15h-9.23ZM344.96,46.8c0,2.39,1.74,4.25,4.27,4.25s4.23-1.86,4.23-4.25-1.71-4.25-4.23-4.25-4.27,1.88-4.27,4.25ZM345.64,46.8c0-1.98,1.4-3.6,3.59-3.6s3.57,1.62,3.57,3.6-1.42,3.62-3.57,3.62-3.59-1.62-3.59-3.62ZM347.55,49.25h.88v-2.09h.58c.74,0,.9.18,1.04.75.1.34.26.97.38,1.34h.9c-.14-.47-.32-.99-.48-1.54-.16-.57-.38-.81-.7-.89v-.02c.62-.18.9-.61.9-1.19,0-1.01-.66-1.28-1.56-1.28h-1.95v4.92ZM348.43,44.95h.84c.48,0,.94.1.94.77,0,.57-.38.81-1,.81h-.78v-1.58Z"/>
  </g>
</svg>