<svg width="153" height="154" viewBox="0 0 153 154" fill="none" xmlns="http://www.w3.org/2000/svg">
<circle cx="76.5" cy="77.3281" r="76.5" fill="#DBFD67"/>
<path d="M53.972 76.5121H56.656C57.052 76.5121 57.4333 76.4828 57.8 76.4241C58.1667 76.3655 58.4893 76.2555 58.768 76.0941C59.0467 75.9181 59.2667 75.6761 59.428 75.3681C59.604 75.0601 59.692 74.6568 59.692 74.1581C59.692 73.6595 59.604 73.2561 59.428 72.9481C59.2667 72.6401 59.0467 72.4055 58.768 72.2441C58.4893 72.0681 58.1667 71.9508 57.8 71.8921C57.4333 71.8335 57.052 71.8041 56.656 71.8041H53.972V76.5121ZM50.518 69.1201H57.602C58.5847 69.1201 59.4207 69.2668 60.11 69.5601C60.7993 69.8388 61.3567 70.2128 61.782 70.6821C62.222 71.1515 62.5373 71.6868 62.728 72.2881C62.9333 72.8895 63.036 73.5128 63.036 74.1581C63.036 74.7888 62.9333 75.4121 62.728 76.0281C62.5373 76.6295 62.222 77.1648 61.782 77.6341C61.3567 78.1035 60.7993 78.4848 60.11 78.7781C59.4207 79.0568 58.5847 79.1961 57.602 79.1961H53.972V84.8281H50.518V69.1201ZM64.7518 69.1201H68.2058V81.9241H75.8618V84.8281H64.7518V69.1201ZM81.3128 78.7561H85.3828L83.4028 72.9921H83.3588L81.3128 78.7561ZM81.6428 69.1201H85.1848L91.0588 84.8281H87.4728L86.2848 81.3301H80.4108L79.1788 84.8281H75.7028L81.6428 69.1201ZM94.4106 78.7121L88.6466 69.1201H92.5186L96.1926 75.3241L99.8446 69.1201H103.695L97.8646 78.8001V84.8281H94.4106V78.7121Z" fill="#333132"/>
</svg>
