<svg width="73" height="73" viewBox="0 0 73 73" fill="none" xmlns="http://www.w3.org/2000/svg">
<rect width="72.6355" height="72.6355" rx="6" fill="#333333"/>
<path d="M53.6471 41.8164C53.3556 42.1649 52.9742 42.4987 52.5129 42.8049C52.48 42.8333 52.4471 42.852 52.428 42.8662C50.1031 44.3956 46.0329 45.3084 41.548 45.3084C41.388 45.3084 41.2329 45.3036 41.0773 45.3036C41.0351 46.6871 40.7573 48.0093 40.2822 49.2378C40.7107 49.2564 41.1342 49.2662 41.548 49.2662C41.7502 49.2711 41.9622 49.2662 42.1738 49.2613C42.4044 49.2564 42.6302 49.252 42.856 49.2329C42.9831 49.2329 43.0724 49.228 43.1667 49.2236C43.176 49.2236 43.2324 49.2236 43.2418 49.2236L43.896 49.1764C44.0702 49.1622 44.2302 49.148 44.3902 49.1342C49.5902 48.6449 53.388 46.8756 53.4444 44.9222C53.4444 44.9129 53.4493 44.908 53.4538 44.8942C53.4538 44.88 53.4489 44.8658 53.4489 44.852C53.4538 44.8378 53.6702 43.6707 53.6702 42.4804C53.6707 42.2542 53.6613 42.0329 53.6471 41.8164Z" fill="white"/>
<path d="M53.652 36.9129C53.3507 37.2658 52.9649 37.6093 52.4898 37.9244C52.4756 37.9338 52.4618 37.9431 52.4427 37.9529C50.1227 39.4916 46.0569 40.4044 41.5485 40.4044C41.0778 40.4044 40.6263 40.3951 40.1836 40.376C40.6965 41.6138 41.0071 42.9547 41.0729 44.3618C41.228 44.3618 41.3836 44.3667 41.548 44.3667C45.7929 44.3667 49.7645 43.4916 51.9151 42.0751C51.9245 42.0702 51.9245 42.0658 51.9294 42.0702C51.9387 42.0609 51.9529 42.0467 51.9671 42.0373C52.6258 41.5996 53.412 40.8987 53.4449 40.0373V40.0324C53.4449 40.0276 53.4449 40.0231 53.4498 40.0138C53.4449 40.0089 53.4449 40.0044 53.4449 39.9996C53.4449 39.9618 53.4498 39.9244 53.4591 39.8867C53.6334 38.8182 53.6707 38.028 53.6707 37.548C53.6707 37.3742 53.6663 37.1622 53.652 36.9129Z" fill="white"/>
<path d="M53.6469 32.0093C53.3504 32.3671 52.9646 32.7107 52.494 33.0258C52.4798 33.0351 52.4611 33.0444 52.4469 33.0542C50.1175 34.5929 46.0518 35.5107 41.5482 35.5107C39.4869 35.5107 37.5198 35.3178 35.7695 34.96C37.4353 36.0849 38.8046 37.6142 39.7366 39.4071C40.306 39.4449 40.9082 39.4636 41.5482 39.4636C45.8398 39.4636 49.826 38.5742 51.9624 37.1436C51.9766 37.1342 51.9909 37.1249 52.0046 37.1151C52.6633 36.668 53.4304 35.9622 53.4446 35.1058C53.4446 35.1058 53.4446 35.1009 53.4446 35.0964C53.4446 35.0636 53.4495 35.0213 53.4589 34.9836C53.6331 33.9107 53.6704 33.1249 53.6704 32.64C53.6704 32.4284 53.6611 32.2164 53.6469 32.0093Z" fill="white"/>
<path d="M29.6468 30.1551V30.16C29.6468 30.1693 29.6516 30.1742 29.6516 30.1836V30.1978C29.6516 30.2027 29.6516 30.2071 29.6516 30.2071C29.6703 31.0729 30.4374 31.7742 31.0965 32.2213C31.1059 32.2307 31.1201 32.2356 31.1343 32.2449C33.2756 33.68 37.2659 34.5698 41.5485 34.5698C45.8312 34.5698 49.8214 33.6804 51.9628 32.2449C51.977 32.2356 51.9912 32.2307 52.0005 32.2213C52.6592 31.7742 53.4312 31.0636 53.4454 30.2164C53.4454 30.2116 53.4454 30.2071 53.4454 30.2022C53.4454 30.1973 53.4454 30.1929 53.4454 30.188C53.4454 30.1787 53.4503 30.1693 53.4503 30.1551C53.4503 30.1502 53.4503 30.1409 53.4503 30.1364C53.4503 30.1222 53.6668 28.9551 53.6668 27.7693C53.6668 27.548 53.6619 27.3271 53.6481 27.1151C53.3516 27.4729 52.9659 27.8116 52.4903 28.1267C50.1703 29.6844 46.081 30.6116 41.549 30.6116C37.017 30.6116 32.9232 29.6844 30.6032 28.1267C30.1325 27.8116 29.7512 27.4724 29.4503 27.1196C29.441 27.3316 29.4316 27.5431 29.4316 27.7644C29.4316 28.9502 29.6481 30.1173 29.6481 30.1267C29.6516 30.1364 29.6468 30.1458 29.6468 30.1551Z" fill="white"/>
<path d="M41.5483 24.7716C48.6634 24.7716 53.4448 22.5031 53.4448 20.3858C53.4448 18.2684 48.6639 16 41.5483 16C37.9905 16 35.0168 16.5649 32.927 17.3978C30.847 18.2307 29.6519 19.3271 29.647 20.3862C29.6519 22.5036 34.4332 24.7716 41.5483 24.7716Z" fill="white"/>
<path d="M29.6472 25.28C29.6521 25.2942 29.6521 25.3129 29.6521 25.3271C29.6708 26.1929 30.4614 26.8987 31.125 27.3413C33.2663 28.7813 37.2614 29.6707 41.5485 29.6707C45.8356 29.6707 49.8308 28.7813 51.9672 27.3413C52.6356 26.8991 53.4308 26.1884 53.445 25.3129C53.445 25.2987 53.445 25.2707 53.4499 25.2422C53.4499 25.2373 53.4499 25.2329 53.4499 25.228C53.4499 25.2187 53.6663 24.0516 53.6663 22.8609C53.6663 22.6396 53.6614 22.4187 53.6476 22.2022C51.8925 24.268 47.2005 25.7129 41.549 25.7129C35.8974 25.7129 31.2103 24.2729 29.4503 22.2071C29.441 22.4187 29.4316 22.6356 29.4316 22.8564C29.4316 24.0471 29.6481 25.2093 29.6481 25.2236C29.6521 25.2422 29.6472 25.2613 29.6472 25.28Z" fill="white"/>
<path d="M29.0733 56C35.1769 56 40.1462 51.0351 40.1462 44.9271C40.1462 44.8987 40.1413 44.8658 40.1413 44.8378C40.1413 44.8236 40.1364 44.8191 40.1364 44.8049C40.1364 44.8 40.1413 44.7956 40.1413 44.7907C40.0662 38.7484 35.1298 33.8591 29.0729 33.8591C22.9693 33.8591 18 38.824 18 44.9276C18.0004 51.0351 22.9698 56 29.0733 56ZM25.9578 41.3507C26.3107 40.4942 27.172 39.7929 27.8213 39.5058L27.9627 39.4444V38.2444C27.9627 37.8444 28.5978 37.4538 29.0733 37.4538C29.5484 37.4538 30.184 37.8444 30.184 38.2444V39.4396L30.3204 39.5053C30.9182 39.7876 31.9347 40.564 32.264 41.5431C32.3298 41.7409 32.1227 42.0324 31.9911 42.2253C31.8404 42.4324 31.596 42.5547 31.3324 42.5547C31.0031 42.5547 30.6973 42.3382 30.5938 42.0231C30.3724 41.3644 29.756 40.9218 29.0596 40.9218C28.9609 40.9218 28.848 40.9218 28.7302 40.9453C28.2173 41.0538 27.7987 41.3876 27.6053 41.844C27.3889 42.3476 27.4311 42.8556 27.7324 43.3124C28.0053 43.7267 28.4573 43.9338 29.0738 43.9338H29.1724C30.2738 43.9338 31.3373 44.5124 31.8311 45.3644C32.4333 46.4422 32.5653 47.6329 32.1747 48.5551C31.8169 49.3836 30.9653 50.0751 30.3204 50.3622L30.184 50.428V51.6093C30.184 52.0093 29.5489 52.4044 29.0733 52.4044C28.5982 52.4044 27.9627 52.0093 27.9627 51.6093V50.4329L27.8311 50.3671C27.0969 50.0093 26.1796 49.2142 25.8924 48.3156C25.8311 48.1271 25.9818 47.8778 26.156 47.6333C26.3067 47.4262 26.5511 47.2991 26.8053 47.2991C27.1489 47.2991 27.4502 47.5107 27.5489 47.8169C27.7747 48.4756 28.3867 48.9182 29.0782 48.9182C29.2333 48.9182 29.3511 48.904 29.4547 48.876C29.9769 48.7582 30.4289 48.3396 30.6031 47.8124C30.7538 47.3089 30.6689 46.796 30.3724 46.3911C30.0667 45.9724 29.5818 45.7276 29.0738 45.7276H28.9609C27.8458 45.7276 26.8951 45.2711 26.4102 44.5089C25.732 43.44 25.572 42.32 25.9578 41.3507Z" fill="#DBFD67"/>
<path d="M30.5885 33.0164C30.1227 32.7013 29.7414 32.3671 29.4498 32.0142C29.4356 32.2164 29.4312 32.4236 29.4312 32.6356C29.4312 32.7342 29.436 32.8284 29.4405 32.9271C29.8263 32.9364 30.212 32.9693 30.5885 33.0164Z" fill="white"/>
</svg>
