<svg width="39" height="39" viewBox="0 0 39 39" fill="none" xmlns="http://www.w3.org/2000/svg">
<rect y="0.168823" width="38.8312" height="38.8312" rx="7.45892" fill="#D1FF45"/>
<path fill-rule="evenodd" clip-rule="evenodd" d="M32.7915 18.7711H29.8258C29.2897 18.7711 28.8512 19.2064 28.8512 19.7408V22.2823C28.8512 22.8156 29.2886 23.2519 29.8258 23.2519H32.7915C33.3276 23.2519 33.7662 22.8167 33.7662 22.2823V19.7408C33.7662 19.2075 33.3287 18.7711 32.7915 18.7711ZM21.8952 15.4291H21.5303V15.366C21.63 15.3683 21.6934 15.3468 21.6492 15.2589C21.5824 15.127 21.8736 15.1337 21.9167 15.163C21.9926 15.2138 21.9428 15.3592 21.8952 15.4291ZM21.3965 15.5171H21.8385C21.7898 15.5904 21.6515 15.8407 21.5631 15.8407C21.5269 15.7911 21.409 15.6298 21.3965 15.5171ZM29.8416 19.7408H32.7757V22.2823H29.8416V19.7408ZM23.8195 19.7408H27.9026C27.9026 19.2075 27.4652 18.7711 26.928 18.7711H23.7934C23.2574 18.7711 22.8188 19.2064 22.8188 19.7408V22.2823C22.8188 22.8156 23.2562 23.2519 23.7934 23.2519H26.928C27.464 23.2519 27.9026 22.8167 27.9026 22.2823V20.6056H24.5878C24.5878 21.0183 24.9255 21.3543 25.3403 21.3543H26.9722V22.2823H23.8183V19.7408H23.8195ZM11.0679 19.7408H14.9664C14.9664 19.2075 14.5289 18.7711 13.9917 18.7711H10.975C10.4389 18.7711 10.0004 19.2064 10.0004 19.7408V20.5267C10.0004 21.06 10.4378 21.4964 10.975 21.4964H13.9997V22.2823H10.0004C10.0004 22.8156 10.4378 23.2519 10.975 23.2519H14.0926C14.6286 23.2519 15.0672 22.8167 15.0672 22.2823V21.4964C15.0672 20.9631 14.6298 20.5267 14.0926 20.5267H11.0679V19.7408ZM5.45483 19.7408H9.13456C9.13456 19.2075 8.69711 18.7711 8.15995 18.7711H5.19531C4.65928 18.7711 4.2207 19.2064 4.2207 19.7408V22.2823C4.2207 22.8156 4.65815 23.2519 5.19531 23.2519H8.16108C8.69712 23.2519 9.13569 22.8167 9.13569 22.2823H5.45483V19.7408ZM22.8324 14.9883C22.8131 14.9984 22.7904 15.0074 22.7598 15.0131C22.6205 15.2093 22.7043 15.1856 22.4595 15.3491C22.4595 15.6772 22.4697 15.7122 22.5468 16.0031C22.5491 16.0098 22.5468 16.0166 22.5434 16.0234C22.54 16.029 22.5343 16.0335 22.5275 16.0346C22.4686 16.047 22.3825 16.0696 22.3337 16.0786C22.3349 16.0887 22.3587 16.2748 22.3326 16.4135C22.2907 16.6311 21.7716 17.1058 21.647 17.1306C21.4747 17.1644 21.2832 17.0133 20.9829 16.8825C20.9002 16.8464 20.6225 16.6649 20.4774 16.6164C20.3573 16.577 20.2361 16.8679 20.3857 16.9468C20.4559 16.9829 20.567 17.0325 20.6021 17.1227C20.7064 17.391 20.5862 18.4261 20.3709 18.6347C20.2689 18.6347 20.1839 18.5411 20.108 18.5648C19.9731 18.6381 20.0581 19.0485 20.108 19.1207C20.9387 19.9708 20.8401 20.6 21.1925 21.0702C21.3535 21.0702 21.2481 21.2393 21.3693 21.4389C21.4022 21.5415 21.3603 21.7151 21.3421 21.7805V22.0365C21.3331 22.0635 21.324 22.0895 21.3149 22.1165V22.3409C21.29 22.4503 21.2628 22.5969 21.2401 22.6983C21.1914 22.9137 21.3807 23.0806 21.2673 23.2858C21.2673 23.4121 21.2673 23.3861 21.1925 23.4887C21.1925 23.6838 21.1461 24.0965 21.1925 24.2419C21.2243 24.3434 21.5937 24.7719 21.6866 24.8136C21.9099 24.9128 22.2385 24.8914 22.132 25.2409C21.4793 25.4405 21.0622 25.1282 20.7132 25.1236L20.6973 25.1834C20.474 25.1834 20.2961 25.1293 20.2474 25.1135C20.2474 25.0537 20.3199 24.5937 20.3437 24.5204C20.3687 24.481 20.3936 24.4415 20.4185 24.4032C20.4457 24.3254 20.3913 23.7514 20.3868 23.597C20.2474 23.4955 20.2202 23.1854 20.2202 23.0152C20.1805 22.8832 20.1805 22.7265 20.1715 22.5563C20.1681 22.4762 20.1193 22.3578 20.1499 22.2575C20.1703 22.1887 20.2485 22.1582 20.2678 22.103V21.9102C20.3041 21.7084 20.2927 21.6148 20.1715 21.4941C19.8655 21.4975 19.8235 21.5122 19.6558 21.254C19.6037 21.1739 19.1765 20.503 19.1357 20.485C18.7798 20.3305 18.8512 20.3903 18.6959 20.1163C18.6891 20.1163 18.5951 20.1479 18.5112 20.2719C18.3843 20.4613 18.1588 21.0758 18.0942 21.2912C18.0579 21.4118 18.0942 21.5437 18.0409 21.6441C18.0024 21.7162 17.8755 21.7388 17.8471 21.7884C17.7225 22.0117 17.8154 21.9947 17.5785 22.1515C17.5355 22.2067 17.5343 22.2879 17.5037 22.3544C17.4856 22.3792 17.4675 22.404 17.4505 22.4288C17.4108 22.5145 17.4924 22.669 17.4777 22.7231C17.4369 22.8629 17.3825 23.0039 17.327 23.1347C17.2182 23.3918 17.2329 23.7323 17.123 23.8901C17.0674 23.9691 16.9348 23.8924 16.8329 23.9578C16.8272 24.013 16.6663 24.3795 16.6345 24.481V25.0628C16.6651 25.1609 16.7479 25.2544 16.7229 25.3785C16.6969 25.5104 16.2345 25.5081 15.9829 25.4732C15.8152 25.4495 15.7642 25.3255 15.7676 25.1834C15.771 25.0154 16.1121 23.9228 16.0917 23.8507C15.8322 23.5609 16.1608 23.261 16.2583 22.9904C16.3059 22.8584 16.2764 22.6747 16.3285 22.5529C16.4203 22.3871 16.511 22.2214 16.6028 22.0556C16.7694 21.8989 16.6946 21.891 16.7853 21.7512C16.8635 21.6294 16.9586 21.5471 16.9031 21.3611C16.7921 20.9867 17.0323 20.4557 17.0482 20.0633C17.0062 20.0193 16.8612 20.0328 16.8431 19.9133C16.8068 19.6698 16.936 19.2391 17.0153 19.1985C17.0504 19.1804 17.0912 19.1962 17.123 19.1771C17.123 18.9944 16.9405 17.9785 17.0788 17.9277C17.1638 17.8962 17.361 17.8793 17.3984 17.8624C17.3961 17.8195 17.3666 17.727 17.3304 17.7214C17.2692 17.7135 17.1445 17.6898 17.0448 17.6673C16.7399 17.5974 17.0221 16.3999 17.0255 16.3954C17.1094 16.2849 17.4992 16.4338 17.5457 16.2455C17.676 16.0797 17.4448 15.4438 17.8902 14.6613C18.0398 14.3963 18.3276 14.1302 18.6631 14.243C18.7753 14.2813 18.7073 14.4414 18.9045 14.27C18.909 14.1697 18.8625 14.0863 18.8342 14.0028C18.5056 13.0286 19.6184 12.5009 20.3958 13.0579C20.4831 13.0929 20.5341 13.1109 20.5998 13.1594C20.6429 13.3804 20.8628 13.7728 20.6429 14.0299C20.5534 14.049 20.4434 14.0987 20.3743 14.1471C20.3732 14.2362 20.3845 14.3185 20.4015 14.3715C20.4162 14.4189 20.4446 14.438 20.3721 14.4674C20.363 14.4707 20.3664 14.5012 20.3721 14.5125C20.5534 14.5485 20.7472 14.4786 20.8684 14.4302H21.0135V14.2486H21.0826V14.1066H21.1517V14.3524H21.3331V14.4302H24.0166V14.5688H24.1356V14.0614H24.2354V14.4741H24.4643V14.7098H25.1748V14.6399H25.2927V14.6703H25.6282V14.8665H25.2927V14.8969H25.1748V14.827H24.4643V14.8969H24.1515V14.8496H24.0178V14.9917H22.8324V14.9883Z" fill="#231F20"/>
</svg>
