<svg width="40" height="39" viewBox="0 0 40 39" fill="none" xmlns="http://www.w3.org/2000/svg">
<rect x="0.740234" y="0.168823" width="38.8312" height="38.8312" rx="7.45892" fill="#D1FF45"/>
<path d="M13.55 10.3113C13.6282 10.2647 13.6781 10.3589 13.7203 10.4085C16.4359 13.8058 19.1547 17.2006 21.8701 20.5979C21.9258 20.6463 21.8836 20.7497 21.8084 20.7386C20.5082 20.7401 19.2078 20.7391 17.9076 20.7391C17.8034 20.7403 17.7037 20.6885 17.6398 20.6073C16.2908 18.9219 14.9425 17.2357 13.5934 15.55C13.5362 15.4819 13.5066 15.3938 13.5103 15.3052C13.5103 13.6767 13.5108 12.0481 13.5098 10.4197C13.5105 10.3812 13.509 10.3313 13.55 10.3113Z" fill="black"/>
<path d="M26.1093 10.3035C26.1649 10.2825 26.2261 10.3338 26.2179 10.3921C26.2199 12.0213 26.2177 13.6504 26.2189 15.2796C26.2226 15.3719 26.2024 15.4674 26.1424 15.54C25.7325 16.0528 25.322 16.5654 24.9121 17.0781C24.8437 17.1669 24.7319 17.216 24.6201 17.2103C23.3286 17.2091 22.0368 17.2111 20.7453 17.2094C20.669 17.2212 20.6256 17.1183 20.6818 17.0687C22.4729 14.8279 24.2655 12.5879 26.0575 10.3477C26.0711 10.3284 26.0884 10.3136 26.1093 10.3035Z" fill="black"/>
<path d="M17.179 23.5415C17.571 23.4813 17.9824 23.5506 18.3309 23.7411C18.6688 23.924 18.9464 24.216 19.1115 24.5633C19.2947 24.9441 19.3374 25.3893 19.2339 25.799C19.1357 26.1956 18.898 26.5555 18.5737 26.804C18.0192 27.2409 17.2064 27.3053 16.5889 26.9639C16.2335 26.7732 15.9453 26.4614 15.7826 26.0922C15.5778 25.6337 15.5751 25.0899 15.7747 24.6289C16.0154 24.0573 16.5647 23.6301 17.179 23.5415ZM17.278 24.1585C16.8846 24.218 16.5386 24.4974 16.3843 24.8624C16.2249 25.2257 16.2562 25.6662 16.4687 26.0016C16.643 26.2842 16.9401 26.4901 17.2689 26.5429C17.6031 26.6016 17.959 26.4982 18.2137 26.2751C18.5041 26.0266 18.6614 25.6346 18.6285 25.2541C18.6039 24.9145 18.4296 24.5887 18.1579 24.3826C17.9116 24.1921 17.5858 24.1079 17.278 24.1585Z" fill="black"/>
<path d="M7.49219 23.6257C7.64471 23.5842 7.80588 23.6178 7.96186 23.606C8.01739 23.6136 8.1018 23.585 8.13314 23.6477C8.144 23.7294 8.13709 23.8121 8.13808 23.8945C8.13808 24.6129 8.13783 25.3316 8.13808 26.0501C8.76793 25.263 9.39703 24.4755 10.0261 23.6879C10.059 23.6469 10.1036 23.6107 10.1587 23.6097C10.3393 23.6018 10.5202 23.6107 10.7012 23.6062C10.7688 23.6074 10.8438 23.5946 10.9016 23.6395C10.691 23.9169 10.4679 24.1847 10.2522 24.4582C9.60558 25.2677 8.95871 26.077 8.31183 26.8863C8.2637 26.945 8.2215 27.0097 8.16399 27.0605C8.10747 27.1072 8.02874 27.0926 7.96112 27.0963C7.80489 27.0909 7.64768 27.1047 7.49219 27.0854V23.6257Z" fill="black"/>
<path d="M11.8666 23.7508C11.9338 23.6597 12.0438 23.6044 12.1571 23.6069C12.2968 23.6071 12.4367 23.6044 12.5764 23.6081C12.6246 23.6029 12.6515 23.6528 12.6453 23.6952C12.6453 24.7984 12.6453 25.9019 12.6453 27.0051C12.6517 27.0476 12.6258 27.0994 12.5764 27.094C12.4034 27.096 12.2304 27.096 12.0574 27.0937C11.994 27.0955 11.9439 27.0508 11.9083 27.0032C11.6092 26.6275 11.3086 26.2531 11.0095 25.8775C10.7049 26.2568 10.4021 26.6374 10.0983 27.0175C10.0657 27.0592 10.0185 27.0942 9.96326 27.0935C9.76507 27.0979 9.56664 27.0925 9.36821 27.0957C9.31959 27.0925 9.25863 27.1081 9.22852 27.0575C10.1027 25.9513 10.9887 24.854 11.8666 23.7508ZM11.3737 25.351C11.5791 25.6065 11.7815 25.8642 11.9883 26.1181C11.9898 25.606 11.9893 25.0941 11.9888 24.582C11.7832 24.8379 11.5784 25.0944 11.3737 25.351Z" fill="black"/>
<path d="M13.4264 23.6946C13.4217 23.6556 13.443 23.6078 13.4881 23.6087C13.6621 23.6046 13.8369 23.6063 14.0111 23.608C14.061 23.6026 14.0921 23.6519 14.0842 23.6976C14.0851 24.6221 14.0846 25.5467 14.0844 26.4714C14.5681 26.4732 15.0519 26.4702 15.5354 26.4727C15.5768 26.4638 15.6028 26.5164 15.5699 26.5443C15.4441 26.7064 15.314 26.8656 15.1859 27.0265C15.1471 27.0788 15.0815 27.1001 15.0183 27.0954C14.5084 27.0936 13.9983 27.0973 13.4884 27.0936C13.4415 27.0956 13.422 27.0448 13.4264 27.0055C13.4264 25.9021 13.4262 24.7984 13.4264 23.6946Z" fill="black"/>
<path d="M19.873 23.6958C19.8616 23.6449 19.9026 23.5988 19.9542 23.6072C20.8358 23.6062 21.7171 23.6067 22.5985 23.6069C22.6392 23.6012 22.6873 23.6267 22.6834 23.6731C22.6861 23.912 22.6839 24.1511 22.6844 24.39C22.6895 24.4471 22.6594 24.4972 22.6244 24.5391C22.3699 24.8538 22.1197 25.1717 21.8645 25.4859C21.8519 25.5081 21.8099 25.5374 21.8418 25.5631C22.2273 26.0478 22.616 26.5303 23.001 27.0153C23.0289 27.0385 23.0294 27.0938 22.9837 27.0926C22.7552 27.0975 22.5264 27.095 22.2979 27.0938C22.2083 27.095 22.1577 27.0119 22.1081 26.9506C21.7541 26.5066 21.4 26.0629 21.0448 25.6201C21.0184 25.5875 20.9779 25.5404 21.0147 25.5002C21.3491 25.0757 21.6897 24.6556 22.0259 24.2321C21.5281 24.2299 21.03 24.2363 20.5325 24.2289C20.5236 25.1618 20.533 26.0952 20.5278 27.0281C20.5334 27.0716 20.4885 27.1005 20.4495 27.0945C20.2768 27.0945 20.104 27.0972 19.9312 27.0933C19.8853 27.0938 19.8668 27.0422 19.8728 27.004C19.873 25.9012 19.8728 24.7985 19.873 23.6958Z" fill="black"/>
<path d="M23.5619 23.6974C23.554 23.6529 23.5829 23.6021 23.6327 23.6078C23.7973 23.6048 23.9624 23.6065 24.1273 23.607C24.189 23.6033 24.2487 23.6322 24.285 23.6823C25.1076 24.7115 25.93 25.7409 26.7526 26.7701C26.8234 26.8651 26.9083 26.9505 26.9698 27.0524C26.9638 27.0621 26.952 27.0813 26.9461 27.0909C26.7467 27.1011 26.5465 27.0909 26.3468 27.0954C26.2681 27.0966 26.1728 27.1033 26.1208 27.0312C25.8118 26.6479 25.5057 26.2622 25.1982 25.8776C24.8936 26.2567 24.5906 26.6373 24.287 27.0171C24.2544 27.0593 24.2068 27.0939 24.1515 27.0937C23.9792 27.0961 23.807 27.0954 23.6349 27.0941C23.5836 27.1013 23.5537 27.0495 23.5619 27.0043C23.5619 25.9021 23.5621 24.7996 23.5619 23.6974ZM24.2186 24.5836C24.2179 25.0955 24.2179 25.6071 24.2186 26.119C24.424 25.8633 24.6283 25.6069 24.8329 25.3507C24.6278 25.0953 24.425 24.8378 24.2186 24.5836Z" fill="black"/>
<path d="M26.464 23.6986C26.4589 23.6603 26.4759 23.6105 26.521 23.6095C26.6852 23.6028 26.8495 23.6085 27.0137 23.6068C27.0774 23.6026 27.144 23.6235 27.1827 23.6768C27.8158 24.4671 28.4464 25.2594 29.0799 26.0491C29.0799 25.265 29.0797 24.4809 29.0799 23.6966C29.0693 23.6472 29.1078 23.5993 29.1594 23.6072C29.3332 23.6075 29.5069 23.6033 29.6804 23.6095C29.7248 23.6112 29.7409 23.6606 29.7359 23.6986C29.7359 24.8003 29.7359 25.902 29.7359 27.0038C29.7411 27.0413 29.7246 27.0921 29.6797 27.0929C29.5071 27.0978 29.3341 27.0944 29.1616 27.0946C29.1046 27.0968 29.0506 27.0694 29.017 27.0243C28.3847 26.2347 27.7546 25.4432 27.1218 24.6542C27.121 25.117 27.123 25.58 27.121 26.0427C27.1331 26.0839 27.0744 26.1192 27.0495 26.0817C26.8678 25.8613 26.6923 25.6357 26.5132 25.4134C26.4732 25.3697 26.4603 25.3109 26.4633 25.2534C26.4643 24.7351 26.4631 24.2169 26.464 23.6986Z" fill="black"/>
<path d="M30.1894 23.6727C30.1843 23.6278 30.2321 23.6019 30.2714 23.607C30.996 23.6058 31.7206 23.607 32.4452 23.6066C32.5079 23.6026 32.5736 23.6231 32.6118 23.6759C32.7402 23.8358 32.8698 23.9953 32.9959 24.1572C33.0292 24.1843 33.0043 24.2381 32.9623 24.2307C32.5835 24.2337 32.2044 24.2307 31.8253 24.232C31.8235 25.156 31.8275 26.08 31.8272 27.0041C31.8361 27.0483 31.8058 27.0991 31.7564 27.0939C31.5834 27.0954 31.4101 27.0961 31.2374 27.0937C31.2006 27.0969 31.1685 27.0643 31.1722 27.028C31.1661 26.0961 31.172 25.1639 31.167 24.232C30.8682 24.2312 30.569 24.2329 30.2704 24.2315C30.2307 24.2362 30.1833 24.2088 30.1894 24.1638C30.187 24.0002 30.1867 23.8363 30.1894 23.6727Z" fill="black"/>
</svg>
