<svg width="103" height="380" viewBox="0 0 103 380" fill="none" xmlns="http://www.w3.org/2000/svg">
<path d="M65.9245 268.324C67.4758 267.807 69.0984 265.257 68.9201 263.545C68.8845 263.242 68.6883 262.886 68.4387 262.69C67.3867 261.816 66.2811 261.174 64.7834 261.424C63.3034 261.655 62.3049 262.351 61.8234 264.027C61.8234 264.811 61.7878 265.382 61.8948 265.917C62.2335 267.718 64.2306 268.877 65.9245 268.324Z" fill="#DBFD67"/>
<path d="M37.9477 361.668C36.4142 362.275 34.8273 363.059 34.6311 365.27C35.1482 367 36.4677 367.731 37.5732 368.64C38.126 369.104 38.8214 369.086 39.499 368.943C41.5317 368.48 42.6015 366.304 42.0131 363.826C41.7278 362.596 39.3028 361.151 37.9477 361.668Z" fill="#DBFD67"/>
<path d="M6.4412 90.0507C8.08164 90.2825 9.68642 89.3552 10.0965 87.7683C10.257 87.1442 10.0965 86.431 10.043 85.5394C8.77704 83.5602 7.97465 83.1679 6.51252 83.6137C4.88991 84.0951 4.05186 85.165 4.03403 86.7698C4.0162 88.0893 5.35352 89.908 6.45903 90.0507H6.4412Z" fill="#DBFD67"/>
<path d="M-2.386 155.437C-2.76044 156.222 -2.97441 157.113 -3.0814 157.969C-3.17055 158.718 -3.0814 159.538 -2.45732 160.109C-1.81541 160.679 -1.06651 160.697 -0.0679841 160.43C1.35849 159.627 1.69727 158.647 1.28716 157.256C1.07319 156.489 0.752234 155.812 0.306463 155.187C-0.424603 154.171 -1.83324 154.26 -2.386 155.437Z" fill="#DBFD67"/>
<path d="M55.6533 19.2437C56.9907 19.2081 57.5256 18.263 57.6504 16.7652C57.4721 15.5349 57.3116 14.5364 57.0798 13.5735C56.9728 13.1099 56.5805 12.8068 56.0991 12.8246C55.6533 12.8246 55.2076 13.0921 55.0827 13.5557C54.8509 14.3937 54.6905 15.2853 54.53 16.159C54.2447 17.7459 54.7618 19.2794 55.6533 19.2616V19.2437Z" fill="#DBFD67"/>
<path d="M36.1124 32.6177C36.8791 32.6712 37.3606 32.2255 37.5567 31.53C37.8955 30.2106 37.7528 28.8733 37.3071 27.6429C37.0574 26.9654 36.469 27.1258 35.9163 27.8034C34.7573 29.0159 34.5789 30.2462 34.9891 31.6192C35.1495 32.2076 35.5061 32.5821 36.1302 32.6177H36.1124Z" fill="#DBFD67"/>
<path d="M27.8194 205.47C28.5148 205.238 28.8892 204.703 29.1389 203.811C29.2458 203.169 29.3707 202.706 29.2993 202.296C29.228 201.814 28.7644 201.618 28.3365 201.44C27.4984 201.119 26.9278 201.297 26.3216 202.117C26.0541 202.474 25.8223 202.848 25.644 203.258C25.3587 203.936 25.4835 204.578 25.9471 205.131C26.4642 205.719 27.1061 205.683 27.7837 205.452L27.8194 205.47Z" fill="#DBFD67"/>
<path d="M28.4983 119.382C28.106 120.06 27.7137 120.737 28.0347 121.789C28.3913 122.378 28.7301 122.734 29.1937 122.699C29.6038 122.663 30.0852 122.503 30.3884 122.235C31.3334 121.468 31.583 120.452 31.1373 119.578C30.8698 119.061 30.4597 118.669 29.8534 118.615C29.265 118.562 28.7836 118.829 28.4804 119.382H28.4983Z" fill="#DBFD67"/>
<path d="M23.0421 146.289C24.5042 145.897 24.7004 145.541 24.6825 143.098C23.0064 142.402 22.3824 143.615 21.6335 144.524C21.3482 144.863 21.3303 145.362 21.6156 145.772C21.9544 146.307 22.4537 146.45 23.0421 146.289Z" fill="#DBFD67"/>
<path d="M18.334 153.155C19.2077 152.548 19.6534 151.657 19.4216 150.569C19.279 149.856 18.7976 149.392 18.0487 149.321C17.3711 149.25 17.0858 149.749 16.8718 150.284C16.6222 150.926 16.6044 151.585 16.8362 152.477C17.2819 153.172 17.799 153.547 18.334 153.155Z" fill="#DBFD67"/>
<path d="M43.3333 145.683C44.5636 144.827 44.5814 143.793 44.2248 142.669C44.1178 142.33 43.7612 142.17 43.4224 142.223C42.5487 142.366 42.1029 143.008 42.0138 143.828C41.9246 144.684 41.8533 145.647 43.3333 145.683Z" fill="#DBFD67"/>
<path d="M76.1243 302.096C76.8197 302.916 77.5329 302.863 78.2996 301.9C78.4958 301.65 78.5493 301.294 78.6562 300.777C78.264 299.778 77.6221 299.421 76.7662 299.439C75.7855 299.439 75.1614 300.42 75.5893 301.276C75.7498 301.561 75.9103 301.864 76.1243 302.114V302.096Z" fill="#DBFD67"/>
<path d="M8.31358 141.047C8.31358 141.795 8.902 142.223 9.63306 142.723C11.0774 142.241 11.2557 141.974 11.1665 140.957C11.0774 139.977 10.5246 139.174 9.93619 139.192C9.25862 139.228 8.29575 140.262 8.31358 141.047Z" fill="#DBFD67"/>
<path d="M44.4199 247.818C44.7587 248.781 45.3114 249.102 46.1138 248.924C46.8984 248.746 47.1124 248.157 47.1837 247.462C47.3263 246.142 46.4883 245.821 44.616 246.677C44.4734 247.177 44.3307 247.533 44.4199 247.818Z" fill="#DBFD67"/>
<path d="M57.3482 282.606C57.8474 283.23 58.7746 283.248 59.363 282.695C59.8445 282.232 59.8088 281.554 59.2561 280.984C58.8638 280.573 58.3823 280.342 57.6156 280.502C56.7954 281.233 56.7954 281.929 57.3482 282.606Z" fill="#DBFD67"/>
<path d="M40.6935 326.755C40.6935 326.755 41.1214 326.452 41.0858 326.38C40.854 325.774 40.5152 325.204 40.2834 324.597C40.0516 324.009 39.695 323.652 39.0709 323.652C38.429 323.652 38.0724 324.062 37.8941 324.829C38.5716 326.059 39.7128 326.273 40.6757 326.755H40.6935Z" fill="#DBFD67"/>
<path d="M18.6722 217.167C18.8149 217.024 18.8327 216.774 18.9219 216.346C17.959 215.098 17.7629 215.027 17.1388 215.562C16.3186 216.257 16.1581 217.006 16.693 217.559C17.1923 218.094 17.8342 217.969 18.6901 217.149L18.6722 217.167Z" fill="#DBFD67"/>
<path d="M11.4522 161.464C11.4522 161.571 11.5235 161.677 11.6483 161.963C12.1297 162.64 12.6647 162.854 13.1461 162.426C13.788 161.874 13.8237 161.018 13.3422 160.322C13.0748 159.948 12.6647 159.68 12.2011 159.841C11.4343 160.108 11.3452 160.75 11.4522 161.464Z" fill="#DBFD67"/>
<path d="M82.8828 195.021C82.4905 193.737 81.7595 193.88 81.0462 194.379C80.4578 194.789 80.333 195.645 80.654 196.18C80.9927 196.733 81.813 196.608 82.6154 195.823C82.758 195.681 82.7937 195.431 82.8828 195.021Z" fill="#DBFD67"/>
<path d="M27.5708 45.9728C28.391 46.2224 28.8724 45.848 29.0686 45.0991C29.1934 44.6355 29.0151 44.1897 28.5693 43.9757C27.963 43.7083 27.5173 44.0292 27.1072 44.475C26.8754 44.7425 26.6971 45.0099 26.8932 45.527C27.1785 45.7766 27.3568 45.9193 27.5708 45.9728Z" fill="#DBFD67"/>
<path d="M7.11927 153.386C7.01228 152.904 6.60217 152.637 6.13857 152.762C5.85328 152.833 5.53232 153.1 5.42533 153.35C5.26486 153.742 5.21137 154.206 5.2292 154.634C5.26486 155.615 5.85328 155.775 7.1371 154.937C7.19059 154.259 7.22626 153.814 7.1371 153.404L7.11927 153.386Z" fill="#DBFD67"/>
<path d="M33.5078 251.955C33.9179 251.83 34.1319 251.759 34.2924 251.598C34.7738 251.063 34.9878 250.457 34.3993 249.869C33.9536 249.423 33.0442 249.405 32.5984 249.869C32.0278 250.457 32.2418 251.063 32.7232 251.598C32.8659 251.759 33.0799 251.848 33.49 251.973L33.5078 251.955Z" fill="#DBFD67"/>
<path d="M7.67199 266.291C7.13706 265.881 6.28118 266.059 6.01372 266.647C5.63927 267.468 6.20986 267.789 6.88743 267.967C6.99442 267.985 7.1014 267.967 7.40452 267.913C8.2604 267.361 8.27824 266.79 7.67199 266.309V266.291Z" fill="#DBFD67"/>
<path d="M83.292 86.2347C83.4168 85.6819 83.4703 85.254 83.4168 84.8617C83.399 84.7191 83.1137 84.5408 82.9354 84.5229C82.347 84.5229 81.7229 85.1649 81.7942 85.8246C81.9012 86.6983 82.454 86.7875 83.2742 86.2347H83.292Z" fill="#DBFD67"/>
<path d="M45.9173 313.525C45.632 313.044 44.8831 313.026 44.4908 313.525C43.9381 314.203 44.1342 314.738 45.1149 315.059C46.0599 314.773 46.3452 314.256 45.9173 313.525Z" fill="#DBFD67"/>
<path d="M3.28524 130.402C3.71318 130.188 3.82017 129.724 3.69535 129.278C3.51704 128.654 3.07127 128.458 2.28671 128.815C2.07274 129.261 1.91226 129.599 2.00142 129.867C2.19756 130.455 2.69682 130.705 3.28524 130.402Z" fill="#DBFD67"/>
<path d="M3.40881 137.713C2.80256 137.909 2.58859 138.372 2.89171 139.157C3.48013 139.531 3.89024 139.478 4.26469 139.193C4.63914 138.907 4.81745 138.497 4.56781 138.069C4.31818 137.641 3.83675 137.588 3.40881 137.73V137.713Z" fill="#DBFD67"/>
<path d="M12.754 250.35C12.861 251.384 13.3425 251.687 14.0913 251.313C14.5015 251.099 14.6619 250.6 14.4123 250.172C13.9487 249.405 13.3781 249.548 12.754 250.35Z" fill="#DBFD67"/>
<path d="M40.5326 93.4205C40.8179 93.1887 40.9249 92.8855 40.8001 92.5289C40.6039 92.0475 40.2473 91.8514 39.748 92.0118C39.5519 92.0653 39.3914 92.2615 39.1418 92.6002C39.1596 93.0103 39.2131 93.26 39.3558 93.4026C39.7124 93.7771 40.1403 93.7414 40.5326 93.4383V93.4205Z" fill="#DBFD67"/>
<path d="M2.92831 103.014C3.69504 103.424 4.12298 103.014 4.26562 102.033C3.65938 101.195 3.08879 101.124 2.64302 101.873C2.39338 102.265 2.50037 102.782 2.91048 103.014H2.92831Z" fill="#DBFD67"/>
<path d="M36.7172 221.589C36.111 222.053 36.3428 222.534 37.0382 223.033C37.8584 222.944 38.3399 222.677 38.0902 221.964C37.8762 221.375 37.2343 221.197 36.7172 221.589Z" fill="#DBFD67"/>
<path d="M22.2918 318C21.6856 318.481 21.4003 318.909 21.9352 319.391C22.2918 319.712 22.7554 319.694 23.0407 319.302C23.5221 318.624 23.3082 318.143 22.3096 318H22.2918Z" fill="#DBFD67"/>
<path d="M101.033 123.395C100.784 123.822 100.944 124.286 101.354 124.5C101.8 124.732 102.21 124.464 102.442 124.072C102.71 123.644 102.585 123.252 101.996 122.895C101.533 123.038 101.194 123.163 101.033 123.395Z" fill="#DBFD67"/>
<path d="M81.9551 70.4013C81.9551 70.0625 81.7589 69.7416 81.3845 69.7594C80.4929 69.7594 80.3681 70.3835 80.5464 71.2572C81.5093 71.5782 81.9372 71.2037 81.9551 70.4013Z" fill="#DBFD67"/>
<path d="M45.6513 197.018C45.9366 196.679 46.1327 196.269 45.6513 195.912C45.2055 195.591 44.5636 195.841 44.4209 196.447C44.3496 196.679 44.5993 197.018 44.9024 197.339C45.2947 197.268 45.5086 197.178 45.6334 197.036L45.6513 197.018Z" fill="#DBFD67"/>
<path d="M45.6325 364.271C45.1689 364.468 45.1154 364.949 45.4185 365.341C45.793 365.823 46.2566 366.001 46.7559 365.217C46.631 364.414 46.2566 364.004 45.6325 364.271Z" fill="#DBFD67"/>
<path d="M14.0006 302.523C13.6262 302.755 13.4836 303.183 13.7154 303.611C13.9293 304.039 14.6604 304.057 15.0348 303.575C15.1953 303.379 15.124 302.987 15.017 302.541C14.5712 302.416 14.2325 302.381 14.0006 302.541V302.523Z" fill="#DBFD67"/>
<path d="M30.8163 266.131C30.7271 266.399 30.8698 266.755 31.0124 267.219C31.4225 267.219 31.797 267.165 32.0109 266.951C32.3854 266.577 32.3141 266.113 31.8861 265.828C31.4582 265.543 30.9946 265.614 30.8163 266.131Z" fill="#DBFD67"/>
<path d="M83.2031 207.842C82.5612 207.877 82.1689 208.145 82.3294 208.609C82.4899 209.036 82.9891 209.126 83.3814 208.894C83.7915 208.626 83.8094 208.234 83.2031 207.842Z" fill="#DBFD67"/>
<path d="M101.158 66.3001C101.64 66.1218 101.675 65.6582 101.426 65.3016C101.283 65.0876 100.891 65.052 100.427 65.0698C100.267 65.5156 100.195 65.89 100.356 66.0683C100.499 66.2645 100.926 66.3714 101.158 66.3001Z" fill="#DBFD67"/>
<path d="M12.3611 76.1073C12.5929 75.501 12.5394 75.0909 12.0223 75.0196C11.523 74.9661 11.2555 75.2514 11.2912 75.7328C11.3447 76.2678 11.737 76.3213 12.3611 76.0895V76.1073Z" fill="#DBFD67"/>
<path d="M6.33453 216.56C6.13839 216.596 5.90659 217.024 5.90659 217.274C5.90659 217.826 6.3702 217.862 7.01211 217.648C7.22608 216.863 7.01211 216.4 6.33453 216.542V216.56Z" fill="#DBFD67"/>
<path d="M16.9259 202.545C16.9259 202.545 17.0507 202.741 17.1398 202.759C17.6569 202.866 17.8709 202.634 17.7283 201.992C17.1042 201.814 16.8367 202.028 16.9437 202.545H16.9259Z" fill="#DBFD67"/>
</svg>
