<svg width="169" height="84" viewBox="0 0 169 84" fill="none" xmlns="http://www.w3.org/2000/svg">
<path d="M28.2019 20.6875H25.861L28.7374 9.9775H32.1493L31.6138 16.6024L31.4761 17.3215H31.5373L31.7974 16.6024L34.8268 9.9775H38.3611L35.5 20.6875H33.1744L34.8574 14.5063L35.0563 13.8484H35.0104L34.7503 14.3992L31.828 20.6875H29.5789L29.992 14.3992L30.0379 13.8484H29.992L29.8084 14.5063L28.2019 20.6875ZM40.6776 20.7946C38.6121 20.7946 37.3881 19.6777 37.9848 17.4133L39.9891 9.9775H42.4677L40.4022 17.7499C40.2033 18.469 40.3869 18.8056 40.8765 18.8056C41.3661 18.8056 41.7333 18.469 41.9322 17.7499L44.013 9.9775H46.4916L44.5026 17.4133C43.9059 19.6777 42.7431 20.7946 40.6776 20.7946ZM47.5271 20.6875H45.1862L48.0626 9.9775H51.4745L50.939 16.6024L50.8013 17.3215H50.8625L51.1226 16.6024L54.152 9.9775H57.6863L54.8252 20.6875H52.4996L54.1826 14.5063L54.3815 13.8484H54.3356L54.0755 14.3992L51.1532 20.6875H48.9041L49.3172 14.3992L49.3631 13.8484H49.3172L49.1336 14.5063L47.5271 20.6875ZM35.0255 32.6875H30.971L33.8474 21.9775H37.3052C38.8352 21.9775 40.0286 22.6048 39.5237 24.502L39.4013 24.9304C39.0647 26.0626 38.468 26.7358 37.5194 27.0265L37.5041 27.0571C38.4068 27.3631 38.7128 28.0975 38.4221 29.1991L38.2385 29.9029C37.7183 31.8307 36.7391 32.6875 35.0255 32.6875ZM35.8211 23.89L35.1785 26.3227H35.9894C36.3872 26.3227 36.7085 26.0626 36.8768 25.4353L37.0757 24.7315C37.244 24.1348 37.0451 23.89 36.632 23.89H35.8211ZM34.7042 28.0516L33.9851 30.775H34.8266C35.2856 30.775 35.5916 30.5149 35.7752 29.8723L36.02 28.9543C36.2189 28.2964 35.9894 28.0363 35.561 28.0516H34.7042ZM38.5104 32.6875L43.3299 21.9775H46.7877L45.9309 32.6875H43.4982L43.6971 31.0198H41.754L41.0655 32.6875H38.5104ZM44.3856 24.655L42.5649 29.0614H43.9266L44.4621 24.655H44.3856ZM49.7271 32.6875H47.2332L50.1096 21.9775H52.6035L49.7271 32.6875Z" fill="#DBFD67"/>
<rect width="84" height="84" rx="4" fill="#242424"/>
<path d="M33.6964 64.821L33.5587 65.3259C33.0997 67.3302 32.0593 68.034 30.4834 68.034H28.7239L27.4999 72.5781H25.006L27.8824 61.8681H31.4473C33.0691 61.8681 34.1707 62.7708 33.6964 64.821ZM31.0648 65.3106L31.2484 64.5915C31.4167 63.9642 31.2025 63.75 30.7741 63.75H29.8714L29.2135 66.1521H30.1162C30.5599 66.1521 30.8965 65.9379 31.0648 65.3106ZM36.5206 72.6852C34.4551 72.6852 33.2311 71.5683 33.8278 69.3039L35.8321 61.8681H38.3107L36.2452 69.6405C36.0463 70.3596 36.2299 70.6962 36.7195 70.6962C37.2091 70.6962 37.5763 70.3596 37.7752 69.6405L39.856 61.8681H42.3346L40.3456 69.3039C39.7489 71.5683 38.5861 72.6852 36.5206 72.6852ZM43.4007 72.5781H41.0292L43.9056 61.8681H46.5066L47.0727 68.3094H47.1339L47.3481 67.1925L48.6945 61.8681H51.066L48.2049 72.5781H45.6651L45.0531 66.1368H45.0072L44.7624 67.269L43.4007 72.5781ZM55.8288 72.5781H49.8924L52.7688 61.8681H58.5981L58.0779 63.8265H54.7272L54.1611 66.0297H57.0069L56.502 67.8657H53.6562L52.9218 70.6197H56.349L55.8288 72.5781Z" fill="#EA337D"/>
<path d="M42.7048 52.3782C35.215 52.3782 27.7249 52.3751 20.2348 52.3866C19.8669 52.3874 19.7668 52.3004 19.7676 51.9256C19.7791 44.243 19.7776 36.5605 19.7706 28.8779C19.7706 28.5986 19.8284 28.497 20.127 28.5093C20.7289 28.5339 21.334 28.4923 21.9343 28.5254C22.3069 28.5454 22.3823 28.4061 22.3738 28.0675C22.3523 27.2469 22.39 26.4249 22.3569 25.6059C22.3415 25.2272 22.4832 25.1771 22.811 25.1779C26.1069 25.1887 29.4037 25.1756 32.6996 25.1949C33.1037 25.1972 33.1807 25.0802 33.1768 24.7022C33.1561 22.9843 33.1599 21.2647 33.1752 19.5467C33.1776 19.238 33.0867 19.1395 32.7858 19.1657C32.5056 19.1903 32.2216 19.1657 31.9399 19.171C31.7774 19.1749 31.7151 19.1141 31.7159 18.9463C31.7212 17.6509 31.7228 16.3555 31.7174 15.06C31.7159 14.7783 31.9106 14.8421 32.0638 14.8421C33.7056 14.8391 35.3474 14.8399 36.9891 14.8399C42.4016 14.8399 47.8134 14.8391 53.2266 14.8406C53.7927 14.8406 53.721 14.7814 53.7238 15.3287C53.728 16.4832 53.7155 17.6378 53.7322 18.7916C53.737 19.0895 53.6619 19.1888 53.3532 19.1788C52.7238 19.1572 52.7238 19.1749 52.7238 19.7984C52.7238 21.4533 52.7328 23.1074 52.7155 24.7615C52.712 25.0925 52.785 25.1941 53.1341 25.1926C56.776 25.1787 60.4187 25.1887 64.062 25.1771C64.3903 25.1764 64.5029 25.2433 64.4911 25.5959C64.4619 26.4672 64.4876 27.3401 64.4765 28.2121C64.4737 28.44 64.5342 28.5201 64.7769 28.5231C65.6518 28.5347 65.6511 28.5439 65.6511 29.4337C65.6511 36.9238 65.649 44.4139 65.6608 51.904C65.6622 52.2927 65.5669 52.3897 65.1768 52.3889C57.6857 52.3743 50.1952 52.3782 42.7048 52.3782ZM64.4807 42.4603C64.4807 39.6778 64.4758 36.8946 64.4876 34.112C64.489 33.7926 64.4341 33.6718 64.0745 33.6725C59.2149 33.6856 54.3539 33.6841 49.4942 33.6748C49.1813 33.6741 49.0846 33.7479 49.0846 34.0743C49.0944 39.6524 49.0937 45.2313 49.0853 50.8095C49.0846 51.092 49.1514 51.1805 49.4449 51.1782C50.7008 51.1682 51.9581 51.189 53.2141 51.1897C56.8303 51.192 60.4472 51.1851 64.0634 51.1974C64.4035 51.1989 64.4897 51.1089 64.4883 50.7702C64.4737 48 64.48 45.2306 64.4807 42.4603ZM36.3333 42.4288C36.3333 39.6332 36.3298 36.8368 36.3396 34.0412C36.3403 33.7556 36.2679 33.6741 35.9773 33.6748C31.0908 33.6841 26.204 33.6833 21.3178 33.6764C21.0484 33.6756 20.9376 33.721 20.9383 34.0281C20.9476 39.6324 20.9468 45.2375 20.9406 50.8418C20.9406 51.1005 21.0006 51.1959 21.2793 51.1951C26.1655 51.1813 31.0516 51.1743 35.9376 51.1782C36.254 51.1782 36.3444 51.102 36.3424 50.7779C36.3291 47.9954 36.334 45.2121 36.3333 42.4288ZM39.4572 44.5863C39.4572 46.6638 39.4606 48.7412 39.4523 50.8187C39.4516 51.0642 39.4829 51.1797 39.7764 51.1774C41.7514 51.1643 43.7257 51.1651 45.7007 51.1766C45.9747 51.1782 46.0401 51.0966 46.0394 50.831C46.0317 46.7661 46.0331 42.7005 46.0352 38.6356C46.0352 38.1669 45.9399 37.7182 45.7473 37.2933C45.1082 35.8839 43.588 35.0895 42.1172 35.3905C40.5594 35.7092 39.4732 37.0131 39.4613 38.6241C39.446 40.6107 39.4579 42.5989 39.4572 44.5863ZM37.5023 41.1757C37.5023 42.3172 37.5023 43.4587 37.5023 44.6002C37.5023 46.6776 37.5051 48.7551 37.4988 50.8333C37.4982 51.0735 37.5281 51.192 37.8222 51.2089C38.2124 51.2313 38.2784 51.0897 38.277 50.7317C38.2645 46.7307 38.2603 42.729 38.2729 38.728C38.2805 36.3811 39.9495 34.4461 42.1297 34.2082C44.9469 33.9004 47.191 35.8947 47.2007 38.7288C47.2105 41.3836 47.2035 44.0383 47.2035 46.6931C47.2035 48.0778 47.2028 49.4632 47.2077 50.8479C47.2091 50.9626 47.1402 51.1096 47.305 51.1851C47.6382 51.3391 47.9247 51.1582 47.9247 50.7902C47.9247 44.3909 47.9212 37.9906 47.9309 31.5912C47.9316 31.2641 47.8343 31.1886 47.5213 31.1902C44.3154 31.2018 41.1088 31.2025 37.9029 31.191C37.5816 31.1894 37.4975 31.2764 37.4982 31.5966C37.5079 34.7886 37.5037 37.9822 37.5023 41.1757ZM42.6999 17.9872V17.9841C42.9176 17.9841 43.1353 17.9841 43.3529 17.9841C46.2758 17.9841 49.1987 17.9773 52.1202 17.9934C52.4839 17.9957 52.5854 17.8848 52.559 17.5416C52.5312 17.1844 52.5284 16.8219 52.5597 16.4663C52.5903 16.113 52.4769 16.0176 52.1188 16.0191C48.8378 16.0329 45.556 16.0268 42.275 16.0268C39.275 16.0268 36.2763 16.0306 33.2769 16.0214C32.9882 16.0206 32.8604 16.0753 32.8828 16.397C32.912 16.8181 32.8997 17.2429 32.8874 17.6655C32.8805 17.8995 32.9266 17.9965 33.2022 17.9957C36.3681 17.9826 39.5337 17.9872 42.6999 17.9872ZM42.9482 26.451C45.691 26.451 48.4344 26.4464 51.1765 26.458C51.4748 26.4595 51.5791 26.3887 51.5597 26.0792C51.5325 25.6321 51.5277 25.181 51.561 24.7346C51.5861 24.3828 51.4588 24.3128 51.1299 24.3136C47.7209 24.3251 44.3112 24.3204 40.9016 24.3204C38.8382 24.3204 36.7742 24.3274 34.7109 24.3143C34.403 24.3128 34.3114 24.4036 34.3276 24.7053C34.3514 25.1525 34.3545 25.6036 34.3267 26.05C34.3075 26.3633 34.3929 26.4595 34.7201 26.458C37.4627 26.4441 40.2047 26.4503 42.9482 26.451ZM42.7764 23.1466C44.0574 23.1466 45.3384 23.1397 46.6194 23.1521C46.8829 23.1544 46.9719 23.0866 46.9678 22.8118C46.9532 21.6973 46.9552 20.5827 46.9664 19.469C46.9685 19.2334 46.8968 19.1641 46.6604 19.1649C44.0991 19.1718 41.5372 19.1718 38.9759 19.1626C38.7131 19.1619 38.6234 19.2288 38.6268 19.5043C38.6421 20.6058 38.6421 21.7072 38.6268 22.8087C38.6234 23.0797 38.7033 23.1551 38.9718 23.1521C40.2402 23.1389 41.5087 23.1466 42.7764 23.1466ZM42.9885 27.6218C40.2075 27.6218 37.4265 27.6303 34.6447 27.6133C34.1897 27.611 34.3329 27.8989 34.3121 28.1228C34.2906 28.3553 34.2906 28.5354 34.6339 28.5246C35.466 28.4993 36.3006 28.5316 37.1324 28.5085C37.446 28.5 37.5315 28.6024 37.5058 28.8964C37.4829 29.1635 37.5148 29.4352 37.4968 29.7031C37.4794 29.9548 37.567 30.0348 37.8222 30.031C38.7318 30.0171 39.6415 30.0256 40.5518 30.0256C42.8835 30.0256 45.2167 30.0195 47.5491 30.0333C47.8676 30.0356 47.9483 29.9294 47.9254 29.6384C47.9045 29.3713 47.9379 29.0996 47.917 28.8317C47.8968 28.5762 47.99 28.5085 48.2397 28.5116C49.2133 28.5246 50.1876 28.4993 51.1612 28.5254C51.5096 28.5347 51.6014 28.43 51.5812 28.0959C51.5638 27.8088 51.6014 27.6056 51.1765 27.6087C48.449 27.631 45.7188 27.6202 42.9885 27.6218ZM58.0299 26.3541V26.3556C56.3887 26.3556 54.7468 26.3625 53.1049 26.3487C52.8149 26.3464 52.7252 26.4249 52.7391 26.7143C52.7614 27.1877 52.7593 27.6641 52.7363 28.1375C52.7224 28.4223 52.8059 28.5146 53.1 28.5093C54.0361 28.4908 54.9728 28.5023 55.9088 28.5023C58.2434 28.5023 60.5779 28.497 62.9118 28.5093C63.2178 28.5108 63.3117 28.4238 63.2964 28.1213C63.2727 27.6611 63.2727 27.1976 63.2957 26.7366C63.3103 26.4402 63.2282 26.3441 62.9166 26.3471C61.2887 26.3625 59.6586 26.3541 58.0299 26.3541ZM28.3614 26.3541C26.8628 26.3541 25.3642 26.3587 23.8656 26.3487C23.6223 26.3471 23.5269 26.4018 23.5369 26.6642C23.5569 27.1761 23.5538 27.6887 23.5385 28.2006C23.5315 28.4323 23.6 28.5077 23.8386 28.507C26.8359 28.4993 29.8332 28.4985 32.8305 28.507C33.0944 28.5077 33.1561 28.4123 33.1483 28.1706C33.1322 27.6842 33.1245 27.1961 33.1476 26.7112C33.1614 26.4187 33.066 26.3448 32.7796 26.3479C31.3072 26.3617 29.8339 26.3541 28.3614 26.3541ZM48.1298 21.14C48.1298 21.7157 48.1375 22.2922 48.1263 22.868C48.1215 23.0866 48.1945 23.1544 48.4129 23.1521C49.3725 23.1421 50.3322 23.1443 51.2919 23.1521C51.4915 23.1536 51.5583 23.0874 51.5569 22.8865C51.5499 21.735 51.5499 20.5827 51.5569 19.4313C51.5583 19.2288 51.4873 19.1649 51.2905 19.1664C50.3308 19.1726 49.3712 19.1742 48.4108 19.1641C48.1917 19.1619 48.1222 19.2365 48.127 19.452C48.1375 20.0131 48.1298 20.5766 48.1298 21.14ZM37.4662 21.1769C37.4662 20.625 37.4557 20.0731 37.471 19.5221C37.4787 19.2688 37.4251 19.1557 37.1393 19.1619C36.3055 19.1788 35.4721 19.1742 34.6377 19.1626C34.4076 19.1595 34.326 19.2249 34.3283 19.4659C34.3399 20.5943 34.3399 21.7235 34.3283 22.8526C34.326 23.0982 34.4153 23.1544 34.6408 23.1512C35.4744 23.1413 36.309 23.1389 37.1421 23.1536C37.3924 23.1582 37.4801 23.0897 37.4717 22.8318C37.4543 22.2807 37.4662 21.7288 37.4662 21.1769ZM27.5825 31.0678C27.5825 31.4527 27.5902 31.8375 27.5794 32.2224C27.5732 32.4318 27.6349 32.5203 27.8612 32.5156C28.5023 32.5025 29.1435 32.5025 29.7847 32.5141C30.0125 32.5179 30.0664 32.4263 30.0641 32.2185C30.0556 31.4619 30.0556 30.7053 30.0641 29.9486C30.0664 29.7508 30.0033 29.68 29.8001 29.6831C29.1458 29.6939 28.4916 29.6946 27.8381 29.6838C27.6294 29.68 27.5741 29.7593 27.5794 29.9525C27.5902 30.3235 27.5825 30.696 27.5825 31.0678ZM59.3602 31.1055C59.3602 31.4773 59.3693 31.8498 59.3575 32.2208C59.3505 32.434 59.42 32.5171 59.6419 32.5133C60.2831 32.5025 60.9243 32.5025 61.5654 32.5149C61.7935 32.5194 61.8478 32.4248 61.8457 32.2185C61.838 31.4619 61.838 30.7053 61.845 29.9486C61.8464 29.7523 61.7838 29.6793 61.58 29.6831C60.9263 29.6939 60.2726 29.6931 59.6182 29.6831C59.4131 29.68 59.3512 29.7546 59.3561 29.9517C59.3686 30.3358 59.3609 30.7207 59.3602 31.1055ZM23.9333 31.0716C23.9333 31.468 23.9387 31.8644 23.931 32.2601C23.9271 32.4379 23.9879 32.5141 24.1727 32.5126C24.837 32.5064 25.502 32.5064 26.1663 32.5126C26.3448 32.5141 26.4172 32.4517 26.4156 32.2678C26.4095 31.4881 26.4095 30.7084 26.4164 29.9286C26.4179 29.747 26.3564 29.6823 26.1731 29.6838C25.5089 29.6916 24.8438 29.6946 24.1796 29.6831C23.9633 29.6793 23.9256 29.7754 23.931 29.9594C23.9402 30.3296 23.9333 30.7006 23.9333 31.0716ZM31.2363 31.0778C31.2363 31.4619 31.2418 31.8468 31.234 32.2308C31.2302 32.4125 31.2618 32.5187 31.4811 32.5149C32.1469 32.5041 32.8135 32.5079 33.4801 32.5126C33.6425 32.5133 33.7072 32.4556 33.7063 32.2886C33.701 31.4942 33.701 30.6999 33.7063 29.9056C33.7079 29.737 33.644 29.6838 33.4808 29.6854C32.8143 29.6916 32.1485 29.6954 31.4819 29.6838C31.2626 29.68 31.2302 29.7824 31.234 29.9633C31.2418 30.3343 31.2363 30.7061 31.2363 31.0778ZM54.5611 31.1093C54.5611 30.7383 54.55 30.3674 54.5646 29.9971C54.5736 29.7762 54.5236 29.6754 54.2732 29.6823C53.6341 29.6985 52.9936 29.6962 52.3552 29.6831C52.132 29.6784 52.0701 29.7593 52.0729 29.9717C52.0819 30.726 52.0833 31.4811 52.0729 32.2354C52.0694 32.461 52.1577 32.5187 52.367 32.5156C53.0068 32.5056 53.6466 32.5041 54.2857 32.5156C54.5103 32.5194 54.5715 32.434 54.5639 32.2231C54.5514 31.8514 54.5604 31.4803 54.5611 31.1093ZM58.1878 31.1294C58.1878 30.7322 58.1829 30.335 58.1905 29.9387C58.1933 29.7716 58.1662 29.68 57.9638 29.6838C57.2983 29.6946 56.6321 29.6923 55.9666 29.6838C55.7823 29.6816 55.7218 29.7485 55.7232 29.9294C55.7301 30.6976 55.7329 31.4657 55.7218 32.2339C55.719 32.4594 55.8066 32.5172 56.0159 32.5141C56.6432 32.5048 57.2712 32.4995 57.8978 32.5164C58.1446 32.5226 58.2017 32.4294 58.1919 32.2047C58.1773 31.8468 58.1878 31.4881 58.1878 31.1294ZM22.7664 31.1148C22.7664 30.743 22.7564 30.3704 22.7702 29.9994C22.7779 29.7816 22.7356 29.6692 22.4801 29.6816C22.0575 29.7007 21.6342 29.6923 21.2108 29.6816C21.0168 29.6761 20.9376 29.7331 20.9406 29.9402C20.9506 30.7091 20.9499 31.4788 20.9414 32.2485C20.9391 32.4509 21.0122 32.5194 21.21 32.5149C21.6326 32.5048 22.0567 32.5033 22.4793 32.5156C22.6925 32.5218 22.7787 32.4541 22.7702 32.2316C22.7564 31.8591 22.7672 31.4865 22.7664 31.1148ZM50.9053 31.1063C50.9053 30.7222 50.899 30.3373 50.908 29.9533C50.9129 29.767 50.8684 29.6723 50.6549 29.6793C50.2196 29.6931 49.7835 29.6923 49.3482 29.68C49.1451 29.6738 49.0846 29.7462 49.0867 29.9448C49.0958 30.7006 49.0992 31.4565 49.0853 32.2116C49.0812 32.4533 49.1709 32.521 49.3983 32.5133C49.8079 32.4995 50.2182 32.4995 50.6278 32.5133C50.8531 32.521 50.915 32.4302 50.9087 32.2201C50.8962 31.8498 50.9053 31.478 50.9053 31.1063ZM36.3347 31.0678C36.3347 30.6968 36.3278 30.325 36.3382 29.954C36.3437 29.7662 36.2992 29.6708 36.0857 29.6808C35.7658 29.6954 35.4452 29.6946 35.1257 29.68C34.9187 29.6708 34.8648 29.7501 34.8671 29.9463C34.8763 30.7145 34.8763 31.4835 34.8671 32.2516C34.8648 32.4579 34.9441 32.5194 35.138 32.5133C35.4452 32.5025 35.7531 32.4987 36.06 32.5141C36.2874 32.5256 36.3458 32.4286 36.3389 32.2201C36.3264 31.8367 36.3347 31.4527 36.3347 31.0678ZM63.0217 31.1063C63.0217 31.2086 63.0217 31.311 63.0217 31.4134C63.0251 32.5818 63.0237 32.578 64.2088 32.5149C64.3958 32.5048 64.4862 32.4641 64.4841 32.2547C64.4751 31.475 64.4758 30.6953 64.4841 29.9155C64.4862 29.7185 64.3951 29.6816 64.2261 29.6854C63.9069 29.6931 63.587 29.6992 63.2678 29.6831C63.0516 29.6723 63.014 29.7708 63.0189 29.9563C63.0279 30.3389 63.021 30.7222 63.0217 31.1063Z" fill="white"/>
<path d="M52.346 37.8009C52.346 37.0196 52.353 36.2384 52.3412 35.4579C52.3384 35.2316 52.394 35.1477 52.6381 35.1439C53.5276 35.13 53.5283 35.1208 53.5289 36.0144C53.5296 37.3714 53.5234 38.7292 53.5345 40.0862C53.5366 40.3456 53.4733 40.4411 53.1951 40.4411C52.3446 40.4418 52.3446 40.4534 52.346 39.6059C52.3467 39.004 52.346 38.4021 52.346 37.8009Z" fill="white"/>
<path d="M57.3718 37.8279C57.3718 38.583 57.362 39.3372 57.3766 40.0915C57.3822 40.3479 57.3259 40.4479 57.0435 40.4457C56.1993 40.4402 56.1986 40.4534 56.1986 39.6082C56.1986 38.2396 56.2048 36.8703 56.1944 35.5017C56.1923 35.2439 56.2507 35.1469 56.5317 35.1485C57.3738 35.153 57.3738 35.1407 57.3738 35.9851C57.3738 36.5994 57.3738 37.2128 57.3738 37.827C57.3724 37.8279 57.3718 37.8279 57.3718 37.8279Z" fill="white"/>
<path d="M61.6527 37.7996C61.6527 38.58 61.6472 39.3613 61.6562 40.1418C61.659 40.3465 61.6152 40.4305 61.385 40.4381C60.4823 40.4659 60.4844 40.4751 60.4851 39.5822C60.4865 38.2252 60.4928 36.869 60.4789 35.5127C60.4761 35.2387 60.5255 35.1341 60.8308 35.1409C61.6514 35.1587 61.6521 35.1432 61.6527 35.9576C61.6527 36.2647 61.6527 36.5718 61.6527 36.8789C61.6527 37.1854 61.6527 37.4925 61.6527 37.7996Z" fill="white"/>
<path d="M32.3356 37.7749C32.3356 37.006 32.3449 36.237 32.3303 35.4681C32.3256 35.2164 32.4026 35.1433 32.6559 35.1417C33.524 35.1356 33.5233 35.1255 33.5233 35.9984C33.5225 37.357 33.5149 38.7155 33.5302 40.074C33.5333 40.3642 33.451 40.4435 33.163 40.4389C32.3364 40.4258 32.3356 40.4389 32.3356 39.6207C32.3356 39.3128 32.3356 39.0057 32.3356 38.6978C32.3356 38.3899 32.3356 38.0828 32.3356 37.7749Z" fill="white"/>
<path d="M29.2291 37.8183C29.2291 38.5734 29.2214 39.3277 29.2345 40.0828C29.239 40.3337 29.1883 40.443 28.9027 40.4422C28.0553 40.4414 28.0561 40.4546 28.0568 39.607C28.0576 38.2508 28.0629 36.8946 28.0506 35.5391C28.0483 35.2613 28.0868 35.1312 28.4178 35.1412C29.2283 35.1651 29.2283 35.1466 29.2291 35.9755C29.2291 36.2827 29.2291 36.5898 29.2291 36.8969C29.2291 37.204 29.2283 37.5112 29.2291 37.8183Z" fill="white"/>
<path d="M25.3954 37.7994C25.3954 38.5675 25.3877 39.3357 25.4 40.1039C25.4038 40.3402 25.36 40.4403 25.0906 40.4403C24.2231 40.4403 24.2231 40.4526 24.2223 39.5874C24.2216 38.2304 24.2284 36.8734 24.2161 35.5164C24.2138 35.2447 24.2646 35.1361 24.5694 35.1408C25.3954 35.1523 25.3954 35.1361 25.3946 35.9559C25.3946 36.5701 25.3954 37.1843 25.3954 37.7994Z" fill="white"/>
<path d="M102.325 42.071L101.79 42.1641L101.793 42.1779L101.796 42.1914L102.325 42.071ZM103.038 43.8083L102.582 44.1034L102.586 44.1098L102.59 44.116L103.038 43.8083ZM104.374 44.9665L104.121 45.4472L104.374 44.9665ZM109.319 44.521L109.642 44.9575L109.645 44.9556L109.319 44.521ZM111.457 42.1156L110.992 41.834L111.457 42.1156ZM112.972 38.8193L112.457 38.6437L112.972 38.8193ZM113.952 35.1666L113.421 35.0501L113.418 35.0626L113.952 35.1666ZM114.486 31.7367L113.946 31.6783L113.945 31.6916L114.486 31.7367ZM114.397 26.8368L113.866 26.9522L113.868 26.9631L113.871 26.9739L114.397 26.8368ZM113.595 25.055L113.151 25.3682L113.157 25.3767L113.164 25.385L113.595 25.055ZM112.17 23.8523L111.917 24.3331L111.927 24.3381L112.17 23.8523ZM107.359 24.3423L107.682 24.7789L107.692 24.7711L107.359 24.3423ZM105.265 26.7031L105.73 26.9847V26.9847L105.265 26.7031ZM103.751 30.044L103.235 29.8722L103.233 29.8798L103.751 30.044ZM102.815 33.6966L102.282 33.5926H102.282L102.815 33.6966ZM102.281 37.1711L101.741 37.1127L101.74 37.12L101.739 37.1272L102.281 37.1711ZM96.2673 34.053L95.7317 33.9621L96.2673 34.053ZM97.4254 29.4204L96.9131 29.2395L96.9101 29.2486L97.4254 29.4204ZM99.4299 25.0995L98.9659 24.817L98.9615 24.8245L99.4299 25.0995ZM102.281 21.5359L102.654 21.9309L102.654 21.9306L102.281 21.5359ZM105.978 19.086L105.765 18.5861L105.761 18.5878L105.978 19.086ZM115.154 19.086L114.929 19.5806L114.939 19.5847L115.154 19.086ZM118.406 21.4914L118.824 21.1448V21.1448L118.406 21.4914ZM120.321 25.2332L119.799 25.3824L119.803 25.3952L120.321 25.2332ZM120.589 34.7212L121.125 34.8105L121.125 34.8089L120.589 34.7212ZM119.341 39.3984L118.832 39.2087L118.829 39.2176L119.341 39.3984ZM117.248 43.7192L116.788 43.4295L116.784 43.4368L117.248 43.7192ZM114.308 47.2828L113.946 46.8779L114.308 47.2828ZM101.123 49.6436L100.871 50.1249L100.877 50.1284L100.884 50.1318L101.123 49.6436ZM98.0936 47.0155L97.6491 47.3278L98.0936 47.0155ZM96.4009 43.2292L95.8733 43.3584L95.8739 43.361L96.4009 43.2292ZM101.604 39.9329C101.604 40.7043 101.666 41.4483 101.79 42.1641L102.861 41.978C102.747 41.3278 102.69 40.6463 102.69 39.9329H101.604ZM101.796 42.1914C101.957 42.8998 102.217 43.5393 102.582 44.1034L103.494 43.5132C103.206 43.0676 102.991 42.5489 102.855 41.9507L101.796 42.1914ZM102.59 44.116C102.972 44.6712 103.488 45.1136 104.121 45.4472L104.627 44.4857C104.133 44.2254 103.757 43.8957 103.486 43.5005L102.59 44.116ZM104.121 45.4472C104.786 45.797 105.593 45.9551 106.513 45.9551V44.8687C105.71 44.8687 105.091 44.7298 104.627 44.4857L104.121 45.4472ZM106.513 45.9551C107.689 45.9551 108.74 45.6258 109.642 44.9575L108.996 44.0845C108.294 44.604 107.474 44.8687 106.513 44.8687V45.9551ZM109.645 44.9556C110.537 44.2862 111.295 43.4304 111.922 42.3971L110.992 41.834C110.431 42.7607 109.763 43.5085 108.993 44.0864L109.645 44.9556ZM111.922 42.3971C112.538 41.3799 113.059 40.245 113.486 38.9948L112.457 38.6437C112.053 39.8287 111.564 40.8913 110.992 41.834L111.922 42.3971ZM113.486 38.9948C113.909 37.7548 114.242 36.5133 114.485 35.2707L113.418 35.0626C113.186 36.255 112.866 37.4487 112.457 38.6437L113.486 38.9948ZM114.482 35.2831C114.754 34.0457 114.936 32.8783 115.027 31.7818L113.945 31.6916C113.858 32.7332 113.684 33.8524 113.421 35.0501L114.482 35.2831ZM115.026 31.7951C115.146 30.6862 115.207 29.7592 115.207 29.0195H114.121C114.121 29.7051 114.064 30.5896 113.946 31.6783L115.026 31.7951ZM115.207 29.0195C115.207 28.2054 115.113 27.4314 114.923 26.6996L113.871 26.9739C114.037 27.6082 114.121 28.2893 114.121 29.0195H115.207ZM114.928 26.7214C114.764 25.9683 114.466 25.2993 114.027 24.725L113.164 25.385C113.497 25.8203 113.733 26.3392 113.866 26.9522L114.928 26.7214ZM114.039 24.7417C113.627 24.1582 113.081 23.7004 112.413 23.3664L111.927 24.3381C112.447 24.5981 112.851 24.942 113.151 25.3682L114.039 24.7417ZM112.423 23.3716C111.763 23.0243 110.988 22.8636 110.121 22.8636V23.9501C110.857 23.9501 111.448 24.0863 111.917 24.333L112.423 23.3716ZM110.121 22.8636C108.964 22.8636 107.925 23.2138 107.025 23.9135L107.692 24.7711C108.396 24.2234 109.199 23.9501 110.121 23.9501V22.8636ZM107.036 23.9057C106.169 24.5474 105.426 25.3901 104.801 26.4216L105.73 26.9847C106.293 26.0562 106.945 25.3249 107.682 24.7788L107.036 23.9057ZM104.801 26.4216C104.183 27.4408 103.662 28.5921 103.235 29.8722L104.266 30.2158C104.671 29.0014 105.16 27.9255 105.73 26.9847L104.801 26.4216ZM103.233 29.8798C102.841 31.1165 102.524 32.3541 102.282 33.5926L103.349 33.8007C103.582 32.604 103.889 31.4066 104.269 30.2082L103.233 29.8798ZM102.282 33.5926C102.042 34.8235 101.861 35.997 101.741 37.1127L102.821 37.2295C102.938 36.1478 103.114 35.0049 103.349 33.8007L102.282 33.5926ZM101.739 37.1272C101.65 38.2343 101.604 39.1707 101.604 39.9329H102.69C102.69 39.2103 102.734 38.3055 102.822 37.215L101.739 37.1272ZM96.4096 38.6411C96.4096 37.1889 96.5403 35.69 96.8028 34.1439L95.7317 33.9621C95.4597 35.5638 95.3231 37.1236 95.3231 38.6411H96.4096ZM96.8028 34.1439C97.0654 32.5975 97.4447 31.0803 97.9408 29.5921L96.9101 29.2486C96.3964 30.7895 96.0036 32.3607 95.7317 33.9621L96.8028 34.1439ZM97.9377 29.6012C98.4608 28.1189 99.1144 26.7102 99.8984 25.3745L98.9615 24.8245C98.1418 26.2209 97.4591 27.6928 96.9132 29.2396L97.9377 29.6012ZM99.894 25.382C100.702 24.0537 101.623 22.9045 102.654 21.9309L101.908 21.141C100.801 22.1867 99.8204 23.4132 98.9659 24.8171L99.894 25.382ZM102.654 21.9306C103.708 20.9339 104.887 20.1526 106.195 19.5842L105.761 18.5878C104.337 19.2073 103.051 20.0593 101.907 21.1413L102.654 21.9306ZM106.191 19.5858C107.513 19.0232 108.969 18.7383 110.566 18.7383V17.6519C108.837 17.6519 107.235 17.9609 105.765 18.5861L106.191 19.5858ZM110.566 18.7383C112.257 18.7383 113.707 19.025 114.929 19.5805L115.379 18.5915C113.988 17.9592 112.379 17.6519 110.566 17.6519V18.7383ZM114.939 19.5847C116.171 20.1169 117.184 20.8682 117.988 21.838L118.824 21.1448C117.905 20.0358 116.751 19.1836 115.37 18.5873L114.939 19.5847ZM117.988 21.838C118.795 22.8129 119.401 23.9908 119.799 25.3824L120.844 25.0839C120.41 23.5653 119.739 22.2487 118.824 21.1448L117.988 21.838ZM119.803 25.3952C120.229 26.76 120.446 28.293 120.446 29.9994H121.533C121.533 28.2017 121.304 26.5572 120.84 25.0711L119.803 25.3952ZM120.446 29.9994C120.446 31.482 120.316 33.0265 120.053 34.6334L121.125 34.8089C121.396 33.1492 121.533 31.5459 121.533 29.9994H120.446ZM120.053 34.6319C119.791 36.2015 119.384 37.7269 118.832 39.2087L119.85 39.588C120.427 38.0408 120.852 36.4481 121.125 34.8105L120.053 34.6319ZM118.829 39.2176C118.308 40.6937 117.628 42.0975 116.788 43.4295L117.707 44.0089C118.59 42.6088 119.306 41.132 119.854 39.5792L118.829 39.2176ZM116.784 43.4368C115.978 44.7598 115.032 45.9058 113.946 46.8779L114.67 47.6876C115.84 46.6404 116.854 45.4107 117.712 44.0016L116.784 43.4368ZM113.946 46.8779C112.863 47.8463 111.639 48.6157 110.268 49.1867L110.686 50.1896C112.166 49.5728 113.495 48.7387 114.67 47.6876L113.946 46.8779ZM110.268 49.1867C108.917 49.7496 107.401 50.0359 105.711 50.0359V51.1223C107.525 51.1223 109.186 50.8146 110.686 50.1896L110.268 49.1867ZM105.711 50.0359C103.991 50.0359 102.547 49.7349 101.361 49.1555L100.884 50.1318C102.252 50.7997 103.867 51.1223 105.711 51.1223V50.0359ZM101.375 49.1624C100.2 48.5473 99.258 47.7277 98.5381 46.7032L97.6491 47.3278C98.4734 48.5009 99.5505 49.4334 100.871 50.1249L101.375 49.1624ZM98.5381 46.7032C97.8078 45.6639 97.2696 44.4642 96.9279 43.0975L95.8739 43.361C96.2449 44.845 96.8352 46.1695 97.6491 47.3278L98.5381 46.7032ZM96.9285 43.1C96.5832 41.69 96.4096 40.2042 96.4096 38.6411H95.3231C95.3231 40.2852 95.5059 41.8581 95.8733 43.3584L96.9285 43.1ZM139.862 37.572L139.33 37.4597L139.191 38.1153H139.862V37.572ZM144.004 37.572L144.535 37.6855L144.676 37.0288H144.004V37.572ZM142.891 42.7838V43.327H143.33L143.422 42.8973L142.891 42.7838ZM138.748 42.7838V42.2405H138.31L138.217 42.669L138.748 42.7838ZM137.189 50V50.5432H137.627L137.72 50.1147L137.189 50ZM131.175 50L130.644 49.8853L130.502 50.5432H131.175V50ZM132.734 42.7838L133.265 42.8985L133.408 42.2405H132.734V42.7838ZM118.302 42.7838L117.769 42.6764L117.638 43.327H118.302V42.7838ZM119.46 37.0375L119.076 36.6534L118.96 36.7694L118.928 36.9302L119.46 37.0375ZM137.679 18.8187V18.2755H137.454L137.295 18.4346L137.679 18.8187ZM143.826 18.8187L144.358 18.9311L144.496 18.2755H143.826V18.8187ZM133.848 37.572V38.1153H134.288L134.379 37.6846L133.848 37.572ZM136.387 25.5895L136.918 25.7021L137.057 25.0463H136.387V25.5895ZM136.298 25.5895V25.0463H136.069L135.91 25.2097L136.298 25.5895ZM124.583 37.572L124.194 37.1923L123.292 38.1153H124.583V37.572ZM139.862 38.1153H144.004V37.0288H139.862V38.1153ZM143.473 37.4585L142.359 42.6702L143.422 42.8973L144.535 37.6855L143.473 37.4585ZM142.891 42.2405H138.748V43.327H142.891V42.2405ZM138.217 42.669L136.658 49.8853L137.72 50.1147L139.279 42.8985L138.217 42.669ZM137.189 49.4568H131.175V50.5432H137.189V49.4568ZM131.706 50.1147L133.265 42.8985L132.203 42.669L130.644 49.8853L131.706 50.1147ZM132.734 42.2405H118.302V43.327H132.734V42.2405ZM118.834 42.8911L119.993 37.1448L118.928 36.9302L117.769 42.6764L118.834 42.8911ZM119.844 37.4216L138.063 19.2028L137.295 18.4346L119.076 36.6534L119.844 37.4216ZM137.679 19.3619H143.826V18.2755H137.679V19.3619ZM143.295 18.7064L139.33 37.4597L140.393 37.6844L144.358 18.9311L143.295 18.7064ZM134.379 37.6846L136.918 25.7021L135.856 25.4769L133.317 37.4594L134.379 37.6846ZM136.387 25.0463H136.298V26.1327H136.387V25.0463ZM135.91 25.2097L124.194 37.1923L124.971 37.9518L136.686 25.9693L135.91 25.2097ZM124.583 38.1153H133.848V37.0288H124.583V38.1153Z" fill="#B4B4B4"/>
<path d="M96.864 61.5414H99.828C101.132 61.5734 102.112 61.9414 102.768 62.6454C103.432 63.3414 103.764 64.4014 103.764 65.8254C103.764 67.2494 103.432 68.3134 102.768 69.0174C102.112 69.7134 101.132 70.0774 99.828 70.1094H96.864V61.5414ZM97.68 69.4134H99.42C100.036 69.4134 100.564 69.3494 101.004 69.2214C101.452 69.0854 101.82 68.8734 102.108 68.5854C102.396 68.2974 102.608 67.9254 102.744 67.4694C102.88 67.0134 102.948 66.4654 102.948 65.8254C102.948 65.1854 102.88 64.6374 102.744 64.1814C102.608 63.7254 102.396 63.3534 102.108 63.0654C101.82 62.7774 101.452 62.5694 101.004 62.4414C100.564 62.3054 100.036 62.2374 99.42 62.2374H97.68V69.4134ZM106.279 61.5414H112.195V62.2374H107.095V65.3334H111.871V66.0294H107.095V69.4134H112.255V70.1094H106.279V61.5414ZM120.856 64.1334C120.784 63.8054 120.664 63.5134 120.496 63.2574C120.336 62.9934 120.136 62.7734 119.896 62.5974C119.664 62.4214 119.404 62.2894 119.116 62.2014C118.836 62.1054 118.54 62.0574 118.228 62.0574C117.66 62.0574 117.172 62.1654 116.764 62.3814C116.356 62.5974 116.02 62.8854 115.756 63.2454C115.5 63.5974 115.308 63.9974 115.18 64.4454C115.06 64.8934 115 65.3534 115 65.8254C115 66.2894 115.06 66.7494 115.18 67.2054C115.308 67.6534 115.5 68.0574 115.756 68.4174C116.02 68.7694 116.356 69.0534 116.764 69.2694C117.172 69.4854 117.66 69.5934 118.228 69.5934C118.628 69.5934 118.988 69.5214 119.308 69.3774C119.628 69.2334 119.904 69.0374 120.136 68.7894C120.368 68.5414 120.556 68.2534 120.7 67.9254C120.844 67.5894 120.936 67.2294 120.976 66.8454H121.792C121.736 67.3734 121.612 67.8494 121.42 68.2734C121.228 68.6974 120.98 69.0574 120.676 69.3534C120.372 69.6494 120.012 69.8774 119.596 70.0374C119.188 70.1974 118.732 70.2774 118.228 70.2774C117.556 70.2774 116.964 70.1574 116.452 69.9174C115.948 69.6694 115.528 69.3414 115.192 68.9334C114.856 68.5254 114.604 68.0534 114.436 67.5174C114.268 66.9814 114.184 66.4174 114.184 65.8254C114.184 65.2334 114.268 64.6694 114.436 64.1334C114.604 63.5974 114.856 63.1254 115.192 62.7174C115.528 62.3014 115.948 61.9734 116.452 61.7334C116.964 61.4854 117.556 61.3614 118.228 61.3614C118.636 61.3614 119.032 61.4214 119.416 61.5414C119.808 61.6614 120.16 61.8414 120.472 62.0814C120.792 62.3134 121.056 62.6014 121.264 62.9454C121.48 63.2894 121.616 63.6854 121.672 64.1334H120.856ZM124.241 61.5414H130.157V62.2374H125.057V65.3334H129.833V66.0294H125.057V69.4134H130.217V70.1094H124.241V61.5414ZM132.531 61.5414H133.731L136.695 69.0534L139.647 61.5414H140.847V70.1094H140.031V62.7054H140.007L137.079 70.1094H136.311L133.371 62.7054H133.347V70.1094H132.531V61.5414ZM144.567 65.2974H147.375C147.703 65.2974 147.987 65.2614 148.227 65.1894C148.467 65.1094 148.667 65.0054 148.827 64.8774C148.987 64.7414 149.107 64.5854 149.187 64.4094C149.267 64.2334 149.307 64.0454 149.307 63.8454C149.307 62.7734 148.663 62.2374 147.375 62.2374H144.567V65.2974ZM143.751 61.5414H147.375C147.735 61.5414 148.079 61.5774 148.407 61.6494C148.743 61.7134 149.035 61.8294 149.283 61.9974C149.539 62.1574 149.743 62.3734 149.895 62.6454C150.047 62.9094 150.123 63.2414 150.123 63.6414C150.123 63.8654 150.087 64.0854 150.015 64.3014C149.943 64.5094 149.839 64.7014 149.703 64.8774C149.575 65.0454 149.419 65.1894 149.235 65.3094C149.059 65.4294 148.859 65.5134 148.635 65.5614V65.5854C149.187 65.6574 149.627 65.8854 149.955 66.2694C150.283 66.6454 150.447 67.1134 150.447 67.6734C150.447 67.8094 150.435 67.9654 150.411 68.1414C150.387 68.3094 150.339 68.4854 150.267 68.6694C150.195 68.8454 150.091 69.0214 149.955 69.1974C149.819 69.3734 149.635 69.5294 149.403 69.6654C149.179 69.7934 148.899 69.9014 148.563 69.9894C148.235 70.0694 147.839 70.1094 147.375 70.1094H143.751V61.5414ZM144.567 69.4134H147.375C147.679 69.4134 147.967 69.3894 148.239 69.3414C148.511 69.2854 148.751 69.1894 148.959 69.0534C149.167 68.9174 149.331 68.7374 149.451 68.5134C149.571 68.2814 149.631 67.9934 149.631 67.6494C149.631 67.0974 149.435 66.6854 149.043 66.4134C148.659 66.1334 148.103 65.9934 147.375 65.9934H144.567V69.4134ZM152.955 61.5414H158.871V62.2374H153.771V65.3334H158.547V66.0294H153.771V69.4134H158.931V70.1094H152.955V61.5414ZM162.084 65.6094H165.132C165.38 65.6094 165.616 65.5734 165.84 65.5014C166.064 65.4214 166.26 65.3094 166.428 65.1654C166.596 65.0214 166.728 64.8494 166.824 64.6494C166.928 64.4414 166.98 64.2054 166.98 63.9414C166.98 63.4134 166.828 62.9974 166.524 62.6934C166.22 62.3894 165.756 62.2374 165.132 62.2374H162.084V65.6094ZM161.268 61.5414H165.192C165.544 61.5414 165.876 61.5854 166.188 61.6734C166.508 61.7614 166.784 61.8974 167.016 62.0814C167.256 62.2574 167.444 62.4894 167.58 62.7774C167.724 63.0574 167.796 63.3894 167.796 63.7734C167.796 64.3174 167.656 64.7894 167.376 65.1894C167.096 65.5894 166.68 65.8454 166.128 65.9574V65.9814C166.408 66.0214 166.64 66.0974 166.824 66.2094C167.008 66.3134 167.156 66.4494 167.268 66.6174C167.388 66.7854 167.472 66.9814 167.52 67.2054C167.576 67.4214 167.612 67.6574 167.628 67.9134C167.636 68.0574 167.644 68.2334 167.652 68.4414C167.66 68.6494 167.676 68.8614 167.7 69.0774C167.724 69.2854 167.76 69.4854 167.808 69.6774C167.864 69.8614 167.936 70.0054 168.024 70.1094H167.124C167.076 70.0294 167.036 69.9334 167.004 69.8214C166.98 69.7014 166.96 69.5814 166.944 69.4614C166.936 69.3334 166.928 69.2094 166.92 69.0894C166.912 68.9694 166.904 68.8654 166.896 68.7774C166.88 68.4734 166.852 68.1734 166.812 67.8774C166.78 67.5734 166.704 67.3054 166.584 67.0734C166.472 66.8334 166.304 66.6414 166.08 66.4974C165.864 66.3534 165.564 66.2894 165.18 66.3054H162.084V70.1094H161.268V61.5414Z" fill="white"/>
<path d="M96.864 61.5414V61.3908H96.7134V61.5414H96.864ZM99.828 61.5414L99.8317 61.3908H99.828V61.5414ZM102.768 62.6454L102.658 62.748L102.659 62.7493L102.768 62.6454ZM102.768 69.0174L102.658 68.914L102.658 68.9141L102.768 69.0174ZM99.828 70.1094V70.26L99.8317 70.2599L99.828 70.1094ZM96.864 70.1094H96.7134V70.26H96.864V70.1094ZM97.68 69.4134H97.5294V69.564H97.68V69.4134ZM101.004 69.2214L101.046 69.366L101.048 69.3655L101.004 69.2214ZM102.108 68.5854L102.002 68.4789L102.108 68.5854ZM102.744 67.4694L102.6 67.4263L102.744 67.4694ZM102.744 64.1814L102.888 64.1383L102.744 64.1814ZM102.108 63.0654L102.002 63.1719L102.108 63.0654ZM101.004 62.4414L100.96 62.5853L100.963 62.5862L101.004 62.4414ZM97.68 62.2374V62.0868H97.5294V62.2374H97.68ZM96.864 61.692H99.828V61.3908H96.864V61.692ZM99.8243 61.6919C101.103 61.7233 102.038 62.083 102.658 62.748L102.878 62.5427C102.186 61.7997 101.161 61.4235 99.8317 61.3908L99.8243 61.6919ZM102.659 62.7493C103.286 63.4064 103.613 64.4217 103.613 65.8254H103.915C103.915 64.381 103.578 63.2764 102.877 62.5414L102.659 62.7493ZM103.613 65.8254C103.613 67.2288 103.286 68.2487 102.658 68.914L102.878 69.1207C103.578 68.378 103.915 67.2699 103.915 65.8254H103.613ZM102.658 68.9141C102.039 69.5715 101.103 69.9274 99.8243 69.9588L99.8317 70.2599C101.161 70.2273 102.185 69.8553 102.878 69.1207L102.658 68.9141ZM99.828 69.9588H96.864V70.26H99.828V69.9588ZM97.0146 70.1094V61.5414H96.7134V70.1094H97.0146ZM97.68 69.564H99.42V69.2628H97.68V69.564ZM99.42 69.564C100.046 69.564 100.589 69.4991 101.046 69.366L100.962 69.0768C100.539 69.1997 100.026 69.2628 99.42 69.2628V69.564ZM101.048 69.3655C101.516 69.2234 101.907 68.9998 102.214 68.6919L102.002 68.4789C101.733 68.7469 101.388 68.9474 100.96 69.0773L101.048 69.3655ZM102.214 68.6919C102.523 68.3834 102.746 67.9883 102.888 67.5124L102.6 67.4263C102.47 67.8624 102.269 68.2113 102.002 68.4789L102.214 68.6919ZM102.888 67.5124C103.03 67.0386 103.099 66.4753 103.099 65.8254H102.797C102.797 66.4555 102.73 66.9882 102.6 67.4263L102.888 67.5124ZM103.099 65.8254C103.099 65.1755 103.03 64.6122 102.888 64.1383L102.6 64.2244C102.73 64.6626 102.797 65.1953 102.797 65.8254H103.099ZM102.888 64.1383C102.746 63.6624 102.523 63.2673 102.214 62.9589L102.002 63.1719C102.269 63.4394 102.47 63.7883 102.6 64.2244L102.888 64.1383ZM102.214 62.9589C101.906 62.6503 101.514 62.4306 101.045 62.2966L100.963 62.5862C101.39 62.7082 101.734 62.9044 102.002 63.1719L102.214 62.9589ZM101.048 62.2975C100.59 62.1558 100.046 62.0868 99.42 62.0868V62.388C100.026 62.388 100.538 62.4549 100.96 62.5853L101.048 62.2975ZM99.42 62.0868H97.68V62.388H99.42V62.0868ZM97.5294 62.2374V69.4134H97.8306V62.2374H97.5294ZM106.279 61.5414V61.3908H106.128V61.5414H106.279ZM112.195 61.5414H112.345V61.3908H112.195V61.5414ZM112.195 62.2374V62.388H112.345V62.2374H112.195ZM107.095 62.2374V62.0868H106.944V62.2374H107.095ZM107.095 65.3334H106.944V65.484H107.095V65.3334ZM111.871 65.3334H112.021V65.1828H111.871V65.3334ZM111.871 66.0294V66.18H112.021V66.0294H111.871ZM107.095 66.0294V65.8788H106.944V66.0294H107.095ZM107.095 69.4134H106.944V69.564H107.095V69.4134ZM112.255 69.4134H112.405V69.2628H112.255V69.4134ZM112.255 70.1094V70.26H112.405V70.1094H112.255ZM106.279 70.1094H106.128V70.26H106.279V70.1094ZM106.279 61.692H112.195V61.3908H106.279V61.692ZM112.044 61.5414V62.2374H112.345V61.5414H112.044ZM112.195 62.0868H107.095V62.388H112.195V62.0868ZM106.944 62.2374V65.3334H107.245V62.2374H106.944ZM107.095 65.484H111.871V65.1828H107.095V65.484ZM111.72 65.3334V66.0294H112.021V65.3334H111.72ZM111.871 65.8788H107.095V66.18H111.871V65.8788ZM106.944 66.0294V69.4134H107.245V66.0294H106.944ZM107.095 69.564H112.255V69.2628H107.095V69.564ZM112.104 69.4134V70.1094H112.405V69.4134H112.104ZM112.255 69.9588H106.279V70.26H112.255V69.9588ZM106.429 70.1094V61.5414H106.128V70.1094H106.429ZM120.856 64.1334L120.709 64.1657L120.735 64.284H120.856V64.1334ZM120.496 63.2574L120.367 63.3355L120.37 63.34L120.496 63.2574ZM119.896 62.5974L119.805 62.7174L119.807 62.7188L119.896 62.5974ZM119.116 62.2014L119.067 62.3439L119.072 62.3454L119.116 62.2014ZM116.764 62.3814L116.694 62.2483L116.764 62.3814ZM115.756 63.2454L115.635 63.1563L115.634 63.1568L115.756 63.2454ZM115.18 64.4454L115.035 64.404L115.035 64.4064L115.18 64.4454ZM115.18 67.2054L115.034 67.2437L115.035 67.2467L115.18 67.2054ZM115.756 68.4174L115.633 68.5047L115.636 68.5077L115.756 68.4174ZM116.764 69.2694L116.835 69.1363L116.764 69.2694ZM119.308 69.3774L119.37 69.5147L119.308 69.3774ZM120.136 68.7894L120.246 68.8923L120.136 68.7894ZM120.7 67.9254L120.838 67.9859L120.839 67.9847L120.7 67.9254ZM120.976 66.8454V66.6948H120.84L120.826 66.8298L120.976 66.8454ZM121.792 66.8454L121.942 66.8613L121.96 66.6948H121.792V66.8454ZM121.42 68.2734L121.283 68.2113L121.42 68.2734ZM120.676 69.3534L120.781 69.4613L120.676 69.3534ZM119.596 70.0374L119.542 69.8968L119.541 69.8972L119.596 70.0374ZM116.452 69.9174L116.386 70.0525L116.388 70.0537L116.452 69.9174ZM115.192 68.9334L115.308 68.8376L115.192 68.9334ZM114.436 67.5174L114.292 67.5624L114.436 67.5174ZM114.436 64.1334L114.292 64.0883L114.436 64.1334ZM115.192 62.7174L115.308 62.8131L115.309 62.812L115.192 62.7174ZM116.452 61.7334L116.517 61.8693L116.518 61.8689L116.452 61.7334ZM119.416 61.5414L119.371 61.6851L119.372 61.6854L119.416 61.5414ZM120.472 62.0814L120.38 62.2008L120.384 62.2033L120.472 62.0814ZM121.264 62.9454L121.135 63.0233L121.137 63.0255L121.264 62.9454ZM121.672 64.1334V64.284H121.843L121.822 64.1147L121.672 64.1334ZM121.003 64.1011C120.928 63.7569 120.801 63.4475 120.622 63.1747L120.37 63.34C120.527 63.5792 120.641 63.8539 120.709 64.1657L121.003 64.1011ZM120.625 63.1793C120.455 62.899 120.242 62.6641 119.985 62.4759L119.807 62.7188C120.031 62.8827 120.217 63.0877 120.367 63.3354L120.625 63.1793ZM119.987 62.4774C119.741 62.2903 119.465 62.1504 119.16 62.0574L119.072 62.3454C119.344 62.4284 119.588 62.5524 119.805 62.7174L119.987 62.4774ZM119.165 62.0589C118.868 61.9572 118.556 61.9068 118.228 61.9068V62.208C118.524 62.208 118.804 62.2535 119.067 62.3438L119.165 62.0589ZM118.228 61.9068C117.641 61.9068 117.128 62.0184 116.694 62.2483L116.835 62.5145C117.216 62.3123 117.679 62.208 118.228 62.208V61.9068ZM116.694 62.2483C116.266 62.4745 115.913 62.7773 115.635 63.1563L115.878 63.3344C116.128 62.9934 116.446 62.7202 116.835 62.5145L116.694 62.2483ZM115.634 63.1568C115.367 63.524 115.168 63.9402 115.035 64.404L115.325 64.4867C115.448 64.0545 115.633 63.6707 115.878 63.334L115.634 63.1568ZM115.035 64.4064C114.911 64.8673 114.85 65.3405 114.85 65.8254H115.151C115.151 65.3663 115.209 64.9194 115.326 64.4843L115.035 64.4064ZM114.85 65.8254C114.85 66.3025 114.911 66.7754 115.034 67.2437L115.326 67.167C115.209 66.7234 115.151 66.2762 115.151 65.8254H114.85ZM115.035 67.2467C115.168 67.7103 115.367 68.13 115.633 68.5046L115.879 68.3301C115.633 67.9848 115.448 67.5965 115.325 67.164L115.035 67.2467ZM115.636 68.5077C115.914 68.8784 116.267 69.1766 116.694 69.4025L116.835 69.1363C116.445 68.9301 116.127 68.6604 115.877 68.327L115.636 68.5077ZM116.694 69.4025C117.128 69.6323 117.641 69.744 118.228 69.744V69.4428C117.679 69.4428 117.216 69.3384 116.835 69.1363L116.694 69.4025ZM118.228 69.744C118.646 69.744 119.028 69.6686 119.37 69.5147L119.246 69.24C118.948 69.3742 118.61 69.4428 118.228 69.4428V69.744ZM119.37 69.5147C119.707 69.3628 120 69.1553 120.246 68.8923L120.026 68.6865C119.808 68.9194 119.549 69.1039 119.246 69.24L119.37 69.5147ZM120.246 68.8923C120.49 68.6312 120.688 68.3286 120.838 67.9859L120.562 67.8648C120.425 68.1781 120.246 68.4516 120.026 68.6865L120.246 68.8923ZM120.839 67.9847C120.989 67.634 121.084 67.2592 121.126 66.861L120.826 66.8298C120.788 67.1996 120.699 67.5447 120.562 67.8661L120.839 67.9847ZM120.976 66.996H121.792V66.6948H120.976V66.996ZM121.642 66.8295C121.588 67.3437 121.467 67.8038 121.283 68.2113L121.557 68.3355C121.757 67.895 121.884 67.403 121.942 66.8613L121.642 66.8295ZM121.283 68.2113C121.098 68.6198 120.86 68.9638 120.571 69.2455L120.781 69.4613C121.1 69.1509 121.358 68.775 121.557 68.3355L121.283 68.2113ZM120.571 69.2455C120.282 69.5265 119.94 69.7438 119.542 69.8968L119.65 70.1779C120.084 70.011 120.462 69.7722 120.781 69.4613L120.571 69.2455ZM119.541 69.8972C119.153 70.0494 118.716 70.1268 118.228 70.1268V70.428C118.748 70.428 119.223 70.3454 119.651 70.1776L119.541 69.8972ZM118.228 70.1268C117.574 70.1268 117.005 70.01 116.516 69.781L116.388 70.0537C116.924 70.3047 117.538 70.428 118.228 70.428V70.1268ZM116.519 69.7823C116.033 69.5431 115.63 69.2281 115.308 68.8376L115.076 69.0291C115.426 69.4546 115.864 69.7957 116.386 70.0525L116.519 69.7823ZM115.308 68.8376C114.985 68.4455 114.742 67.991 114.58 67.4723L114.292 67.5624C114.466 68.1157 114.727 68.6052 115.076 69.0291L115.308 68.8376ZM114.58 67.4723C114.417 66.9517 114.335 66.4029 114.335 65.8254H114.034C114.034 66.4318 114.12 67.0111 114.292 67.5624L114.58 67.4723ZM114.335 65.8254C114.335 65.2478 114.417 64.6991 114.58 64.1784L114.292 64.0883C114.12 64.6397 114.034 65.2189 114.034 65.8254H114.335ZM114.58 64.1784C114.742 63.6597 114.985 63.2052 115.308 62.8131L115.076 62.6216C114.727 63.0455 114.466 63.535 114.292 64.0883L114.58 64.1784ZM115.309 62.812C115.63 62.4143 116.032 62.1001 116.517 61.8693L116.387 61.5974C115.864 61.8467 115.426 62.1884 115.075 62.6227L115.309 62.812ZM116.518 61.8689C117.006 61.6325 117.575 61.512 118.228 61.512V61.2108C117.537 61.2108 116.922 61.3383 116.386 61.5978L116.518 61.8689ZM118.228 61.512C118.621 61.512 119.002 61.5697 119.371 61.6851L119.461 61.3976C119.062 61.273 118.651 61.2108 118.228 61.2108V61.512ZM119.372 61.6854C119.748 61.8003 120.083 61.9722 120.38 62.2007L120.564 61.962C120.237 61.7105 119.869 61.5224 119.46 61.3974L119.372 61.6854ZM120.384 62.2033C120.687 62.4233 120.937 62.6962 121.135 63.0233L121.393 62.8675C121.175 62.5065 120.897 62.2035 120.561 61.9595L120.384 62.2033ZM121.137 63.0255C121.34 63.3488 121.469 63.7234 121.523 64.1521L121.822 64.1147C121.763 63.6473 121.621 63.2299 121.392 62.8653L121.137 63.0255ZM121.672 63.9828H120.856V64.284H121.672V63.9828ZM124.241 61.5414V61.3908H124.091V61.5414H124.241ZM130.157 61.5414H130.308V61.3908H130.157V61.5414ZM130.157 62.2374V62.388H130.308V62.2374H130.157ZM125.057 62.2374V62.0868H124.907V62.2374H125.057ZM125.057 65.3334H124.907V65.484H125.057V65.3334ZM129.833 65.3334H129.984V65.1828H129.833V65.3334ZM129.833 66.0294V66.18H129.984V66.0294H129.833ZM125.057 66.0294V65.8788H124.907V66.0294H125.057ZM125.057 69.4134H124.907V69.564H125.057V69.4134ZM130.217 69.4134H130.368V69.2628H130.217V69.4134ZM130.217 70.1094V70.26H130.368V70.1094H130.217ZM124.241 70.1094H124.091V70.26H124.241V70.1094ZM124.241 61.692H130.157V61.3908H124.241V61.692ZM130.007 61.5414V62.2374H130.308V61.5414H130.007ZM130.157 62.0868H125.057V62.388H130.157V62.0868ZM124.907 62.2374V65.3334H125.208V62.2374H124.907ZM125.057 65.484H129.833V65.1828H125.057V65.484ZM129.683 65.3334V66.0294H129.984V65.3334H129.683ZM129.833 65.8788H125.057V66.18H129.833V65.8788ZM124.907 66.0294V69.4134H125.208V66.0294H124.907ZM125.057 69.564H130.217V69.2628H125.057V69.564ZM130.067 69.4134V70.1094H130.368V69.4134H130.067ZM130.217 69.9588H124.241V70.26H130.217V69.9588ZM124.392 70.1094V61.5414H124.091V70.1094H124.392ZM132.531 61.5414V61.3908H132.38V61.5414H132.531ZM133.731 61.5414L133.871 61.4861L133.833 61.3908H133.731V61.5414ZM136.695 69.0534L136.555 69.1086L136.695 69.4644L136.835 69.1085L136.695 69.0534ZM139.647 61.5414V61.3908H139.544L139.506 61.4863L139.647 61.5414ZM140.847 61.5414H140.997V61.3908H140.847V61.5414ZM140.847 70.1094V70.26H140.997V70.1094H140.847ZM140.031 70.1094H139.88V70.26H140.031V70.1094ZM140.031 62.7054H140.181V62.5548H140.031V62.7054ZM140.007 62.7054V62.5548H139.904L139.867 62.65L140.007 62.7054ZM137.079 70.1094V70.26H137.181L137.219 70.1648L137.079 70.1094ZM136.311 70.1094L136.171 70.165L136.208 70.26H136.311V70.1094ZM133.371 62.7054L133.511 62.6498L133.473 62.5548H133.371V62.7054ZM133.347 62.7054V62.5548H133.196V62.7054H133.347ZM133.347 70.1094V70.26H133.497V70.1094H133.347ZM132.531 70.1094H132.38V70.26H132.531V70.1094ZM132.531 61.692H133.731V61.3908H132.531V61.692ZM133.591 61.5966L136.555 69.1086L136.835 68.9981L133.871 61.4861L133.591 61.5966ZM136.835 69.1085L139.787 61.5965L139.506 61.4863L136.554 68.9983L136.835 69.1085ZM139.647 61.692H140.847V61.3908H139.647V61.692ZM140.696 61.5414V70.1094H140.997V61.5414H140.696ZM140.847 69.9588H140.031V70.26H140.847V69.9588ZM140.181 70.1094V62.7054H139.88V70.1094H140.181ZM140.031 62.5548H140.007V62.856H140.031V62.5548ZM139.867 62.65L136.939 70.054L137.219 70.1648L140.147 62.7608L139.867 62.65ZM137.079 69.9588H136.311V70.26H137.079V69.9588ZM136.451 70.0538L133.511 62.6498L133.231 62.761L136.171 70.165L136.451 70.0538ZM133.371 62.5548H133.347V62.856H133.371V62.5548ZM133.196 62.7054V70.1094H133.497V62.7054H133.196ZM133.347 69.9588H132.531V70.26H133.347V69.9588ZM132.681 70.1094V61.5414H132.38V70.1094H132.681ZM144.567 65.2974H144.416V65.448H144.567V65.2974ZM148.227 65.1894L148.27 65.3337L148.274 65.3322L148.227 65.1894ZM148.827 64.8774L148.921 64.995L148.924 64.9921L148.827 64.8774ZM149.187 64.4094L149.05 64.3471L149.187 64.4094ZM144.567 62.2374V62.0868H144.416V62.2374H144.567ZM143.751 61.5414V61.3908H143.6V61.5414H143.751ZM148.407 61.6494L148.374 61.7965L148.379 61.7973L148.407 61.6494ZM149.283 61.9974L149.198 62.1221L149.203 62.1251L149.283 61.9974ZM149.895 62.6454L149.763 62.7188L149.764 62.7205L149.895 62.6454ZM150.015 64.3014L150.157 64.3506L150.158 64.349L150.015 64.3014ZM149.703 64.8774L149.584 64.7853L149.583 64.7861L149.703 64.8774ZM149.235 65.3094L149.152 65.1832L149.15 65.1849L149.235 65.3094ZM148.635 65.5614L148.603 65.4141L148.484 65.4396V65.5614H148.635ZM148.635 65.5854H148.484V65.7176L148.615 65.7347L148.635 65.5854ZM149.955 66.2694L149.84 66.3672L149.841 66.3684L149.955 66.2694ZM150.411 68.1414L150.56 68.1627L150.56 68.1617L150.411 68.1414ZM150.267 68.6694L150.406 68.7264L150.407 68.7243L150.267 68.6694ZM149.955 69.1974L150.074 69.2895V69.2895L149.955 69.1974ZM149.403 69.6654L149.477 69.7961L149.479 69.7953L149.403 69.6654ZM148.563 69.9894L148.598 70.1357L148.601 70.1351L148.563 69.9894ZM143.751 70.1094H143.6V70.26H143.751V70.1094ZM144.567 69.4134H144.416V69.564H144.567V69.4134ZM148.239 69.3414L148.265 69.4897L148.269 69.4889L148.239 69.3414ZM148.959 69.0534L149.041 69.1794L148.959 69.0534ZM149.451 68.5134L149.583 68.5845L149.584 68.5826L149.451 68.5134ZM149.043 66.4134L148.954 66.5351L148.957 66.5371L149.043 66.4134ZM144.567 65.9934V65.8428H144.416V65.9934H144.567ZM144.567 65.448H147.375V65.1468H144.567V65.448ZM147.375 65.448C147.713 65.448 148.012 65.4109 148.27 65.3336L148.183 65.0451C147.961 65.1119 147.692 65.1468 147.375 65.1468V65.448ZM148.274 65.3322C148.527 65.2479 148.744 65.1363 148.921 64.995L148.733 64.7598C148.589 64.8744 148.406 64.9709 148.179 65.0465L148.274 65.3322ZM148.924 64.9921C149.1 64.843 149.234 64.6696 149.324 64.4717L149.05 64.3471C148.98 64.5012 148.874 64.6397 148.729 64.7626L148.924 64.9921ZM149.324 64.4717C149.413 64.2754 149.457 64.0661 149.457 63.8454H149.156C149.156 64.0246 149.12 64.1913 149.05 64.3471L149.324 64.4717ZM149.457 63.8454C149.457 63.2782 149.286 62.8279 148.92 62.5236C148.56 62.2238 148.036 62.0868 147.375 62.0868V62.388C148.002 62.388 148.444 62.519 148.727 62.7551C149.006 62.9869 149.156 63.3406 149.156 63.8454H149.457ZM147.375 62.0868H144.567V62.388H147.375V62.0868ZM144.416 62.2374V65.2974H144.717V62.2374H144.416ZM143.751 61.692H147.375V61.3908H143.751V61.692ZM147.375 61.692C147.725 61.692 148.058 61.727 148.374 61.7965L148.439 61.5023C148.1 61.4278 147.745 61.3908 147.375 61.3908V61.692ZM148.379 61.7973C148.697 61.858 148.969 61.9671 149.198 62.1221L149.367 61.8727C149.1 61.6917 148.788 61.5687 148.435 61.5014L148.379 61.7973ZM149.203 62.1251C149.437 62.2712 149.623 62.4682 149.763 62.7188L150.026 62.5719C149.862 62.2785 149.641 62.0436 149.363 61.8697L149.203 62.1251ZM149.764 62.7205C149.9 62.9556 149.972 63.2597 149.972 63.6414H150.273C150.273 63.223 150.194 62.8632 150.025 62.5702L149.764 62.7205ZM149.972 63.6414C149.972 63.8489 149.939 64.0529 149.872 64.2538L150.158 64.349C150.235 64.1179 150.273 63.8818 150.273 63.6414H149.972ZM149.872 64.2521C149.806 64.4445 149.71 64.6221 149.584 64.7853L149.822 64.9695C149.968 64.7807 150.08 64.5742 150.157 64.3506L149.872 64.2521ZM149.583 64.7861C149.466 64.9399 149.323 65.0722 149.152 65.1832L149.317 65.4355C149.515 65.3065 149.684 65.1509 149.823 64.9686L149.583 64.7861ZM149.15 65.1849C148.991 65.2932 148.81 65.3699 148.603 65.4141L148.666 65.7086C148.908 65.6569 149.126 65.5656 149.32 65.4338L149.15 65.1849ZM148.484 65.5614V65.5854H148.785V65.5614H148.484ZM148.615 65.7347C149.134 65.8024 149.539 66.0145 149.84 66.3672L150.069 66.1716C149.714 65.7562 149.239 65.5123 148.654 65.436L148.615 65.7347ZM149.841 66.3684C150.142 66.7136 150.296 67.145 150.296 67.6734H150.597C150.597 67.0817 150.423 66.5772 150.068 66.1704L149.841 66.3684ZM150.296 67.6734C150.296 67.8009 150.285 67.9499 150.262 68.121L150.56 68.1617C150.585 67.9809 150.597 67.8179 150.597 67.6734H150.296ZM150.262 68.1201C150.24 68.2749 150.195 68.4396 150.126 68.6145L150.407 68.7243C150.483 68.5312 150.534 68.3439 150.56 68.1627L150.262 68.1201ZM150.127 68.6124C150.061 68.7739 149.965 68.9383 149.836 69.1053L150.074 69.2895C150.217 69.1045 150.328 68.9168 150.406 68.7264L150.127 68.6124ZM149.836 69.1053C149.714 69.2632 149.545 69.4072 149.327 69.5355L149.479 69.7953C149.724 69.6515 149.924 69.4835 150.074 69.2895L149.836 69.1053ZM149.328 69.5346C149.119 69.6542 148.852 69.758 148.525 69.8437L148.601 70.1351C148.946 70.0448 149.239 69.9325 149.477 69.7961L149.328 69.5346ZM148.527 69.8431C148.214 69.9194 147.831 69.9588 147.375 69.9588V70.26C147.847 70.26 148.255 70.2194 148.598 70.1357L148.527 69.8431ZM147.375 69.9588H143.751V70.26H147.375V69.9588ZM143.901 70.1094V61.5414H143.6V70.1094H143.901ZM144.567 69.564H147.375V69.2628H144.567V69.564ZM147.375 69.564C147.687 69.564 147.983 69.5393 148.265 69.4897L148.213 69.1931C147.95 69.2394 147.671 69.2628 147.375 69.2628V69.564ZM148.269 69.4889C148.557 69.4295 148.816 69.3269 149.041 69.1794L148.876 68.9273C148.686 69.0518 148.464 69.1412 148.208 69.1939L148.269 69.4889ZM149.041 69.1794C149.271 69.0293 149.452 68.8302 149.583 68.5845L149.318 68.4423C149.21 68.6445 149.063 68.8055 148.876 68.9273L149.041 69.1794ZM149.584 68.5826C149.718 68.3235 149.781 68.0101 149.781 67.6494H149.48C149.48 67.9766 149.423 68.2393 149.317 68.4442L149.584 68.5826ZM149.781 67.6494C149.781 67.0569 149.568 66.5945 149.129 66.2896L148.957 66.5371C149.301 66.7762 149.48 67.1378 149.48 67.6494H149.781ZM149.131 66.2917C148.711 65.9853 148.119 65.8428 147.375 65.8428V66.144C148.087 66.144 148.606 66.2815 148.954 66.5351L149.131 66.2917ZM147.375 65.8428H144.567V66.144H147.375V65.8428ZM144.416 65.9934V69.4134H144.717V65.9934H144.416ZM152.955 61.5414V61.3908H152.804V61.5414H152.955ZM158.871 61.5414H159.021V61.3908H158.871V61.5414ZM158.871 62.2374V62.388H159.021V62.2374H158.871ZM153.771 62.2374V62.0868H153.62V62.2374H153.771ZM153.771 65.3334H153.62V65.484H153.771V65.3334ZM158.547 65.3334H158.697V65.1828H158.547V65.3334ZM158.547 66.0294V66.18H158.697V66.0294H158.547ZM153.771 66.0294V65.8788H153.62V66.0294H153.771ZM153.771 69.4134H153.62V69.564H153.771V69.4134ZM158.931 69.4134H159.081V69.2628H158.931V69.4134ZM158.931 70.1094V70.26H159.081V70.1094H158.931ZM152.955 70.1094H152.804V70.26H152.955V70.1094ZM152.955 61.692H158.871V61.3908H152.955V61.692ZM158.72 61.5414V62.2374H159.021V61.5414H158.72ZM158.871 62.0868H153.771V62.388H158.871V62.0868ZM153.62 62.2374V65.3334H153.921V62.2374H153.62ZM153.771 65.484H158.547V65.1828H153.771V65.484ZM158.396 65.3334V66.0294H158.697V65.3334H158.396ZM158.547 65.8788H153.771V66.18H158.547V65.8788ZM153.62 66.0294V69.4134H153.921V66.0294H153.62ZM153.771 69.564H158.931V69.2628H153.771V69.564ZM158.78 69.4134V70.1094H159.081V69.4134H158.78ZM158.931 69.9588H152.955V70.26H158.931V69.9588ZM153.105 70.1094V61.5414H152.804V70.1094H153.105ZM162.084 65.6094H161.933V65.76H162.084V65.6094ZM165.84 65.5014L165.886 65.6448L165.891 65.6432L165.84 65.5014ZM166.428 65.1654L166.33 65.051L166.428 65.1654ZM166.824 64.6494L166.689 64.582L166.688 64.5842L166.824 64.6494ZM166.524 62.6934L166.63 62.5869L166.524 62.6934ZM162.084 62.2374V62.0868H161.933V62.2374H162.084ZM161.268 61.5414V61.3908H161.117V61.5414H161.268ZM166.188 61.6734L166.147 61.8183L166.148 61.8186L166.188 61.6734ZM167.016 62.0814L166.922 62.1994L166.927 62.2028L167.016 62.0814ZM167.58 62.7774L167.444 62.8417L167.446 62.8462L167.58 62.7774ZM167.376 65.1894L167.253 65.103L167.376 65.1894ZM166.128 65.9574L166.098 65.8098L165.977 65.8343V65.9574H166.128ZM166.128 65.9814H165.977V66.112L166.107 66.1305L166.128 65.9814ZM166.824 66.2094L166.746 66.3381L166.75 66.3405L166.824 66.2094ZM167.268 66.6174L167.143 66.701L167.145 66.7049L167.268 66.6174ZM167.52 67.2054L167.373 67.237L167.374 67.2432L167.52 67.2054ZM167.628 67.9134L167.778 67.905L167.778 67.904L167.628 67.9134ZM167.652 68.4414L167.802 68.4356L167.652 68.4414ZM167.7 69.0774L167.55 69.094L167.55 69.0946L167.7 69.0774ZM167.808 69.6774L167.662 69.7139L167.664 69.7212L167.808 69.6774ZM168.024 70.1094V70.26H168.349L168.139 70.0121L168.024 70.1094ZM167.124 70.1094L166.995 70.1869L167.039 70.26H167.124V70.1094ZM167.004 69.8214L166.856 69.851L166.859 69.8627L167.004 69.8214ZM166.944 69.4614L166.793 69.4708L166.795 69.4813L166.944 69.4614ZM166.896 68.7774L166.745 68.7853L166.746 68.791L166.896 68.7774ZM166.812 67.8774L166.662 67.8931L166.663 67.8975L166.812 67.8774ZM166.584 67.0734L166.447 67.1371L166.45 67.1426L166.584 67.0734ZM166.08 66.4974L165.996 66.6227L165.998 66.6241L166.08 66.4974ZM165.18 66.3054V66.4561L165.186 66.4558L165.18 66.3054ZM162.084 66.3054V66.1548H161.933V66.3054H162.084ZM162.084 70.1094V70.26H162.235V70.1094H162.084ZM161.268 70.1094H161.117V70.26H161.268V70.1094ZM162.084 65.76H165.132V65.4588H162.084V65.76ZM165.132 65.76C165.395 65.76 165.646 65.7218 165.886 65.6447L165.794 65.358C165.586 65.425 165.365 65.4588 165.132 65.4588V65.76ZM165.891 65.6432C166.131 65.5575 166.343 65.4366 166.526 65.2797L166.33 65.051C166.177 65.1822 165.997 65.2853 165.789 65.3596L165.891 65.6432ZM166.526 65.2797C166.71 65.1221 166.855 64.9333 166.96 64.7145L166.688 64.5842C166.601 64.7654 166.482 64.9207 166.33 65.051L166.526 65.2797ZM166.959 64.7167C167.074 64.4851 167.131 64.2256 167.131 63.9414H166.829C166.829 64.1852 166.781 64.3976 166.689 64.582L166.959 64.7167ZM167.131 63.9414C167.131 63.3831 166.969 62.9253 166.63 62.5869L166.417 62.7999C166.687 63.0694 166.829 63.4436 166.829 63.9414H167.131ZM166.63 62.5869C166.288 62.244 165.778 62.0868 165.132 62.0868V62.388C165.734 62.388 166.152 62.5347 166.417 62.7999L166.63 62.5869ZM165.132 62.0868H162.084V62.388H165.132V62.0868ZM161.933 62.2374V65.6094H162.235V62.2374H161.933ZM161.268 61.692H165.192V61.3908H161.268V61.692ZM165.192 61.692C165.531 61.692 165.849 61.7344 166.147 61.8183L166.229 61.5284C165.902 61.4364 165.557 61.3908 165.192 61.3908V61.692ZM166.148 61.8186C166.451 61.9019 166.708 62.0294 166.922 62.1994L167.109 61.9634C166.86 61.7654 166.565 61.6209 166.228 61.5282L166.148 61.8186ZM166.927 62.2028C167.145 62.363 167.318 62.5747 167.444 62.8417L167.716 62.7131C167.57 62.404 167.367 62.1518 167.105 61.9599L166.927 62.2028ZM167.446 62.8462C167.577 63.1008 167.645 63.4081 167.645 63.7734H167.947C167.947 63.3706 167.871 63.014 167.714 62.7085L167.446 62.8462ZM167.645 63.7734C167.645 64.2902 167.513 64.7312 167.253 65.103L167.499 65.2757C167.799 64.8476 167.947 64.3446 167.947 63.7734H167.645ZM167.253 65.103C166.998 65.4665 166.618 65.7042 166.098 65.8098L166.158 66.105C166.741 65.9866 167.194 65.7122 167.499 65.2757L167.253 65.103ZM165.977 65.9574V65.9814H166.279V65.9574H165.977ZM166.107 66.1305C166.372 66.1684 166.584 66.2394 166.746 66.338L166.902 66.0807C166.696 65.9554 166.443 65.8743 166.149 65.8323L166.107 66.1305ZM166.75 66.3405C166.914 66.4334 167.044 66.5535 167.143 66.7009L167.393 66.5338C167.267 66.3453 167.102 66.1933 166.898 66.0783L166.75 66.3405ZM167.145 66.7049C167.252 66.8544 167.328 67.0309 167.373 67.2369L167.667 67.1738C167.615 66.9319 167.524 66.7164 167.39 66.5298L167.145 66.7049ZM167.374 67.2432C167.427 67.4486 167.462 67.675 167.478 67.9228L167.778 67.904C167.762 67.6398 167.724 67.3941 167.666 67.1676L167.374 67.2432ZM167.478 67.9217C167.485 68.0646 167.493 68.2397 167.501 68.4472L167.802 68.4356C167.794 68.2271 167.786 68.0502 167.778 67.905L167.478 67.9217ZM167.501 68.4472C167.51 68.6589 167.526 68.8746 167.55 69.094L167.85 69.0607C167.826 68.8482 167.81 68.6398 167.802 68.4356L167.501 68.4472ZM167.55 69.0946C167.575 69.3088 167.612 69.5152 167.662 69.7139L167.954 69.6409C167.908 69.4555 167.873 69.262 167.85 69.0601L167.55 69.0946ZM167.664 69.7212C167.724 69.9173 167.803 70.082 167.909 70.2067L168.139 70.0121C168.068 69.9288 168.004 69.8054 167.952 69.6335L167.664 69.7212ZM168.024 69.9588H167.124V70.26H168.024V69.9588ZM167.253 70.0319C167.213 69.9656 167.178 69.8823 167.149 69.78L166.859 69.8627C166.894 69.9844 166.939 70.0932 166.995 70.1869L167.253 70.0319ZM167.152 69.7918C167.128 69.675 167.109 69.5582 167.093 69.4415L166.795 69.4813C166.811 69.6045 166.832 69.7278 166.856 69.8509L167.152 69.7918ZM167.094 69.452C167.086 69.3238 167.078 69.1996 167.07 69.0794L166.77 69.0994C166.778 69.2192 166.786 69.343 166.794 69.4708L167.094 69.452ZM167.07 69.0794C167.062 68.9585 167.054 68.8533 167.046 68.7637L166.746 68.791C166.754 68.8775 166.762 68.9802 166.77 69.0994L167.07 69.0794ZM167.046 68.7695C167.03 68.4614 167.002 68.1574 166.961 67.8572L166.663 67.8975C166.702 68.1894 166.73 68.4853 166.746 68.7853L167.046 68.7695ZM166.962 67.8616C166.928 67.5421 166.848 67.2554 166.718 67.0042L166.45 67.1426C166.56 67.3553 166.632 67.6047 166.662 67.8931L166.962 67.8616ZM166.72 67.0097C166.596 66.7438 166.409 66.53 166.161 66.3707L165.998 66.6241C166.199 66.7528 166.348 66.923 166.447 67.1371L166.72 67.0097ZM166.163 66.3721C165.911 66.2037 165.575 66.1382 165.174 66.1549L165.186 66.4558C165.553 66.4406 165.817 66.503 165.996 66.6227L166.163 66.3721ZM165.18 66.1548H162.084V66.456H165.18V66.1548ZM161.933 66.3054V70.1094H162.235V66.3054H161.933ZM162.084 69.9588H161.268V70.26H162.084V69.9588ZM161.419 70.1094V61.5414H161.117V70.1094H161.419Z" fill="#B4B4B4"/>
</svg>
