<svg width="276" height="130" viewBox="0 0 276 130" fill="none" xmlns="http://www.w3.org/2000/svg">
<path d="M171.021 77.1712L169.75 77.3922L169.756 77.4248L169.763 77.4571L171.021 77.1712ZM172.713 81.2966L171.63 81.9974L171.64 82.0125L171.65 82.0274L172.713 81.2966ZM175.887 84.0469L175.286 85.1884V85.1884L175.887 84.0469ZM187.628 82.9891L188.396 84.0257L188.402 84.0211L187.628 82.9891ZM192.706 77.2769L191.602 76.6083L192.706 77.2769ZM196.302 69.4492L195.081 69.0324L196.302 69.4492ZM198.629 60.7753L197.369 60.4987L197.366 60.5134L197.363 60.5282L198.629 60.7753ZM199.899 52.6302L198.616 52.4915L198.614 52.5073L198.613 52.5231L199.899 52.6302ZM199.687 40.9944L198.427 41.2684L198.432 41.2944L198.439 41.32L199.687 40.9944ZM197.783 36.7632L196.729 37.5071L196.743 37.5272L196.758 37.5468L197.783 36.7632ZM194.398 33.9071L193.797 35.0487L193.809 35.0549L193.821 35.061L194.398 33.9071ZM182.974 35.0707L183.742 36.1073L183.754 36.0983L183.766 36.089L182.974 35.0707ZM178.002 40.6771L179.105 41.3457L178.002 40.6771ZM174.406 48.6106L173.182 48.2026L173.179 48.2116L173.176 48.2207L174.406 48.6106ZM172.184 57.2845L170.918 57.0375L172.184 57.2845ZM170.915 65.5354L169.632 65.3967L169.631 65.4139L169.629 65.4311L170.915 65.5354ZM156.635 58.1308L155.363 57.9148L156.635 58.1308ZM159.385 47.1296L158.169 46.7003L158.165 46.711L158.161 46.7217L159.385 47.1296ZM164.145 36.869L163.043 36.1982L163.038 36.2071L163.033 36.216L164.145 36.869ZM170.915 28.4066L171.801 29.3444L171.801 29.3437L170.915 28.4066ZM179.695 22.5887L179.19 21.4016L179.18 21.4057L179.695 22.5887ZM201.485 22.5887L200.952 23.7631L200.963 23.7681L200.974 23.773L201.485 22.5887ZM209.207 28.3008L210.201 27.4778V27.4778L209.207 28.3008ZM213.756 37.1863L212.516 37.5407L212.52 37.556L212.525 37.5711L213.756 37.1863ZM214.391 59.7175L215.663 59.9295L215.664 59.9258L214.391 59.7175ZM211.429 70.8244L210.22 70.374L210.216 70.3845L210.212 70.395L211.429 70.8244ZM206.457 81.085L205.366 80.3971L205.36 80.4056L205.355 80.4143L206.457 81.085ZM199.476 89.5474L198.615 88.5861H198.615L199.476 89.5474ZM168.165 95.1538L167.566 96.2965L167.582 96.3049L167.599 96.3129L168.165 95.1538ZM160.972 88.9127L159.916 89.6544L160.972 88.9127ZM156.952 79.9214L155.699 80.2283L155.701 80.2343L156.952 79.9214ZM169.308 72.0937C169.308 73.9256 169.454 75.6923 169.75 77.3922L172.292 76.9501C172.023 75.4061 171.888 73.7878 171.888 72.0937H169.308ZM169.763 77.4571C170.145 79.1392 170.763 80.6579 171.63 81.9974L173.796 80.5958C173.112 79.5376 172.602 78.306 172.279 76.8853L169.763 77.4571ZM171.65 82.0274C172.557 83.3457 173.781 84.3963 175.286 85.1884L176.487 82.9053C175.313 82.287 174.421 81.5041 173.776 80.5658L171.65 82.0274ZM175.286 85.1884C176.864 86.0192 178.78 86.3947 180.964 86.3947V83.8147C179.058 83.8147 177.589 83.4849 176.487 82.9053L175.286 85.1884ZM180.964 86.3947C183.758 86.3947 186.254 85.6127 188.396 84.0257L186.86 81.9525C185.195 83.1862 183.247 83.8147 180.964 83.8147V86.3947ZM188.402 84.0211C190.522 82.4315 192.322 80.3993 193.809 77.9455L191.602 76.6083C190.269 78.8089 188.684 80.5848 186.854 81.9571L188.402 84.0211ZM193.809 77.9455C195.273 75.5299 196.509 72.8347 197.523 69.8661L195.081 69.0324C194.121 71.8463 192.959 74.3696 191.602 76.6083L193.809 77.9455ZM197.523 69.8661C198.529 66.9213 199.32 63.9733 199.895 61.0223L197.363 60.5282C196.811 63.3599 196.05 66.1945 195.081 69.0324L197.523 69.8661ZM199.889 61.0518C200.534 58.1134 200.967 55.3413 201.184 52.7373L198.613 52.5231C198.407 54.9966 197.994 57.6545 197.369 60.4987L199.889 61.0518ZM201.181 52.7688C201.466 50.1356 201.612 47.9343 201.612 46.1776H199.032C199.032 47.8059 198.896 49.9063 198.616 52.4915L201.181 52.7688ZM201.612 46.1776C201.612 44.2444 201.389 42.4065 200.935 40.6688L198.439 41.32C198.832 42.8262 199.032 44.4438 199.032 46.1776H201.612ZM200.948 40.7204C200.559 38.932 199.851 37.3434 198.808 35.9796L196.758 37.5468C197.549 38.5807 198.11 39.8129 198.427 41.2684L200.948 40.7204ZM198.837 36.0193C197.859 34.6337 196.561 33.5464 194.975 32.7533L193.821 35.061C195.056 35.6783 196.015 36.495 196.729 37.5071L198.837 36.0193ZM194.999 32.7656C193.432 31.941 191.593 31.5593 189.532 31.5593V34.1393C191.28 34.1393 192.684 34.4629 193.797 35.0487L194.999 32.7656ZM189.532 31.5593C186.784 31.5593 184.318 32.391 182.182 34.0525L183.766 36.089C185.438 34.7886 187.344 34.1393 189.532 34.1393V31.5593ZM182.206 34.0341C180.149 35.5579 178.383 37.5591 176.899 40.0085L179.105 41.3457C180.442 39.1407 181.991 37.4043 183.742 36.1073L182.206 34.0341ZM176.899 40.0085C175.432 42.4287 174.195 45.1627 173.182 48.2026L175.63 49.0185C176.591 46.1347 177.751 43.5797 179.105 41.3457L176.899 40.0085ZM173.176 48.2207C172.245 51.1575 171.492 54.0965 170.918 57.0375L173.45 57.5316C174.005 54.6899 174.733 51.8463 175.635 49.0005L173.176 48.2207ZM170.918 57.0375C170.348 59.9604 169.919 62.747 169.632 65.3967L172.198 65.674C172.475 63.1052 172.892 60.3913 173.45 57.5316L170.918 57.0375ZM169.629 65.4311C169.416 68.0602 169.308 70.2837 169.308 72.0937H171.888C171.888 70.3778 171.991 68.229 172.201 65.6396L169.629 65.4311ZM156.973 69.0261C156.973 65.5776 157.283 62.0182 157.906 58.3467L155.363 57.9148C154.717 61.7184 154.393 65.4226 154.393 69.0261H156.973ZM157.906 58.3467C158.53 54.6743 159.431 51.0714 160.609 47.5376L158.161 46.7217C156.941 50.3809 156.009 54.1121 155.363 57.9148L157.906 58.3467ZM160.601 47.559C161.844 44.0391 163.396 40.6938 165.258 37.522L163.033 36.216C161.086 39.532 159.465 43.0272 158.169 46.7003L160.601 47.559ZM165.247 37.5397C167.167 34.3855 169.353 31.6565 171.801 29.3444L170.029 27.4687C167.4 29.952 165.072 32.8646 163.043 36.1982L165.247 37.5397ZM171.801 29.3437C174.304 26.9769 177.105 25.1214 180.209 23.7717L179.18 21.4057C175.797 22.8767 172.745 24.8999 170.028 27.4694L171.801 29.3437ZM180.2 23.7757C183.34 22.4395 186.798 21.7631 190.59 21.7631V19.1831C186.484 19.1831 182.679 19.917 179.19 21.4017L180.2 23.7757ZM190.59 21.7631C194.606 21.7631 198.049 22.4437 200.952 23.7631L202.019 21.4143C198.716 19.9128 194.895 19.1831 190.59 19.1831V21.7631ZM200.974 23.773C203.9 25.0367 206.306 26.8209 208.214 29.1238L210.201 27.4778C208.019 24.8442 205.276 22.8204 201.997 21.4044L200.974 23.773ZM208.214 29.1238C210.132 31.4388 211.571 34.236 212.516 37.5407L214.996 36.8319C213.966 33.2257 212.373 30.0992 210.201 27.4778L208.214 29.1238ZM212.525 37.5711C213.537 40.8121 214.053 44.4526 214.053 48.5048H216.633C216.633 44.2356 216.09 40.3304 214.987 36.8015L212.525 37.5711ZM214.053 48.5048C214.053 52.0254 213.742 55.6931 213.117 59.5091L215.664 59.9258C216.309 55.9846 216.633 52.1772 216.633 48.5048H214.053ZM213.118 59.5054C212.497 63.2327 211.531 66.8552 210.22 70.374L212.638 71.2747C214.006 67.6005 215.015 63.8184 215.663 59.9295L213.118 59.5054ZM210.212 70.395C208.975 73.9004 207.36 77.234 205.366 80.3971L207.548 81.773C209.644 78.4482 211.344 74.9413 212.645 71.2537L210.212 70.395ZM205.355 80.4143C203.443 83.5561 201.196 86.2775 198.615 88.5861L200.336 90.5088C203.115 88.022 205.522 85.1018 207.559 81.7558L205.355 80.4143ZM198.615 88.5861C196.045 90.8855 193.137 92.7128 189.882 94.0688L190.875 96.4503C194.39 94.9855 197.546 93.0047 200.336 90.5088L198.615 88.5861ZM189.882 94.0688C186.674 95.4054 183.073 96.0851 179.06 96.0851V98.6651C183.368 98.6651 187.313 97.9345 190.875 96.4503L189.882 94.0688ZM179.06 96.0851C174.977 96.0851 171.548 95.3704 168.731 93.9946L167.599 96.3129C170.846 97.899 174.681 98.6651 179.06 98.6651V96.0851ZM168.763 94.011C165.974 92.5502 163.737 90.6039 162.027 88.1711L159.916 89.6544C161.874 92.44 164.431 94.6544 167.566 96.2965L168.763 94.011ZM162.027 88.1711C160.293 85.7032 159.015 82.8543 158.204 79.6086L155.701 80.2343C156.582 83.7585 157.983 86.9038 159.916 89.6544L162.027 88.1711ZM158.205 79.6146C157.385 76.2663 156.973 72.738 156.973 69.0261H154.393C154.393 72.9303 154.827 76.6656 155.699 80.2283L158.205 79.6146ZM260.158 66.4874L258.896 66.2206L258.567 67.7774H260.158V66.4874ZM269.995 66.4874L271.257 66.7569L271.59 65.1974H269.995V66.4874ZM267.351 78.8636V80.1536H268.394L268.612 79.1332L267.351 78.8636ZM257.513 78.8636V77.5736H256.472L256.252 78.5912L257.513 78.8636ZM253.811 96V97.29H254.852L255.072 96.2724L253.811 96ZM239.531 96L238.27 95.7276L237.932 97.29H239.531V96ZM243.233 78.8636L244.494 79.1361L244.831 77.5736H243.233V78.8636ZM208.96 78.8636L207.696 78.6088L207.384 80.1536H208.96V78.8636ZM211.711 65.218L210.798 64.3059L210.523 64.5813L210.446 64.9631L211.711 65.218ZM254.975 21.954V20.664H254.44L254.062 21.0418L254.975 21.954ZM269.572 21.954L270.834 22.2208L271.163 20.664H269.572V21.954ZM245.877 66.4874V67.7774H246.923L247.139 66.7548L245.877 66.4874ZM251.907 38.0326L253.169 38.3L253.499 36.7426H251.907V38.0326ZM251.695 38.0326V36.7426H251.152L250.773 37.1307L251.695 38.0326ZM223.875 66.4874L222.953 65.5856L220.81 67.7774H223.875V66.4874ZM260.158 67.7774H269.995V65.1974H260.158V67.7774ZM268.734 66.2178L266.089 78.5941L268.612 79.1332L271.257 66.7569L268.734 66.2178ZM267.351 77.5736H257.513V80.1536H267.351V77.5736ZM256.252 78.5912L252.55 95.7276L255.072 96.2724L258.774 79.1361L256.252 78.5912ZM253.811 94.71H239.531V97.29H253.811V94.71ZM240.792 96.2724L244.494 79.1361L241.972 78.5912L238.27 95.7276L240.792 96.2724ZM243.233 77.5736H208.96V80.1536H243.233V77.5736ZM210.225 79.1185L212.975 65.4729L210.446 64.9631L207.696 78.6088L210.225 79.1185ZM212.623 66.1302L255.887 22.8662L254.062 21.0418L210.798 64.3059L212.623 66.1302ZM254.975 23.244H269.572V20.664H254.975V23.244ZM268.31 21.6872L258.896 66.2206L261.42 66.7542L270.834 22.2208L268.31 21.6872ZM247.139 66.7548L253.169 38.3L250.645 37.7651L244.615 66.22L247.139 66.7548ZM251.907 36.7426H251.695V39.3226H251.907V36.7426ZM250.773 37.1307L222.953 65.5856L224.798 67.3892L252.618 38.9344L250.773 37.1307ZM223.875 67.7774H245.877V65.1974H223.875V67.7774Z" fill="white"/>
<path d="M159.183 126.402C159.819 126.402 160.342 126.335 160.752 126.203C161.482 125.958 162.081 125.485 162.547 124.786C162.918 124.225 163.186 123.507 163.35 122.632C163.444 122.109 163.492 121.624 163.492 121.177C163.492 119.457 163.148 118.122 162.462 117.171C161.781 116.22 160.682 115.744 159.164 115.744H155.829V126.402H159.183ZM153.939 114.128H159.561C161.47 114.128 162.95 114.805 164.002 116.16C164.94 117.382 165.41 118.947 165.41 120.855C165.41 122.329 165.132 123.662 164.578 124.852C163.602 126.956 161.923 128.008 159.542 128.008H153.939V114.128ZM169.952 114.128H180.071V115.829H171.785V120.043H179.448V121.649H171.785V126.354H180.213V128.008H169.952V114.128ZM190.463 113.75C192.22 113.75 193.584 114.213 194.554 115.139C195.524 116.065 196.062 117.117 196.169 118.295H194.336C194.128 117.401 193.713 116.692 193.089 116.169C192.472 115.646 191.603 115.385 190.481 115.385C189.115 115.385 188.009 115.867 187.165 116.831C186.327 117.788 185.908 119.259 185.908 121.243C185.908 122.868 186.286 124.188 187.042 125.202C187.804 126.209 188.938 126.713 190.444 126.713C191.829 126.713 192.884 126.181 193.609 125.117C193.993 124.556 194.28 123.819 194.469 122.906H196.302C196.138 124.367 195.596 125.592 194.676 126.581C193.574 127.772 192.088 128.367 190.217 128.367C188.604 128.367 187.25 127.879 186.154 126.902C184.712 125.611 183.99 123.618 183.99 120.922C183.99 118.875 184.532 117.196 185.616 115.886C186.787 114.462 188.403 113.75 190.463 113.75ZM200.712 114.128H210.831V115.829H202.545V120.043H210.207V121.649H202.545V126.354H210.973V128.008H200.712V114.128ZM215.327 114.128H218.019L222.006 125.863L225.965 114.128H228.63V128.008H226.844V119.816C226.844 119.533 226.85 119.063 226.863 118.408C226.875 117.753 226.882 117.051 226.882 116.301L222.923 128.008H221.062L217.074 116.301V116.727C217.074 117.067 217.081 117.586 217.093 118.286C217.112 118.978 217.122 119.489 217.122 119.816V128.008H215.327V114.128ZM238.643 119.996C239.437 119.996 240.054 119.885 240.495 119.665C241.188 119.319 241.534 118.695 241.534 117.794C241.534 116.887 241.166 116.276 240.429 115.961C240.013 115.785 239.396 115.697 238.577 115.697H235.223V119.996H238.643ZM239.276 126.402C240.429 126.402 241.251 126.068 241.742 125.4C242.051 124.978 242.205 124.468 242.205 123.869C242.205 122.862 241.755 122.175 240.854 121.81C240.375 121.615 239.742 121.517 238.955 121.517H235.223V126.402H239.276ZM233.38 114.128H239.342C240.967 114.128 242.123 114.613 242.81 115.583C243.213 116.157 243.414 116.818 243.414 117.568C243.414 118.443 243.165 119.161 242.668 119.722C242.41 120.018 242.038 120.289 241.553 120.534C242.265 120.805 242.797 121.111 243.15 121.451C243.773 122.055 244.085 122.89 244.085 123.955C244.085 124.849 243.805 125.658 243.244 126.383C242.406 127.466 241.074 128.008 239.248 128.008H233.38V114.128ZM248.448 114.128H258.567V115.829H250.281V120.043H257.944V121.649H250.281V126.354H258.709V128.008H248.448V114.128ZM269.563 120.487C270.445 120.487 271.141 120.311 271.651 119.958C272.168 119.605 272.426 118.969 272.426 118.049C272.426 117.06 272.067 116.386 271.349 116.027C270.965 115.838 270.451 115.744 269.809 115.744H265.217V120.487H269.563ZM263.337 114.128H269.762C270.82 114.128 271.692 114.283 272.379 114.591C273.683 115.183 274.335 116.276 274.335 117.87C274.335 118.701 274.161 119.382 273.815 119.911C273.475 120.44 272.996 120.865 272.379 121.186C272.92 121.407 273.327 121.696 273.598 122.055C273.875 122.414 274.029 122.997 274.061 123.803L274.127 125.665C274.146 126.194 274.19 126.587 274.259 126.846C274.372 127.287 274.574 127.57 274.864 127.696V128.008H272.558C272.495 127.888 272.445 127.734 272.407 127.545C272.369 127.356 272.338 126.991 272.313 126.449L272.199 124.134C272.155 123.227 271.818 122.619 271.188 122.311C270.829 122.14 270.266 122.055 269.497 122.055H265.217V128.008H263.337V114.128Z" fill="white"/>
<path d="M160.752 126.203L160.862 126.544L160.866 126.542L160.752 126.203ZM162.547 124.786L162.844 124.984L162.845 124.984L162.547 124.786ZM163.35 122.632L163.701 122.698L163.702 122.695L163.35 122.632ZM162.462 117.171L162.171 117.379L162.172 117.38L162.462 117.171ZM155.829 115.744V115.386H155.471V115.744H155.829ZM155.829 126.402H155.471V126.759H155.829V126.402ZM153.939 114.128V113.771H153.582V114.128H153.939ZM164.002 116.16L164.285 115.942L164.284 115.94L164.002 116.16ZM164.578 124.852L164.254 124.701L164.254 124.702L164.578 124.852ZM153.939 128.008H153.582V128.365H153.939V128.008ZM159.183 126.759C159.841 126.759 160.404 126.691 160.862 126.543L160.642 125.863C160.28 125.98 159.798 126.044 159.183 126.044V126.759ZM160.866 126.542C161.678 126.269 162.338 125.743 162.844 124.984L162.249 124.588C161.823 125.227 161.286 125.646 160.638 125.864L160.866 126.542ZM162.845 124.984C163.25 124.372 163.532 123.606 163.701 122.698L162.998 122.566C162.841 123.409 162.587 124.078 162.249 124.588L162.845 124.984ZM163.702 122.695C163.799 122.155 163.849 121.649 163.849 121.177H163.134C163.134 121.599 163.089 122.063 162.998 122.568L163.702 122.695ZM163.849 121.177C163.849 119.415 163.498 117.996 162.752 116.961L162.172 117.38C162.798 118.248 163.134 119.499 163.134 121.177H163.849ZM162.753 116.963C161.986 115.89 160.76 115.386 159.164 115.386V116.102C160.605 116.102 161.577 116.549 162.171 117.379L162.753 116.963ZM159.164 115.386H155.829V116.102H159.164V115.386ZM155.471 115.744V126.402H156.187V115.744H155.471ZM155.829 126.759H159.183V126.044H155.829V126.759ZM153.939 114.486H159.561V113.771H153.939V114.486ZM159.561 114.486C161.373 114.486 162.744 115.123 163.719 116.379L164.284 115.94C163.156 114.488 161.566 113.771 159.561 113.771V114.486ZM163.718 116.378C164.598 117.523 165.052 119.007 165.052 120.855H165.767C165.767 118.887 165.282 117.24 164.285 115.942L163.718 116.378ZM165.052 120.855C165.052 122.284 164.784 123.563 164.254 124.701L164.902 125.003C165.481 123.76 165.767 122.375 165.767 120.855H165.052ZM164.254 124.702C163.79 125.702 163.168 126.433 162.397 126.916C161.625 127.4 160.679 127.65 159.542 127.65V128.365C160.786 128.365 161.87 128.09 162.777 127.522C163.684 126.953 164.39 126.106 164.903 125.003L164.254 124.702ZM159.542 127.65H153.939V128.365H159.542V127.65ZM154.297 128.008V114.128H153.582V128.008H154.297ZM169.952 114.128V113.771H169.595V114.128H169.952ZM180.071 114.128H180.429V113.771H180.071V114.128ZM180.071 115.829V116.187H180.429V115.829H180.071ZM171.785 115.829V115.471H171.428V115.829H171.785ZM171.785 120.043H171.428V120.401H171.785V120.043ZM179.448 120.043H179.805V119.685H179.448V120.043ZM179.448 121.649V122.007H179.805V121.649H179.448ZM171.785 121.649V121.292H171.428V121.649H171.785ZM171.785 126.354H171.428V126.712H171.785V126.354ZM180.213 126.354H180.571V125.997H180.213V126.354ZM180.213 128.008V128.365H180.571V128.008H180.213ZM169.952 128.008H169.595V128.365H169.952V128.008ZM169.952 114.486H180.071V113.771H169.952V114.486ZM179.714 114.128V115.829H180.429V114.128H179.714ZM180.071 115.471H171.785V116.187H180.071V115.471ZM171.428 115.829V120.043H172.143V115.829H171.428ZM171.785 120.401H179.448V119.685H171.785V120.401ZM179.09 120.043V121.649H179.805V120.043H179.09ZM179.448 121.292H171.785V122.007H179.448V121.292ZM171.428 121.649V126.354H172.143V121.649H171.428ZM171.785 126.712H180.213V125.997H171.785V126.712ZM179.855 126.354V128.008H180.571V126.354H179.855ZM180.213 127.65H169.952V128.365H180.213V127.65ZM170.31 128.008V114.128H169.595V128.008H170.31ZM196.169 118.295V118.653H196.561L196.525 118.263L196.169 118.295ZM194.336 118.295L193.988 118.376L194.052 118.653H194.336V118.295ZM193.089 116.169L192.858 116.442L192.859 116.443L193.089 116.169ZM187.165 116.831L186.896 116.595L186.896 116.595L187.165 116.831ZM187.042 125.202L186.756 125.415L186.757 125.417L187.042 125.202ZM193.609 125.117L193.314 124.914L193.313 124.915L193.609 125.117ZM194.469 122.906V122.548H194.177L194.118 122.833L194.469 122.906ZM196.302 122.906L196.657 122.946L196.701 122.548H196.302V122.906ZM194.676 126.581L194.415 126.338L194.414 126.338L194.676 126.581ZM186.154 126.902L185.916 127.169L185.916 127.169L186.154 126.902ZM185.616 115.886L185.891 116.114L185.892 116.113L185.616 115.886ZM190.463 114.108C192.157 114.108 193.422 114.553 194.307 115.398L194.801 114.881C193.745 113.873 192.282 113.393 190.463 113.393V114.108ZM194.307 115.398C195.223 116.273 195.715 117.247 195.813 118.327L196.525 118.263C196.409 116.987 195.824 115.858 194.801 114.881L194.307 115.398ZM196.169 117.937H194.336V118.653H196.169V117.937ZM194.685 118.214C194.462 117.254 194.009 116.474 193.319 115.895L192.859 116.443C193.416 116.91 193.795 117.547 193.988 118.376L194.685 118.214ZM193.32 115.896C192.617 115.301 191.655 115.027 190.481 115.027V115.743C191.55 115.743 192.326 115.992 192.858 116.442L193.32 115.896ZM190.481 115.027C189.019 115.027 187.813 115.548 186.896 116.595L187.434 117.066C188.205 116.186 189.21 115.743 190.481 115.743V115.027ZM186.896 116.595C185.977 117.646 185.551 119.218 185.551 121.243H186.266C186.266 119.299 186.678 117.93 187.434 117.066L186.896 116.595ZM185.551 121.243C185.551 122.923 185.942 124.324 186.756 125.415L187.329 124.988C186.631 124.051 186.266 122.813 186.266 121.243H185.551ZM186.757 125.417C187.6 126.532 188.85 127.071 190.444 127.071V126.356C189.026 126.356 188.009 125.887 187.328 124.986L186.757 125.417ZM190.444 127.071C191.937 127.071 193.108 126.489 193.904 125.318L193.313 124.915C192.661 125.874 191.722 126.356 190.444 126.356V127.071ZM193.904 125.319C194.323 124.707 194.624 123.922 194.819 122.978L194.118 122.833C193.936 123.716 193.663 124.405 193.314 124.914L193.904 125.319ZM194.469 123.263H196.302V122.548H194.469V123.263ZM195.946 122.866C195.79 124.258 195.277 125.41 194.415 126.338L194.938 126.825C195.915 125.775 196.485 124.476 196.657 122.946L195.946 122.866ZM194.414 126.338C193.39 127.444 192.005 128.009 190.217 128.009V128.724C192.171 128.724 193.758 128.099 194.939 126.824L194.414 126.338ZM190.217 128.009C188.683 128.009 187.416 127.547 186.392 126.635L185.916 127.169C187.084 128.21 188.526 128.724 190.217 128.724V128.009ZM186.393 126.636C185.052 125.436 184.348 123.557 184.348 120.922H183.633C183.633 123.678 184.371 125.786 185.916 127.169L186.393 126.636ZM184.348 120.922C184.348 118.94 184.871 117.347 185.891 116.114L185.34 115.658C184.193 117.044 183.633 118.809 183.633 120.922H184.348ZM185.892 116.113C186.987 114.782 188.496 114.108 190.463 114.108V113.393C188.31 113.393 186.587 114.142 185.339 115.658L185.892 116.113ZM200.712 114.128V113.771H200.354V114.128H200.712ZM210.831 114.128H211.189V113.771H210.831V114.128ZM210.831 115.829V116.187H211.189V115.829H210.831ZM202.545 115.829V115.471H202.187V115.829H202.545ZM202.545 120.043H202.187V120.401H202.545V120.043ZM210.207 120.043H210.565V119.685H210.207V120.043ZM210.207 121.649V122.007H210.565V121.649H210.207ZM202.545 121.649V121.292H202.187V121.649H202.545ZM202.545 126.354H202.187V126.712H202.545V126.354ZM210.973 126.354H211.33V125.997H210.973V126.354ZM210.973 128.008V128.365H211.33V128.008H210.973ZM200.712 128.008H200.354V128.365H200.712V128.008ZM200.712 114.486H210.831V113.771H200.712V114.486ZM210.473 114.128V115.829H211.189V114.128H210.473ZM210.831 115.471H202.545V116.187H210.831V115.471ZM202.187 115.829V120.043H202.903V115.829H202.187ZM202.545 120.401H210.207V119.685H202.545V120.401ZM209.85 120.043V121.649H210.565V120.043H209.85ZM210.207 121.292H202.545V122.007H210.207V121.292ZM202.187 121.649V126.354H202.903V121.649H202.187ZM202.545 126.712H210.973V125.997H202.545V126.712ZM210.615 126.354V128.008H211.33V126.354H210.615ZM210.973 127.65H200.712V128.365H210.973V127.65ZM201.07 128.008V114.128H200.354V128.008H201.07ZM215.327 114.128V113.771H214.969V114.128H215.327ZM218.019 114.128L218.358 114.013L218.275 113.771H218.019V114.128ZM222.006 125.863L221.668 125.978L222.008 126.978L222.345 125.977L222.006 125.863ZM225.965 114.128V113.771H225.708L225.626 114.014L225.965 114.128ZM228.63 114.128H228.987V113.771H228.63V114.128ZM228.63 128.008V128.365H228.987V128.008H228.63ZM226.844 128.008H226.486V128.365H226.844V128.008ZM226.882 116.301H227.239L226.543 116.187L226.882 116.301ZM222.923 128.008V128.365H223.179L223.262 128.122L222.923 128.008ZM221.062 128.008L220.723 128.123L220.806 128.365H221.062V128.008ZM217.074 116.301L217.413 116.186L216.717 116.301H217.074ZM217.093 118.286L216.736 118.292L216.736 118.295L217.093 118.286ZM217.122 128.008V128.365H217.479V128.008H217.122ZM215.327 128.008H214.969V128.365H215.327V128.008ZM215.327 114.486H218.019V113.771H215.327V114.486ZM217.681 114.243L221.668 125.978L222.345 125.748L218.358 114.013L217.681 114.243ZM222.345 125.977L226.304 114.243L225.626 114.014L221.668 125.749L222.345 125.977ZM225.965 114.486H228.63V113.771H225.965V114.486ZM228.272 114.128V128.008H228.987V114.128H228.272ZM228.63 127.65H226.844V128.365H228.63V127.65ZM227.202 128.008V119.816H226.486V128.008H227.202ZM227.202 119.816C227.202 119.536 227.208 119.07 227.22 118.415L226.505 118.402C226.493 119.057 226.486 119.529 226.486 119.816H227.202ZM227.22 118.415C227.233 117.758 227.239 117.053 227.239 116.301H226.524C226.524 117.049 226.518 117.749 226.505 118.402L227.22 118.415ZM226.543 116.187L222.584 127.893L223.262 128.122L227.221 116.416L226.543 116.187ZM222.923 127.65H221.062V128.365H222.923V127.65ZM221.4 127.893L217.413 116.186L216.736 116.417L220.723 128.123L221.4 127.893ZM216.717 116.301V116.727H217.432V116.301H216.717ZM216.717 116.727C216.717 117.07 216.723 117.592 216.736 118.292L217.451 118.279C217.438 117.58 217.432 117.063 217.432 116.727H216.717ZM216.736 118.295C216.755 118.988 216.764 119.494 216.764 119.816H217.479C217.479 119.483 217.47 118.969 217.451 118.276L216.736 118.295ZM216.764 119.816V128.008H217.479V119.816H216.764ZM217.122 127.65H215.327V128.365H217.122V127.65ZM215.684 128.008V114.128H214.969V128.008H215.684ZM240.495 119.665L240.335 119.345L240.495 119.665ZM240.429 115.961L240.569 115.632L240.568 115.632L240.429 115.961ZM235.223 115.697V115.339H234.865V115.697H235.223ZM235.223 119.996H234.865V120.353H235.223V119.996ZM241.742 125.4L242.03 125.612L242.031 125.611L241.742 125.4ZM240.854 121.81L240.719 122.141L240.719 122.141L240.854 121.81ZM235.223 121.517V121.159H234.865V121.517H235.223ZM235.223 126.402H234.865V126.759H235.223V126.402ZM233.38 114.128V113.771H233.023V114.128H233.38ZM242.81 115.583L243.102 115.378L243.101 115.377L242.81 115.583ZM242.668 119.722L242.4 119.484L242.398 119.487L242.668 119.722ZM241.553 120.534L241.391 120.215L240.67 120.581L241.426 120.868L241.553 120.534ZM243.15 121.451L243.399 121.194L243.398 121.193L243.15 121.451ZM243.244 126.383L242.961 126.164L242.961 126.164L243.244 126.383ZM233.38 128.008H233.023V128.365H233.38V128.008ZM238.643 120.353C239.462 120.353 240.143 120.241 240.655 119.985L240.335 119.345C239.965 119.53 239.411 119.638 238.643 119.638V120.353ZM240.655 119.985C241.06 119.782 241.376 119.491 241.587 119.111C241.796 118.734 241.892 118.29 241.892 117.794H241.176C241.176 118.2 241.099 118.517 240.962 118.764C240.826 119.007 240.623 119.201 240.335 119.345L240.655 119.985ZM241.892 117.794C241.892 117.293 241.79 116.846 241.564 116.471C241.336 116.094 240.998 115.816 240.569 115.632L240.288 116.29C240.596 116.422 240.811 116.607 240.951 116.84C241.094 117.077 241.176 117.388 241.176 117.794H241.892ZM240.568 115.632C240.086 115.427 239.411 115.339 238.577 115.339V116.054C239.38 116.054 239.94 116.142 240.289 116.291L240.568 115.632ZM238.577 115.339H235.223V116.054H238.577V115.339ZM234.865 115.697V119.996H235.58V115.697H234.865ZM235.223 120.353H238.643V119.638H235.223V120.353ZM239.276 126.759C240.495 126.759 241.447 126.404 242.03 125.612L241.454 125.188C241.054 125.732 240.362 126.044 239.276 126.044V126.759ZM242.031 125.611C242.39 125.119 242.563 124.532 242.563 123.869H241.847C241.847 124.403 241.711 124.837 241.453 125.189L242.031 125.611ZM242.563 123.869C242.563 123.312 242.437 122.816 242.166 122.403C241.894 121.988 241.493 121.683 240.988 121.478L240.719 122.141C241.115 122.302 241.39 122.523 241.568 122.795C241.747 123.068 241.847 123.419 241.847 123.869H242.563ZM240.989 121.479C240.451 121.259 239.767 121.159 238.955 121.159V121.874C239.718 121.874 240.299 121.97 240.719 122.141L240.989 121.479ZM238.955 121.159H235.223V121.874H238.955V121.159ZM234.865 121.517V126.402H235.58V121.517H234.865ZM235.223 126.759H239.276V126.044H235.223V126.759ZM233.38 114.486H239.342V113.771H233.38V114.486ZM239.342 114.486C240.897 114.486 241.921 114.947 242.518 115.79L243.101 115.377C242.325 114.28 241.037 113.771 239.342 113.771V114.486ZM242.517 115.789C242.875 116.298 243.057 116.886 243.057 117.568H243.772C243.772 116.75 243.551 116.015 243.102 115.378L242.517 115.789ZM243.057 117.568C243.057 118.371 242.83 119 242.4 119.484L242.935 119.959C243.501 119.322 243.772 118.515 243.772 117.568H243.057ZM242.398 119.487C242.18 119.737 241.85 119.983 241.391 120.215L241.715 120.853C242.226 120.594 242.64 120.298 242.937 119.957L242.398 119.487ZM241.426 120.868C242.115 121.131 242.597 121.415 242.901 121.708L243.398 121.193C242.997 120.806 242.415 120.48 241.68 120.2L241.426 120.868ZM242.901 121.707C243.44 122.23 243.727 122.963 243.727 123.955H244.443C244.443 122.817 244.107 121.881 243.399 121.194L242.901 121.707ZM243.727 123.955C243.727 124.768 243.475 125.501 242.961 126.164L243.527 126.602C244.135 125.816 244.443 124.93 244.443 123.955H243.727ZM242.961 126.164C242.212 127.132 241.003 127.65 239.248 127.65V128.365C241.145 128.365 242.601 127.8 243.527 126.601L242.961 126.164ZM239.248 127.65H233.38V128.365H239.248V127.65ZM233.738 128.008V114.128H233.023V128.008H233.738ZM248.448 114.128V113.771H248.091V114.128H248.448ZM258.567 114.128H258.925V113.771H258.567V114.128ZM258.567 115.829V116.187H258.925V115.829H258.567ZM250.281 115.829V115.471H249.924V115.829H250.281ZM250.281 120.043H249.924V120.401H250.281V120.043ZM257.944 120.043H258.301V119.685H257.944V120.043ZM257.944 121.649V122.007H258.301V121.649H257.944ZM250.281 121.649V121.292H249.924V121.649H250.281ZM250.281 126.354H249.924V126.712H250.281V126.354ZM258.709 126.354H259.067V125.997H258.709V126.354ZM258.709 128.008V128.365H259.067V128.008H258.709ZM248.448 128.008H248.091V128.365H248.448V128.008ZM248.448 114.486H258.567V113.771H248.448V114.486ZM258.21 114.128V115.829H258.925V114.128H258.21ZM258.567 115.471H250.281V116.187H258.567V115.471ZM249.924 115.829V120.043H250.639V115.829H249.924ZM250.281 120.401H257.944V119.685H250.281V120.401ZM257.586 120.043V121.649H258.301V120.043H257.586ZM257.944 121.292H250.281V122.007H257.944V121.292ZM249.924 121.649V126.354H250.639V121.649H249.924ZM250.281 126.712H258.709V125.997H250.281V126.712ZM258.351 126.354V128.008H259.067V126.354H258.351ZM258.709 127.65H248.448V128.365H258.709V127.65ZM248.806 128.008V114.128H248.091V128.008H248.806ZM271.651 119.958L271.45 119.663L271.448 119.664L271.651 119.958ZM271.349 116.027L271.509 115.708L271.507 115.707L271.349 116.027ZM265.217 115.744V115.386H264.859V115.744H265.217ZM265.217 120.487H264.859V120.845H265.217V120.487ZM263.337 114.128V113.771H262.979V114.128H263.337ZM272.379 114.591L272.527 114.266L272.525 114.265L272.379 114.591ZM273.815 119.911L273.516 119.715L273.514 119.717L273.815 119.911ZM272.379 121.186L272.214 120.869L271.528 121.226L272.244 121.517L272.379 121.186ZM273.598 122.055L273.312 122.271L273.315 122.274L273.598 122.055ZM274.061 123.803L274.418 123.791L274.418 123.789L274.061 123.803ZM274.127 125.665L273.769 125.677V125.677L274.127 125.665ZM274.259 126.846L274.605 126.757L274.604 126.753L274.259 126.846ZM274.864 127.696H275.221V127.462L275.006 127.368L274.864 127.696ZM274.864 128.008V128.365H275.221V128.008H274.864ZM272.558 128.008L272.242 128.174L272.342 128.365H272.558V128.008ZM272.313 126.449L272.67 126.432L272.67 126.431L272.313 126.449ZM272.199 124.134L271.842 124.151L271.842 124.152L272.199 124.134ZM271.188 122.311L271.346 121.989L271.341 121.987L271.188 122.311ZM265.217 122.055V121.698H264.859V122.055H265.217ZM265.217 128.008V128.365H265.575V128.008H265.217ZM263.337 128.008H262.979V128.365H263.337V128.008ZM269.563 120.845C270.488 120.845 271.264 120.66 271.855 120.252L271.448 119.664C271.018 119.961 270.402 120.129 269.563 120.129V120.845ZM271.853 120.253C272.507 119.806 272.784 119.028 272.784 118.049H272.068C272.068 118.91 271.828 119.404 271.45 119.663L271.853 120.253ZM272.784 118.049C272.784 116.963 272.379 116.142 271.509 115.708L271.189 116.347C271.755 116.631 272.068 117.158 272.068 118.049H272.784ZM271.507 115.707C271.055 115.484 270.481 115.386 269.809 115.386V116.102C270.422 116.102 270.874 116.193 271.191 116.348L271.507 115.707ZM269.809 115.386H265.217V116.102H269.809V115.386ZM264.859 115.744V120.487H265.575V115.744H264.859ZM265.217 120.845H269.563V120.129H265.217V120.845ZM263.337 114.486H269.762V113.771H263.337V114.486ZM269.762 114.486C270.788 114.486 271.606 114.636 272.232 114.917L272.525 114.265C271.778 113.929 270.851 113.771 269.762 113.771V114.486ZM272.231 114.917C272.825 115.187 273.254 115.562 273.539 116.038C273.824 116.517 273.977 117.121 273.977 117.87H274.692C274.692 117.025 274.519 116.286 274.153 115.672C273.785 115.055 273.236 114.588 272.527 114.266L272.231 114.917ZM273.977 117.87C273.977 118.653 273.814 119.26 273.516 119.715L274.114 120.107C274.509 119.504 274.692 118.749 274.692 117.87H273.977ZM273.514 119.717C273.211 120.189 272.782 120.573 272.214 120.869L272.544 121.503C273.21 121.157 273.738 120.691 274.116 120.104L273.514 119.717ZM272.244 121.517C272.743 121.721 273.09 121.977 273.312 122.271L273.883 121.84C273.563 121.416 273.097 121.093 272.514 120.855L272.244 121.517ZM273.315 122.274C273.523 122.544 273.673 123.034 273.703 123.817L274.418 123.789C274.386 122.96 274.227 122.285 273.881 121.837L273.315 122.274ZM273.703 123.816L273.769 125.677L274.484 125.652L274.418 123.791L273.703 123.816ZM273.769 125.677C273.788 126.213 273.833 126.64 273.914 126.938L274.604 126.753C274.546 126.535 274.503 126.175 274.484 125.652L273.769 125.677ZM273.913 126.935C274.041 127.433 274.291 127.837 274.721 128.024L275.006 127.368C274.857 127.303 274.704 127.14 274.605 126.757L273.913 126.935ZM274.506 127.696V128.008H275.221V127.696H274.506ZM274.864 127.65H272.558V128.365H274.864V127.65ZM272.875 127.841C272.833 127.762 272.791 127.643 272.758 127.475L272.056 127.615C272.098 127.825 272.158 128.015 272.242 128.174L272.875 127.841ZM272.758 127.475C272.726 127.316 272.695 126.977 272.67 126.432L271.955 126.465C271.98 127.004 272.013 127.396 272.056 127.615L272.758 127.475ZM272.67 126.431L272.556 124.117L271.842 124.152L271.955 126.466L272.67 126.431ZM272.556 124.117C272.508 123.124 272.128 122.373 271.346 121.989L271.031 122.632C271.509 122.866 271.802 123.33 271.842 124.151L272.556 124.117ZM271.341 121.987C270.908 121.782 270.278 121.698 269.497 121.698V122.413C270.253 122.413 270.751 122.499 271.035 122.634L271.341 121.987ZM269.497 121.698H265.217V122.413H269.497V121.698ZM264.859 122.055V128.008H265.575V122.055H264.859ZM265.217 127.65H263.337V128.365H265.217V127.65ZM263.694 128.008V114.128H262.979V128.008H263.694Z" fill="white"/>
<path d="M43.31 32.3438H39.7151L44.1324 15.8963H49.3721L48.5497 26.0702L48.3383 27.1745H48.4322L48.8317 26.0702L53.484 15.8963H58.9116L54.5178 32.3438H50.9464L53.531 22.8512L53.8364 21.8409H53.7659L53.3665 22.6867L48.8787 32.3438H45.4247L46.0591 22.6867L46.1296 21.8409H46.0591L45.7772 22.8512L43.31 32.3438ZM62.4691 32.5082C59.2971 32.5082 57.4174 30.793 58.3338 27.3155L61.4118 15.8963H65.2182L62.0462 27.8324C61.7407 28.9368 62.0227 29.4537 62.7746 29.4537C63.5265 29.4537 64.0904 28.9368 64.3958 27.8324L67.5913 15.8963H71.3977L68.3432 27.3155C67.4269 30.793 65.6411 32.5082 62.4691 32.5082ZM72.988 32.3438H69.393L73.8103 15.8963H79.05L78.2277 26.0702L78.0162 27.1745H78.1102L78.5096 26.0702L83.1619 15.8963H88.5896L84.1957 32.3438H80.6243L83.2089 22.8512L83.5143 21.8409H83.4439L83.0444 22.6867L78.5566 32.3438H75.1026L75.737 22.6867L75.8075 21.8409H75.737L75.4551 22.8512L72.988 32.3438ZM53.789 51.3438H47.5625L51.9798 34.8963H57.29C59.6396 34.8963 61.4724 35.8596 60.697 38.7732L60.509 39.4311C59.9921 41.1698 59.0757 42.2037 57.619 42.6501L57.5955 42.6971C58.9817 43.167 59.4517 44.2948 59.0052 45.9866L58.7233 47.0674C57.9244 50.028 56.4206 51.3438 53.789 51.3438ZM55.0109 37.8333L54.024 41.5693H55.2693C55.8802 41.5693 56.3736 41.1698 56.6321 40.2065L56.9376 39.1256C57.196 38.2093 56.8906 37.8333 56.2562 37.8333H55.0109ZM53.2956 44.2244L52.1913 48.4067H53.4836C54.1885 48.4067 54.6584 48.0073 54.9404 47.0204L55.3163 45.6106C55.6218 44.6003 55.2693 44.2009 54.6114 44.2244H53.2956ZM59.1409 51.3438L66.5423 34.8963H71.8524L70.5366 51.3438H66.8007L67.1062 48.7826H64.1221L63.0648 51.3438H59.1409ZM68.1635 39.0082L65.3674 45.7751H67.4586L68.281 39.0082H68.1635ZM76.3665 51.3438H72.5366L76.9539 34.8963H80.7838L76.3665 51.3438Z" fill="#DBFD67"/>
<rect width="129" height="129" rx="11.0571" fill="#242424"/>
<path d="M51.7474 100.111L51.536 100.886C50.8311 103.964 49.2333 105.045 46.8132 105.045H44.1111L42.2314 112.023H38.4015L42.8188 95.576H48.2935C50.7841 95.576 52.4758 96.9623 51.7474 100.111ZM47.7061 100.863L47.988 99.7583C48.2465 98.795 47.9175 98.466 47.2596 98.466H45.8733L44.863 102.155H46.2493C46.9307 102.155 47.4476 101.826 47.7061 100.863ZM56.0845 112.188C52.9125 112.188 51.0328 110.473 51.9492 106.995L55.0272 95.576H58.8336L55.6616 107.512C55.3561 108.616 55.6381 109.133 56.39 109.133C57.1419 109.133 57.7058 108.616 58.0112 107.512L61.2067 95.576H65.0132L61.9586 106.995C61.0423 110.473 59.2565 112.188 56.0845 112.188ZM66.6504 112.023H63.0084L67.4258 95.576H71.4201L72.2895 105.468H72.3835L72.7124 103.753L74.7801 95.576H78.4221L74.0282 112.023H70.1278L69.188 102.131H69.1175L68.7415 103.87L66.6504 112.023ZM85.7364 112.023H76.6198L81.0371 95.576H89.9892L89.1904 98.5835H84.0447L83.1753 101.967H87.5456L86.7702 104.787H82.3999L81.2721 109.016H86.5353L85.7364 112.023Z" fill="#EA337D"/>
<path d="M65.5819 80.4352C54.0797 80.4352 42.5771 80.4305 31.0745 80.4483C30.5094 80.4494 30.3558 80.3158 30.3569 79.7402C30.3747 67.942 30.3723 56.1439 30.3616 44.3457C30.3616 43.9167 30.4503 43.7606 30.909 43.7795C31.8333 43.8173 32.7624 43.7535 33.6844 43.8043C34.2565 43.8351 34.3724 43.6212 34.3594 43.1011C34.3263 41.841 34.3843 40.5785 34.3334 39.3208C34.3097 38.7392 34.5273 38.6623 35.0308 38.6635C40.0924 38.6801 45.1552 38.66 50.2167 38.6896C50.8373 38.6931 50.9556 38.5135 50.9496 37.933C50.9178 35.2947 50.9236 32.6539 50.9472 30.0156C50.9509 29.5415 50.8113 29.3903 50.3492 29.4305C49.9189 29.4683 49.4827 29.4305 49.0501 29.4387C48.8006 29.4447 48.7049 29.3512 48.7061 29.0935C48.7143 27.1042 48.7167 25.1148 48.7084 23.1254C48.7061 22.6927 49.0051 22.7908 49.2404 22.7908C51.7617 22.7861 54.283 22.7873 56.8042 22.7873C65.1162 22.7873 73.4272 22.7861 81.7403 22.7884C82.6096 22.7884 82.4996 22.6974 82.5039 23.5379C82.5103 25.311 82.4911 27.084 82.5167 28.856C82.5242 29.3134 82.4088 29.4659 81.9347 29.4506C80.9681 29.4174 80.9681 29.4447 80.9681 30.4021C80.9681 32.9436 80.982 35.4838 80.9553 38.024C80.95 38.5324 81.0621 38.6884 81.5983 38.6861C87.1912 38.6647 92.7853 38.6801 98.3804 38.6623C98.8845 38.6612 99.0575 38.764 99.0393 39.3054C98.9945 40.6435 99.034 41.984 99.0169 43.3232C99.0126 43.6732 99.1055 43.7961 99.4782 43.8008C100.822 43.8185 100.821 43.8327 100.821 45.1992C100.821 56.7018 100.817 68.2045 100.836 79.7071C100.838 80.304 100.691 80.453 100.092 80.4518C88.5881 80.4294 77.085 80.4352 65.5819 80.4352ZM99.0233 65.2043C99.0233 60.9312 99.0158 56.6569 99.034 52.3838C99.0361 51.8931 98.9517 51.7076 98.3996 51.7088C90.9366 51.7289 83.4715 51.7265 76.0085 51.7123C75.5279 51.7112 75.3794 51.8246 75.3794 52.3258C75.3944 60.8922 75.3933 69.4598 75.3805 78.0262C75.3794 78.46 75.482 78.596 75.9327 78.5924C77.8614 78.5771 79.7923 78.609 81.7211 78.6102C87.2745 78.6137 92.829 78.603 98.3825 78.6219C98.9047 78.6243 99.0372 78.486 99.035 77.9659C99.0126 73.7117 99.0222 69.4586 99.0233 65.2043ZM55.7971 65.1559C55.7971 60.8626 55.7918 56.5682 55.8067 52.2749C55.8078 51.8364 55.6967 51.7112 55.2503 51.7123C47.7462 51.7265 40.2413 51.7254 32.7377 51.7147C32.3239 51.7135 32.1537 51.7832 32.1549 52.2549C32.1691 60.8614 32.1679 69.4693 32.1584 78.0759C32.1584 78.473 32.2506 78.6196 32.6785 78.6184C40.1823 78.5971 47.686 78.5865 55.1894 78.5924C55.6754 78.5924 55.8142 78.4754 55.811 77.9777C55.7907 73.7045 55.7982 69.4302 55.7971 65.1559ZM60.5944 68.4692C60.5944 71.6596 60.5998 74.8499 60.587 78.0404C60.5859 78.4174 60.634 78.5948 61.0846 78.5913C64.1177 78.5711 67.1497 78.5723 70.1827 78.59C70.6035 78.5924 70.7039 78.4671 70.7028 78.0593C70.6911 71.8168 70.6932 65.5732 70.6964 59.3307C70.6964 58.6108 70.5501 57.9217 70.2543 57.2692C69.2728 55.1049 66.9382 53.8849 64.6794 54.3471C62.2872 54.8365 60.619 56.8389 60.6008 59.313C60.5774 62.3639 60.5955 65.4172 60.5944 68.4692ZM57.5924 63.2315C57.5924 64.9846 57.5924 66.7375 57.5924 68.4905C57.5924 71.6808 57.5966 74.8713 57.587 78.0628C57.586 78.4316 57.6319 78.6137 58.0836 78.6396C58.6828 78.6739 58.7842 78.4565 58.7821 77.9068C58.7629 71.7624 58.7565 65.6169 58.7757 59.4725C58.7874 55.8684 61.3506 52.8967 64.6987 52.5315C69.025 52.0587 72.4714 55.1214 72.4863 59.4737C72.5013 63.5507 72.4906 67.6276 72.4906 71.7046C72.4906 73.8311 72.4895 75.9587 72.497 78.0853C72.4991 78.2614 72.3934 78.4871 72.6465 78.603C73.1581 78.8395 73.5981 78.5617 73.5981 77.9966C73.5981 68.169 73.5927 58.3402 73.6077 48.5125C73.6088 48.0101 73.4592 47.8942 72.9786 47.8967C68.0553 47.9144 63.1309 47.9156 58.2075 47.8979C57.7141 47.8954 57.5849 48.029 57.586 48.5208C57.6009 53.4228 57.5945 58.3271 57.5924 63.2315ZM65.5744 27.6207V27.616C65.9087 27.616 66.2429 27.616 66.5772 27.616C71.0659 27.616 75.5546 27.6054 80.0412 27.6302C80.5997 27.6337 80.7556 27.4635 80.715 26.9363C80.6723 26.3878 80.668 25.8311 80.7161 25.285C80.7631 24.7424 80.589 24.5959 80.039 24.5982C75.0003 24.6195 69.9606 24.6101 64.9219 24.6101C60.3146 24.6101 55.7095 24.6159 51.1033 24.6017C50.6601 24.6006 50.4638 24.6845 50.498 25.1786C50.543 25.8252 50.5241 26.4776 50.5052 27.1266C50.4945 27.486 50.5654 27.6349 50.9887 27.6337C55.8505 27.6136 60.7119 27.6207 65.5744 27.6207ZM65.9557 40.6187C70.1677 40.6187 74.3809 40.6116 78.5919 40.6293C79.0501 40.6317 79.2103 40.523 79.1804 40.0477C79.1387 39.361 79.1312 38.6683 79.1825 37.9827C79.2209 37.4425 79.0255 37.335 78.5204 37.3361C73.2852 37.3539 68.0489 37.3467 62.8126 37.3467C59.6439 37.3467 56.4742 37.3574 53.3055 37.3373C52.8326 37.335 52.692 37.4744 52.7169 37.9377C52.7535 38.6245 52.7582 39.3172 52.7156 40.0029C52.6861 40.4839 52.8172 40.6317 53.3196 40.6293C57.5315 40.6081 61.7425 40.6175 65.9557 40.6187ZM65.6919 35.5441C67.6591 35.5441 69.6263 35.5334 71.5935 35.5524C71.9982 35.5559 72.1349 35.4519 72.1285 35.0299C72.1061 33.3183 72.1093 31.6067 72.1264 29.8962C72.1296 29.5345 72.0196 29.4281 71.6565 29.4293C67.7232 29.4399 63.7887 29.4399 59.8554 29.4258C59.4517 29.4246 59.3139 29.5274 59.3193 29.9506C59.3428 31.6421 59.3428 33.3336 59.3193 35.0252C59.3139 35.4412 59.4368 35.5571 59.849 35.5524C61.797 35.5322 63.745 35.5441 65.6919 35.5441ZM66.0176 42.4166C61.7468 42.4166 57.476 42.4296 53.2039 42.4036C52.5052 42.4 52.7251 42.8422 52.6931 43.1861C52.66 43.5431 52.66 43.8197 53.1873 43.8031C54.4651 43.7642 55.7469 43.8138 57.0242 43.7784C57.5059 43.7653 57.6372 43.9225 57.5977 44.3741C57.5625 44.7843 57.6116 45.2015 57.5838 45.6129C57.5571 45.9994 57.6917 46.1223 58.0836 46.1165C59.4805 46.0951 60.8775 46.1081 62.2754 46.1081C65.8563 46.1081 69.4394 46.0987 73.0214 46.12C73.5105 46.1235 73.6344 45.9604 73.5991 45.5136C73.5671 45.1034 73.6184 44.6861 73.5863 44.2748C73.5554 43.8824 73.6985 43.7784 74.0819 43.7831C75.577 43.8031 77.0733 43.7642 78.5684 43.8043C79.1035 43.8185 79.2444 43.6578 79.2135 43.1447C79.1868 42.7039 79.2444 42.3918 78.5919 42.3965C74.4033 42.4308 70.2105 42.4142 66.0176 42.4166ZM89.1168 40.4698V40.4721C86.5964 40.4721 84.0749 40.4827 81.5534 40.4615C81.1081 40.4579 80.9703 40.5785 80.9916 41.023C81.0258 41.75 81.0226 42.4816 80.9874 43.2086C80.966 43.6459 81.0942 43.7878 81.5459 43.7795C82.9834 43.7511 84.422 43.7689 85.8595 43.7689C89.4446 43.7689 93.0298 43.7606 96.6139 43.7795C97.0838 43.7819 97.228 43.6483 97.2045 43.1837C97.1682 42.4769 97.1682 41.7652 97.2035 41.0573C97.2259 40.6021 97.0999 40.4544 96.6214 40.4591C94.1213 40.4827 91.618 40.4698 89.1168 40.4698ZM43.5546 40.4698C41.2531 40.4698 38.9517 40.4768 36.6503 40.4615C36.2767 40.4591 36.1302 40.543 36.1455 40.9461C36.1762 41.7321 36.1715 42.5194 36.1479 43.3055C36.1372 43.6613 36.2424 43.7772 36.6088 43.776C41.2118 43.7642 45.8148 43.763 50.4177 43.776C50.8231 43.7772 50.9178 43.6306 50.9059 43.2594C50.8811 42.5124 50.8693 41.7629 50.9047 41.0182C50.926 40.569 50.7795 40.4556 50.3397 40.4603C48.0784 40.4815 45.8159 40.4698 43.5546 40.4698ZM73.9131 32.4624C73.9131 33.3466 73.9249 34.232 73.9078 35.1161C73.9003 35.4519 74.0124 35.5559 74.3478 35.5524C75.8216 35.537 77.2954 35.5406 78.7692 35.5524C79.0757 35.5548 79.1782 35.4531 79.1761 35.1446C79.1654 33.3762 79.1654 31.6067 79.1761 29.8383C79.1782 29.5274 79.0693 29.4293 78.7671 29.4317C77.2933 29.4412 75.8195 29.4435 74.3446 29.4281C74.0082 29.4246 73.9014 29.5392 73.9089 29.8702C73.9249 30.7319 73.9131 31.5972 73.9131 32.4624ZM57.5368 32.5192C57.5368 31.6716 57.5208 30.8241 57.5443 29.9778C57.5561 29.5889 57.4738 29.4151 57.0349 29.4246C55.7544 29.4506 54.4745 29.4435 53.1932 29.4258C52.8398 29.421 52.7144 29.5215 52.718 29.8915C52.7358 31.6244 52.7358 33.3585 52.718 35.0925C52.7144 35.4696 52.8515 35.5559 53.1979 35.5511C54.4781 35.5359 55.7597 35.5322 57.0392 35.5548C57.4236 35.5618 57.5582 35.4566 57.5454 35.0606C57.5187 34.2142 57.5368 33.3667 57.5368 32.5192ZM42.3584 47.7087C42.3584 48.2997 42.3702 48.8907 42.3537 49.4818C42.3442 49.8033 42.4388 49.9393 42.7863 49.9321C43.771 49.912 44.7557 49.912 45.7403 49.9298C46.0902 49.9356 46.173 49.795 46.1693 49.4759C46.1564 48.3139 46.1564 47.152 46.1693 45.9899C46.173 45.6862 46.076 45.5775 45.7639 45.5822C44.7592 45.5987 43.7544 45.5999 42.7509 45.5833C42.4305 45.5775 42.3455 45.6992 42.3537 45.9959C42.3702 46.5657 42.3584 47.1378 42.3584 47.7087ZM91.1598 47.7666C91.1598 48.3375 91.1737 48.9096 91.1555 49.4794C91.1449 49.8069 91.2517 49.9345 91.5923 49.9286C92.577 49.912 93.5617 49.912 94.5464 49.9309C94.8966 49.938 94.9799 49.7926 94.9767 49.4759C94.965 48.3139 94.965 47.152 94.9757 45.9899C94.9778 45.6885 94.8817 45.5763 94.5688 45.5822C93.5649 45.5987 92.561 45.5975 91.556 45.5822C91.241 45.5775 91.1459 45.6921 91.1534 45.9947C91.1726 46.5846 91.1609 47.1756 91.1598 47.7666ZM36.7543 47.7146C36.7543 48.3233 36.7625 48.9321 36.7507 49.5396C36.7448 49.8127 36.8381 49.9298 37.1219 49.9274C38.142 49.9179 39.1633 49.9179 40.1835 49.9274C40.4576 49.9298 40.5688 49.834 40.5664 49.5515C40.5569 48.3541 40.5569 47.1567 40.5676 45.9593C40.57 45.6803 40.4754 45.581 40.194 45.5833C39.1739 45.5952 38.1526 45.5999 37.1325 45.5822C36.8003 45.5763 36.7425 45.724 36.7507 46.0065C36.7649 46.5751 36.7543 47.1448 36.7543 47.7146ZM47.9696 47.7241C47.9696 48.3139 47.978 48.9049 47.9661 49.4948C47.9602 49.7737 48.0087 49.9368 48.3455 49.9309C49.368 49.9144 50.3917 49.9203 51.4153 49.9274C51.6648 49.9286 51.7641 49.84 51.7628 49.5834C51.7546 48.3636 51.7546 47.1437 51.7628 45.9238C51.7653 45.6649 51.6672 45.5833 51.4165 45.5857C50.3928 45.5952 49.3704 45.6011 48.3467 45.5833C48.0099 45.5775 47.9602 45.7347 47.9661 46.0125C47.978 46.5822 47.9696 47.1532 47.9696 47.7241ZM83.7897 47.7725C83.7897 47.2027 83.7726 46.6331 83.7951 46.0645C83.809 45.7252 83.7321 45.5703 83.3476 45.581C82.3661 45.6058 81.3825 45.6022 80.4021 45.5822C80.0593 45.575 79.9643 45.6992 79.9685 46.0254C79.9824 47.1838 79.9846 48.3434 79.9685 49.5018C79.9632 49.8482 80.0988 49.9368 80.4203 49.9321C81.4028 49.9167 82.3853 49.9144 83.3668 49.9321C83.7118 49.938 83.8058 49.8069 83.794 49.4829C83.7748 48.912 83.7887 48.3422 83.7897 47.7725ZM89.3592 47.8032C89.3592 47.1933 89.3517 46.5834 89.3635 45.9746C89.3678 45.7181 89.3261 45.5775 89.0153 45.5833C87.9933 45.5999 86.9701 45.5964 85.9481 45.5833C85.6651 45.5798 85.5722 45.6827 85.5743 45.9604C85.585 47.1401 85.5893 48.3198 85.5722 49.4995C85.5679 49.8458 85.7025 49.9345 86.0239 49.9298C86.9872 49.9156 87.9516 49.9073 88.9139 49.9333C89.293 49.9428 89.3806 49.7997 89.3656 49.4546C89.3432 48.9049 89.3592 48.3541 89.3592 47.8032ZM34.9623 47.7808C34.9623 47.2099 34.9469 46.6378 34.9681 46.068C34.98 45.7335 34.9149 45.5609 34.5226 45.5798C33.8736 45.6093 33.2235 45.5964 32.5733 45.5798C32.2754 45.5715 32.1537 45.659 32.1584 45.977C32.1738 47.1579 32.1726 48.3399 32.1596 49.5219C32.156 49.8328 32.2683 49.938 32.5721 49.9309C33.221 49.9156 33.8724 49.9132 34.5214 49.9321C34.8488 49.9416 34.9812 49.8376 34.9681 49.496C34.9469 48.9239 34.9634 48.3517 34.9623 47.7808ZM78.1754 47.7678C78.1754 47.1779 78.1658 46.5869 78.1797 45.9971C78.1871 45.711 78.1188 45.5656 77.7909 45.5763C77.1224 45.5975 76.4528 45.5964 75.7842 45.5775C75.4724 45.568 75.3795 45.679 75.3827 45.984C75.3965 47.1448 75.4019 48.3056 75.3805 49.4652C75.3741 49.8364 75.5119 49.9405 75.8611 49.9286C76.4901 49.9073 77.1202 49.9073 77.7493 49.9286C78.0953 49.9405 78.1904 49.801 78.1807 49.4782C78.1615 48.9096 78.1754 48.3387 78.1754 47.7678ZM55.7992 47.7087C55.7992 47.139 55.7886 46.568 55.8046 45.9982C55.8131 45.7098 55.7448 45.5633 55.4169 45.5786C54.9256 45.6011 54.4332 45.5999 53.9426 45.5775C53.6246 45.5633 53.5419 45.685 53.5454 45.9864C53.5596 47.1661 53.5596 48.347 53.5454 49.5267C53.5419 49.8435 53.6636 49.938 53.9615 49.9286C54.4332 49.912 54.906 49.9062 55.3774 49.9298C55.7266 49.9475 55.8163 49.7985 55.8057 49.4782C55.7864 48.8896 55.7992 48.2997 55.7992 47.7087ZM96.7827 47.7678C96.7827 47.925 96.7827 48.0822 96.7827 48.2394C96.788 50.0338 96.7859 50.0279 98.6057 49.9309C98.893 49.9156 99.0318 49.853 99.0286 49.5314C99.0147 48.334 99.0158 47.1366 99.0286 45.9391C99.0318 45.6365 98.8919 45.5798 98.6324 45.5857C98.1422 45.5975 97.6509 45.6069 97.1607 45.5822C96.8286 45.5656 96.7709 45.7169 96.7784 46.0018C96.7923 46.5893 96.7816 47.1779 96.7827 47.7678Z" fill="white"/>
<path d="M80.388 58.0542C80.388 56.8544 80.3987 55.6546 80.3805 54.456C80.3762 54.1085 80.4617 53.9796 80.8365 53.9737C82.2025 53.9525 82.2035 53.9383 82.2046 55.3106C82.2057 57.3946 82.1961 59.4798 82.2132 61.5637C82.2164 61.962 82.1192 62.1087 81.692 62.1087C80.3859 62.1098 80.3859 62.1276 80.388 60.8261C80.3891 59.9017 80.388 58.9774 80.388 58.0542Z" fill="white"/>
<path d="M88.106 58.0914C88.106 59.251 88.0911 60.4093 88.1135 61.5677C88.122 61.9614 88.0355 62.1151 87.6019 62.1115C86.3054 62.1032 86.3043 62.1234 86.3043 60.8255C86.3043 58.7237 86.314 56.6209 86.2979 54.5191C86.2947 54.1231 86.3844 53.9742 86.8159 53.9766C88.1092 53.9836 88.1092 53.9647 88.1092 55.2615C88.1092 56.2048 88.1092 57.1469 88.1092 58.0901C88.1071 58.0914 88.106 58.0914 88.106 58.0914Z" fill="white"/>
<path d="M94.6803 58.0521C94.6803 59.2507 94.6718 60.4505 94.6857 61.6491C94.6899 61.9635 94.6227 62.0924 94.2692 62.1042C92.8829 62.1468 92.8862 62.161 92.8872 60.7897C92.8894 58.7058 92.899 56.623 92.8776 54.5402C92.8733 54.1194 92.9492 53.9587 93.418 53.9692C94.6782 53.9965 94.6793 53.9728 94.6803 55.2235C94.6803 55.6951 94.6803 56.1667 94.6803 56.6383C94.6803 57.1089 94.6803 57.5805 94.6803 58.0521Z" fill="white"/>
<path d="M49.6579 58.0142C49.6579 56.8334 49.6721 55.6525 49.6497 54.4717C49.6426 54.0851 49.7608 53.9728 50.1497 53.9705C51.483 53.961 51.4818 53.9456 51.4818 55.2861C51.4806 57.3724 51.4689 59.4588 51.4925 61.5451C51.4972 61.9907 51.3708 62.1125 50.9286 62.1054C49.6591 62.0852 49.6579 62.1054 49.6579 60.8489C49.6579 60.3761 49.6579 59.9044 49.6579 59.4315C49.6579 58.9588 49.6579 58.4871 49.6579 58.0142Z" fill="white"/>
<path d="M44.8871 58.0808C44.8871 59.2404 44.8752 60.3989 44.8953 61.5585C44.9023 61.9438 44.8244 62.1117 44.3859 62.1104C43.0844 62.1092 43.0856 62.1294 43.0868 60.8279C43.088 58.7451 43.0962 56.6623 43.0773 54.5808C43.0738 54.154 43.1328 53.9543 43.6412 53.9696C44.8859 54.0063 44.8859 53.9779 44.8871 55.2509C44.8871 55.7226 44.8871 56.1943 44.8871 56.6659C44.8871 57.1375 44.8859 57.6092 44.8871 58.0808Z" fill="white"/>
<path d="M38.9996 58.0518C38.9996 59.2315 38.9877 60.4112 39.0066 61.5909C39.0125 61.9538 38.9452 62.1075 38.5315 62.1075C37.1993 62.1075 37.1993 62.1264 37.1981 60.7977C37.1969 58.7138 37.2075 56.6298 37.1886 54.5458C37.1851 54.1285 37.263 53.9618 37.7311 53.969C38.9995 53.9867 38.9995 53.9618 38.9984 55.2207C38.9984 56.1641 38.9996 57.1073 38.9996 58.0518Z" fill="white"/>
</svg>
