<svg width="402" height="909" viewBox="0 0 402 909" fill="none" xmlns="http://www.w3.org/2000/svg">
<path d="M415.591 890.069L364.172 876.369L407.876 711.333L442.321 691.447L580.866 728.361L618.17 589.92L652.615 570.034L791.16 606.948L828.464 468.507L862.909 448.62L1028.59 492.766L1014.75 544.146L874.773 506.851L837.085 646.719L804.453 665.559L664.48 628.264L626.791 768.132L593.253 787.496L453.279 750.201L415.591 890.069Z" fill="#DBFD67"/>
<path d="M263.763 627.089L212.344 613.389L256.048 448.354L290.493 428.467L429.038 465.382L466.342 326.941L500.787 307.054L639.332 343.969L676.636 205.527L711.081 185.641L876.764 229.786L862.919 281.166L722.945 243.871L685.257 383.74L652.625 402.58L512.651 365.284L474.963 505.153L441.425 524.516L301.451 487.221L263.763 627.089Z" fill="#DBFD67"/>
<path d="M339.368 758.041L287.949 744.34L331.654 579.305L366.098 559.418L504.644 596.333L541.947 457.892L576.392 438.005L714.938 474.92L752.241 336.479L786.686 316.592L952.369 360.737L938.525 412.118L798.551 374.822L760.863 514.691L728.231 533.531L588.257 496.236L550.569 636.104L517.03 655.467L377.057 618.172L339.368 758.041Z" fill="#DBFD67"/>
<path d="M187.538 495.063L136.119 481.363L179.824 316.328L214.268 296.441L352.814 333.356L390.117 194.914L424.562 175.028L563.108 211.942L600.411 73.5011L634.856 53.6145L800.539 97.7598L786.695 149.14L646.721 111.845L609.032 251.713L576.401 270.553L436.427 233.258L398.739 373.126L365.2 392.49L225.227 355.195L187.538 495.063Z" fill="#DBFD67"/>
<path d="M111.955 364.157L60.5363 350.457L104.24 185.421L138.685 165.535L277.231 202.449L314.534 64.0082L348.979 44.1215L487.525 81.0361L524.828 -57.4051L559.273 -77.2917L724.956 -33.1464L711.112 18.2338L571.138 -19.0614L533.449 120.807L500.818 139.647L360.844 102.352L323.156 242.22L289.617 261.584L149.644 224.288L111.955 364.157Z" fill="#DBFD67"/>
</svg>
