<svg width="71" height="40" viewBox="0 0 71 40" fill="none" xmlns="http://www.w3.org/2000/svg">
<path d="M18.2321 18.4805L13.8223 39.1562L17.3659 39.9121L21.7758 19.2363L18.2321 18.4805Z" fill="black"/>
<path d="M8.86616 30.1597L5.61133 31.75L9.64278 40.0011L12.8976 38.4108L8.86616 30.1597Z" fill="black"/>
<path d="M10.8148 22.389L9.20281 30.0416L12.7481 30.7891L14.8205 20.951L13.0482 18.7656L4.35049 18.7673L0 39.1615L3.54367 39.917L7.28254 22.389H10.8148Z" fill="black"/>
<path d="M39.9629 20.7952L37.1911 18.4609L25.5979 32.229L28.3673 19.2499L24.8236 18.4935L20.4219 39.1284L23.9647 39.8848L39.9629 20.7952Z" fill="#EA337D"/>
<path d="M45.1232 18.4922L29.125 37.5818L31.8968 39.9161L43.49 26.148L40.7206 39.1271L44.2643 39.8835L48.666 19.2486L45.1232 18.4922Z" fill="black"/>
<path d="M55.1253 19.1618L51.5817 18.4062L47.6191 36.9802L49.3906 39.1697H57.201V35.5471H51.6297L55.1253 19.1618Z" fill="black"/>
<path d="M66.8081 27.2329H60.478L65.8614 20.2033L62.9846 18L55.3418 27.9795L56.7985 30.8929H63.131L57.881 37.6923L60.7586 39.894L68.2648 30.0828L66.8081 27.2329Z" fill="black"/>
<path d="M31.8253 0.203125H28.6281L25.252 16.0915H27.3365H28.4491H31.587L32.1628 13.4303H29.0144L31.8253 0.203125Z" fill="black"/>
<path d="M40.3038 0.203125H37.1066L33.7305 16.0915H35.815H36.9277H40.0655L40.6413 13.4303H37.4929L40.3038 0.203125Z" fill="black"/>
<path d="M51.2674 2.86433L51.8424 0.203125H48.7843H47.6521H45.5871L42.2109 16.0915H44.276H45.4081H48.4662L49.0429 13.4303H45.9742L46.8176 9.45799H49.6976L50.2539 6.83663H47.3748L48.219 2.86433H51.2674Z" fill="black"/>
<path d="M70.1541 2.86433L70.7299 0.203125H67.671H66.5388H64.4738L61.0977 16.0915H63.1627H64.2948H67.353L67.9296 13.4303H64.8609L65.7043 9.45799H68.5843L69.1407 6.83663H66.2615L67.1057 2.86433H70.1541Z" fill="black"/>
<path d="M13.8921 0.516463C13.2829 0.172426 12.5143 0 11.5879 0C10.7673 0 10.0751 0.158599 9.51313 0.47661C8.95031 0.794622 8.48021 1.2875 8.10282 1.95605C7.72544 2.62461 7.41719 3.5087 7.1797 4.6075L5.65064 11.8559C5.42535 12.8758 5.42941 13.7168 5.6604 14.378C5.8922 15.0401 6.31269 15.5232 6.92187 15.8282C7.53024 16.1324 8.29883 16.2853 9.22522 16.2853C10.0597 16.2853 10.7575 16.1364 11.3203 15.8388C11.8832 15.5411 12.346 15.0612 12.7103 14.3992C13.0739 13.7371 13.3756 12.8303 13.6139 11.6786L14.0507 9.63306H10.7933L10.1386 12.6912C10.0849 12.9563 10.0255 13.1645 9.95965 13.3166C9.89296 13.4695 9.80675 13.5753 9.70183 13.6338C9.59609 13.694 9.47003 13.7233 9.32444 13.7233C9.139 13.7233 8.99342 13.6867 8.88768 13.6143C8.78195 13.5419 8.71526 13.4191 8.68923 13.2467C8.66239 13.0751 8.67622 12.8563 8.72909 12.5911L10.6559 3.61524C10.7217 3.33709 10.7909 3.12155 10.8641 2.96946C10.9373 2.81737 11.0259 2.71164 11.1325 2.65145C11.2382 2.59208 11.3708 2.56198 11.5302 2.56198C11.7018 2.56198 11.8409 2.60184 11.9474 2.68073C12.0532 2.76044 12.1158 2.88243 12.1361 3.04835C12.1556 3.21427 12.1329 3.44282 12.067 3.73318L11.4318 6.65302H14.6883L15.1056 4.68721C15.3309 3.62744 15.3366 2.75393 15.1251 2.06585C14.9136 1.37778 14.5029 0.861314 13.8937 0.516463" fill="black"/>
<path d="M22.2329 3.65672L20.2867 12.6928C20.22 12.971 20.1476 13.1857 20.0679 13.3378C19.9882 13.4907 19.8995 13.5932 19.7995 13.6452C19.7002 13.6981 19.5709 13.7249 19.4123 13.7249C19.2269 13.7249 19.0846 13.6916 18.9853 13.6257C18.8861 13.559 18.8267 13.4468 18.8064 13.2882C18.7869 13.1296 18.8031 12.9246 18.856 12.6725L20.8023 3.61606C20.8552 3.35172 20.9178 3.1427 20.991 2.98979C21.0634 2.8377 21.1528 2.72872 21.2594 2.66202C21.3651 2.59614 21.5042 2.5628 21.6766 2.5628C21.8491 2.5628 21.9841 2.5994 22.0841 2.67178C22.1833 2.74498 22.246 2.86373 22.2728 3.02883C22.2988 3.19475 22.2858 3.40296 22.2329 3.65428M25.2715 2.15532C25.0731 1.44691 24.6721 0.910927 24.0703 0.546556C23.4676 0.182999 22.69 0 21.7368 0C20.8893 0 20.1842 0.158599 19.6214 0.47661C19.0585 0.794622 18.5957 1.28424 18.2314 1.94629C17.867 2.60834 17.5661 3.49568 17.3278 4.6075L15.8182 11.7371C15.5938 12.7831 15.5864 13.6403 15.7987 14.3089C16.0102 14.9774 16.4144 15.4744 17.0106 15.7981C17.6059 16.1226 18.3875 16.2845 19.3538 16.2845C20.2143 16.2845 20.9259 16.125 21.4888 15.8078C22.0516 15.4898 22.5144 15.001 22.8787 14.3382C23.2423 13.6761 23.5375 12.7896 23.762 11.6769L25.2317 4.74658C25.457 3.72748 25.47 2.86291 25.2715 2.15451" fill="black"/>
<path d="M61.0676 2.17484C60.8619 1.46643 60.4617 0.927194 59.8663 0.556316C59.2702 0.185439 58.5089 0 57.5825 0C56.7611 0 56.0665 0.158599 55.4971 0.47661C54.9278 0.794622 54.4512 1.2875 54.0673 1.95605C53.6834 2.62461 53.3719 3.5087 53.1344 4.6075L51.6249 11.7575C51.4134 12.7375 51.4061 13.5647 51.6054 14.2397C51.8038 14.9148 52.1682 15.4248 52.6977 15.7688C53.2271 16.1128 53.8697 16.2853 54.6244 16.2853C55.1271 16.2853 55.5907 16.1958 56.0144 16.0169C56.4382 15.8379 56.8286 15.5769 57.1864 15.232L57.3849 16.086H58.6358L60.4031 7.82422H56.5301L56.0136 10.2666H56.609L56.1128 12.67C56.06 12.9352 55.9965 13.1401 55.9241 13.2857C55.8509 13.4321 55.7582 13.5411 55.646 13.6135C55.5329 13.6867 55.3906 13.7225 55.219 13.7225C55.0474 13.7225 54.9107 13.6826 54.8123 13.6029C54.7131 13.5232 54.6529 13.4077 54.6334 13.2556C54.6131 13.1035 54.6301 12.9018 54.683 12.6497L56.609 3.61362C56.6618 3.34847 56.7245 3.14026 56.7977 2.98735C56.87 2.83526 56.9595 2.72628 57.0661 2.65958C57.1718 2.5937 57.3109 2.56036 57.4833 2.56036C57.6557 2.56036 57.794 2.60021 57.9005 2.6791C58.0063 2.75881 58.0689 2.87755 58.0892 3.03615C58.1087 3.19475 58.0925 3.40052 58.0396 3.65184L57.3645 6.67092H60.6211L61.0383 4.74414C61.2636 3.73806 61.2734 2.88081 61.0684 2.1724" fill="black"/>
</svg>
