<svg width="122" height="45" viewBox="0 0 122 45" fill="none" xmlns="http://www.w3.org/2000/svg">
<g clip-path="url(#clip0_1118_10616)">
<path d="M15.0945 5.91747H10.4624L9.96737 4.16116H6.54883L5.8303 4.7138V12.1226L6.57352 12.7005H9.96737L10.4624 10.9442H15.0945V13.9988C13.9303 14.9615 12.7414 15.899 11.5772 16.8377H4.71549L0.726562 13.6153V3.10258L4.56606 0H11.7253L15.0945 2.74172V5.91747Z" fill="white"/>
<path d="M17.3281 16.8389V13.1824L19.2108 12.7018V4.16116L17.3281 3.68044V0H30.2096L33.554 2.74172V7.76968L31.1022 9.7897L32.985 12.7005L34.2973 12.9414V16.8389H29.5911L25.6282 10.2717H24.3406V12.7018L26.2233 13.1824V16.8389H17.3307H17.3281ZM24.3379 6.90414H27.8552L28.4503 6.42343V4.64314L27.8552 4.16242H24.3379V6.90414Z" fill="white"/>
<path d="M47.3763 5.91747L46.8813 4.16116H42.7196V6.87891H46.8813V9.76573H42.7196V12.7005H46.8813L47.3763 10.9442H51.043V16.8377H35.7344V13.1812L37.6171 12.7005V4.16116L35.7344 3.68044V0H51.0183V5.91747H47.3763Z" fill="white"/>
<path d="M69.52 8.13054L65.9287 11.0413H60.2065V12.7257L62.0892 13.2064V16.8389H53.1953V13.1824L55.0781 12.7018V4.16116L53.1953 3.68044V0H65.9287L69.52 2.93476V8.13054ZM60.2052 4.16116V6.87891H63.7472L64.3916 6.35024V4.66585L63.7472 4.16116H60.2052Z" fill="white"/>
<path d="M83.2195 16.8389H71.3047V13.1824L73.1875 12.7018V4.16116L71.3047 3.68044V0H83.3443L87.6788 3.4874V13.2292L83.2195 16.8377V16.8389ZM78.3146 12.7018H81.4602L82.5503 11.8362V5.00399L81.5096 4.16242H78.3146V12.7018Z" fill="white"/>
<path d="M100.685 16.8389H93.6001L89.8594 13.8323V2.93476L93.4767 0H100.833L104.45 2.93476V13.8323C103.187 14.819 101.947 15.8523 100.684 16.8389H100.685ZM95.6324 4.16242L94.9628 4.66711V12.1479L95.657 12.7005H98.6541L99.3482 12.1479V4.66711L98.6796 4.16242H95.6324Z" fill="white"/>
<path d="M116.613 5.91747L116.118 4.16116H112.451L111.732 4.7138V12.1226L112.476 12.7005H115.35L116.118 12.0747V9.76573H113.789V6.87891H121.222V16.8377H117.333L116.837 15.5142L115.203 16.8377H110.62L106.633 13.614V3.10258L110.473 0H117.829L121.223 2.74172V5.91747H116.615H116.613Z" fill="white"/>
<path d="M22.516 28.3613H15.4568L14.7018 25.6852H9.4929L8.39754 26.528V37.8179L9.53054 38.6973H14.7018L15.4568 36.0212H22.516V40.677C20.7424 42.143 18.9298 43.5726 17.1563 45.0021H6.69803L0.621094 40.0915V24.0727L6.47195 19.3438H17.3811L22.5147 23.5226V28.3613H22.516Z" fill="white"/>
<path d="M25.9141 45.0034V39.4317L28.783 38.6985V25.6852L25.9141 24.9521V19.3438H45.543L50.6389 23.5226V31.1837L46.902 34.2624L49.771 38.6973L51.7719 39.0645V45.0034H44.5996L38.5605 34.9967H36.5971V38.6985L39.4661 39.4317V45.0034H25.9141ZM36.5971 29.864H41.9569L42.8625 29.1309V26.4182L41.9569 25.6852H36.5971V29.864Z" fill="white"/>
<path d="M71.7031 28.3547L70.9483 25.6786H64.6062V29.8208H70.9483V34.2192H64.6062V38.6907H70.9483L71.7031 36.0146H77.2903V44.9956H53.9609V39.4238L56.8298 38.6907V25.6774L53.9609 24.9443V19.3359H77.2513V28.3535H71.7019L71.7031 28.3547Z" fill="white"/>
<path d="M119.152 25.6852L113.716 45.0034H103.863L100.73 33.6769L97.4452 45.0034H86.9883L81.8923 25.6852L79.5898 24.9521V19.3438H92.2739V24.9521L90.538 25.6852L93.633 36.8653L96.7652 25.6852L94.9919 24.9521V19.3438H108.619V24.9521L106.769 25.6852L110.016 36.8653L112.923 25.6852L111.337 24.9521V19.3438H121.491V24.9521L119.152 25.6852Z" fill="white"/>
</g>
<defs>
<clipPath id="clip0_1118_10616">
<rect width="122" height="45" fill="white"/>
</clipPath>
</defs>
</svg>
