<svg width="133" height="48" viewBox="0 0 133 48" fill="none" xmlns="http://www.w3.org/2000/svg">
<g clip-path="url(#clip0_1118_10628)">
<path d="M85.8819 21.7395V31.926C85.8819 32.1053 85.8085 32.2705 85.6929 32.3872C85.5744 32.5068 85.4136 32.5779 85.2359 32.5779H79.5591C79.3813 32.5779 79.2178 32.5039 79.102 32.3872C78.9863 32.2677 78.913 32.1053 78.913 31.926V21.7338C78.913 21.395 78.8707 21.0676 78.7888 20.7544C78.707 20.4412 78.5857 20.1452 78.4333 19.8691C78.1484 19.3537 77.7478 18.9125 77.2681 18.5793C76.7884 18.2463 76.227 18.0214 75.6232 17.9416C75.6034 17.9388 75.5808 17.9359 75.5611 17.9331C75.5414 17.9303 75.5188 17.9303 75.4963 17.9274C75.4426 17.9217 75.389 17.916 75.3354 17.9132C75.2818 17.9104 75.2282 17.9074 75.1717 17.9074C74.1138 17.8932 73.1544 18.3374 72.4576 19.052C71.7606 19.7666 71.3318 20.7516 71.3318 21.8192V31.9231C71.3318 32.1025 71.2584 32.2677 71.1428 32.3843C71.0243 32.5039 70.8634 32.5751 70.6857 32.5751H65.009C64.8312 32.5751 64.6675 32.5011 64.5519 32.3843C64.4362 32.2648 64.3629 32.1025 64.3629 31.9231V21.5915C64.3629 21.5488 64.3629 21.5032 64.3657 21.4605C64.4221 19.0064 65.3024 16.7459 66.7356 14.9466C68.1689 13.1473 70.1553 11.8178 72.4293 11.2228C72.4349 11.22 72.4435 11.22 72.4491 11.2171C72.4547 11.2143 72.4632 11.2143 72.4688 11.2114C73.7413 10.9039 74.9912 10.8242 76.1819 10.941C77.3724 11.0576 78.5095 11.3708 79.5563 11.8491C79.6212 11.8776 79.6833 11.9089 79.7453 11.9374C79.8074 11.9687 79.8694 11.9972 79.9344 12.0285C79.9654 12.0456 79.9964 12.0598 80.0275 12.0769C80.0585 12.0939 80.0895 12.1081 80.1206 12.1253C80.1516 12.1423 80.1854 12.1595 80.2165 12.1765C80.2475 12.1936 80.2814 12.2107 80.3124 12.2306C81.9742 13.153 83.368 14.5053 84.3471 16.1395C85.3148 17.7737 85.8791 19.6897 85.8819 21.7395ZM36.5661 32.5295H30.8894C30.7117 32.5295 30.548 32.4555 30.4323 32.3388C30.3138 32.2193 30.2433 32.0569 30.2433 31.8776V0.651958C30.2433 0.472598 30.3167 0.307473 30.4323 0.190747C30.5508 0.0711744 30.7117 0 30.8894 0H36.5661C36.7439 0 36.9075 0.0740214 37.0232 0.190747C37.1417 0.31032 37.2123 0.472598 37.2123 0.651958V31.8776C37.2123 32.0569 37.1389 32.2221 37.0232 32.3388C36.9075 32.4555 36.7439 32.5295 36.5661 32.5295ZM27.4388 17.0278V17.1474L27.4332 17.6456L27.4275 18.1438C27.4246 18.326 27.3598 18.4797 27.2554 18.5908C27.151 18.7018 27.0015 18.7702 26.8237 18.7815H24.2478C24.7077 19.7096 25.0038 20.6264 25.1506 21.5488C25.2973 22.4712 25.2973 23.3965 25.1647 24.3387C24.8656 26.4741 23.9515 28.3103 22.5408 29.6968C21.1272 31.0861 19.2143 32.0256 16.912 32.3701C16.1897 32.4783 15.459 32.5323 14.7254 32.5552C13.9918 32.5807 13.2527 32.5779 12.5134 32.5751C12.2454 32.5751 11.9773 32.5722 11.7093 32.5722C11.4412 32.5722 11.176 32.5751 10.908 32.5779C10.4537 32.5865 10.0418 32.7487 9.73991 33.0164C9.43805 33.284 9.25184 33.6626 9.24619 34.1011C9.24055 34.4968 9.36751 34.8185 9.61862 35.0434C9.86971 35.2655 10.2478 35.3936 10.7444 35.3993C10.9757 35.4022 11.2974 35.4022 11.6868 35.405C12.076 35.4078 12.5332 35.405 13.0326 35.405C14.4179 35.4022 16.1333 35.3993 17.6597 35.4192C19.1861 35.4392 20.5178 35.4761 21.1413 35.5559C22.9104 35.7836 24.3718 36.5039 25.4412 37.5374C26.5105 38.5708 27.1877 39.9203 27.3909 41.4064C27.5093 42.7473 27.0946 44.259 26.6403 45.4605C26.1861 46.6619 25.6867 47.5473 25.6359 47.6384L25.6387 47.6356L25.6416 47.6328C25.6387 47.6356 25.6387 47.6384 25.6359 47.6384C25.634 47.6403 25.6321 47.6423 25.6302 47.6441C25.5794 47.7494 25.5033 47.8377 25.4073 47.8975C25.3114 47.9573 25.193 47.9943 25.0603 47.9943C25.0547 47.9943 25.0519 47.9943 25.0462 47.9972C25.0434 47.9972 25.0377 48 25.0321 48L24.8233 47.9972L24.6145 47.9943H18.7657L18.5428 47.9972L18.32 48C18.3142 48 18.3114 48 18.3058 47.9972C18.3002 47.9943 18.2973 47.9943 18.2917 47.9943C18.1027 47.9915 17.9447 47.9231 17.829 47.8093C17.7133 47.6954 17.6485 47.536 17.6427 47.3452C17.6427 47.3452 17.6456 46.9694 17.6485 46.5708C17.6513 46.1723 17.6541 45.748 17.6541 45.6541C17.6569 45.0135 17.5158 44.5495 17.2139 44.2448C16.912 43.9402 16.4493 43.795 15.8089 43.795C14.5223 43.795 13.2385 43.8121 11.952 43.8264C10.6654 43.8406 9.3788 43.8548 8.09505 43.8548C7.8129 43.8548 7.53076 43.8462 7.25144 43.8207C6.9693 43.7978 6.68998 43.758 6.41347 43.7011C5.03661 43.4192 3.87418 42.8925 2.97415 42.0783C2.07411 41.264 1.43647 40.1623 1.10918 38.7331C0.781894 37.3011 0.891929 35.852 1.37439 34.5537C1.85686 33.2555 2.71175 32.1082 3.86854 31.2741C4.05194 31.1402 4.24097 31.015 4.42718 30.8868C4.61622 30.7615 4.80243 30.6363 4.98864 30.5082C5.02815 30.457 5.01404 30.3943 4.98583 30.3487C4.95762 30.3003 4.91812 30.2662 4.91247 30.2605C3.008 29.1047 1.79196 27.6299 1.12047 25.9245C0.446144 24.2192 0.313536 22.2861 0.573107 20.2106C0.827036 18.1779 1.56907 16.4953 2.70329 15.1288C3.8375 13.7623 5.36672 12.7089 7.20347 11.9316C7.94269 11.6185 8.69036 11.3822 9.44369 11.2143C10.1971 11.0463 10.9559 10.9466 11.7177 10.9068C11.7177 10.9068 15.332 10.9039 19.0224 10.8983C22.7128 10.8954 26.4766 10.8896 26.7786 10.8896H26.7983C26.9818 10.8954 27.1369 10.9637 27.2498 11.0748C27.3598 11.1886 27.4275 11.3452 27.4304 11.5303L27.436 11.9773L27.4416 12.4242V12.6406C27.4416 13.2726 27.4416 14.0185 27.4444 14.7815C27.436 15.5388 27.436 16.3188 27.4388 17.0278ZM18.2973 21.7253C18.2973 20.3473 17.7444 19.1004 16.85 18.1979C15.9528 17.2954 14.7169 16.7346 13.3514 16.7346C11.9858 16.7346 10.75 17.2925 9.85563 18.195C8.96123 19.0975 8.40823 20.3445 8.40823 21.7224C8.40823 23.1003 8.96123 24.3474 9.85563 25.2499C10.75 26.1524 11.9858 26.7103 13.3514 26.7103C14.7169 26.7103 15.9528 26.1524 16.8472 25.2499C17.7444 24.3502 18.2973 23.1032 18.2973 21.7253ZM102.232 24.0342H108.58C108.789 24.0342 108.972 24.1338 109.088 24.2818C109.206 24.4328 109.258 24.6349 109.209 24.8399C108.642 27.2199 107.297 29.2925 105.46 30.7702C103.623 32.2477 101.295 33.1331 98.7645 33.1331C95.7541 33.1331 93.0314 31.8833 91.0818 29.8705C89.1293 27.8576 87.95 25.0819 88.0234 22.027C88.0911 19.1715 89.2705 16.5751 91.1411 14.6705C93.0117 12.7658 95.5707 11.5473 98.4004 11.4534C100.996 11.3651 103.397 12.2079 105.296 13.6769C107.195 15.1459 108.595 17.2385 109.193 19.6527C109.243 19.8577 109.193 20.0598 109.074 20.2106C108.956 20.3616 108.772 20.4612 108.564 20.4612H102.176C102.151 20.4612 102.125 20.4555 102.105 20.4412C102.083 20.4299 102.065 20.41 102.052 20.3872C101.724 19.815 101.253 19.3367 100.689 19.0008C100.125 18.6648 99.4673 18.4712 98.7645 18.4712C97.6471 18.4712 96.6401 18.9609 95.9459 19.7381C95.2519 20.5153 94.8682 21.5801 94.9951 22.7359C95.0939 23.6271 95.5031 24.4299 96.1096 25.0306C96.7163 25.6313 97.518 26.0271 98.4033 26.1096C99.2023 26.1836 99.9527 26.0099 100.592 25.6512C101.233 25.2954 101.758 24.7573 102.105 24.1081C102.117 24.0854 102.136 24.0654 102.158 24.0512C102.182 24.037 102.207 24.0342 102.232 24.0342ZM132.859 22.1239C132.865 22.4456 132.859 22.7644 132.836 23.0805C132.813 23.3965 132.779 23.7068 132.735 24.0142C132.71 24.1737 132.63 24.3103 132.514 24.4071C132.402 24.5039 132.252 24.5608 132.094 24.5608H117.677C117.948 25.1132 118.317 25.6056 118.76 26.0185C119.203 26.4313 119.722 26.7616 120.295 26.9893C120.408 27.0349 120.521 27.0747 120.64 27.1118C120.758 27.1488 120.874 27.18 120.995 27.2086C121.014 27.2142 121.034 27.2171 121.054 27.2228C121.074 27.2284 121.093 27.2313 121.113 27.2341C121.133 27.2399 121.153 27.2427 121.173 27.2456C121.192 27.2484 121.212 27.2541 121.235 27.2569C121.279 27.2655 121.328 27.274 121.373 27.2797C121.421 27.2855 121.466 27.294 121.514 27.2997C121.528 27.3025 121.544 27.3025 121.559 27.3053C121.573 27.3082 121.59 27.3082 121.605 27.311C121.63 27.3139 121.655 27.3167 121.68 27.3195C121.706 27.3224 121.731 27.3224 121.756 27.3252C121.785 27.3281 121.81 27.3281 121.839 27.331C121.867 27.3338 121.892 27.3338 121.92 27.3367C121.951 27.3367 121.985 27.3395 122.016 27.3395H122.213C122.247 27.3395 122.281 27.3367 122.315 27.3367C122.335 27.3367 122.357 27.3338 122.377 27.3338C122.397 27.3338 122.419 27.331 122.439 27.331C122.468 27.3281 122.496 27.3281 122.527 27.3252C122.555 27.3224 122.583 27.3195 122.614 27.3167C122.634 27.3139 122.657 27.311 122.676 27.311C122.696 27.3082 122.718 27.3053 122.738 27.3025C122.758 27.2997 122.778 27.2968 122.801 27.294C122.82 27.2911 122.842 27.2883 122.863 27.2855C123.336 27.2114 123.785 27.0719 124.205 26.8726C124.623 26.6733 125.009 26.417 125.357 26.1153C125.37 26.1039 125.385 26.0953 125.398 26.0897C125.416 26.084 125.432 26.0811 125.45 26.0811H131.237C131.477 26.0811 131.674 26.2064 131.783 26.3886C131.897 26.568 131.922 26.8043 131.817 27.0235C130.946 28.8684 129.575 30.4256 127.879 31.516C126.183 32.6064 124.166 33.2328 121.999 33.2128C119.107 33.1872 116.475 31.9886 114.548 30.0697C112.624 28.1509 111.404 25.506 111.345 22.5908C111.283 19.5217 112.482 16.7346 114.455 14.7217C116.429 12.7089 119.178 11.4733 122.21 11.5046C125.099 11.5331 127.732 12.7345 129.656 14.6563C131.581 16.5779 132.8 19.2085 132.859 22.1239ZM126.536 19.5616C126.186 18.847 125.669 18.2321 125.04 17.7623C124.411 17.2925 123.667 16.9708 122.857 16.8456C122.837 16.8427 122.817 16.8399 122.795 16.837C122.775 16.8342 122.752 16.8313 122.733 16.8285C122.713 16.8257 122.69 16.8228 122.671 16.8199C122.651 16.817 122.628 16.8142 122.608 16.8142C122.58 16.8114 122.552 16.8085 122.521 16.8057C122.493 16.8028 122.465 16.8028 122.434 16.8C122.414 16.7972 122.391 16.7972 122.371 16.7972C122.349 16.7972 122.329 16.7943 122.309 16.7943C122.275 16.7915 122.241 16.7915 122.207 16.7915H122.01C121.979 16.7915 121.945 16.7943 121.914 16.7943C121.886 16.7943 121.861 16.7972 121.833 16.7972C121.805 16.8 121.779 16.8 121.751 16.8028C121.725 16.8057 121.7 16.8057 121.674 16.8085C121.649 16.8114 121.624 16.8142 121.599 16.817C121.584 16.8199 121.568 16.8199 121.553 16.8228C121.54 16.8257 121.522 16.8257 121.508 16.8285C121.46 16.8342 121.415 16.8399 121.367 16.8484C121.319 16.8541 121.274 16.8626 121.229 16.8712C121.209 16.8741 121.186 16.8797 121.167 16.8826C121.147 16.8854 121.127 16.8911 121.108 16.8939C121.088 16.8996 121.068 16.9025 121.048 16.9081C121.029 16.9139 121.008 16.9168 120.989 16.9224C120.946 16.931 120.905 16.9423 120.865 16.9537C120.822 16.9652 120.783 16.9765 120.741 16.9879C120.644 17.0164 120.551 17.0476 120.456 17.0818C120.363 17.116 120.27 17.1502 120.179 17.1901C119.635 17.4235 119.138 17.7509 118.713 18.1552C118.286 18.5594 117.933 19.0377 117.671 19.5729H126.536V19.5616ZM61.5104 21.7224V31.9146C61.5104 32.094 61.437 32.2562 61.3214 32.3758C61.2057 32.4954 61.0421 32.5665 60.8643 32.5665H56.3556C56.1779 32.5665 56.0143 32.4926 55.8986 32.3758C55.7829 32.259 55.7096 32.094 55.7096 31.9146V31.3565C54.9703 31.7438 54.1804 32.0484 53.3508 32.2534C52.5242 32.4612 51.6579 32.5694 50.7664 32.5694C47.7531 32.5694 45.0304 31.3196 43.0808 29.3039C41.1284 27.2883 39.9491 24.5096 40.0224 21.4548C40.0929 18.5965 41.2751 15.9971 43.1514 14.0925C45.0276 12.1879 47.5923 10.9751 50.425 10.8868C51.4125 10.8555 52.3717 10.9608 53.2859 11.1829C54.2001 11.405 55.0662 11.7437 55.8731 12.185C57.4757 13.0619 58.83 14.3346 59.8119 15.8776C60.7938 17.4207 61.3975 19.2285 61.4935 21.173C61.4963 21.2185 61.4963 21.2641 61.4991 21.3096C61.502 21.3552 61.502 21.4008 61.5048 21.4463C61.5048 21.4947 61.5076 21.5402 61.5076 21.5886C61.5104 21.6257 61.5104 21.6741 61.5104 21.7224ZM55.7067 21.7224C55.7067 20.3445 55.1537 19.0975 54.2593 18.195C53.3649 17.2925 52.1291 16.7346 50.7636 16.7346C49.398 16.7346 48.1623 17.2925 47.2678 18.195C46.3735 19.0975 45.8204 20.3445 45.8204 21.7224C45.8204 23.1003 46.3735 24.3474 47.2678 25.2499C48.1623 26.1524 49.398 26.7103 50.7636 26.7103C52.1291 26.7103 53.3649 26.1524 54.2593 25.2499C55.1537 24.3474 55.7067 23.1003 55.7067 21.7224Z" fill="white"/>
</g>
<defs>
<clipPath id="clip0_1118_10628">
<rect width="133" height="48" fill="white"/>
</clipPath>
</defs>
</svg>
