<svg width="72" height="48" viewBox="0 0 72 48" fill="none" xmlns="http://www.w3.org/2000/svg">
<g clip-path="url(#clip0_1118_10661)">
<path d="M24.9616 39.8877H22.2236C22.0983 39.8877 22.0078 39.9908 22.0078 40.1049V47.6772C22.0078 47.7917 22.0983 47.8945 22.2236 47.8945H23.564C23.6776 47.8945 23.7797 47.7917 23.7797 47.6772V44.9892H24.9728C26.3588 44.9892 27.5065 43.8341 27.5065 42.4156C27.5065 40.9973 26.3591 39.8877 24.9616 39.8877ZM24.8595 43.3198H23.7797V41.5697H24.8595C25.3483 41.5697 25.7571 41.9356 25.7571 42.4161C25.7571 42.9308 25.3483 43.3198 24.8595 43.3198Z" fill="white"/>
<path d="M18.0668 39.7656H17.8851C17.8286 39.7656 17.7261 39.8116 17.6916 39.88L15.0562 44.8221H15.0338L12.3976 39.88C12.3635 39.8116 12.2611 39.7656 12.2046 39.7656H12.0229C11.932 39.7656 11.8295 39.8458 11.8183 39.9486L10.5343 47.6354C10.512 47.7842 10.614 47.8869 10.7501 47.8869H12.0909C12.2046 47.8869 12.2955 47.7954 12.3067 47.7039L12.8067 44.1695H12.8291L14.7492 47.8757C14.7832 47.9441 14.8745 48.0013 14.9425 48.0013H15.1471C15.2039 48.0013 15.3065 47.9441 15.3405 47.8757L17.2493 44.1695H17.2717L17.783 47.7039C17.7942 47.7949 17.8966 47.8869 17.9987 47.8869H19.3391C19.4756 47.8869 19.5776 47.7842 19.5549 47.6354L18.2709 39.9486C18.2597 39.8454 18.1577 39.7656 18.0668 39.7656Z" fill="white"/>
<path d="M4.78991 39.7527C4.75546 39.6843 4.67621 39.627 4.59696 39.627H4.48326C4.40358 39.627 4.32433 39.6843 4.28987 39.7527L0.733638 47.4512C0.665589 47.6 0.756465 47.7484 0.92702 47.7484H2.17689C2.4043 47.7484 2.52877 47.6113 2.58562 47.4738L2.99478 46.5584H6.08543L6.4946 47.4621C6.59667 47.6794 6.68711 47.7479 6.8917 47.7479H8.15277C8.32332 47.7479 8.41462 47.5992 8.34615 47.4509L4.78991 39.7527ZM3.67614 45.0031L4.52805 43.1159H4.53968L5.40321 45.0031H3.67614Z" fill="white"/>
<path d="M37.1411 39.8877H35.6301C35.5397 39.8877 35.4596 39.9566 35.4368 40.0134L33.5624 44.1888H33.494L31.6195 40.0134C31.5972 39.9566 31.5171 39.8877 31.4262 39.8877H29.9153C29.7447 39.8877 29.6538 40.0364 29.722 40.1856L33.2665 47.8841C33.3009 47.9526 33.369 48.0099 33.4599 48.0099H33.5737C33.6645 48.0099 33.7322 47.9526 33.7666 47.8841L37.334 40.1856C37.4025 40.0368 37.3116 39.8877 37.1411 39.8877Z" fill="white"/>
<path d="M61.0601 43.026C60.1625 42.66 59.8214 42.34 59.8214 41.9163C59.8214 41.6076 60.1285 41.3332 60.5372 41.3332C61.2307 41.3332 62.0601 41.9624 62.1622 42.0196C62.2647 42.0998 62.4689 41.997 62.5486 41.8709L63.1279 40.9897C63.1735 40.9095 63.1959 40.704 63.0598 40.6237C62.7187 40.3722 61.8099 39.7656 60.6285 39.7656C58.8791 39.7656 58.0039 40.9095 58.0039 42.0417C58.0039 43.4145 59.2309 44.1807 60.2082 44.5701C60.9804 44.8789 61.3784 45.2449 61.3784 45.7253C61.3784 46.1259 61.0484 46.4118 60.5945 46.4118C59.8447 46.4118 59.0263 45.8055 58.9812 45.7826C58.9015 45.7253 58.6857 45.7023 58.5948 45.851L58.0607 46.8007C57.9699 46.9607 58.0039 47.0067 58.1172 47.1211C58.3786 47.3839 59.1969 48.0018 60.6737 48.0018C62.3439 48.0018 63.3553 46.8119 63.3553 45.6338C63.3553 44.078 61.9461 43.3807 61.0601 43.026Z" fill="white"/>
<path d="M71.7006 41.5693C71.8259 41.5693 71.9164 41.466 71.9164 41.352V40.1049C71.9164 39.9905 71.8259 39.8877 71.7006 39.8877H66.997C66.8721 39.8877 66.7812 39.9908 66.7812 40.1049V47.6772C66.7812 47.7917 66.8721 47.8945 66.997 47.8945H71.7006C71.8259 47.8945 71.9164 47.7917 71.9164 47.6772V46.4306C71.9164 46.3161 71.8259 46.2133 71.7006 46.2133H68.5535V44.6692H71.1442C71.2574 44.6692 71.36 44.5777 71.36 44.452V43.2049C71.36 43.0904 71.257 42.9876 71.1442 42.9876H68.5535V41.5693H71.7006Z" fill="white"/>
<path d="M45.0757 39.9951H40.3721C40.2467 39.9951 40.1562 40.0984 40.1562 40.2124V47.7847C40.1562 47.8992 40.2471 48.002 40.3721 48.002H45.0757C45.201 48.002 45.2914 47.8992 45.2914 47.7847V46.5381C45.2914 46.4236 45.201 46.3208 45.0757 46.3208H41.9286V44.7767H44.5192C44.6329 44.7767 44.735 44.6852 44.735 44.5594V43.3124C44.735 43.1979 44.6329 43.0951 44.5192 43.0951H41.9286V41.6768H45.0757C45.201 41.6768 45.2914 41.5735 45.2914 41.4595V40.2124C45.2914 40.0979 45.201 39.9951 45.0757 39.9951Z" fill="white"/>
<path d="M54.949 42.3584C54.949 40.9973 53.8356 39.8877 52.4721 39.8877H49.0752C48.9499 39.8877 48.8594 39.9908 48.8594 40.1049V47.6772C48.8594 47.7917 48.9502 47.8945 49.0752 47.8945H50.4276C50.5409 47.8945 50.6429 47.7917 50.6429 47.6772V44.7603H51.4272L52.9381 47.7917C52.9609 47.8377 53.029 47.8945 53.1198 47.8945H54.6308C54.8241 47.8945 54.9038 47.7115 54.8241 47.5628L53.2671 44.6575C54.2556 44.2569 54.949 43.4108 54.949 42.3584ZM52.3243 43.3076H50.6429V41.5233H52.3243C52.7904 41.5233 53.1878 41.9122 53.1878 42.3927C53.1878 42.8731 52.7899 43.3076 52.3243 43.3076Z" fill="white"/>
<path d="M36.4933 0L42.2193 9.80464H49.7815L44.0989 19.6032L32.8806 0H25.4507L4.67578 35.8216H37.3189L30.9955 24.9958H23.4458L29.1284 15.1972L40.9479 35.8216H47.1826L67.9584 0H36.4933Z" fill="white"/>
</g>
<defs>
<clipPath id="clip0_1118_10661">
<rect width="72" height="48" fill="white"/>
</clipPath>
</defs>
</svg>
