<svg width="138" height="49" viewBox="0 0 138 49" fill="none" xmlns="http://www.w3.org/2000/svg">
<path d="M62.6611 18.8656H64.179V27.6962C64.179 28.4844 64.0322 29.1539 63.7385 29.7048C63.4446 30.2558 63.0305 30.674 62.4959 30.9595C61.9614 31.245 61.331 31.3877 60.6046 31.3877C59.9192 31.3877 59.3092 31.2651 58.7746 31.0198C58.2401 30.7705 57.8198 30.4166 57.5137 29.9582C57.2077 29.4998 57.0547 28.9549 57.0547 28.3235H58.5481C58.5481 28.6734 58.6359 28.979 58.8113 29.2404C58.9908 29.4978 59.2357 29.6988 59.5458 29.8436C59.8559 29.9883 60.2089 30.0607 60.6046 30.0607C61.0413 30.0607 61.4125 29.9703 61.7186 29.7893C62.0246 29.6083 62.2572 29.3429 62.4164 28.9931C62.5796 28.6392 62.6611 28.2069 62.6611 27.6962V18.8656ZM67.0252 31.2189V21.9539H68.4696V31.2189H67.0252ZM67.7596 20.4097C67.4781 20.4097 67.2353 20.3152 67.0313 20.1262C66.8314 19.9372 66.7313 19.71 66.7313 19.4446C66.7313 19.1792 66.8314 18.952 67.0313 18.763C67.2353 18.574 67.4781 18.4795 67.7596 18.4795C68.0412 18.4795 68.2819 18.574 68.4819 18.763C68.6859 18.952 68.7879 19.1792 68.7879 19.4446C68.7879 19.71 68.6859 19.9372 68.4819 20.1262C68.2819 20.3152 68.0412 20.4097 67.7596 20.4097ZM74.9345 31.4119C74.0857 31.4119 73.3411 31.2128 72.7004 30.8147C72.0639 30.4166 71.5661 29.8597 71.2071 29.1439C70.852 28.4281 70.6746 27.5917 70.6746 26.6346C70.6746 25.6695 70.852 24.8271 71.2071 24.1073C71.5661 23.3875 72.0639 22.8285 72.7004 22.4304C73.3411 22.0323 74.0857 21.8332 74.9345 21.8332C75.7832 21.8332 76.5259 22.0323 77.1624 22.4304C77.803 22.8285 78.3008 23.3875 78.6557 24.1073C79.0148 24.8271 79.1945 25.6695 79.1945 26.6346C79.1945 27.5917 79.0148 28.4281 78.6557 29.1439C78.3008 29.8597 77.803 30.4166 77.1624 30.8147C76.5259 31.2128 75.7832 31.4119 74.9345 31.4119ZM74.9345 30.1331C75.5792 30.1331 76.1096 29.9703 76.5259 29.6445C76.942 29.3188 77.2501 28.8905 77.4501 28.3597C77.65 27.8289 77.7499 27.2539 77.7499 26.6346C77.7499 26.0153 77.65 25.4383 77.4501 24.9035C77.2501 24.3686 76.942 23.9364 76.5259 23.6066C76.1096 23.2769 75.5792 23.112 74.9345 23.112C74.2898 23.112 73.7593 23.2769 73.3432 23.6066C72.9269 23.9364 72.6189 24.3686 72.419 24.9035C72.219 25.4383 72.119 26.0153 72.119 26.6346C72.119 27.2539 72.219 27.8289 72.419 28.3597C72.6189 28.8905 72.9269 29.3188 73.3432 29.6445C73.7593 29.9703 74.2898 30.1331 74.9345 30.1331ZM90.164 22.726C90.0294 22.3198 89.8519 21.9559 89.6315 21.6342C89.4153 21.3085 89.1561 21.031 88.8542 20.8018C88.5563 20.5726 88.2176 20.3977 87.8382 20.277C87.4587 20.1564 87.0425 20.0961 86.5896 20.0961C85.847 20.0961 85.1717 20.2851 84.5637 20.6631C83.9558 21.0411 83.4721 21.598 83.1131 22.3339C82.754 23.0698 82.5745 23.9726 82.5745 25.0422C82.5745 26.1119 82.7561 27.0146 83.1192 27.7505C83.4824 28.4864 83.974 29.0434 84.5943 29.4214C85.2145 29.7993 85.9122 29.9883 86.6875 29.9883C87.4057 29.9883 88.0381 29.8375 88.5849 29.536C89.1357 29.2303 89.5642 28.8001 89.8703 28.2451C90.1804 27.6862 90.3354 27.0287 90.3354 26.2727L90.8006 26.3692H87.0303V25.0422H91.8043V26.3692C91.8043 27.3866 91.584 28.2713 91.1433 29.0232C90.7067 29.7752 90.1028 30.3583 89.3317 30.7725C88.5646 31.1827 87.6832 31.3877 86.6875 31.3877C85.5777 31.3877 84.6024 31.1304 83.7618 30.6157C82.9254 30.1009 82.2726 29.3691 81.8033 28.4201C81.3381 27.471 81.1055 26.3451 81.1055 25.0422C81.1055 24.065 81.2382 23.1864 81.5034 22.4063C81.7727 21.6221 82.1522 20.9546 82.6418 20.4037C83.1315 19.8528 83.7109 19.4305 84.3801 19.137C85.0492 18.8434 85.7858 18.6967 86.5896 18.6967C87.2506 18.6967 87.8667 18.7952 88.438 18.9922C89.0134 19.1853 89.5255 19.4607 89.9743 19.8186C90.4272 20.1725 90.8046 20.5967 91.1066 21.0913C91.4086 21.5819 91.6167 22.1268 91.7308 22.726H90.164ZM96.9747 31.436C96.379 31.436 95.8383 31.3254 95.3527 31.1042C94.8672 30.8791 94.4816 30.5553 94.196 30.1331C93.9103 29.7069 93.7676 29.1921 93.7676 28.589C93.7676 28.0581 93.8736 27.6279 94.0858 27.2981C94.2979 26.9644 94.5816 26.703 94.9365 26.514C95.2915 26.325 95.6832 26.1842 96.1117 26.0918C96.5442 25.9952 96.9788 25.9188 97.4154 25.8625C97.9866 25.7902 98.4497 25.7359 98.8048 25.6997C99.1639 25.6595 99.4249 25.5931 99.5882 25.5006C99.7554 25.4081 99.8392 25.2473 99.8392 25.0181V24.9698C99.8392 24.3747 99.6739 23.9122 99.3434 23.5825C99.0169 23.2527 98.5212 23.0879 97.8561 23.0879C97.1665 23.0879 96.6258 23.2367 96.2341 23.5342C95.8424 23.8318 95.5669 24.1495 95.4078 24.4873L94.0369 24.0047C94.2816 23.4417 94.608 23.0034 95.0162 22.6898C95.4282 22.3721 95.877 22.1509 96.3627 22.0263C96.8523 21.8976 97.3337 21.8332 97.8071 21.8332C98.1091 21.8332 98.4559 21.8694 98.8476 21.9418C99.2434 22.0102 99.6249 22.1529 99.9922 22.3701C100.363 22.5872 100.672 22.915 100.916 23.3533C101.161 23.7916 101.284 24.3787 101.284 25.1146V31.2189H99.8392V29.9642H99.7657C99.6678 30.1653 99.5045 30.3804 99.276 30.6096C99.0476 30.8388 98.7436 31.0339 98.3641 31.1947C97.9846 31.3556 97.5215 31.436 96.9747 31.436ZM97.195 30.1572C97.7663 30.1572 98.2478 30.0467 98.6395 29.8255C99.0353 29.6043 99.3331 29.3188 99.5331 28.969C99.7371 28.6191 99.8392 28.2512 99.8392 27.8651V26.5622C99.778 26.6346 99.6433 26.701 99.4352 26.7613C99.2311 26.8176 98.9945 26.8679 98.7252 26.9121C98.46 26.9523 98.2008 26.9885 97.9478 27.0207C97.6989 27.0488 97.497 27.0729 97.342 27.093C96.9665 27.1413 96.6156 27.2197 96.2892 27.3283C95.9668 27.4328 95.7057 27.5917 95.5057 27.8048C95.3099 28.0139 95.212 28.2994 95.212 28.6613C95.212 29.1559 95.3976 29.5299 95.769 29.7833C96.1443 30.0326 96.6197 30.1572 97.195 30.1572ZM103.92 31.2189V21.9539H105.315V23.4015H105.438C105.634 22.9069 105.95 22.5229 106.387 22.2494C106.823 21.972 107.348 21.8332 107.959 21.8332C108.579 21.8332 109.096 21.972 109.508 22.2494C109.924 22.5229 110.249 22.9069 110.481 23.4015H110.579C110.82 22.923 111.181 22.543 111.662 22.2615C112.144 21.976 112.721 21.8332 113.394 21.8332C114.235 21.8332 114.922 22.0926 115.457 22.6114C115.992 23.1261 116.259 23.9283 116.259 25.0181V31.2189H114.815V25.0181C114.815 24.3345 114.625 23.8459 114.246 23.5523C113.866 23.2588 113.42 23.112 112.905 23.112C112.244 23.112 111.732 23.309 111.369 23.7031C111.006 24.0932 110.824 24.5878 110.824 25.187V31.2189H109.355V24.8733C109.355 24.3465 109.182 23.9223 108.835 23.6006C108.488 23.2749 108.042 23.112 107.495 23.112C107.119 23.112 106.768 23.2105 106.441 23.4076C106.12 23.6046 105.858 23.8781 105.658 24.2279C105.462 24.5737 105.365 24.9738 105.365 25.4282V31.2189H103.92ZM122.842 31.4119C121.936 31.4119 121.155 31.2148 120.497 30.8207C119.845 30.4226 119.34 29.8677 118.986 29.1559C118.635 28.4402 118.46 27.6078 118.46 26.6588C118.46 25.7097 118.635 24.8733 118.986 24.1495C119.34 23.4216 119.835 22.8546 120.467 22.4485C121.104 22.0383 121.847 21.8332 122.695 21.8332C123.184 21.8332 123.668 21.9137 124.145 22.0745C124.623 22.2354 125.057 22.4968 125.449 22.8587C125.841 23.2166 126.153 23.6911 126.385 24.2822C126.618 24.8733 126.735 25.6012 126.735 26.4657V27.0689H119.488V25.8384H125.265C125.265 25.3157 125.16 24.8492 124.948 24.439C124.74 24.0289 124.441 23.7051 124.054 23.4679C123.67 23.2306 123.218 23.112 122.695 23.112C122.12 23.112 121.621 23.2527 121.201 23.5342C120.785 23.8117 120.465 24.1736 120.24 24.62C120.016 25.0663 119.904 25.5449 119.904 26.0556V26.8759C119.904 27.5756 120.026 28.1687 120.271 28.6553C120.52 29.1379 120.864 29.5058 121.306 29.7591C121.746 30.0085 122.259 30.1331 122.842 30.1331C123.222 30.1331 123.564 30.0808 123.87 29.9763C124.181 29.8677 124.447 29.7069 124.672 29.4937C124.896 29.2766 125.069 29.0072 125.192 28.6855L126.587 29.0715C126.44 29.538 126.194 29.9481 125.847 30.302C125.501 30.6519 125.071 30.9253 124.562 31.1223C124.052 31.3154 123.478 31.4119 122.842 31.4119ZM135.591 24.0289L134.293 24.3908C134.212 24.1776 134.091 23.9705 133.932 23.7695C133.778 23.5644 133.566 23.3955 133.296 23.2628C133.027 23.1301 132.682 23.0638 132.262 23.0638C131.686 23.0638 131.206 23.1944 130.823 23.4558C130.443 23.7132 130.254 24.0409 130.254 24.439C130.254 24.7929 130.384 25.0724 130.645 25.2774C130.907 25.4825 131.315 25.6534 131.87 25.7902L133.265 26.1279C134.105 26.329 134.732 26.6366 135.144 27.0508C135.556 27.461 135.762 27.9898 135.762 28.6372C135.762 29.168 135.607 29.6425 135.298 30.0607C134.991 30.4789 134.563 30.8087 134.012 31.05C133.461 31.2912 132.821 31.4119 132.09 31.4119C131.131 31.4119 130.338 31.2068 129.709 30.7966C129.081 30.3865 128.683 29.7873 128.515 28.9991L129.886 28.6613C130.017 29.16 130.264 29.5339 130.627 29.7833C130.994 30.0326 131.474 30.1572 132.066 30.1572C132.739 30.1572 133.273 30.0165 133.669 29.735C134.069 29.4495 134.269 29.1077 134.269 28.7096C134.269 28.3879 134.155 28.1185 133.926 27.9013C133.697 27.6801 133.346 27.5153 132.874 27.4067L131.307 27.0448C130.445 26.8437 129.813 26.5321 129.409 26.1098C129.01 25.6836 128.81 25.1508 128.81 24.5114C128.81 23.9886 128.959 23.5262 129.256 23.1241C129.558 22.7219 129.968 22.4063 130.487 22.1771C131.008 21.9479 131.6 21.8332 132.262 21.8332C133.192 21.8332 133.922 22.0343 134.452 22.4364C134.987 22.8386 135.367 23.3694 135.591 24.0289Z" fill="white"/>
<path d="M25.5908 49C39.3208 49 50.4511 38.031 50.4511 24.5C50.4511 10.969 39.3208 0 25.5908 0C11.8608 0 0.730469 10.969 0.730469 24.5C0.730469 38.031 11.8608 49 25.5908 49Z" fill="black"/>
<path d="M25.5869 49C39.3168 49 50.4472 38.031 50.4472 24.5C50.4472 10.969 39.3168 0 25.5869 0C11.8569 0 0.726562 10.969 0.726562 24.5C0.726562 38.031 11.8569 49 25.5869 49Z" fill="white"/>
<path d="M34.4596 15.7578H16.72C11.8219 15.7549 7.84776 19.6655 7.84375 24.4926C7.84075 29.3198 11.8089 33.2364 16.707 33.2403C19.1019 33.2423 21.3957 32.2893 23.0672 30.5977H28.1116C31.5307 34.0541 37.1452 34.1252 40.6525 30.7566C44.1597 27.3871 44.2318 21.8539 40.8138 18.3975C39.1443 16.7088 36.8526 15.7568 34.4596 15.7578ZM20.057 25.9117H18.2191V27.7229C18.2191 28.5386 17.5468 29.2003 16.7191 29.1993C15.8913 29.1993 15.221 28.5376 15.221 27.7229V25.9117H13.3832C12.5555 25.9117 11.8841 25.2501 11.8841 24.4344C11.8841 23.6187 12.5555 22.957 13.3832 22.957H15.221V21.1459C15.221 20.3301 15.8913 19.6675 16.7191 19.6675C17.5468 19.6675 18.2191 20.3282 18.2191 21.1439V22.957H20.057C20.8847 22.957 21.556 23.6187 21.556 24.4344C21.556 25.2501 20.8847 25.9117 20.057 25.9117ZM31.3763 25.9117C30.5486 25.9117 29.8772 25.2501 29.8772 24.4344C29.8772 23.6187 30.5486 22.957 31.3763 22.957C32.204 22.957 32.8754 23.6187 32.8754 24.4344C32.8754 25.2501 32.204 25.9117 31.3763 25.9117ZM34.7132 29.2003C33.8855 29.2003 33.2141 28.5386 33.2141 27.7229C33.2141 26.9072 33.8855 26.2455 34.7132 26.2455C35.5409 26.2455 36.2123 26.9072 36.2123 27.7229C36.2123 28.5386 35.5409 29.2003 34.7132 29.2003ZM34.7132 22.6222C33.8855 22.6222 33.2141 21.9606 33.2141 21.1449C33.2141 20.3292 33.8855 19.6675 34.7132 19.6675C35.5409 19.6675 36.2123 20.3292 36.2123 21.1449C36.2123 21.9606 35.5419 22.6222 34.7132 22.6222ZM38.0501 25.9108C37.2224 25.9108 36.551 25.2491 36.551 24.4334C36.551 23.6177 37.2224 22.956 38.0501 22.956C38.8778 22.956 39.5492 23.6177 39.5492 24.4334C39.5492 25.2491 38.8778 25.9099 38.0501 25.9108Z" fill="#050607"/>
</svg>
