<svg width="37" height="47" viewBox="0 0 37 47" fill="none" xmlns="http://www.w3.org/2000/svg">
<g clip-path="url(#clip0_1118_10650)">
<path d="M7.26342 47.0056H0.859375V32.7471H7.26342C8.18419 32.7603 8.95065 32.8632 9.5628 33.0569C10.6047 33.3857 11.4489 33.989 12.0942 34.8659C12.6118 35.5756 12.9649 36.3426 13.153 37.1679C13.341 37.9938 13.4355 38.78 13.4355 39.5284C13.4355 41.4241 13.0385 43.0303 12.2455 44.3457C11.1699 46.1195 9.50864 47.0056 7.26342 47.0056ZM9.57302 36.3843C9.09526 35.6103 8.15098 35.2237 6.73916 35.2237H3.87514V44.5296H6.73916C8.20463 44.5296 9.22658 43.8365 9.805 42.45C10.1208 41.6894 10.2792 40.7826 10.2792 39.7318C10.2792 38.2805 10.0437 37.1645 9.57302 36.3843Z" fill="white"/>
<path d="M19.0705 47.0056H16.1758V32.7471H20.6938L23.3969 43.9586L26.0795 32.7471H30.5475V47.0056H27.6528V37.361C27.6528 37.0841 27.6558 36.6955 27.663 36.195C27.6696 35.6956 27.6732 35.3104 27.6732 35.0394L24.8593 47.0056H21.844L19.0505 35.0394C19.0505 35.3104 19.0536 35.6956 19.0607 36.195C19.0674 36.6955 19.071 37.0836 19.071 37.361L19.0705 47.0056Z" fill="white"/>
<path d="M33.6445 32.7471H36.7308V47.0056H33.6445V32.7471Z" fill="white"/>
<path fill-rule="evenodd" clip-rule="evenodd" d="M6.45557 27.105C7.62212 23.8237 8.78868 20.5424 9.95523 17.261C8.87554 16.2479 7.79534 15.2348 6.71565 14.2218C4.76373 19.6905 2.8113 25.1593 0.859375 30.6275C8.32624 30.5966 16.437 30.0943 23.6453 28.0921C28.1705 26.8355 33.8004 24.6505 35.8683 21.0986C39.0957 15.5544 32.5761 10.7174 28.123 8.28104C25.2058 6.68521 21.9274 5.41581 18.6061 4.13709C17.0956 3.6406 15.5724 3.16274 14.0298 2.7128C10.1346 1.57818 6.11577 0.622451 1.86446 0C5.79283 0.799384 9.50915 1.86245 13.1233 3.05393C16.4528 4.1518 22.0654 6.17059 26.4419 8.93682C29.9952 11.183 34.992 15.5607 31.7238 19.8684C30.3002 21.7446 27.587 23.4119 22.8789 24.7568C17.7068 26.2336 11.8218 26.8247 6.45557 27.105ZM22.6075 15.177L23.3566 13.2185L28.2369 11.6149L27.5328 13.6146L22.6075 15.177ZM19.2443 24.7623L22.2958 16.2769L27.1991 14.6584L24.0418 23.506L19.2443 24.7623ZM12.9956 25.7253L16.7068 15.3207L21.6316 13.8262L17.6342 25.1117L12.9956 25.7253ZM7.50613 26.1787L10.7432 17.3527L15.668 15.7779L12.061 25.9125L7.50613 26.1787Z" fill="white"/>
<mask id="mask0_1118_10650" style="mask-type:luminance" maskUnits="userSpaceOnUse" x="0" y="0" width="37" height="31">
<path d="M6.45557 27.105C7.62212 23.8237 8.78868 20.5424 9.95523 17.261C8.87554 16.2479 7.79534 15.2348 6.71565 14.2218C4.76373 19.6905 2.8113 25.1593 0.859375 30.6275C8.32624 30.5966 16.437 30.0943 23.6453 28.0921C28.1705 26.8355 33.8004 24.6505 35.8683 21.0986C39.0957 15.5544 32.5761 10.7174 28.123 8.28104C25.2058 6.68521 21.9274 5.41581 18.6061 4.13709C17.0956 3.6406 15.5724 3.16274 14.0298 2.7128C10.1346 1.57818 6.11577 0.622451 1.86446 0C5.79283 0.799384 9.50915 1.86245 13.1233 3.05393C16.4528 4.1518 22.0654 6.17059 26.4419 8.93682C29.9952 11.183 34.992 15.5607 31.7238 19.8684C30.3002 21.7446 27.587 23.4119 22.8789 24.7568C17.7068 26.2336 11.8218 26.8247 6.45557 27.105ZM22.6075 15.177L23.3566 13.2185L28.2369 11.6149L27.5328 13.6146L22.6075 15.177ZM19.2443 24.7623L22.2958 16.2769L27.1991 14.6584L24.0418 23.506L19.2443 24.7623ZM12.9956 25.7253L16.7068 15.3207L21.6316 13.8262L17.6342 25.1117L12.9956 25.7253ZM7.50613 26.1787L10.7432 17.3527L15.668 15.7779L12.061 25.9125L7.50613 26.1787Z" fill="white"/>
</mask>
<g mask="url(#mask0_1118_10650)">
<path d="M39.0957 0H0.859375V30.6275H39.0957V0Z" fill="white"/>
</g>
<path fill-rule="evenodd" clip-rule="evenodd" d="M13.3924 25.4124L17.426 24.8786L21.196 14.2352L16.9155 15.5341L13.3924 25.4124ZM7.89526 25.898L11.8579 25.6668L15.2283 16.1967L10.952 17.5641L7.89526 25.898ZM9.63871 17.3362C8.7026 16.4579 7.7665 15.5796 6.83039 14.7013C4.96636 19.9236 3.10232 25.1457 1.23828 30.3679C4.77678 30.3459 8.32039 30.216 11.8431 29.8886C15.7888 29.5215 19.7545 28.9039 23.5664 27.8453C27.554 26.7381 33.5165 24.6017 35.6273 20.9758C36.3233 19.7804 36.6176 18.4904 36.3713 17.1328C35.6949 13.4035 31.1998 10.2716 27.9848 8.51258C24.9771 6.86725 21.7504 5.54295 18.5083 4.38676C17.0096 3.85253 15.4761 3.41339 13.9473 2.96787C13.3014 2.77966 12.654 2.59685 12.0056 2.4209C12.4072 2.54882 12.8083 2.67919 13.2089 2.81152C14.7873 3.33203 16.353 3.88684 17.8987 4.49017C19.777 5.22339 21.6334 6.02866 23.4258 6.9393C24.5061 7.48823 25.5674 8.07785 26.5888 8.72333C27.7937 9.48497 28.9618 10.3549 29.9909 11.3258C31.4323 12.6859 32.8396 14.4847 33.0326 16.4775C33.1593 17.7847 32.7398 18.9742 31.9412 20.027C29.9541 22.6461 26.0707 24.1219 22.9537 25.0119C20.2272 25.7902 17.4025 26.3034 14.5855 26.6676C11.8927 27.0156 9.18036 27.2287 6.4676 27.3704L6.06495 27.3915L6.19525 27.0254C7.34341 23.796 8.49157 20.5666 9.63973 17.3371L9.63871 17.3362ZM19.666 24.3836L23.827 23.294L26.7574 15.0831L22.5065 16.4863L19.666 24.3836ZM23.0534 14.7626L27.3139 13.4108L27.7973 12.0375L23.5627 13.4289L23.0534 14.7626Z" fill="white"/>
</g>
<defs>
<clipPath id="clip0_1118_10650">
<rect width="37" height="47" fill="white"/>
</clipPath>
</defs>
</svg>
