<svg width="109" height="83" viewBox="0 0 109 83" fill="none" xmlns="http://www.w3.org/2000/svg">
<g filter="url(#filter0_d_1118_10608)">
<path d="M81.8047 49.6135H7.72656V75.924H101.535V35.29C101.535 46.0326 92.648 49.6175 81.8047 49.6175V49.6135Z" fill="url(#paint0_linear_1118_10608)"/>
<path d="M81.8047 49.6135H7.72656V75.924H101.535V35.29C101.535 46.0326 92.648 49.6175 81.8047 49.6175V49.6135Z" fill="black"/>
<path d="M81.8047 49.6126C92.648 49.6126 101.535 46.0318 101.535 35.2853V7.0332H7.72656V49.6126H81.8047Z" fill="white"/>
<path d="M81.8047 49.6126C92.648 49.6126 101.535 46.0318 101.535 35.2853V7.0332H7.72656V49.6126H81.8047Z" fill="white"/>
</g>
<path d="M42.2637 21.5127V35.1353H38.1344V29.7781H33.8332V35.1353H29.6999V21.5127H33.8332V26.9263H38.1344V21.5127H42.2637ZM56.632 32.4002V21.5127H52.5027V35.1353H59.9689L60.5931 32.4002H56.632ZM49.4458 21.5127H45.3167V35.1353H49.4458V21.5127ZM66.1909 21.5127H62.0616V35.1353H66.1909V21.5127ZM86.557 24.9889C86.557 24.2477 87.2931 23.9054 88.4815 23.9054C89.782 23.9054 91.1982 24.1912 92.1586 24.5901L91.8184 21.6256C90.7421 21.396 89.782 21.2267 88.0294 21.2267C84.6924 21.2267 82.4277 22.5519 82.4277 25.3312C82.4277 30.1165 88.8777 29.1497 88.8777 31.3731C88.8777 32.227 88.2534 32.6862 86.729 32.6862C85.3726 32.6862 83.2759 32.227 82.0316 31.6027L82.4837 34.7365C83.7281 35.1917 85.4246 35.4213 86.785 35.4213C90.234 35.4213 93.0629 34.2814 93.0629 30.8616C93.0629 26.302 86.557 27.1559 86.557 24.9889ZM81.1834 26.4148C81.1834 29.8908 78.7506 31.8846 74.9015 31.8846H73.429V35.1312H69.2997V21.5087C70.7162 21.3396 72.6928 21.2227 74.3333 21.2227C78.5786 21.2227 81.1793 22.5922 81.1793 26.4107L81.1834 26.4148ZM77.1101 26.4711C77.1101 24.7593 76.1458 23.7926 74.1091 23.7926C73.8972 23.7926 73.6731 23.7926 73.429 23.8047V29.4316H74.1091C76.2578 29.4316 77.1101 28.2353 77.1101 26.4671V26.4711ZM28.0554 26.4148C28.0554 29.8908 25.6227 31.8846 21.7736 31.8846H20.3012V35.1312H16.1719V21.5087C17.5883 21.3396 19.5648 21.2227 21.2094 21.2227C25.4546 21.2227 28.0554 22.5922 28.0554 26.4107V26.4148ZM23.9823 26.4711C23.9823 24.7593 23.022 23.7926 20.9853 23.7926C20.7732 23.7926 20.5452 23.7926 20.3051 23.8047V29.4316H20.9853C23.134 29.4316 23.9823 28.2353 23.9823 26.4671V26.4711Z" fill="black"/>
<path d="M24.827 63.8972C24.827 64.8549 24.6552 65.6826 24.3116 66.3803C23.9681 67.0779 23.4968 67.616 22.8977 67.9943C22.2987 68.3727 21.6146 68.5619 20.8451 68.5619C20.0758 68.5619 19.3917 68.3727 18.7926 67.9943C18.1935 67.616 17.7221 67.0779 17.3787 66.3803C17.035 65.6826 16.8633 64.8549 16.8633 63.8972C16.8633 62.9394 17.035 62.1117 17.3787 61.4141C17.7221 60.7163 18.1935 60.1783 18.7926 59.7999C19.3917 59.4216 20.0758 59.2324 20.8451 59.2324C21.6146 59.2324 22.2987 59.4216 22.8977 59.7999C23.4968 60.1783 23.9681 60.7163 24.3116 61.4141C24.6552 62.1117 24.827 62.9394 24.827 63.8972ZM23.7698 63.8972C23.7698 63.1108 23.6392 62.4472 23.3778 61.9061C23.1195 61.3652 22.7686 60.9559 22.3252 60.6779C21.8847 60.4 21.3914 60.2611 20.8451 60.2611C20.299 60.2611 19.8042 60.4 19.3608 60.6779C18.9203 60.9559 18.5694 61.3652 18.3081 61.9061C18.0496 62.4472 17.9204 63.1108 17.9204 63.8972C17.9204 64.6834 18.0496 65.3471 18.3081 65.888C18.5694 66.4291 18.9203 66.8385 19.3608 67.1163C19.8042 67.3943 20.299 67.5331 20.8451 67.5331C21.3914 67.5331 21.8847 67.3943 22.3252 67.1163C22.7686 66.8385 23.1195 66.4291 23.3778 65.888C23.6392 65.3471 23.7698 64.6834 23.7698 63.8972ZM27.5623 64.3406V68.4377H26.5228V61.6269H27.5271V62.691H27.6152C27.7738 62.3452 28.0145 62.0674 28.3376 61.8575C28.6606 61.6446 29.0776 61.5381 29.5885 61.5381C30.0466 61.5381 30.4475 61.6328 30.791 61.8219C31.1346 62.0081 31.4018 62.292 31.5927 62.6733C31.7836 63.0517 31.879 63.5306 31.879 64.11V68.4377H30.8395V64.1809C30.8395 63.6459 30.7014 63.2291 30.4254 62.9304C30.1494 62.629 29.7706 62.4781 29.289 62.4781C28.9572 62.4781 28.6606 62.5506 28.3993 62.6955C28.1409 62.8404 27.9367 63.0517 27.787 63.3295C27.6372 63.6075 27.5623 63.9444 27.5623 64.3406ZM36.6152 68.5796C35.9633 68.5796 35.401 68.4347 34.9282 68.1451C34.4583 67.8525 34.0956 67.4445 33.8402 66.9213C33.5877 66.395 33.4613 65.7831 33.4613 65.0855C33.4613 64.3878 33.5877 63.7729 33.8402 63.2409C34.0956 62.7058 34.451 62.2891 34.9061 61.9904C35.3642 61.6889 35.8987 61.5381 36.5094 61.5381C36.8618 61.5381 37.2098 61.5972 37.5534 61.7155C37.8969 61.8338 38.2097 62.0259 38.4915 62.292C38.7735 62.5551 38.9981 62.9038 39.1655 63.3384C39.3329 63.7729 39.4166 64.3081 39.4166 64.9437V65.3871H34.2014V64.4824H38.3595C38.3595 64.0982 38.283 63.7552 38.1304 63.4537C37.9806 63.1521 37.7663 62.9142 37.4873 62.7398C37.2112 62.5654 36.8853 62.4781 36.5094 62.4781C36.0954 62.4781 35.7372 62.5817 35.4346 62.7886C35.1352 62.9926 34.9046 63.2586 34.7432 63.5867C34.5816 63.9149 34.5009 64.2667 34.5009 64.642V65.2451C34.5009 65.7595 34.5891 66.1956 34.7651 66.5532C34.9443 66.908 35.1925 67.1785 35.5095 67.3647C35.8268 67.5479 36.1953 67.6396 36.6152 67.6396C36.8883 67.6396 37.1349 67.6012 37.3551 67.5243C37.5783 67.4445 37.7707 67.3262 37.9321 67.1696C38.0937 67.0099 38.2185 66.8119 38.3065 66.5754L39.3109 66.8591C39.2052 67.2021 39.0275 67.5036 38.7779 67.7637C38.5283 68.0209 38.22 68.2219 37.8529 68.3668C37.4858 68.5087 37.0733 68.5796 36.6152 68.5796ZM41.1388 68.4377V59.3565H44.2926C44.921 59.3565 45.4393 59.4659 45.8475 59.6847C46.2557 59.9005 46.5596 60.1917 46.7592 60.5582C46.9589 60.9218 47.0588 61.3253 47.0588 61.7687C47.0588 62.1589 46.9898 62.4811 46.8517 62.7354C46.7167 62.9897 46.5375 63.1907 46.3144 63.3384C46.0941 63.4862 45.8548 63.5955 45.5964 63.6666V63.7552C45.8724 63.7729 46.1499 63.8706 46.4288 64.048C46.7079 64.2252 46.9413 64.4794 47.1292 64.8106C47.3172 65.1416 47.4111 65.5466 47.4111 66.0255C47.4111 66.4809 47.3084 66.8902 47.1028 67.2539C46.8973 67.6174 46.5728 67.9056 46.1294 68.1185C45.686 68.3313 45.109 68.4377 44.3984 68.4377H41.1388ZM42.2312 67.4622H44.3984C45.1119 67.4622 45.6185 67.3232 45.9179 67.0454C46.2203 66.7646 46.3717 66.4246 46.3717 66.0255C46.3717 65.7181 46.2938 65.4344 46.1382 65.1742C45.9825 64.911 45.7609 64.7011 45.4731 64.5446C45.1853 64.3849 44.8447 64.3051 44.4512 64.3051H42.2312V67.4622ZM42.2312 63.3473H44.2574C44.5863 63.3473 44.8828 63.2823 45.1471 63.1521C45.4143 63.0221 45.6257 62.8388 45.7814 62.6024C45.94 62.3659 46.0192 62.088 46.0192 61.7687C46.0192 61.3696 45.8812 61.0311 45.6052 60.7533C45.3292 60.4725 44.8917 60.3321 44.2926 60.3321H42.2312V63.3473ZM50.1046 59.3565V68.4377H49.0651V59.3565H50.1046ZM53.9996 68.5974C53.5708 68.5974 53.1817 68.516 52.8323 68.3534C52.4828 68.188 52.2053 67.95 51.9997 67.6396C51.7941 67.3262 51.6914 66.9479 51.6914 66.5045C51.6914 66.1142 51.7677 65.7979 51.9205 65.5555C52.0732 65.3101 52.2772 65.118 52.5327 64.9791C52.7883 64.8401 53.0701 64.7367 53.3784 64.6686C53.6898 64.5977 54.0025 64.5416 54.3167 64.5002C54.7278 64.4469 55.0611 64.4071 55.3165 64.3805C55.5749 64.3508 55.7629 64.3022 55.8804 64.2341C56.0007 64.1661 56.0609 64.048 56.0609 63.8794V63.844C56.0609 63.4065 55.942 63.0665 55.7042 62.8241C55.4693 62.5817 55.1125 62.4604 54.6337 62.4604C54.1375 62.4604 53.7485 62.5699 53.4666 62.7886C53.1846 63.0074 52.9864 63.2409 52.8718 63.4892L51.8853 63.1344C52.0615 62.7207 52.2964 62.3984 52.59 62.1678C52.8865 61.9343 53.2096 61.7717 53.5591 61.6801C53.9114 61.5854 54.258 61.5381 54.5985 61.5381C54.8158 61.5381 55.0654 61.5647 55.3474 61.618C55.6322 61.6683 55.9068 61.7732 56.1711 61.9327C56.4382 62.0924 56.66 62.3334 56.8361 62.6555C57.0123 62.9778 57.1005 63.4094 57.1005 63.9503V68.4377H56.0609V67.5154H56.0081C55.9375 67.6633 55.8202 67.8214 55.6557 67.9899C55.4912 68.1584 55.2725 68.3018 54.9994 68.42C54.7262 68.5383 54.393 68.5974 53.9996 68.5974ZM54.158 67.6573C54.5692 67.6573 54.9157 67.576 55.1976 67.4134C55.4824 67.2509 55.6968 67.041 55.8407 66.7837C55.9876 66.5266 56.0609 66.2562 56.0609 65.9723V65.0146C56.0169 65.0677 55.9199 65.1166 55.7703 65.1609C55.6234 65.2022 55.4531 65.2392 55.2592 65.2717C55.0683 65.3013 54.8819 65.3279 54.6998 65.3515C54.5207 65.3723 54.3753 65.39 54.2638 65.4048C53.9936 65.4403 53.7411 65.4979 53.5061 65.5777C53.2742 65.6545 53.0862 65.7713 52.9424 65.928C52.8014 66.0817 52.731 66.2916 52.731 66.5577C52.731 66.9213 52.8646 67.1962 53.1318 67.3825C53.4019 67.5656 53.744 67.6573 54.158 67.6573ZM61.5526 68.5796C60.9887 68.5796 60.4909 68.4363 60.0593 68.1496C59.6276 67.8598 59.29 67.4518 59.0463 66.9257C58.8024 66.3966 58.6806 65.7713 58.6806 65.05C58.6806 64.3347 58.8024 63.7139 59.0463 63.1877C59.29 62.6614 59.6292 62.255 60.0638 61.9683C60.4984 61.6815 61.0005 61.5381 61.5702 61.5381C62.0107 61.5381 62.3586 61.6121 62.6141 61.7598C62.8725 61.9047 63.0692 62.0703 63.2043 62.2564C63.3423 62.4397 63.4495 62.5905 63.5258 62.7087H63.6139V59.3565H64.6535V68.4377H63.6492V67.3913H63.5258C63.4495 67.5154 63.3409 67.6721 63.1999 67.8613C63.0589 68.0476 62.8578 68.2146 62.5965 68.3624C62.3351 68.5072 61.987 68.5796 61.5526 68.5796ZM61.6934 67.6396C62.1104 67.6396 62.4629 67.5302 62.7506 67.3114C63.0383 67.0897 63.2572 66.7837 63.4068 66.3936C63.5566 66.0004 63.6315 65.5466 63.6315 65.0323C63.6315 64.5239 63.5582 64.0789 63.4113 63.6975C63.2644 63.3133 63.0471 63.0147 62.7594 62.8018C62.4717 62.586 62.1163 62.4781 61.6934 62.4781C61.253 62.4781 60.8859 62.592 60.5923 62.8196C60.3016 63.0442 60.0828 63.3502 59.936 63.7375C59.7921 64.1218 59.7201 64.5534 59.7201 65.0323C59.7201 65.5171 59.7936 65.9575 59.9404 66.3537C60.0902 66.7469 60.3104 67.0602 60.6011 67.2937C60.8948 67.5243 61.2588 67.6396 61.6934 67.6396ZM69.5382 68.5796C68.8863 68.5796 68.324 68.4347 67.8512 68.1451C67.3814 67.8525 67.0188 67.4445 66.7633 66.9213C66.5108 66.395 66.3845 65.7831 66.3845 65.0855C66.3845 64.3878 66.5108 63.7729 66.7633 63.2409C67.0188 62.7058 67.374 62.2891 67.8293 61.9904C68.2874 61.6889 68.8218 61.5381 69.4326 61.5381C69.7849 61.5381 70.133 61.5972 70.4765 61.7155C70.8201 61.8338 71.1328 62.0259 71.4147 62.292C71.6966 62.5551 71.9213 62.9038 72.0885 63.3384C72.256 63.7729 72.3397 64.3081 72.3397 64.9437V65.3871H67.1244V64.4824H71.2825C71.2825 64.0982 71.2062 63.7552 71.0535 63.4537C70.9038 63.1521 70.6894 62.9142 70.4104 62.7398C70.1344 62.5654 69.8085 62.4781 69.4326 62.4781C69.0185 62.4781 68.6602 62.5817 68.3578 62.7886C68.0583 62.9926 67.8278 63.2586 67.6662 63.5867C67.5048 63.9149 67.424 64.2667 67.424 64.642V65.2451C67.424 65.7595 67.5121 66.1956 67.6883 66.5532C67.8675 66.908 68.1155 67.1785 68.4327 67.3647C68.7498 67.5479 69.1183 67.6396 69.5382 67.6396C69.8114 67.6396 70.0581 67.6012 70.2783 67.5243C70.5015 67.4445 70.6938 67.3262 70.8553 67.1696C71.0169 67.0099 71.1416 66.8119 71.2297 66.5754L72.234 66.8591C72.1282 67.2021 71.9506 67.5036 71.701 67.7637C71.4515 68.0209 71.143 68.2219 70.7759 68.3668C70.409 68.5087 69.9963 68.5796 69.5382 68.5796Z" fill="white"/>
<defs>
<filter id="filter0_d_1118_10608" x="2.85906" y="2.1657" width="103.544" height="78.6256" filterUnits="userSpaceOnUse" color-interpolation-filters="sRGB">
<feFlood flood-opacity="0" result="BackgroundImageFix"/>
<feColorMatrix in="SourceAlpha" type="matrix" values="0 0 0 0 0 0 0 0 0 0 0 0 0 0 0 0 0 0 127 0" result="hardAlpha"/>
<feOffset/>
<feGaussianBlur stdDeviation="2.43375"/>
<feColorMatrix type="matrix" values="0 0 0 0 0.113725 0 0 0 0 0.113725 0 0 0 0 0.105882 0 0 0 0.35 0"/>
<feBlend mode="normal" in2="BackgroundImageFix" result="effect1_dropShadow_1118_10608"/>
<feBlend mode="normal" in="SourceGraphic" in2="effect1_dropShadow_1118_10608" result="shape"/>
</filter>
<linearGradient id="paint0_linear_1118_10608" x1="20.3624" y1="31.4474" x2="95.9179" y2="84.0023" gradientUnits="userSpaceOnUse">
<stop stop-color="#002C77"/>
<stop offset="0.17" stop-color="#00307C"/>
<stop offset="0.39" stop-color="#003B8D"/>
<stop offset="0.65" stop-color="#004EA8"/>
<stop offset="0.92" stop-color="#0069CD"/>
<stop offset="1" stop-color="#0072DA"/>
</linearGradient>
</defs>
</svg>
