<svg width="160" height="37" viewBox="0 0 160 37" fill="none" xmlns="http://www.w3.org/2000/svg">
<g clip-path="url(#clip0_1118_10630)">
<path d="M87.4746 22.748C87.4468 22.6334 87.3913 22.5475 87.3357 22.4615C87.308 22.4042 87.2801 22.3469 87.2524 22.261C87.0301 21.8599 86.8079 21.4875 86.5023 21.1438C86.169 20.7427 85.7801 20.3989 85.3634 20.0552C85.0856 19.826 84.7801 19.5968 84.4745 19.3963H84.4467C83.6967 18.938 82.8911 18.5656 82.0022 18.2791C80.3355 17.7921 78.6965 17.2764 77.0576 16.7322C75.5576 16.2452 74.8352 15.4717 74.8908 14.4404C74.9464 13.3805 75.8353 12.8648 77.5576 12.8648H88.1135V5.53125H77.3631C75.6686 5.53125 74.0853 5.78907 72.613 6.30471C70.9184 6.87765 69.5017 7.88029 68.3906 9.22669C67.2795 10.6017 66.6961 12.3205 66.585 14.3831C66.5017 16.1879 66.6961 17.7061 67.2239 18.9093C67.2517 19.0239 67.3072 19.1098 67.3627 19.1958C67.3906 19.2531 67.4183 19.3104 67.4461 19.3963C67.6684 19.7974 67.8906 20.1698 68.1961 20.5135C68.5295 20.9146 68.9184 21.2584 69.3351 21.6021C69.6128 21.8313 69.9185 22.0605 70.224 22.261H70.2518C71.0018 22.7193 71.8074 23.0918 72.6963 23.3782C74.363 23.8652 76.002 24.3809 77.641 24.9251C79.141 25.4121 79.8632 26.1856 79.8076 27.2169C79.7521 28.1622 79.0021 28.7065 77.5854 28.7638H66.6128V36.1261H77.5576C79.141 36.0974 80.6688 35.8682 82.0577 35.3526C83.7523 34.7797 85.169 33.777 86.2801 32.4306C87.3913 31.0556 87.9746 29.3368 88.0858 27.2742C88.1969 25.4408 87.9746 23.9512 87.4746 22.748Z" fill="white"/>
<path d="M122.699 6.67452C120.92 7.41934 119.338 8.47927 117.948 9.85432C116.559 11.2294 115.476 12.8336 114.699 14.6956C113.92 16.5577 113.504 18.5916 113.504 20.7401C113.504 20.7974 113.504 20.8261 113.504 20.8833V36.0948H121.532V34.3474V20.8547C121.532 20.8261 121.532 20.7974 121.532 20.7688C121.532 19.4796 121.837 18.2765 122.477 17.1879C123.087 16.0993 123.92 15.2399 124.976 14.581C125.837 14.0368 126.754 13.7216 127.698 13.6357V5.58594C125.976 5.64323 124.337 6.01565 122.699 6.67452Z" fill="white"/>
<path d="M102.532 13.1202H109.838V5.81531H102.504V0H94.6151V5.81531H91.7539V13.1202H94.6151V21.5997L94.6429 21.657C94.7262 24.2639 95.3929 26.6415 96.6429 28.7901C97.9764 31.0532 99.7538 32.8579 102.004 34.1757C102.171 34.2616 102.338 34.3475 102.504 34.4335C104.616 35.5507 106.81 36.1236 109.172 36.1236C109.394 36.1236 109.616 36.1236 109.838 36.095V28.1598C109.616 28.1885 109.394 28.1885 109.172 28.1885C107.393 28.1885 105.838 27.501 104.532 26.0973C103.199 24.6936 102.56 23.032 102.56 21.0841V21.0554H102.532V13.1202Z" fill="white"/>
<path d="M0.111114 20.7688C0.111114 18.5916 0.500017 16.5863 1.3056 14.7243C2.0834 12.8622 3.16678 11.258 4.55571 9.85432C5.97242 8.45063 7.55581 7.39069 9.30588 6.70317C11.1115 5.95835 12.9727 5.58594 14.8894 5.58594C16.7784 5.58594 18.6395 5.95835 20.4452 6.70317C22.223 7.44799 23.8064 8.50791 25.1953 9.88296C26.5842 11.258 27.6676 12.8622 28.4454 14.7243C29.1677 16.4144 29.5566 18.2478 29.6121 20.1958V20.5969C29.6121 20.6542 29.6121 20.7115 29.6121 20.7688C29.6121 20.826 29.6121 20.8547 29.6121 20.912V36.1235H21.5841V34.376V20.8833C21.5841 20.8547 21.5841 20.826 21.5841 20.7974C21.5841 19.5083 21.2785 18.3051 20.6396 17.2165C20.0285 16.128 19.1952 15.2686 18.1395 14.6097C17.1117 13.9508 16.0006 13.6357 14.8338 13.6357C13.6394 13.6357 12.5282 13.9508 11.5004 14.6097C10.4725 15.2686 9.63922 16.128 9.00031 17.2165C8.38918 18.3051 8.05584 19.5083 8.05584 20.7974C8.05584 20.826 8.05584 20.8833 8.05584 20.912V34.4046H8.02805V36.1521H0V20.912C0.111115 20.826 0.111114 20.7974 0.111114 20.7688Z" fill="white"/>
<path d="M159.729 20.3963C159.701 18.3338 159.284 16.4431 158.535 14.6383C157.757 12.7763 156.673 11.1434 155.256 9.71109C153.839 8.30739 152.229 7.24746 150.45 6.53129C148.618 5.78647 146.756 5.41406 144.812 5.41406C142.895 5.41406 141.034 5.78647 139.201 6.53129C137.394 7.2761 135.812 8.33603 134.395 9.73973C133.006 11.1148 131.922 12.7476 131.117 14.6383C130.312 16.529 129.922 18.5343 129.922 20.7401C129.922 23.6334 130.617 26.2689 131.978 28.618C133.339 30.9384 135.145 32.7718 137.451 34.1182C139.756 35.4646 142.2 36.1235 144.784 36.1235C146.756 36.1235 148.645 35.751 150.423 34.9776C150.84 34.8057 151.229 34.6338 151.618 34.4333V35.9802H159.701L159.729 20.3963ZM149.617 25.8679C148.284 27.3002 146.701 28.0164 144.84 28.0164C143.006 28.0164 141.422 27.3002 140.089 25.8679C138.729 24.4355 138.062 22.7167 138.062 20.7401C138.062 19.451 138.367 18.2478 139.006 17.1306C139.645 16.042 140.478 15.154 141.506 14.4951C142.562 13.8362 143.673 13.5211 144.84 13.5211C146.034 13.5211 147.145 13.8362 148.201 14.4951C149.257 15.154 150.09 16.0134 150.701 17.1306C151.34 18.2192 151.645 19.4224 151.645 20.7401C151.645 22.7167 150.951 24.4355 149.617 25.8679Z" fill="white"/>
<path d="M38.781 26.5056C41.8033 26.5056 44.2534 23.979 44.2534 20.8622C44.2534 17.7454 41.8033 15.2188 38.781 15.2188C35.7586 15.2188 33.3086 17.7454 33.3086 20.8622C33.3086 23.979 35.7586 26.5056 38.781 26.5056Z" fill="white"/>
<path d="M57.445 26.5056C60.4674 26.5056 62.9174 23.979 62.9174 20.8622C62.9174 17.7454 60.4674 15.2188 57.445 15.2188C54.4227 15.2188 51.9727 17.7454 51.9727 20.8622C51.9727 23.979 54.4227 26.5056 57.445 26.5056Z" fill="white"/>
<path d="M48.113 36.1306C51.1354 36.1306 53.5854 33.604 53.5854 30.4872C53.5854 27.3704 51.1354 24.8438 48.113 24.8438C45.0907 24.8438 42.6406 27.3704 42.6406 30.4872C42.6406 33.604 45.0907 36.1306 48.113 36.1306Z" fill="white"/>
<path d="M48.113 16.904C51.1354 16.904 53.5854 14.3774 53.5854 11.2606C53.5854 8.14384 51.1354 5.61719 48.113 5.61719C45.0907 5.61719 42.6406 8.14384 42.6406 11.2606C42.6406 14.3774 45.0907 16.904 48.113 16.904Z" fill="white"/>
</g>
<defs>
<clipPath id="clip0_1118_10630">
<rect width="160" height="37" fill="white"/>
</clipPath>
</defs>
</svg>
