<svg width="1057" height="508" viewBox="0 0 1057 508" fill="none" xmlns="http://www.w3.org/2000/svg">
<g filter="url(#filter0_b_811_10515)">
<mask id="path-1-inside-1_811_10515" fill="white">
<path fill-rule="evenodd" clip-rule="evenodd" d="M969 8.17494C969 3.66004 965.34 0 960.825 0H90.1749C85.66 0 82 3.66004 82 8.17494V64.8251C82 69.34 78.34 73 73.8251 73H8.17495C3.66006 73 0 76.66 0 81.1749V499.825C0 504.34 3.66001 508 8.1749 508H1048.83C1053.34 508 1057 504.34 1057 499.825V81.1749C1057 76.66 1053.34 73 1048.83 73H977.175C972.66 73 969 69.34 969 64.8251V8.17494Z"/>
</mask>
<path fill-rule="evenodd" clip-rule="evenodd" d="M969 8.17494C969 3.66004 965.34 0 960.825 0H90.1749C85.66 0 82 3.66004 82 8.17494V64.8251C82 69.34 78.34 73 73.8251 73H8.17495C3.66006 73 0 76.66 0 81.1749V499.825C0 504.34 3.66001 508 8.1749 508H1048.83C1053.34 508 1057 504.34 1057 499.825V81.1749C1057 76.66 1053.34 73 1048.83 73H977.175C972.66 73 969 69.34 969 64.8251V8.17494Z" fill="#050607" fill-opacity="0.53"/>
<path d="M960.825 -0.681245H90.1749V0.681245H960.825V-0.681245ZM81.3188 8.17494V64.8251H82.6812V8.17494H81.3188ZM81.3188 64.8251C81.3188 68.9637 77.9637 72.3188 73.8251 72.3188V73.6812C78.7162 73.6812 82.6812 69.7162 82.6812 64.8251H81.3188ZM73.8251 72.3188H8.17495V73.6812H73.8251V72.3188ZM-0.681245 81.1749V499.825H0.681245V81.1749H-0.681245ZM-0.681245 499.825C-0.681245 504.716 3.28377 508.681 8.1749 508.681V507.319C4.03625 507.319 0.681245 503.964 0.681245 499.825H-0.681245ZM8.1749 508.681H1048.83V507.319H8.1749V508.681ZM1048.83 508.681C1053.72 508.681 1057.68 504.716 1057.68 499.825H1056.32C1056.32 503.964 1052.96 507.319 1048.83 507.319V508.681ZM1057.68 499.825V81.1749H1056.32V499.825H1057.68ZM1048.83 72.3188H977.175V73.6812H1048.83V72.3188ZM977.175 72.3188C973.036 72.3188 969.681 68.9637 969.681 64.8251H968.319C968.319 69.7162 972.284 73.6812 977.175 73.6812V72.3188ZM969.681 64.8251V8.17494H968.319V64.8251H969.681ZM1057.68 81.1749C1057.68 76.2838 1053.72 72.3188 1048.83 72.3188V73.6812C1052.96 73.6812 1056.32 77.0363 1056.32 81.1749H1057.68ZM8.17495 72.3188C3.28382 72.3188 -0.681245 76.2838 -0.681245 81.1749H0.681245C0.681245 77.0363 4.0363 73.6812 8.17495 73.6812V72.3188ZM90.1749 -0.681245C85.2838 -0.681245 81.3188 3.2838 81.3188 8.17494H82.6812C82.6812 4.03628 86.0363 0.681245 90.1749 0.681245V-0.681245ZM960.825 0.681245C964.964 0.681245 968.319 4.03628 968.319 8.17494H969.681C969.681 3.2838 965.716 -0.681245 960.825 -0.681245V0.681245Z" fill="url(#paint0_linear_811_10515)" mask="url(#path-1-inside-1_811_10515)"/>
</g>
<defs>
<filter id="filter0_b_811_10515" x="-62.1976" y="-62.1976" width="1181.4" height="632.395" filterUnits="userSpaceOnUse" color-interpolation-filters="sRGB">
<feFlood flood-opacity="0" result="BackgroundImageFix"/>
<feGaussianBlur in="BackgroundImageFix" stdDeviation="31.0988"/>
<feComposite in2="SourceAlpha" operator="in" result="effect1_backgroundBlur_811_10515"/>
<feBlend mode="normal" in="SourceGraphic" in2="effect1_backgroundBlur_811_10515" result="shape"/>
</filter>
<linearGradient id="paint0_linear_811_10515" x1="0" y1="0" x2="196.163" y2="737.095" gradientUnits="userSpaceOnUse">
<stop stop-color="white" stop-opacity="0.16"/>
<stop offset="1" stop-color="white" stop-opacity="0.02"/>
</linearGradient>
</defs>
</svg>
