<svg width="465" height="351" viewBox="0 0 465 351" fill="none" xmlns="http://www.w3.org/2000/svg">
<path fill-rule="evenodd" clip-rule="evenodd" d="M559.418 36.2124L548.309 53.8362L500.248 23.7289L470.006 71.7047L455.224 75.0779L407.164 44.9706L376.921 92.9464L362.539 96.2284L314.479 66.1211L284.236 114.097L283.633 113.719L281.725 116.745L233.664 86.6381L203.422 134.614L188.64 137.987L140.58 107.88L110.337 155.856L95.9553 159.138L47.8947 129.03L17.6525 177.006L-0.00241302 165.946L35.7945 109.159L50.9756 105.694L98.5458 135.494L128.479 88.0081L143.661 84.5438L191.231 114.344L221.164 66.8576L236.345 63.3933L275.829 88.3664L302.378 46.2494L317.56 42.7851L365.13 72.5852L395.063 25.0989L410.245 21.6346L457.815 51.4347L487.748 3.94839L502.929 0.484094L559.418 36.2124ZM294.889 174.441L296.797 171.414L297.4 171.792L327.643 123.817L375.703 153.924L390.085 150.642L420.328 102.666L468.388 132.773L483.17 129.4L513.412 81.4244L561.473 111.532L572.582 93.9079L516.093 58.1795L500.912 61.6438L470.979 109.13L423.409 79.33L408.227 82.7943L378.294 130.281L330.724 100.481L315.542 103.945L288.993 146.062L249.509 121.089L234.328 124.553L204.395 172.039L156.825 142.239L141.643 145.704L111.71 193.19L64.1396 163.39L48.9585 166.854L13.1616 223.642L30.8165 234.702L61.0587 186.726L109.119 216.833L123.501 213.551L153.744 165.575L201.804 195.682L216.586 192.309L246.828 144.334L294.889 174.441ZM328.822 162.134L302.273 204.251L262.789 179.278L247.608 182.742L217.674 230.229L170.104 200.429L154.923 203.893L124.989 251.379L77.419 221.579L62.2378 225.043L26.4409 281.831L44.0959 292.891L74.3381 244.915L122.399 275.022L136.781 271.74L167.023 223.765L215.084 253.872L229.865 250.499L260.107 202.523L308.168 232.63L310.076 229.603L310.68 229.982L340.922 182.006L388.983 212.113L403.365 208.831L433.607 160.855L481.668 190.963L496.449 187.589L526.691 139.614L574.752 169.721L585.861 152.097L529.373 116.369L514.192 119.833L484.258 167.319L436.688 137.519L421.507 140.984L391.573 188.47L344.003 158.67L328.822 162.134ZM323.246 287.318L321.338 290.345L273.277 260.238L243.035 308.214L228.254 311.587L180.193 281.48L149.951 329.455L135.569 332.737L87.5081 302.63L57.2659 350.606L39.6109 339.546L75.4078 282.758L90.589 279.294L138.159 309.094L168.093 261.608L183.274 258.144L230.844 287.944L260.778 240.457L275.959 236.993L315.443 261.966L341.992 219.849L357.173 216.385L404.743 246.185L434.677 198.699L449.858 195.234L497.428 225.034L527.362 177.548L542.543 174.084L599.031 209.812L587.922 227.436L539.861 197.329L509.619 245.305L494.838 248.678L446.777 218.57L416.535 266.546L402.153 269.828L354.092 239.721L323.85 287.697L323.246 287.318Z" fill="#E7327C"/>
</svg>
