<svg width="211" height="294" viewBox="0 0 211 294" fill="none" xmlns="http://www.w3.org/2000/svg">
<path fill-rule="evenodd" clip-rule="evenodd" d="M177.28 30.5858L168.004 45.3011L127.875 20.1625L102.624 60.2207L90.2816 63.0371L50.1526 37.8986L24.9014 77.9568L12.8928 80.6971L-27.2362 55.5586L-52.4873 95.6167L-52.9925 95.3002L-54.5849 97.8265L-94.7139 72.6879L-119.965 112.746L-132.307 115.563L-172.436 90.424L-197.687 130.482L-209.696 133.222L-249.825 108.084L-275.076 148.142L-289.817 138.908L-259.928 91.4917L-247.253 88.5992L-207.533 113.481L-182.54 73.8318L-169.864 70.9392L-130.144 95.8212L-105.151 56.1718L-92.475 53.2793L-59.5063 74.1316L-37.3394 38.9664L-24.6637 36.0738L15.0558 60.9558L40.0494 21.3064L52.7251 18.4138L92.4446 43.2959L117.438 3.64645L130.114 0.753872L177.28 30.5858ZM-43.5937 146L-42.0009 143.473L-41.4952 143.79L-16.244 103.732L23.885 128.871L35.8936 126.13L61.1448 86.0722L101.274 111.211L113.616 108.394L138.867 68.3361L178.996 93.4746L188.272 78.7594L141.106 48.9275L128.43 51.82L103.437 91.4694L63.7173 66.5874L51.0415 69.48L26.048 109.129L-13.6715 84.2474L-26.3472 87.1399L-48.5145 122.306L-81.4838 101.453L-94.1595 104.346L-119.153 143.995L-158.873 119.113L-171.548 122.006L-196.542 161.655L-236.261 136.773L-248.937 139.666L-278.826 187.081L-264.085 196.316L-238.834 156.258L-198.705 181.396L-186.696 178.656L-161.445 138.598L-121.316 163.736L-108.974 160.92L-83.7227 120.862L-43.5937 146ZM-15.2593 135.726L-37.4261 170.891L-70.3949 150.039L-83.0706 152.931L-108.064 192.581L-147.784 167.699L-160.459 170.591L-185.453 210.241L-225.172 185.359L-237.848 188.251L-267.737 235.667L-252.996 244.902L-227.745 204.844L-187.616 229.982L-175.607 227.242L-150.356 187.184L-110.227 212.322L-97.885 209.506L-72.6338 169.448L-32.5048 194.586L-30.9124 192.06L-30.4073 192.376L-5.15606 152.318L34.9729 177.457L46.9815 174.717L72.2327 134.658L112.362 159.797L124.704 156.98L149.955 116.922L190.084 142.061L199.36 127.346L152.194 97.5136L139.518 100.406L114.525 140.056L74.8052 115.174L62.1294 118.066L37.1359 157.716L-2.58361 132.834L-15.2593 135.726ZM-19.9166 240.25L-21.5088 242.776L-61.6377 217.638L-86.8889 257.696L-99.2311 260.512L-139.36 235.374L-164.611 275.432L-176.62 278.172L-216.749 253.034L-242 293.092L-256.741 283.857L-226.852 236.441L-214.176 233.549L-174.457 258.431L-149.463 218.782L-136.788 215.889L-97.0681 240.771L-72.0746 201.122L-59.3988 198.229L-26.4299 219.081L-4.26327 183.917L8.4125 181.024L48.132 205.906L73.1255 166.257L85.8013 163.364L125.521 188.246L150.514 148.597L163.19 145.704L210.356 175.536L201.08 190.251L160.951 165.113L135.7 205.171L123.358 207.987L83.2288 182.849L57.9776 222.907L45.969 225.647L5.84002 200.509L-19.4112 240.567L-19.9166 240.25Z" fill="#DBFD67"/>
</svg>
