<svg width="353" height="294" viewBox="0 0 353 294" fill="none" xmlns="http://www.w3.org/2000/svg">
<path fill-rule="evenodd" clip-rule="evenodd" d="M467.28 30.5858L458.004 45.3011L417.875 20.1625L392.624 60.2207L380.282 63.0371L340.153 37.8986L314.901 77.9568L302.893 80.6971L262.764 55.5586L237.513 95.6167L237.007 95.3002L235.415 97.8265L195.286 72.6879L170.035 112.746L157.693 115.563L117.564 90.424L92.3126 130.482L80.304 133.222L40.175 108.084L14.9238 148.142L0.182536 138.908L30.0717 91.4917L42.7475 88.5992L82.467 113.481L107.46 73.8318L120.136 70.9392L159.856 95.8212L184.849 56.1718L197.525 53.2793L230.494 74.1316L252.661 38.9664L265.336 36.0738L305.056 60.9558L330.049 21.3064L342.725 18.4138L382.445 43.2959L407.438 3.64645L420.114 0.753872L467.28 30.5858ZM246.406 146L247.999 143.473L248.505 143.79L273.756 103.732L313.885 128.871L325.894 126.13L351.145 86.0722L391.274 111.211L403.616 108.394L428.867 68.3361L468.996 93.4746L478.272 78.7594L431.106 48.9275L418.43 51.82L393.437 91.4694L353.717 66.5874L341.042 69.48L316.048 109.129L276.328 84.2474L263.653 87.1399L241.486 122.306L208.516 101.453L195.84 104.346L170.847 143.995L131.127 119.113L118.452 122.006L93.4582 161.655L53.7387 136.773L41.0629 139.666L11.1737 187.081L25.915 196.316L51.1662 156.258L91.2952 181.396L103.304 178.656L128.555 138.598L168.684 163.736L181.026 160.92L206.277 120.862L246.406 146ZM274.741 135.726L252.574 170.891L219.605 150.039L206.929 152.931L181.936 192.581L142.216 167.699L129.541 170.591L104.547 210.241L64.8276 185.359L52.1518 188.251L22.2627 235.667L37.0039 244.902L62.2551 204.844L102.384 229.982L114.393 227.242L139.644 187.184L179.773 212.322L192.115 209.506L217.366 169.448L257.495 194.586L259.088 192.06L259.593 192.376L284.844 152.318L324.973 177.457L336.981 174.717L362.233 134.658L402.362 159.797L414.704 156.98L439.955 116.922L480.084 142.061L489.36 127.346L442.194 97.5136L429.518 100.406L404.525 140.056L364.805 115.174L352.129 118.066L327.136 157.716L287.416 132.834L274.741 135.726ZM270.083 240.25L268.491 242.776L228.362 217.638L203.111 257.696L190.769 260.512L150.64 235.374L125.389 275.432L113.38 278.172L73.2512 253.034L48 293.092L33.2587 283.857L63.1479 236.441L75.8236 233.549L115.543 258.431L140.537 218.782L153.212 215.889L192.932 240.771L217.925 201.122L230.601 198.229L263.57 219.081L285.737 183.917L298.412 181.024L338.132 205.906L363.126 166.257L375.801 163.364L415.521 188.246L440.514 148.597L453.19 145.704L500.356 175.536L491.08 190.251L450.951 165.113L425.7 205.171L413.358 207.987L373.229 182.849L347.978 222.907L335.969 225.647L295.84 200.509L270.589 240.567L270.083 240.25Z" fill="#DBFD67"/>
</svg>
