<svg width="51" height="51" viewBox="0 0 51 51" fill="none" xmlns="http://www.w3.org/2000/svg">
<path d="M25.0088 50.4766C38.8207 50.4766 50.0175 39.2837 50.0175 25.4766C50.0175 11.6694 38.8207 0.476562 25.0088 0.476562C11.1968 0.476562 0 11.6694 0 25.4766C0 39.2837 11.1968 50.4766 25.0088 50.4766Z" fill="#B4B4B4" fill-opacity="0.2"/>
<path d="M15.2344 31.3713C17.2891 31.6058 19.3544 31.0304 20.9915 29.7672C19.9264 29.6888 18.9316 29.206 18.2111 28.4178C17.8187 27.9962 17.5278 27.4905 17.3608 26.9393C17.9182 27.0175 18.4851 26.9963 19.0352 26.8769C18.1486 26.656 17.3623 26.1428 16.8034 25.4202C16.2445 24.6975 15.9456 23.8076 15.9549 22.8942C16.5008 23.1571 17.091 23.3156 17.6952 23.3616C16.8699 22.771 16.2915 21.8969 16.0708 20.9066C15.8531 19.9151 16.0149 18.878 16.5243 17.9999C17.5344 19.2343 18.7902 20.2453 20.212 20.9687C21.6338 21.6921 23.1905 22.112 24.7834 22.2018C24.753 21.9793 24.716 21.7813 24.7012 21.5817C24.6301 20.5318 24.9718 19.4955 25.6534 18.6936C26.335 17.8916 27.3029 17.3872 28.3509 17.2878C28.9263 17.2264 29.5081 17.293 30.0547 17.4829C30.6013 17.6727 31.0991 17.9811 31.5125 18.3859C31.5623 18.4383 31.6259 18.4756 31.696 18.4933C31.7661 18.5111 31.8398 18.5086 31.9085 18.4861C32.6342 18.3164 33.3333 18.0483 33.9864 17.6894C34.0415 17.659 34.099 17.6303 34.1557 17.6073H34.2231C33.9401 18.4715 33.3846 19.2208 32.6398 19.7427C33.3621 19.6433 34.0717 19.4665 34.7563 19.2154C34.6163 19.4283 34.4621 19.6313 34.2945 19.8232C33.8467 20.2774 33.3817 20.7144 32.9126 21.1497C32.8658 21.1834 32.8283 21.2283 32.8033 21.2802C32.7783 21.3322 32.7668 21.3895 32.7696 21.447C32.83 23.5963 32.2823 25.719 31.1896 27.571C30.2242 29.3029 28.8066 30.7404 27.088 31.7302C25.6021 32.5747 23.9418 33.0662 22.2355 33.1668C20.7915 33.2743 19.3402 33.1122 17.9556 32.6887C17.0347 32.4057 16.1547 32.0037 15.3379 31.4929C15.3026 31.4715 15.2722 31.4444 15.2377 31.4214L15.2344 31.3713Z" fill="#EA337D"/>
</svg>
