<svg width="51" height="50" viewBox="0 0 51 50" fill="none" xmlns="http://www.w3.org/2000/svg">
<path d="M25.0088 50C38.8207 50 50.0175 38.8071 50.0175 25C50.0175 11.1929 38.8207 0 25.0088 0C11.1968 0 0 11.1929 0 25C0 38.8071 11.1968 50 25.0088 50Z" fill="#1E1F20"/>
<path d="M15.2344 30.8967C17.2891 31.1312 19.3544 30.5558 20.9915 29.2926C19.9264 29.2142 18.9316 28.7314 18.2111 27.9431C17.8187 27.5216 17.5278 27.0159 17.3608 26.4647C17.9182 26.5429 18.4851 26.5217 19.0352 26.4023C18.1486 26.1814 17.3623 25.6682 16.8034 24.9456C16.2445 24.2229 15.9456 23.333 15.9549 22.4196C16.5008 22.6825 17.091 22.841 17.6952 22.887C16.8699 22.2964 16.2915 21.4223 16.0708 20.432C15.8531 19.4405 16.0149 18.4034 16.5243 17.5252C17.5344 18.7597 18.7902 19.7707 20.212 20.4941C21.6338 21.2175 23.1905 21.6374 24.7834 21.7272C24.753 21.5047 24.716 21.3067 24.7012 21.1071C24.6301 20.0572 24.9718 19.0209 25.6534 18.219C26.335 17.417 27.3029 16.9126 28.3509 16.8131C28.9263 16.7518 29.5081 16.8184 30.0547 17.0083C30.6013 17.1981 31.0991 17.5065 31.5125 17.9113C31.5623 17.9637 31.6259 18.001 31.696 18.0187C31.7661 18.0365 31.8398 18.034 31.9085 18.0115C32.6342 17.8418 33.3333 17.5737 33.9864 17.2148C34.0415 17.1844 34.099 17.1556 34.1557 17.1326H34.2231C33.9401 17.9969 33.3846 18.7461 32.6398 19.2681C33.3621 19.1687 34.0717 18.9919 34.7563 18.7408C34.6163 18.9537 34.4621 19.1567 34.2945 19.3486C33.8467 19.8028 33.3817 20.2398 32.9126 20.6751C32.8658 20.7088 32.8283 20.7537 32.8033 20.8056C32.7783 20.8575 32.7668 20.9149 32.7696 20.9724C32.83 23.1217 32.2823 25.2444 31.1896 27.0963C30.2242 28.8283 28.8066 30.2658 27.088 31.2556C25.6021 32.1001 23.9418 32.5916 22.2355 32.6921C20.7915 32.7997 19.3402 32.6376 17.9556 32.2141C17.0347 31.9311 16.1547 31.5291 15.3379 31.0183C15.3026 30.9969 15.2722 30.9698 15.2377 30.9468L15.2344 30.8967Z" fill="white"/>
</svg>
