<svg width="168" height="24" viewBox="0 0 168 24" fill="none" xmlns="http://www.w3.org/2000/svg">
<path d="M64.9989 0.976562H65.8209C70.3113 1.12742 74.5432 3.89731 76.3037 7.85183C77.9246 11.3513 77.542 15.6199 75.2877 18.788C73.3825 21.5603 70.1562 23.4547 66.7051 23.8133C63.3159 24.2066 59.7846 23.1184 57.2745 20.9049C54.7772 18.7632 53.3115 15.5704 53.3606 12.3603C53.3528 9.03893 54.9737 5.76699 57.6467 3.65495C59.6864 1.99301 62.3284 1.07054 64.9989 0.976562ZM63.4917 5.08936C60.2862 5.82635 57.8535 8.7199 57.6622 11.8509C57.383 14.8161 59.1022 17.8531 61.8864 19.1985C64.4922 20.5241 67.8839 20.1581 70.1355 18.3403C72.9973 16.1467 73.8504 11.9918 72.1287 8.90538C70.6138 5.93516 66.8498 4.21635 63.4917 5.08936Z" fill="white"/>
<path d="M0.0273438 1.64942C1.3044 1.40706 2.62024 1.52824 3.91281 1.54555C4.28765 1.48867 4.30316 1.96351 4.31092 2.20093C4.31351 7.07544 4.30833 11.9524 4.31092 16.8269C8.39544 11.9598 12.4619 7.08039 16.5309 2.20587C16.8101 1.88684 17.1358 1.51587 17.6166 1.53813C19.1987 1.49114 20.786 1.51587 22.3707 1.5505C22.0243 2.332 21.3987 2.94039 20.8584 3.59576C15.5382 9.96652 10.2128 16.3348 4.89516 22.708C4.63148 22.9875 4.34453 23.3461 3.90247 23.3263C2.61248 23.3955 1.31733 23.356 0.0273438 23.2991V1.64942Z" fill="white"/>
<path d="M28.1254 3.13546C28.6786 2.45782 29.2809 1.62933 30.2633 1.55513C31.3594 1.49578 32.4632 1.48589 33.5593 1.55513C33.9083 1.7332 33.7765 2.14868 33.8153 2.4504C33.8023 8.55406 33.8127 14.6577 33.8101 20.7638C33.7998 21.6171 33.8721 22.4777 33.717 23.3235C32.4839 23.3557 31.2508 23.3705 30.0177 23.3384C29.5653 23.3755 29.2292 23.0515 28.9733 22.7448C27.0164 20.4028 25.0723 18.0558 23.0999 15.7261C21.1584 18.0459 19.217 20.3681 17.2833 22.6929C17.0274 22.9723 16.7508 23.3334 16.3139 23.326C14.7266 23.3853 13.1367 23.3408 11.5469 23.3384C11.5029 22.9427 11.839 22.6657 12.0536 22.3714C17.4203 15.966 22.7716 9.55072 28.1254 3.13546ZM25.4808 12.4294C26.8251 14.0444 28.1693 15.6569 29.5214 17.2669C29.5188 14.0493 29.5317 10.8343 29.5136 7.61675C28.1564 9.21191 26.8302 10.8293 25.4808 12.4294Z" fill="white"/>
<path d="M38.9493 2.47805C39.0035 2.16643 38.8122 1.58031 39.3138 1.54568C40.6167 1.56547 41.9764 1.35031 43.2458 1.6817C43.2328 7.6073 43.2406 13.5329 43.2406 19.4585C46.5392 19.4832 49.8379 19.409 53.1313 19.5005C52.7048 20.4601 51.8491 21.155 51.2338 21.9984C50.7246 22.5425 50.3084 23.4303 49.4061 23.3462C45.9395 23.3215 42.4702 23.4204 39.0087 23.2943C38.8795 16.3572 38.9958 9.41514 38.9493 2.47805Z" fill="white"/>
<path d="M81.1385 2.72491C81.1772 2.29706 80.9627 1.46362 81.6813 1.52792C87.3841 1.50814 93.0896 1.52792 98.7924 1.51803C99.0819 1.49825 99.617 1.55513 99.5291 1.96319C99.5214 3.58803 99.6325 5.23018 99.4671 6.84513C97.7376 9.18717 95.7316 11.3487 93.8961 13.619C96.3391 16.5398 98.7691 19.4704 101.225 22.3813C101.45 22.6657 101.724 22.9525 101.739 23.3309C100.152 23.3507 98.5649 23.3755 96.9776 23.3309C96.3934 23.326 96.0883 22.7745 95.7471 22.4085C93.3429 19.4481 90.7914 16.5917 88.4596 13.5794C90.7061 10.8417 93.0042 8.14351 95.2585 5.41319C91.9831 5.41072 88.7077 5.40825 85.4324 5.41567C85.3962 11.3734 85.4996 17.3336 85.3807 23.2889C83.9899 23.3878 82.5887 23.3903 81.1979 23.2889C81.0712 16.4359 81.1902 9.5804 81.1385 2.72491Z" fill="white"/>
<path d="M105.303 2.19382C105.27 1.92178 105.363 1.46672 105.756 1.53597C106.994 1.53844 108.25 1.43952 109.478 1.59285C110.096 1.8921 110.427 2.53016 110.874 3.00995C116.233 9.42027 121.582 15.838 126.949 22.2409C127.202 22.5748 127.577 22.8864 127.566 23.3365C125.992 23.3464 124.413 23.3785 122.838 23.3316C122.394 23.3538 122.099 22.9977 121.84 22.7083C119.904 20.3762 117.955 18.0515 116.011 15.7242C114.046 18.0515 112.1 20.3984 110.148 22.738C109.889 23.0397 109.561 23.3711 109.114 23.339C107.987 23.3637 106.854 23.3687 105.727 23.3316C105.231 23.3983 105.324 22.7899 105.301 22.5055C105.308 15.7341 105.301 8.96274 105.303 2.19382ZM109.587 7.60747C109.579 10.8275 109.584 14.0475 109.584 17.265C110.941 15.6599 112.286 14.045 113.633 12.4301C112.273 10.8299 110.947 9.20511 109.587 7.60747Z" fill="white"/>
<path d="M124.347 1.69363C124.96 1.33502 125.764 1.5947 126.452 1.51803C127.295 1.60459 128.398 1.2361 129.003 1.98793C133.15 6.92674 137.273 11.8853 141.415 16.8316C141.443 11.7963 141.355 6.7561 141.456 1.72578C141.526 1.68126 141.66 1.59223 141.73 1.54771C142.914 1.49578 144.108 1.50072 145.295 1.54277C145.83 1.52793 145.657 2.1561 145.703 2.47266C145.659 9.41223 145.771 16.3543 145.649 23.2889C144.421 23.3952 143.188 23.3507 141.957 23.3433C141.492 23.3804 141.133 23.0836 140.874 22.7547C136.777 17.8505 132.69 12.9414 128.582 8.04459C128.551 11.0791 128.636 14.1161 128.538 17.1481C128.189 17.0566 127.933 16.8316 127.729 16.562C126.71 15.3057 125.648 14.0815 124.624 12.8276C124.185 12.3528 124.309 11.69 124.285 11.1088C124.337 7.9704 124.21 4.82707 124.347 1.69363Z" fill="white"/>
<path d="M148.714 1.73571C148.942 1.4513 149.366 1.5527 149.692 1.51313C153.916 1.52302 158.14 1.5255 162.364 1.51313C163.01 1.57001 163.796 1.35732 164.339 1.79259C165.303 2.78679 166.136 3.89722 167.025 4.95324V5.40582C164.473 5.42066 161.922 5.40334 159.37 5.41571C159.345 11.3809 159.448 17.346 159.339 23.3087C157.938 23.3656 156.532 23.3928 155.133 23.2914C155.058 17.3337 155.113 11.3735 155.082 5.41324C153.037 5.37614 150.987 5.47506 148.947 5.37367C148.888 5.31679 148.771 5.20549 148.714 5.14861C148.627 4.01592 148.637 2.8684 148.714 1.73571Z" fill="white"/>
</svg>
