<svg width="101" height="68" viewBox="0 0 101 68" fill="none" xmlns="http://www.w3.org/2000/svg">
<path d="M24.2296 1.00242C24.5357 0.819925 24.7307 1.18877 24.8958 1.38285C35.5199 14.6738 46.1566 27.9551 56.7797 41.2461C56.9979 41.4354 56.8328 41.8399 56.5383 41.7965C51.4517 41.8023 46.3642 41.7984 41.2776 41.7984C40.8701 41.8032 40.48 41.6005 40.2299 41.2828C34.9522 34.689 29.6773 28.0922 24.3995 21.4975C24.1755 21.231 24.0597 20.8863 24.0741 20.5396C24.0741 14.1688 24.0761 7.79708 24.0722 1.4263C24.0751 1.27567 24.0693 1.08063 24.2296 1.00242Z" fill="black"/>
<path d="M73.3663 0.971852C73.5836 0.889779 73.823 1.09062 73.7912 1.31849C73.7989 7.69217 73.7902 14.0659 73.795 20.4395C73.8095 20.8007 73.7303 21.1743 73.4957 21.4582C71.8919 23.4646 70.2862 25.4701 68.6824 27.4756C68.4149 27.8232 67.9775 28.0153 67.5401 27.9931C62.4873 27.9883 57.4336 27.996 52.3808 27.9893C52.0824 28.0356 51.9125 27.633 52.1326 27.4389C59.1397 18.6726 66.1526 9.9091 73.1636 1.14469C73.2167 1.06937 73.2843 1.01144 73.3663 0.971852Z" fill="black"/>
<path d="M38.4329 52.7622C39.9662 52.5266 41.5758 52.798 42.9392 53.5434C44.261 54.2589 45.3473 55.4011 45.9932 56.7597C46.7097 58.2495 46.8767 59.9914 46.4722 61.5942C46.0879 63.1459 45.158 64.5537 43.8893 65.526C41.7197 67.235 38.5401 67.4871 36.1242 66.1517C34.7338 65.4053 33.606 64.1858 32.9697 62.7413C32.1683 60.9473 32.1577 58.8202 32.9388 57.0165C33.8803 54.7803 36.0296 53.1089 38.4329 52.7622ZM38.8201 55.1761C37.281 55.4088 35.9272 56.5019 35.3238 57.9299C34.7 59.3512 34.8226 61.0748 35.654 62.387C36.3357 63.4925 37.4982 64.2978 38.7843 64.5044C40.0917 64.7342 41.4841 64.3297 42.4805 63.4568C43.617 62.4845 44.2321 60.9512 44.1036 59.4623C44.0071 58.1337 43.3254 56.8591 42.2623 56.0529C41.2987 55.3075 40.0241 54.9782 38.8201 55.1761Z" fill="black"/>
<path d="M0.53125 53.0918C1.12797 52.9296 1.75848 53.0609 2.36872 53.0145C2.58597 53.0445 2.91619 52.9325 3.03882 53.1777C3.0813 53.4973 3.05427 53.8208 3.05813 54.1433C3.05813 56.954 3.05716 59.7658 3.05813 62.5765C5.52224 59.4973 7.98346 56.4162 10.4447 53.3351C10.5731 53.1748 10.7479 53.0329 10.9632 53.029C11.67 52.9981 12.3777 53.0329 13.0855 53.0155C13.3501 53.0203 13.6436 52.9701 13.8695 53.1459C13.0459 54.2312 12.173 55.2788 11.3291 56.3486C8.79937 59.5157 6.26862 62.6818 3.73788 65.8478C3.5496 66.0776 3.38449 66.3306 3.15951 66.5295C2.9384 66.712 2.63038 66.6551 2.36582 66.6695C1.75462 66.6483 1.13955 66.7024 0.53125 66.627V53.0918Z" fill="black"/>
<path d="M17.6409 53.5814C17.9035 53.2251 18.3342 53.0088 18.7774 53.0185C19.3239 53.0194 19.8714 53.0088 20.4179 53.0233C20.6062 53.003 20.7114 53.1981 20.6873 53.3641C20.6873 57.6802 20.6873 61.9973 20.6873 66.3133C20.7124 66.4794 20.611 66.6822 20.4179 66.6609C19.741 66.6686 19.0641 66.6686 18.3873 66.66C18.1391 66.6667 17.9431 66.4919 17.8041 66.3056C16.6338 64.836 15.4578 63.3712 14.2875 61.9017C13.096 63.3857 11.9113 64.8746 10.7227 66.3616C10.5952 66.5248 10.4108 66.6619 10.1945 66.659C9.41914 66.6764 8.64283 66.6551 7.86652 66.6677C7.6763 66.6551 7.43781 66.716 7.32001 66.518C10.74 62.1904 14.2064 57.8975 17.6409 53.5814ZM15.7127 59.8421C16.516 60.8415 17.3078 61.8495 18.1169 62.8431C18.1227 60.8395 18.1208 58.837 18.1189 56.8334C17.3145 57.8347 16.5131 58.8379 15.7127 59.8421Z" fill="black"/>
<path d="M23.752 53.3618C23.7337 53.2093 23.8167 53.022 23.9934 53.0258C24.6741 53.0094 25.3577 53.0162 26.0394 53.0229C26.2345 53.0017 26.3561 53.1948 26.3252 53.3734C26.3291 56.9904 26.3272 60.6074 26.3262 64.2254C28.2187 64.2321 30.1112 64.2206 32.0027 64.2302C32.165 64.1955 32.2663 64.4011 32.1379 64.5102C31.6455 65.1446 31.1366 65.7674 30.6355 66.3969C30.4839 66.6016 30.2271 66.6847 29.9799 66.6663C27.985 66.6596 25.9892 66.6741 23.9944 66.6596C23.8109 66.6673 23.7346 66.4684 23.752 66.3149C23.752 61.9978 23.751 57.6798 23.752 53.3618Z" fill="black"/>
<path d="M48.9729 53.3663C48.9285 53.1674 49.0888 52.9868 49.2906 53.0197C52.7396 53.0158 56.1876 53.0177 59.6356 53.0187C59.7949 52.9965 59.9832 53.0959 59.9678 53.2775C59.9784 54.2121 59.9697 55.1478 59.9716 56.0824C59.9919 56.3055 59.8741 56.5015 59.737 56.6656C58.7415 57.8967 57.7624 59.1404 56.764 60.3695C56.7148 60.4564 56.5506 60.5713 56.6752 60.6717C58.1834 62.5681 59.7042 64.4558 61.2104 66.3531C61.3196 66.4439 61.3215 66.6602 61.1429 66.6553C60.2487 66.6747 59.3537 66.665 58.4596 66.6602C58.1091 66.665 57.9111 66.3396 57.717 66.1001C56.3324 64.3631 54.9468 62.627 53.5574 60.8948C53.4541 60.7673 53.2957 60.5829 53.4396 60.4255C54.7479 58.7648 56.0804 57.1214 57.3955 55.4645C55.448 55.4558 53.4995 55.4809 51.5529 55.4519C51.5181 59.1017 51.5548 62.7535 51.5345 66.4033C51.5568 66.5733 51.381 66.6862 51.2285 66.6631C50.5526 66.6631 49.8767 66.6737 49.2008 66.6582C49.0212 66.6602 48.9488 66.4584 48.9719 66.3087C48.9729 61.9946 48.9719 57.6804 48.9729 53.3663Z" fill="black"/>
<path d="M63.4056 53.3727C63.3747 53.1989 63.4877 53 63.6827 53.0222C64.3267 53.0107 64.9727 53.0174 65.6177 53.0193C65.8591 53.0049 66.0928 53.1178 66.2347 53.3138C69.4529 57.3402 72.6702 61.3676 75.8884 65.394C76.1655 65.7657 76.4977 66.0998 76.7381 66.4986C76.7149 66.5363 76.6686 66.6116 76.6454 66.6492C75.8652 66.6888 75.0821 66.6492 74.301 66.6666C73.993 66.6714 73.6203 66.6975 73.4166 66.4156C72.2077 64.916 71.0104 63.4069 69.8073 61.9025C68.6158 63.3856 67.4301 64.8745 66.2424 66.3605C66.115 66.5256 65.9286 66.6608 65.7123 66.6598C65.0384 66.6695 64.3644 66.6666 63.6914 66.6618C63.4906 66.6898 63.3737 66.487 63.4056 66.3103C63.4056 61.9981 63.4066 57.6849 63.4056 53.3727ZM65.975 56.8401C65.9721 58.8426 65.9721 60.8443 65.975 62.8468C66.7783 61.8465 67.5778 60.8433 68.3782 59.841C67.5759 58.8417 66.7822 57.8346 65.975 56.8401Z" fill="black"/>
<path d="M74.7513 53.3774C74.731 53.2278 74.7977 53.0327 74.9744 53.0289C75.6165 53.0028 76.2595 53.025 76.9016 53.0183C77.1507 53.0018 77.4114 53.0839 77.563 53.2925C80.0397 56.3842 82.5067 59.4837 84.9853 62.5735C84.9853 59.5059 84.9843 56.4383 84.9853 53.3697C84.9438 53.1766 85.0944 52.9893 85.2962 53.0202C85.976 53.0211 86.6557 53.0047 87.3345 53.0289C87.5083 53.0356 87.5711 53.2287 87.5518 53.3774C87.5518 57.6877 87.5518 61.998 87.5518 66.3083C87.5721 66.455 87.5074 66.6539 87.3316 66.6568C86.6567 66.6761 85.9798 66.6626 85.3049 66.6636C85.0819 66.6723 84.8704 66.5651 84.7391 66.3884C82.2653 63.2996 79.8002 60.203 77.3245 57.1161C77.3216 58.9265 77.3294 60.7379 77.3216 62.5484C77.369 62.7096 77.1392 62.8477 77.0416 62.7009C76.331 61.8387 75.6445 60.9562 74.9435 60.0862C74.787 59.9153 74.7368 59.6855 74.7484 59.4605C74.7523 57.4328 74.7475 55.4051 74.7513 53.3774Z" fill="black"/>
<path d="M89.3277 53.2763C89.3074 53.1005 89.4947 52.9991 89.6482 53.0194C92.4831 53.0146 95.318 53.0194 98.1529 53.0175C98.3982 53.002 98.655 53.0822 98.8047 53.2888C99.3068 53.9145 99.8137 54.5382 100.307 55.1717C100.437 55.2779 100.34 55.4884 100.176 55.4594C98.6936 55.471 97.2105 55.4594 95.7274 55.4642C95.7207 59.0793 95.7361 62.6943 95.7352 66.3094C95.7699 66.4823 95.6511 66.6812 95.458 66.6609C94.7812 66.6667 94.1033 66.6696 93.4275 66.6599C93.2836 66.6725 93.1581 66.545 93.1725 66.4031C93.1484 62.7571 93.1716 59.1102 93.1523 55.4642C91.983 55.4613 90.8127 55.4681 89.6444 55.4623C89.4889 55.4806 89.3035 55.3735 89.3277 55.1977C89.318 54.5576 89.3171 53.9164 89.3277 53.2763Z" fill="black"/>
</svg>
