<svg width="1440" height="901" viewBox="0 0 1440 901" fill="none" xmlns="http://www.w3.org/2000/svg">
<path fill-rule="evenodd" clip-rule="evenodd" d="M93.8274 47.7413L46.9142 0.828125L0.000976562 47.7413L46.9142 94.6545L93.8274 47.7413ZM46.9142 119.426L93.8274 166.339L46.9142 213.252L0.000976562 166.339L46.9142 119.426ZM170.307 119.426L217.22 166.339L170.307 213.252L123.394 166.339L170.307 119.426ZM340.611 166.339L293.697 119.426L246.784 166.339L293.697 213.252L340.611 166.339ZM417.09 119.426L464.003 166.339L417.09 213.252L370.177 166.339L417.09 119.426ZM170.307 0.828125L217.22 47.7413L170.307 94.6545L123.394 47.7413L170.307 0.828125ZM340.611 47.7413L293.697 0.828125L246.784 47.7413L293.697 94.6545L340.611 47.7413ZM417.09 0.828125L464.003 47.7413L417.09 94.6545L370.177 47.7413L417.09 0.828125ZM93.8274 285.124L46.9142 238.211L0.000976562 285.124L46.9142 332.037L93.8274 285.124ZM170.307 238.211L217.22 285.124L170.307 332.037L123.394 285.124L170.307 238.211ZM340.611 285.124L293.697 238.211L246.784 285.124L293.697 332.037L340.611 285.124ZM417.09 238.211L464.003 285.124L417.09 332.037L370.177 285.124L417.09 238.211ZM93.8274 403.815L46.9142 356.901L0.000976562 403.815L46.9142 450.728L93.8274 403.815ZM170.307 356.901L217.22 403.815L170.307 450.728L123.394 403.815L170.307 356.901ZM340.611 403.815L293.697 356.901L246.784 403.815L293.697 450.728L340.611 403.815ZM417.09 356.901L464.003 403.815L417.09 450.728L370.177 403.815L417.09 356.901ZM586.827 166.339L539.914 119.426L493.001 166.339L539.914 213.252L586.827 166.339ZM663.307 119.426L710.22 166.339L663.307 213.252L616.394 166.339L663.307 119.426ZM833.611 166.339L786.697 119.426L739.784 166.339L786.697 213.252L833.611 166.339ZM910.09 119.426L957.003 166.339L910.09 213.252L863.177 166.339L910.09 119.426ZM586.827 47.7413L539.914 0.828125L493.001 47.7413L539.914 94.6545L586.827 47.7413ZM663.307 0.828125L710.22 47.7413L663.307 94.6545L616.394 47.7413L663.307 0.828125ZM833.611 47.7413L786.697 0.828125L739.784 47.7413L786.697 94.6545L833.611 47.7413ZM910.09 0.828125L957.003 47.7413L910.09 94.6545L863.177 47.7413L910.09 0.828125ZM586.827 285.124L539.914 238.211L493.001 285.124L539.914 332.037L586.827 285.124ZM663.307 238.211L710.22 285.124L663.307 332.037L616.394 285.124L663.307 238.211ZM833.611 285.124L786.697 238.211L739.784 285.124L786.697 332.037L833.611 285.124ZM910.09 238.211L957.003 285.124L910.09 332.037L863.177 285.124L910.09 238.211ZM586.827 403.815L539.914 356.901L493.001 403.815L539.914 450.728L586.827 403.815ZM663.307 356.901L710.22 403.815L663.307 450.728L616.394 403.815L663.307 356.901ZM833.611 403.815L786.697 356.901L739.784 403.815L786.697 450.728L833.611 403.815ZM910.09 356.901L957.003 403.815L910.09 450.728L863.177 403.815L910.09 356.901ZM1079.83 166.339L1032.91 119.426L986.001 166.339L1032.91 213.252L1079.83 166.339ZM1156.31 119.426L1203.22 166.339L1156.31 213.252L1109.39 166.339L1156.31 119.426ZM1326.61 166.339L1279.7 119.426L1232.78 166.339L1279.7 213.252L1326.61 166.339ZM1403.09 119.426L1450 166.339L1403.09 213.252L1356.18 166.339L1403.09 119.426ZM1079.83 47.7413L1032.91 0.828125L986.001 47.7413L1032.91 94.6545L1079.83 47.7413ZM1156.31 0.828125L1203.22 47.7413L1156.31 94.6545L1109.39 47.7413L1156.31 0.828125ZM1326.61 47.7413L1279.7 0.828125L1232.78 47.7413L1279.7 94.6545L1326.61 47.7413ZM1403.09 0.828125L1450 47.7413L1403.09 94.6545L1356.18 47.7413L1403.09 0.828125ZM1079.83 285.124L1032.91 238.211L986.001 285.124L1032.91 332.037L1079.83 285.124ZM1156.31 238.211L1203.22 285.124L1156.31 332.037L1109.39 285.124L1156.31 238.211ZM1326.61 285.124L1279.7 238.211L1232.78 285.124L1279.7 332.037L1326.61 285.124ZM1403.09 238.211L1450 285.124L1403.09 332.037L1356.18 285.124L1403.09 238.211ZM1079.83 403.815L1032.91 356.901L986.001 403.815L1032.91 450.728L1079.83 403.815ZM1156.31 356.901L1203.22 403.815L1156.31 450.728L1109.39 403.815L1156.31 356.901ZM1326.61 403.815L1279.7 356.901L1232.78 403.815L1279.7 450.728L1326.61 403.815ZM1403.09 356.901L1450 403.815L1403.09 450.728L1356.18 403.815L1403.09 356.901ZM93.8274 497.741L46.9142 450.828L0.000976562 497.741L46.9142 544.655L93.8274 497.741ZM46.9142 569.426L93.8274 616.339L46.9142 663.252L0.000976562 616.339L46.9142 569.426ZM170.307 569.426L217.22 616.339L170.307 663.252L123.394 616.339L170.307 569.426ZM340.611 616.339L293.697 569.426L246.784 616.339L293.697 663.252L340.611 616.339ZM417.09 569.426L464.003 616.339L417.09 663.252L370.177 616.339L417.09 569.426ZM170.307 450.828L217.22 497.741L170.307 544.655L123.394 497.741L170.307 450.828ZM340.611 497.741L293.697 450.828L246.784 497.741L293.697 544.655L340.611 497.741ZM417.09 450.828L464.003 497.741L417.09 544.655L370.177 497.741L417.09 450.828ZM93.8274 735.124L46.9142 688.211L0.000976562 735.124L46.9142 782.037L93.8274 735.124ZM170.307 688.211L217.22 735.124L170.307 782.037L123.394 735.124L170.307 688.211ZM340.611 735.124L293.697 688.211L246.784 735.124L293.697 782.037L340.611 735.124ZM417.09 688.211L464.003 735.124L417.09 782.037L370.177 735.124L417.09 688.211ZM93.8274 853.815L46.9142 806.901L0.000976562 853.815L46.9142 900.728L93.8274 853.815ZM170.307 806.901L217.22 853.815L170.307 900.728L123.394 853.815L170.307 806.901ZM340.611 853.815L293.697 806.901L246.784 853.815L293.697 900.728L340.611 853.815ZM417.09 806.901L464.003 853.815L417.09 900.728L370.177 853.815L417.09 806.901ZM586.827 616.339L539.914 569.426L493.001 616.339L539.914 663.252L586.827 616.339ZM663.307 569.426L710.22 616.339L663.307 663.252L616.394 616.339L663.307 569.426ZM833.611 616.339L786.697 569.426L739.784 616.339L786.697 663.252L833.611 616.339ZM910.09 569.426L957.003 616.339L910.09 663.252L863.177 616.339L910.09 569.426ZM586.827 497.741L539.914 450.828L493.001 497.741L539.914 544.655L586.827 497.741ZM663.307 450.828L710.22 497.741L663.307 544.655L616.394 497.741L663.307 450.828ZM833.611 497.741L786.697 450.828L739.784 497.741L786.697 544.655L833.611 497.741ZM910.09 450.828L957.003 497.741L910.09 544.655L863.177 497.741L910.09 450.828ZM586.827 735.124L539.914 688.211L493.001 735.124L539.914 782.037L586.827 735.124ZM663.307 688.211L710.22 735.124L663.307 782.037L616.394 735.124L663.307 688.211ZM833.611 735.124L786.697 688.211L739.784 735.124L786.697 782.037L833.611 735.124ZM910.09 688.211L957.003 735.124L910.09 782.037L863.177 735.124L910.09 688.211ZM586.827 853.815L539.914 806.901L493.001 853.815L539.914 900.728L586.827 853.815ZM663.307 806.901L710.22 853.815L663.307 900.728L616.394 853.815L663.307 806.901ZM833.611 853.815L786.697 806.901L739.784 853.815L786.697 900.728L833.611 853.815ZM910.09 806.901L957.003 853.815L910.09 900.728L863.177 853.815L910.09 806.901ZM1079.83 616.339L1032.91 569.426L986.001 616.339L1032.91 663.252L1079.83 616.339ZM1156.31 569.426L1203.22 616.339L1156.31 663.252L1109.39 616.339L1156.31 569.426ZM1326.61 616.339L1279.7 569.426L1232.78 616.339L1279.7 663.252L1326.61 616.339ZM1403.09 569.426L1450 616.339L1403.09 663.252L1356.18 616.339L1403.09 569.426ZM1079.83 497.741L1032.91 450.828L986.001 497.741L1032.91 544.655L1079.83 497.741ZM1156.31 450.828L1203.22 497.741L1156.31 544.655L1109.39 497.741L1156.31 450.828ZM1326.61 497.741L1279.7 450.828L1232.78 497.741L1279.7 544.655L1326.61 497.741ZM1403.09 450.828L1450 497.741L1403.09 544.655L1356.18 497.741L1403.09 450.828ZM1079.83 735.124L1032.91 688.211L986.001 735.124L1032.91 782.037L1079.83 735.124ZM1156.31 688.211L1203.22 735.124L1156.31 782.037L1109.39 735.124L1156.31 688.211ZM1326.61 735.124L1279.7 688.211L1232.78 735.124L1279.7 782.037L1326.61 735.124ZM1403.09 688.211L1450 735.124L1403.09 782.037L1356.18 735.124L1403.09 688.211ZM1079.83 853.815L1032.91 806.901L986.001 853.815L1032.91 900.728L1079.83 853.815ZM1156.31 806.901L1203.22 853.815L1156.31 900.728L1109.39 853.815L1156.31 806.901ZM1326.61 853.815L1279.7 806.901L1232.78 853.815L1279.7 900.728L1326.61 853.815ZM1403.09 806.901L1450 853.815L1403.09 900.728L1356.18 853.815L1403.09 806.901Z" fill="url(#paint0_linear_1326_7352)"/>
<defs>
<linearGradient id="paint0_linear_1326_7352" x1="725.002" y1="163.328" x2="725.002" y2="900.728" gradientUnits="userSpaceOnUse">
<stop stop-opacity="0"/>
<stop offset="1"/>
</linearGradient>
</defs>
</svg>
