<svg width="51" height="50" viewBox="0 0 51 50" fill="none" xmlns="http://www.w3.org/2000/svg">
<path d="M25.0088 50C38.8207 50 50.0175 38.8071 50.0175 25C50.0175 11.1929 38.8207 0 25.0088 0C11.1968 0 0 11.1929 0 25C0 38.8071 11.1968 50 25.0088 50Z" fill="#B4B4B4" fill-opacity="0.2"/>
<path fill-rule="evenodd" clip-rule="evenodd" d="M16.7586 17.2965C14.989 17.4355 13.6515 18.8744 13.5654 20.6473C13.4944 22.108 13.4277 23.789 13.4277 24.9494C13.4277 26.123 13.4959 27.8292 13.5678 29.3015C13.6533 31.0517 14.9602 32.4811 16.705 32.6422C18.6366 32.8205 21.4313 33 24.8563 33C28.2724 33 31.0615 32.8214 32.9925 32.6436C34.7441 32.4822 36.0536 31.0436 36.1379 29.2866C36.2122 27.7365 36.2849 25.9628 36.2849 24.9494C36.2849 23.9468 36.2138 22.2002 36.1403 20.6621C36.0552 18.8824 34.7156 17.4345 32.9393 17.2953C31.038 17.1463 28.2957 17 24.8563 17C21.408 17 18.6604 17.147 16.7586 17.2965ZM22.5706 21.557L28.4627 24.9494L22.5706 28.3418V21.557Z" fill="#EA337D"/>
</svg>
