<svg width="362" height="879" viewBox="0 0 362 879" fill="none" xmlns="http://www.w3.org/2000/svg">
<path d="M264.213 597.177L212.794 583.477L256.498 418.442L290.943 398.555L429.488 435.47L466.792 297.028L501.237 277.142L639.782 314.056L677.086 175.615L711.531 155.729L877.214 199.874L863.369 251.254L723.396 213.959L685.707 353.827L653.075 372.667L513.102 335.372L475.413 475.241L441.875 494.604L301.901 457.309L264.213 597.177Z" fill="#DBFD67"/>
<path d="M339.819 728.13L288.4 714.43L332.104 549.395L366.548 529.508L505.094 566.423L542.398 427.982L576.842 408.095L715.388 445.01L752.692 306.568L787.136 286.682L952.819 330.827L938.975 382.207L799.001 344.912L761.313 484.781L728.681 503.621L588.707 466.325L551.019 606.194L517.481 625.557L377.507 588.262L339.819 728.13Z" fill="#DBFD67"/>
<path d="M187.99 465.154L136.571 451.453L180.276 286.418L214.72 266.532L353.266 303.446L390.57 165.005L425.014 145.118L563.56 182.033L600.863 43.5918L635.308 23.7052L800.991 67.8505L787.147 119.231L647.173 81.9355L609.485 221.804L576.853 240.644L436.879 203.349L399.191 343.217L365.652 362.581L225.679 325.285L187.99 465.154Z" fill="#DBFD67"/>
<path d="M112.408 334.248L60.9894 320.547L104.694 155.512L139.138 135.625L277.684 172.54L314.988 34.0988L349.432 14.2121L487.978 51.1268L525.281 -87.3144L559.726 -107.201L725.409 -63.0558L711.565 -11.6755L571.591 -48.9707L533.903 90.8977L501.271 109.738L361.297 72.4425L323.609 212.311L290.07 231.674L150.097 194.379L112.408 334.248Z" fill="#DBFD67"/>
<path d="M416.041 860.154L364.622 846.453L408.326 681.418L442.771 661.532L581.317 698.446L618.62 560.005L653.065 540.118L791.61 577.033L828.914 438.592L863.359 418.705L1029.04 462.85L1015.2 514.231L875.224 476.936L837.535 616.804L804.904 635.644L664.93 598.349L627.241 738.217L593.703 757.581L453.729 720.285L416.041 860.154Z" fill="#DBFD67"/>
</svg>
