<svg width="48" height="42" viewBox="0 0 48 42" fill="none" xmlns="http://www.w3.org/2000/svg">
<rect x="1.25" y="1.07227" width="45.857" height="40.3976" rx="13.576" fill="#D1FF45"/>
<rect x="1.25" y="1.07227" width="45.857" height="40.3976" rx="13.576" stroke="url(#paint0_linear_1065_16)"/>
<path d="M23.5782 19.0661C23.5782 19.6088 23.4954 20.0779 23.3299 20.4734C23.1643 20.8689 22.9436 21.1955 22.6676 21.453C22.3917 21.7105 22.0789 21.9037 21.7294 22.0325C21.3799 22.1521 21.0258 22.2118 20.667 22.2118H19.715V25.7715H17.5489V16.0032H20.5843C20.9338 16.0032 21.2833 16.0537 21.6328 16.1549C21.9916 16.2561 22.3135 16.4263 22.5986 16.6654C22.893 16.8954 23.1275 17.2081 23.3023 17.6036C23.4862 17.9991 23.5782 18.4866 23.5782 19.0661ZM21.5087 19.1075C21.5087 18.666 21.4029 18.3487 21.1913 18.1555C20.9798 17.9623 20.7222 17.8658 20.4187 17.8658H19.715V20.4182H20.4187C20.7222 20.4182 20.9798 20.3078 21.1913 20.0871C21.4029 19.8571 21.5087 19.5306 21.5087 19.1075ZM30.8556 24.7091C30.5889 25.0862 30.2394 25.4036 29.8071 25.6611C29.3748 25.9095 28.8229 26.0336 28.1514 26.0336C27.5811 26.0336 27.0614 25.9095 26.5923 25.6611C26.1324 25.4036 25.7369 25.0494 25.4058 24.5987C25.0747 24.1388 24.8171 23.5961 24.6332 22.9707C24.4492 22.336 24.3572 21.6416 24.3572 20.8873C24.3572 20.1239 24.4492 19.4248 24.6332 18.7902C24.8171 18.1555 25.0747 17.6128 25.4058 17.1621C25.7369 16.7114 26.1324 16.3619 26.5923 16.1135C27.0614 15.8652 27.5811 15.741 28.1514 15.741C28.8045 15.741 29.3472 15.8606 29.7795 16.0997C30.221 16.3297 30.5751 16.6194 30.8418 16.969L29.6553 18.5694C29.4897 18.3487 29.3012 18.1739 29.0896 18.0451C28.8873 17.9164 28.6297 17.852 28.317 17.852C28.0226 17.852 27.7651 17.9301 27.5443 18.0865C27.3328 18.2429 27.1488 18.459 26.9925 18.735C26.8453 19.0017 26.7349 19.3237 26.6613 19.7008C26.5877 20.0687 26.551 20.4642 26.551 20.8873C26.551 21.3104 26.5877 21.7059 26.6613 22.0739C26.7349 22.4418 26.8453 22.7637 26.9925 23.0397C27.1488 23.3156 27.3374 23.5318 27.5581 23.6881C27.7789 23.8445 28.0364 23.9227 28.3308 23.9227C28.6251 23.9227 28.8827 23.8491 29.1034 23.7019C29.3242 23.5548 29.4989 23.38 29.6277 23.1776L30.8556 24.7091Z" fill="black"/>
<defs>
<linearGradient id="paint0_linear_1065_16" x1="0.75" y1="0.572266" x2="26.1404" y2="52.4718" gradientUnits="userSpaceOnUse">
<stop stop-color="white" stop-opacity="0.25"/>
<stop offset="1" stop-color="white" stop-opacity="0.12"/>
</linearGradient>
</defs>
</svg>
