<svg width="96" height="43" viewBox="0 0 96 43" fill="none" xmlns="http://www.w3.org/2000/svg">
<rect x="0.996094" y="1.19531" width="94.2875" height="40.4479" rx="13.576" fill="#D1FF45"/>
<rect x="0.996094" y="1.19531" width="94.2875" height="40.4479" rx="13.576" stroke="url(#paint0_linear_889_3784)"/>
<path d="M29.6081 24.8566C29.3414 25.2337 28.9919 25.551 28.5596 25.8086C28.1273 26.0569 27.5754 26.1811 26.9039 26.1811C26.3336 26.1811 25.814 26.0569 25.3449 25.8086C24.8849 25.551 24.4894 25.1969 24.1583 24.7462C23.8272 24.2863 23.5696 23.7436 23.3857 23.1181C23.2017 22.4835 23.1097 21.789 23.1097 21.0348C23.1097 20.2713 23.2017 19.5723 23.3857 18.9376C23.5696 18.303 23.8272 17.7603 24.1583 17.3096C24.4894 16.8589 24.8849 16.5093 25.3449 16.261C25.814 16.0126 26.3336 15.8885 26.9039 15.8885C27.557 15.8885 28.0997 16.008 28.532 16.2472C28.9735 16.4772 29.3276 16.7669 29.5943 17.1164L28.4078 18.7169C28.2422 18.4961 28.0537 18.3214 27.8421 18.1926C27.6398 18.0638 27.3822 17.9994 27.0695 17.9994C26.7751 17.9994 26.5176 18.0776 26.2968 18.234C26.0853 18.3903 25.9013 18.6065 25.745 18.8824C25.5978 19.1492 25.4874 19.4711 25.4138 19.8482C25.3403 20.2162 25.3035 20.6117 25.3035 21.0348C25.3035 21.4579 25.3403 21.8534 25.4138 22.2213C25.4874 22.5893 25.5978 22.9112 25.745 23.1871C25.9013 23.4631 26.0899 23.6792 26.3106 23.8356C26.5314 23.992 26.7889 24.0701 27.0833 24.0701C27.3776 24.0701 27.6352 23.9966 27.8559 23.8494C28.0767 23.7022 28.2514 23.5275 28.3802 23.3251L29.6081 24.8566ZM37.5139 21.0072C37.5139 21.7798 37.4265 22.4881 37.2517 23.1319C37.077 23.7666 36.8286 24.3093 36.5067 24.76C36.1847 25.2107 35.7892 25.5602 35.3201 25.8086C34.8602 26.0569 34.3405 26.1811 33.7611 26.1811C33.1816 26.1811 32.6573 26.0569 32.1882 25.8086C31.7283 25.5602 31.3374 25.2107 31.0154 24.76C30.6935 24.3093 30.4452 23.7666 30.2704 23.1319C30.0956 22.4881 30.0083 21.7798 30.0083 21.0072C30.0083 20.2346 30.091 19.5355 30.2566 18.91C30.4314 18.2754 30.6797 17.7373 31.0016 17.2958C31.3236 16.8451 31.7145 16.5001 32.1744 16.261C32.6435 16.0126 33.1724 15.8885 33.7611 15.8885C34.3405 15.8885 34.8602 16.0126 35.3201 16.261C35.7892 16.5001 36.1847 16.8451 36.5067 17.2958C36.8286 17.7373 37.077 18.2754 37.2517 18.91C37.4265 19.5355 37.5139 20.2346 37.5139 21.0072ZM35.2511 21.0072C35.2511 20.5841 35.219 20.1932 35.1546 19.8344C35.0902 19.4665 34.9936 19.1492 34.8648 18.8824C34.7453 18.6157 34.5935 18.4087 34.4095 18.2616C34.2256 18.1052 34.0094 18.027 33.7611 18.027C33.5127 18.027 33.292 18.1052 33.0988 18.2616C32.9148 18.4087 32.7585 18.6157 32.6297 18.8824C32.5101 19.1492 32.4181 19.4665 32.3538 19.8344C32.2986 20.1932 32.271 20.5841 32.271 21.0072C32.271 21.4303 32.2986 21.8258 32.3538 22.1937C32.4181 22.5617 32.5101 22.879 32.6297 23.1457C32.7585 23.4125 32.9148 23.624 33.0988 23.7804C33.292 23.9368 33.5127 24.0149 33.7611 24.0149C34.0094 24.0149 34.2256 23.9368 34.4095 23.7804C34.5935 23.624 34.7453 23.4125 34.8648 23.1457C34.9936 22.879 35.0902 22.5617 35.1546 22.1937C35.219 21.8258 35.2511 21.4303 35.2511 21.0072ZM43.0783 25.9189L40.8156 19.9724H40.7742L40.8294 25.9189H38.8564V16.1506H41.2847L43.5336 22.1799H43.575L43.5336 16.1506H45.4376V25.9189H43.0783ZM51.2122 18.4961C51.0466 18.303 50.8535 18.1558 50.6327 18.0546C50.412 17.9442 50.182 17.8891 49.9429 17.8891C49.6945 17.8891 49.4692 17.9672 49.2668 18.1236C49.0737 18.28 48.9771 18.5375 48.9771 18.8962C48.9771 19.1998 49.0783 19.4389 49.2806 19.6137C49.483 19.7792 49.7819 19.9632 50.1774 20.1656C50.3982 20.2759 50.6281 20.4093 50.8673 20.5657C51.1156 20.7129 51.341 20.8968 51.5433 21.1176C51.7457 21.3383 51.9113 21.6051 52.04 21.9178C52.178 22.2213 52.247 22.5847 52.247 23.0078C52.247 23.5321 52.1642 23.9966 51.9986 24.4013C51.8331 24.7968 51.6077 25.1279 51.3226 25.3947C51.0466 25.6522 50.7247 25.8454 50.3568 25.9741C49.9889 26.1121 49.6071 26.1811 49.2116 26.1811C48.623 26.1811 48.0849 26.0707 47.5974 25.85C47.1191 25.6292 46.7328 25.3717 46.4384 25.0773L47.5698 23.4217C47.7813 23.6424 48.0251 23.8218 48.301 23.9598C48.577 24.0885 48.8575 24.1529 49.1426 24.1529C49.4094 24.1529 49.6347 24.0655 49.8187 23.8908C50.0027 23.716 50.0946 23.4723 50.0946 23.1595C50.0946 22.8376 49.9843 22.5847 49.7635 22.4007C49.5428 22.2075 49.2208 22.0052 48.7977 21.7936C48.531 21.6648 48.278 21.5223 48.0389 21.3659C47.8089 21.2095 47.602 21.021 47.418 20.8002C47.2432 20.5795 47.1053 20.3219 47.0041 20.0276C46.9029 19.7333 46.8523 19.3837 46.8523 18.979C46.8523 18.4363 46.9397 17.9718 47.1145 17.5855C47.2984 17.19 47.533 16.8681 47.8181 16.6197C48.1125 16.3714 48.4344 16.1874 48.7839 16.0678C49.1426 15.9483 49.5014 15.8885 49.8601 15.8885C50.3936 15.8885 50.8719 15.9759 51.295 16.1506C51.7181 16.3254 52.0722 16.5645 52.3574 16.8681L51.2122 18.4961ZM60.6347 21.0072C60.6347 21.7798 60.5474 22.4881 60.3726 23.1319C60.1978 23.7666 59.9495 24.3093 59.6276 24.76C59.3056 25.2107 58.9101 25.5602 58.441 25.8086C57.9811 26.0569 57.4614 26.1811 56.8819 26.1811C56.3025 26.1811 55.7782 26.0569 55.3091 25.8086C54.8492 25.5602 54.4582 25.2107 54.1363 24.76C53.8144 24.3093 53.566 23.7666 53.3913 23.1319C53.2165 22.4881 53.1291 21.7798 53.1291 21.0072C53.1291 20.2346 53.2119 19.5355 53.3775 18.91C53.5522 18.2754 53.8006 17.7373 54.1225 17.2958C54.4445 16.8451 54.8354 16.5001 55.2953 16.261C55.7644 16.0126 56.2933 15.8885 56.8819 15.8885C57.4614 15.8885 57.9811 16.0126 58.441 16.261C58.9101 16.5001 59.3056 16.8451 59.6276 17.2958C59.9495 17.7373 60.1978 18.2754 60.3726 18.91C60.5474 19.5355 60.6347 20.2346 60.6347 21.0072ZM58.372 21.0072C58.372 20.5841 58.3398 20.1932 58.2754 19.8344C58.2111 19.4665 58.1145 19.1492 57.9857 18.8824C57.8661 18.6157 57.7144 18.4087 57.5304 18.2616C57.3464 18.1052 57.1303 18.027 56.8819 18.027C56.6336 18.027 56.4128 18.1052 56.2197 18.2616C56.0357 18.4087 55.8793 18.6157 55.7506 18.8824C55.631 19.1492 55.539 19.4665 55.4746 19.8344C55.4194 20.1932 55.3919 20.5841 55.3919 21.0072C55.3919 21.4303 55.4194 21.8258 55.4746 22.1937C55.539 22.5617 55.631 22.879 55.7506 23.1457C55.8793 23.4125 56.0357 23.624 56.2197 23.7804C56.4128 23.9368 56.6336 24.0149 56.8819 24.0149C57.1303 24.0149 57.3464 23.9368 57.5304 23.7804C57.7144 23.624 57.8661 23.4125 57.9857 23.1457C58.1145 22.879 58.2111 22.5617 58.2754 22.1937C58.3398 21.8258 58.372 21.4303 58.372 21.0072ZM61.9773 25.9189V16.1506H64.2124V23.877H66.82V25.9189H61.9773ZM67.8114 25.9189V16.1506H72.53V18.096H69.9223V20.0138H72.323V21.835H69.9223V23.946H72.6955V25.9189H67.8114Z" fill="black"/>
<defs>
<linearGradient id="paint0_linear_889_3784" x1="0.496094" y1="0.695312" x2="15.157" y2="61.5633" gradientUnits="userSpaceOnUse">
<stop stop-color="white" stop-opacity="0.25"/>
<stop offset="1" stop-color="white" stop-opacity="0.12"/>
</linearGradient>
</defs>
</svg>
