<svg width="787" height="296" viewBox="0 0 787 296" fill="none" xmlns="http://www.w3.org/2000/svg">
<g opacity="0.48">
<mask id="path-1-outside-1_889_3665" maskUnits="userSpaceOnUse" x="-2" y="-0.999512" width="781" height="298" fill="black">
<rect fill="white" x="-2" y="-0.999512" width="781" height="298"/>
<path d="M95.6484 240.088H183.698L169.23 293H0.157793L13.7993 240.088C35.7084 209.498 64.645 183.868 96.8886 156.585C130.372 127.649 158.482 104.5 163.856 85.8974L167.576 71.0158C170.47 61.9215 165.923 54.4806 152.281 54.4806C139.467 54.4806 128.719 62.7482 124.585 77.6299L118.798 100.366H51.8302L58.0309 76.8031C73.3259 23.8906 108.877 0.741314 158.895 0.741314C217.182 0.741314 243.638 32.5715 233.304 71.4292L230.41 81.7636C219.249 122.275 194.859 145.011 163.856 171.467C135.333 197.51 104.743 223.966 95.6484 240.088ZM271.897 295.894C216.09 295.894 182.607 264.477 198.315 205.364L229.318 89.6179C245.027 30.918 280.578 0.741314 335.97 0.741314C391.777 0.741314 425.674 30.5046 409.965 89.6179L378.962 205.364C363.253 264.477 327.703 295.894 271.897 295.894ZM278.511 242.155C293.806 242.155 304.554 230.58 310.341 209.498L343.411 86.7242C349.198 66.0552 343.825 54.4806 328.53 54.4806C314.061 54.4806 303.313 66.0552 297.526 86.7242L264.869 209.498C258.668 230.58 263.629 242.155 278.511 242.155ZM461.005 240.088H549.054L534.586 293H365.514L379.156 240.088C401.065 209.498 430.001 183.868 462.245 156.585C495.729 127.649 523.838 104.5 529.212 85.8974L532.933 71.0158C535.826 61.9215 531.279 54.4806 517.638 54.4806C504.823 54.4806 494.075 62.7482 489.941 77.6299L484.154 100.366H417.186L423.387 76.8031C438.682 23.8906 474.233 0.741314 524.252 0.741314C582.538 0.741314 608.994 32.5715 598.66 71.4292L595.766 81.7636C584.605 122.275 560.216 145.011 529.212 171.467C500.689 197.51 470.099 223.966 461.005 240.088ZM700.086 0.741314C755.479 0.741314 786.896 28.4377 775.322 72.6693L769.534 94.165C762.093 123.515 743.905 136.33 719.929 143.357L719.515 145.011C741.011 152.865 750.932 171.054 742.665 200.817L736.05 226.86C724.062 272.332 692.232 295.894 635.599 295.894C580.62 295.894 547.549 267.784 559.537 221.899L564.911 200.817L632.292 200.404L626.918 220.246C623.611 233.474 631.052 242.155 643.453 242.155C657.922 242.155 667.016 234.301 670.323 221.072L678.177 191.309C681.071 179.321 676.937 169.813 662.056 169.813H638.906L651.721 121.861H674.457C689.339 121.861 698.433 113.594 701.327 102.019L708.354 74.3228C711.661 61.9215 705.46 54.4806 691.819 54.4806C679.831 54.4806 671.15 61.9215 667.843 73.0827L661.229 94.9918L594.261 94.165L599.635 76.3897C613.277 27.1976 644.694 0.741314 700.086 0.741314Z"/>
</mask>
<path d="M95.6484 240.088L94.7774 239.597L93.9362 241.088H95.6484V240.088ZM183.698 240.088L184.663 240.352L185.008 239.088H183.698V240.088ZM169.23 293V294H169.993L170.195 293.264L169.23 293ZM0.157793 293L-0.810543 292.751L-1.13272 294H0.157793V293ZM13.7993 240.088L12.9863 239.506L12.8776 239.657L12.831 239.838L13.7993 240.088ZM96.8885 156.585L97.5345 157.349L97.5424 157.342L96.8885 156.585ZM163.856 85.8974L164.817 86.175L164.822 86.1576L164.826 86.14L163.856 85.8974ZM167.576 71.0158L166.623 70.7126L166.614 70.7427L166.606 70.7733L167.576 71.0158ZM124.585 77.6299L123.621 77.3622L123.619 77.3727L123.616 77.3832L124.585 77.6299ZM118.798 100.366V101.366H119.575L119.767 100.612L118.798 100.366ZM51.8302 100.366L50.8631 100.111L50.533 101.366H51.8302V100.366ZM58.0309 76.8031L57.0702 76.5254L57.0669 76.537L57.0638 76.5486L58.0309 76.8031ZM233.304 71.4292L234.267 71.6988L234.27 71.6862L233.304 71.4292ZM230.41 81.7636L229.447 81.494L229.446 81.498L230.41 81.7636ZM163.856 171.467L163.207 170.706L163.194 170.717L163.182 170.728L163.856 171.467ZM95.6484 241.088H183.698V239.088H95.6484V241.088ZM182.734 239.824L168.265 292.737L170.195 293.264L184.663 240.352L182.734 239.824ZM169.23 292H0.157793V294H169.23V292ZM1.12613 293.25L14.7676 240.338L12.831 239.838L-0.810543 292.751L1.12613 293.25ZM14.6123 240.67C36.4406 210.193 65.2873 184.635 97.5345 157.349L96.2426 155.822C64.0027 183.102 34.9762 208.803 12.9863 239.506L14.6123 240.67ZM97.5424 157.342C114.267 142.889 129.701 129.837 141.616 118.078C153.499 106.35 162.05 95.7514 164.817 86.175L162.895 85.6199C160.288 94.6456 152.097 104.923 140.211 116.654C128.357 128.354 112.994 141.345 96.2347 155.829L97.5424 157.342ZM164.826 86.14L168.547 71.2583L166.606 70.7733L162.886 85.6549L164.826 86.14ZM168.529 71.319C170.043 66.5628 169.664 62.0406 166.9 58.7003C164.154 55.3818 159.256 53.4806 152.281 53.4806V55.4806C158.949 55.4806 163.145 57.2999 165.359 59.9754C167.555 62.6291 168.004 66.3745 166.623 70.7126L168.529 71.319ZM152.281 53.4806C138.96 53.4806 127.859 62.1059 123.621 77.3622L125.548 77.8975C129.578 63.3905 139.973 55.4806 152.281 55.4806V53.4806ZM123.616 77.3832L117.829 100.119L119.767 100.612L125.554 77.8765L123.616 77.3832ZM118.798 99.3657H51.8302V101.366H118.798V99.3657ZM52.7973 100.62L58.998 77.0576L57.0638 76.5486L50.8631 100.111L52.7973 100.62ZM58.9916 77.0808C66.5913 50.7897 79.1946 31.9826 96.0299 19.7387C112.869 7.49189 134.039 1.74131 158.895 1.74131V-0.258686C133.733 -0.258686 112.118 5.56536 94.8536 18.1213C77.5851 30.6801 64.7655 49.904 57.0702 76.5254L58.9916 77.0808ZM158.895 1.74131C187.876 1.74131 208.763 9.6553 221.12 22.215C233.445 34.7423 237.427 52.0344 232.337 71.1722L234.27 71.6862C239.515 51.9662 235.436 33.9144 222.545 20.8123C209.686 7.74242 188.201 -0.258686 158.895 -0.258686V1.74131ZM232.341 71.1595L229.447 81.494L231.373 82.0333L234.267 71.6988L232.341 71.1595ZM229.446 81.498C218.372 121.692 194.201 144.258 163.207 170.706L164.505 172.228C195.518 145.763 220.126 122.857 231.374 82.0293L229.446 81.498ZM163.182 170.728C148.936 183.736 134.135 196.881 121.773 208.777C109.436 220.65 99.4071 231.389 94.7774 239.597L96.5194 240.579C100.984 232.665 110.798 222.115 123.16 210.218C135.497 198.346 150.253 185.241 164.53 172.205L163.182 170.728ZM198.315 205.364L197.349 205.105L197.349 205.107L198.315 205.364ZM229.318 89.6179L230.284 89.8766L230.284 89.8764L229.318 89.6179ZM409.965 89.6179L410.931 89.8766L410.932 89.8747L409.965 89.6179ZM378.962 205.364L377.996 205.105L377.995 205.107L378.962 205.364ZM310.341 209.498L311.305 209.763L311.306 209.758L310.341 209.498ZM343.411 86.7242L342.448 86.4546L342.446 86.4641L343.411 86.7242ZM297.526 86.7242L296.563 86.4546L296.56 86.4672L297.526 86.7242ZM264.869 209.498L265.828 209.78L265.832 209.768L265.835 209.755L264.869 209.498ZM271.897 294.894C244.155 294.894 222.163 287.084 209.039 272.137C195.943 257.22 191.483 234.967 199.281 205.621L197.349 205.107C189.438 234.875 193.867 257.887 207.536 273.456C221.179 288.996 243.832 296.894 271.897 296.894V294.894ZM199.281 205.623L230.284 89.8766L228.353 89.3591L197.349 205.105L199.281 205.623ZM230.284 89.8764C238.102 60.6624 250.831 38.6472 268.405 23.9339C285.969 9.22926 308.464 1.74131 335.97 1.74131V-0.258686C308.084 -0.258686 285.108 7.34172 267.121 22.4004C249.144 37.4504 236.243 59.8735 228.352 89.3594L230.284 89.8764ZM335.97 1.74131C363.727 1.74131 385.824 9.14577 399.046 23.6849C412.233 38.1854 416.797 60.0154 408.999 89.361L410.932 89.8747C418.842 60.107 414.312 37.4988 400.526 22.3393C386.775 7.2185 364.02 -0.258686 335.97 -0.258686V1.74131ZM408.999 89.3591L377.996 205.105L379.928 205.623L410.931 89.8766L408.999 89.3591ZM377.995 205.107C370.176 234.531 357.446 256.962 339.816 272.037C322.198 287.101 299.601 294.894 271.897 294.894V296.894C299.998 296.894 323.079 288.979 341.116 273.557C359.14 258.145 372.039 235.31 379.928 205.621L377.995 205.107ZM278.511 243.155C286.442 243.155 293.209 240.142 298.712 234.426C304.19 228.735 308.386 220.398 311.305 209.763L309.376 209.233C306.509 219.681 302.437 227.672 297.271 233.039C292.128 238.381 285.874 241.155 278.511 241.155V243.155ZM311.306 209.758L344.377 86.9843L342.446 86.4641L309.375 209.238L311.306 209.758ZM344.374 86.9938C347.29 76.5817 347.466 68.2343 344.784 62.432C342.046 56.51 336.456 53.4806 328.53 53.4806V55.4806C335.898 55.4806 340.642 58.2385 342.969 63.2712C345.35 68.4234 345.32 76.1978 342.448 86.4546L344.374 86.9938ZM328.53 53.4806C313.374 53.4806 302.391 65.6389 296.563 86.4546L298.489 86.9938C304.235 66.4716 314.749 55.4806 328.53 55.4806V53.4806ZM296.56 86.4672L263.903 209.241L265.835 209.755L298.492 86.9813L296.56 86.4672ZM263.91 209.216C260.789 219.825 260.401 228.268 262.862 234.12C264.104 237.073 266.068 239.353 268.731 240.884C271.381 242.407 274.665 243.155 278.511 243.155V241.155C274.916 241.155 271.999 240.456 269.727 239.15C267.468 237.851 265.789 235.92 264.706 233.345C262.517 228.139 262.748 220.253 265.828 209.78L263.91 209.216ZM461.005 240.088L460.134 239.597L459.292 241.088H461.005V240.088ZM549.055 240.088L550.019 240.352L550.365 239.088H549.055V240.088ZM534.586 293V294H535.349L535.551 293.264L534.586 293ZM365.514 293L364.546 292.751L364.224 294H365.514V293ZM379.156 240.088L378.343 239.506L378.234 239.657L378.187 239.838L379.156 240.088ZM462.245 156.585L462.891 157.349L462.899 157.342L462.245 156.585ZM529.212 85.8974L530.173 86.175L530.178 86.1576L530.182 86.14L529.212 85.8974ZM532.933 71.0158L531.98 70.7126L531.97 70.7427L531.963 70.7733L532.933 71.0158ZM489.941 77.6299L488.978 77.3622L488.975 77.3727L488.972 77.3832L489.941 77.6299ZM484.154 100.366V101.366H484.931L485.123 100.612L484.154 100.366ZM417.186 100.366L416.219 100.111L415.889 101.366H417.186V100.366ZM423.387 76.8031L422.426 76.5254L422.423 76.537L422.42 76.5486L423.387 76.8031ZM598.66 71.4292L599.623 71.6988L599.626 71.6862L598.66 71.4292ZM595.766 81.7636L594.803 81.494L594.802 81.498L595.766 81.7636ZM529.212 171.467L528.563 170.706L528.55 170.717L528.538 170.728L529.212 171.467ZM461.005 241.088H549.055V239.088H461.005V241.088ZM548.09 239.824L533.622 292.737L535.551 293.264L550.019 240.352L548.09 239.824ZM534.586 292H365.514V294H534.586V292ZM366.482 293.25L380.124 240.338L378.187 239.838L364.546 292.751L366.482 293.25ZM379.969 240.67C401.797 210.193 430.644 184.635 462.891 157.349L461.599 155.822C429.359 183.102 400.332 208.803 378.343 239.506L379.969 240.67ZM462.899 157.342C479.623 142.889 495.057 129.837 506.972 118.078C518.855 106.35 527.406 95.7514 530.173 86.175L528.252 85.6199C525.644 94.6456 517.454 104.923 505.567 116.654C493.713 128.354 478.35 141.345 461.591 155.829L462.899 157.342ZM530.182 86.14L533.903 71.2583L531.963 70.7733L528.242 85.6549L530.182 86.14ZM533.886 71.319C535.399 66.5628 535.021 62.0406 532.256 58.7003C529.51 55.3818 524.612 53.4806 517.638 53.4806V55.4806C524.305 55.4806 528.501 57.2999 530.715 59.9754C532.912 62.6291 533.36 66.3745 531.98 70.7126L533.886 71.319ZM517.638 53.4806C504.316 53.4806 493.216 62.1059 488.978 77.3622L490.905 77.8975C494.934 63.3905 505.33 55.4806 517.638 55.4806V53.4806ZM488.972 77.3832L483.185 100.119L485.123 100.612L490.91 77.8765L488.972 77.3832ZM484.154 99.3657H417.186V101.366H484.154V99.3657ZM418.154 100.62L424.354 77.0576L422.42 76.5486L416.219 100.111L418.154 100.62ZM424.348 77.0808C431.948 50.7897 444.551 31.9826 461.386 19.7387C478.226 7.49189 499.396 1.74131 524.252 1.74131V-0.258686C499.089 -0.258686 477.474 5.56536 460.21 18.1213C442.941 30.6801 430.122 49.904 422.426 76.5254L424.348 77.0808ZM524.252 1.74131C553.233 1.74131 574.119 9.6553 586.476 22.215C598.801 34.7423 602.783 52.0344 597.694 71.1722L599.626 71.6862C604.871 51.9662 600.792 33.9144 587.902 20.8123C575.042 7.74242 553.557 -0.258686 524.252 -0.258686V1.74131ZM597.697 71.1595L594.803 81.494L596.729 82.0333L599.623 71.6988L597.697 71.1595ZM594.802 81.498C583.728 121.692 559.557 144.258 528.563 170.706L529.861 172.228C560.875 145.763 585.482 122.857 596.73 82.0293L594.802 81.498ZM528.538 170.728C514.292 183.736 499.492 196.881 487.129 208.777C474.792 220.65 464.763 231.389 460.134 239.597L461.876 240.579C466.34 232.665 476.154 222.115 488.516 210.218C500.853 198.346 515.61 185.241 529.887 172.205L528.538 170.728ZM775.322 72.6693L776.287 72.9293L776.289 72.9225L775.322 72.6693ZM769.534 94.165L768.569 93.9051L768.567 93.9122L768.565 93.9193L769.534 94.165ZM719.929 143.357L719.647 142.398L719.098 142.559L718.959 143.115L719.929 143.357ZM719.515 145.011L718.545 144.768L718.327 145.641L719.172 145.95L719.515 145.011ZM742.665 200.817L741.701 200.549L741.698 200.56L741.695 200.571L742.665 200.817ZM736.05 226.86L737.017 227.115L737.02 227.106L736.05 226.86ZM559.537 221.899L560.505 222.152L560.507 222.146L559.537 221.899ZM564.911 200.817L564.905 199.817L564.133 199.822L563.942 200.57L564.911 200.817ZM632.292 200.404L633.258 200.665L633.601 199.395L632.286 199.404L632.292 200.404ZM626.918 220.246L625.953 219.984L625.951 219.994L625.948 220.003L626.918 220.246ZM670.323 221.072L669.356 220.817L669.353 220.83L670.323 221.072ZM678.177 191.309L679.144 191.564L679.147 191.554L679.149 191.544L678.177 191.309ZM638.906 169.813L637.94 169.555L637.604 170.813H638.906V169.813ZM651.721 121.861V120.861H650.953L650.755 121.603L651.721 121.861ZM701.327 102.019L700.357 101.773L700.356 101.777L701.327 102.019ZM708.354 74.3228L707.388 74.0651L707.385 74.0769L708.354 74.3228ZM667.843 73.0827L668.8 73.3717L668.802 73.3668L667.843 73.0827ZM661.229 94.9918L661.216 95.9917L661.969 96.001L662.186 95.2808L661.229 94.9918ZM594.261 94.165L593.304 93.8756L592.919 95.1485L594.249 95.1649L594.261 94.165ZM599.635 76.3897L600.593 76.6791L600.596 76.6681L600.599 76.6569L599.635 76.3897ZM700.086 1.74131C727.645 1.74131 749.058 8.63449 762.134 20.8492C775.154 33.0115 780.064 50.5952 774.354 72.4161L776.289 72.9225C782.153 50.5118 777.142 32.1315 763.499 19.3877C749.913 6.69634 727.921 -0.258686 700.086 -0.258686V1.74131ZM774.356 72.4093L768.569 93.9051L770.5 94.425L776.287 72.9293L774.356 72.4093ZM768.565 93.9193C764.886 108.429 758.57 118.791 750.257 126.394C741.934 134.007 731.548 138.909 719.647 142.398L720.21 144.317C732.285 140.778 742.982 135.759 751.607 127.87C760.243 119.971 766.741 109.251 770.504 94.4108L768.565 93.9193ZM718.959 143.115L718.545 144.768L720.485 145.253L720.899 143.6L718.959 143.115ZM719.172 145.95C729.726 149.806 737.338 156.156 741.338 165.106C745.346 174.074 745.796 185.807 741.701 200.549L743.628 201.085C747.801 186.063 747.423 173.82 743.164 164.29C738.896 154.741 730.8 148.069 719.859 144.071L719.172 145.95ZM741.695 200.571L735.081 226.614L737.02 227.106L743.634 201.063L741.695 200.571ZM735.083 226.605C729.136 249.163 718.295 266.198 701.993 277.61C685.678 289.03 663.784 294.894 635.599 294.894V296.894C664.047 296.894 686.385 290.977 703.14 279.248C719.909 267.51 730.977 250.028 737.017 227.115L735.083 226.605ZM635.599 294.894C608.253 294.894 586.528 287.9 573.139 275.373C559.805 262.898 554.589 244.796 560.505 222.152L558.57 221.646C552.498 244.888 557.823 263.783 571.772 276.834C585.667 289.833 607.967 296.894 635.599 296.894V294.894ZM560.507 222.146L565.88 201.064L563.942 200.57L558.568 221.652L560.507 222.146ZM564.918 201.817L632.298 201.404L632.286 199.404L564.905 199.817L564.918 201.817ZM631.327 200.142L625.953 219.984L627.884 220.507L633.258 200.665L631.327 200.142ZM625.948 220.003C624.239 226.838 625.276 232.654 628.508 236.778C631.738 240.898 637.023 243.155 643.453 243.155V241.155C637.483 241.155 632.847 239.071 630.082 235.544C627.321 232.02 626.29 226.881 627.888 220.488L625.948 220.003ZM643.453 243.155C650.874 243.155 656.998 241.137 661.701 237.353C666.4 233.572 669.599 228.094 671.293 221.315L669.353 220.83C667.741 227.279 664.738 232.342 660.447 235.795C656.159 239.245 650.501 241.155 643.453 241.155V243.155ZM671.29 221.328L679.144 191.564L677.21 191.054L669.356 220.817L671.29 221.328ZM679.149 191.544C680.628 185.419 680.365 179.721 677.619 175.519C674.842 171.268 669.706 168.813 662.056 168.813V170.813C669.287 170.813 673.658 173.113 675.945 176.613C678.263 180.161 678.621 185.211 677.205 191.075L679.149 191.544ZM662.056 168.813H638.906V170.813H662.056V168.813ZM639.872 170.072L652.687 122.12L650.755 121.603L637.94 169.555L639.872 170.072ZM651.721 122.861H674.457V120.861H651.721V122.861ZM674.457 122.861C682.089 122.861 688.308 120.739 693.003 117.069C697.696 113.401 700.803 108.236 702.297 102.262L700.356 101.777C698.956 107.377 696.069 112.134 691.771 115.493C687.476 118.85 681.707 120.861 674.457 120.861V122.861ZM702.296 102.265L709.323 74.5688L707.385 74.0769L700.357 101.773L702.296 102.265ZM709.32 74.5805C711.023 68.196 710.333 62.8587 707.21 59.111C704.103 55.3818 698.793 53.4806 691.819 53.4806V55.4806C698.486 55.4806 703.098 57.2998 705.674 60.3914C708.235 63.4645 708.992 68.0483 707.388 74.0652L709.32 74.5805ZM691.819 53.4806C679.336 53.4806 670.302 61.2646 666.884 72.7986L668.802 73.3668C671.998 62.5783 680.326 55.4806 691.819 55.4806V53.4806ZM666.886 72.7937L660.271 94.7028L662.186 95.2808L668.8 73.3717L666.886 72.7937ZM661.241 93.9919L594.274 93.1651L594.249 95.1649L661.216 95.9917L661.241 93.9919ZM595.219 94.4544L600.593 76.6791L598.678 76.1003L593.304 93.8756L595.219 94.4544ZM600.599 76.6569C607.38 52.2056 618.549 33.5051 634.816 20.9092C651.082 8.31496 672.551 1.74131 700.086 1.74131V-0.258686C672.23 -0.258686 650.294 6.39581 633.592 19.3278C616.893 32.258 605.533 51.3817 598.672 76.1225L600.599 76.6569Z" fill="url(#paint0_linear_889_3665)" mask="url(#path-1-outside-1_889_3665)"/>
</g>
<defs>
<linearGradient id="paint0_linear_889_3665" x1="388.5" y1="-33.9995" x2="388.5" y2="301" gradientUnits="userSpaceOnUse">
<stop stop-color="white" stop-opacity="0.5"/>
<stop offset="0.499163" stop-color="#CECECE" stop-opacity="0.4"/>
<stop offset="1"/>
</linearGradient>
</defs>
</svg>
