<svg width="1306" height="282" viewBox="0 0 1306 282" fill="none" xmlns="http://www.w3.org/2000/svg">
<path d="M81.3 281.335C16.725 281.335 0.975 238.81 9.24375 207.31L14.7563 186.048L78.9375 185.654C76.575 193.529 75 200.223 73.0313 208.098C69.0938 223.454 75.7875 230.148 88.3875 230.148C99.8063 230.148 108.469 223.848 111.225 214.792L115.556 197.86C121.069 178.96 114.769 170.692 83.6625 154.942C47.8313 136.435 38.3813 110.842 47.0438 78.5541L50.9813 63.9853C61.2188 28.1541 87.6 0.197845 141.544 0.197845C188.006 0.197845 222.656 22.6416 213.6 70.6791C211.631 78.5541 210.056 84.0666 208.088 92.3353L143.906 92.7291C145.875 84.8541 147.844 78.9478 149.813 71.0728C152.963 58.4728 146.663 51.3853 134.85 51.3853C123.431 51.3853 113.981 57.6853 111.619 67.1354L107.681 82.0978C104.138 97.0603 106.5 104.542 134.456 119.504C173.044 140.767 186.431 166.36 177.769 199.829L173.044 217.942C161.231 259.285 129.731 281.335 81.3 281.335ZM320.722 278.579H167.947L241.972 2.95408H391.99L378.603 53.3541H292.372L277.803 110.054H351.04L338.047 157.304H264.809L245.909 228.179H334.109L320.722 278.579ZM322.109 278.579L446.14 2.95408H535.128L513.078 278.579H450.471L455.59 235.66H405.584L387.865 278.579H322.109ZM473.309 71.8603L426.453 185.26H461.496L475.278 71.8603H473.309ZM604.08 281.335C539.505 281.335 523.755 238.81 532.024 207.31L537.536 186.048L601.718 185.654C599.355 193.529 597.78 200.223 595.811 208.098C591.874 223.454 598.568 230.148 611.168 230.148C622.586 230.148 631.249 223.848 634.005 214.792L638.336 197.86C643.849 178.96 637.549 170.692 606.443 154.942C570.611 136.435 561.161 110.842 569.824 78.5541L573.761 63.9853C583.999 28.1541 610.38 0.197845 664.324 0.197845C710.786 0.197845 745.436 22.6416 736.38 70.6791C734.411 78.5541 732.836 84.0666 730.868 92.3353L666.686 92.7291C668.655 84.8541 670.624 78.9478 672.593 71.0728C675.743 58.4728 669.443 51.3853 657.63 51.3853C646.211 51.3853 636.761 57.6853 634.399 67.1354L630.461 82.0978C626.918 97.0603 629.28 104.542 657.236 119.504C695.824 140.767 709.211 166.36 700.549 199.829L695.824 217.942C684.011 259.285 652.511 281.335 604.08 281.335ZM779.714 281.335C726.558 281.335 694.664 251.41 709.627 195.104L739.158 84.8541C754.12 28.9416 787.983 0.197845 840.745 0.197845C893.902 0.197845 926.189 28.5478 911.227 84.8541L881.695 195.104C866.733 251.41 832.87 281.335 779.714 281.335ZM786.014 230.148C800.583 230.148 810.82 219.123 816.333 199.042L847.833 82.0978C853.345 62.4103 848.227 51.3853 833.658 51.3853C819.877 51.3853 809.639 62.4103 804.127 82.0978L773.02 199.042C767.114 219.123 771.839 230.148 786.014 230.148ZM933.067 278.579H872.036L946.061 2.95408H1013L1027.57 168.723H1029.14L1034.65 139.979L1069.3 2.95408H1130.34L1056.7 278.579H991.342L975.592 112.81H974.411L968.111 141.948L933.067 278.579ZM1305.37 2.95408L1231.74 278.579H1167.56L1219.14 85.6416H1214.81C1206.94 89.1853 1196.7 90.3666 1186.07 90.3666L1200.64 37.2103C1219.54 37.2103 1233.71 23.8228 1239.22 2.95408H1305.37Z" fill="url(#paint0_linear_889_3803)"/>
<defs>
<linearGradient id="paint0_linear_889_3803" x1="642" y1="-32.4209" x2="642" y2="286.579" gradientUnits="userSpaceOnUse">
<stop stop-color="#E7327C"/>
<stop offset="0.485791" stop-color="#B2275F"/>
<stop offset="1"/>
</linearGradient>
</defs>
</svg>
